STARTFONT 2.1
FONT -FontForge-Arial Narrow-Bold-R-Normal--68-650-75-75-P-305-ISO10646-1
SIZE 65 75 75
FONTBOUNDINGBOX 55 66 -2 -14
COMMENT "Generated by fontforge, http://fontforge.sourceforge.net"
COMMENT "(c) 2008 The Monotype Corporation. All Rights Reserved."
STARTPROPERTIES 39
FOUNDRY "FontForge"
FAMILY_NAME "Arial Narrow"
WEIGHT_NAME "Bold"
SLANT "R"
SETWIDTH_NAME "Normal"
ADD_STYLE_NAME ""
PIXEL_SIZE 68
POINT_SIZE 650
RESOLUTION_X 75
RESOLUTION_Y 75
SPACING "P"
AVERAGE_WIDTH 305
CHARSET_REGISTRY "ISO10646"
CHARSET_ENCODING "1"
FONTNAME_REGISTRY ""
CHARSET_COLLECTIONS "ISO10646-1"
FONT_NAME "ArialNarrow-Bold"
FACE_NAME "Arial Narrow Bold"
COPYRIGHT "(c) 2008 The Monotype Corporation. All Rights Reserved."
FONT_VERSION "2.40"
FONT_ASCENT 54
FONT_DESCENT 14
UNDERLINE_POSITION -10
UNDERLINE_THICKNESS 5
X_HEIGHT 34
CAP_HEIGHT 48
RAW_ASCENT 799
RAW_DESCENT 200
RELATIVE_WEIGHT 70
RELATIVE_SETWIDTH 30
SUPERSCRIPT_X 0
SUPERSCRIPT_Y 17
SUPERSCRIPT_SIZE 44
SUBSCRIPT_X 0
SUBSCRIPT_Y 4
SUBSCRIPT_SIZE 44
FIGURE_WIDTH 31
AVG_LOWERCASE_WIDTH 297
AVG_UPPERCASE_WIDTH 381
ENDPROPERTIES
CHARS 112
STARTCHAR exclam
ENCODING 33
SWIDTH 272 0
DWIDTH 19 0
BBX 8 49 5 0
BITMAP
FF
FF
FF
FF
FF
FF
FF
FF
FF
FF
FF
FF
FF
FF
FF
FF
FF
FF
7E
7E
7E
7E
7E
7E
7E
7E
7E
7E
7E
7E
7E
3C
3C
3C
3C
3C
3C
00
00
00
FF
FF
FF
FF
FF
FF
FF
FF
FF
ENDCHAR
STARTCHAR quotedbl
ENCODING 34
SWIDTH 389 0
DWIDTH 26 0
BBX 20 17 3 32
BITMAP
FF0FF0
FF0FF0
FF0FF0
FF0FF0
FF0FF0
FF0FF0
FF0FF0
FF0FF0
FF0FF0
FF0FF0
FF0FF0
7F07F0
7E07E0
7E07E0
7E07E0
7E07E0
7E07E0
ENDCHAR
STARTCHAR numbersign
ENCODING 35
SWIDTH 456 0
DWIDTH 31 0
BBX 30 51 1 -1
BITMAP
003F03F0
003F03F0
003F03F0
007E07E0
007E07E0
007E07E0
007E07E0
007E07E0
007E07E0
00FE0FE0
00FC0FC0
00FC0FC0
FFFFFFFC
FFFFFFFC
FFFFFFFC
FFFFFFFC
FFFFFFFC
FFFFFFFC
FFFFFFFC
FFFFFFFC
01F81F80
01F81F80
03F83F80
03F03F00
03F03F00
03F03F00
03F03F00
03F03F00
07F07F00
07E07E00
07E07E00
FFFFFFFC
FFFFFFFC
FFFFFFFC
FFFFFFFC
FFFFFFFC
FFFFFFFC
FFFFFFFC
FFFFFFFC
0FC0FC00
0FC0FC00
1FC1FC00
1F81F800
1F81F800
1F81F800
1F81F800
1F81F800
1F81F800
3F03F000
3F03F000
3F03F000
ENDCHAR
STARTCHAR dollar
ENCODING 36
SWIDTH 456 0
DWIDTH 31 0
BBX 27 59 3 -7
BITMAP
000F0000
000F0000
000F0000
003FC000
01FFF000
03FFFC00
07FFFE00
0FFFFE00
1FFFFF00
1FFFFF80
3FFFFF80
3FEF7F80
7FCF3FC0
7F8F3FC0
7F0F1FC0
7F0F1E00
7F0F0000
7F0F0000
7F0F0000
7F8F0000
7FCF0000
3FEF0000
3FFF0000
3FFF0000
1FFFC000
1FFFF000
0FFFFC00
07FFFE00
03FFFF00
00FFFF80
003FFF80
000FFFC0
000FFFC0
000F7FC0
000F1FE0
000F1FE0
000F0FE0
000F0FE0
1E0F0FE0
FE0F0FE0
FF0F0FE0
FF0F0FE0
7F8F1FE0
7FCF3FC0
7FEF7FC0
3FFFFFC0
3FFFFF80
1FFFFF00
0FFFFF00
0FFFFE00
03FFFC00
01FFF000
003FC000
000F0000
000F0000
000F0000
000F0000
000F0000
000F0000
ENDCHAR
STARTCHAR percent
ENCODING 37
SWIDTH 729 0
DWIDTH 50 0
BBX 45 50 2 -1
BITMAP
03F00003E000
0FFC0003E000
1FFE0007C000
3FFF0007C000
7FFF800FC000
7F3F800F8000
7E1F801F8000
FC0FC01F0000
FC0FC01F0000
FC0FC03F0000
FC0FC03E0000
FC0FC07E0000
FC0FC07C0000
FC0FC07C0000
FC0FC0FC0000
FC0FC0F80000
FC0FC1F80000
FC0FC1F00000
7E1F83F00000
7F3F83E00000
7FFF83E00000
3FFF07E00000
1FFE07C00000
0FFC0FC00000
03F00F800000
00000F807E00
00001F81FF80
00001F03FFC0
00003F07FFE0
00003E0FFFF0
00003E0FE7F0
00007E0FC3F0
00007C1F81F8
0000FC1F81F8
0000F81F81F8
0001F81F81F8
0001F01F81F8
0001F01F81F8
0003F01F81F8
0003E01F81F8
0007E01F81F8
0007C01F81F8
0007C01F81F8
000FC00FC3F0
000F800FE7F0
001F800FFFF0
001F0007FFE0
001F0003FFC0
003E0001FF80
003E00007E00
ENDCHAR
STARTCHAR ampersand
ENCODING 38
SWIDTH 591 0
DWIDTH 40 0
BBX 37 51 2 -1
BITMAP
000FF00000
003FFC0000
007FFE0000
00FFFF0000
01FFFF8000
03FFFFC000
03FFFFC000
07FFFFC000
07FE3FE000
07F81FE000
07F80FE000
07F80FE000
07F80FE000
07F80FE000
03FC1FE000
03FC3FC000
03FE7FC000
01FFFF8000
01FFFF0000
00FFFF0000
00FFFE0000
007FFC0000
00FFF00000
03FFF00000
07FFF00000
0FFFF80000
1FFFFC0000
1FFFFC1E00
3FF3FE3FC0
3FE3FF3FC0
7FC1FF3FC0
7F81FFFF80
FF80FFFF80
FF007FFF80
FF007FFF00
FF003FFF00
FF001FFF00
FF001FFE00
FF000FFE00
FF800FFF00
FF801FFF80
7FC03FFFC0
7FE0FFFFE0
3FFFFFFFF0
3FFFFFFFF8
1FFFFFFFF0
1FFFFF9FE0
0FFFFF0FE0
07FFFE07C0
01FFF80380
003FC00180
ENDCHAR
STARTCHAR quotesingle
ENCODING 39
SWIDTH 194 0
DWIDTH 13 0
BBX 8 17 2 32
BITMAP
FF
FF
FF
FF
FF
FF
FF
FF
FF
FF
FF
7F
7E
7E
7E
7E
7E
ENDCHAR
STARTCHAR parenleft
ENCODING 40
SWIDTH 272 0
DWIDTH 19 0
BBX 15 63 3 -14
BITMAP
003E
007C
00FC
00FC
01F8
01F8
03F8
03F0
07F0
07F0
0FE0
0FE0
1FE0
1FC0
1FC0
3FC0
3FC0
3F80
3F80
7F80
7F80
7F80
7F80
7F00
FF00
FF00
FF00
FF00
FF00
FF00
FF00
FF00
FF00
FF00
FF00
FF00
FF00
FF00
FF00
7F00
7F80
7F80
7F80
7F80
3F80
3F80
3FC0
1FC0
1FC0
1FC0
0FE0
0FE0
0FE0
07E0
07F0
03F0
03F0
01F8
01F8
00FC
00FC
007C
003E
ENDCHAR
STARTCHAR parenright
ENCODING 41
SWIDTH 272 0
DWIDTH 19 0
BBX 15 63 2 -14
BITMAP
F800
7C00
7E00
7E00
3F00
3F00
3F80
1F80
1FC0
1FC0
0FE0
0FE0
0FE0
07F0
07F0
07F8
07F8
03F8
03F8
03FC
03FC
03FC
03FC
01FC
01FE
01FE
01FE
01FE
01FE
01FE
01FE
01FE
01FE
01FE
01FE
01FE
01FE
01FE
01FC
03FC
03FC
03FC
03FC
03F8
03F8
03F8
07F8
07F0
07F0
07F0
0FE0
0FE0
0FE0
0FC0
1FC0
1F80
1F80
3F00
3F00
7E00
7E00
7C00
F800
ENDCHAR
STARTCHAR asterisk
ENCODING 42
SWIDTH 318 0
DWIDTH 22 0
BBX 19 24 1 26
BITMAP
01F000
01F000
01F000
01F000
01F000
41F000
71F0C0
79E3C0
7EE7C0
FFFFE0
FFFFE0
7FFFE0
0FFF80
01F800
03F800
07FC00
0FBC00
1FBE00
1F1F00
3F1F00
3E1F80
1E0F00
0C0E00
040400
ENDCHAR
STARTCHAR plus
ENCODING 43
SWIDTH 479 0
DWIDTH 33 0
BBX 28 34 2 7
BITMAP
003FC000
003FC000
003FC000
003FC000
003FC000
003FC000
003FC000
003FC000
003FC000
003FC000
003FC000
003FC000
003FC000
FFFFFFF0
FFFFFFF0
FFFFFFF0
FFFFFFF0
FFFFFFF0
FFFFFFF0
FFFFFFF0
FFFFFFF0
003FC000
003FC000
003FC000
003FC000
003FC000
003FC000
003FC000
003FC000
003FC000
003FC000
003FC000
003FC000
003FC000
ENDCHAR
STARTCHAR comma
ENCODING 44
SWIDTH 228 0
DWIDTH 16 0
BBX 9 20 3 -11
BITMAP
7F80
7F80
7F80
7F80
7F80
7F80
7F80
7F80
7F80
0780
0780
0780
0F00
0F00
1F00
7E00
FE00
7C00
7000
6000
ENDCHAR
STARTCHAR hyphen
ENCODING 45
SWIDTH 272 0
DWIDTH 19 0
BBX 15 9 2 13
BITMAP
FFFE
FFFE
FFFE
FFFE
FFFE
FFFE
FFFE
FFFE
FFFE
ENDCHAR
STARTCHAR period
ENCODING 46
SWIDTH 228 0
DWIDTH 16 0
BBX 8 9 4 0
BITMAP
FF
FF
FF
FF
FF
FF
FF
FF
FF
ENDCHAR
STARTCHAR slash
ENCODING 47
SWIDTH 228 0
DWIDTH 16 0
BBX 16 51 0 -1
BITMAP
003F
003F
007F
007E
007E
007E
007E
00FE
00FC
00FC
00FC
00FC
01FC
01F8
01F8
01F8
01F8
03F8
03F0
03F0
03F0
03F0
03F0
07E0
07E0
07E0
07E0
07E0
0FC0
0FC0
0FC0
0FC0
0FC0
1FC0
1F80
1F80
1F80
1F80
3F80
3F00
3F00
3F00
3F00
7F00
7E00
7E00
7E00
7E00
FE00
FC00
FC00
ENDCHAR
STARTCHAR zero
ENCODING 48
SWIDTH 456 0
DWIDTH 31 0
BBX 26 50 2 -1
BITMAP
003F0000
00FFC000
03FFF000
07FFF800
0FFFFC00
0FFFFC00
1FFFFE00
1FFFFE00
3FE1FF00
3FC0FF00
7FC0FF00
7F807F80
7F807F80
7F807F80
7F807F80
FF003F80
FF003FC0
FF003FC0
FF003FC0
FF003FC0
FF003FC0
FF003FC0
FF003FC0
FF003FC0
FF003FC0
FF003FC0
FF003FC0
FF003FC0
FF003FC0
FF003FC0
FF003FC0
FF003FC0
FF003FC0
FF003FC0
7F003F80
7F007F80
7F807F80
7F807F80
7F807F80
7FC0FF00
3FC0FF00
3FE1FF00
3FFFFE00
1FFFFE00
0FFFFC00
0FFFFC00
07FFF800
03FFF000
00FFC000
003F0000
ENDCHAR
STARTCHAR one
ENCODING 49
SWIDTH 456 0
DWIDTH 31 0
BBX 18 49 4 0
BITMAP
001FC0
001FC0
001FC0
003FC0
003FC0
007FC0
00FFC0
01FFC0
03FFC0
07FFC0
0FFFC0
1FFFC0
7FFFC0
FFFFC0
FFFFC0
FF3FC0
FE3FC0
FC3FC0
F83FC0
E03FC0
803FC0
003FC0
003FC0
003FC0
003FC0
003FC0
003FC0
003FC0
003FC0
003FC0
003FC0
003FC0
003FC0
003FC0
003FC0
003FC0
003FC0
003FC0
003FC0
003FC0
003FC0
003FC0
003FC0
003FC0
003FC0
003FC0
003FC0
003FC0
003FC0
ENDCHAR
STARTCHAR two
ENCODING 50
SWIDTH 456 0
DWIDTH 31 0
BBX 28 49 1 0
BITMAP
001FE000
00FFFC00
03FFFE00
07FFFF00
0FFFFF80
0FFFFFC0
1FFFFFC0
1FFFFFE0
3FF07FE0
3FE03FE0
3FC01FF0
7FC00FF0
7F800FF0
7F800FF0
07800FF0
00000FF0
00000FF0
00001FF0
00001FE0
00001FE0
00003FE0
00007FC0
00007FC0
0000FFC0
0001FF80
0003FF00
0007FF00
000FFE00
001FFC00
003FF800
003FF000
007FF000
00FFE000
01FFC000
03FF8000
07FF0000
07FE0000
0FFC0000
1FF80000
1FF00000
3FF00000
3FFFFFF0
7FFFFFF0
7FFFFFF0
7FFFFFF0
7FFFFFF0
FFFFFFF0
FFFFFFF0
FFFFFFF0
ENDCHAR
STARTCHAR three
ENCODING 51
SWIDTH 456 0
DWIDTH 31 0
BBX 27 50 2 -1
BITMAP
007F8000
01FFF000
07FFF800
0FFFFC00
1FFFFE00
1FFFFF00
3FFFFF80
3FFFFF80
7FE1FF80
7F807FC0
7F003FC0
FF003FC0
FE003FC0
1E003FC0
00003FC0
00007F80
0000FF80
0003FF80
001FFF00
001FFE00
001FFC00
003FF800
003FF800
003FFE00
003FFF00
003FFF80
0020FF80
00007FC0
00003FC0
00003FC0
00001FE0
00001FE0
00001FE0
00001FE0
00001FE0
0F001FE0
FF001FE0
FF003FE0
FF803FE0
7F803FC0
7FC07FC0
7FE1FFC0
3FFFFF80
3FFFFF00
1FFFFF00
0FFFFE00
07FFFC00
03FFF800
01FFE000
003F8000
ENDCHAR
STARTCHAR four
ENCODING 52
SWIDTH 456 0
DWIDTH 31 0
BBX 29 49 1 0
BITMAP
00007F00
0000FF00
0000FF00
0001FF00
0001FF00
0003FF00
0007FF00
0007FF00
000FFF00
000FFF00
001FFF00
001FFF00
003FFF00
003FFF00
007FFF00
007EFF00
00FEFF00
01FCFF00
01FCFF00
03F8FF00
03F8FF00
07F0FF00
07F0FF00
0FE0FF00
0FE0FF00
1FC0FF00
3F80FF00
3F80FF00
7F00FF00
7F00FF00
FE00FF00
FFFFFFF8
FFFFFFF8
FFFFFFF8
FFFFFFF8
FFFFFFF8
FFFFFFF8
FFFFFFF8
FFFFFFF8
0000FF00
0000FF00
0000FF00
0000FF00
0000FF00
0000FF00
0000FF00
0000FF00
0000FF00
0000FF00
ENDCHAR
STARTCHAR five
ENCODING 53
SWIDTH 456 0
DWIDTH 31 0
BBX 28 49 2 -1
BITMAP
07FFFFC0
07FFFFC0
07FFFFC0
0FFFFFC0
0FFFFFC0
0FFFFFC0
0FFFFFC0
0FFFFFC0
0FF00000
1FF00000
1FE00000
1FE00000
1FE00000
1FE00000
1FE00000
1FE7E000
3FDFF800
3FFFFC00
3FFFFF00
3FFFFF00
3FFFFF80
3FFFFFC0
7FFFFFC0
7FE0FFE0
7F803FE0
0F003FE0
00001FE0
00001FF0
00000FF0
00000FF0
00000FF0
00000FF0
00000FF0
00000FF0
0F000FF0
FF000FF0
FF801FE0
FF801FE0
7FC03FE0
7FC07FC0
7FF0FFC0
3FFFFFC0
3FFFFF80
1FFFFF00
0FFFFF00
07FFFE00
03FFFC00
01FFF000
003FC000
ENDCHAR
STARTCHAR six
ENCODING 54
SWIDTH 456 0
DWIDTH 31 0
BBX 27 50 2 -1
BITMAP
001FC000
007FF000
01FFFC00
03FFFE00
07FFFE00
0FFFFF00
0FFFFF80
1FFFFF80
1FF0FF80
3FC07FC0
3FC07FC0
3F803FC0
7F803C00
7F000000
7F000000
7F000000
7F000000
FF000000
FF0FC000
FF3FF000
FE7FFC00
FEFFFE00
FFFFFF00
FFFFFF00
FFFFFF80
FFFFFF80
FFE0FFC0
FFC07FC0
FF803FC0
FF803FE0
FF001FE0
FF001FE0
FF001FE0
FF001FE0
7F001FE0
7F001FE0
7F001FE0
7F801FE0
7F803FE0
3FC03FC0
3FC07FC0
3FF0FFC0
1FFFFF80
1FFFFF80
0FFFFF00
07FFFE00
03FFFC00
01FFF800
00FFF000
001F8000
ENDCHAR
STARTCHAR seven
ENCODING 55
SWIDTH 456 0
DWIDTH 31 0
BBX 27 48 2 0
BITMAP
FFFFFFE0
FFFFFFE0
FFFFFFE0
FFFFFFE0
FFFFFFE0
FFFFFFE0
FFFFFFE0
FFFFFFC0
00007FC0
00007F80
0000FF00
0001FF00
0001FE00
0003FC00
0003FC00
0007F800
0007F800
000FF000
000FF000
001FE000
001FE000
001FE000
003FC000
003FC000
007F8000
007F8000
007F8000
00FF0000
00FF0000
00FF0000
00FF0000
01FE0000
01FE0000
01FE0000
01FE0000
03FC0000
03FC0000
03FC0000
03FC0000
03FC0000
03FC0000
07F80000
07F80000
07F80000
07F80000
07F80000
07F80000
07F80000
ENDCHAR
STARTCHAR eight
ENCODING 56
SWIDTH 456 0
DWIDTH 31 0
BBX 27 50 2 -1
BITMAP
003FC000
01FFF000
07FFFC00
0FFFFE00
1FFFFE00
1FFFFF00
3FFFFF80
3FFFFF80
7FF0FF80
7FC03FC0
7FC03FC0
7F801FC0
7F801FC0
7F801FC0
7F801FC0
7F801FC0
3FC03F80
3FC03F80
3FF0FF00
1FFFFF00
0FFFFE00
07FFFC00
01FFF000
03FFF800
0FFFFE00
1FFFFF00
1FFFFF80
3FE0FF80
7FC07FC0
7F803FC0
7F803FC0
FF001FE0
FF001FE0
FF001FE0
FF001FE0
FF001FE0
FF001FE0
FF001FE0
FF803FE0
FF803FC0
7FC07FC0
7FE0FFC0
7FFFFF80
3FFFFF80
1FFFFF00
1FFFFF00
0FFFFE00
03FFF800
01FFF000
003F8000
ENDCHAR
STARTCHAR nine
ENCODING 57
SWIDTH 456 0
DWIDTH 31 0
BBX 28 50 1 -1
BITMAP
003F8000
01FFE000
03FFF800
07FFFC00
0FFFFE00
1FFFFF00
3FFFFF00
3FFFFF80
7FE0FF80
7FC07FC0
7F803FC0
FF801FE0
FF001FE0
FF000FE0
FF000FE0
FF000FE0
FF000FE0
FF000FF0
FF000FF0
FF000FF0
FF801FF0
7F801FF0
7FC03FF0
7FF0FFF0
3FFFFFF0
3FFFFFF0
1FFFFFF0
0FFFFFF0
07FFF7F0
03FFEFF0
01FFCFF0
007F0FF0
00000FF0
00000FE0
00000FE0
00000FE0
00001FE0
07801FE0
7F801FC0
7FC03FC0
7FC07FC0
3FF0FF80
3FFFFF80
3FFFFF00
1FFFFE00
0FFFFE00
0FFFFC00
07FFF800
01FFE000
007F0000
ENDCHAR
STARTCHAR colon
ENCODING 58
SWIDTH 272 0
DWIDTH 19 0
BBX 8 35 6 0
BITMAP
FF
FF
FF
FF
FF
FF
FF
FF
FF
00
00
00
00
00
00
00
00
00
00
00
00
00
00
00
00
00
FF
FF
FF
FF
FF
FF
FF
FF
FF
ENDCHAR
STARTCHAR semicolon
ENCODING 59
SWIDTH 272 0
DWIDTH 19 0
BBX 9 46 5 -11
BITMAP
7F80
7F80
7F80
7F80
7F80
7F80
7F80
7F80
7F80
0000
0000
0000
0000
0000
0000
0000
0000
0000
0000
0000
0000
0000
0000
0000
0000
0000
7F80
7F80
7F80
7F80
7F80
7F80
7F80
7F80
7F80
0780
0780
0780
0F00
0F00
1F00
7E00
FE00
7C00
7000
6000
ENDCHAR
STARTCHAR less
ENCODING 60
SWIDTH 479 0
DWIDTH 33 0
BBX 28 37 2 6
BITMAP
00000010
00000070
000001F0
000007F0
00000FF0
00003FF0
0000FFF0
0003FFF0
000FFFF0
003FFFE0
00FFFF80
03FFFE00
0FFFF800
1FFFE000
7FFF8000
FFFE0000
FFF80000
FFE00000
FF800000
FFE00000
FFF80000
FFFE0000
7FFF8000
1FFFE000
07FFF800
01FFFE00
00FFFF80
003FFFE0
000FFFF0
0003FFF0
0000FFF0
00003FF0
00000FF0
000007F0
000001F0
00000070
00000010
ENDCHAR
STARTCHAR equal
ENCODING 61
SWIDTH 479 0
DWIDTH 33 0
BBX 28 22 2 14
BITMAP
FFFFFFF0
FFFFFFF0
FFFFFFF0
FFFFFFF0
FFFFFFF0
FFFFFFF0
FFFFFFF0
FFFFFFF0
00000000
00000000
00000000
00000000
00000000
00000000
FFFFFFF0
FFFFFFF0
FFFFFFF0
FFFFFFF0
FFFFFFF0
FFFFFFF0
FFFFFFF0
FFFFFFF0
ENDCHAR
STARTCHAR greater
ENCODING 62
SWIDTH 479 0
DWIDTH 33 0
BBX 28 37 2 6
BITMAP
80000000
E0000000
F8000000
FE000000
FF800000
FFC00000
FFF00000
FFFC0000
FFFF0000
7FFFC000
1FFFF000
07FFFC00
01FFFF00
007FFFC0
001FFFE0
0007FFF0
0001FFF0
00003FF0
00000FF0
00003FF0
0001FFF0
0007FFF0
001FFFE0
007FFF80
01FFFE00
07FFFC00
1FFFF000
7FFFC000
FFFF0000
FFFC0000
FFF00000
FFC00000
FF000000
FE000000
F8000000
E0000000
80000000
ENDCHAR
STARTCHAR question
ENCODING 63
SWIDTH 500 0
DWIDTH 34 0
BBX 28 50 3 0
BITMAP
003FC000
00FFF800
03FFFC00
07FFFE00
0FFFFF00
1FFFFF80
3FFFFFC0
3FFFFFC0
7FE0FFE0
7FC03FE0
7F801FF0
FF001FF0
FF000FF0
FF000FF0
FE000FF0
1E000FF0
00000FF0
00001FF0
00001FE0
00003FE0
00007FE0
0000FFC0
0001FF80
0001FF80
0003FF00
0007FE00
000FFC00
000FF800
001FF000
001FE000
003FE000
003FC000
003FC000
003F8000
003F8000
003F8000
003F8000
003F8000
00000000
00000000
00000000
003FC000
003FC000
003FC000
003FC000
003FC000
003FC000
003FC000
003FC000
003FC000
ENDCHAR
STARTCHAR at
ENCODING 64
SWIDTH 799 0
DWIDTH 54 0
BBX 52 64 1 -14
BITMAP
000003FF000000
00003FFFF00000
0000FFFFFC0000
0003FFFFFF0000
0007FFFFFF8000
001FFFFFFFC000
003FFC00FFE000
007FE0001FF000
00FF800007F800
01FE000003F800
01FC000001FC00
03F8000000FE00
07F00000007E00
07E00000003F00
0FE007E0003F00
0FC01FF8FE1F00
1F803FFCFE1F80
1F80FFFEFE0F80
1F00FFFFFC0F80
3F01FFFFFC0F80
3E03FE1FFC07C0
3E03F80FFC07C0
7E07F807FC07C0
7C07F007FC07C0
7C0FE007F807C0
7C0FE003F807C0
FC1FE003F807C0
FC1FC003F807C0
F81FC003F807C0
F81FC003F00FC0
F83F8003F00FC0
F83F8007F00F80
F83F8007F00F80
F83F8007F01F80
F83F8007F01F80
F83F8007E03F00
F83F800FE03F00
F83F800FE07F00
F83F800FE0FE00
F83F801FE0FE00
FC3FC01FE1FC00
7C1FC03FE7FC00
7C1FE07FFFF800
7C1FF0FFFFF000
7E0FFFFFFFE000
3E0FFFFFFFC000
3F07FFFFFF8000
3F03FFDFFF0000
1F81FF8FFC0000
1FC07E07F001F0
0FC000000003E0
0FE000000007E0
07F00000000FC0
03F80000001FC0
03FE0000003F80
01FF000000FF00
00FFE00003FE00
007FFE003FFC00
003FFFFFFFF800
000FFFFFFFF000
0007FFFFFFC000
0001FFFFFF8000
00003FFFFC0000
000003FFC00000
ENDCHAR
STARTCHAR A
ENCODING 65
SWIDTH 591 0
DWIDTH 40 0
BBX 41 49 0 0
BITMAP
0000FF800000
0001FFC00000
0001FFC00000
0001FFC00000
0003FFE00000
0003FFE00000
0003FFE00000
0007FFF00000
0007FFF00000
0007FFF00000
000FFFF00000
000FFFF80000
000FF7F80000
000FF7F80000
001FF7FC0000
001FE3FC0000
001FE3FC0000
003FE3FE0000
003FC1FE0000
003FC1FE0000
007FC1FF0000
007F80FF0000
007F80FF0000
00FF80FF8000
00FF007F8000
00FF007F8000
01FF007FC000
01FE003FC000
01FE003FC000
03FE003FE000
03FFFFFFE000
03FFFFFFE000
07FFFFFFF000
07FFFFFFF000
07FFFFFFF000
0FFFFFFFF800
0FFFFFFFF800
0FFFFFFFF800
1FF00007FC00
1FE00003FC00
1FE00003FC00
3FE00003FE00
3FC00001FE00
3FC00001FE00
7FC00001FF00
7F800000FF00
7F800000FF00
FF800000FF80
FF800000FF80
ENDCHAR
STARTCHAR B
ENCODING 66
SWIDTH 591 0
DWIDTH 40 0
BBX 33 49 4 0
BITMAP
FFFFFE0000
FFFFFFC000
FFFFFFF000
FFFFFFF800
FFFFFFF800
FFFFFFFC00
FFFFFFFE00
FFFFFFFE00
FF0007FE00
FF0001FF00
FF0001FF00
FF0000FF00
FF0000FF00
FF0000FF00
FF0000FF00
FF0000FF00
FF0000FE00
FF0001FE00
FF0003FE00
FF0007FC00
FFFFFFFC00
FFFFFFF800
FFFFFFF000
FFFFFFE000
FFFFFFF000
FFFFFFFC00
FFFFFFFC00
FFFFFFFE00
FF0007FF00
FF0001FF00
FF0000FF00
FF0000FF80
FF00007F80
FF00007F80
FF00007F80
FF00007F80
FF00007F80
FF0000FF80
FF0000FF80
FF0001FF00
FF0003FF00
FFFFFFFF00
FFFFFFFE00
FFFFFFFE00
FFFFFFFC00
FFFFFFF800
FFFFFFF000
FFFFFFE000
FFFFFF0000
ENDCHAR
STARTCHAR C
ENCODING 67
SWIDTH 591 0
DWIDTH 40 0
BBX 35 51 2 -1
BITMAP
0001FE0000
000FFFC000
003FFFF000
00FFFFF800
01FFFFFC00
03FFFFFE00
07FFFFFF00
07FFFFFF80
0FFE07FF80
1FF801FFC0
1FF000FFC0
1FE0007FC0
3FE0003FE0
3FC0003FE0
7FC0001F80
7F80001800
7F80000000
7F80000000
7F00000000
FF00000000
FF00000000
FF00000000
FF00000000
FF00000000
FF00000000
FF00000000
FF00000000
FF00000000
FF00000000
FF00000000
FF00000000
FF00000000
FF00000000
7F80001000
7F80001E00
7F80003FC0
7FC0003FE0
3FC0003FE0
3FC0007FC0
3FE000FFC0
1FF000FFC0
1FF801FF80
0FFE07FF80
07FFFFFF00
07FFFFFE00
03FFFFFE00
01FFFFFC00
00FFFFF800
007FFFE000
001FFFC000
0003FE0000
ENDCHAR
STARTCHAR D
ENCODING 68
SWIDTH 591 0
DWIDTH 40 0
BBX 33 49 4 0
BITMAP
FFFFF00000
FFFFFE0000
FFFFFF8000
FFFFFFC000
FFFFFFE000
FFFFFFF000
FFFFFFF800
FFFFFFF800
FF003FFC00
FF000FFC00
FF0003FE00
FF0003FE00
FF0001FE00
FF0001FF00
FF0000FF00
FF0000FF00
FF0000FF00
FF00007F80
FF00007F80
FF00007F80
FF00007F80
FF00007F80
FF00007F80
FF00007F80
FF00007F80
FF00007F80
FF00007F80
FF00007F80
FF00007F80
FF00007F80
FF00007F80
FF00007F80
FF0000FF00
FF0000FF00
FF0000FF00
FF0000FF00
FF0001FE00
FF0001FE00
FF0003FE00
FF0007FC00
FF001FFC00
FFFFFFF800
FFFFFFF800
FFFFFFF000
FFFFFFE000
FFFFFFC000
FFFFFF8000
FFFFFE0000
FFFFF00000
ENDCHAR
STARTCHAR E
ENCODING 69
SWIDTH 546 0
DWIDTH 37 0
BBX 30 49 4 0
BITMAP
FFFFFFF8
FFFFFFF8
FFFFFFF8
FFFFFFF8
FFFFFFF8
FFFFFFF8
FFFFFFF8
FFFFFFF8
FF000000
FF000000
FF000000
FF000000
FF000000
FF000000
FF000000
FF000000
FF000000
FF000000
FF000000
FFFFFFF0
FFFFFFF0
FFFFFFF0
FFFFFFF0
FFFFFFF0
FFFFFFF0
FFFFFFF0
FFFFFFF0
FF000000
FF000000
FF000000
FF000000
FF000000
FF000000
FF000000
FF000000
FF000000
FF000000
FF000000
FF000000
FF000000
FF000000
FFFFFFFC
FFFFFFFC
FFFFFFFC
FFFFFFFC
FFFFFFFC
FFFFFFFC
FFFFFFFC
FFFFFFFC
ENDCHAR
STARTCHAR F
ENCODING 70
SWIDTH 500 0
DWIDTH 34 0
BBX 27 49 4 0
BITMAP
FFFFFFE0
FFFFFFE0
FFFFFFE0
FFFFFFE0
FFFFFFE0
FFFFFFE0
FFFFFFE0
FFFFFFE0
FF000000
FF000000
FF000000
FF000000
FF000000
FF000000
FF000000
FF000000
FF000000
FF000000
FF000000
FF000000
FFFFFF00
FFFFFF00
FFFFFF00
FFFFFF00
FFFFFF00
FFFFFF00
FFFFFF00
FFFFFF00
FF000000
FF000000
FF000000
FF000000
FF000000
FF000000
FF000000
FF000000
FF000000
FF000000
FF000000
FF000000
FF000000
FF000000
FF000000
FF000000
FF000000
FF000000
FF000000
FF000000
FF000000
ENDCHAR
STARTCHAR G
ENCODING 71
SWIDTH 638 0
DWIDTH 43 0
BBX 37 51 2 -1
BITMAP
0001FF0000
000FFFE000
003FFFF800
007FFFFE00
01FFFFFF00
03FFFFFF00
03FFFFFF80
07FFFFFFC0
0FFF03FFC0
0FFC00FFE0
1FF8007FE0
1FF0003FE0
3FE0001FF0
3FC0001FF0
7FC0000FC0
7F80000C00
7F80000000
7F80000000
7F80000000
FF00000000
FF00000000
FF00000000
FF00000000
FF00000000
FF000FFFF8
FF000FFFF8
FF000FFFF8
FF000FFFF8
FF000FFFF8
FF000FFFF8
FF000FFFF8
FF800FFFF8
7F800007F8
7F800007F8
7F800007F8
7FC00007F8
3FC00007F8
3FE00007F8
3FE00007F8
1FF0000FF8
1FF8001FF8
0FFC007FF8
0FFF01FFF8
07FFFFFFF8
03FFFFFFF0
01FFFFFFE0
00FFFFFFC0
007FFFFF00
003FFFFC00
000FFFF000
0001FF8000
ENDCHAR
STARTCHAR H
ENCODING 72
SWIDTH 591 0
DWIDTH 40 0
BBX 32 49 4 0
BITMAP
FF0000FF
FF0000FF
FF0000FF
FF0000FF
FF0000FF
FF0000FF
FF0000FF
FF0000FF
FF0000FF
FF0000FF
FF0000FF
FF0000FF
FF0000FF
FF0000FF
FF0000FF
FF0000FF
FF0000FF
FF0000FF
FF0000FF
FF0000FF
FFFFFFFF
FFFFFFFF
FFFFFFFF
FFFFFFFF
FFFFFFFF
FFFFFFFF
FFFFFFFF
FFFFFFFF
FF0000FF
FF0000FF
FF0000FF
FF0000FF
FF0000FF
FF0000FF
FF0000FF
FF0000FF
FF0000FF
FF0000FF
FF0000FF
FF0000FF
FF0000FF
FF0000FF
FF0000FF
FF0000FF
FF0000FF
FF0000FF
FF0000FF
FF0000FF
FF0000FF
ENDCHAR
STARTCHAR I
ENCODING 73
SWIDTH 228 0
DWIDTH 16 0
BBX 8 49 4 0
BITMAP
FF
FF
FF
FF
FF
FF
FF
FF
FF
FF
FF
FF
FF
FF
FF
FF
FF
FF
FF
FF
FF
FF
FF
FF
FF
FF
FF
FF
FF
FF
FF
FF
FF
FF
FF
FF
FF
FF
FF
FF
FF
FF
FF
FF
FF
FF
FF
FF
FF
ENDCHAR
STARTCHAR J
ENCODING 74
SWIDTH 456 0
DWIDTH 31 0
BBX 26 50 1 -1
BITMAP
00003FC0
00003FC0
00003FC0
00003FC0
00003FC0
00003FC0
00003FC0
00003FC0
00003FC0
00003FC0
00003FC0
00003FC0
00003FC0
00003FC0
00003FC0
00003FC0
00003FC0
00003FC0
00003FC0
00003FC0
00003FC0
00003FC0
00003FC0
00003FC0
00003FC0
00003FC0
00003FC0
00003FC0
00003FC0
00003FC0
00003FC0
00003FC0
00003FC0
03003FC0
3F003FC0
FF003FC0
FF003FC0
FF003FC0
FF807F80
FF807F80
7FC07F80
7FE1FF80
7FFFFF00
3FFFFF00
3FFFFE00
1FFFFE00
0FFFFC00
07FFF800
03FFE000
00FF8000
ENDCHAR
STARTCHAR K
ENCODING 75
SWIDTH 591 0
DWIDTH 40 0
BBX 36 49 4 0
BITMAP
FF00007FE0
FF0000FFC0
FF0001FF80
FF0001FF80
FF0003FF00
FF0007FE00
FF000FFC00
FF001FF800
FF001FF800
FF003FF000
FF007FE000
FF00FFC000
FF01FF8000
FF01FF8000
FF03FF0000
FF07FE0000
FF0FFC0000
FF1FF80000
FF1FF80000
FF3FF80000
FF7FF80000
FFFFFC0000
FFFFFC0000
FFFFFE0000
FFFFFE0000
FFFFFF0000
FFFDFF0000
FFF8FF8000
FFF0FFC000
FFF07FC000
FFE07FE000
FFC03FE000
FF803FF000
FF001FF000
FF001FF800
FF000FF800
FF000FFC00
FF0007FC00
FF0007FE00
FF0003FE00
FF0003FF00
FF0001FF00
FF0001FF80
FF0000FFC0
FF0000FFC0
FF00007FE0
FF00007FE0
FF00003FF0
FF00003FF0
ENDCHAR
STARTCHAR L
ENCODING 76
SWIDTH 500 0
DWIDTH 34 0
BBX 28 49 4 0
BITMAP
FF000000
FF000000
FF000000
FF000000
FF000000
FF000000
FF000000
FF000000
FF000000
FF000000
FF000000
FF000000
FF000000
FF000000
FF000000
FF000000
FF000000
FF000000
FF000000
FF000000
FF000000
FF000000
FF000000
FF000000
FF000000
FF000000
FF000000
FF000000
FF000000
FF000000
FF000000
FF000000
FF000000
FF000000
FF000000
FF000000
FF000000
FF000000
FF000000
FF000000
FF000000
FFFFFFF0
FFFFFFF0
FFFFFFF0
FFFFFFF0
FFFFFFF0
FFFFFFF0
FFFFFFF0
FFFFFFF0
ENDCHAR
STARTCHAR M
ENCODING 77
SWIDTH 683 0
DWIDTH 46 0
BBX 39 49 4 0
BITMAP
FFF8003FFE
FFF8003FFE
FFFC003FFE
FFFC007FFE
FFFC007FFE
FFFC007FFE
FFFC007FFE
FFFC007FFE
FFFE00FFFE
FFFE00FFFE
FFFE00FFFE
FFFE00FFFE
FF7E00FDFE
FF7F00FDFE
FF7F01FDFE
FF7F01FDFE
FF7F01FDFE
FF3F01F9FE
FF3F81F9FE
FF3F83F9FE
FF3F83F9FE
FF3F83F9FE
FF3F83F1FE
FF1F83F1FE
FF1FC7F1FE
FF1FC7F1FE
FF1FC7F1FE
FF1FC7F1FE
FF0FC7E1FE
FF0FEFE1FE
FF0FEFE1FE
FF0FEFE1FE
FF0FEFE1FE
FF07EFC1FE
FF07FFC1FE
FF07FFC1FE
FF07FFC1FE
FF07FFC1FE
FF07FF81FE
FF03FF81FE
FF03FF81FE
FF03FF81FE
FF03FF81FE
FF03FF01FE
FF01FF01FE
FF01FF01FE
FF01FF01FE
FF01FF01FE
FF01FE01FE
ENDCHAR
STARTCHAR N
ENCODING 78
SWIDTH 591 0
DWIDTH 40 0
BBX 32 49 4 0
BITMAP
FF8000FF
FF8000FF
FFC000FF
FFC000FF
FFC000FF
FFE000FF
FFE000FF
FFF000FF
FFF000FF
FFF800FF
FFF800FF
FFFC00FF
FFFC00FF
FFFE00FF
FFFE00FF
FFFF00FF
FFFF00FF
FFFF80FF
FF7F80FF
FF7FC0FF
FF3FC0FF
FF3FE0FF
FF1FE0FF
FF1FF0FF
FF0FF0FF
FF0FF8FF
FF07F8FF
FF07FCFF
FF03FCFF
FF03FCFF
FF03FEFF
FF01FEFF
FF01FFFF
FF00FFFF
FF00FFFF
FF007FFF
FF007FFF
FF003FFF
FF003FFF
FF001FFF
FF001FFF
FF000FFF
FF000FFF
FF0007FF
FF0007FF
FF0003FF
FF0003FF
FF0001FF
FF0001FF
ENDCHAR
STARTCHAR O
ENCODING 79
SWIDTH 638 0
DWIDTH 43 0
BBX 39 51 2 -1
BITMAP
0001FF0000
000FFFE000
003FFFF800
00FFFFFC00
01FFFFFF00
03FFFFFF80
07FFFFFF80
07FFFFFFC0
0FFF01FFE0
1FFC007FF0
1FF8003FF0
3FF0001FF0
3FE0000FF8
3FC00007F8
7FC00007FC
7F800003FC
7F800003FC
7F800003FC
FF800003FC
FF000001FE
FF000001FE
FF000001FE
FF000001FE
FF000001FE
FF000001FE
FF000001FE
FF000001FE
FF000001FE
FF000001FE
FF000001FE
FF000001FE
FF000003FE
FF800003FC
7F800003FC
7F800003FC
7FC00007FC
7FC00007FC
3FE0000FF8
3FE0000FF8
3FF0001FF8
1FF8003FF0
1FFC007FE0
0FFF01FFE0
07FFFFFFC0
07FFFFFFC0
03FFFFFF80
01FFFFFF00
00FFFFFE00
003FFFF800
000FFFE000
0001FF0000
ENDCHAR
STARTCHAR P
ENCODING 80
SWIDTH 546 0
DWIDTH 37 0
BBX 31 49 4 0
BITMAP
FFFFFC00
FFFFFF80
FFFFFFC0
FFFFFFE0
FFFFFFF0
FFFFFFF8
FFFFFFF8
FFFFFFFC
FF003FFC
FF0007FC
FF0007FE
FF0003FE
FF0001FE
FF0001FE
FF0001FE
FF0001FE
FF0001FE
FF0001FE
FF0001FE
FF0003FE
FF0007FC
FF000FFC
FF003FFC
FFFFFFF8
FFFFFFF8
FFFFFFF0
FFFFFFF0
FFFFFFE0
FFFFFFC0
FFFFFF00
FFFFF000
FF000000
FF000000
FF000000
FF000000
FF000000
FF000000
FF000000
FF000000
FF000000
FF000000
FF000000
FF000000
FF000000
FF000000
FF000000
FF000000
FF000000
FF000000
ENDCHAR
STARTCHAR Q
ENCODING 81
SWIDTH 638 0
DWIDTH 43 0
BBX 40 55 3 -5
BITMAP
0001FF0000
000FFFE000
003FFFF800
007FFFFC00
01FFFFFF00
03FFFFFF80
07FFFFFFC0
07FFFFFFC0
0FFF01FFE0
1FFC007FF0
1FF8003FF0
3FF0001FF8
3FE0000FF8
3FC00007F8
7FC00007FC
7F800003FC
7F800003FC
7F800003FC
FF800003FC
FF000001FE
FF000001FE
FF000001FE
FF000001FE
FF000001FE
FF000001FE
FF000001FE
FF000001FE
FF000001FE
FF000001FE
FF000001FE
FF000001FE
FF000003FE
FF800003FE
7F800803FC
7F800E03FC
7FC01F07FC
7FC01FC7FC
3FC01FEFF8
3FE03FFFF8
3FF01FFFF0
1FF807FFF0
1FFC03FFF0
0FFF03FFE0
07FFFFFFC0
07FFFFFFC0
03FFFFFFE0
01FFFFFFF8
00FFFFFFFE
003FFFFFFF
000FFFE7FE
0001FF03FE
00000000FE
000000007C
000000003C
0000000008
ENDCHAR
STARTCHAR R
ENCODING 82
SWIDTH 591 0
DWIDTH 40 0
BBX 36 49 4 0
BITMAP
FFFFFF0000
FFFFFFE000
FFFFFFF000
FFFFFFF800
FFFFFFFC00
FFFFFFFE00
FFFFFFFE00
FFFFFFFF00
FF0003FF00
FF0001FF80
FF0000FF80
FF00007F80
FF00007F80
FF00007F80
FF00007F80
FF00007F80
FF00007F80
FF0000FF80
FF0000FF00
FF0001FF00
FF0007FF00
FFFFFFFE00
FFFFFFFE00
FFFFFFFC00
FFFFFFF800
FFFFFFF000
FFFFFFC000
FFFFFF0000
FFFFFE0000
FF03FF0000
FF00FF8000
FF007FC000
FF007FE000
FF003FF000
FF003FF000
FF001FF800
FF000FFC00
FF000FFC00
FF0007FE00
FF0007FE00
FF0003FF00
FF0003FF00
FF0001FF80
FF0001FF80
FF0000FFC0
FF0000FFC0
FF00007FE0
FF00007FE0
FF00003FF0
ENDCHAR
STARTCHAR S
ENCODING 83
SWIDTH 546 0
DWIDTH 37 0
BBX 32 51 3 -1
BITMAP
001FF000
00FFFE00
03FFFF80
07FFFFC0
0FFFFFE0
1FFFFFF0
1FFFFFF8
3FFFFFF8
3FF81FFC
3FE007FC
7FC003FC
7F8003FE
7F8003FE
7F8001FE
7F8001FE
7F800000
7FC00000
7FE00000
3FF80000
3FFF0000
1FFFE000
1FFFF800
0FFFFF00
07FFFFC0
03FFFFE0
01FFFFF0
007FFFF8
001FFFFC
0003FFFC
00007FFE
00000FFE
000003FE
000001FF
FF0000FF
FF0000FF
FF0000FF
FF8000FF
7F8000FF
7F8000FF
7FC001FF
7FE003FE
3FF007FE
3FFC0FFE
1FFFFFFC
1FFFFFFC
0FFFFFF8
07FFFFF0
03FFFFE0
01FFFFC0
007FFF00
000FF800
ENDCHAR
STARTCHAR T
ENCODING 84
SWIDTH 500 0
DWIDTH 34 0
BBX 32 49 1 0
BITMAP
FFFFFFFF
FFFFFFFF
FFFFFFFF
FFFFFFFF
FFFFFFFF
FFFFFFFF
FFFFFFFF
FFFFFFFF
000FF000
000FF000
000FF000
000FF000
000FF000
000FF000
000FF000
000FF000
000FF000
000FF000
000FF000
000FF000
000FF000
000FF000
000FF000
000FF000
000FF000
000FF000
000FF000
000FF000
000FF000
000FF000
000FF000
000FF000
000FF000
000FF000
000FF000
000FF000
000FF000
000FF000
000FF000
000FF000
000FF000
000FF000
000FF000
000FF000
000FF000
000FF000
000FF000
000FF000
000FF000
ENDCHAR
STARTCHAR U
ENCODING 85
SWIDTH 591 0
DWIDTH 40 0
BBX 32 50 4 -1
BITMAP
FF0000FF
FF0000FF
FF0000FF
FF0000FF
FF0000FF
FF0000FF
FF0000FF
FF0000FF
FF0000FF
FF0000FF
FF0000FF
FF0000FF
FF0000FF
FF0000FF
FF0000FF
FF0000FF
FF0000FF
FF0000FF
FF0000FF
FF0000FF
FF0000FF
FF0000FF
FF0000FF
FF0000FF
FF0000FF
FF0000FF
FF0000FF
FF0000FF
FF0000FF
FF0000FF
FF0000FF
FF0000FF
FF0000FF
FF0000FF
FF0000FF
FF0000FF
FF8001FF
7F8001FE
7F8001FE
7FC003FE
7FE007FE
3FF81FFE
3FFFFFFC
1FFFFFFC
1FFFFFF8
0FFFFFF0
07FFFFE0
03FFFFC0
00FFFF00
001FF800
ENDCHAR
STARTCHAR V
ENCODING 86
SWIDTH 546 0
DWIDTH 37 0
BBX 38 49 0 0
BITMAP
FF000003FC
FF800007FC
7F800007F8
7F800007F8
7FC0000FF8
3FC0000FF0
3FC0000FF0
3FE0000FF0
1FE0001FE0
1FE0001FE0
1FF0001FE0
0FF0003FE0
0FF0003FC0
0FF0003FC0
0FF8003FC0
07F8007F80
07F8007F80
07FC007F80
03FC00FF00
03FC00FF00
03FE00FF00
01FE00FE00
01FE01FE00
01FF01FE00
00FF01FE00
00FF01FC00
00FF03FC00
00FF83FC00
007F83F800
007F87F800
007FC7F800
003FC7F000
003FC7F000
003FEFF000
001FEFF000
001FEFE000
001FFFE000
000FFFE000
000FFFC000
000FFFC000
000FFFC000
0007FF8000
0007FF8000
0007FF8000
0003FF8000
0003FF0000
0003FF0000
0001FF0000
0001FE0000
ENDCHAR
STARTCHAR W
ENCODING 87
SWIDTH 773 0
DWIDTH 53 0
BBX 53 49 0 0
BITMAP
FF0007FF0007F8
FF0007FF0007F8
FF8007FF000FF8
7F800FFF800FF0
7F800FFF800FF0
7F800FFF800FF0
7F800FFF800FF0
7FC00FFF801FF0
3FC01FFFC01FE0
3FC01FFFC01FE0
3FC01FFFC01FE0
3FC01FFFC01FE0
3FC01FDFC01FE0
1FE01FDFE03FE0
1FE03FDFE03FC0
1FE03FDFE03FC0
1FE03FDFE03FC0
1FE03F8FE03FC0
0FF03F8FE07FC0
0FF07F8FF07F80
0FF07F8FF07F80
0FF07F8FF07F80
0FF07F07F07F80
0FF07F07F07F80
07F8FF07F8FF00
07F8FF07F8FF00
07F8FF07F8FF00
07F8FE07F8FF00
07F8FE03F8FF00
03FDFE03FDFF00
03FDFE03FDFE00
03FDFE03FDFE00
03FDFE03FDFE00
03FDFC01FDFE00
01FDFC01FDFE00
01FFFC01FFFC00
01FFFC01FFFC00
01FFFC01FFFC00
01FFF800FFFC00
01FFF800FFFC00
00FFF800FFF800
00FFF800FFF800
00FFF800FFF800
00FFF000FFF800
00FFF0007FF800
007FF0007FF800
007FF0007FF000
007FF0007FF000
007FE0007FF000
ENDCHAR
STARTCHAR X
ENCODING 88
SWIDTH 546 0
DWIDTH 37 0
BBX 37 49 0 0
BITMAP
7FC0001FF0
3FE0003FE0
3FE0003FE0
1FF0007FC0
1FF0007FC0
0FF800FF80
07FC01FF00
07FC01FF00
03FE03FE00
03FE03FE00
01FF07FC00
01FF07FC00
00FF8FF800
00FF8FF800
007FDFF000
003FFFE000
003FFFE000
001FFFC000
001FFFC000
000FFF8000
000FFF8000
0007FF0000
0007FF0000
0003FE0000
0007FF0000
0007FF0000
000FFF8000
000FFF8000
001FFFC000
001FFFC000
003FFFE000
003FFFE000
007FDFF000
007FDFF000
00FF8FF800
01FF07FC00
01FF07FC00
03FE03FE00
03FE03FE00
07FC01FF00
07FC01FF00
0FF800FF80
0FF800FF80
1FF0007FC0
3FE0003FE0
3FE0003FE0
7FC0001FF0
7FC0001FF0
FF80000FF8
ENDCHAR
STARTCHAR Y
ENCODING 89
SWIDTH 546 0
DWIDTH 37 0
BBX 38 49 0 0
BITMAP
FF800007FC
7FC0000FF8
7FC0000FF8
3FE0001FF0
3FE0001FF0
1FF0003FE0
1FF0003FE0
0FF8007FC0
07F8007F80
07FC00FF80
03FC00FF00
03FE01FF00
01FF03FE00
01FF03FE00
00FF87FC00
00FF87FC00
007FCFF800
007FCFF800
003FFFF000
003FFFF000
001FFFE000
001FFFE000
000FFFC000
0007FFC000
0007FF8000
0003FF0000
0003FF0000
0001FE0000
0001FE0000
0001FE0000
0001FE0000
0001FE0000
0001FE0000
0001FE0000
0001FE0000
0001FE0000
0001FE0000
0001FE0000
0001FE0000
0001FE0000
0001FE0000
0001FE0000
0001FE0000
0001FE0000
0001FE0000
0001FE0000
0001FE0000
0001FE0000
0001FE0000
ENDCHAR
STARTCHAR Z
ENCODING 90
SWIDTH 500 0
DWIDTH 34 0
BBX 33 49 0 0
BITMAP
1FFFFFFF00
1FFFFFFF00
1FFFFFFF00
1FFFFFFF00
1FFFFFFF00
1FFFFFFF00
1FFFFFFF00
1FFFFFFF00
000003FE00
000007FE00
00000FFC00
00000FF800
00001FF800
00003FF000
00003FE000
00007FC000
0000FFC000
0000FF8000
0001FF0000
0003FF0000
0003FE0000
0007FC0000
000FFC0000
000FF80000
001FF00000
003FF00000
007FE00000
007FC00000
00FFC00000
01FF800000
01FF000000
03FE000000
07FE000000
07FC000000
0FF8000000
1FF8000000
1FF0000000
3FE0000000
7FE0000000
7FC0000000
FF80000000
FFFFFFFF80
FFFFFFFF80
FFFFFFFF80
FFFFFFFF80
FFFFFFFF80
FFFFFFFF80
FFFFFFFF80
FFFFFFFF80
ENDCHAR
STARTCHAR bracketleft
ENCODING 91
SWIDTH 272 0
DWIDTH 19 0
BBX 14 63 4 -14
BITMAP
FFFC
FFFC
FFFC
FFFC
FFFC
FFFC
FFFC
FFFC
FF00
FF00
FF00
FF00
FF00
FF00
FF00
FF00
FF00
FF00
FF00
FF00
FF00
FF00
FF00
FF00
FF00
FF00
FF00
FF00
FF00
FF00
FF00
FF00
FF00
FF00
FF00
FF00
FF00
FF00
FF00
FF00
FF00
FF00
FF00
FF00
FF00
FF00
FF00
FF00
FF00
FF00
FF00
FF00
FF00
FF00
FF00
FFFC
FFFC
FFFC
FFFC
FFFC
FFFC
FFFC
FFFC
ENDCHAR
STARTCHAR backslash
ENCODING 92
SWIDTH 228 0
DWIDTH 16 0
BBX 16 51 0 -1
BITMAP
FC00
FC00
FE00
7E00
7E00
7E00
7E00
7F00
3F00
3F00
3F00
3F00
3F80
1F80
1F80
1F80
1F80
1FC0
0FC0
0FC0
0FC0
0FC0
0FC0
07E0
07E0
07E0
07E0
07E0
03F0
03F0
03F0
03F0
03F0
03F8
01F8
01F8
01F8
01F8
01FC
00FC
00FC
00FC
00FC
00FE
007E
007E
007E
007E
007F
003F
003F
ENDCHAR
STARTCHAR bracketright
ENCODING 93
SWIDTH 272 0
DWIDTH 19 0
BBX 14 63 1 -14
BITMAP
FFFC
FFFC
FFFC
FFFC
FFFC
FFFC
FFFC
FFFC
03FC
03FC
03FC
03FC
03FC
03FC
03FC
03FC
03FC
03FC
03FC
03FC
03FC
03FC
03FC
03FC
03FC
03FC
03FC
03FC
03FC
03FC
03FC
03FC
03FC
03FC
03FC
03FC
03FC
03FC
03FC
03FC
03FC
03FC
03FC
03FC
03FC
03FC
03FC
03FC
03FC
03FC
03FC
03FC
03FC
03FC
03FC
FFFC
FFFC
FFFC
FFFC
FFFC
FFFC
FFFC
FFFC
ENDCHAR
STARTCHAR asciicircum
ENCODING 94
SWIDTH 479 0
DWIDTH 33 0
BBX 25 26 3 24
BITMAP
00FF8000
01FF8000
01FFC000
01FFC000
03FFC000
03FFE000
03FFE000
03FFE000
07FFF000
07FFF000
07FFF000
0FF7F000
0FF7F800
0FF7F800
1FF3F800
1FE3FC00
1FE3FC00
1FE3FC00
3FC1FE00
3FC1FE00
3FC1FE00
7FC1FF00
7F80FF00
7F80FF00
FF80FF80
FF80FF80
ENDCHAR
STARTCHAR underscore
ENCODING 95
SWIDTH 456 0
DWIDTH 31 0
BBX 32 3 0 -8
BITMAP
FFFFFFFF
FFFFFFFF
FFFFFFFF
ENDCHAR
STARTCHAR grave
ENCODING 96
SWIDTH 272 0
DWIDTH 19 0
BBX 13 9 1 40
BITMAP
FF80
7FC0
3FC0
1FE0
0FE0
07E0
03F0
01F0
01F8
ENDCHAR
STARTCHAR a
ENCODING 97
SWIDTH 456 0
DWIDTH 31 0
BBX 27 37 2 -1
BITMAP
007FC000
01FFF800
07FFFC00
0FFFFE00
1FFFFF00
1FFFFF00
3FFFFF00
3FFFFF80
3FE1FF80
7FC0FF80
7FC07F80
07807F80
00007F80
0000FF80
0007FF80
007FFF80
03FFFF80
0FFFFF80
1FFFFF80
3FFF7F80
7FF07F80
7FC07F80
7F807F80
FF007F80
FF007F80
FF00FF80
FF00FF80
FF81FF80
FFC3FF80
FFFFFF80
7FFFFF80
7FFFFF80
7FFFFFC0
3FFFBFC0
1FFF1FC0
0FFC1FE0
03F00000
ENDCHAR
STARTCHAR b
ENCODING 98
SWIDTH 500 0
DWIDTH 34 0
BBX 28 50 4 -1
BITMAP
FF000000
FF000000
FF000000
FF000000
FF000000
FF000000
FF000000
FF000000
FF000000
FF000000
FF000000
FF000000
FF000000
FF07E000
FF1FF800
FF3FFE00
FF7FFF00
FFFFFF00
FFFFFF80
FFFFFFC0
FFFFFFC0
FFF0FFE0
FFE07FE0
FFC03FE0
FF801FE0
FF801FF0
FF001FF0
FF000FF0
FF000FF0
FF000FF0
FF000FF0
FF000FF0
FF000FF0
FF000FF0
FF000FF0
FF000FF0
FF800FF0
FF801FF0
FF801FE0
FFC03FE0
FFE03FE0
FFF0FFC0
FFFFFFC0
FFFFFFC0
FFFFFF80
FF7FFF00
FF3FFE00
FF1FFE00
FF0FF800
0003E000
ENDCHAR
STARTCHAR c
ENCODING 99
SWIDTH 456 0
DWIDTH 31 0
BBX 27 37 2 -1
BITMAP
003FC000
00FFF000
03FFFC00
07FFFE00
0FFFFF00
1FFFFF80
1FFFFF80
3FFFFFC0
3FF0FFC0
7FC03FC0
7FC03FE0
7F801FE0
FF801E00
FF000000
FF000000
FF000000
FF000000
FF000000
FF000000
FF000000
FF000000
FF000000
FF001E00
FF001FE0
7F803FE0
7F803FC0
7FC03FC0
7FC07FC0
3FF0FFC0
3FFFFF80
1FFFFF80
1FFFFF00
0FFFFE00
07FFFE00
03FFF800
01FFF000
003FC000
ENDCHAR
STARTCHAR d
ENCODING 100
SWIDTH 500 0
DWIDTH 34 0
BBX 28 50 2 -1
BITMAP
00000FF0
00000FF0
00000FF0
00000FF0
00000FF0
00000FF0
00000FF0
00000FF0
00000FF0
00000FF0
00000FF0
00000FF0
00000FF0
007E0FF0
01FF8FF0
07FFCFF0
0FFFEFF0
0FFFFFF0
1FFFFFF0
3FFFFFF0
3FFFFFF0
7FF0FFF0
7FE07FF0
7FC03FF0
7F801FF0
FF801FF0
FF001FF0
FF000FF0
FF000FF0
FF000FF0
FF000FF0
FF000FF0
FF000FF0
FF000FF0
FF000FF0
FF000FF0
FF001FF0
FF801FF0
7F801FF0
7FC03FF0
7FE07FF0
7FF0FFF0
3FFFFFF0
3FFFFFF0
1FFFFFF0
0FFFEFF0
0FFFCFF0
07FF8FF0
01FF0FF0
007C0000
ENDCHAR
STARTCHAR e
ENCODING 101
SWIDTH 456 0
DWIDTH 31 0
BBX 27 37 2 -1
BITMAP
003F8000
01FFE000
03FFF800
07FFFC00
0FFFFE00
1FFFFF00
1FFFFF00
3FFFFF80
3FE0FF80
7FC07FC0
7F803FC0
7F803FC0
7F001FC0
FF001FE0
FF001FE0
FFFFFFE0
FFFFFFE0
FFFFFFE0
FFFFFFE0
FFFFFFE0
FFFFFFE0
FF000000
FF000000
FF000000
FF800000
7F801E00
7FC03FE0
7FC03FE0
3FF0FFC0
3FFFFFC0
1FFFFF80
1FFFFF80
0FFFFF00
07FFFE00
03FFFC00
00FFF000
003FC000
ENDCHAR
STARTCHAR f
ENCODING 102
SWIDTH 272 0
DWIDTH 19 0
BBX 20 50 1 0
BITMAP
003FC0
00FFF0
01FFF0
03FFF0
07FFF0
07FFE0
0FFFE0
0FFFE0
0FF800
0FF000
0FF000
0FF000
0FF000
0FF000
0FF000
FFFFC0
FFFFC0
FFFFC0
FFFFC0
FFFFC0
FFFFC0
FFFFC0
FFFFC0
0FF000
0FF000
0FF000
0FF000
0FF000
0FF000
0FF000
0FF000
0FF000
0FF000
0FF000
0FF000
0FF000
0FF000
0FF000
0FF000
0FF000
0FF000
0FF000
0FF000
0FF000
0FF000
0FF000
0FF000
0FF000
0FF000
0FF000
ENDCHAR
STARTCHAR g
ENCODING 103
SWIDTH 500 0
DWIDTH 34 0
BBX 28 50 2 -14
BITMAP
007C0000
01FF0FF0
07FF8FF0
0FFFCFF0
1FFFEFF0
1FFFFFF0
3FFFFFF0
3FFFFFF0
7FF0FFF0
7FC07FF0
7FC03FF0
7F801FF0
FF801FF0
FF000FF0
FF000FF0
FF000FF0
FF000FF0
FF000FF0
FF000FF0
FF000FF0
FF000FF0
FF000FF0
FF000FF0
FF801FF0
7F801FF0
7FC03FF0
7FC07FF0
7FF0FFF0
3FFFFFF0
3FFFFFF0
1FFFFFF0
0FFFEFF0
0FFFCFF0
07FF8FF0
01FF0FF0
007C0FF0
00000FF0
78000FF0
7F800FF0
7F801FF0
7FC01FE0
7FE07FE0
3FFFFFE0
3FFFFFC0
3FFFFFC0
1FFFFF80
0FFFFF80
07FFFF00
01FFFC00
007FE000
ENDCHAR
STARTCHAR h
ENCODING 104
SWIDTH 500 0
DWIDTH 34 0
BBX 26 49 4 0
BITMAP
FF000000
FF000000
FF000000
FF000000
FF000000
FF000000
FF000000
FF000000
FF000000
FF000000
FF000000
FF000000
FF000000
FF03F000
FF0FFC00
FF3FFE00
FF7FFF00
FF7FFF00
FFFFFF80
FFFFFF80
FFFFFF80
FFE0FFC0
FFC07FC0
FF807FC0
FF803FC0
FF803FC0
FF003FC0
FF003FC0
FF003FC0
FF003FC0
FF003FC0
FF003FC0
FF003FC0
FF003FC0
FF003FC0
FF003FC0
FF003FC0
FF003FC0
FF003FC0
FF003FC0
FF003FC0
FF003FC0
FF003FC0
FF003FC0
FF003FC0
FF003FC0
FF003FC0
FF003FC0
FF003FC0
ENDCHAR
STARTCHAR i
ENCODING 105
SWIDTH 228 0
DWIDTH 16 0
BBX 8 49 4 0
BITMAP
FF
FF
FF
FF
FF
FF
FF
FF
FF
00
00
00
00
00
FF
FF
FF
FF
FF
FF
FF
FF
FF
FF
FF
FF
FF
FF
FF
FF
FF
FF
FF
FF
FF
FF
FF
FF
FF
FF
FF
FF
FF
FF
FF
FF
FF
FF
FF
ENDCHAR
STARTCHAR j
ENCODING 106
SWIDTH 228 0
DWIDTH 16 0
BBX 15 63 -2 -14
BITMAP
01FE
01FE
01FE
01FE
01FE
01FE
01FE
01FE
01FE
0000
0000
0000
0000
0000
01FE
01FE
01FE
01FE
01FE
01FE
01FE
01FE
01FE
01FE
01FE
01FE
01FE
01FE
01FE
01FE
01FE
01FE
01FE
01FE
01FE
01FE
01FE
01FE
01FE
01FE
01FE
01FE
01FE
01FE
01FE
01FE
01FE
01FE
01FE
01FE
01FE
01FE
01FE
03FE
03FE
7FFE
7FFC
7FFC
7FFC
FFF8
FFF0
FFE0
3F80
ENDCHAR
STARTCHAR k
ENCODING 107
SWIDTH 456 0
DWIDTH 31 0
BBX 27 49 4 0
BITMAP
FF000000
FF000000
FF000000
FF000000
FF000000
FF000000
FF000000
FF000000
FF000000
FF000000
FF000000
FF000000
FF000000
FF000000
FF00FFC0
FF00FF80
FF01FF80
FF03FF00
FF07FE00
FF0FFC00
FF0FF800
FF1FF800
FF3FF000
FF7FE000
FF7FC000
FFFFC000
FFFF8000
FFFFC000
FFFFC000
FFFFE000
FFFFE000
FFFFF000
FFFFF000
FFEFF000
FFEFF800
FFC7F800
FF87FC00
FF03FC00
FF03FE00
FF01FE00
FF01FF00
FF00FF00
FF00FF80
FF00FF80
FF007F80
FF007FC0
FF003FC0
FF003FE0
FF001FE0
ENDCHAR
STARTCHAR l
ENCODING 108
SWIDTH 228 0
DWIDTH 16 0
BBX 8 49 4 0
BITMAP
FF
FF
FF
FF
FF
FF
FF
FF
FF
FF
FF
FF
FF
FF
FF
FF
FF
FF
FF
FF
FF
FF
FF
FF
FF
FF
FF
FF
FF
FF
FF
FF
FF
FF
FF
FF
FF
FF
FF
FF
FF
FF
FF
FF
FF
FF
FF
FF
FF
ENDCHAR
STARTCHAR m
ENCODING 109
SWIDTH 729 0
DWIDTH 50 0
BBX 42 36 4 0
BITMAP
0003F003F000
FF0FF80FFC00
FF1FFE1FFE00
FF3FFE3FFF00
FF7FFF7FFF80
FFFFFF7FFF80
FFFFFFFFFF80
FFFFFFFFFFC0
FFE1FFF0FFC0
FFC0FFE07FC0
FF807FC07FC0
FF807FC03FC0
FF807FC03FC0
FF007F803FC0
FF007F803FC0
FF007F803FC0
FF007F803FC0
FF007F803FC0
FF007F803FC0
FF007F803FC0
FF007F803FC0
FF007F803FC0
FF007F803FC0
FF007F803FC0
FF007F803FC0
FF007F803FC0
FF007F803FC0
FF007F803FC0
FF007F803FC0
FF007F803FC0
FF007F803FC0
FF007F803FC0
FF007F803FC0
FF007F803FC0
FF007F803FC0
FF007F803FC0
ENDCHAR
STARTCHAR n
ENCODING 110
SWIDTH 500 0
DWIDTH 34 0
BBX 26 36 4 0
BITMAP
0007F000
FE1FFC00
FE3FFE00
FE7FFF00
FEFFFF00
FEFFFF80
FFFFFF80
FFFFFF80
FFF0FFC0
FFC07FC0
FF807FC0
FF803FC0
FF803FC0
FF003FC0
FF003FC0
FF003FC0
FF003FC0
FF003FC0
FF003FC0
FF003FC0
FF003FC0
FF003FC0
FF003FC0
FF003FC0
FF003FC0
FF003FC0
FF003FC0
FF003FC0
FF003FC0
FF003FC0
FF003FC0
FF003FC0
FF003FC0
FF003FC0
FF003FC0
FF003FC0
ENDCHAR
STARTCHAR o
ENCODING 111
SWIDTH 500 0
DWIDTH 34 0
BBX 30 37 2 -1
BITMAP
001FE000
007FF800
01FFFE00
03FFFF00
07FFFF80
0FFFFFC0
1FFFFFE0
1FFFFFE0
3FF87FF0
3FE01FF0
7FC00FF8
7F800FF8
7F8007F8
FF8007FC
FF0003FC
FF0003FC
FF0003FC
FF0003FC
FF0003FC
FF0003FC
FF0003FC
FF0003FC
FF0003FC
FF8007F8
7F8007F8
7FC00FF8
7FC00FF8
3FE01FF0
3FF87FF0
3FFFFFE0
1FFFFFE0
0FFFFFC0
07FFFF80
03FFFF00
01FFFE00
00FFF800
001FE000
ENDCHAR
STARTCHAR p
ENCODING 112
SWIDTH 500 0
DWIDTH 34 0
BBX 28 49 4 -13
BITMAP
0003E000
FF0FF800
FF1FFE00
FF3FFF00
FF7FFF00
FFFFFF80
FFFFFFC0
FFFFFFC0
FFF0FFE0
FFE07FE0
FFC03FE0
FF801FE0
FF801FF0
FF001FF0
FF000FF0
FF000FF0
FF000FF0
FF000FF0
FF000FF0
FF000FF0
FF000FF0
FF000FF0
FF000FF0
FF800FF0
FF801FE0
FF801FE0
FFC03FE0
FFE03FE0
FFF0FFC0
FFFFFFC0
FFFFFFC0
FFFFFF80
FFFFFF00
FF7FFE00
FF3FFC00
FF1FF800
FF07E000
FF000000
FF000000
FF000000
FF000000
FF000000
FF000000
FF000000
FF000000
FF000000
FF000000
FF000000
FF000000
ENDCHAR
STARTCHAR q
ENCODING 113
SWIDTH 500 0
DWIDTH 34 0
BBX 28 49 2 -13
BITMAP
007C0000
01FF0FF0
07FF8FF0
0FFFCFF0
0FFFEFF0
1FFFFFF0
3FFFFFF0
3FFFFFF0
7FF0FFF0
7FE07FF0
7FC03FF0
7F801FF0
FF801FF0
FF800FF0
FF000FF0
FF000FF0
FF000FF0
FF000FF0
FF000FF0
FF000FF0
FF000FF0
FF000FF0
FF000FF0
FF001FF0
FF801FF0
7F801FF0
7FC03FF0
7FC07FF0
3FF0FFF0
3FFFFFF0
3FFFFFF0
1FFFFFF0
0FFFFFF0
0FFFEFF0
07FFCFF0
01FF8FF0
007C0FF0
00000FF0
00000FF0
00000FF0
00000FF0
00000FF0
00000FF0
00000FF0
00000FF0
00000FF0
00000FF0
00000FF0
00000FF0
ENDCHAR
STARTCHAR r
ENCODING 114
SWIDTH 318 0
DWIDTH 22 0
BBX 19 36 4 0
BITMAP
000F80
FF1FE0
FF3FE0
FF7FC0
FF7FC0
FFFFC0
FFFFC0
FFFF80
FFE180
FFC000
FF8000
FF8000
FF8000
FF8000
FF0000
FF0000
FF0000
FF0000
FF0000
FF0000
FF0000
FF0000
FF0000
FF0000
FF0000
FF0000
FF0000
FF0000
FF0000
FF0000
FF0000
FF0000
FF0000
FF0000
FF0000
FF0000
ENDCHAR
STARTCHAR s
ENCODING 115
SWIDTH 456 0
DWIDTH 31 0
BBX 26 37 2 -1
BITMAP
00FF8000
07FFE000
0FFFF800
1FFFFC00
3FFFFE00
7FFFFE00
7FFFFF00
FFFFFF00
FF81FF00
FF00FF80
FF007F80
FF807000
FFE00000
FFFC0000
7FFFC000
7FFFF800
7FFFFC00
3FFFFF00
1FFFFF00
07FFFF80
01FFFF80
003FFFC0
0003FFC0
00007FC0
07003FC0
FF003FC0
FF803FC0
7FC07FC0
7FE0FFC0
7FFFFF80
3FFFFF80
3FFFFF00
1FFFFF00
0FFFFE00
07FFFC00
01FFF000
007F8000
ENDCHAR
STARTCHAR t
ENCODING 116
SWIDTH 272 0
DWIDTH 19 0
BBX 19 48 0 -1
BITMAP
001000
003000
00F000
01F000
07F000
0FF000
0FF000
0FF000
0FF000
0FF000
0FF000
0FF000
FFFFC0
FFFFC0
FFFFC0
FFFFC0
FFFFC0
FFFFC0
FFFFC0
FFFFC0
0FF000
0FF000
0FF000
0FF000
0FF000
0FF000
0FF000
0FF000
0FF000
0FF000
0FF000
0FF000
0FF000
0FF000
0FF000
0FF000
0FF000
0FF000
0FF000
0FF840
0FFFC0
0FFFE0
0FFFE0
07FFE0
07FFE0
03FFE0
01FFE0
007F00
ENDCHAR
STARTCHAR u
ENCODING 117
SWIDTH 500 0
DWIDTH 34 0
BBX 26 36 4 -1
BITMAP
FF003FC0
FF003FC0
FF003FC0
FF003FC0
FF003FC0
FF003FC0
FF003FC0
FF003FC0
FF003FC0
FF003FC0
FF003FC0
FF003FC0
FF003FC0
FF003FC0
FF003FC0
FF003FC0
FF003FC0
FF003FC0
FF003FC0
FF003FC0
FF003FC0
FF003FC0
FF003FC0
FF007FC0
FF007FC0
FF807FC0
FF80FFC0
FFC3FFC0
7FFFFFC0
7FFFFFC0
7FFFDFC0
3FFFDFC0
3FFF9FC0
1FFF1FC0
0FFC1FC0
03F00000
ENDCHAR
STARTCHAR v
ENCODING 118
SWIDTH 456 0
DWIDTH 31 0
BBX 31 35 0 0
BITMAP
FF8003FE
7F8003FE
7F8003FC
7F8003FC
3FC007FC
3FC007F8
3FC007F8
1FE00FF8
1FE00FF0
1FE00FF0
0FF01FF0
0FF01FE0
0FF01FE0
07F01FE0
07F83FE0
07F83FC0
03F83FC0
03FC7FC0
03FC7F80
01FC7F80
01FEFF80
01FEFF00
00FEFF00
00FEFF00
00FFFE00
007FFE00
007FFE00
007FFC00
003FFC00
003FFC00
003FFC00
001FF800
001FF800
001FF800
000FF000
ENDCHAR
STARTCHAR w
ENCODING 119
SWIDTH 638 0
DWIDTH 43 0
BBX 45 35 0 0
BITMAP
FF001FC007F8
FF801FC00FF8
7F801FC00FF0
7F801FC00FF0
7F803FE00FF0
7FC03FE01FF0
3FC03FE01FE0
3FC03FE01FE0
3FC07FF01FE0
3FC07FF01FE0
3FE07FF03FE0
1FE0FFF03FC0
1FE0FFF83FC0
1FE0FDF83FC0
1FF0FDF87FC0
0FF1FDFC7F80
0FF1F8FC7F80
0FF1F8FC7F80
0FF1F8FCFF80
07FBF8FEFF00
07FBF07EFF00
07FBF07EFF00
07FBF07EFF00
03FFF07FFE00
03FFE03FFE00
03FFE03FFE00
03FFE03FFE00
01FFE03FFC00
01FFC01FFC00
01FFC01FFC00
01FFC01FFC00
01FFC00FFC00
00FF800FF800
00FF800FF800
00FF800FF800
ENDCHAR
STARTCHAR x
ENCODING 120
SWIDTH 456 0
DWIDTH 31 0
BBX 30 35 0 0
BITMAP
FF800FF8
7FC01FF0
7FE01FF0
3FE03FE0
1FF07FC0
1FF07FC0
0FF8FF80
0FFCFF80
07FDFF00
03FFFF00
03FFFE00
01FFFC00
01FFFC00
00FFF800
007FF800
007FF000
003FF000
003FF000
007FF000
007FF800
00FFF800
00FFFC00
01FFFE00
01FFFE00
03FFFF00
07FDFF00
07FCFF80
0FF8FFC0
0FF87FC0
1FF03FE0
1FF03FE0
3FE01FF0
7FC01FF8
7FC00FF8
FF8007FC
ENDCHAR
STARTCHAR y
ENCODING 121
SWIDTH 456 0
DWIDTH 31 0
BBX 30 49 0 -14
BITMAP
FF0003FC
FF8007FC
7F8007F8
7F8007F8
7FC007F8
3FC00FF0
3FC00FF0
3FC00FF0
1FE00FE0
1FE01FE0
1FE01FE0
0FF01FE0
0FF01FC0
0FF03FC0
07F03FC0
07F83F80
07F83F80
03F87F80
03FC7F00
03FC7F00
01FC7F00
01FCFE00
01FEFE00
00FEFE00
00FEFE00
00FFFC00
007FFC00
007FFC00
007FF800
003FF800
003FF800
003FF000
001FF000
001FF000
001FF000
001FE000
001FE000
001FE000
003FC000
007FC000
20FFC000
3FFF8000
3FFF8000
3FFF8000
3FFF0000
1FFE0000
1FFC0000
1FF80000
1FE00000
ENDCHAR
STARTCHAR z
ENCODING 122
SWIDTH 410 0
DWIDTH 28 0
BBX 26 35 1 0
BITMAP
7FFFFF80
7FFFFF80
7FFFFF80
7FFFFF80
7FFFFF80
7FFFFF80
7FFFFF80
7FFFFF80
0003FF00
0007FE00
0007FC00
000FFC00
001FF800
003FF000
003FE000
007FE000
00FFC000
00FF8000
01FF8000
03FF0000
07FE0000
07FC0000
0FFC0000
1FF80000
3FF00000
3FE00000
7FE00000
FFFFFFC0
FFFFFFC0
FFFFFFC0
FFFFFFC0
FFFFFFC0
FFFFFFC0
FFFFFFC0
FFFFFFC0
ENDCHAR
STARTCHAR braceleft
ENCODING 123
SWIDTH 318 0
DWIDTH 22 0
BBX 19 64 1 -14
BITMAP
0007E0
003FE0
007FE0
00FFE0
01FFE0
01FFE0
01FFE0
03FFE0
03FE00
03FC00
03F800
03F800
03F800
03F800
03F800
03F800
03F800
03F800
03F800
03F800
03F800
03F800
03F800
07F800
07F000
07F000
0FF000
3FF000
FFE000
FFC000
FFC000
FF8000
FF8000
FFC000
FFC000
FFE000
3FF000
0FF000
07F000
07F000
07F800
03F800
03F800
03F800
03F800
03F800
03F800
03F800
03F800
03F800
03F800
03F800
03F800
03F800
03FC00
03FE00
03FFE0
01FFE0
01FFE0
01FFE0
00FFE0
007FE0
003FE0
000FE0
ENDCHAR
STARTCHAR bar
ENCODING 124
SWIDTH 229 0
DWIDTH 16 0
BBX 6 64 5 -14
BITMAP
FC
FC
FC
FC
FC
FC
FC
FC
FC
FC
FC
FC
FC
FC
FC
FC
FC
FC
FC
FC
FC
FC
FC
FC
FC
FC
FC
FC
FC
FC
FC
FC
FC
FC
FC
FC
FC
FC
FC
FC
FC
FC
FC
FC
FC
FC
FC
FC
FC
FC
FC
FC
FC
FC
FC
FC
FC
FC
FC
FC
FC
FC
FC
FC
ENDCHAR
STARTCHAR braceright
ENCODING 125
SWIDTH 318 0
DWIDTH 22 0
BBX 19 64 1 -14
BITMAP
FE0000
FF8000
FFC000
FFE000
FFF000
FFF000
FFF000
FFF800
0FF800
07F800
03F800
03F800
03F800
03F800
03F800
03F800
03F800
03F800
03F800
03F800
03F800
03F800
03F800
03FC00
01FC00
01FC00
01FE00
01FF80
00FFE0
007FE0
007FE0
003FE0
003FE0
007FE0
007FE0
00FFE0
01FF80
01FE00
01FC00
01FC00
03FC00
03F800
03F800
03F800
03F800
03F800
03F800
03F800
03F800
03F800
03F800
03F800
03F800
03F800
07F800
0FF800
FFF800
FFF000
FFF000
FFF000
FFE000
FFC000
FF8000
FE0000
ENDCHAR
STARTCHAR asciitilde
ENCODING 126
SWIDTH 479 0
DWIDTH 33 0
BBX 29 13 2 17
BITMAP
07E00000
1FFC0008
3FFF0018
7FFFC038
FFFFF0F8
FFFFFFF8
FFFFFFF8
FFFFFFF8
F83FFFF8
E00FFFF0
C003FFE0
8000FF80
00003F00
ENDCHAR
STARTCHAR cent
ENCODING 162
SWIDTH 456 0
DWIDTH 31 0
BBX 27 62 2 -13
BITMAP
00001000
00001C00
00003C00
00003800
00003800
00003800
00003800
00007000
00007000
00007000
00007000
0000E000
0000E000
003FE000
01FFF000
03FFFC00
07FFFE00
0FFFFF00
1FFFFF00
1FFFFF80
3FFFFF80
3FF3FFC0
7FC3BFC0
7F83BFE0
7F879FE0
FF871E00
FF070000
FF070000
FF070000
FF0E0000
FF0E0000
FF0E0000
FF0E0000
FF1C0000
FF1C0000
FF1C1E00
FF1C1FE0
7FBC3FE0
7FB83FC0
7FF83FC0
7FF87FC0
3FF8FFC0
3FFFFF80
1FFFFF80
0FFFFF00
0FFFFE00
07FFFE00
03FFF800
00FFF000
00FFC000
00E00000
01C00000
01C00000
01C00000
01C00000
03C00000
03800000
03800000
03800000
07800000
07000000
03000000
ENDCHAR
STARTCHAR sterling
ENCODING 163
SWIDTH 456 0
DWIDTH 31 0
BBX 29 50 1 -1
BITMAP
000FE000
007FF800
00FFFC00
01FFFE00
03FFFF00
07FFFF80
07FFFF80
0FFFFFC0
0FF8FFC0
1FF07FC0
1FF03FC0
1FE03FE0
1FE01FE0
1FE01FE0
1FE01E00
1FE00000
1FE00000
1FE00000
1FF00000
0FF00000
0FF00000
0FF00000
FFFFC000
FFFFC000
FFFFC000
FFFFC000
FFFFC000
FFFFC000
FFFFC000
FFFFC000
03FC0000
03FC0000
03FC0000
03FC0000
03F80000
07F80000
07F00000
0FE00000
0FC00000
1FBE0040
3FFF80E0
7FFFE1E0
FFFFFFE0
7FFFFFF0
7FFFFFF0
7FFFFFF0
3FFFFFF8
3E0FFFF0
3801FFE0
10003F80
ENDCHAR
STARTCHAR brokenbar
ENCODING 166
SWIDTH 229 0
DWIDTH 16 0
BBX 6 64 5 -14
BITMAP
FC
FC
FC
FC
FC
FC
FC
FC
FC
FC
FC
FC
FC
FC
FC
FC
FC
FC
FC
FC
FC
FC
FC
FC
FC
FC
00
00
00
00
00
00
00
00
00
00
00
00
FC
FC
FC
FC
FC
FC
FC
FC
FC
FC
FC
FC
FC
FC
FC
FC
FC
FC
FC
FC
FC
FC
FC
FC
FC
FC
ENDCHAR
STARTCHAR guillemotleft
ENCODING 171
SWIDTH 456 0
DWIDTH 31 0
BBX 26 31 2 2
BITMAP
007E0FC0
00FC1F80
01FC3F80
01F83F00
03F87F00
03F87F00
07F0FE00
07F0FE00
0FE1FC00
1FE3FC00
1FC3F800
3FC7F800
3F87F000
7F8FF000
7F0FE000
FF1FE000
7F0FE000
7F8FF000
3F87F000
3FC7F800
1FC3F800
1FE3FC00
0FE1FC00
07F0FE00
07F0FE00
03F87F00
03F87F00
01F83F00
01FC3F80
00FC1F80
007E0FC0
ENDCHAR
STARTCHAR hyphen.dup1
ENCODING 173
SWIDTH 272 0
DWIDTH 19 0
BBX 15 9 2 13
BITMAP
FFFE
FFFE
FFFE
FFFE
FFFE
FFFE
FFFE
FFFE
FFFE
ENDCHAR
STARTCHAR degree
ENCODING 176
SWIDTH 399 0
DWIDTH 27 0
BBX 21 21 3 28
BITMAP
01FC00
07FF00
0FFF80
1FFFC0
3FFFE0
7F07F0
7E03F0
FC01F8
F800F8
F800F8
F800F8
F800F8
F800F8
FC01F8
7E03F0
7F07F0
3FFFE0
1FFFC0
0FFF80
07FF00
01FC00
ENDCHAR
STARTCHAR plusminus
ENCODING 177
SWIDTH 548 0
DWIDTH 37 0
BBX 32 45 1 0
BITMAP
000FF000
000FF000
000FF000
000FF000
000FF000
000FF000
000FF000
000FF000
000FF000
000FF000
000FF000
000FF000
000FF000
FFFFFFFF
FFFFFFFF
FFFFFFFF
FFFFFFFF
FFFFFFFF
FFFFFFFF
FFFFFFFF
FFFFFFFF
000FF000
000FF000
000FF000
000FF000
000FF000
000FF000
000FF000
000FF000
000FF000
000FF000
000FF000
000FF000
000FF000
00000000
00000000
00000000
FFFFFFFF
FFFFFFFF
FFFFFFFF
FFFFFFFF
FFFFFFFF
FFFFFFFF
FFFFFFFF
FFFFFFFF
ENDCHAR
STARTCHAR twosuperior
ENCODING 178
SWIDTH 272 0
DWIDTH 19 0
BBX 17 25 1 24
BITMAP
03F000
0FFC00
1FFE00
3FFF00
3FFF80
3E1F80
7C0F80
7C0F80
7C0F80
000F80
001F00
003F00
007E00
00FE00
01FC00
07F800
0FF000
0FE000
1FC000
3F0000
7FFF80
7FFF80
FFFF80
FFFF80
FFFF80
ENDCHAR
STARTCHAR threesuperior
ENCODING 179
SWIDTH 272 0
DWIDTH 19 0
BBX 17 25 1 24
BITMAP
07E000
1FF800
3FFC00
7FFE00
7FFF00
FC3F00
F81F00
381F00
003F00
01FE00
01FC00
03FC00
03FE00
03FF00
001F80
000F80
000F80
780F80
F80F80
FE1F80
7FFF00
7FFF00
3FFE00
1FFC00
07E000
ENDCHAR
STARTCHAR acute
ENCODING 180
SWIDTH 272 0
DWIDTH 19 0
BBX 13 9 5 40
BITMAP
0FF8
1FF0
1FE0
3FC0
3F80
3F00
7E00
7C00
FC00
ENDCHAR
STARTCHAR middot
ENCODING 183
SWIDTH 272 0
DWIDTH 19 0
BBX 8 9 5 19
BITMAP
FF
FF
FF
FF
FF
FF
FF
FF
FF
ENDCHAR
STARTCHAR cedilla
ENCODING 184
SWIDTH 272 0
DWIDTH 19 0
BBX 15 14 1 -14
BITMAP
0FE0
1FF8
3FFC
3FFC
20FE
003E
003E
003E
007E
00FC
FFFC
FFF8
FFF0
FF80
ENDCHAR
STARTCHAR onesuperior
ENCODING 185
SWIDTH 272 0
DWIDTH 19 0
BBX 11 25 3 24
BITMAP
01E0
03E0
07E0
0FE0
1FE0
7FE0
FFE0
FFE0
FBE0
F3E0
83E0
03E0
03E0
03E0
03E0
03E0
03E0
03E0
03E0
03E0
03E0
03E0
03E0
03E0
03E0
ENDCHAR
STARTCHAR ordmasculine
ENCODING 186
SWIDTH 298 0
DWIDTH 20 0
BBX 19 24 1 25
BITMAP
03F800
0FFE00
1FFF00
3FFF80
3FFF80
7FFFC0
7F1FC0
FE0FC0
FC07E0
FC07E0
FC07E0
FC07E0
FC07E0
FC07E0
FC07E0
FC07E0
FE0FC0
7F1FC0
7FFFC0
3FFF80
3FFF80
1FFF00
0FFE00
03F800
ENDCHAR
STARTCHAR guillemotright
ENCODING 187
SWIDTH 456 0
DWIDTH 31 0
BBX 26 31 3 2
BITMAP
FC1F8000
7E0FC000
7F0FE000
3F07E000
3F87F000
3F87F000
1FC3F800
1FC3F800
0FE1FC00
0FF1FE00
07F0FE00
07F8FF00
03F87F00
03FC7F80
01FC3F80
01FE3FC0
01FC3F80
03FC7F80
03F87F00
07F8FF00
07F0FE00
0FF1FE00
0FE1FC00
1FC3F800
1FC3F800
3F87F000
3F87F000
3F07E000
7F0FE000
7E0FC000
FC1F8000
ENDCHAR
STARTCHAR onequarter
ENCODING 188
SWIDTH 684 0
DWIDTH 47 0
BBX 44 51 2 -2
BITMAP
01E00001E000
03E00003C000
03E00003C000
07E000078000
1FE000078000
3FE0000F8000
FFE0000F0000
FFE0001F0000
FBE0001E0000
F3E0003E0000
C3E0003C0000
03E0007C0000
03E000780000
03E000780000
03E000F00000
03E000F00000
03E001E00000
03E001E00000
03E003E00000
03E003C00000
03E007C00000
03E007800000
03E00F800000
03E00F000000
03E01F000000
00001E000780
00003E000F80
00003C001F80
00003C001F80
000078003F80
000078007F80
0000F8007F80
0000F000FF80
0001F001FF80
0001E001EF80
0003E003EF80
0003C007CF80
0007C0078F80
0007800F8F80
000F801F0F80
000F001E0F80
000F003FFFF0
001E003FFFF0
001E003FFFF0
003E003FFFF0
003C003FFFF0
007C00000F80
007800000F80
00F800000F80
00F000000F80
01F000000000
ENDCHAR
STARTCHAR onehalf
ENCODING 189
SWIDTH 684 0
DWIDTH 47 0
BBX 43 51 2 -2
BITMAP
01E00001E000
03E00003C000
03E00003C000
07E000078000
1FE000078000
3FE0000F8000
FFE0000F0000
FFE0001F0000
FBE0001E0000
F3E0003E0000
C3E0003C0000
03E0007C0000
03E000780000
03E000780000
03E000F00000
03E000F00000
03E001E00000
03E001E00000
03E003E00000
03E003C00000
03E007C00000
03E007800000
03E00F800000
03E00F000000
03E01F000000
00001E007C00
00003E01FF00
00003C07FF80
00003C0FFFC0
0000780FFFE0
0000780F87E0
0000F81F83E0
0000F01F03E0
0001F00703E0
0001E00007E0
0003E00007E0
0003C0000FC0
0007C0001FC0
000780003F80
000F80007F00
000F0000FE00
000F0001FC00
001E0003F800
001E0007F000
003E0007E000
003C000FFFE0
007C001FFFE0
0078001FFFE0
00F8001FFFE0
00F0001FFFE0
01F000000000
ENDCHAR
STARTCHAR threequarters
ENCODING 190
SWIDTH 684 0
DWIDTH 47 0
BBX 45 51 1 -2
BITMAP
0FF00000F800
1FF80000F000
3FFC0001F000
7FFE0001E000
7FFE0003E000
7C3E0003C000
F83E0007C000
083E00078000
007E000F8000
03FC000F0000
03FC000F0000
03F8001E0000
03FE001E0000
03FE003E0000
003F003C0000
001F007C0000
001F00780000
781F00F80000
F81F00F00000
FC3F01F00000
7FFF01E00000
7FFE03E00000
3FFC03C00000
1FF803C00000
0FF007800000
0000078003C0
00000F8007C0
00000F000FC0
00001F000FC0
00001E001FC0
00003E003FC0
00003C003FC0
00007C007FC0
00007800FFC0
0000F800F7C0
0000F001F7C0
0000F003E7C0
0001E003C7C0
0001E007C7C0
0003C00F87C0
0003C00F07C0
0007C01FFFF8
0007801FFFF8
000F801FFFF8
000F001FFFF8
001F001FFFF8
001E000007C0
003E000007C0
003C000007C0
007C000007C0
007800000000
ENDCHAR
ENDFONT
