STARTFONT 2.1
FONT -FontForge-Arial Rounded MT Bold-Book-R-Normal--50-480-75-75-P-278-ISO10646-1
SIZE 48 75 75
FONTBOUNDINGBOX 53 51 -4 -10
COMMENT "Generated by fontforge, http://fontforge.sourceforge.net"
COMMENT "Copyright (c) 1993 , Monotype Typography ltd."
STARTPROPERTIES 40
FOUNDRY "FontForge"
FAMILY_NAME "Arial Rounded MT Bold"
WEIGHT_NAME "Book"
SLANT "R"
SETWIDTH_NAME "Normal"
ADD_STYLE_NAME ""
PIXEL_SIZE 50
POINT_SIZE 480
RESOLUTION_X 75
RESOLUTION_Y 75
SPACING "P"
AVERAGE_WIDTH 278
CHARSET_REGISTRY "ISO10646"
CHARSET_ENCODING "1"
FONTNAME_REGISTRY ""
CHARSET_COLLECTIONS "ISO10646-1"
FONT_NAME "ArialRoundedMTBold"
FACE_NAME "Arial Rounded MT Bold"
COPYRIGHT "Copyright (c) 1993 , Monotype Typography ltd."
FONT_VERSION "1.51"
FONT_ASCENT 40
FONT_DESCENT 10
UNDERLINE_POSITION -6
UNDERLINE_THICKNESS 3
X_HEIGHT 25
CAP_HEIGHT 35
RAW_ASCENT 799
RAW_DESCENT 200
NORM_SPACE 13
RELATIVE_WEIGHT 40
RELATIVE_SETWIDTH 50
SUPERSCRIPT_X 0
SUPERSCRIPT_Y 10
SUPERSCRIPT_SIZE 32
SUBSCRIPT_X 0
SUBSCRIPT_Y 3
SUBSCRIPT_SIZE 32
FIGURE_WIDTH 30
AVG_LOWERCASE_WIDTH 271
AVG_UPPERCASE_WIDTH 347
ENDPROPERTIES
CHARS 107
STARTCHAR space
ENCODING 32
SWIDTH 250 0
DWIDTH 13 0
BBX 1 1 0 0
BITMAP
00
ENDCHAR
STARTCHAR exclam
ENCODING 33
SWIDTH 333 0
DWIDTH 17 0
BBX 7 36 5 0
BITMAP
3C
7C
FE
FE
FE
FE
FE
FE
FE
FE
FE
FE
FE
FC
7C
7C
7C
7C
7C
7C
7C
7C
7C
38
30
00
00
00
00
38
7C
FE
FE
FE
7C
38
ENDCHAR
STARTCHAR quotedbl
ENCODING 34
SWIDTH 479 0
DWIDTH 24 0
BBX 18 13 3 23
BITMAP
FE1FC0
FE1FC0
FE1FC0
FE1FC0
FE1FC0
FE1FC0
FE1FC0
FE1FC0
FE1FC0
7C0F80
7C0F80
7C0F80
7C0F80
ENDCHAR
STARTCHAR numbersign
ENCODING 35
SWIDTH 551 0
DWIDTH 28 0
BBX 27 36 0 0
BITMAP
00380F00
007C0F80
00FC1F80
00FC1F80
00F81F00
00F81F00
00F83F00
01F83F00
01F83F00
7FFFFFC0
FFFFFFE0
FFFFFFE0
FFFFFFE0
7FFFFFC0
03E07C00
03E07C00
07E0FC00
07E0FC00
07E0FC00
07C0F800
07C0F800
07C0F800
7FFFFFC0
FFFFFFE0
FFFFFFE0
FFFFFFE0
7FFFFFC0
1F83F000
1F83F000
1F03E000
1F03E000
3F07E000
3F07E000
3E07C000
3E07C000
1E038000
ENDCHAR
STARTCHAR dollar
ENCODING 36
SWIDTH 594 0
DWIDTH 30 0
BBX 26 50 2 -9
BITMAP
001C0000
001C0000
001C0000
001C0000
001C0000
01FFE000
07FFF800
0FFFFC00
1FFFFE00
3FDFFF00
3F1DFF00
7E1C7F80
7E1C3F80
7E1C3F80
7E1C1F00
7E1C0E00
7F1C0000
7F1C0000
7FDC0000
3FFC0000
3FFF0000
1FFFF000
0FFFFC00
03FFFE00
00FFFF00
001FFF80
001DFF80
001C3FC0
781C1FC0
FC1C0FC0
FC1C0FC0
FE1C0FC0
FE1C0FC0
FE1C1FC0
7F1C1F80
7F9C3F80
3FDCFF00
1FFFFE00
0FFFFC00
07FFF800
01FFC000
001C0000
001C0000
001C0000
001C0000
001C0000
001C0000
001C0000
001C0000
001C0000
ENDCHAR
STARTCHAR percent
ENCODING 37
SWIDTH 854 0
DWIDTH 43 0
BBX 41 37 1 -1
BITMAP
07E000038000
1FF800078000
3FFC00070000
7C3E000F0000
7C3E001E0000
F81E001E0000
F81F003C0000
F81F00780000
F81F00780000
F81F00F00000
F81F00E00000
F81F01E00000
F81F03C00000
F81F03C00000
7C3E07800000
7C3E0F000000
3FFC0F000000
1FF81E000000
07E01C03F000
00003C0FFC00
0000781FFE00
0000783E1F00
0000F03E1F00
0001E07C0F80
0001E07C0F80
0003C07C0F80
0003807C0F80
0007807C0F80
000F007C0F80
000F007C0F80
001E007C0F80
003C003E1F00
003C003E1F00
0078001FFE00
0078000FFC00
00F00003F000
006000000000
ENDCHAR
STARTCHAR ampersand
ENCODING 38
SWIDTH 759 0
DWIDTH 38 0
BBX 34 36 3 0
BITMAP
001FE00000
007FF80000
00FFFE0000
01FFFE0000
03FFFF0000
03F87F8000
07F03F8000
07E01F8000
07E01F8000
07F01F8000
07F03F8000
03F87F0000
03FCFE0000
01FFFC0000
00FFF80000
00FFF00000
00FFC00000
03FFC00000
0FFFE03E00
1FFFF03E00
3FC7F87E00
7F83FC7E00
7F03FEFE00
FE01FFFC00
FE00FFFC00
FE007FF800
FE003FF800
FE001FF800
FF001FFC00
7F803FFE00
7FE0FFFF80
3FFFFFFFC0
1FFFFE7FC0
0FFFFC1FC0
03FFF00FC0
00FF800780
ENDCHAR
STARTCHAR quotesingle
ENCODING 39
SWIDTH 240 0
DWIDTH 12 0
BBX 7 13 2 23
BITMAP
FE
FE
FE
FE
FE
FE
FE
FE
FE
7C
7C
7C
7C
ENDCHAR
STARTCHAR parenleft
ENCODING 40
SWIDTH 354 0
DWIDTH 18 0
BBX 13 46 3 -10
BITMAP
0078
00F8
01F0
01F0
03E0
07E0
07C0
0FC0
0FC0
1F80
1F80
3F80
3F00
7F00
7F00
7F00
7E00
FE00
FE00
FE00
FE00
FE00
FE00
FE00
FE00
FE00
FE00
FE00
FE00
7E00
7F00
7F00
7F00
3F00
3F80
1F80
1F80
0FC0
0FC0
07C0
07E0
03E0
01F0
01F0
00F8
0078
ENDCHAR
STARTCHAR parenright
ENCODING 41
SWIDTH 354 0
DWIDTH 18 0
BBX 13 46 2 -10
BITMAP
F000
F800
7C00
7C00
3E00
3F00
1F00
1F80
1F80
0FC0
0FC0
0FE0
07E0
07F0
07F0
07F0
07F0
03F8
03F8
03F8
03F8
03F8
03F8
03F8
03F8
03F8
03F8
03F8
03F8
07F0
07F0
07F0
07E0
07E0
0FE0
0FC0
0FC0
1F80
1F80
1F00
3F00
3E00
7C00
7C00
F800
F000
ENDCHAR
STARTCHAR asterisk
ENCODING 42
SWIDTH 437 0
DWIDTH 22 0
BBX 20 19 1 19
BITMAP
006000
00F000
00F000
00F000
00F000
60F060
FCF3F0
FF6FF0
FFFFF0
3FFFC0
07FE00
01F800
03FC00
07FE00
0F9F00
0F9F00
1F0F80
1E0780
0C0300
ENDCHAR
STARTCHAR plus
ENCODING 43
SWIDTH 583 0
DWIDTH 29 0
BBX 25 25 2 5
BITMAP
007F0000
007F0000
007F0000
007F0000
007F0000
007F0000
007F0000
007F0000
007F0000
FFFFFF80
FFFFFF80
FFFFFF80
FFFFFF80
FFFFFF80
FFFFFF80
007F0000
007F0000
007F0000
007F0000
007F0000
007F0000
007F0000
007F0000
007F0000
007F0000
ENDCHAR
STARTCHAR comma
ENCODING 44
SWIDTH 312 0
DWIDTH 16 0
BBX 8 14 4 -8
BITMAP
3C
7E
FE
FF
FF
7F
3F
0F
0E
1E
3C
FC
F8
60
ENDCHAR
STARTCHAR hyphen
ENCODING 45
SWIDTH 333 0
DWIDTH 17 0
BBX 15 6 1 10
BITMAP
7FFC
FFFE
FFFE
FFFE
FFFE
7FFC
ENDCHAR
STARTCHAR period
ENCODING 46
SWIDTH 312 0
DWIDTH 16 0
BBX 7 7 4 0
BITMAP
38
7C
FE
FE
FE
7C
38
ENDCHAR
STARTCHAR slash
ENCODING 47
SWIDTH 280 0
DWIDTH 14 0
BBX 13 36 1 0
BITMAP
0070
00F8
00F8
00F8
01F8
01F0
01F0
03F0
03F0
03E0
03E0
07E0
07E0
07C0
07C0
0FC0
0FC0
0F80
0F80
1F80
1F80
1F00
1F00
3F00
3E00
3E00
3E00
7E00
7C00
7C00
7C00
FC00
F800
F800
F800
7000
ENDCHAR
STARTCHAR zero
ENCODING 48
SWIDTH 594 0
DWIDTH 30 0
BBX 25 36 2 0
BITMAP
007F0000
03FFC000
07FFF000
0FFFF800
1FFFFC00
3FC1FC00
3F80FE00
3F80FE00
7F007F00
7F007F00
7F007F00
FE003F00
FE003F80
FE003F80
FE003F80
FE003F80
FE003F80
FE003F80
FE003F80
FE003F80
FE003F80
FE003F80
FE003F80
FE003F80
FE003F80
7F007F00
7F007F00
7F007F00
3F80FE00
3F80FE00
1FC1FC00
1FFFFC00
0FFFF800
07FFF000
01FFC000
007F0000
ENDCHAR
STARTCHAR one
ENCODING 49
SWIDTH 594 0
DWIDTH 30 0
BBX 18 36 3 0
BITMAP
000780
000FC0
000FC0
001FC0
003FC0
007FC0
00FFC0
03FFC0
07FFC0
1FFFC0
7FDFC0
FF9FC0
FF1FC0
FC1FC0
701FC0
001FC0
001FC0
001FC0
001FC0
001FC0
001FC0
001FC0
001FC0
001FC0
001FC0
001FC0
001FC0
001FC0
001FC0
001FC0
001FC0
001FC0
001FC0
001FC0
000F80
000700
ENDCHAR
STARTCHAR two
ENCODING 50
SWIDTH 594 0
DWIDTH 30 0
BBX 26 36 2 0
BITMAP
00FF8000
03FFF000
0FFFF800
1FFFFC00
3FFFFE00
3FC1FF00
7F00FF00
7F007F80
FE003F80
FE003F80
FC003F80
7C003F80
78003F80
00007F00
00007F00
0000FF00
0001FE00
0003FC00
0007F800
001FF000
003FE000
007FC000
00FF8000
01FF0000
03FC0000
07F80000
0FF00000
1FE00000
3FC00000
7F800000
7FFFFF00
FFFFFF80
FFFFFFC0
FFFFFFC0
7FFFFF80
3FFFFF00
ENDCHAR
STARTCHAR three
ENCODING 51
SWIDTH 594 0
DWIDTH 30 0
BBX 25 36 3 0
BITMAP
00FF0000
03FFE000
0FFFF000
1FFFF800
3FFFFC00
7F83FE00
7F01FE00
7E00FE00
7C00FE00
7C00FE00
3800FE00
0000FE00
0001FC00
0003FC00
00FFF800
01FFF000
03FFF000
01FFF800
01FFFC00
0001FE00
0000FF00
00007F00
00003F80
20003F80
F8003F80
F8003F80
FC003F80
FC007F80
FE007F00
7F00FF00
7F83FE00
3FFFFC00
1FFFF800
0FFFF000
03FFC000
00FF0000
ENDCHAR
STARTCHAR four
ENCODING 52
SWIDTH 594 0
DWIDTH 30 0
BBX 28 36 1 0
BITMAP
00003800
00007C00
0000FE00
0001FE00
0003FE00
0003FE00
0007FE00
000FFE00
001FFE00
003FFE00
003F7E00
007E7E00
00FC7E00
01FC7E00
01F87E00
03F07E00
07E07E00
0FE07E00
0FC07E00
1F807E00
3F007E00
7F007E00
7E007E00
FFFFFFE0
FFFFFFF0
FFFFFFF0
7FFFFFF0
3FFFFFE0
00007E00
00007E00
00007E00
00007E00
00007E00
00007E00
00007E00
00003C00
ENDCHAR
STARTCHAR five
ENCODING 53
SWIDTH 594 0
DWIDTH 30 0
BBX 25 36 3 0
BITMAP
0FFFFE00
1FFFFF00
1FFFFF00
1FFFFF00
1FFFFE00
3F000000
3F000000
3F000000
3F000000
3F000000
3F000000
7F000000
7E3F8000
7EFFE000
7FFFF800
7FFFFC00
7FFFFE00
FF83FE00
7E00FF00
7C007F00
10007F80
00003F80
00003F80
00003F80
20003F80
F8003F80
F8003F80
FC007F00
FE007F00
FF00FE00
7F83FE00
7FFFFC00
3FFFF800
1FFFF000
07FFC000
01FF0000
ENDCHAR
STARTCHAR six
ENCODING 54
SWIDTH 594 0
DWIDTH 30 0
BBX 26 36 2 0
BITMAP
003FC000
00FFF000
03FFF800
07FFFE00
0FFFFE00
1FE0FF00
1FC07F00
3F803F00
3F003F00
7F001F00
7E000400
7E000000
7E000000
FE0FC000
FE7FF800
FEFFFC00
FDFFFE00
FFFFFF00
FFE0FF80
FF807F80
FF003F80
FE003FC0
FE001FC0
FE001FC0
FE001FC0
7E001FC0
7E001FC0
7F003FC0
3F003F80
3F807F80
1FE0FF00
1FFFFF00
0FFFFE00
07FFFC00
01FFF000
007F8000
ENDCHAR
STARTCHAR seven
ENCODING 55
SWIDTH 594 0
DWIDTH 30 0
BBX 25 36 4 0
BITMAP
7FFFFF00
FFFFFF80
FFFFFF80
FFFFFF80
7FFFFF80
00007F00
0000FE00
0001FE00
0001FC00
0003F800
0007F000
0007F000
000FE000
000FC000
001FC000
001F8000
003F8000
003F0000
007F0000
007E0000
00FE0000
00FE0000
00FC0000
01FC0000
01FC0000
01FC0000
03FC0000
03F80000
03F80000
03F80000
07F80000
07F80000
07F00000
03F00000
03F00000
01E00000
ENDCHAR
STARTCHAR eight
ENCODING 56
SWIDTH 594 0
DWIDTH 30 0
BBX 26 36 2 0
BITMAP
007F8000
03FFF000
07FFF800
0FFFFC00
1FFFFE00
3FC1FF00
3F807F00
3F003F00
7F003F80
7F003F80
7F003F80
7F003F00
3F807F00
3FC1FE00
1FFFFC00
07FFF800
03FFF000
0FFFFC00
1FFFFE00
3FC1FF00
7F807F80
7F003F80
FE001FC0
FE001FC0
FE001FC0
FE001FC0
FE001FC0
FE003FC0
FF003F80
7F807F80
7FC1FF80
3FFFFF00
1FFFFE00
0FFFFC00
03FFF000
007FC000
ENDCHAR
STARTCHAR nine
ENCODING 57
SWIDTH 594 0
DWIDTH 30 0
BBX 26 36 1 0
BITMAP
007F0000
03FFE000
07FFF800
1FFFFC00
1FFFFE00
3FC1FE00
7F807F00
7F007F00
7F003F80
FE001F80
FE001F80
FE001F80
FE001FC0
FE001FC0
FE001FC0
FF003FC0
7F003FC0
7F807FC0
3FC1FFC0
3FFFFFC0
1FFFFFC0
0FFFDFC0
03FF9FC0
00FE1F80
00001F80
00001F80
10003F80
3E003F00
3F003F00
7F007E00
3FC1FE00
3FFFFC00
1FFFF800
0FFFF000
03FFE000
00FF0000
ENDCHAR
STARTCHAR colon
ENCODING 58
SWIDTH 312 0
DWIDTH 16 0
BBX 7 26 4 0
BITMAP
38
7C
FE
FE
FE
7C
38
00
00
00
00
00
00
00
00
00
00
00
00
38
7C
FE
FE
FE
7C
38
ENDCHAR
STARTCHAR semicolon
ENCODING 59
SWIDTH 312 0
DWIDTH 16 0
BBX 8 34 3 -8
BITMAP
1C
3E
7F
7F
7F
3E
1C
00
00
00
00
00
00
00
00
00
00
00
00
00
3C
7E
7F
FF
7F
7F
3F
0F
0F
1E
3E
7C
78
70
ENDCHAR
STARTCHAR less
ENCODING 60
SWIDTH 583 0
DWIDTH 29 0
BBX 24 27 3 4
BITMAP
000001
000007
00003F
0000FF
0003FF
001FFF
007FFF
01FFFE
07FFF0
3FFF80
FFFE00
FFF000
FFC000
FE0000
FFC000
FFF000
FFFE00
3FFF80
07FFF0
01FFFC
007FFF
001FFF
0003FF
0000FF
00003F
000007
000001
ENDCHAR
STARTCHAR equal
ENCODING 61
SWIDTH 583 0
DWIDTH 29 0
BBX 25 17 2 9
BITMAP
FFFFFF80
FFFFFF80
FFFFFF80
FFFFFF80
FFFFFF80
FFFFFF80
00000000
00000000
00000000
00000000
00000000
FFFFFF80
FFFFFF80
FFFFFF80
FFFFFF80
FFFFFF80
FFFFFF80
ENDCHAR
STARTCHAR greater
ENCODING 62
SWIDTH 583 0
DWIDTH 29 0
BBX 24 27 3 4
BITMAP
800000
E00000
FC0000
FF0000
FFC000
FFF800
FFFE00
3FFF80
0FFFE0
01FFFC
007FFF
000FFF
0003FF
00007F
0003FF
000FFF
007FFF
01FFF8
0FFFE0
3FFF80
FFFE00
FFF000
FFC000
FF0000
FC0000
E00000
800000
ENDCHAR
STARTCHAR question
ENCODING 63
SWIDTH 573 0
DWIDTH 29 0
BBX 25 36 2 0
BITMAP
007F8000
03FFF000
07FFF800
1FFFFC00
3FFFFE00
3FC1FF00
7F807F00
7F007F80
FE003F80
FE003F80
FE003F80
7C007F80
38007F00
0000FF00
0001FE00
0003FC00
0007F800
000FF000
001FE000
003FC000
003F8000
003F0000
007E0000
007E0000
003E0000
003E0000
001C0000
00000000
00000000
001C0000
003E0000
007F0000
007F0000
007F0000
003E0000
001C0000
ENDCHAR
STARTCHAR at
ENCODING 64
SWIDTH 979 0
DWIDTH 49 0
BBX 48 46 1 -10
BITMAP
00000FFE0000
0000FFFFE000
0003FFFFF800
000FFFFFFE00
003FFFFFFF00
007FF003FF80
01FF00007FE0
03FC00000FE0
07F8000007F0
07E0000003F8
0FC01FC3F1F8
1F807FF3F0FC
1F01FFFBF0FC
3F03FFFFF07C
3E07FFFFF07E
7E0FF83FE03E
7C0FF01FE03E
7C1FE01FE03E
7C1FC00FE03E
FC3F800FC03E
F83F800FC03E
F83F800FC03E
F87F000FC07E
F87F000FC07C
F87F001F807C
F87F001F80FC
F87F001F81F8
F87F003F81F8
F87F003F83F0
7C3F807F07E0
7C3FC0FF9FC0
7C3FF7FFFF80
7E1FFFFFFF00
3E0FFFBFFE00
3F07FF3FF800
1F81FC0FE000
0F800000003F
0FC00000007E
07F0000000FC
03F8000003F8
01FF00000FF0
007FE000FFE0
003FFFFFFFC0
000FFFFFFF00
0001FFFFF800
00000FFF8000
ENDCHAR
STARTCHAR A
ENCODING 65
SWIDTH 719 0
DWIDTH 36 0
BBX 33 36 1 0
BITMAP
0003E00000
0007F00000
000FF80000
001FF80000
001FFC0000
001FFC0000
003FFE0000
003FFE0000
007F7E0000
007E7F0000
007E3F0000
00FE3F8000
00FC3F8000
01FC1F8000
01FC1FC000
01F81FC000
03F80FE000
03F80FE000
07F00FF000
07F007F000
07F007F000
0FE007F800
0FFFFFF800
1FFFFFFC00
1FFFFFFC00
1FFFFFFC00
3FFFFFFE00
3F8000FE00
7F8000FF00
7F00007F00
7F00007F00
FE00007F80
FE00003F80
FE00003F80
7C00001F00
3800000E00
ENDCHAR
STARTCHAR B
ENCODING 66
SWIDTH 719 0
DWIDTH 36 0
BBX 29 36 4 0
BITMAP
3FFFF800
7FFFFE00
FFFFFF80
FFFFFFC0
FFFFFFC0
FE007FE0
FE001FE0
FE000FE0
FE000FE0
FE0007E0
FE0007E0
FE000FE0
FE000FE0
FE001FC0
FE003FC0
FFFFFF80
FFFFFE00
FFFFFE00
FFFFFF80
FFFFFFE0
FE003FE0
FE000FF0
FE0007F0
FE0003F8
FE0003F8
FE0003F8
FE0003F8
FE0003F8
FE0007F8
FE000FF0
FE003FF0
FFFFFFE0
FFFFFFE0
FFFFFFC0
7FFFFF00
3FFFF800
ENDCHAR
STARTCHAR C
ENCODING 67
SWIDTH 740 0
DWIDTH 37 0
BBX 32 36 3 0
BITMAP
000FF800
007FFF00
01FFFFC0
03FFFFE0
07FFFFF0
0FFFFFF8
1FFC0FFC
1FE003FE
3FC001FE
3F8000FE
7F80007E
7F00007E
7F00003E
FF00001C
FE000000
FE000000
FE000000
FE000000
FE000000
FE000000
FE000000
FE00001C
FE00003E
7F00007E
7F00007F
7F8000FE
3F8000FE
3FC001FE
1FE003FC
1FF80FFC
0FFFFFF8
07FFFFF0
03FFFFE0
01FFFFC0
007FFF00
000FF800
ENDCHAR
STARTCHAR D
ENCODING 68
SWIDTH 740 0
DWIDTH 37 0
BBX 30 36 4 0
BITMAP
3FFFE000
7FFFFE00
FFFFFF00
FFFFFF80
FFFFFFC0
FE00FFE0
FE001FF0
FE000FF0
FE0007F0
FE0003F8
FE0003F8
FE0003F8
FE0001FC
FE0001FC
FE0001FC
FE0001FC
FE0001FC
FE0001FC
FE0001FC
FE0001FC
FE0001FC
FE0001FC
FE0003FC
FE0003F8
FE0003F8
FE0007F8
FE0007F8
FE000FF0
FE001FF0
FE007FE0
FFFFFFE0
FFFFFFC0
FFFFFF80
FFFFFF00
7FFFFC00
3FFFE000
ENDCHAR
STARTCHAR E
ENCODING 69
SWIDTH 666 0
DWIDTH 33 0
BBX 27 36 4 0
BITMAP
3FFFFFC0
7FFFFFE0
FFFFFFE0
FFFFFFE0
FFFFFFC0
FE000000
FE000000
FE000000
FE000000
FE000000
FE000000
FE000000
FE000000
FE000000
FE000000
FFFFFF00
FFFFFF80
FFFFFF80
FFFFFF80
FFFFFF00
FE000000
FE000000
FE000000
FE000000
FE000000
FE000000
FE000000
FE000000
FE000000
FE000000
FFFFFFC0
FFFFFFE0
FFFFFFE0
FFFFFFE0
7FFFFFE0
3FFFFFC0
ENDCHAR
STARTCHAR F
ENCODING 70
SWIDTH 604 0
DWIDTH 30 0
BBX 25 36 4 0
BITMAP
3FFFFF00
7FFFFF00
FFFFFF80
FFFFFF00
FFFFFF00
FE000000
FE000000
FE000000
FE000000
FE000000
FE000000
FE000000
FE000000
FE000000
FE000000
FFFFF800
FFFFFC00
FFFFFC00
FFFFFC00
FFFFF800
FE000000
FE000000
FE000000
FE000000
FE000000
FE000000
FE000000
FE000000
FE000000
FE000000
FE000000
FE000000
FE000000
FE000000
7C000000
38000000
ENDCHAR
STARTCHAR G
ENCODING 71
SWIDTH 791 0
DWIDTH 40 0
BBX 34 36 3 0
BITMAP
0007FE0000
003FFFC000
00FFFFF000
03FFFFFC00
07FFFFFE00
0FFC07FF00
1FF001FF00
1FE000FF80
3FC0007F80
3F80003F80
7F80003F00
7F00001E00
7F00000000
FE00000000
FE00000000
FE00000000
FE00000000
FE001FFF00
FE003FFF80
FE007FFFC0
FE003FFFC0
FE003FFFC0
FE00001FC0
7F00001FC0
7F00001FC0
7F80001FC0
3F80001FC0
3FC0001FC0
1FE0001FC0
1FF0007FC0
0FFC03FFC0
07FFFFFF80
03FFFFFF00
00FFFFFC00
003FFFE000
0007FE0000
ENDCHAR
STARTCHAR H
ENCODING 72
SWIDTH 759 0
DWIDTH 38 0
BBX 30 36 4 0
BITMAP
38000070
7C0000F8
FE0001FC
FE0001FC
FE0001FC
FE0001FC
FE0001FC
FE0001FC
FE0001FC
FE0001FC
FE0001FC
FE0001FC
FE0001FC
FE0001FC
FFFFFFFC
FFFFFFFC
FFFFFFFC
FFFFFFFC
FFFFFFFC
FFFFFFFC
FE0001FC
FE0001FC
FE0001FC
FE0001FC
FE0001FC
FE0001FC
FE0001FC
FE0001FC
FE0001FC
FE0001FC
FE0001FC
FE0001FC
FE0001FC
FE0001FC
7C0000F8
38000070
ENDCHAR
STARTCHAR I
ENCODING 73
SWIDTH 312 0
DWIDTH 16 0
BBX 7 36 4 0
BITMAP
38
7C
FE
FE
FE
FE
FE
FE
FE
FE
FE
FE
FE
FE
FE
FE
FE
FE
FE
FE
FE
FE
FE
FE
FE
FE
FE
FE
FE
FE
FE
FE
FE
FE
7C
38
ENDCHAR
STARTCHAR J
ENCODING 74
SWIDTH 573 0
DWIDTH 29 0
BBX 24 36 1 0
BITMAP
00001C
00003E
00007F
00007F
00007F
00007F
00007F
00007F
00007F
00007F
00007F
00007F
00007F
00007F
00007F
00007F
00007F
00007F
00007F
00007F
00007F
00007F
3C007F
7E007F
7E007F
FE007F
7F007F
7F00FF
7F80FE
7FC3FE
3FFFFE
1FFFFC
1FFFF8
0FFFF0
03FFE0
00FF00
ENDCHAR
STARTCHAR K
ENCODING 75
SWIDTH 740 0
DWIDTH 37 0
BBX 30 36 4 0
BITMAP
380001E0
7C0003F0
FE0007F0
FE000FF0
FE001FF0
FE003FE0
FE007FC0
FE00FF80
FE01FF00
FE03FE00
FE07FC00
FE0FF800
FE1FF000
FE3FE000
FE7FC000
FEFFE000
FFFFF000
FFFFF000
FFFFF800
FFF7FC00
FFE3FC00
FFC1FE00
FF81FF00
FF00FF80
FE007F80
FE007FC0
FE003FE0
FE001FE0
FE001FF0
FE000FF8
FE0007F8
FE0007FC
FE0003FC
FE0001FC
7C0001FC
38000078
ENDCHAR
STARTCHAR L
ENCODING 76
SWIDTH 604 0
DWIDTH 30 0
BBX 25 36 4 0
BITMAP
38000000
7C000000
FE000000
FE000000
FE000000
FE000000
FE000000
FE000000
FE000000
FE000000
FE000000
FE000000
FE000000
FE000000
FE000000
FE000000
FE000000
FE000000
FE000000
FE000000
FE000000
FE000000
FE000000
FE000000
FE000000
FE000000
FE000000
FE000000
FE000000
FE000000
FFFFFF00
FFFFFF80
FFFFFF80
FFFFFF80
7FFFFF80
3FFFFF00
ENDCHAR
STARTCHAR M
ENCODING 77
SWIDTH 833 0
DWIDTH 42 0
BBX 35 36 3 0
BITMAP
3FC0007F80
7FE000FFC0
FFF001FFE0
FFF001FFE0
FFF001FFE0
FFF801FFE0
FFF803FFE0
FFF803FFE0
FFF803FFE0
FFFC03FFE0
FEFC07EFE0
FEFC07EFE0
FEFC07EFE0
FEFE0FEFE0
FE7E0FCFE0
FE7E0FCFE0
FE7E0FCFE0
FE7F1FCFE0
FE3F1F8FE0
FE3F1F8FE0
FE3F1F8FE0
FE3FBF8FE0
FE1FBF0FE0
FE1FBF0FE0
FE1FBF0FE0
FE1FFF0FE0
FE0FFE0FE0
FE0FFE0FE0
FE0FFE0FE0
FE07FC0FE0
FE07FC0FE0
FE07FC0FE0
FE07FC0FE0
FE03F80FE0
7C03F807C0
3801F00380
ENDCHAR
STARTCHAR N
ENCODING 78
SWIDTH 759 0
DWIDTH 38 0
BBX 30 36 4 0
BITMAP
3C000070
7F0000F8
FF0001FC
FF8001FC
FFC001FC
FFC001FC
FFE001FC
FFF001FC
FFF001FC
FFF801FC
FFFC01FC
FFFC01FC
FEFE01FC
FE7F01FC
FE7F01FC
FE3F81FC
FE3F81FC
FE1FC1FC
FE0FE1FC
FE0FE1FC
FE07F1FC
FE03F9FC
FE03F9FC
FE01FDFC
FE00FFFC
FE00FFFC
FE007FFC
FE007FFC
FE003FFC
FE001FFC
FE001FFC
FE000FFC
FE0007FC
FE0007FC
7C0003F8
380000F0
ENDCHAR
STARTCHAR O
ENCODING 79
SWIDTH 791 0
DWIDTH 40 0
BBX 35 36 2 0
BITMAP
0007FC0000
007FFF8000
00FFFFE000
03FFFFF800
07FFFFFC00
0FFFFFFE00
1FFC07FF00
1FF001FF00
3FE000FF80
3FC0007F80
7F80003FC0
7F00001FC0
7F00001FC0
FF00001FE0
FE00000FE0
FE00000FE0
FE00000FE0
FE00000FE0
FE00000FE0
FE00000FE0
FE00000FE0
FE00000FE0
FF00001FE0
7F00001FC0
7F00001FC0
7F80003FC0
3FC0007F80
3FE000FF80
1FF001FF00
1FFC07FF00
0FFFFFFE00
07FFFFFC00
03FFFFF800
00FFFFE000
003FFFC000
0007FC0000
ENDCHAR
STARTCHAR P
ENCODING 80
SWIDTH 666 0
DWIDTH 33 0
BBX 27 36 4 0
BITMAP
3FFFF000
7FFFFC00
FFFFFF00
FFFFFF80
FFFFFF80
FE00FFC0
FE003FC0
FE001FE0
FE000FE0
FE000FE0
FE000FE0
FE000FE0
FE000FE0
FE000FE0
FE001FE0
FE003FC0
FE00FFC0
FFFFFF80
FFFFFF00
FFFFFE00
FFFFFC00
FFFFE000
FE000000
FE000000
FE000000
FE000000
FE000000
FE000000
FE000000
FE000000
FE000000
FE000000
FE000000
FE000000
7C000000
38000000
ENDCHAR
STARTCHAR Q
ENCODING 81
SWIDTH 791 0
DWIDTH 40 0
BBX 37 39 2 -3
BITMAP
0007FC0000
007FFFC000
00FFFFE000
03FFFFF800
07FFFFFC00
0FFFFFFE00
1FFC07FF00
1FF001FF00
3FE000FF80
3FC0007F80
7F80003FC0
7F00001FC0
7F00001FC0
FF00001FE0
FE00000FE0
FE00000FE0
FE00000FE0
FE00000FE0
FE00000FE0
FE00000FE0
FE00000FE0
FE00000FE0
FF00001FE0
7F00401FC0
7F01F81FC0
7F81FE3FC0
3FC0FFFF80
3FE03FFF80
1FF00FFF00
1FFC07FF00
0FFFFFFE00
07FFFFFF00
03FFFFFF80
00FFFFFFE0
003FFFDFF0
0007FE0FF8
00000003F8
00000001F8
0000000060
ENDCHAR
STARTCHAR R
ENCODING 82
SWIDTH 719 0
DWIDTH 36 0
BBX 30 36 4 0
BITMAP
3FFFFC00
7FFFFF80
FFFFFFC0
FFFFFFE0
FFFFFFF0
FE001FF0
FE000FF0
FE0007F8
FE0003F8
FE0003F8
FE0003F8
FE0003F8
FE0003F8
FE0007F8
FE000FF0
FE003FF0
FFFFFFE0
FFFFFFC0
FFFFFF80
FFFFFE00
FFFFF800
FE07FC00
FE01FE00
FE00FF00
FE007F80
FE007FC0
FE003FC0
FE001FE0
FE001FF0
FE000FF0
FE000FF8
FE0007F8
FE0003F8
FE0003FC
7C0001F8
380000F0
ENDCHAR
STARTCHAR S
ENCODING 83
SWIDTH 666 0
DWIDTH 33 0
BBX 29 36 2 0
BITMAP
003FE000
01FFFC00
07FFFF00
0FFFFF80
1FFFFFC0
3FE03FE0
3F801FE0
7F000FE0
7F0007E0
7F0007E0
7F0003E0
7F8001C0
7FE00000
3FFC0000
3FFFC000
1FFFF800
0FFFFF00
03FFFF80
00FFFFC0
001FFFE0
0001FFF0
00003FF0
00000FF8
7C0007F8
7E0003F8
FE0003F8
FE0003F8
7F0003F8
7F8007F0
7FC00FF0
3FE03FE0
1FFFFFE0
0FFFFFC0
07FFFF00
01FFFE00
003FE000
ENDCHAR
STARTCHAR T
ENCODING 84
SWIDTH 625 0
DWIDTH 31 0
BBX 31 36 0 0
BITMAP
3FFFFFF8
7FFFFFFC
FFFFFFFE
FFFFFFFE
7FFFFFFC
3FFFFFF8
000FE000
000FE000
000FE000
000FE000
000FE000
000FE000
000FE000
000FE000
000FE000
000FE000
000FE000
000FE000
000FE000
000FE000
000FE000
000FE000
000FE000
000FE000
000FE000
000FE000
000FE000
000FE000
000FE000
000FE000
000FE000
000FE000
000FE000
000FE000
0007C000
00038000
ENDCHAR
STARTCHAR U
ENCODING 85
SWIDTH 759 0
DWIDTH 38 0
BBX 30 36 4 0
BITMAP
38000070
7C0000F8
FE0001FC
FE0001FC
FE0001FC
FE0001FC
FE0001FC
FE0001FC
FE0001FC
FE0001FC
FE0001FC
FE0001FC
FE0001FC
FE0001FC
FE0001FC
FE0001FC
FE0001FC
FE0001FC
FE0001FC
FE0001FC
FE0001FC
FE0001FC
FE0001FC
FE0001FC
FE0001FC
FF0003FC
7F0003F8
7F8007F8
7FC00FF8
3FE01FF0
3FFFFFF0
1FFFFFE0
0FFFFFC0
07FFFF80
01FFFE00
003FF000
ENDCHAR
STARTCHAR V
ENCODING 86
SWIDTH 687 0
DWIDTH 34 0
BBX 31 36 2 0
BITMAP
38000038
7C00007C
FE0000FE
FE0000FE
FF0000FE
FF0001FC
7F0001FC
7F8001FC
3F8003F8
3F8003F8
3FC003F8
1FC007F0
1FC007F0
1FE007F0
0FE00FE0
0FE00FE0
07F00FC0
07F01FC0
07F01FC0
03F81F80
03F83F80
03F83F00
01FC7F00
01FC7F00
00FC7E00
00FEFE00
00FEFE00
007EFC00
007FFC00
007FF800
003FF800
003FF800
001FF000
001FF000
000FE000
0007C000
ENDCHAR
STARTCHAR W
ENCODING 87
SWIDTH 937 0
DWIDTH 47 0
BBX 45 36 1 0
BITMAP
38000F8000E0
FC001FC001F8
FE003FE003F8
FE003FE003F8
FE003FE003F8
FE007FF003F8
7F007FF007F0
7F007FF007F0
7F00FFF007F0
7F00FDF807F0
3F80FDF80FE0
3F80FDF80FE0
3F81FDFC0FE0
3F81F8FC0FE0
1F81F8FC1FC0
1FC1F8FC1FC0
1FC3F07E1FC0
1FC3F07E1FC0
0FC3F07E1F80
0FE7F07F3F80
0FE7E03F3F80
0FE7E03F3F80
07E7E03F3F00
07FFE01FFF00
07FFC01FFF00
07FFC01FFF00
03FFC01FFE00
03FF800FFE00
03FF800FFE00
03FF800FFE00
01FF800FFC00
01FF0007FC00
01FF0007FC00
00FF0007F800
00FE0003F800
007C0001F000
ENDCHAR
STARTCHAR X
ENCODING 88
SWIDTH 604 0
DWIDTH 30 0
BBX 28 36 1 0
BITMAP
3C0001C0
7E0003E0
7F0007E0
7F000FE0
7F800FE0
3FC01FE0
3FC03FC0
1FE03F80
0FE07F80
0FF0FF00
07F8FE00
03F9FE00
03FDFC00
01FFF800
00FFF800
00FFF000
007FE000
003FE000
007FE000
00FFF000
00FFF000
01FFF800
03FFFC00
03FFFC00
07F9FE00
0FF0FF00
1FF0FF80
1FE07F80
3FC03FC0
7FC03FE0
7F801FE0
FF000FF0
FF000FF0
FE0007F0
FC0003F0
780001E0
ENDCHAR
STARTCHAR Y
ENCODING 89
SWIDTH 625 0
DWIDTH 31 0
BBX 29 36 1 0
BITMAP
380000F0
7C0001F8
FE0003F8
FF0003F8
7F0007F8
7F800FF0
3F800FF0
3FC01FE0
1FE01FC0
0FE03F80
0FF07F80
07F07F00
03F8FE00
03FCFE00
01FDFC00
00FFF800
00FFF800
007FF000
003FE000
003FE000
001FC000
001FC000
001FC000
001FC000
001FC000
001FC000
001FC000
001FC000
001FC000
001FC000
001FC000
001FC000
001FC000
001FC000
000F8000
00070000
ENDCHAR
STARTCHAR Z
ENCODING 90
SWIDTH 645 0
DWIDTH 32 0
BBX 31 36 0 0
BITMAP
1FFFFFF0
3FFFFFF8
3FFFFFF8
3FFFFFF8
1FFFFFF8
00000FF8
00000FF8
00001FF0
00003FE0
00007FC0
0000FFC0
0000FF80
0001FF00
0003FE00
0007FC00
000FFC00
000FF800
001FF000
003FE000
007FC000
007F8000
00FF8000
01FF0000
03FE0000
07FC0000
07F80000
0FF80000
1FF00000
3FE00000
7FC00000
7F800000
FFFFFFFC
FFFFFFFE
FFFFFFFE
7FFFFFFE
3FFFFFFC
ENDCHAR
STARTCHAR bracketleft
ENCODING 91
SWIDTH 354 0
DWIDTH 18 0
BBX 14 45 3 -9
BITMAP
3FF8
7FFC
FFFC
FFFC
FFF8
FE00
FE00
FE00
FE00
FE00
FE00
FE00
FE00
FE00
FE00
FE00
FE00
FE00
FE00
FE00
FE00
FE00
FE00
FE00
FE00
FE00
FE00
FE00
FE00
FE00
FE00
FE00
FE00
FE00
FE00
FE00
FE00
FE00
FE00
FE00
FFF8
FFFC
FFFC
7FFC
3FF8
ENDCHAR
STARTCHAR backslash
ENCODING 92
SWIDTH 280 0
DWIDTH 14 0
BBX 12 36 1 0
BITMAP
F000
F000
F800
F800
F800
F800
7C00
7C00
7C00
7C00
3E00
3E00
3E00
3E00
1F00
1F00
1F00
1F00
0F80
0F80
0F80
0F80
07C0
07C0
07C0
07C0
03E0
03E0
03E0
03E0
01F0
01F0
01F0
01F0
00F0
00F0
ENDCHAR
STARTCHAR bracketright
ENCODING 93
SWIDTH 354 0
DWIDTH 18 0
BBX 14 45 0 -9
BITMAP
7FF0
FFF8
FFFC
FFFC
7FFC
01FC
01FC
01FC
01FC
01FC
01FC
01FC
01FC
01FC
01FC
01FC
01FC
01FC
01FC
01FC
01FC
01FC
01FC
01FC
01FC
01FC
01FC
01FC
01FC
01FC
01FC
01FC
01FC
01FC
01FC
01FC
01FC
01FC
01FC
01FC
7FFC
FFFC
FFFC
FFF8
7FF0
ENDCHAR
STARTCHAR asciicircum
ENCODING 94
SWIDTH 583 0
DWIDTH 29 0
BBX 23 19 3 17
BITMAP
007E00
00FE00
00FF00
01FF00
01FF80
03FF80
03FF80
07FFC0
07EFC0
0FEFE0
0FC7E0
1FC7F0
1F83F0
3F83F8
3F81F8
3F01FC
7F01FC
7E00FE
FE00FE
ENDCHAR
STARTCHAR underscore
ENCODING 95
SWIDTH 500 0
DWIDTH 25 0
BBX 25 3 0 -7
BITMAP
FFFFFF80
FFFFFF80
FFFFFF80
ENDCHAR
STARTCHAR grave
ENCODING 96
SWIDTH 333 0
DWIDTH 17 0
BBX 10 7 2 29
BITMAP
FE00
7F00
3F00
1F80
0F80
07C0
03C0
ENDCHAR
STARTCHAR a
ENCODING 97
SWIDTH 594 0
DWIDTH 30 0
BBX 26 26 2 0
BITMAP
00FFE000
07FFF800
0FFFFE00
1FFFFF00
3FFFFF00
7F80FF80
7F007F80
7E003F80
3C003F80
0000FF80
000FFF80
01FFFF80
0FFFFF80
1FFF3F80
7FE03F80
7F003F80
FE003F80
FE007F80
FE007F80
FF00FF80
FF83FFC0
7FFFFFC0
7FFFDFC0
3FFF0FC0
1FFE0FC0
07F00780
ENDCHAR
STARTCHAR b
ENCODING 98
SWIDTH 625 0
DWIDTH 31 0
BBX 26 36 3 0
BITMAP
38000000
7C000000
FE000000
FE000000
FE000000
FE000000
FE000000
FE000000
FE000000
FE000000
FE0FE000
FE3FF800
FE7FFC00
FEFFFE00
FFFFFF00
FFE0FF00
FFC07F80
FF803F80
FF003FC0
FF001FC0
FF001FC0
FE001FC0
FE001FC0
FE001FC0
FE001FC0
FE001FC0
FF001FC0
FF003F80
FF803F80
FF807F80
FFE1FF00
FFFFFF00
FEFFFE00
FE7FFC00
FC3FF800
780FE000
ENDCHAR
STARTCHAR c
ENCODING 99
SWIDTH 594 0
DWIDTH 30 0
BBX 26 26 2 0
BITMAP
007FC000
01FFF000
07FFFC00
0FFFFE00
1FFFFF00
3FE0FF80
3F803F80
7F801F80
7F000F80
FF000F00
FE000000
FE000000
FE000000
FE000000
FE000000
FE000700
FE000F80
7F000F80
7F801FC0
7F803F80
3FE0FF80
1FFFFF00
0FFFFE00
07FFFC00
03FFF000
007FC000
ENDCHAR
STARTCHAR d
ENCODING 100
SWIDTH 625 0
DWIDTH 31 0
BBX 26 36 2 0
BITMAP
00000780
00000FC0
00001FC0
00001FC0
00001FC0
00001FC0
00001FC0
00001FC0
00001FC0
00001FC0
01FC1FC0
07FF1FC0
0FFF9FC0
1FFFDFC0
3FFFFFC0
7FE1FFC0
7F80FFC0
7F007FC0
FF003FC0
FE003FC0
FE003FC0
FE001FC0
FE001FC0
FE001FC0
FE001FC0
FE003FC0
FE003FC0
7F003FC0
7F007FC0
7F807FC0
3FE1FFC0
3FFFFFC0
1FFFDFC0
0FFF9FC0
07FF0F80
01FC0780
ENDCHAR
STARTCHAR e
ENCODING 101
SWIDTH 594 0
DWIDTH 30 0
BBX 26 26 2 0
BITMAP
007F8000
03FFF000
07FFF800
0FFFFC00
1FFFFE00
3FE0FF00
7F807F00
7F003F80
7F001F80
FE001F80
FE001FC0
FFFFFFC0
FFFFFF80
FFFFFF80
FFFFFE00
FE000000
FE000000
7F000700
7F000F80
7F801F80
3FE07F80
1FFFFF00
0FFFFE00
07FFFC00
03FFF800
007FC000
ENDCHAR
STARTCHAR f
ENCODING 102
SWIDTH 333 0
DWIDTH 17 0
BBX 20 36 -1 0
BITMAP
003FC0
01FFE0
03FFF0
03FFF0
07FFE0
07F800
07F000
07F000
07F000
07F000
7FFF00
FFFF80
FFFF80
FFFF80
7FFF80
07F000
07F000
07F000
07F000
07F000
07F000
07F000
07F000
07F000
07F000
07F000
07F000
07F000
07F000
07F000
07F000
07F000
07F000
07F000
03E000
01C000
ENDCHAR
STARTCHAR g
ENCODING 103
SWIDTH 625 0
DWIDTH 31 0
BBX 26 36 2 -10
BITMAP
01FC0780
07FF0F80
0FFF9FC0
1FFFDFC0
3FFFFFC0
3FE1FFC0
7F807FC0
7F007FC0
FF003FC0
FE003FC0
FE001FC0
FE001FC0
FE001FC0
FE001FC0
FE001FC0
FE001FC0
FE001FC0
7F003FC0
7F003FC0
7F807FC0
3FE1FFC0
3FFFFFC0
1FFFDFC0
0FFF9FC0
07FF1FC0
01FC1FC0
00001FC0
3C003FC0
7E003F80
7F007F80
7F80FF80
7FFFFF00
3FFFFF00
1FFFFE00
07FFF800
00FFC000
ENDCHAR
STARTCHAR h
ENCODING 104
SWIDTH 604 0
DWIDTH 30 0
BBX 24 36 3 0
BITMAP
380000
7C0000
FE0000
FE0000
FE0000
FE0000
FE0000
FE0000
FE0000
FE0000
FE0FC0
FE3FF0
FEFFFC
FFFFFC
FFFFFE
FFC1FE
FF80FF
FF00FF
FF007F
FE007F
FE007F
FE007F
FE007F
FE007F
FE007F
FE007F
FE007F
FE007F
FE007F
FE007F
FE007F
FE007F
FE007F
FE007F
FC007E
78003C
ENDCHAR
STARTCHAR i
ENCODING 105
SWIDTH 270 0
DWIDTH 14 0
BBX 7 36 3 0
BITMAP
3C
FE
FE
FE
FE
7C
00
00
00
00
38
7C
FE
FE
FE
FE
FE
FE
FE
FE
FE
FE
FE
FE
FE
FE
FE
FE
FE
FE
FE
FE
FE
FE
7C
38
ENDCHAR
STARTCHAR j
ENCODING 106
SWIDTH 270 0
DWIDTH 14 0
BBX 14 46 -4 -10
BITMAP
0078
01FC
01FC
01FC
01FC
00F8
0000
0000
0000
0000
0078
00FC
01FC
01FC
01FC
01FC
01FC
01FC
01FC
01FC
01FC
01FC
01FC
01FC
01FC
01FC
01FC
01FC
01FC
01FC
01FC
01FC
01FC
01FC
01FC
01FC
01FC
01FC
01FC
01FC
03FC
7FFC
FFF8
FFF8
FFF0
3FC0
ENDCHAR
STARTCHAR k
ENCODING 107
SWIDTH 573 0
DWIDTH 29 0
BBX 23 36 4 0
BITMAP
380000
7C0000
FE0000
FE0000
FE0000
FE0000
FE0000
FE0000
FE0000
FE0000
FE0070
FE01F8
FE03F8
FE07F8
FE0FF0
FE1FF0
FE3FE0
FE7F80
FEFF00
FFFE00
FFFF00
FFFF00
FFFF80
FFFFC0
FFDFC0
FF8FE0
FF0FF0
FE07F0
FE03F8
FE03FC
FE01FC
FE01FE
FE00FE
FE007E
7C007E
38003C
ENDCHAR
STARTCHAR l
ENCODING 108
SWIDTH 270 0
DWIDTH 14 0
BBX 7 36 3 0
BITMAP
38
7C
FE
FE
FE
FE
FE
FE
FE
FE
FE
FE
FE
FE
FE
FE
FE
FE
FE
FE
FE
FE
FE
FE
FE
FE
FE
FE
FE
FE
FE
FE
FE
FE
7C
38
ENDCHAR
STARTCHAR m
ENCODING 109
SWIDTH 884 0
DWIDTH 44 0
BBX 38 26 3 0
BITMAP
781FC01F80
FC7FF07FE0
FCFFF9FFF0
FDFFFDFFF8
FFFFFFFFF8
FFC3FFC3FC
FF01FF83FC
FF00FF01FC
FF00FE01FC
FE00FE01FC
FE00FE01FC
FE00FE01FC
FE00FE01FC
FE00FE01FC
FE00FE01FC
FE00FE01FC
FE00FE01FC
FE00FE01FC
FE00FE01FC
FE00FE01FC
FE00FE01FC
FE00FE01FC
FE00FE01FC
FE00FE01FC
7C007C00F8
3800380070
ENDCHAR
STARTCHAR n
ENCODING 110
SWIDTH 604 0
DWIDTH 30 0
BBX 24 26 3 0
BITMAP
780FC0
FC3FF0
FCFFFC
FFFFFC
FFFFFE
FFC1FE
FF80FF
FF00FF
FF007F
FE007F
FE007F
FE007F
FE007F
FE007F
FE007F
FE007F
FE007F
FE007F
FE007F
FE007F
FE007F
FE007F
FE007F
FE007F
7C003E
38001C
ENDCHAR
STARTCHAR o
ENCODING 111
SWIDTH 604 0
DWIDTH 30 0
BBX 27 26 2 0
BITMAP
007FC000
01FFF000
07FFFC00
0FFFFE00
1FFFFF00
3FE0FF80
7F803F80
7F001FC0
7F001FC0
FF001FE0
FE000FE0
FE000FE0
FE000FE0
FE000FE0
FE000FE0
FE000FE0
FF001FE0
7F001FC0
7F003FC0
7F803FC0
3FE0FF80
1FFFFF00
0FFFFE00
07FFFC00
01FFF000
007FC000
ENDCHAR
STARTCHAR p
ENCODING 112
SWIDTH 625 0
DWIDTH 31 0
BBX 26 36 3 -10
BITMAP
780FC000
FC3FF800
FE7FFC00
FEFFFE00
FFFFFF00
FFE1FF00
FFC07F80
FF803F80
FF003F80
FF001FC0
FF001FC0
FE001FC0
FE001FC0
FE001FC0
FE001FC0
FF001FC0
FF001FC0
FF003F80
FF803F80
FFC07F80
FFE1FF00
FFFFFF00
FEFFFE00
FE7FFC00
FE3FF800
FE0FC000
FE000000
FE000000
FE000000
FE000000
FE000000
FE000000
FE000000
FE000000
FC000000
78000000
ENDCHAR
STARTCHAR q
ENCODING 113
SWIDTH 625 0
DWIDTH 31 0
BBX 26 36 2 -10
BITMAP
00FC0F80
07FF1FC0
0FFF9FC0
1FFFDFC0
3FFFFFC0
3FE1FFC0
7F80FFC0
7F007FC0
FF003FC0
FE003FC0
FE003FC0
FE003FC0
FE001FC0
FE001FC0
FE001FC0
FE003FC0
FE003FC0
7F003FC0
7F007FC0
7F80FFC0
3FE1FFC0
3FFFFFC0
1FFFFFC0
0FFF9FC0
07FF1FC0
00FC1FC0
00001FC0
00001FC0
00001FC0
00001FC0
00001FC0
00001FC0
00001FC0
00001FC0
00001F80
00000F80
ENDCHAR
STARTCHAR r
ENCODING 114
SWIDTH 437 0
DWIDTH 22 0
BBX 19 26 3 0
BITMAP
783F00
7C7FC0
FEFFC0
FFFFE0
FFFFC0
FFC380
FF8000
FF0000
FF0000
FE0000
FE0000
FE0000
FE0000
FE0000
FE0000
FE0000
FE0000
FE0000
FE0000
FE0000
FE0000
FE0000
FE0000
FE0000
7C0000
380000
ENDCHAR
STARTCHAR s
ENCODING 115
SWIDTH 541 0
DWIDTH 27 0
BBX 23 26 2 0
BITMAP
03FE00
0FFFC0
3FFFE0
7FFFF0
7FFFF8
FF07F8
FC03FC
FC01FC
FE00F8
FF0060
7FF800
3FFF80
1FFFE0
07FFF8
007FFC
0007FE
6001FE
F800FE
F800FE
FC00FE
FF03FC
FFFFFC
7FFFF8
3FFFF0
0FFFE0
01FF00
ENDCHAR
STARTCHAR t
ENCODING 116
SWIDTH 354 0
DWIDTH 18 0
BBX 19 36 0 0
BITMAP
038000
07C000
0FE000
0FE000
0FE000
0FE000
0FE000
0FE000
0FE000
0FE000
7FFE00
FFFF00
FFFF00
FFFF00
7FFE00
0FE000
0FE000
0FE000
0FE000
0FE000
0FE000
0FE000
0FE000
0FE000
0FE000
0FE000
0FE000
0FE000
0FE000
0FE000
0FF000
0FFFC0
07FFC0
07FFE0
03FFC0
00FF00
ENDCHAR
STARTCHAR u
ENCODING 117
SWIDTH 604 0
DWIDTH 30 0
BBX 24 26 3 0
BITMAP
38001C
FC003E
FE007F
FE007F
FE007F
FE007F
FE007F
FE007F
FE007F
FE007F
FE007F
FE007F
FE007F
FE007F
FE007F
FE007F
FE007F
FE00FF
FF00FF
FF01FF
FF83FF
7FFFFF
7FFFFF
3FFF3F
1FFC3F
07F01E
ENDCHAR
STARTCHAR v
ENCODING 118
SWIDTH 541 0
DWIDTH 27 0
BBX 24 26 2 0
BITMAP
78001E
FC001F
FC003F
FC003F
FE007F
7E007E
7F007E
3F00FC
3F00FC
3F81FC
1F81F8
1F81F8
0FC3F0
0FC3F0
0FC3E0
07E7E0
07E7E0
03E7C0
03FFC0
01FF80
01FF80
01FF80
00FF00
00FF00
007E00
003C00
ENDCHAR
STARTCHAR w
ENCODING 119
SWIDTH 812 0
DWIDTH 41 0
BBX 38 26 1 0
BITMAP
7800780078
F800FC00FC
FC01FE00FC
FC01FE00FC
FE01FE00FC
7E01FE01F8
7E03FF01F8
7E03FF01F8
3F03FF03F0
3F07FF83F0
3F07CF83F0
1F87CF87E0
1F87CF87E0
0F8F87C7E0
0F8F87C7C0
0FCF87CFC0
07DF87EF80
07DF03EF80
07FF03FF80
03FF03FF00
03FE01FF00
03FE01FF00
01FE01FE00
01FC00FE00
00FC00FC00
0078007800
ENDCHAR
STARTCHAR x
ENCODING 120
SWIDTH 520 0
DWIDTH 26 0
BBX 23 26 2 0
BITMAP
380038
7C00FC
7E00FC
7F01FC
7F83FC
3FC7F8
1FC7F0
0FEFE0
07FFC0
07FFC0
03FF80
01FF00
01FF00
03FF80
07FF80
07FFC0
0FEFE0
1FE7F0
1FC7F0
3F83F8
7F03FC
7F01FC
FE00FE
FC00FE
FC007E
78003C
ENDCHAR
STARTCHAR y
ENCODING 121
SWIDTH 541 0
DWIDTH 27 0
BBX 25 36 0 -10
BITMAP
3C000F00
7E000F80
7E001F80
7F001F80
7F003F80
3F003F00
3F803F00
3F807F00
1F807E00
1FC07E00
0FC0FC00
0FC0FC00
07E1FC00
07E1F800
07F1F800
03F3F000
03F3F000
01FBF000
01FFE000
01FFE000
00FFE000
00FFC000
007FC000
007F8000
007F8000
003F8000
007F0000
007F0000
007E0000
00FE0000
01FE0000
7FFC0000
FFFC0000
FFF80000
7FF00000
3FC00000
ENDCHAR
STARTCHAR z
ENCODING 122
SWIDTH 520 0
DWIDTH 26 0
BBX 25 26 1 0
BITMAP
3FFFFC00
7FFFFE00
7FFFFE00
7FFFFF00
3FFFFE00
0003FE00
0003FC00
0007F800
000FF000
001FE000
003FC000
007F8000
00FF0000
00FE0000
01FE0000
03FC0000
07F80000
0FF00000
1FE00000
3FC00000
7F800000
FFFFFF00
FFFFFF80
FFFFFF80
FFFFFF80
7FFFFF00
ENDCHAR
STARTCHAR braceleft
ENCODING 123
SWIDTH 384 0
DWIDTH 19 0
BBX 16 46 2 -10
BITMAP
007E
00FF
01FF
03FF
07FF
07FE
07F0
07E0
07E0
07E0
07E0
07E0
07E0
07E0
07E0
07E0
07E0
0FE0
1FC0
3FC0
7F80
FF80
FE00
FE00
FF80
7F80
3FC0
1FC0
0FE0
0FE0
07E0
07E0
07E0
07E0
07E0
07E0
07E0
07E0
07E0
07F0
07FE
07FF
03FF
01FF
00FF
007E
ENDCHAR
STARTCHAR bar
ENCODING 124
SWIDTH 280 0
DWIDTH 14 0
BBX 6 46 4 -10
BITMAP
78
FC
FC
FC
FC
FC
FC
FC
FC
FC
FC
FC
FC
FC
FC
FC
FC
FC
FC
FC
FC
FC
FC
FC
FC
FC
FC
FC
FC
FC
FC
FC
FC
FC
FC
FC
FC
FC
FC
FC
FC
FC
FC
FC
FC
78
ENDCHAR
STARTCHAR braceright
ENCODING 125
SWIDTH 384 0
DWIDTH 19 0
BBX 16 46 1 -10
BITMAP
7E00
FF00
FF80
FFC0
FFC0
7FE0
0FE0
07E0
07E0
07E0
07E0
07E0
07E0
07E0
07E0
07E0
07E0
07F0
03F8
03FC
01FE
01FF
007F
007F
01FF
01FE
03FC
03F8
07F0
07E0
07E0
07E0
07E0
07E0
07E0
07E0
07E0
07E0
07E0
0FE0
7FE0
FFE0
FFC0
FF80
FF00
7E00
ENDCHAR
STARTCHAR asciitilde
ENCODING 126
SWIDTH 583 0
DWIDTH 29 0
BBX 26 9 2 13
BITMAP
0FE00040
3FFC00C0
7FFF83C0
FFFFFFC0
FFFFFFC0
FFFFFFC0
F03FFF80
C007FF00
8000FC00
ENDCHAR
STARTCHAR nonbreakingspace
ENCODING 160
SWIDTH 250 0
DWIDTH 13 0
BBX 1 1 0 0
BITMAP
00
ENDCHAR
STARTCHAR degree
ENCODING 176
SWIDTH 395 0
DWIDTH 20 0
BBX 16 15 2 21
BITMAP
07E0
1FF8
3FFC
7FFE
7C3E
F81F
F00F
F00F
F00F
F81F
7C3E
7FFE
3FFC
1FF8
07E0
ENDCHAR
STARTCHAR plusminus
ENCODING 177
SWIDTH 583 0
DWIDTH 29 0
BBX 25 34 2 0
BITMAP
007F0000
007F0000
007F0000
007F0000
007F0000
007F0000
007F0000
007F0000
007F0000
007F0000
FFFFFF80
FFFFFF80
FFFFFF80
FFFFFF80
FFFFFF80
FFFFFF80
007F0000
007F0000
007F0000
007F0000
007F0000
007F0000
007F0000
007F0000
007F0000
007F0000
00000000
00000000
FFFFFF80
FFFFFF80
FFFFFF80
FFFFFF80
FFFFFF80
FFFFFF80
ENDCHAR
STARTCHAR twosuperior
ENCODING 178
SWIDTH 354 0
DWIDTH 18 0
BBX 15 19 2 17
BITMAP
0FE0
3FF8
7FFC
F87E
F03E
F03E
E03E
007E
00FC
01F8
07F0
0FC0
1F80
3E00
7C00
FFFE
FFFE
FFFE
FFFE
ENDCHAR
STARTCHAR threesuperior
ENCODING 179
SWIDTH 354 0
DWIDTH 18 0
BBX 16 19 1 17
BITMAP
07E0
1FF8
3FFC
7C7E
783E
703E
007C
07FC
0FF8
07FC
003E
001F
701F
F01F
F81F
7C7E
3FFC
1FF8
0FE0
ENDCHAR
STARTCHAR acute
ENCODING 180
SWIDTH 333 0
DWIDTH 17 0
BBX 10 7 5 29
BITMAP
1FC0
3F80
3F00
7E00
7C00
F800
F000
ENDCHAR
STARTCHAR mu
ENCODING 181
SWIDTH 615 0
DWIDTH 31 0
BBX 23 36 4 -10
BITMAP
FE00FE
FE00FE
FE00FE
FE00FE
FE00FE
FE00FE
FE00FE
FE00FE
FE00FE
FE00FE
FE00FE
FE00FE
FE00FE
FE00FE
FE00FE
FE00FE
FE00FE
FE01FE
FF01FE
FF83FE
FFC7FE
FFFFFE
FFFFFE
FEFF7E
FEFE7E
FE7C7E
FE0000
FE0000
FE0000
FE0000
FE0000
FE0000
FE0000
FE0000
FE0000
FE0000
ENDCHAR
STARTCHAR onesuperior
ENCODING 185
SWIDTH 354 0
DWIDTH 18 0
BBX 11 19 2 17
BITMAP
01C0
03E0
07E0
0FE0
3FE0
FFE0
FBE0
E3E0
03E0
03E0
03E0
03E0
03E0
03E0
03E0
03E0
03E0
03E0
01C0
ENDCHAR
STARTCHAR ordmasculine
ENCODING 186
SWIDTH 384 0
DWIDTH 19 0
BBX 17 16 1 20
BITMAP
07F000
1FFC00
3FFE00
7FFF00
7E3F00
FC1F80
F80F80
F80F80
F80F80
F80F80
FC1F80
7E3F00
7FFF00
3FFE00
1FFC00
07F000
ENDCHAR
STARTCHAR onequarter
ENCODING 188
SWIDTH 854 0
DWIDTH 43 0
BBX 40 37 2 -1
BITMAP
01C0000700
03E0000F00
07E0000F00
0FE0001E00
3FE0001C00
FFE0003C00
FBE0007800
E3E0007800
03E000F000
03E001E000
03E001E000
03E003C000
03E0078000
03E0078000
03E00F0000
03E00F0000
03E01E0000
03E03C0000
01C03C0070
00007800F8
0000F801F8
0000F001F8
0001E003F8
0001E007F8
0003C00F78
0007801E78
0007803C78
000F007878
001F007078
001E00FFFE
003C01FFFF
003C01FFFF
007800FFFE
00F0000078
00F0000078
01E0000078
00C0000030
ENDCHAR
STARTCHAR onehalf
ENCODING 189
SWIDTH 854 0
DWIDTH 43 0
BBX 40 37 2 -1
BITMAP
01C0000600
03E0000F00
07E0000E00
0FE0001E00
3FE0003C00
FFE0003C00
FBE0007800
E3E000F000
03E000F000
03E001E000
03E001C000
03E003C000
03E0078000
03E0078000
03E00F0000
03E01E0000
03E01E0000
03E03C0000
01C07807F0
0000781FFC
0000F03FFE
0000F07C3F
0001E0781F
0003C0781F
0003C0701F
000780003E
000F00007C
000F0001F8
001E0003F0
003C000FC0
003C001F00
0078003E00
0078007FFF
00F0007FFF
01E0007FFF
01E0007FFF
01C0000000
ENDCHAR
STARTCHAR threequarters
ENCODING 190
SWIDTH 854 0
DWIDTH 43 0
BBX 41 37 1 -1
BITMAP
07E00001C000
1FF80003C000
3FFC00038000
7C7E00078000
783E000F0000
703E000F0000
007C001E0000
07FC003C0000
0FF8003C0000
07FC00780000
003E00F00000
001F00F00000
701F01E00000
F01F01E00000
F81F03C00000
7C7E07800000
3FFC07800000
1FF80F000000
0FE01E003800
00001E007C00
00003C00FC00
00003C01FC00
00007803FC00
0000F003FC00
0000F007BC00
0001E00F3C00
0003C01E3C00
0003C03C3C00
000780783C00
000780FFFF00
000F00FFFF80
001E00FFFF80
001E007FFF00
003C00003C00
007800003C00
007800003C00
003000003800
ENDCHAR
ENDFONT
