STARTFONT 2.1
FONT -FontForge-Arial Narrow-Book-R-Normal--17-120-100-100-P-74-ISO10646-1
SIZE 12 100 100
FONTBOUNDINGBOX 13 19 0 -5
COMMENT "Generated by fontforge, http://fontforge.sourceforge.net"
COMMENT "(c) 2008 The Monotype Corporation. All Rights Reserved."
STARTPROPERTIES 40
FOUNDRY "FontForge"
FAMILY_NAME "Arial Narrow"
WEIGHT_NAME "Book"
SLANT "R"
SETWIDTH_NAME "Normal"
ADD_STYLE_NAME ""
PIXEL_SIZE 17
POINT_SIZE 120
RESOLUTION_X 100
RESOLUTION_Y 100
SPACING "P"
AVERAGE_WIDTH 74
CHARSET_REGISTRY "ISO10646"
CHARSET_ENCODING "1"
FONTNAME_REGISTRY ""
CHARSET_COLLECTIONS "ISO10646-1"
FONT_NAME "ArialNarrow"
FACE_NAME "Arial Narrow"
COPYRIGHT "(c) 2008 The Monotype Corporation. All Rights Reserved."
FONT_VERSION "2.40"
FONT_ASCENT 14
FONT_DESCENT 3
UNDERLINE_POSITION -2
UNDERLINE_THICKNESS 2
X_HEIGHT 8
CAP_HEIGHT 11
RAW_ASCENT 799
RAW_DESCENT 200
NORM_SPACE 4
RELATIVE_WEIGHT 40
RELATIVE_SETWIDTH 30
SUPERSCRIPT_X 0
SUPERSCRIPT_Y 4
SUPERSCRIPT_SIZE 11
SUBSCRIPT_X 0
SUBSCRIPT_Y 1
SUBSCRIPT_SIZE 11
FIGURE_WIDTH 8
AVG_LOWERCASE_WIDTH 68
AVG_UPPERCASE_WIDTH 94
ENDPROPERTIES
CHARS 125
STARTCHAR space
ENCODING 32
SWIDTH 228 0
DWIDTH 4 0
BBX 1 1 0 0
BITMAP
00
ENDCHAR
STARTCHAR exclam
ENCODING 33
SWIDTH 228 0
DWIDTH 4 0
BBX 1 12 1 0
BITMAP
80
80
80
80
80
80
80
80
80
00
00
80
ENDCHAR
STARTCHAR quotedbl
ENCODING 34
SWIDTH 291 0
DWIDTH 5 0
BBX 3 4 1 8
BITMAP
A0
A0
A0
A0
ENDCHAR
STARTCHAR numbersign
ENCODING 35
SWIDTH 456 0
DWIDTH 8 0
BBX 8 12 0 0
BITMAP
12
12
12
24
FF
24
24
FF
24
48
48
48
ENDCHAR
STARTCHAR dollar
ENCODING 36
SWIDTH 456 0
DWIDTH 8 0
BBX 7 15 0 -2
BITMAP
10
7C
92
92
90
50
38
14
12
92
92
54
3C
10
10
ENDCHAR
STARTCHAR percent
ENCODING 37
SWIDTH 729 0
DWIDTH 12 0
BBX 10 12 1 0
BITMAP
6100
9200
9200
9200
9400
6400
0980
0A40
1240
1240
1240
2180
ENDCHAR
STARTCHAR ampersand
ENCODING 38
SWIDTH 546 0
DWIDTH 9 0
BBX 9 12 1 0
BITMAP
3800
4400
4400
4400
3800
6000
D100
8B00
8E00
8600
8F00
7980
ENDCHAR
STARTCHAR quotesingle
ENCODING 39
SWIDTH 157 0
DWIDTH 3 0
BBX 1 4 1 8
BITMAP
80
80
80
80
ENDCHAR
STARTCHAR parenleft
ENCODING 40
SWIDTH 272 0
DWIDTH 5 0
BBX 3 15 2 -3
BITMAP
20
40
40
40
80
80
80
80
80
80
80
40
40
40
20
ENDCHAR
STARTCHAR parenright
ENCODING 41
SWIDTH 272 0
DWIDTH 5 0
BBX 3 15 0 -3
BITMAP
80
40
40
40
20
20
20
20
20
20
20
40
40
40
80
ENDCHAR
STARTCHAR asterisk
ENCODING 42
SWIDTH 318 0
DWIDTH 5 0
BBX 5 5 0 7
BITMAP
20
F8
20
50
50
ENDCHAR
STARTCHAR plus
ENCODING 43
SWIDTH 479 0
DWIDTH 8 0
BBX 7 7 0 2
BITMAP
10
10
10
FE
10
10
10
ENDCHAR
STARTCHAR comma
ENCODING 44
SWIDTH 228 0
DWIDTH 4 0
BBX 2 3 0 -2
BITMAP
40
40
80
ENDCHAR
STARTCHAR hyphen
ENCODING 45
SWIDTH 272 0
DWIDTH 5 0
BBX 4 1 0 4
BITMAP
F0
ENDCHAR
STARTCHAR period
ENCODING 46
SWIDTH 228 0
DWIDTH 4 0
BBX 1 1 1 0
BITMAP
80
ENDCHAR
STARTCHAR slash
ENCODING 47
SWIDTH 228 0
DWIDTH 4 0
BBX 4 12 0 0
BITMAP
10
10
10
20
20
20
20
40
40
40
80
80
ENDCHAR
STARTCHAR zero
ENCODING 48
SWIDTH 456 0
DWIDTH 8 0
BBX 7 12 0 0
BITMAP
38
44
82
82
82
82
82
82
82
82
44
38
ENDCHAR
STARTCHAR one
ENCODING 49
SWIDTH 456 0
DWIDTH 8 0
BBX 3 12 2 0
BITMAP
20
20
60
60
A0
20
20
20
20
20
20
20
ENDCHAR
STARTCHAR two
ENCODING 50
SWIDTH 456 0
DWIDTH 8 0
BBX 7 12 0 0
BITMAP
38
44
82
82
02
04
08
10
20
40
80
FE
ENDCHAR
STARTCHAR three
ENCODING 51
SWIDTH 456 0
DWIDTH 8 0
BBX 7 12 0 0
BITMAP
38
44
82
02
04
18
04
02
02
82
C4
38
ENDCHAR
STARTCHAR four
ENCODING 52
SWIDTH 456 0
DWIDTH 8 0
BBX 6 12 1 0
BITMAP
08
08
18
28
28
48
48
88
FC
08
08
08
ENDCHAR
STARTCHAR five
ENCODING 53
SWIDTH 456 0
DWIDTH 8 0
BBX 7 12 0 0
BITMAP
7E
40
40
80
B8
C4
02
02
02
82
84
78
ENDCHAR
STARTCHAR six
ENCODING 54
SWIDTH 456 0
DWIDTH 8 0
BBX 7 12 0 0
BITMAP
3C
42
82
80
B8
C4
82
82
82
82
44
38
ENDCHAR
STARTCHAR seven
ENCODING 55
SWIDTH 456 0
DWIDTH 8 0
BBX 7 12 0 0
BITMAP
FE
02
04
08
10
10
20
20
20
40
40
40
ENDCHAR
STARTCHAR eight
ENCODING 56
SWIDTH 456 0
DWIDTH 8 0
BBX 7 12 0 0
BITMAP
38
44
82
82
44
38
44
82
82
82
44
38
ENDCHAR
STARTCHAR nine
ENCODING 57
SWIDTH 456 0
DWIDTH 8 0
BBX 7 12 0 0
BITMAP
38
44
82
82
82
82
46
3A
02
82
84
78
ENDCHAR
STARTCHAR colon
ENCODING 58
SWIDTH 228 0
DWIDTH 4 0
BBX 1 9 1 0
BITMAP
80
00
00
00
00
00
00
00
80
ENDCHAR
STARTCHAR semicolon
ENCODING 59
SWIDTH 228 0
DWIDTH 4 0
BBX 2 11 0 -2
BITMAP
40
00
00
00
00
00
00
00
40
40
80
ENDCHAR
STARTCHAR less
ENCODING 60
SWIDTH 479 0
DWIDTH 8 0
BBX 6 9 1 2
BITMAP
04
08
30
40
80
40
30
08
04
ENDCHAR
STARTCHAR equal
ENCODING 61
SWIDTH 479 0
DWIDTH 8 0
BBX 6 4 1 3
BITMAP
FC
00
00
FC
ENDCHAR
STARTCHAR greater
ENCODING 62
SWIDTH 479 0
DWIDTH 8 0
BBX 6 9 1 2
BITMAP
80
40
30
08
04
08
30
40
80
ENDCHAR
STARTCHAR question
ENCODING 63
SWIDTH 456 0
DWIDTH 8 0
BBX 6 12 1 0
BITMAP
78
44
84
84
04
08
10
20
20
20
00
20
ENDCHAR
STARTCHAR at
ENCODING 64
SWIDTH 832 0
DWIDTH 14 0
BBX 12 15 1 -3
BITMAP
0F80
1040
2020
4E90
9190
9190
9090
9110
9110
9110
9310
4CE0
2010
1060
0F80
ENDCHAR
STARTCHAR A
ENCODING 65
SWIDTH 546 0
DWIDTH 9 0
BBX 9 12 0 0
BITMAP
0800
1400
1400
1400
2200
2200
2200
7F00
4100
4100
8080
8080
ENDCHAR
STARTCHAR B
ENCODING 66
SWIDTH 546 0
DWIDTH 9 0
BBX 7 12 1 0
BITMAP
FC
82
82
82
82
FC
82
82
82
82
82
FC
ENDCHAR
STARTCHAR C
ENCODING 67
SWIDTH 591 0
DWIDTH 10 0
BBX 8 12 1 0
BITMAP
1C
22
41
81
80
80
80
80
81
41
22
1C
ENDCHAR
STARTCHAR D
ENCODING 68
SWIDTH 591 0
DWIDTH 10 0
BBX 8 12 1 0
BITMAP
F8
84
82
81
81
81
81
81
81
82
84
F8
ENDCHAR
STARTCHAR E
ENCODING 69
SWIDTH 546 0
DWIDTH 9 0
BBX 7 12 1 0
BITMAP
FE
80
80
80
80
FE
80
80
80
80
80
FE
ENDCHAR
STARTCHAR F
ENCODING 70
SWIDTH 500 0
DWIDTH 9 0
BBX 7 12 1 0
BITMAP
FE
80
80
80
80
FC
80
80
80
80
80
80
ENDCHAR
STARTCHAR G
ENCODING 71
SWIDTH 638 0
DWIDTH 11 0
BBX 9 12 1 0
BITMAP
1E00
2100
4080
8080
8000
8000
8780
8080
8080
4080
2080
1F00
ENDCHAR
STARTCHAR H
ENCODING 72
SWIDTH 591 0
DWIDTH 10 0
BBX 8 12 1 0
BITMAP
81
81
81
81
81
FF
81
81
81
81
81
81
ENDCHAR
STARTCHAR I
ENCODING 73
SWIDTH 228 0
DWIDTH 3 0
BBX 1 12 1 0
BITMAP
80
80
80
80
80
80
80
80
80
80
80
80
ENDCHAR
STARTCHAR J
ENCODING 74
SWIDTH 410 0
DWIDTH 7 0
BBX 5 12 1 0
BITMAP
08
08
08
08
08
08
08
08
88
88
88
70
ENDCHAR
STARTCHAR K
ENCODING 75
SWIDTH 546 0
DWIDTH 9 0
BBX 8 12 1 0
BITMAP
82
82
84
88
90
B0
C8
88
84
84
82
81
ENDCHAR
STARTCHAR L
ENCODING 76
SWIDTH 456 0
DWIDTH 8 0
BBX 6 12 1 0
BITMAP
80
80
80
80
80
80
80
80
80
80
80
FC
ENDCHAR
STARTCHAR M
ENCODING 77
SWIDTH 683 0
DWIDTH 13 0
BBX 11 12 1 0
BITMAP
C060
C060
A0A0
A0A0
A0A0
9120
9120
9120
8A20
8A20
8A20
8420
ENDCHAR
STARTCHAR N
ENCODING 78
SWIDTH 591 0
DWIDTH 10 0
BBX 8 12 1 0
BITMAP
81
C1
C1
A1
91
91
89
89
85
85
83
81
ENDCHAR
STARTCHAR O
ENCODING 79
SWIDTH 638 0
DWIDTH 11 0
BBX 9 12 1 0
BITMAP
1C00
2200
4100
8080
8080
8080
8080
8080
8080
4100
2200
1C00
ENDCHAR
STARTCHAR P
ENCODING 80
SWIDTH 546 0
DWIDTH 9 0
BBX 7 12 1 0
BITMAP
FC
82
82
82
82
82
FC
80
80
80
80
80
ENDCHAR
STARTCHAR Q
ENCODING 81
SWIDTH 638 0
DWIDTH 11 0
BBX 9 13 1 -1
BITMAP
1C00
2200
4100
8080
8080
8080
8080
8080
8080
4580
2300
1D80
0080
ENDCHAR
STARTCHAR R
ENCODING 82
SWIDTH 591 0
DWIDTH 10 0
BBX 8 12 1 0
BITMAP
FC
82
82
82
82
82
FC
84
82
82
82
81
ENDCHAR
STARTCHAR S
ENCODING 83
SWIDTH 546 0
DWIDTH 9 0
BBX 7 12 1 0
BITMAP
38
44
82
82
80
70
0C
02
82
82
44
38
ENDCHAR
STARTCHAR T
ENCODING 84
SWIDTH 500 0
DWIDTH 9 0
BBX 7 12 1 0
BITMAP
FE
10
10
10
10
10
10
10
10
10
10
10
ENDCHAR
STARTCHAR U
ENCODING 85
SWIDTH 591 0
DWIDTH 10 0
BBX 8 12 1 0
BITMAP
81
81
81
81
81
81
81
81
81
42
24
18
ENDCHAR
STARTCHAR V
ENCODING 86
SWIDTH 546 0
DWIDTH 9 0
BBX 9 12 0 0
BITMAP
8080
8080
4100
4100
4100
2200
2200
2200
1400
1400
1400
0800
ENDCHAR
STARTCHAR W
ENCODING 87
SWIDTH 773 0
DWIDTH 13 0
BBX 11 12 1 0
BITMAP
8420
8A20
8A20
8A20
8A20
4A40
5140
5140
5140
5140
2080
2080
ENDCHAR
STARTCHAR X
ENCODING 88
SWIDTH 546 0
DWIDTH 9 0
BBX 9 12 0 0
BITMAP
8080
4100
2200
2200
1400
0800
0800
1400
2200
2200
4100
8080
ENDCHAR
STARTCHAR Y
ENCODING 89
SWIDTH 546 0
DWIDTH 9 0
BBX 9 12 0 0
BITMAP
8080
4100
4100
2200
1400
1400
0800
0800
0800
0800
0800
0800
ENDCHAR
STARTCHAR Z
ENCODING 90
SWIDTH 500 0
DWIDTH 9 0
BBX 8 12 0 0
BITMAP
FF
01
02
04
0C
08
10
20
20
40
80
FF
ENDCHAR
STARTCHAR bracketleft
ENCODING 91
SWIDTH 228 0
DWIDTH 4 0
BBX 2 15 1 -3
BITMAP
C0
80
80
80
80
80
80
80
80
80
80
80
80
80
C0
ENDCHAR
STARTCHAR backslash
ENCODING 92
SWIDTH 228 0
DWIDTH 4 0
BBX 4 12 0 0
BITMAP
80
80
40
40
40
40
20
20
20
20
10
10
ENDCHAR
STARTCHAR bracketright
ENCODING 93
SWIDTH 228 0
DWIDTH 4 0
BBX 2 15 1 -3
BITMAP
C0
40
40
40
40
40
40
40
40
40
40
40
40
40
C0
ENDCHAR
STARTCHAR asciicircum
ENCODING 94
SWIDTH 384 0
DWIDTH 7 0
BBX 5 7 1 5
BITMAP
20
20
50
50
50
88
88
ENDCHAR
STARTCHAR underscore
ENCODING 95
SWIDTH 456 0
DWIDTH 8 0
BBX 8 1 0 -2
BITMAP
FF
ENDCHAR
STARTCHAR grave
ENCODING 96
SWIDTH 272 0
DWIDTH 5 0
BBX 2 2 1 10
BITMAP
80
40
ENDCHAR
STARTCHAR a
ENCODING 97
SWIDTH 456 0
DWIDTH 8 0
BBX 6 9 1 0
BITMAP
70
88
84
0C
74
84
84
8C
74
ENDCHAR
STARTCHAR b
ENCODING 98
SWIDTH 456 0
DWIDTH 8 0
BBX 6 12 1 0
BITMAP
80
80
80
B0
C8
84
84
84
84
84
C8
B0
ENDCHAR
STARTCHAR c
ENCODING 99
SWIDTH 410 0
DWIDTH 7 0
BBX 6 9 0 0
BITMAP
38
44
84
80
80
80
84
44
38
ENDCHAR
STARTCHAR d
ENCODING 100
SWIDTH 456 0
DWIDTH 8 0
BBX 6 12 1 0
BITMAP
04
04
04
34
4C
84
84
84
84
84
4C
34
ENDCHAR
STARTCHAR e
ENCODING 101
SWIDTH 456 0
DWIDTH 8 0
BBX 6 9 1 0
BITMAP
30
48
84
84
FC
80
84
48
30
ENDCHAR
STARTCHAR f
ENCODING 102
SWIDTH 228 0
DWIDTH 3 0
BBX 4 12 0 0
BITMAP
70
40
40
E0
40
40
40
40
40
40
40
40
ENDCHAR
STARTCHAR g
ENCODING 103
SWIDTH 456 0
DWIDTH 8 0
BBX 6 12 1 -3
BITMAP
34
4C
84
84
84
84
84
4C
34
84
88
70
ENDCHAR
STARTCHAR h
ENCODING 104
SWIDTH 456 0
DWIDTH 8 0
BBX 6 12 1 0
BITMAP
80
80
80
B8
C4
84
84
84
84
84
84
84
ENDCHAR
STARTCHAR i
ENCODING 105
SWIDTH 182 0
DWIDTH 3 0
BBX 1 12 1 0
BITMAP
80
00
00
80
80
80
80
80
80
80
80
80
ENDCHAR
STARTCHAR j
ENCODING 106
SWIDTH 182 0
DWIDTH 3 0
BBX 2 15 0 -3
BITMAP
40
00
00
40
40
40
40
40
40
40
40
40
40
40
C0
ENDCHAR
STARTCHAR k
ENCODING 107
SWIDTH 410 0
DWIDTH 7 0
BBX 5 12 1 0
BITMAP
80
80
80
88
90
A0
A0
E0
90
90
88
88
ENDCHAR
STARTCHAR l
ENCODING 108
SWIDTH 182 0
DWIDTH 3 0
BBX 1 12 1 0
BITMAP
80
80
80
80
80
80
80
80
80
80
80
80
ENDCHAR
STARTCHAR m
ENCODING 109
SWIDTH 683 0
DWIDTH 13 0
BBX 9 9 2 0
BITMAP
B300
CC80
8880
8880
8880
8880
8880
8880
8880
ENDCHAR
STARTCHAR n
ENCODING 110
SWIDTH 456 0
DWIDTH 8 0
BBX 6 9 1 0
BITMAP
B8
C4
84
84
84
84
84
84
84
ENDCHAR
STARTCHAR o
ENCODING 111
SWIDTH 456 0
DWIDTH 8 0
BBX 6 9 1 0
BITMAP
30
48
84
84
84
84
84
48
30
ENDCHAR
STARTCHAR p
ENCODING 112
SWIDTH 456 0
DWIDTH 8 0
BBX 6 12 1 -3
BITMAP
B0
C8
84
84
84
84
84
C8
B0
80
80
80
ENDCHAR
STARTCHAR q
ENCODING 113
SWIDTH 456 0
DWIDTH 8 0
BBX 6 12 1 -3
BITMAP
34
4C
84
84
84
84
84
4C
34
04
04
04
ENDCHAR
STARTCHAR r
ENCODING 114
SWIDTH 272 0
DWIDTH 5 0
BBX 4 9 1 0
BITMAP
B0
D0
80
80
80
80
80
80
80
ENDCHAR
STARTCHAR s
ENCODING 115
SWIDTH 410 0
DWIDTH 7 0
BBX 6 9 0 0
BITMAP
78
84
84
60
18
04
84
84
78
ENDCHAR
STARTCHAR t
ENCODING 116
SWIDTH 228 0
DWIDTH 3 0
BBX 3 12 0 0
BITMAP
40
40
40
E0
40
40
40
40
40
40
40
60
ENDCHAR
STARTCHAR u
ENCODING 117
SWIDTH 456 0
DWIDTH 8 0
BBX 6 9 1 0
BITMAP
84
84
84
84
84
84
84
8C
74
ENDCHAR
STARTCHAR v
ENCODING 118
SWIDTH 410 0
DWIDTH 7 0
BBX 7 9 0 0
BITMAP
82
82
44
44
44
28
28
28
10
ENDCHAR
STARTCHAR w
ENCODING 119
SWIDTH 591 0
DWIDTH 9 0
BBX 9 9 0 0
BITMAP
8880
8880
5500
5500
5500
5500
5500
2200
2200
ENDCHAR
STARTCHAR x
ENCODING 120
SWIDTH 410 0
DWIDTH 7 0
BBX 7 9 0 0
BITMAP
82
44
28
28
10
28
28
44
82
ENDCHAR
STARTCHAR y
ENCODING 121
SWIDTH 410 0
DWIDTH 7 0
BBX 7 12 0 -3
BITMAP
82
82
44
44
44
28
28
28
10
10
10
60
ENDCHAR
STARTCHAR z
ENCODING 122
SWIDTH 410 0
DWIDTH 7 0
BBX 6 9 0 0
BITMAP
FC
04
08
10
20
20
40
80
FC
ENDCHAR
STARTCHAR braceleft
ENCODING 123
SWIDTH 273 0
DWIDTH 5 0
BBX 3 15 1 -3
BITMAP
60
40
40
40
40
40
40
80
40
40
40
40
40
40
60
ENDCHAR
STARTCHAR bar
ENCODING 124
SWIDTH 212 0
DWIDTH 4 0
BBX 1 16 1 -4
BITMAP
80
80
80
80
80
80
80
80
80
80
80
80
80
80
80
80
ENDCHAR
STARTCHAR braceright
ENCODING 125
SWIDTH 273 0
DWIDTH 5 0
BBX 3 15 1 -3
BITMAP
C0
40
40
40
40
40
40
20
40
40
40
40
40
40
C0
ENDCHAR
STARTCHAR asciitilde
ENCODING 126
SWIDTH 479 0
DWIDTH 8 0
BBX 7 2 0 5
BITMAP
F2
9E
ENDCHAR
STARTCHAR exclamdown
ENCODING 161
SWIDTH 272 0
DWIDTH 5 0
BBX 1 12 2 -3
BITMAP
80
00
00
80
80
80
80
80
80
80
80
80
ENDCHAR
STARTCHAR cent
ENCODING 162
SWIDTH 456 0
DWIDTH 8 0
BBX 6 15 1 -3
BITMAP
08
08
08
38
5C
94
90
90
A0
A4
68
30
40
40
40
ENDCHAR
STARTCHAR sterling
ENCODING 163
SWIDTH 456 0
DWIDTH 8 0
BBX 7 12 0 0
BITMAP
3C
42
42
40
40
40
F8
20
20
40
F0
8E
ENDCHAR
STARTCHAR currency
ENCODING 164
SWIDTH 456 0
DWIDTH 8 0
BBX 6 7 1 3
BITMAP
B4
48
84
84
84
48
B4
ENDCHAR
STARTCHAR yen
ENCODING 165
SWIDTH 456 0
DWIDTH 8 0
BBX 7 12 0 0
BITMAP
82
44
44
28
28
28
FE
10
FE
10
10
10
ENDCHAR
STARTCHAR brokenbar
ENCODING 166
SWIDTH 212 0
DWIDTH 4 0
BBX 1 17 1 -5
BITMAP
80
80
80
80
80
80
80
00
00
00
80
80
80
80
80
80
80
ENDCHAR
STARTCHAR section
ENCODING 167
SWIDTH 456 0
DWIDTH 8 0
BBX 7 16 0 -4
BITMAP
3C
42
42
40
20
50
88
84
C2
22
1C
04
02
82
42
3C
ENDCHAR
STARTCHAR dieresis
ENCODING 168
SWIDTH 272 0
DWIDTH 5 0
BBX 3 1 1 11
BITMAP
A0
ENDCHAR
STARTCHAR copyright
ENCODING 169
SWIDTH 604 0
DWIDTH 10 0
BBX 10 12 0 0
BITMAP
1E00
2100
4080
8C40
9240
9040
9040
9240
8C40
4080
2100
1E00
ENDCHAR
STARTCHAR ordfeminine
ENCODING 170
SWIDTH 303 0
DWIDTH 5 0
BBX 4 6 0 6
BITMAP
F0
10
70
90
90
F0
ENDCHAR
STARTCHAR guillemotleft
ENCODING 171
SWIDTH 456 0
DWIDTH 8 0
BBX 5 7 1 1
BITMAP
28
50
50
A0
50
50
28
ENDCHAR
STARTCHAR logicalnot
ENCODING 172
SWIDTH 479 0
DWIDTH 8 0
BBX 6 5 1 4
BITMAP
FC
04
04
04
04
ENDCHAR
STARTCHAR hyphen.dup1
ENCODING 173
SWIDTH 272 0
DWIDTH 5 0
BBX 4 1 0 4
BITMAP
F0
ENDCHAR
STARTCHAR registered
ENCODING 174
SWIDTH 604 0
DWIDTH 10 0
BBX 10 12 0 0
BITMAP
1E00
2100
4080
9C40
9240
9240
9E40
9240
9240
4080
2100
1E00
ENDCHAR
STARTCHAR overscore
ENCODING 175
SWIDTH 500 0
DWIDTH 9 0
BBX 9 1 0 13
BITMAP
FF80
ENDCHAR
STARTCHAR degree
ENCODING 176
SWIDTH 399 0
DWIDTH 7 0
BBX 5 5 1 8
BITMAP
70
88
88
88
70
ENDCHAR
STARTCHAR plusminus
ENCODING 177
SWIDTH 548 0
DWIDTH 9 0
BBX 7 9 1 0
BITMAP
10
10
10
FE
10
10
10
00
FE
ENDCHAR
STARTCHAR twosuperior
ENCODING 178
SWIDTH 272 0
DWIDTH 5 0
BBX 5 6 0 6
BITMAP
70
88
08
30
40
F8
ENDCHAR
STARTCHAR threesuperior
ENCODING 179
SWIDTH 272 0
DWIDTH 5 0
BBX 5 6 0 6
BITMAP
F8
08
30
08
88
70
ENDCHAR
STARTCHAR acute
ENCODING 180
SWIDTH 272 0
DWIDTH 5 0
BBX 2 2 1 10
BITMAP
40
80
ENDCHAR
STARTCHAR mu1
ENCODING 181
SWIDTH 576 0
DWIDTH 10 0
BBX 7 12 1 -3
BITMAP
82
82
82
82
82
82
82
C6
BA
80
80
80
ENDCHAR
STARTCHAR paragraph
ENCODING 182
SWIDTH 439 0
DWIDTH 8 0
BBX 8 16 0 -4
BITMAP
7F
F2
F2
F2
F2
F2
72
12
12
12
12
12
12
12
12
12
ENDCHAR
STARTCHAR middot
ENCODING 183
SWIDTH 271 0
DWIDTH 5 0
BBX 1 1 2 5
BITMAP
80
ENDCHAR
STARTCHAR cedilla
ENCODING 184
SWIDTH 272 0
DWIDTH 5 0
BBX 3 3 0 -3
BITMAP
40
20
E0
ENDCHAR
STARTCHAR onesuperior
ENCODING 185
SWIDTH 272 0
DWIDTH 5 0
BBX 3 6 0 6
BITMAP
20
60
A0
20
20
20
ENDCHAR
STARTCHAR ordmasculine
ENCODING 186
SWIDTH 298 0
DWIDTH 5 0
BBX 4 6 0 6
BITMAP
60
90
90
90
90
60
ENDCHAR
STARTCHAR guillemotright
ENCODING 187
SWIDTH 456 0
DWIDTH 8 0
BBX 5 7 1 1
BITMAP
A0
50
50
28
50
50
A0
ENDCHAR
STARTCHAR onequarter
ENCODING 188
SWIDTH 684 0
DWIDTH 12 0
BBX 10 12 1 0
BITMAP
4080
C100
4100
4200
4400
4400
0840
08C0
1140
2340
23C0
4040
ENDCHAR
STARTCHAR onehalf
ENCODING 189
SWIDTH 684 0
DWIDTH 12 0
BBX 10 12 1 0
BITMAP
4080
C100
4200
4200
4400
4400
09C0
1240
1040
20C0
2100
43C0
ENDCHAR
STARTCHAR threequarters
ENCODING 190
SWIDTH 684 0
DWIDTH 12 0
BBX 11 12 0 0
BITMAP
7040
1080
2080
1100
9200
7200
0420
0460
08A0
11A0
11E0
2020
ENDCHAR
ENDFONT
