STARTFONT 2.1
FONT -FontForge-Arial Narrow-Book-R-Normal--19-180-75-75-P-81-ISO10646-1
SIZE 18 75 75
FONTBOUNDINGBOX 15 20 0 -4
COMMENT "Generated by fontforge, http://fontforge.sourceforge.net"
COMMENT "(c) 2008 The Monotype Corporation. All Rights Reserved."
STARTPROPERTIES 40
FOUNDRY "FontForge"
FAMILY_NAME "Arial Narrow"
WEIGHT_NAME "Book"
SLANT "R"
SETWIDTH_NAME "Normal"
ADD_STYLE_NAME ""
PIXEL_SIZE 19
POINT_SIZE 180
RESOLUTION_X 75
RESOLUTION_Y 75
SPACING "P"
AVERAGE_WIDTH 81
CHARSET_REGISTRY "ISO10646"
CHARSET_ENCODING "1"
FONTNAME_REGISTRY ""
CHARSET_COLLECTIONS "ISO10646-1"
FONT_NAME "ArialNarrow"
FACE_NAME "Arial Narrow"
COPYRIGHT "(c) 2008 The Monotype Corporation. All Rights Reserved."
FONT_VERSION "2.40"
FONT_ASCENT 15
FONT_DESCENT 4
UNDERLINE_POSITION -3
UNDERLINE_THICKNESS 2
X_HEIGHT 9
CAP_HEIGHT 13
RAW_ASCENT 799
RAW_DESCENT 200
NORM_SPACE 4
RELATIVE_WEIGHT 40
RELATIVE_SETWIDTH 30
SUPERSCRIPT_X 0
SUPERSCRIPT_Y 4
SUPERSCRIPT_SIZE 12
SUBSCRIPT_X 0
SUBSCRIPT_Y 1
SUBSCRIPT_SIZE 12
FIGURE_WIDTH 9
AVG_LOWERCASE_WIDTH 75
AVG_UPPERCASE_WIDTH 103
ENDPROPERTIES
CHARS 125
STARTCHAR space
ENCODING 32
SWIDTH 228 0
DWIDTH 4 0
BBX 1 1 0 0
BITMAP
00
ENDCHAR
STARTCHAR exclam
ENCODING 33
SWIDTH 228 0
DWIDTH 4 0
BBX 1 14 1 0
BITMAP
80
80
80
80
80
80
80
80
80
80
00
00
00
80
ENDCHAR
STARTCHAR quotedbl
ENCODING 34
SWIDTH 291 0
DWIDTH 6 0
BBX 3 5 1 9
BITMAP
A0
A0
A0
A0
A0
ENDCHAR
STARTCHAR numbersign
ENCODING 35
SWIDTH 456 0
DWIDTH 8 0
BBX 8 14 0 0
BITMAP
12
12
12
24
FF
24
24
24
24
FF
24
48
48
48
ENDCHAR
STARTCHAR dollar
ENCODING 36
SWIDTH 456 0
DWIDTH 9 0
BBX 7 17 1 -2
BITMAP
10
7C
56
92
90
90
D0
70
1C
16
12
92
92
54
38
10
10
ENDCHAR
STARTCHAR percent
ENCODING 37
SWIDTH 729 0
DWIDTH 12 0
BBX 10 14 1 0
BITMAP
6100
9100
9200
9200
9400
9400
6400
0980
0A40
0A40
1240
1240
1240
2180
ENDCHAR
STARTCHAR ampersand
ENCODING 38
SWIDTH 546 0
DWIDTH 10 0
BBX 10 14 1 0
BITMAP
3C00
6600
4200
4200
4600
3C00
7000
D080
8980
8700
8300
8200
4780
3CC0
ENDCHAR
STARTCHAR quotesingle
ENCODING 39
SWIDTH 157 0
DWIDTH 3 0
BBX 1 5 1 9
BITMAP
80
80
80
80
80
ENDCHAR
STARTCHAR parenleft
ENCODING 40
SWIDTH 272 0
DWIDTH 5 0
BBX 3 18 2 -4
BITMAP
20
40
40
40
80
80
80
80
80
80
80
80
80
C0
40
40
40
20
ENDCHAR
STARTCHAR parenright
ENCODING 41
SWIDTH 272 0
DWIDTH 5 0
BBX 3 18 0 -4
BITMAP
80
40
40
40
20
20
20
20
20
20
20
20
20
60
40
40
40
80
ENDCHAR
STARTCHAR asterisk
ENCODING 42
SWIDTH 318 0
DWIDTH 6 0
BBX 5 5 0 9
BITMAP
20
F8
20
50
50
ENDCHAR
STARTCHAR plus
ENCODING 43
SWIDTH 479 0
DWIDTH 9 0
BBX 9 7 1 2
BITMAP
0800
0800
0800
FF80
0800
0800
0800
ENDCHAR
STARTCHAR comma
ENCODING 44
SWIDTH 228 0
DWIDTH 4 0
BBX 2 4 0 -3
BITMAP
40
40
40
80
ENDCHAR
STARTCHAR hyphen
ENCODING 45
SWIDTH 272 0
DWIDTH 5 0
BBX 4 1 0 4
BITMAP
F0
ENDCHAR
STARTCHAR period
ENCODING 46
SWIDTH 228 0
DWIDTH 4 0
BBX 1 1 1 0
BITMAP
80
ENDCHAR
STARTCHAR slash
ENCODING 47
SWIDTH 228 0
DWIDTH 4 0
BBX 4 14 0 0
BITMAP
10
10
10
10
20
20
20
20
40
40
40
40
40
80
ENDCHAR
STARTCHAR zero
ENCODING 48
SWIDTH 456 0
DWIDTH 9 0
BBX 8 15 0 0
BITMAP
3C
66
42
81
81
81
81
81
81
81
81
81
42
66
3C
ENDCHAR
STARTCHAR one
ENCODING 49
SWIDTH 456 0
DWIDTH 9 0
BBX 4 15 1 0
BITMAP
10
10
30
50
90
10
10
10
10
10
10
10
10
10
10
ENDCHAR
STARTCHAR two
ENCODING 50
SWIDTH 456 0
DWIDTH 9 0
BBX 8 15 0 0
BITMAP
3C
42
81
81
01
01
02
06
04
08
10
20
40
80
FF
ENDCHAR
STARTCHAR three
ENCODING 51
SWIDTH 456 0
DWIDTH 9 0
BBX 8 15 0 0
BITMAP
3C
42
81
01
01
01
02
1E
03
01
01
81
81
42
3C
ENDCHAR
STARTCHAR four
ENCODING 52
SWIDTH 456 0
DWIDTH 9 0
BBX 8 15 0 0
BITMAP
04
04
0C
0C
14
14
24
44
44
84
FF
04
04
04
04
ENDCHAR
STARTCHAR five
ENCODING 53
SWIDTH 456 0
DWIDTH 9 0
BBX 8 15 0 0
BITMAP
7F
40
40
40
80
FC
C6
83
01
01
01
81
82
46
3C
ENDCHAR
STARTCHAR six
ENCODING 54
SWIDTH 456 0
DWIDTH 9 0
BBX 8 15 0 0
BITMAP
1C
62
41
80
80
80
BC
C2
81
81
81
81
41
62
3C
ENDCHAR
STARTCHAR seven
ENCODING 55
SWIDTH 456 0
DWIDTH 9 0
BBX 8 15 0 0
BITMAP
FF
01
02
06
04
0C
08
08
10
10
10
20
20
20
20
ENDCHAR
STARTCHAR eight
ENCODING 56
SWIDTH 456 0
DWIDTH 9 0
BBX 8 15 0 0
BITMAP
3C
42
81
81
81
81
43
7E
C3
81
81
81
81
42
3C
ENDCHAR
STARTCHAR nine
ENCODING 57
SWIDTH 456 0
DWIDTH 9 0
BBX 8 15 0 0
BITMAP
3C
62
C2
81
81
81
81
43
3D
01
01
02
82
46
38
ENDCHAR
STARTCHAR colon
ENCODING 58
SWIDTH 228 0
DWIDTH 4 0
BBX 1 10 1 0
BITMAP
80
00
00
00
00
00
00
00
00
80
ENDCHAR
STARTCHAR semicolon
ENCODING 59
SWIDTH 228 0
DWIDTH 4 0
BBX 2 13 0 -3
BITMAP
40
00
00
00
00
00
00
00
00
40
40
40
80
ENDCHAR
STARTCHAR less
ENCODING 60
SWIDTH 479 0
DWIDTH 9 0
BBX 7 9 1 2
BITMAP
02
0C
10
60
80
60
10
0C
02
ENDCHAR
STARTCHAR equal
ENCODING 61
SWIDTH 479 0
DWIDTH 9 0
BBX 7 5 1 4
BITMAP
FE
00
00
00
FE
ENDCHAR
STARTCHAR greater
ENCODING 62
SWIDTH 479 0
DWIDTH 9 0
BBX 7 9 1 2
BITMAP
80
60
10
0C
02
0C
10
60
80
ENDCHAR
STARTCHAR question
ENCODING 63
SWIDTH 456 0
DWIDTH 9 0
BBX 7 14 0 0
BITMAP
38
44
82
82
02
02
04
0C
08
10
10
10
00
10
ENDCHAR
STARTCHAR at
ENCODING 64
SWIDTH 832 0
DWIDTH 16 0
BBX 14 18 1 -4
BITMAP
07C0
1830
3018
2008
474C
4CC4
8844
9044
9044
9044
9088
9088
8990
4E60
4004
2008
1830
0FC0
ENDCHAR
STARTCHAR A
ENCODING 65
SWIDTH 546 0
DWIDTH 10 0
BBX 11 14 0 0
BITMAP
0400
0A00
0A00
0A00
1100
1100
1100
2080
3F80
2080
4040
4040
4040
8020
ENDCHAR
STARTCHAR B
ENCODING 66
SWIDTH 546 0
DWIDTH 10 0
BBX 8 14 1 0
BITMAP
FC
82
81
81
81
83
FE
83
81
81
81
81
82
FC
ENDCHAR
STARTCHAR C
ENCODING 67
SWIDTH 591 0
DWIDTH 11 0
BBX 9 14 1 0
BITMAP
1E00
2100
4080
4080
8000
8000
8000
8000
8000
8080
4080
4080
2100
1E00
ENDCHAR
STARTCHAR D
ENCODING 68
SWIDTH 591 0
DWIDTH 11 0
BBX 9 14 1 0
BITMAP
FC00
8300
8100
8080
8080
8080
8080
8080
8080
8080
8180
8100
8200
FC00
ENDCHAR
STARTCHAR E
ENCODING 69
SWIDTH 546 0
DWIDTH 10 0
BBX 8 14 1 0
BITMAP
FF
80
80
80
80
80
FF
80
80
80
80
80
80
FF
ENDCHAR
STARTCHAR F
ENCODING 70
SWIDTH 500 0
DWIDTH 10 0
BBX 8 14 1 0
BITMAP
FF
80
80
80
80
80
FE
80
80
80
80
80
80
80
ENDCHAR
STARTCHAR G
ENCODING 71
SWIDTH 638 0
DWIDTH 12 0
BBX 10 14 1 0
BITMAP
1F00
2080
4040
4040
8000
8000
8000
87C0
8040
8040
4040
4040
21C0
1F00
ENDCHAR
STARTCHAR H
ENCODING 72
SWIDTH 591 0
DWIDTH 11 0
BBX 9 14 1 0
BITMAP
8080
8080
8080
8080
8080
8080
FF80
8080
8080
8080
8080
8080
8080
8080
ENDCHAR
STARTCHAR I
ENCODING 73
SWIDTH 228 0
DWIDTH 3 0
BBX 1 14 1 0
BITMAP
80
80
80
80
80
80
80
80
80
80
80
80
80
80
ENDCHAR
STARTCHAR J
ENCODING 74
SWIDTH 410 0
DWIDTH 8 0
BBX 6 14 1 0
BITMAP
04
04
04
04
04
04
04
04
04
04
84
84
84
78
ENDCHAR
STARTCHAR K
ENCODING 75
SWIDTH 546 0
DWIDTH 10 0
BBX 9 14 1 0
BITMAP
8100
8100
8200
8400
8800
9000
B000
C800
C400
8400
8200
8200
8100
8080
ENDCHAR
STARTCHAR L
ENCODING 76
SWIDTH 456 0
DWIDTH 9 0
BBX 7 14 1 0
BITMAP
80
80
80
80
80
80
80
80
80
80
80
80
80
FE
ENDCHAR
STARTCHAR M
ENCODING 77
SWIDTH 683 0
DWIDTH 13 0
BBX 11 14 1 0
BITMAP
C060
C060
A060
A0A0
A0A0
90A0
9120
9120
9120
8A20
8A20
8A20
8420
8420
ENDCHAR
STARTCHAR N
ENCODING 78
SWIDTH 591 0
DWIDTH 11 0
BBX 9 14 1 0
BITMAP
8080
C080
A080
A080
9080
9080
8880
8880
8480
8480
8280
8280
8180
8080
ENDCHAR
STARTCHAR O
ENCODING 79
SWIDTH 638 0
DWIDTH 12 0
BBX 10 14 1 0
BITMAP
1E00
2100
4080
4080
8040
8040
8040
8040
8040
8040
4080
4080
2100
1E00
ENDCHAR
STARTCHAR P
ENCODING 80
SWIDTH 546 0
DWIDTH 10 0
BBX 8 14 1 0
BITMAP
FC
82
81
81
81
81
82
FC
80
80
80
80
80
80
ENDCHAR
STARTCHAR Q
ENCODING 81
SWIDTH 638 0
DWIDTH 12 0
BBX 10 15 1 -1
BITMAP
1E00
2100
4080
4080
8040
8040
8040
8040
8040
8040
44C0
4680
2380
1EC0
0040
ENDCHAR
STARTCHAR R
ENCODING 82
SWIDTH 591 0
DWIDTH 11 0
BBX 10 14 1 0
BITMAP
FF00
8100
8080
8080
8080
8080
8100
FE00
8200
8300
8100
8080
8080
8040
ENDCHAR
STARTCHAR S
ENCODING 83
SWIDTH 546 0
DWIDTH 10 0
BBX 8 14 1 0
BITMAP
3C
42
81
81
80
40
30
0C
02
01
81
81
42
3C
ENDCHAR
STARTCHAR T
ENCODING 84
SWIDTH 500 0
DWIDTH 9 0
BBX 9 14 0 0
BITMAP
FF80
0800
0800
0800
0800
0800
0800
0800
0800
0800
0800
0800
0800
0800
ENDCHAR
STARTCHAR U
ENCODING 85
SWIDTH 591 0
DWIDTH 11 0
BBX 9 14 1 0
BITMAP
8080
8080
8080
8080
8080
8080
8080
8080
8080
8080
8080
8080
4100
3E00
ENDCHAR
STARTCHAR V
ENCODING 86
SWIDTH 546 0
DWIDTH 11 0
BBX 11 14 0 0
BITMAP
8020
4040
4040
4040
2080
2080
2080
1100
1100
1100
0A00
0A00
0A00
0400
ENDCHAR
STARTCHAR W
ENCODING 87
SWIDTH 773 0
DWIDTH 15 0
BBX 13 14 1 0
BITMAP
8208
8208
8508
8508
8508
4890
4890
4890
48D0
5050
5050
5050
2020
2020
ENDCHAR
STARTCHAR X
ENCODING 88
SWIDTH 546 0
DWIDTH 10 0
BBX 10 14 0 0
BITMAP
8040
4080
2100
2100
1200
0C00
0C00
0C00
0C00
1200
2100
2100
4080
8040
ENDCHAR
STARTCHAR Y
ENCODING 89
SWIDTH 546 0
DWIDTH 9 0
BBX 9 14 0 0
BITMAP
8080
4100
4100
2200
2200
1400
1400
0800
0800
0800
0800
0800
0800
0800
ENDCHAR
STARTCHAR Z
ENCODING 90
SWIDTH 500 0
DWIDTH 10 0
BBX 9 14 0 0
BITMAP
FF80
0080
0100
0200
0200
0400
0800
0800
1000
2000
2000
4000
8000
FF80
ENDCHAR
STARTCHAR bracketleft
ENCODING 91
SWIDTH 228 0
DWIDTH 4 0
BBX 3 18 1 -4
BITMAP
E0
80
80
80
80
80
80
80
80
80
80
80
80
80
80
80
80
E0
ENDCHAR
STARTCHAR backslash
ENCODING 92
SWIDTH 228 0
DWIDTH 4 0
BBX 4 14 0 0
BITMAP
80
80
40
40
40
40
40
20
20
20
20
20
10
10
ENDCHAR
STARTCHAR bracketright
ENCODING 93
SWIDTH 228 0
DWIDTH 4 0
BBX 3 18 0 -4
BITMAP
E0
20
20
20
20
20
20
20
20
20
20
20
20
20
20
20
20
E0
ENDCHAR
STARTCHAR asciicircum
ENCODING 94
SWIDTH 384 0
DWIDTH 7 0
BBX 7 7 0 7
BITMAP
10
10
28
28
44
44
82
ENDCHAR
STARTCHAR underscore
ENCODING 95
SWIDTH 456 0
DWIDTH 9 0
BBX 9 1 0 -2
BITMAP
FF80
ENDCHAR
STARTCHAR grave
ENCODING 96
SWIDTH 272 0
DWIDTH 5 0
BBX 2 3 1 11
BITMAP
80
40
40
ENDCHAR
STARTCHAR a
ENCODING 97
SWIDTH 456 0
DWIDTH 9 0
BBX 7 10 1 0
BITMAP
3C
42
82
06
3A
C2
82
86
C6
7A
ENDCHAR
STARTCHAR b
ENCODING 98
SWIDTH 456 0
DWIDTH 9 0
BBX 7 14 1 0
BITMAP
80
80
80
80
B8
C4
82
82
82
82
82
82
C4
B8
ENDCHAR
STARTCHAR c
ENCODING 99
SWIDTH 410 0
DWIDTH 8 0
BBX 7 10 0 0
BITMAP
3C
44
82
80
80
80
82
82
44
38
ENDCHAR
STARTCHAR d
ENCODING 100
SWIDTH 456 0
DWIDTH 9 0
BBX 7 14 1 0
BITMAP
02
02
02
02
3A
46
82
82
82
82
82
82
46
3A
ENDCHAR
STARTCHAR e
ENCODING 101
SWIDTH 456 0
DWIDTH 9 0
BBX 7 10 1 0
BITMAP
38
44
82
82
FE
80
80
82
44
38
ENDCHAR
STARTCHAR f
ENCODING 102
SWIDTH 228 0
DWIDTH 3 0
BBX 5 14 0 0
BITMAP
38
40
40
40
F0
40
40
40
40
40
40
40
40
40
ENDCHAR
STARTCHAR g
ENCODING 103
SWIDTH 456 0
DWIDTH 9 0
BBX 7 14 1 -4
BITMAP
3A
46
82
82
82
82
82
82
46
3A
02
82
84
78
ENDCHAR
STARTCHAR h
ENCODING 104
SWIDTH 456 0
DWIDTH 9 0
BBX 7 14 1 0
BITMAP
80
80
80
80
BC
C6
82
82
82
82
82
82
82
82
ENDCHAR
STARTCHAR i
ENCODING 105
SWIDTH 182 0
DWIDTH 3 0
BBX 1 14 1 0
BITMAP
80
00
00
00
80
80
80
80
80
80
80
80
80
80
ENDCHAR
STARTCHAR j
ENCODING 106
SWIDTH 182 0
DWIDTH 3 0
BBX 2 18 0 -4
BITMAP
40
00
00
00
40
40
40
40
40
40
40
40
40
40
40
40
40
C0
ENDCHAR
STARTCHAR k
ENCODING 107
SWIDTH 410 0
DWIDTH 8 0
BBX 6 14 1 0
BITMAP
80
80
80
80
84
88
90
A0
E0
90
88
88
84
84
ENDCHAR
STARTCHAR l
ENCODING 108
SWIDTH 182 0
DWIDTH 3 0
BBX 1 14 1 0
BITMAP
80
80
80
80
80
80
80
80
80
80
80
80
80
80
ENDCHAR
STARTCHAR m
ENCODING 109
SWIDTH 683 0
DWIDTH 13 0
BBX 11 10 1 0
BITMAP
B9C0
C620
8420
8420
8420
8420
8420
8420
8420
8420
ENDCHAR
STARTCHAR n
ENCODING 110
SWIDTH 456 0
DWIDTH 9 0
BBX 7 10 1 0
BITMAP
BC
C6
82
82
82
82
82
82
82
82
ENDCHAR
STARTCHAR o
ENCODING 111
SWIDTH 456 0
DWIDTH 9 0
BBX 7 10 1 0
BITMAP
38
44
82
82
82
82
82
82
44
38
ENDCHAR
STARTCHAR p
ENCODING 112
SWIDTH 456 0
DWIDTH 9 0
BBX 7 14 1 -4
BITMAP
B8
C4
82
82
82
82
82
82
C4
B8
80
80
80
80
ENDCHAR
STARTCHAR q
ENCODING 113
SWIDTH 456 0
DWIDTH 9 0
BBX 7 14 1 -4
BITMAP
3A
46
82
82
82
82
82
82
46
3A
02
02
02
02
ENDCHAR
STARTCHAR r
ENCODING 114
SWIDTH 272 0
DWIDTH 5 0
BBX 4 10 1 0
BITMAP
B0
D0
80
80
80
80
80
80
80
80
ENDCHAR
STARTCHAR s
ENCODING 115
SWIDTH 410 0
DWIDTH 8 0
BBX 6 10 1 0
BITMAP
78
84
84
80
60
18
04
84
84
78
ENDCHAR
STARTCHAR t
ENCODING 116
SWIDTH 228 0
DWIDTH 3 0
BBX 3 13 0 0
BITMAP
40
40
40
E0
40
40
40
40
40
40
40
40
60
ENDCHAR
STARTCHAR u
ENCODING 117
SWIDTH 456 0
DWIDTH 9 0
BBX 7 10 1 0
BITMAP
82
82
82
82
82
82
82
82
C6
7A
ENDCHAR
STARTCHAR v
ENCODING 118
SWIDTH 410 0
DWIDTH 7 0
BBX 7 10 0 0
BITMAP
82
82
44
44
44
28
28
28
28
10
ENDCHAR
STARTCHAR w
ENCODING 119
SWIDTH 591 0
DWIDTH 11 0
BBX 11 10 0 0
BITMAP
8420
8420
4A40
4A40
4A40
2A80
2A80
2A80
1100
1100
ENDCHAR
STARTCHAR x
ENCODING 120
SWIDTH 410 0
DWIDTH 8 0
BBX 7 10 0 0
BITMAP
82
44
44
28
10
10
28
44
44
82
ENDCHAR
STARTCHAR y
ENCODING 121
SWIDTH 410 0
DWIDTH 7 0
BBX 7 14 0 -4
BITMAP
82
82
44
44
44
28
28
28
28
10
10
10
20
C0
ENDCHAR
STARTCHAR z
ENCODING 122
SWIDTH 410 0
DWIDTH 8 0
BBX 7 10 0 0
BITMAP
FE
02
04
08
10
10
20
40
80
FE
ENDCHAR
STARTCHAR braceleft
ENCODING 123
SWIDTH 273 0
DWIDTH 5 0
BBX 5 18 0 -4
BITMAP
18
20
20
20
20
20
20
20
60
C0
60
20
20
20
20
20
20
18
ENDCHAR
STARTCHAR bar
ENCODING 124
SWIDTH 212 0
DWIDTH 4 0
BBX 1 18 1 -4
BITMAP
80
80
80
80
80
80
80
80
80
80
80
80
80
80
80
80
80
80
ENDCHAR
STARTCHAR braceright
ENCODING 125
SWIDTH 273 0
DWIDTH 5 0
BBX 5 18 0 -4
BITMAP
C0
20
20
20
20
20
20
20
30
18
30
20
20
20
20
20
20
C0
ENDCHAR
STARTCHAR asciitilde
ENCODING 126
SWIDTH 479 0
DWIDTH 9 0
BBX 8 2 0 6
BITMAP
71
8F
ENDCHAR
STARTCHAR exclamdown
ENCODING 161
SWIDTH 272 0
DWIDTH 5 0
BBX 1 14 2 -4
BITMAP
80
00
00
00
80
80
80
80
80
80
80
80
80
80
ENDCHAR
STARTCHAR cent
ENCODING 162
SWIDTH 456 0
DWIDTH 9 0
BBX 7 18 1 -4
BITMAP
04
04
04
0C
3C
4C
8A
90
90
90
92
A2
64
38
20
40
40
40
ENDCHAR
STARTCHAR sterling
ENCODING 163
SWIDTH 456 0
DWIDTH 9 0
BBX 8 14 0 0
BITMAP
1C
22
41
41
40
40
40
F8
20
20
20
40
F9
87
ENDCHAR
STARTCHAR currency
ENCODING 164
SWIDTH 456 0
DWIDTH 9 0
BBX 6 10 1 2
BITMAP
84
B4
48
84
84
84
84
48
B4
84
ENDCHAR
STARTCHAR yen
ENCODING 165
SWIDTH 456 0
DWIDTH 9 0
BBX 9 14 0 0
BITMAP
8080
4100
4100
2200
2200
1400
1400
FF80
0800
FF80
0800
0800
0800
0800
ENDCHAR
STARTCHAR brokenbar
ENCODING 166
SWIDTH 212 0
DWIDTH 4 0
BBX 1 17 1 -3
BITMAP
80
80
80
80
80
80
80
00
00
00
80
80
80
80
80
80
80
ENDCHAR
STARTCHAR section
ENCODING 167
SWIDTH 456 0
DWIDTH 9 0
BBX 8 18 0 -4
BITMAP
3C
42
41
40
60
78
9C
86
83
C1
71
1A
0C
02
01
81
42
3C
ENDCHAR
STARTCHAR dieresis
ENCODING 168
SWIDTH 272 0
DWIDTH 5 0
BBX 3 1 1 12
BITMAP
A0
ENDCHAR
STARTCHAR copyright
ENCODING 169
SWIDTH 604 0
DWIDTH 11 0
BBX 11 14 0 0
BITMAP
1F00
3180
60C0
4E40
9120
9020
9020
9020
9120
9120
4E40
60C0
3180
1F00
ENDCHAR
STARTCHAR ordfeminine
ENCODING 170
SWIDTH 303 0
DWIDTH 6 0
BBX 5 7 0 7
BITMAP
70
88
08
78
88
88
78
ENDCHAR
STARTCHAR guillemotleft
ENCODING 171
SWIDTH 456 0
DWIDTH 9 0
BBX 5 9 2 1
BITMAP
28
50
50
A0
A0
A0
50
50
28
ENDCHAR
STARTCHAR logicalnot
ENCODING 172
SWIDTH 479 0
DWIDTH 9 0
BBX 7 6 1 4
BITMAP
FE
02
02
02
02
02
ENDCHAR
STARTCHAR hyphen.dup1
ENCODING 173
SWIDTH 272 0
DWIDTH 5 0
BBX 4 1 0 4
BITMAP
F0
ENDCHAR
STARTCHAR registered
ENCODING 174
SWIDTH 604 0
DWIDTH 11 0
BBX 11 14 0 0
BITMAP
1E00
3180
4040
5C40
9220
9220
9220
9E20
9220
9220
5240
4040
3180
0F00
ENDCHAR
STARTCHAR overscore
ENCODING 175
SWIDTH 500 0
DWIDTH 10 0
BBX 10 1 0 15
BITMAP
FFC0
ENDCHAR
STARTCHAR degree
ENCODING 176
SWIDTH 399 0
DWIDTH 8 0
BBX 5 5 1 9
BITMAP
70
88
88
88
70
ENDCHAR
STARTCHAR plusminus
ENCODING 177
SWIDTH 548 0
DWIDTH 10 0
BBX 9 9 0 0
BITMAP
0800
0800
0800
FF80
0800
0800
0800
0000
FF80
ENDCHAR
STARTCHAR twosuperior
ENCODING 178
SWIDTH 272 0
DWIDTH 5 0
BBX 5 7 0 7
BITMAP
70
88
08
10
20
40
F8
ENDCHAR
STARTCHAR threesuperior
ENCODING 179
SWIDTH 272 0
DWIDTH 5 0
BBX 5 7 0 7
BITMAP
F0
08
08
30
08
88
70
ENDCHAR
STARTCHAR acute
ENCODING 180
SWIDTH 272 0
DWIDTH 5 0
BBX 2 3 1 11
BITMAP
40
80
80
ENDCHAR
STARTCHAR mu1
ENCODING 181
SWIDTH 576 0
DWIDTH 11 0
BBX 8 14 1 -4
BITMAP
81
81
81
81
81
81
81
81
C3
BD
80
80
80
80
ENDCHAR
STARTCHAR paragraph
ENCODING 182
SWIDTH 439 0
DWIDTH 8 0
BBX 8 18 0 -4
BITMAP
3F
72
F2
F2
F2
F2
72
32
12
12
12
12
12
12
12
12
12
12
ENDCHAR
STARTCHAR middot
ENCODING 183
SWIDTH 271 0
DWIDTH 5 0
BBX 1 1 2 6
BITMAP
80
ENDCHAR
STARTCHAR cedilla
ENCODING 184
SWIDTH 272 0
DWIDTH 5 0
BBX 3 3 1 -3
BITMAP
40
20
E0
ENDCHAR
STARTCHAR onesuperior
ENCODING 185
SWIDTH 272 0
DWIDTH 5 0
BBX 3 7 0 7
BITMAP
20
60
A0
20
20
20
20
ENDCHAR
STARTCHAR ordmasculine
ENCODING 186
SWIDTH 298 0
DWIDTH 6 0
BBX 5 7 0 7
BITMAP
70
98
88
88
88
88
70
ENDCHAR
STARTCHAR guillemotright
ENCODING 187
SWIDTH 456 0
DWIDTH 9 0
BBX 5 9 2 1
BITMAP
A0
50
50
28
28
28
50
50
A0
ENDCHAR
STARTCHAR onequarter
ENCODING 188
SWIDTH 684 0
DWIDTH 13 0
BBX 12 15 1 -1
BITMAP
2040
60C0
E080
6180
6100
6200
6200
0420
0C60
0860
10A0
1120
21F0
6020
4000
ENDCHAR
STARTCHAR onehalf
ENCODING 189
SWIDTH 684 0
DWIDTH 13 0
BBX 12 15 1 -1
BITMAP
2040
6080
E080
6100
6100
6200
6600
04E0
09B0
0830
1020
3060
2080
41F0
4000
ENDCHAR
STARTCHAR threequarters
ENCODING 190
SWIDTH 684 0
DWIDTH 13 0
BBX 13 15 0 -1
BITMAP
7020
5860
1840
30C0
0880
8900
7100
0210
0630
0470
0850
0890
10F8
3010
2000
ENDCHAR
ENDFONT
