STARTFONT 2.1
FONT -FontForge-Arial Narrow-Bold-R-Normal--13-120-75-75-P-59-ISO10646-1
SIZE 12 75 75
FONTBOUNDINGBOX 12 14 -1 -3
COMMENT "Generated by fontforge, http://fontforge.sourceforge.net"
COMMENT "(c) 2008 The Monotype Corporation. All Rights Reserved."
STARTPROPERTIES 40
FOUNDRY "FontForge"
FAMILY_NAME "Arial Narrow"
WEIGHT_NAME "Bold"
SLANT "R"
SETWIDTH_NAME "Normal"
ADD_STYLE_NAME ""
PIXEL_SIZE 13
POINT_SIZE 120
RESOLUTION_X 75
RESOLUTION_Y 75
SPACING "P"
AVERAGE_WIDTH 59
CHARSET_REGISTRY "ISO10646"
CHARSET_ENCODING "1"
FONTNAME_REGISTRY ""
CHARSET_COLLECTIONS "ISO10646-1"
FONT_NAME "ArialNarrow-Bold"
FACE_NAME "Arial Narrow Bold"
COPYRIGHT "(c) 2008 The Monotype Corporation. All Rights Reserved."
FONT_VERSION "2.40"
FONT_ASCENT 10
FONT_DESCENT 3
UNDERLINE_POSITION -2
UNDERLINE_THICKNESS 1
X_HEIGHT 6
CAP_HEIGHT 8
RAW_ASCENT 799
RAW_DESCENT 200
NORM_SPACE 3
RELATIVE_WEIGHT 70
RELATIVE_SETWIDTH 30
SUPERSCRIPT_X 0
SUPERSCRIPT_Y 3
SUPERSCRIPT_SIZE 8
SUBSCRIPT_X 0
SUBSCRIPT_Y 0
SUBSCRIPT_SIZE 8
FIGURE_WIDTH 6
AVG_LOWERCASE_WIDTH 58
AVG_UPPERCASE_WIDTH 75
ENDPROPERTIES
CHARS 126
STARTCHAR space
ENCODING 32
SWIDTH 228 0
DWIDTH 3 0
BBX 1 1 0 0
BITMAP
00
ENDCHAR
STARTCHAR exclam
ENCODING 33
SWIDTH 272 0
DWIDTH 4 0
BBX 2 9 1 0
BITMAP
C0
C0
C0
C0
C0
C0
C0
00
C0
ENDCHAR
STARTCHAR quotedbl
ENCODING 34
SWIDTH 389 0
DWIDTH 5 0
BBX 5 3 0 6
BITMAP
D8
D8
D8
ENDCHAR
STARTCHAR numbersign
ENCODING 35
SWIDTH 456 0
DWIDTH 6 0
BBX 6 9 0 0
BITMAP
14
14
28
FC
50
FC
50
A0
A0
ENDCHAR
STARTCHAR dollar
ENCODING 36
SWIDTH 456 0
DWIDTH 6 0
BBX 5 11 0 -1
BITMAP
20
70
A8
A0
E0
70
38
A8
E8
70
20
ENDCHAR
STARTCHAR percent
ENCODING 37
SWIDTH 729 0
DWIDTH 9 0
BBX 9 9 0 0
BITMAP
E200
A200
A400
A400
EB80
1280
1280
2280
2380
ENDCHAR
STARTCHAR ampersand
ENCODING 38
SWIDTH 591 0
DWIDTH 8 0
BBX 8 9 0 0
BITMAP
38
6C
6C
38
78
DA
CE
CF
7A
ENDCHAR
STARTCHAR quotesingle
ENCODING 39
SWIDTH 194 0
DWIDTH 3 0
BBX 2 3 0 6
BITMAP
C0
C0
C0
ENDCHAR
STARTCHAR parenleft
ENCODING 40
SWIDTH 272 0
DWIDTH 4 0
BBX 3 12 1 -3
BITMAP
20
60
40
C0
C0
C0
C0
C0
C0
40
60
20
ENDCHAR
STARTCHAR parenright
ENCODING 41
SWIDTH 272 0
DWIDTH 4 0
BBX 3 12 0 -3
BITMAP
80
C0
40
60
60
60
60
60
60
40
C0
80
ENDCHAR
STARTCHAR asterisk
ENCODING 42
SWIDTH 318 0
DWIDTH 4 0
BBX 3 4 0 5
BITMAP
40
E0
40
A0
ENDCHAR
STARTCHAR plus
ENCODING 43
SWIDTH 479 0
DWIDTH 6 0
BBX 6 8 0 1
BITMAP
30
30
30
FC
FC
30
30
30
ENDCHAR
STARTCHAR comma
ENCODING 44
SWIDTH 228 0
DWIDTH 3 0
BBX 2 3 0 -2
BITMAP
C0
40
80
ENDCHAR
STARTCHAR hyphen
ENCODING 45
SWIDTH 272 0
DWIDTH 4 0
BBX 4 1 0 2
BITMAP
F0
ENDCHAR
STARTCHAR period
ENCODING 46
SWIDTH 228 0
DWIDTH 3 0
BBX 2 1 0 0
BITMAP
C0
ENDCHAR
STARTCHAR slash
ENCODING 47
SWIDTH 228 0
DWIDTH 3 0
BBX 3 9 0 0
BITMAP
60
60
60
60
E0
C0
C0
C0
C0
ENDCHAR
STARTCHAR zero
ENCODING 48
SWIDTH 456 0
DWIDTH 6 0
BBX 5 9 0 0
BITMAP
70
D8
D8
D8
D8
D8
D8
D8
70
ENDCHAR
STARTCHAR one
ENCODING 49
SWIDTH 456 0
DWIDTH 6 0
BBX 4 9 0 0
BITMAP
30
70
F0
B0
30
30
30
30
30
ENDCHAR
STARTCHAR two
ENCODING 50
SWIDTH 456 0
DWIDTH 6 0
BBX 5 9 0 0
BITMAP
70
D8
18
18
38
70
60
C0
F8
ENDCHAR
STARTCHAR three
ENCODING 51
SWIDTH 456 0
DWIDTH 6 0
BBX 5 9 0 0
BITMAP
70
D8
18
18
30
18
18
D8
70
ENDCHAR
STARTCHAR four
ENCODING 52
SWIDTH 456 0
DWIDTH 6 0
BBX 5 9 0 0
BITMAP
30
30
70
70
B0
B0
F8
30
30
ENDCHAR
STARTCHAR five
ENCODING 53
SWIDTH 456 0
DWIDTH 6 0
BBX 5 9 0 0
BITMAP
78
60
C0
F0
98
18
18
D8
70
ENDCHAR
STARTCHAR six
ENCODING 54
SWIDTH 456 0
DWIDTH 6 0
BBX 5 9 0 0
BITMAP
70
D8
C0
F0
D8
D8
D8
D8
70
ENDCHAR
STARTCHAR seven
ENCODING 55
SWIDTH 456 0
DWIDTH 6 0
BBX 5 9 0 0
BITMAP
F8
18
10
30
30
60
60
60
60
ENDCHAR
STARTCHAR eight
ENCODING 56
SWIDTH 456 0
DWIDTH 6 0
BBX 5 9 0 0
BITMAP
70
D8
D8
D8
20
D8
D8
D8
70
ENDCHAR
STARTCHAR nine
ENCODING 57
SWIDTH 456 0
DWIDTH 6 0
BBX 5 9 0 0
BITMAP
70
D8
D8
D8
D8
78
18
D0
70
ENDCHAR
STARTCHAR colon
ENCODING 58
SWIDTH 272 0
DWIDTH 4 0
BBX 2 7 1 0
BITMAP
C0
00
00
00
00
00
C0
ENDCHAR
STARTCHAR semicolon
ENCODING 59
SWIDTH 272 0
DWIDTH 4 0
BBX 2 9 1 -2
BITMAP
C0
00
00
00
00
00
C0
40
80
ENDCHAR
STARTCHAR less
ENCODING 60
SWIDTH 479 0
DWIDTH 6 0
BBX 5 7 0 0
BITMAP
08
78
F0
C0
F0
78
08
ENDCHAR
STARTCHAR equal
ENCODING 61
SWIDTH 479 0
DWIDTH 6 0
BBX 5 5 0 1
BITMAP
F8
F8
00
F8
F8
ENDCHAR
STARTCHAR greater
ENCODING 62
SWIDTH 479 0
DWIDTH 6 0
BBX 5 7 0 0
BITMAP
80
F0
78
18
78
F0
80
ENDCHAR
STARTCHAR question
ENCODING 63
SWIDTH 500 0
DWIDTH 7 0
BBX 5 9 1 0
BITMAP
70
D8
D8
18
38
30
30
00
30
ENDCHAR
STARTCHAR at
ENCODING 64
SWIDTH 799 0
DWIDTH 10 0
BBX 10 12 0 -3
BITMAP
1F00
2180
40C0
DF40
9B40
B240
B640
B680
9F00
4040
6080
1F00
ENDCHAR
STARTCHAR A
ENCODING 65
SWIDTH 591 0
DWIDTH 7 0
BBX 7 9 0 0
BITMAP
38
38
6C
6C
6C
7C
6C
C6
C6
ENDCHAR
STARTCHAR B
ENCODING 66
SWIDTH 591 0
DWIDTH 8 0
BBX 6 9 1 0
BITMAP
F8
CC
CC
CC
F8
CC
CC
CC
F8
ENDCHAR
STARTCHAR C
ENCODING 67
SWIDTH 591 0
DWIDTH 8 0
BBX 6 9 1 0
BITMAP
78
CC
CC
C0
C0
C0
CC
CC
78
ENDCHAR
STARTCHAR D
ENCODING 68
SWIDTH 591 0
DWIDTH 8 0
BBX 6 9 1 0
BITMAP
F8
CC
CC
CC
CC
CC
CC
CC
F8
ENDCHAR
STARTCHAR E
ENCODING 69
SWIDTH 546 0
DWIDTH 7 0
BBX 5 9 1 0
BITMAP
F8
C0
C0
C0
F8
C0
C0
C0
F8
ENDCHAR
STARTCHAR F
ENCODING 70
SWIDTH 500 0
DWIDTH 7 0
BBX 5 9 1 0
BITMAP
F8
C0
C0
C0
F0
C0
C0
C0
C0
ENDCHAR
STARTCHAR G
ENCODING 71
SWIDTH 638 0
DWIDTH 8 0
BBX 6 9 1 0
BITMAP
78
CC
CC
C0
DC
CC
CC
CC
78
ENDCHAR
STARTCHAR H
ENCODING 72
SWIDTH 591 0
DWIDTH 8 0
BBX 6 9 1 0
BITMAP
CC
CC
CC
CC
FC
CC
CC
CC
CC
ENDCHAR
STARTCHAR I
ENCODING 73
SWIDTH 228 0
DWIDTH 4 0
BBX 2 9 1 0
BITMAP
C0
C0
C0
C0
C0
C0
C0
C0
C0
ENDCHAR
STARTCHAR J
ENCODING 74
SWIDTH 456 0
DWIDTH 6 0
BBX 5 9 0 0
BITMAP
18
18
18
18
18
18
D8
D8
70
ENDCHAR
STARTCHAR K
ENCODING 75
SWIDTH 591 0
DWIDTH 8 0
BBX 6 9 1 0
BITMAP
CC
D8
D8
F0
F8
D8
CC
CC
CC
ENDCHAR
STARTCHAR L
ENCODING 76
SWIDTH 500 0
DWIDTH 7 0
BBX 5 9 1 0
BITMAP
C0
C0
C0
C0
C0
C0
C0
C0
F8
ENDCHAR
STARTCHAR M
ENCODING 77
SWIDTH 683 0
DWIDTH 9 0
BBX 7 9 1 0
BITMAP
C6
C6
C6
EE
EE
F6
D6
D6
D6
ENDCHAR
STARTCHAR N
ENCODING 78
SWIDTH 591 0
DWIDTH 8 0
BBX 6 9 1 0
BITMAP
CC
EC
EC
EC
FC
DC
DC
DC
CC
ENDCHAR
STARTCHAR O
ENCODING 79
SWIDTH 638 0
DWIDTH 8 0
BBX 6 9 1 0
BITMAP
78
CC
CC
CC
CC
CC
CC
CC
78
ENDCHAR
STARTCHAR P
ENCODING 80
SWIDTH 546 0
DWIDTH 7 0
BBX 6 9 1 0
BITMAP
F8
CC
CC
CC
CC
F8
C0
C0
C0
ENDCHAR
STARTCHAR Q
ENCODING 81
SWIDTH 638 0
DWIDTH 8 0
BBX 7 10 1 -1
BITMAP
78
CC
CC
CC
CC
CC
DC
DC
7E
02
ENDCHAR
STARTCHAR R
ENCODING 82
SWIDTH 591 0
DWIDTH 8 0
BBX 7 9 1 0
BITMAP
F8
CC
CC
CC
F8
D8
DC
CC
C6
ENDCHAR
STARTCHAR S
ENCODING 83
SWIDTH 546 0
DWIDTH 8 0
BBX 6 9 1 0
BITMAP
78
CC
CC
F0
78
1C
CC
CC
78
ENDCHAR
STARTCHAR T
ENCODING 84
SWIDTH 500 0
DWIDTH 6 0
BBX 6 9 0 0
BITMAP
FC
30
30
30
30
30
30
30
30
ENDCHAR
STARTCHAR U
ENCODING 85
SWIDTH 591 0
DWIDTH 8 0
BBX 6 9 1 0
BITMAP
CC
CC
CC
CC
CC
CC
CC
CC
78
ENDCHAR
STARTCHAR V
ENCODING 86
SWIDTH 546 0
DWIDTH 7 0
BBX 7 9 0 0
BITMAP
C6
C6
6C
6C
6C
6C
6C
38
38
ENDCHAR
STARTCHAR W
ENCODING 87
SWIDTH 773 0
DWIDTH 11 0
BBX 11 9 0 0
BITMAP
C460
C460
6AC0
6AC0
6AC0
6AC0
3280
3180
3180
ENDCHAR
STARTCHAR X
ENCODING 88
SWIDTH 546 0
DWIDTH 7 0
BBX 7 9 0 0
BITMAP
C6
6C
6C
38
38
38
6C
6C
C6
ENDCHAR
STARTCHAR Y
ENCODING 89
SWIDTH 546 0
DWIDTH 7 0
BBX 6 9 0 0
BITMAP
CC
CC
78
78
30
30
30
30
30
ENDCHAR
STARTCHAR Z
ENCODING 90
SWIDTH 500 0
DWIDTH 7 0
BBX 5 9 1 0
BITMAP
F8
18
30
30
60
60
60
C0
F8
ENDCHAR
STARTCHAR bracketleft
ENCODING 91
SWIDTH 272 0
DWIDTH 4 0
BBX 3 12 1 -3
BITMAP
E0
C0
C0
C0
C0
C0
C0
C0
C0
C0
C0
E0
ENDCHAR
STARTCHAR backslash
ENCODING 92
SWIDTH 228 0
DWIDTH 3 0
BBX 3 9 0 0
BITMAP
C0
C0
C0
C0
E0
60
60
60
60
ENDCHAR
STARTCHAR bracketright
ENCODING 93
SWIDTH 272 0
DWIDTH 4 0
BBX 3 12 0 -3
BITMAP
E0
60
60
60
60
60
60
60
60
60
60
E0
ENDCHAR
STARTCHAR asciicircum
ENCODING 94
SWIDTH 479 0
DWIDTH 6 0
BBX 5 5 1 4
BITMAP
70
F8
D8
D8
D8
ENDCHAR
STARTCHAR underscore
ENCODING 95
SWIDTH 456 0
DWIDTH 6 0
BBX 6 1 0 -2
BITMAP
FC
ENDCHAR
STARTCHAR grave
ENCODING 96
SWIDTH 272 0
DWIDTH 4 0
BBX 3 2 0 8
BITMAP
C0
60
ENDCHAR
STARTCHAR a
ENCODING 97
SWIDTH 456 0
DWIDTH 6 0
BBX 5 7 0 0
BITMAP
70
D8
18
78
D8
D8
78
ENDCHAR
STARTCHAR b
ENCODING 98
SWIDTH 500 0
DWIDTH 7 0
BBX 6 9 0 0
BITMAP
C0
C0
F8
CC
CC
CC
CC
CC
F8
ENDCHAR
STARTCHAR c
ENCODING 99
SWIDTH 456 0
DWIDTH 6 0
BBX 5 7 0 0
BITMAP
70
D8
C0
C0
C0
D8
70
ENDCHAR
STARTCHAR d
ENCODING 100
SWIDTH 500 0
DWIDTH 7 0
BBX 6 9 0 0
BITMAP
0C
0C
7C
CC
CC
CC
CC
CC
7C
ENDCHAR
STARTCHAR e
ENCODING 101
SWIDTH 456 0
DWIDTH 6 0
BBX 5 7 0 0
BITMAP
70
D8
D8
F8
C0
D8
70
ENDCHAR
STARTCHAR f
ENCODING 102
SWIDTH 272 0
DWIDTH 4 0
BBX 4 9 -1 0
BITMAP
30
60
F0
60
60
60
60
60
60
ENDCHAR
STARTCHAR g
ENCODING 103
SWIDTH 500 0
DWIDTH 7 0
BBX 6 10 0 -3
BITMAP
7C
CC
CC
CC
CC
CC
7C
0C
CC
78
ENDCHAR
STARTCHAR h
ENCODING 104
SWIDTH 500 0
DWIDTH 7 0
BBX 6 9 0 0
BITMAP
C0
C0
F8
CC
CC
CC
CC
CC
CC
ENDCHAR
STARTCHAR i
ENCODING 105
SWIDTH 228 0
DWIDTH 3 0
BBX 2 10 0 0
BITMAP
C0
C0
00
C0
C0
C0
C0
C0
C0
C0
ENDCHAR
STARTCHAR j
ENCODING 106
SWIDTH 228 0
DWIDTH 3 0
BBX 3 13 -1 -3
BITMAP
60
60
00
60
60
60
60
60
60
60
60
60
C0
ENDCHAR
STARTCHAR k
ENCODING 107
SWIDTH 456 0
DWIDTH 6 0
BBX 5 9 0 0
BITMAP
C0
C0
D8
F0
F0
F0
D8
D8
D8
ENDCHAR
STARTCHAR l
ENCODING 108
SWIDTH 228 0
DWIDTH 3 0
BBX 2 9 0 0
BITMAP
C0
C0
C0
C0
C0
C0
C0
C0
C0
ENDCHAR
STARTCHAR m
ENCODING 109
SWIDTH 729 0
DWIDTH 9 0
BBX 8 7 0 0
BITMAP
F7
DB
DB
DB
DB
DB
DB
ENDCHAR
STARTCHAR n
ENCODING 110
SWIDTH 500 0
DWIDTH 7 0
BBX 6 7 0 0
BITMAP
F8
CC
CC
CC
CC
CC
CC
ENDCHAR
STARTCHAR o
ENCODING 111
SWIDTH 500 0
DWIDTH 7 0
BBX 6 7 0 0
BITMAP
78
CC
CC
CC
CC
CC
78
ENDCHAR
STARTCHAR p
ENCODING 112
SWIDTH 500 0
DWIDTH 7 0
BBX 6 10 0 -3
BITMAP
F8
CC
CC
CC
CC
CC
F8
C0
C0
C0
ENDCHAR
STARTCHAR q
ENCODING 113
SWIDTH 500 0
DWIDTH 7 0
BBX 6 10 0 -3
BITMAP
7C
CC
CC
CC
CC
CC
7C
0C
0C
0C
ENDCHAR
STARTCHAR r
ENCODING 114
SWIDTH 318 0
DWIDTH 4 0
BBX 4 7 0 0
BITMAP
F0
C0
C0
C0
C0
C0
C0
ENDCHAR
STARTCHAR s
ENCODING 115
SWIDTH 456 0
DWIDTH 6 0
BBX 5 7 0 0
BITMAP
70
D8
C0
F8
18
D8
70
ENDCHAR
STARTCHAR t
ENCODING 116
SWIDTH 272 0
DWIDTH 4 0
BBX 4 9 -1 0
BITMAP
20
60
F0
60
60
60
60
60
30
ENDCHAR
STARTCHAR u
ENCODING 117
SWIDTH 500 0
DWIDTH 7 0
BBX 6 7 0 0
BITMAP
CC
CC
CC
CC
CC
CC
7C
ENDCHAR
STARTCHAR v
ENCODING 118
SWIDTH 456 0
DWIDTH 6 0
BBX 5 7 0 0
BITMAP
D8
D8
D8
D8
50
70
70
ENDCHAR
STARTCHAR w
ENCODING 119
SWIDTH 638 0
DWIDTH 8 0
BBX 9 7 -1 0
BITMAP
DD80
DD80
DD80
5D00
7700
7700
7700
ENDCHAR
STARTCHAR x
ENCODING 120
SWIDTH 456 0
DWIDTH 6 0
BBX 6 7 0 0
BITMAP
CC
78
78
30
78
78
CC
ENDCHAR
STARTCHAR y
ENCODING 121
SWIDTH 456 0
DWIDTH 6 0
BBX 5 10 0 -3
BITMAP
D8
D8
D8
50
50
50
70
20
60
C0
ENDCHAR
STARTCHAR z
ENCODING 122
SWIDTH 410 0
DWIDTH 5 0
BBX 5 7 0 0
BITMAP
F8
18
30
70
60
C0
F8
ENDCHAR
STARTCHAR braceleft
ENCODING 123
SWIDTH 318 0
DWIDTH 4 0
BBX 4 12 0 -3
BITMAP
30
60
60
60
60
C0
60
60
60
60
60
30
ENDCHAR
STARTCHAR bar
ENCODING 124
SWIDTH 229 0
DWIDTH 3 0
BBX 2 12 0 -3
BITMAP
C0
C0
C0
C0
C0
C0
C0
C0
C0
C0
C0
C0
ENDCHAR
STARTCHAR braceright
ENCODING 125
SWIDTH 318 0
DWIDTH 4 0
BBX 4 12 0 -3
BITMAP
C0
60
60
60
60
30
60
60
60
60
60
C0
ENDCHAR
STARTCHAR asciitilde
ENCODING 126
SWIDTH 479 0
DWIDTH 6 0
BBX 6 2 0 4
BITMAP
E4
9C
ENDCHAR
STARTCHAR nbspace
ENCODING 160
SWIDTH 456 0
DWIDTH 6 0
BBX 1 1 0 0
BITMAP
00
ENDCHAR
STARTCHAR exclamdown
ENCODING 161
SWIDTH 272 0
DWIDTH 4 0
BBX 2 10 1 -3
BITMAP
C0
00
C0
C0
C0
C0
C0
C0
C0
C0
ENDCHAR
STARTCHAR cent
ENCODING 162
SWIDTH 456 0
DWIDTH 6 0
BBX 5 12 0 -3
BITMAP
10
10
70
F8
E0
E0
E0
F8
70
40
40
40
ENDCHAR
STARTCHAR sterling
ENCODING 163
SWIDTH 456 0
DWIDTH 6 0
BBX 6 9 0 0
BITMAP
38
6C
60
60
F0
30
60
E4
9C
ENDCHAR
STARTCHAR currency
ENCODING 164
SWIDTH 456 0
DWIDTH 6 0
BBX 6 7 0 1
BITMAP
48
FC
48
48
48
FC
48
ENDCHAR
STARTCHAR yen
ENCODING 165
SWIDTH 456 0
DWIDTH 6 0
BBX 6 9 0 0
BITMAP
CC
48
78
78
FC
30
FC
30
30
ENDCHAR
STARTCHAR brokenbar
ENCODING 166
SWIDTH 229 0
DWIDTH 3 0
BBX 2 12 1 -3
BITMAP
C0
C0
C0
C0
C0
00
00
C0
C0
C0
C0
C0
ENDCHAR
STARTCHAR section
ENCODING 167
SWIDTH 456 0
DWIDTH 6 0
BBX 6 12 0 -3
BITMAP
78
CC
E0
70
D8
CC
CC
6C
38
1C
CC
78
ENDCHAR
STARTCHAR dieresis
ENCODING 168
SWIDTH 272 0
DWIDTH 4 0
BBX 3 1 0 8
BITMAP
A0
ENDCHAR
STARTCHAR copyright
ENCODING 169
SWIDTH 604 0
DWIDTH 8 0
BBX 8 9 0 0
BITMAP
3C
42
DB
A5
A1
A5
DB
42
3C
ENDCHAR
STARTCHAR ordfeminine
ENCODING 170
SWIDTH 303 0
DWIDTH 4 0
BBX 4 5 0 4
BITMAP
F0
10
F0
90
F0
ENDCHAR
STARTCHAR guillemotleft
ENCODING 171
SWIDTH 456 0
DWIDTH 6 0
BBX 6 6 0 0
BITMAP
6C
48
D8
48
6C
24
ENDCHAR
STARTCHAR logicalnot
ENCODING 172
SWIDTH 479 0
DWIDTH 6 0
BBX 5 5 0 2
BITMAP
F8
F8
18
18
18
ENDCHAR
STARTCHAR hyphen.dup1
ENCODING 173
SWIDTH 272 0
DWIDTH 4 0
BBX 4 1 0 2
BITMAP
F0
ENDCHAR
STARTCHAR registered
ENCODING 174
SWIDTH 604 0
DWIDTH 8 0
BBX 8 9 0 0
BITMAP
3C
42
FF
A5
B9
A9
E7
42
3C
ENDCHAR
STARTCHAR overscore
ENCODING 175
SWIDTH 500 0
DWIDTH 7 0
BBX 7 1 0 10
BITMAP
FE
ENDCHAR
STARTCHAR degree
ENCODING 176
SWIDTH 399 0
DWIDTH 5 0
BBX 4 4 0 5
BITMAP
60
90
90
60
ENDCHAR
STARTCHAR plusminus
ENCODING 177
SWIDTH 548 0
DWIDTH 7 0
BBX 6 11 0 0
BITMAP
30
30
30
FC
FC
30
30
30
00
FC
FC
ENDCHAR
STARTCHAR twosuperior
ENCODING 178
SWIDTH 272 0
DWIDTH 4 0
BBX 3 5 0 4
BITMAP
E0
A0
20
40
E0
ENDCHAR
STARTCHAR threesuperior
ENCODING 179
SWIDTH 272 0
DWIDTH 4 0
BBX 3 5 0 4
BITMAP
E0
20
60
20
E0
ENDCHAR
STARTCHAR acute
ENCODING 180
SWIDTH 272 0
DWIDTH 4 0
BBX 3 2 1 8
BITMAP
60
C0
ENDCHAR
STARTCHAR mu1
ENCODING 181
SWIDTH 576 0
DWIDTH 7 0
BBX 5 10 1 -3
BITMAP
D8
D8
D8
D8
D8
D8
F8
C0
C0
C0
ENDCHAR
STARTCHAR paragraph
ENCODING 182
SWIDTH 456 0
DWIDTH 7 0
BBX 7 12 0 -3
BITMAP
7E
EC
EC
EC
EC
6C
6C
6C
6C
6C
6C
6C
ENDCHAR
STARTCHAR middot
ENCODING 183
SWIDTH 272 0
DWIDTH 4 0
BBX 2 1 1 4
BITMAP
C0
ENDCHAR
STARTCHAR cedilla
ENCODING 184
SWIDTH 272 0
DWIDTH 4 0
BBX 3 3 0 -3
BITMAP
E0
20
E0
ENDCHAR
STARTCHAR onesuperior
ENCODING 185
SWIDTH 272 0
DWIDTH 4 0
BBX 2 5 1 4
BITMAP
40
C0
40
40
40
ENDCHAR
STARTCHAR ordmasculine
ENCODING 186
SWIDTH 298 0
DWIDTH 4 0
BBX 4 5 0 4
BITMAP
60
90
90
90
60
ENDCHAR
STARTCHAR guillemotright
ENCODING 187
SWIDTH 456 0
DWIDTH 6 0
BBX 6 6 0 0
BITMAP
90
D8
48
6C
48
D8
ENDCHAR
STARTCHAR onequarter
ENCODING 188
SWIDTH 684 0
DWIDTH 9 0
BBX 9 9 0 0
BITMAP
6200
A400
2400
2800
0900
1100
1300
2780
2100
ENDCHAR
STARTCHAR onehalf
ENCODING 189
SWIDTH 684 0
DWIDTH 9 0
BBX 9 9 0 0
BITMAP
6200
A400
2400
2800
0800
1380
1100
2300
2380
ENDCHAR
STARTCHAR threequarters
ENCODING 190
SWIDTH 684 0
DWIDTH 9 0
BBX 9 9 0 0
BITMAP
E200
6400
2400
E800
0900
0900
1300
1780
2100
ENDCHAR
ENDFONT
