STARTFONT 2.1
FONT -FontForge-Arial Rounded MT Bold-Book-R-Normal--71-680-75-75-P-398-ISO10646-1
SIZE 68 75 75
FONTBOUNDINGBOX 75 73 -5 -15
COMMENT "Generated by fontforge, http://fontforge.sourceforge.net"
COMMENT "Copyright (c) 1993 , Monotype Typography ltd."
STARTPROPERTIES 40
FOUNDRY "FontForge"
FAMILY_NAME "Arial Rounded MT Bold"
WEIGHT_NAME "Book"
SLANT "R"
SETWIDTH_NAME "Normal"
ADD_STYLE_NAME ""
PIXEL_SIZE 71
POINT_SIZE 680
RESOLUTION_X 75
RESOLUTION_Y 75
SPACING "P"
AVERAGE_WIDTH 398
CHARSET_REGISTRY "ISO10646"
CHARSET_ENCODING "1"
FONTNAME_REGISTRY ""
CHARSET_COLLECTIONS "ISO10646-1"
FONT_NAME "ArialRoundedMTBold"
FACE_NAME "Arial Rounded MT Bold"
COPYRIGHT "Copyright (c) 1993 , Monotype Typography ltd."
FONT_VERSION "1.51"
FONT_ASCENT 57
FONT_DESCENT 14
UNDERLINE_POSITION -9
UNDERLINE_THICKNESS 4
X_HEIGHT 36
CAP_HEIGHT 51
RAW_ASCENT 799
RAW_DESCENT 200
NORM_SPACE 18
RELATIVE_WEIGHT 40
RELATIVE_SETWIDTH 50
SUPERSCRIPT_X 0
SUPERSCRIPT_Y 15
SUPERSCRIPT_SIZE 46
SUBSCRIPT_X 0
SUBSCRIPT_Y 4
SUBSCRIPT_SIZE 46
FIGURE_WIDTH 42
AVG_LOWERCASE_WIDTH 382
AVG_UPPERCASE_WIDTH 493
ENDPROPERTIES
CHARS 101
STARTCHAR space
ENCODING 32
SWIDTH 250 0
DWIDTH 18 0
BBX 1 1 0 0
BITMAP
00
ENDCHAR
STARTCHAR exclam
ENCODING 33
SWIDTH 333 0
DWIDTH 24 0
BBX 11 53 6 -1
BITMAP
1F00
3FC0
7FC0
FFC0
FFE0
FFE0
FFE0
FFE0
FFE0
FFE0
FFE0
FFE0
FFE0
FFE0
FFE0
FFE0
7FC0
7FC0
7FC0
7FC0
7FC0
7FC0
7FC0
7FC0
7FC0
7FC0
7FC0
7F80
7F80
7F80
3F80
3F80
3F80
3F80
3F00
1F00
0E00
0000
0000
0000
0000
0000
0000
1F00
3F80
7FC0
FFE0
FFE0
FFE0
FFE0
7FC0
7FC0
1F00
ENDCHAR
STARTCHAR quotedbl
ENCODING 34
SWIDTH 479 0
DWIDTH 34 0
BBX 26 18 4 33
BITMAP
FFE1FFC0
FFE1FFC0
FFE1FFC0
FFE1FFC0
FFE1FFC0
FFE1FFC0
FFE1FFC0
FFE1FFC0
FFE1FFC0
FFE1FFC0
FFE1FFC0
7FC0FF80
7FC0FF80
7FC0FF80
7FC0FF80
7FC0FF80
3FC07F80
3F807F00
ENDCHAR
STARTCHAR numbersign
ENCODING 35
SWIDTH 551 0
DWIDTH 39 0
BBX 38 53 1 -1
BITMAP
0003C00780
0007E00FC0
000FE00FE0
000FF01FE0
000FE01FE0
000FE01FE0
001FE01FC0
001FE01FC0
001FE03FC0
001FE03FC0
001FC03FC0
003FC03FC0
003FC03F80
003FC07F80
3FFFFFFFF0
7FFFFFFFF8
FFFFFFFFFC
FFFFFFFFFC
FFFFFFFFFC
7FFFFFFFF8
3FFFFFFFF0
00FF00FE00
00FF01FE00
00FF01FE00
00FE01FE00
01FE01FE00
01FE01FE00
01FE01FC00
01FE03FC00
01FE03FC00
01FC03FC00
03FC03FC00
3FFFFFFFF0
7FFFFFFFF8
FFFFFFFFFC
FFFFFFFFFC
FFFFFFFFFC
7FFFFFFFF8
3FFFFFFFF0
07F00FF000
0FF00FF000
0FF00FF000
0FF00FE000
0FF01FE000
0FE01FE000
0FE01FE000
1FE01FE000
1FE01FC000
1FE03FC000
1FC03FC000
1FC01FC000
0FC01F8000
07800F0000
ENDCHAR
STARTCHAR dollar
ENCODING 36
SWIDTH 594 0
DWIDTH 42 0
BBX 36 71 3 -13
BITMAP
0000700000
0000F80000
0000F80000
0000F80000
0000F80000
0000F80000
0000F80000
001FFF8000
007FFFE000
01FFFFF800
07FFFFFC00
0FFFFFFE00
0FFFFFFF00
1FFEFBFF00
3FF8F9FF80
3FE0F8FF80
3FE0F87FC0
7FC0F87FC0
7FC0F87FC0
7FC0F83FC0
7FC0F83FC0
7FC0F81F80
7FC0F80F00
7FE0F80000
7FF0F80000
3FF8F80000
3FFEF80000
3FFFF80000
1FFFFF0000
0FFFFFE000
07FFFFF800
03FFFFFC00
01FFFFFE00
007FFFFF00
000FFFFF80
0001FFFFC0
0000FFFFE0
0000FBFFE0
0000F8FFE0
0000F87FF0
3E00F83FF0
7F00F81FF0
FF80F81FF0
FF80F81FF0
FF80F81FF0
FFC0F81FF0
FFC0F81FF0
FFC0F83FE0
FFE0F83FE0
7FF0F87FE0
7FF8F8FFC0
3FFEFBFF80
1FFFFFFF80
0FFFFFFF00
07FFFFFE00
03FFFFFC00
00FFFFF000
003FFFC000
0001F80000
0000F80000
0000F80000
0000F80000
0000F80000
0000F80000
0000F80000
0000F80000
0000F80000
0000F80000
0000F80000
0000F80000
0000700000
ENDCHAR
STARTCHAR percent
ENCODING 37
SWIDTH 854 0
DWIDTH 61 0
BBX 58 53 1 -2
BITMAP
01FE0000001C0000
07FFC000003E0000
0FFFE000003E0000
1FFFF000007C0000
3FFFF800007C0000
7F83FC0000FC0000
7F01FC0001F80000
7F01FC0001F00000
FE00FE0003F00000
FE00FE0007E00000
FE00FE0007C00000
FE00FE000FC00000
FE00FE001F800000
FE00FE001F000000
FE00FE003F000000
FE00FE007E000000
FE00FE007E000000
FE00FE00FC000000
7E01FC00F8000000
7F01FC01F8000000
7F01FC03F0000000
3F83F803E0000000
1FFFF007E0000000
0FFFE00FC0000000
07FFC00FC0000000
01FF001F801FE000
0000003F007FF800
0000003F01FFFE00
0000007E03FFFE00
000000FC03F87F00
000000FC07F03F80
000001F807F03F80
000001F007E01F80
000003F00FE01FC0
000007E00FE01FC0
000007E00FE01FC0
00000FC00FE01FC0
00001F800FE01FC0
00001F800FE01FC0
00003F000FE01FC0
00007E000FE01FC0
00007E000FE01FC0
0000FC000FE01FC0
0001FC0007F03F80
0001F80007F03F80
0003F00007F87F80
0003F00003FFFF00
0007E00001FFFE00
000FC00000FFFC00
000FC000007FF800
000F8000001FE000
000F000000000000
0004000000000000
ENDCHAR
STARTCHAR ampersand
ENCODING 38
SWIDTH 759 0
DWIDTH 54 0
BBX 48 53 4 -1
BITMAP
00007FC00000
0003FFF00000
000FFFFC0000
001FFFFE0000
003FFFFF0000
007FFFFF8000
00FFE0FFC000
00FFC07FC000
01FF803FE000
01FF001FE000
01FF001FE000
01FF001FE000
01FF001FE000
01FF803FE000
01FF803FE000
00FFC07FC000
00FFE0FFC000
007FE3FF8000
007FF7FF0000
003FFFFE0000
001FFFFC0000
001FFFF80000
000FFFE00000
001FFFC00000
007FFF800000
00FFFFC00180
03FFFFE007E0
07FFFFF007F0
0FFFFFF80FF0
1FFE3FF80FF0
3FFC1FFC1FF0
3FF81FFE1FF0
7FF00FFF3FE0
7FE007FFBFE0
FFE003FFFFE0
FFC001FFFFC0
FFC000FFFFC0
FFC000FFFF80
FFC0007FFF80
FFC0003FFF00
FFE0001FFF00
FFE0000FFF80
7FF0001FFFE0
7FF8003FFFF0
3FFC00FFFFF8
3FFF03FFFFFC
1FFFFFFFFFFE
0FFFFFFF9FFF
07FFFFFF0FFF
03FFFFFE07FF
00FFFFF801FF
003FFFE000FE
0007FE00007C
ENDCHAR
STARTCHAR quotesingle
ENCODING 39
SWIDTH 240 0
DWIDTH 17 0
BBX 11 18 3 33
BITMAP
FFE0
FFE0
FFE0
FFE0
FFE0
FFE0
FFE0
FFE0
FFE0
FFE0
FFE0
7FC0
7FC0
7FC0
7FC0
7FC0
3FC0
3F80
ENDCHAR
STARTCHAR parenleft
ENCODING 40
SWIDTH 354 0
DWIDTH 25 0
BBX 17 67 4 -15
BITMAP
000780
001F80
003F80
003F00
007F00
00FE00
00FE00
01FE00
01FC00
03FC00
03F800
07F800
07F800
0FF000
0FF000
1FF000
1FE000
1FE000
3FE000
3FE000
3FC000
7FC000
7FC000
7FC000
7FC000
7FC000
FF8000
FF8000
FF8000
FF8000
FF8000
FF8000
FF8000
FF8000
FF8000
FF8000
FF8000
FF8000
FF8000
FF8000
FF8000
7F8000
7FC000
7FC000
7FC000
7FC000
3FC000
3FE000
3FE000
1FE000
1FE000
1FF000
0FF000
0FF000
07F800
07F800
03F800
03FC00
01FC00
01FE00
00FE00
00FE00
007F00
003F00
001F80
001F80
000780
ENDCHAR
STARTCHAR parenright
ENCODING 41
SWIDTH 354 0
DWIDTH 25 0
BBX 17 67 4 -15
BITMAP
F00000
FC0000
FE0000
7E0000
7F0000
3F8000
3F8000
3FC000
1FC000
1FE000
0FE000
0FF000
0FF000
07F800
07F800
07FC00
03FC00
03FC00
03FE00
03FE00
01FE00
01FF00
01FF00
01FF00
01FF00
01FF00
00FF80
00FF80
00FF80
00FF80
00FF80
00FF80
00FF80
00FF80
00FF80
00FF80
00FF80
00FF80
00FF80
00FF80
00FF80
01FF00
01FF00
01FF00
01FF00
01FF00
01FE00
03FE00
03FE00
03FC00
03FC00
07FC00
07F800
07F800
0FF000
0FF000
0FE000
1FE000
1FC000
3FC000
3F8000
3F8000
7F0000
7E0000
FE0000
FC0000
F00000
ENDCHAR
STARTCHAR asterisk
ENCODING 42
SWIDTH 437 0
DWIDTH 31 0
BBX 30 27 1 27
BITMAP
00078000
000FC000
000FC000
000FC000
000FC000
000FC000
000FC000
000FC000
3C0F80F0
7F0783F8
FFC78FFC
7FF7BFF8
7FFFFFF8
1FFFFFE0
03FFFF00
003FF000
001FE000
003FF000
007FF800
00FCFC00
01FCFE00
03F87F00
07F03F80
07F03F80
07E01F80
07C00F80
03800700
ENDCHAR
STARTCHAR plus
ENCODING 43
SWIDTH 583 0
DWIDTH 41 0
BBX 35 36 3 7
BITMAP
0007FC0000
0007FC0000
0007FC0000
0007FC0000
0007FC0000
0007FC0000
0007FC0000
0007FC0000
0007FC0000
0007FC0000
0007FC0000
0007FC0000
0007FC0000
FFFFFFFFE0
FFFFFFFFE0
FFFFFFFFE0
FFFFFFFFE0
FFFFFFFFE0
FFFFFFFFE0
FFFFFFFFE0
FFFFFFFFE0
FFFFFFFFE0
0007FC0000
0007FC0000
0007FC0000
0007FC0000
0007FC0000
0007FC0000
0007FC0000
0007FC0000
0007FC0000
0007FC0000
0007FC0000
0007FC0000
0007FC0000
0007FC0000
ENDCHAR
STARTCHAR comma
ENCODING 44
SWIDTH 312 0
DWIDTH 22 0
BBX 12 21 5 -11
BITMAP
1F00
3FC0
7FE0
FFE0
FFF0
FFF0
FFF0
FFF0
7FF0
3FF0
07F0
03F0
03E0
07E0
0FC0
1FC0
7F80
FF00
FF00
FC00
7800
ENDCHAR
STARTCHAR hyphen
ENCODING 45
SWIDTH 333 0
DWIDTH 24 0
BBX 21 8 1 14
BITMAP
3FFFE0
7FFFF0
FFFFF8
FFFFF8
FFFFF8
FFFFF8
7FFFF0
3FFFE0
ENDCHAR
STARTCHAR period
ENCODING 46
SWIDTH 312 0
DWIDTH 22 0
BBX 11 10 6 -1
BITMAP
1F00
3F80
7FC0
FFE0
FFE0
FFE0
FFE0
7FC0
7FC0
1F00
ENDCHAR
STARTCHAR slash
ENCODING 47
SWIDTH 280 0
DWIDTH 20 0
BBX 18 53 1 -1
BITMAP
000F80
000FC0
001FC0
001FC0
001FC0
003FC0
003F80
003F80
003F80
007F80
007F00
007F00
007F00
00FF00
00FF00
00FE00
00FE00
01FE00
01FE00
01FC00
01FC00
03FC00
03FC00
03F800
03F800
03F800
07F800
07F000
07F000
07F000
0FF000
0FE000
0FE000
0FE000
1FE000
1FC000
1FC000
1FC000
3FC000
3FC000
3F8000
3F8000
7F8000
7F8000
7F0000
7F0000
7F0000
FF0000
FE0000
FE0000
FE0000
FC0000
780000
ENDCHAR
STARTCHAR zero
ENCODING 48
SWIDTH 594 0
DWIDTH 42 0
BBX 36 52 3 -1
BITMAP
0003FC0000
003FFF8000
007FFFE000
01FFFFF000
03FFFFFC00
07FFFFFC00
0FFFFFFE00
0FFE07FF00
1FFC03FF80
1FF801FF80
3FF000FFC0
3FF000FFC0
3FE0007FC0
7FE0007FE0
7FE0007FE0
7FE0007FE0
7FE0007FE0
7FC0003FE0
FFC0003FF0
FFC0003FF0
FFC0003FF0
FFC0003FF0
FFC0003FF0
FFC0003FF0
FFC0003FF0
FFC0003FF0
FFC0003FF0
FFC0003FF0
FFC0003FF0
FFC0003FF0
FFC0003FF0
FFC0003FF0
FFC0003FF0
FFC0003FF0
7FC0003FF0
7FE0007FE0
7FE0007FE0
7FE0007FE0
7FE0007FE0
3FE0007FC0
3FF000FFC0
3FF000FFC0
1FF801FF80
1FFC03FF80
0FFE07FF00
07FFFFFE00
03FFFFFC00
01FFFFF800
00FFFFF000
007FFFE000
001FFF8000
0003FC0000
ENDCHAR
STARTCHAR one
ENCODING 49
SWIDTH 594 0
DWIDTH 42 0
BBX 26 52 4 -1
BITMAP
00000F00
00001F80
00003F80
00007FC0
0000FFC0
0001FFC0
0003FFC0
0007FFC0
000FFFC0
001FFFC0
007FFFC0
00FFFFC0
03FFFFC0
0FFFFFC0
3FFFFFC0
7FFEFFC0
FFFCFFC0
FFF0FFC0
7FE0FFC0
7F80FFC0
3C00FFC0
0000FFC0
0000FFC0
0000FFC0
0000FFC0
0000FFC0
0000FFC0
0000FFC0
0000FFC0
0000FFC0
0000FFC0
0000FFC0
0000FFC0
0000FFC0
0000FFC0
0000FFC0
0000FFC0
0000FFC0
0000FFC0
0000FFC0
0000FFC0
0000FFC0
0000FFC0
0000FFC0
0000FFC0
0000FFC0
0000FFC0
0000FFC0
0000FFC0
00007F80
00007F80
00001E00
ENDCHAR
STARTCHAR two
ENCODING 50
SWIDTH 594 0
DWIDTH 42 0
BBX 36 51 4 0
BITMAP
000FFE0000
007FFFC000
01FFFFF000
03FFFFFC00
0FFFFFFE00
1FFFFFFF00
1FFFFFFF00
3FFC0FFF80
7FF003FFC0
7FE001FFC0
7FC000FFC0
FFC000FFE0
FF80007FE0
FF80007FE0
FF80007FE0
FF00007FE0
FF00007FE0
7E00007FE0
180000FFC0
000000FFC0
000001FFC0
000003FF80
000003FF80
000007FF00
00000FFE00
00003FFE00
00007FFC00
0000FFF800
0001FFF000
0007FFE000
000FFF8000
001FFF0000
003FFE0000
007FFC0000
00FFF80000
01FFE00000
03FFC00000
07FF800000
0FFF000000
1FFE000000
3FFC000000
7FF8000000
7FF8000000
FFFFFFFF80
FFFFFFFFE0
FFFFFFFFF0
FFFFFFFFF0
FFFFFFFFF0
FFFFFFFFF0
7FFFFFFFE0
1FFFFFFFC0
ENDCHAR
STARTCHAR three
ENCODING 51
SWIDTH 594 0
DWIDTH 42 0
BBX 36 52 3 -1
BITMAP
0007FE0000
003FFFC000
00FFFFF000
03FFFFF800
07FFFFFC00
0FFFFFFE00
1FFFFFFF00
1FFC0FFF00
3FF003FF80
3FE001FF80
3FC001FF80
7FC000FF80
3F8000FF80
3F8000FF80
1F0000FF80
000001FF80
000001FF80
000003FF00
000007FF00
00001FFE00
000FFFFC00
003FFFF800
003FFFF000
003FFFF000
003FFFFC00
003FFFFE00
001FFFFF00
000007FF80
000001FFC0
000000FFE0
0000007FE0
0000007FE0
0000003FF0
1C00003FF0
7E00003FF0
7F00003FF0
FF00003FF0
FF00003FF0
FF80003FF0
FF80007FE0
7FC0007FE0
7FE000FFE0
7FE001FFC0
3FF003FFC0
1FFC0FFF80
1FFFFFFF00
0FFFFFFE00
07FFFFFC00
03FFFFF800
00FFFFE000
003FFF8000
0007FC0000
ENDCHAR
STARTCHAR four
ENCODING 52
SWIDTH 594 0
DWIDTH 42 0
BBX 40 52 1 -1
BITMAP
0000007C00
000000FF00
000001FF00
000003FF80
000003FF80
000007FF80
00000FFF80
00001FFF80
00001FFF80
00003FFF80
00007FFF80
0000FFFF80
0000FFFF80
0001FEFF80
0003FCFF80
0007F8FF80
0007F8FF80
000FF0FF80
001FE0FF80
003FC0FF80
007FC0FF80
007F80FF80
00FF00FF80
01FE00FF80
03FE00FF80
03FC00FF80
07F800FF80
0FF000FF80
1FF000FF80
1FE000FF80
3FC000FF80
7F8000FF80
7FFFFFFFFC
FFFFFFFFFF
FFFFFFFFFF
FFFFFFFFFF
FFFFFFFFFF
7FFFFFFFFF
3FFFFFFFFF
1FFFFFFFFC
000000FF80
000000FF80
000000FF80
000000FF80
000000FF80
000000FF80
000000FF80
000000FF80
000000FF80
000000FF00
0000007F00
0000003E00
ENDCHAR
STARTCHAR five
ENCODING 53
SWIDTH 594 0
DWIDTH 42 0
BBX 36 51 4 -1
BITMAP
01FFFFFF00
03FFFFFFC0
07FFFFFFC0
07FFFFFFC0
0FFFFFFFE0
0FFFFFFFC0
0FFFFFFFC0
0FFFFFFF00
0FF0000000
0FF0000000
1FF0000000
1FF0000000
1FF0000000
1FF0000000
1FE0000000
1FE0000000
3FE0FF0000
3FE7FFC000
3FFFFFF000
3FFFFFFC00
3FFFFFFE00
7FFFFFFF00
7FFFFFFF80
7FFC0FFF80
7FF003FFC0
7FC001FFC0
3F8000FFE0
1E00007FE0
0000007FE0
0000007FF0
0000003FF0
0000003FF0
0000003FF0
0000003FF0
3800003FF0
7E00003FF0
FF00003FF0
FF00007FE0
FF80007FE0
FF80007FE0
FFC000FFC0
7FE001FFC0
7FF003FF80
3FFC0FFF80
3FFFFFFF00
1FFFFFFE00
0FFFFFFC00
07FFFFF800
01FFFFE000
007FFF8000
000FFC0000
ENDCHAR
STARTCHAR six
ENCODING 54
SWIDTH 594 0
DWIDTH 42 0
BBX 37 52 3 -1
BITMAP
0001FF0000
000FFFE000
003FFFF800
007FFFFE00
01FFFFFF00
03FFFFFF80
03FFFFFF80
07FF83FFC0
0FFE00FFC0
0FFC007FE0
1FF8007FE0
1FF8003FE0
3FF0003FC0
3FF0001FC0
3FE0000300
7FE0000000
7FE0000000
7FE0000000
7FE03FC000
7FC1FFF000
FFC3FFFC00
FFCFFFFE00
FFDFFFFF00
FFFFFFFF80
FFFFFFFFC0
FFFF83FFE0
FFFE00FFE0
FFFC007FF0
FFF8007FF0
FFF0003FF0
FFF0003FF8
FFE0001FF8
FFE0001FF8
FFE0001FF8
7FE0001FF8
7FE0001FF8
7FE0001FF8
7FE0001FF8
7FF0001FF8
3FF0003FF0
3FF0003FF0
1FF8007FF0
1FFC007FE0
0FFE00FFE0
0FFF83FFC0
07FFFFFF80
03FFFFFF80
01FFFFFF00
00FFFFFC00
007FFFF800
001FFFE000
0003FF0000
ENDCHAR
STARTCHAR seven
ENCODING 55
SWIDTH 594 0
DWIDTH 42 0
BBX 35 51 5 -1
BITMAP
3FFFFFFF00
7FFFFFFFC0
FFFFFFFFE0
FFFFFFFFE0
FFFFFFFFE0
FFFFFFFFE0
7FFFFFFFC0
3FFFFFFFC0
000000FF80
000001FF00
000003FF00
000003FE00
000007FC00
00000FF800
00000FF800
00001FF000
00003FE000
00003FE000
00007FC000
0000FF8000
0000FF8000
0001FF0000
0001FF0000
0003FE0000
0003FE0000
0007FC0000
0007FC0000
000FFC0000
000FF80000
000FF80000
001FF80000
001FF00000
003FF00000
003FF00000
003FE00000
007FE00000
007FE00000
007FE00000
007FE00000
00FFE00000
00FFC00000
00FFC00000
00FFC00000
00FFC00000
01FFC00000
01FFC00000
00FF800000
00FF800000
00FF800000
007F000000
003E000000
ENDCHAR
STARTCHAR eight
ENCODING 56
SWIDTH 594 0
DWIDTH 42 0
BBX 36 52 3 -1
BITMAP
0007FE0000
003FFFC000
00FFFFF000
03FFFFF800
07FFFFFE00
0FFFFFFE00
0FFFFFFF00
1FFE07FF80
1FF803FF80
3FF001FFC0
3FF000FFC0
3FE000FFC0
3FE0007FC0
3FE0007FC0
3FE0007FC0
3FE000FFC0
3FF000FF80
1FF001FF80
1FF803FF80
0FFE07FF00
07FFFFFE00
03FFFFFC00
00FFFFF000
007FFFE000
01FFFFF800
07FFFFFE00
0FFFFFFF00
1FFE07FF80
3FF801FFC0
3FF000FFC0
7FE0007FE0
7FE0007FE0
FFC0007FF0
FFC0003FF0
FFC0003FF0
FFC0003FF0
FFC0003FF0
FFC0003FF0
FFC0003FF0
FFE0007FF0
7FE0007FE0
7FF000FFE0
7FF000FFE0
3FF801FFC0
3FFE07FFC0
1FFFFFFF80
0FFFFFFF00
07FFFFFE00
03FFFFFC00
01FFFFF800
007FFFE000
0007FE0000
ENDCHAR
STARTCHAR nine
ENCODING 57
SWIDTH 594 0
DWIDTH 42 0
BBX 37 52 2 -1
BITMAP
0007FE0000
003FFFC000
00FFFFF000
01FFFFF800
07FFFFFC00
0FFFFFFE00
0FFFFFFF00
1FFC0FFF80
3FF803FF80
3FF001FFC0
7FE000FFC0
7FC000FFE0
7FC0007FE0
FF80007FE0
FF80003FF0
FF80003FF0
FF80003FF0
FF80003FF0
FF80003FF8
FF80003FF8
FF80003FF8
FFC0007FF8
7FC0007FF8
7FE000FFF8
7FF001FFF8
3FF803FFF8
3FFC0FFFF8
1FFFFFFFF8
0FFFFFFFF8
07FFFFDFF8
03FFFF9FF8
01FFFE1FF8
007FFC3FF0
001FE03FF0
0000003FF0
0000003FF0
0000003FF0
0400007FE0
1F80007FE0
3FC0007FE0
3FC000FFC0
3FE000FFC0
3FE001FF80
3FF803FF80
1FFC0FFF00
1FFFFFFE00
0FFFFFFC00
07FFFFF800
03FFFFF000
01FFFFE000
007FFF8000
000FFC0000
ENDCHAR
STARTCHAR colon
ENCODING 58
SWIDTH 312 0
DWIDTH 22 0
BBX 11 38 6 -1
BITMAP
1F00
7FC0
7FC0
FFE0
FFE0
FFE0
FFE0
7FC0
3F80
1F00
0000
0000
0000
0000
0000
0000
0000
0000
0000
0000
0000
0000
0000
0000
0000
0000
0000
0000
1F00
3F80
7FC0
FFE0
FFE0
FFE0
FFE0
7FC0
7FC0
1F00
ENDCHAR
STARTCHAR semicolon
ENCODING 59
SWIDTH 312 0
DWIDTH 22 0
BBX 12 48 5 -11
BITMAP
0F80
3FE0
3FE0
7FF0
7FF0
7FF0
7FF0
3FE0
1FC0
0F80
0000
0000
0000
0000
0000
0000
0000
0000
0000
0000
0000
0000
0000
0000
0000
0000
0000
1F00
3FC0
7FE0
FFE0
FFF0
FFF0
FFF0
7FF0
7FF0
3FF0
07F0
03F0
03E0
07E0
0FE0
1FC0
7F80
7F80
FF00
FC00
7800
ENDCHAR
STARTCHAR less
ENCODING 60
SWIDTH 583 0
DWIDTH 41 0
BBX 35 38 3 6
BITMAP
0000000020
00000001E0
00000007E0
0000001FE0
000000FFE0
000003FFE0
00000FFFE0
00007FFFE0
0001FFFFE0
0007FFFFE0
003FFFFF80
00FFFFFC00
03FFFFF000
1FFFFF8000
7FFFFC0000
FFFFF00000
FFFF800000
FFFC000000
FFF0000000
FFF0000000
FFFE000000
FFFF800000
FFFFF00000
7FFFFC0000
1FFFFF8000
03FFFFF000
00FFFFFC00
003FFFFF80
0007FFFFE0
0001FFFFE0
00007FFFE0
00000FFFE0
000003FFE0
000000FFE0
0000001FE0
00000007E0
00000001E0
0000000020
ENDCHAR
STARTCHAR equal
ENCODING 61
SWIDTH 583 0
DWIDTH 41 0
BBX 36 24 3 13
BITMAP
FFFFFFFFF0
FFFFFFFFF0
FFFFFFFFF0
FFFFFFFFF0
FFFFFFFFF0
FFFFFFFFF0
FFFFFFFFF0
FFFFFFFFF0
FFFFFFFFF0
0000000000
0000000000
0000000000
0000000000
0000000000
0000000000
FFFFFFFFF0
FFFFFFFFF0
FFFFFFFFF0
FFFFFFFFF0
FFFFFFFFF0
FFFFFFFFF0
FFFFFFFFF0
FFFFFFFFF0
FFFFFFFFF0
ENDCHAR
STARTCHAR greater
ENCODING 62
SWIDTH 583 0
DWIDTH 41 0
BBX 35 38 3 6
BITMAP
8000000000
F000000000
FC00000000
FF00000000
FFE0000000
FFF8000000
FFFE000000
FFFFC00000
FFFFF00000
FFFFFC0000
3FFFFF8000
07FFFFE000
00FFFFFC00
003FFFFF00
0007FFFFC0
0001FFFFE0
00003FFFE0
000007FFE0
000001FFE0
000001FFE0
00000FFFE0
00003FFFE0
0001FFFFE0
000FFFFFC0
003FFFFF00
01FFFFF800
07FFFFE000
3FFFFF8000
FFFFFC0000
FFFFF00000
FFFFC00000
FFFE000000
FFF8000000
FFE0000000
FF00000000
FC00000000
F000000000
8000000000
ENDCHAR
STARTCHAR question
ENCODING 63
SWIDTH 573 0
DWIDTH 41 0
BBX 35 53 3 -1
BITMAP
0007FE0000
003FFFC000
00FFFFF000
03FFFFF800
07FFFFFE00
0FFFFFFF00
1FFFFFFF00
3FFC07FF80
3FF803FFC0
7FF001FFC0
7FE000FFC0
FFC0007FE0
FFC0007FE0
FF80007FE0
FF80007FE0
FF80007FE0
FF0000FFE0
7F0000FFE0
3C0001FFC0
000003FFC0
000007FF80
00000FFF00
00001FFE00
00007FFC00
0000FFF800
0001FFF000
0001FFE000
0003FFC000
0007FF8000
0007FF0000
000FFE0000
000FFC0000
000FF80000
000FF80000
000FF80000
000FF80000
000FF00000
000FF00000
0007E00000
0003C00000
0000000000
0000000000
0000000000
0003E00000
0007F00000
000FF80000
001FFC0000
001FFC0000
001FFC0000
001FFC0000
000FF80000
000FF80000
0003E00000
ENDCHAR
STARTCHAR at
ENCODING 64
SWIDTH 979 0
DWIDTH 70 0
BBX 68 67 2 -15
BITMAP
00000007FFE0000000
0000007FFFFE000000
000003FFFFFFC00000
00001FFFFFFFF00000
00007FFFFFFFFC0000
0000FFFFFFFFFE0000
0003FFFFFFFFFF8000
0007FFF8007FFFC000
001FFF800007FFE000
003FFC000000FFF000
007FF00000003FF800
00FFE00000001FF800
00FF8000000007FC00
01FF0000000003FE00
03FE0000000001FE00
07FC000FF03FE1FF00
07F8007FFC3FE0FF00
0FF001FFFE7FE07F00
0FF003FFFF7FC07F80
1FE007FFFFFFC03F80
1FC00FFFFFFFC03F80
3FC01FFC1FFFC03F80
3FC03FF007FFC01FC0
3F807FE003FF801FC0
7F807FC003FF801FC0
7F00FF8001FF801FC0
7F01FF8001FF801FC0
7F01FF0001FF801FC0
7F01FF0001FF001FC0
FF03FE0001FF001FC0
FE03FE0001FF001FC0
FE03FE0001FF003FC0
FE07FC0001FE003F80
FE07FC0001FE003F80
FE07FC0003FE007F80
FE07FC0003FE007F80
FE07FC0003FE00FF00
FE07FC0003FC00FF00
FE07FC0007FC01FE00
FE07FC0007FC01FE00
FE07FC000FFC03FC00
FF07FE001FFC07FC00
7F03FE001FF80FF800
7F03FF003FF83FF000
7F03FF80FFFC7FE000
7F81FFE3FFFFFFC000
3F80FFFFFFFFFF8000
3FC0FFFFFFFFFF0000
1FC07FFFEFFFFC0000
1FE03FFFCFFFF80000
1FF00FFF87FFC00000
0FF803FC01FE000FF0
07FC00000000001FE0
07FE00000000003FE0
03FF00000000007FC0
01FF8000000001FF80
00FFE000000003FF80
007FF80000000FFF00
003FFF0000007FFE00
001FFFE00007FFFC00
000FFFFFFFFFFFF000
0003FFFFFFFFFFE000
0000FFFFFFFFFF8000
00003FFFFFFFFE0000
00000FFFFFFFF80000
000000FFFFFF800000
00000007FFF8000000
ENDCHAR
STARTCHAR A
ENCODING 65
SWIDTH 719 0
DWIDTH 51 0
BBX 47 53 2 -1
BITMAP
00000FC00000
00001FF00000
00003FF80000
00007FFC0000
00007FFC0000
0000FFFE0000
0000FFFE0000
0001FFFE0000
0001FFFF0000
0001FFFF0000
0003FFFF8000
0003FFFF8000
0007FEFF8000
0007FCFFC000
0007FCFFC000
000FFC7FE000
000FF87FE000
001FF83FE000
001FF83FF000
001FF03FF000
003FF01FF800
003FE01FF800
007FE01FF800
007FE00FFC00
007FC00FFC00
00FFC00FFE00
00FFC007FE00
00FF8007FE00
01FF8003FF00
01FF8003FF00
03FF0003FF80
03FF0001FF80
03FFFFFFFF80
07FFFFFFFFC0
07FFFFFFFFC0
0FFFFFFFFFE0
0FFFFFFFFFE0
0FFFFFFFFFE0
1FFFFFFFFFF0
1FF800003FF0
3FF800003FF8
3FF000003FF8
3FF000001FF8
7FE000001FFC
7FE000000FFC
7FE000000FFC
FFC000000FFE
FFC0000007FE
FFC0000007FE
FF80000007FE
7F80000003FC
7F00000001FC
1E00000000F0
ENDCHAR
STARTCHAR B
ENCODING 66
SWIDTH 719 0
DWIDTH 51 0
BBX 43 51 5 0
BITMAP
1FFFFFFC0000
7FFFFFFF8000
7FFFFFFFE000
FFFFFFFFF000
FFFFFFFFF800
FFFFFFFFFC00
FFFFFFFFFE00
FFE0007FFE00
FFE0000FFF00
FFE00007FF00
FFE00007FF00
FFE00003FF00
FFE00003FF00
FFE00003FF00
FFE00003FF00
FFE00003FF00
FFE00007FF00
FFE00007FF00
FFE0000FFE00
FFE0001FFC00
FFE0007FFC00
FFFFFFFFF000
FFFFFFFFE000
FFFFFFFF8000
FFFFFFFFC000
FFFFFFFFF000
FFFFFFFFFC00
FFFFFFFFFE00
FFE0003FFF00
FFE00007FF80
FFE00003FFC0
FFE00001FFC0
FFE00001FFC0
FFE00000FFE0
FFE00000FFE0
FFE00000FFE0
FFE00000FFE0
FFE00000FFE0
FFE00000FFE0
FFE00001FFE0
FFE00001FFC0
FFE00003FFC0
FFE00007FFC0
FFE0003FFF80
FFFFFFFFFF80
FFFFFFFFFF00
FFFFFFFFFE00
FFFFFFFFFC00
7FFFFFFFF000
7FFFFFFFC000
1FFFFFFC0000
ENDCHAR
STARTCHAR C
ENCODING 67
SWIDTH 740 0
DWIDTH 53 0
BBX 46 53 3 -1
BITMAP
00000FFC0000
0000FFFFC000
0003FFFFF000
000FFFFFFC00
003FFFFFFE00
007FFFFFFF00
00FFFFFFFF80
01FFFFFFFFC0
03FFF807FFE0
07FFE001FFF0
0FFF8000FFF0
0FFF00007FF8
1FFE00003FF8
1FFC00001FF8
3FFC00000FFC
3FF800000FFC
3FF8000007FC
7FF0000007F8
7FF0000003F8
7FF0000001E0
FFF000000000
FFE000000000
FFE000000000
FFE000000000
FFE000000000
FFE000000000
FFE000000000
FFE000000000
FFE000000000
FFE000000000
FFE000000000
FFE0000000C0
FFE0000001F0
7FF0000003F8
7FF0000007FC
7FF0000007FC
7FF000000FFC
3FF800000FFC
3FF800000FFC
1FFC00001FF8
1FFE00003FF8
0FFF00007FF8
0FFF8000FFF0
07FFC001FFF0
03FFF80FFFE0
03FFFFFFFFC0
01FFFFFFFF80
00FFFFFFFF00
003FFFFFFE00
001FFFFFFC00
0007FFFFF000
0001FFFFC000
00001FFE0000
ENDCHAR
STARTCHAR D
ENCODING 68
SWIDTH 740 0
DWIDTH 53 0
BBX 44 51 5 0
BITMAP
1FFFFFE00000
3FFFFFFE0000
7FFFFFFF8000
FFFFFFFFC000
FFFFFFFFF000
FFFFFFFFF800
FFFFFFFFFC00
FFFFFFFFFE00
FFE001FFFE00
FFE0003FFF00
FFE0000FFF80
FFE00007FF80
FFE00003FFC0
FFE00001FFC0
FFE00001FFC0
FFE00000FFE0
FFE00000FFE0
FFE00000FFE0
FFE00000FFE0
FFE000007FF0
FFE000007FF0
FFE000007FF0
FFE000007FF0
FFE000007FF0
FFE000007FF0
FFE000007FF0
FFE000007FF0
FFE000007FF0
FFE000007FF0
FFE000007FF0
FFE000007FF0
FFE00000FFF0
FFE00000FFE0
FFE00000FFE0
FFE00000FFE0
FFE00001FFE0
FFE00001FFC0
FFE00003FFC0
FFE00003FFC0
FFE00007FF80
FFE0000FFF80
FFE0001FFF00
FFE000FFFE00
FFFFFFFFFE00
FFFFFFFFFC00
FFFFFFFFF800
FFFFFFFFF000
FFFFFFFFC000
7FFFFFFF8000
7FFFFFFE0000
1FFFFFE00000
ENDCHAR
STARTCHAR E
ENCODING 69
SWIDTH 666 0
DWIDTH 47 0
BBX 40 51 5 0
BITMAP
1FFFFFFFF8
3FFFFFFFFC
7FFFFFFFFE
FFFFFFFFFE
FFFFFFFFFE
FFFFFFFFFE
FFFFFFFFFC
FFFFFFFFF8
FFE0000000
FFE0000000
FFE0000000
FFE0000000
FFE0000000
FFE0000000
FFE0000000
FFE0000000
FFE0000000
FFE0000000
FFE0000000
FFE0000000
FFFFFFFFE0
FFFFFFFFF0
FFFFFFFFF8
FFFFFFFFF8
FFFFFFFFF8
FFFFFFFFF8
FFFFFFFFF0
FFFFFFFFE0
FFE0000000
FFE0000000
FFE0000000
FFE0000000
FFE0000000
FFE0000000
FFE0000000
FFE0000000
FFE0000000
FFE0000000
FFE0000000
FFE0000000
FFE0000000
FFE0000000
FFE0000000
FFFFFFFFFC
FFFFFFFFFE
FFFFFFFFFF
FFFFFFFFFF
FFFFFFFFFF
7FFFFFFFFF
3FFFFFFFFE
1FFFFFFFFC
ENDCHAR
STARTCHAR F
ENCODING 70
SWIDTH 604 0
DWIDTH 43 0
BBX 36 52 5 -1
BITMAP
1FFFFFFFC0
3FFFFFFFE0
7FFFFFFFF0
FFFFFFFFF0
FFFFFFFFF0
FFFFFFFFF0
FFFFFFFFE0
FFFFFFFFC0
FFE0000000
FFE0000000
FFE0000000
FFE0000000
FFE0000000
FFE0000000
FFE0000000
FFE0000000
FFE0000000
FFE0000000
FFE0000000
FFE0000000
FFE0000000
FFFFFFFE00
FFFFFFFF00
FFFFFFFF00
FFFFFFFF80
FFFFFFFF00
FFFFFFFF00
FFFFFFFE00
FFE0000000
FFE0000000
FFE0000000
FFE0000000
FFE0000000
FFE0000000
FFE0000000
FFE0000000
FFE0000000
FFE0000000
FFE0000000
FFE0000000
FFE0000000
FFE0000000
FFE0000000
FFE0000000
FFE0000000
FFE0000000
FFE0000000
FFE0000000
FFE0000000
7FC0000000
3F80000000
1F00000000
ENDCHAR
STARTCHAR G
ENCODING 71
SWIDTH 791 0
DWIDTH 56 0
BBX 49 53 3 -1
BITMAP
000007FF000000
0000FFFFF00000
0003FFFFFC0000
000FFFFFFF0000
003FFFFFFFC000
007FFFFFFFE000
00FFFFFFFFF000
01FFFFFFFFF800
03FFFC03FFF800
07FFE000FFFC00
0FFFC0003FFC00
0FFF00001FFE00
1FFE00000FFE00
1FFE00000FFE00
3FFC000007FE00
3FF8000007FE00
7FF8000003FE00
7FF0000001FC00
7FF0000000F000
7FF00000000000
FFF00000000000
FFE00000000000
FFE00000000000
FFE00000000000
FFE00000000000
FFE00000000000
FFE0000FFFFC00
FFE0003FFFFF00
FFE0003FFFFF00
FFE0003FFFFF80
FFE0003FFFFF80
FFE0003FFFFF80
FFF0000FFFFF80
7FF0000001FF80
7FF0000001FF80
7FF0000001FF80
7FF8000001FF80
3FF8000001FF80
3FFC000001FF80
1FFE000001FF80
1FFE000001FF80
0FFF000001FF80
0FFFC00007FF80
07FFE0003FFF80
03FFFC01FFFF80
01FFFFFFFFFF00
00FFFFFFFFFE00
007FFFFFFFFC00
003FFFFFFFF000
000FFFFFFFC000
0003FFFFFF0000
0000FFFFF80000
00000FFF800000
ENDCHAR
STARTCHAR H
ENCODING 72
SWIDTH 759 0
DWIDTH 54 0
BBX 44 53 5 -1
BITMAP
1F0000000F80
3F8000001FC0
7FC000003FE0
FFE000007FF0
FFE000007FF0
FFE000007FF0
FFE000007FF0
FFE000007FF0
FFE000007FF0
FFE000007FF0
FFE000007FF0
FFE000007FF0
FFE000007FF0
FFE000007FF0
FFE000007FF0
FFE000007FF0
FFE000007FF0
FFE000007FF0
FFE000007FF0
FFE000007FF0
FFE000007FF0
FFFFFFFFFFF0
FFFFFFFFFFF0
FFFFFFFFFFF0
FFFFFFFFFFF0
FFFFFFFFFFF0
FFFFFFFFFFF0
FFFFFFFFFFF0
FFFFFFFFFFF0
FFE000007FF0
FFE000007FF0
FFE000007FF0
FFE000007FF0
FFE000007FF0
FFE000007FF0
FFE000007FF0
FFE000007FF0
FFE000007FF0
FFE000007FF0
FFE000007FF0
FFE000007FF0
FFE000007FF0
FFE000007FF0
FFE000007FF0
FFE000007FF0
FFE000007FF0
FFE000007FF0
FFE000007FF0
FFE000007FF0
FFE000007FF0
7FC000003FE0
3F8000001FC0
1F0000000F80
ENDCHAR
STARTCHAR I
ENCODING 73
SWIDTH 312 0
DWIDTH 22 0
BBX 11 53 6 -1
BITMAP
1F00
3F80
7FC0
FFE0
FFE0
FFE0
FFE0
FFE0
FFE0
FFE0
FFE0
FFE0
FFE0
FFE0
FFE0
FFE0
FFE0
FFE0
FFE0
FFE0
FFE0
FFE0
FFE0
FFE0
FFE0
FFE0
FFE0
FFE0
FFE0
FFE0
FFE0
FFE0
FFE0
FFE0
FFE0
FFE0
FFE0
FFE0
FFE0
FFE0
FFE0
FFE0
FFE0
FFE0
FFE0
FFE0
FFE0
FFE0
FFE0
FFE0
7FC0
3F80
1F00
ENDCHAR
STARTCHAR J
ENCODING 74
SWIDTH 573 0
DWIDTH 41 0
BBX 34 53 1 -1
BITMAP
0000003E00
0000007F00
000000FF80
000001FFC0
000001FFC0
000001FFC0
000001FFC0
000001FFC0
000001FFC0
000001FFC0
000001FFC0
000001FFC0
000001FFC0
000001FFC0
000001FFC0
000001FFC0
000001FFC0
000001FFC0
000001FFC0
000001FFC0
000001FFC0
000001FFC0
000001FFC0
000001FFC0
000001FFC0
000001FFC0
000001FFC0
000001FFC0
000001FFC0
000001FFC0
000001FFC0
000001FFC0
3E0001FFC0
7F0001FFC0
FF0001FFC0
FF8001FFC0
FF8001FFC0
FF8001FFC0
FF8001FFC0
FFC003FFC0
FFC003FF80
FFC003FF80
FFE007FF80
7FF00FFF00
7FF81FFF00
3FFFFFFF00
3FFFFFFE00
1FFFFFFC00
0FFFFFF800
07FFFFF000
03FFFFC000
00FFFF0000
001FF80000
ENDCHAR
STARTCHAR K
ENCODING 75
SWIDTH 740 0
DWIDTH 53 0
BBX 44 53 5 -1
BITMAP
1F0000003E00
3F8000007F00
7FC00000FF80
FFE00001FF80
FFE00003FF80
FFE00007FF80
FFE0000FFF80
FFE0001FFF00
FFE0003FFF00
FFE0007FFE00
FFE000FFFC00
FFE001FFF000
FFE003FFE000
FFE007FFC000
FFE00FFF8000
FFE01FFF0000
FFE03FFE0000
FFE07FFC0000
FFE0FFF80000
FFE1FFF00000
FFE3FFE00000
FFE7FFE00000
FFEFFFF00000
FFFFFFF00000
FFFFFFF80000
FFFFFFFC0000
FFFFFFFC0000
FFFFFFFE0000
FFFFEFFF0000
FFFFCFFF0000
FFFF87FF8000
FFFF03FFC000
FFFE03FFE000
FFFC01FFE000
FFF800FFF000
FFF000FFF800
FFE0007FF800
FFE0003FFC00
FFE0003FFE00
FFE0001FFE00
FFE0001FFF00
FFE0000FFF80
FFE00007FF80
FFE00007FFC0
FFE00003FFE0
FFE00001FFE0
FFE00001FFF0
FFE00000FFF0
FFE000007FF0
FFE000007FF0
7FC000003FF0
3F8000001FE0
1F0000000FC0
ENDCHAR
STARTCHAR L
ENCODING 76
SWIDTH 604 0
DWIDTH 43 0
BBX 37 52 5 0
BITMAP
1F00000000
3F80000000
7FC0000000
FFE0000000
FFE0000000
FFE0000000
FFE0000000
FFE0000000
FFE0000000
FFE0000000
FFE0000000
FFE0000000
FFE0000000
FFE0000000
FFE0000000
FFE0000000
FFE0000000
FFE0000000
FFE0000000
FFE0000000
FFE0000000
FFE0000000
FFE0000000
FFE0000000
FFE0000000
FFE0000000
FFE0000000
FFE0000000
FFE0000000
FFE0000000
FFE0000000
FFE0000000
FFE0000000
FFE0000000
FFE0000000
FFE0000000
FFE0000000
FFE0000000
FFE0000000
FFE0000000
FFE0000000
FFE0000000
FFE0000000
FFE0000000
FFFFFFFFE0
FFFFFFFFF0
FFFFFFFFF8
FFFFFFFFF8
FFFFFFFFF8
7FFFFFFFF8
3FFFFFFFF0
1FFFFFFFE0
ENDCHAR
STARTCHAR M
ENCODING 77
SWIDTH 833 0
DWIDTH 59 0
BBX 49 52 5 -1
BITMAP
1FFC00001FFC00
7FFE00003FFF00
7FFF00007FFF00
FFFF00007FFF80
FFFF80007FFF80
FFFF8000FFFF80
FFFF8000FFFF80
FFFFC000FFFF80
FFFFC001FFFF80
FFFFC001FFFF80
FFFFC001FFFF80
FFFFE001FFFF80
FFFFE003FFFF80
FFDFE003FDFF80
FFDFE003FDFF80
FFDFF003FDFF80
FFDFF007FDFF80
FFCFF007F9FF80
FFCFF007F9FF80
FFCFF807F9FF80
FFCFF80FF9FF80
FFC7F80FF1FF80
FFC7F80FF1FF80
FFC7FC1FF1FF80
FFC7FC1FF1FF80
FFC3FC1FF1FF80
FFC3FC1FE1FF80
FFC3FE3FE1FF80
FFC3FE3FE1FF80
FFC3FE3FE1FF80
FFC1FE3FC1FF80
FFC1FF7FC1FF80
FFC1FF7FC1FF80
FFC1FF7FC1FF80
FFC0FF7F81FF80
FFC0FFFF81FF80
FFC0FFFF81FF80
FFC0FFFF81FF80
FFC07FFF01FF80
FFC07FFF01FF80
FFC07FFF01FF80
FFC07FFF01FF80
FFC03FFE01FF80
FFC03FFE01FF80
FFC03FFE01FF80
FFC03FFE01FF80
FFC01FFC01FF80
FFC01FFC01FF80
FFC01FFC01FF80
7F800FF800FF00
7F8007F000FF00
1E0003E0003C00
ENDCHAR
STARTCHAR N
ENCODING 78
SWIDTH 759 0
DWIDTH 54 0
BBX 42 53 6 -1
BITMAP
0F8000001E00
3FC000007F80
7FE000007F80
7FF00000FFC0
FFF00000FFC0
FFF80000FFC0
FFFC0000FFC0
FFFC0000FFC0
FFFE0000FFC0
FFFF0000FFC0
FFFF0000FFC0
FFFF8000FFC0
FFFF8000FFC0
FFFFC000FFC0
FFFFE000FFC0
FFFFE000FFC0
FFFFF000FFC0
FFFFF000FFC0
FFDFF800FFC0
FFCFFC00FFC0
FFCFFC00FFC0
FFC7FE00FFC0
FFC7FF00FFC0
FFC3FF00FFC0
FFC1FF80FFC0
FFC1FF80FFC0
FFC0FFC0FFC0
FFC0FFE0FFC0
FFC07FE0FFC0
FFC03FF0FFC0
FFC03FF8FFC0
FFC01FF8FFC0
FFC01FFCFFC0
FFC00FFCFFC0
FFC007FEFFC0
FFC007FFFFC0
FFC003FFFFC0
FFC003FFFFC0
FFC001FFFFC0
FFC000FFFFC0
FFC000FFFFC0
FFC0007FFFC0
FFC0007FFFC0
FFC0003FFFC0
FFC0001FFFC0
FFC0001FFFC0
FFC0000FFFC0
FFC00007FFC0
FFC00007FFC0
FFC00003FFC0
7F800001FF80
7F800000FF00
1E0000007E00
ENDCHAR
STARTCHAR O
ENCODING 79
SWIDTH 791 0
DWIDTH 56 0
BBX 50 53 3 -1
BITMAP
00001FFE000000
0001FFFFE00000
0007FFFFF80000
001FFFFFFE0000
003FFFFFFF0000
00FFFFFFFFC000
01FFFFFFFFE000
03FFFFFFFFF000
07FFF807FFF800
07FFE001FFF800
0FFF80007FFC00
1FFF00003FFE00
1FFE00001FFE00
3FFC00000FFF00
3FFC00000FFF00
3FF8000007FF00
7FF8000007FF80
7FF0000003FF80
7FF0000003FF80
7FF0000003FF80
FFF0000003FFC0
FFE0000001FFC0
FFE0000001FFC0
FFE0000001FFC0
FFE0000001FFC0
FFE0000001FFC0
FFE0000001FFC0
FFE0000001FFC0
FFE0000001FFC0
FFE0000001FFC0
FFE0000001FFC0
FFE0000001FFC0
FFF0000003FFC0
7FF0000003FF80
7FF0000003FF80
7FF0000003FF80
7FF8000007FF80
3FF8000007FF00
3FFC00000FFF00
1FFC00000FFF00
1FFE00001FFE00
1FFF00003FFE00
0FFF80007FFC00
07FFE001FFF800
07FFF807FFF800
03FFFFFFFFF000
01FFFFFFFFE000
00FFFFFFFFC000
003FFFFFFF0000
001FFFFFFE0000
0007FFFFF80000
0001FFFFE00000
00001FFE000000
ENDCHAR
STARTCHAR P
ENCODING 80
SWIDTH 666 0
DWIDTH 47 0
BBX 40 52 5 -1
BITMAP
1FFFFFF000
3FFFFFFE00
7FFFFFFF80
FFFFFFFFE0
FFFFFFFFF0
FFFFFFFFF8
FFFFFFFFFC
FFE001FFFC
FFE0003FFE
FFE0001FFE
FFE0000FFE
FFE0000FFF
FFE00007FF
FFE00007FF
FFE00007FF
FFE00007FF
FFE00007FF
FFE00007FF
FFE0000FFF
FFE0000FFF
FFE0001FFE
FFE0003FFE
FFE001FFFE
FFFFFFFFFC
FFFFFFFFF8
FFFFFFFFF8
FFFFFFFFF0
FFFFFFFFC0
FFFFFFFF80
FFFFFFFC00
FFFFFFE000
FFE0000000
FFE0000000
FFE0000000
FFE0000000
FFE0000000
FFE0000000
FFE0000000
FFE0000000
FFE0000000
FFE0000000
FFE0000000
FFE0000000
FFE0000000
FFE0000000
FFE0000000
FFE0000000
FFE0000000
FFE0000000
7FC0000000
3F80000000
1F00000000
ENDCHAR
STARTCHAR Q
ENCODING 81
SWIDTH 791 0
DWIDTH 56 0
BBX 53 57 3 -5
BITMAP
00001FFE000000
0001FFFFE00000
0007FFFFF80000
001FFFFFFE0000
003FFFFFFF0000
00FFFFFFFFC000
01FFFFFFFFE000
03FFFFFFFFF000
07FFF807FFF800
07FFE001FFF800
0FFF80007FFC00
1FFF00003FFE00
1FFE00001FFE00
3FFC00000FFF00
3FFC00000FFF00
3FF8000007FF00
7FF8000007FF80
7FF0000003FF80
7FF0000003FF80
7FF0000003FF80
FFF0000003FFC0
FFE0000001FFC0
FFE0000001FFC0
FFE0000001FFC0
FFE0000001FFC0
FFE0000001FFC0
FFE0000001FFC0
FFE0000001FFC0
FFE0000001FFC0
FFE0000001FFC0
FFE0000001FFC0
FFE0000001FFC0
FFF0000003FFC0
7FF0000003FF80
7FF0000003FF80
7FF001E003FF80
7FF803F807FF80
3FF803FE07FF00
3FFC03FF0FFF00
3FFC01FFCFFE00
1FFE00FFFFFE00
1FFF003FFFFC00
0FFF800FFFFC00
07FFE007FFF800
07FFF80FFFF000
03FFFFFFFFF000
01FFFFFFFFF000
00FFFFFFFFFC00
007FFFFFFFFE00
001FFFFFFFFF80
0007FFFFFFFFE0
0001FFFFE3FFF0
00001FFC00FFF8
00000000003FF8
00000000001FF8
000000000007F0
000000000001E0
ENDCHAR
STARTCHAR R
ENCODING 82
SWIDTH 719 0
DWIDTH 51 0
BBX 43 52 5 -1
BITMAP
1FFFFFFE0000
7FFFFFFFC000
7FFFFFFFF000
FFFFFFFFF800
FFFFFFFFFC00
FFFFFFFFFE00
FFFFFFFFFF00
FFE0003FFF00
FFE0000FFF80
FFE00007FF80
FFE00003FFC0
FFE00003FFC0
FFE00001FFC0
FFE00001FFC0
FFE00001FFC0
FFE00001FFC0
FFE00001FFC0
FFE00003FFC0
FFE00003FF80
FFE00007FF80
FFE0000FFF00
FFE0007FFF00
FFFFFFFFFE00
FFFFFFFFFC00
FFFFFFFFF800
FFFFFFFFE000
FFFFFFFF8000
FFFFFFFC0000
FFFFFFFC0000
FFE03FFE0000
FFE00FFF0000
FFE007FF8000
FFE003FFC000
FFE001FFE000
FFE000FFF000
FFE000FFF800
FFE0007FF800
FFE0003FFC00
FFE0003FFE00
FFE0001FFE00
FFE0001FFF00
FFE0000FFF00
FFE00007FF80
FFE00007FF80
FFE00003FFC0
FFE00001FFC0
FFE00001FFE0
FFE00000FFE0
FFE00000FFE0
7FC000007FC0
3F8000003FC0
1F0000001F00
ENDCHAR
STARTCHAR S
ENCODING 83
SWIDTH 666 0
DWIDTH 47 0
BBX 40 53 4 -1
BITMAP
0003FF8000
001FFFF800
00FFFFFE00
01FFFFFF80
07FFFFFFC0
0FFFFFFFE0
0FFFFFFFF0
1FFF01FFF0
3FFC007FF8
3FF8003FF8
3FF0001FFC
7FE0000FFC
7FE0000FFC
7FE00007FC
7FE00007F8
7FF00003F8
7FF00001F0
7FF8000000
3FFE000000
3FFFC00000
3FFFFC0000
1FFFFF8000
0FFFFFF000
07FFFFFE00
03FFFFFF80
01FFFFFFC0
007FFFFFF0
001FFFFFF8
0003FFFFFC
00007FFFFC
000007FFFE
000000FFFE
0000001FFE
0000000FFF
3E000007FF
7F000007FF
FF800003FF
FFC00003FF
FFC00003FF
FFC00003FF
FFE00003FF
7FE00007FE
7FF00007FE
7FF8000FFE
3FFC003FFC
1FFF00FFFC
1FFFFFFFF8
0FFFFFFFF0
07FFFFFFE0
01FFFFFF80
00FFFFFF00
001FFFFC00
0003FFC000
ENDCHAR
STARTCHAR T
ENCODING 84
SWIDTH 625 0
DWIDTH 44 0
BBX 44 52 1 -1
BITMAP
3FFFFFFFFF80
FFFFFFFFFFE0
FFFFFFFFFFE0
FFFFFFFFFFE0
FFFFFFFFFFF0
FFFFFFFFFFE0
FFFFFFFFFFE0
3FFFFFFFFF80
0000FFE00000
0000FFE00000
0000FFE00000
0000FFE00000
0000FFE00000
0000FFE00000
0000FFE00000
0000FFE00000
0000FFE00000
0000FFE00000
0000FFE00000
0000FFE00000
0000FFE00000
0000FFE00000
0000FFE00000
0000FFE00000
0000FFE00000
0000FFE00000
0000FFE00000
0000FFE00000
0000FFE00000
0000FFE00000
0000FFE00000
0000FFE00000
0000FFE00000
0000FFE00000
0000FFE00000
0000FFE00000
0000FFE00000
0000FFE00000
0000FFE00000
0000FFE00000
0000FFE00000
0000FFE00000
0000FFE00000
0000FFE00000
0000FFE00000
0000FFE00000
0000FFE00000
0000FFE00000
0000FFE00000
00007FC00000
00003F800000
00001F000000
ENDCHAR
STARTCHAR U
ENCODING 85
SWIDTH 759 0
DWIDTH 54 0
BBX 44 53 5 -1
BITMAP
1F0000000F80
3F8000001FC0
7FC000003FE0
FFE000007FF0
FFE000007FF0
FFE000007FF0
FFE000007FF0
FFE000007FF0
FFE000007FF0
FFE000007FF0
FFE000007FF0
FFE000007FF0
FFE000007FF0
FFE000007FF0
FFE000007FF0
FFE000007FF0
FFE000007FF0
FFE000007FF0
FFE000007FF0
FFE000007FF0
FFE000007FF0
FFE000007FF0
FFE000007FF0
FFE000007FF0
FFE000007FF0
FFE000007FF0
FFE000007FF0
FFE000007FF0
FFE000007FF0
FFE000007FF0
FFE000007FF0
FFE000007FF0
FFE000007FF0
FFE000007FF0
FFE000007FF0
FFE000007FF0
FFE000007FF0
FFF00000FFF0
7FF00000FFE0
7FF00000FFE0
7FF80001FFE0
7FF80001FFE0
3FFC0003FFC0
3FFE0007FFC0
1FFFC03FFF80
1FFFFFFFFF80
0FFFFFFFFF00
07FFFFFFFE00
03FFFFFFFC00
01FFFFFFF000
007FFFFFE000
000FFFFF0000
0000FFF80000
ENDCHAR
STARTCHAR V
ENCODING 86
SWIDTH 687 0
DWIDTH 49 0
BBX 45 53 2 -1
BITMAP
1F00000003C0
7F80000007F0
7F8000000FF0
FFC000001FF8
FFC000001FF8
FFE000001FF8
FFE000003FF8
FFE000003FF0
7FF000003FF0
7FF000007FF0
3FF000007FE0
3FF800007FE0
3FF80000FFE0
1FF80000FFC0
1FFC0000FFC0
1FFC0001FFC0
0FFC0001FF80
0FFE0001FF80
07FE0003FF00
07FE0003FF00
07FF0003FF00
03FF0007FE00
03FF0007FE00
03FF8007FE00
01FF800FFC00
01FF800FFC00
01FFC00FF800
00FFC01FF800
00FFC01FF800
007FE01FF000
007FE03FF000
007FE03FF000
003FF03FE000
003FF07FE000
003FF07FC000
001FF87FC000
001FF8FFC000
000FFCFF8000
000FFCFF8000
000FFDFF8000
0007FFFF0000
0007FFFF0000
0007FFFF0000
0003FFFE0000
0003FFFE0000
0003FFFC0000
0001FFFC0000
0001FFFC0000
0000FFF80000
0000FFF80000
00007FF00000
00003FE00000
00000F800000
ENDCHAR
STARTCHAR W
ENCODING 87
SWIDTH 937 0
DWIDTH 67 0
BBX 64 53 1 -1
BITMAP
1E000007E0000078
7F00000FF00000FE
7F80001FF80001FE
FF80003FFC0001FF
FFC0003FFC0003FF
FFC0007FFE0003FF
FFC0007FFE0003FF
FFC0007FFE0003FF
7FE000FFFE0007FE
7FE000FFFF0007FE
7FE000FFFF0007FE
7FE000FFFF0007FE
3FE001FFFF8007FC
3FF001FFFF800FFC
3FF001FFFF800FFC
3FF001FFFF800FFC
1FF003FE7FC00FF8
1FF803FE7FC01FF8
1FF803FE7FC01FF8
1FF803FE3FC01FF8
0FF807FC3FE01FF8
0FF807FC3FE01FF0
0FFC07FC3FE03FF0
0FFC07F81FE03FF0
0FFC0FF81FF03FF0
07FC0FF81FF03FE0
07FE0FF81FF07FE0
07FE1FF00FF87FE0
07FE1FF00FF87FE0
03FE1FF00FF87FC0
03FE1FF007F87FC0
03FF3FE007FCFFC0
03FF3FE007FCFFC0
01FF3FE007FCFF80
01FF3FC003FCFF80
01FFFFC003FFFF80
01FFFFC003FFFF80
00FFFFC003FFFF00
00FFFF8001FFFF00
00FFFF8001FFFF00
00FFFF8001FFFF00
007FFF8000FFFE00
007FFF0000FFFE00
007FFF0000FFFE00
007FFF0000FFFE00
003FFE00007FFC00
003FFE00007FFC00
003FFE00007FFC00
003FFC00003FF800
001FFC00003FF800
001FF800001FF800
000FF800001FF000
0003E0000007C000
ENDCHAR
STARTCHAR X
ENCODING 88
SWIDTH 604 0
DWIDTH 43 0
BBX 41 53 1 -1
BITMAP
0F8000007C00
1FC00000FE00
3FE00001FF00
3FE00001FF00
3FF00003FF00
3FF80007FF00
3FF80007FF00
1FFC000FFE00
1FFC000FFE00
0FFE001FFC00
0FFF003FF800
07FF003FF800
03FF807FF000
03FF80FFE000
01FFC0FFE000
00FFE1FFC000
00FFE3FF8000
007FF3FF8000
003FF7FF0000
003FFFFE0000
001FFFFE0000
001FFFFC0000
000FFFF80000
0007FFF80000
0007FFF00000
0003FFE00000
0003FFF00000
0007FFF00000
000FFFF80000
001FFFFC0000
001FFFFC0000
003FFFFE0000
007FFFFF0000
007FF7FF0000
00FFF3FF8000
01FFE3FFC000
01FFC1FFC000
03FFC1FFE000
07FF80FFF000
0FFF007FF000
0FFF007FF800
1FFE003FFC00
3FFC001FFC00
3FFC001FFE00
7FF8000FFF00
7FF00007FF00
FFF00007FF80
FFE00003FF80
FFC00003FF80
FFC00001FF80
FF800000FF80
7F0000007F00
3E0000003E00
ENDCHAR
STARTCHAR Y
ENCODING 89
SWIDTH 625 0
DWIDTH 44 0
BBX 42 53 2 -1
BITMAP
3E0000001E00
7F0000003F80
FF8000007F80
FF800000FFC0
FFC00000FFC0
FFC00001FF80
FFE00003FF80
7FF00003FF80
7FF00007FF00
3FF80007FF00
3FFC000FFE00
1FFC001FFC00
0FFE001FFC00
0FFE003FF800
07FF007FF000
07FF807FF000
03FF80FFE000
01FFC0FFC000
01FFE1FFC000
00FFE3FF8000
007FF3FF0000
007FF7FF0000
003FFFFE0000
001FFFFC0000
001FFFFC0000
000FFFF80000
000FFFF80000
0007FFF00000
0003FFE00000
0003FFE00000
0001FFC00000
0001FFC00000
0001FFC00000
0001FFC00000
0001FFC00000
0001FFC00000
0001FFC00000
0001FFC00000
0001FFC00000
0001FFC00000
0001FFC00000
0001FFC00000
0001FFC00000
0001FFC00000
0001FFC00000
0001FFC00000
0001FFC00000
0001FFC00000
0001FFC00000
0001FFC00000
0000FF800000
00007F000000
00003E000000
ENDCHAR
STARTCHAR Z
ENCODING 90
SWIDTH 645 0
DWIDTH 46 0
BBX 45 51 0 0
BITMAP
07FFFFFFFF00
1FFFFFFFFF80
1FFFFFFFFFC0
1FFFFFFFFFC0
1FFFFFFFFFC0
1FFFFFFFFFC0
07FFFFFFFFC0
00000003FFC0
00000007FFC0
0000000FFF80
0000001FFF80
0000001FFF00
0000003FFE00
0000007FFC00
000000FFF800
000001FFF000
000001FFF000
000003FFE000
000007FFC000
00000FFF8000
00001FFF0000
00003FFF0000
00003FFE0000
00007FFC0000
0000FFF80000
0001FFF00000
0003FFE00000
0003FFE00000
0007FFC00000
000FFF800000
001FFF000000
003FFE000000
003FFC000000
007FFC000000
00FFF8000000
01FFF0000000
03FFE0000000
03FFC0000000
07FFC0000000
0FFF80000000
1FFF00000000
3FFE00000000
7FFC00000000
7FF800000000
FFFFFFFFFFE0
FFFFFFFFFFF0
FFFFFFFFFFF8
FFFFFFFFFFF8
7FFFFFFFFFF8
3FFFFFFFFFF0
1FFFFFFFFFE0
ENDCHAR
STARTCHAR bracketleft
ENCODING 91
SWIDTH 354 0
DWIDTH 25 0
BBX 19 65 5 -13
BITMAP
1FFF80
7FFFE0
7FFFE0
FFFFE0
FFFFE0
FFFFE0
FFFFC0
FF8000
FF8000
FF8000
FF8000
FF8000
FF8000
FF8000
FF8000
FF8000
FF8000
FF8000
FF8000
FF8000
FF8000
FF8000
FF8000
FF8000
FF8000
FF8000
FF8000
FF8000
FF8000
FF8000
FF8000
FF8000
FF8000
FF8000
FF8000
FF8000
FF8000
FF8000
FF8000
FF8000
FF8000
FF8000
FF8000
FF8000
FF8000
FF8000
FF8000
FF8000
FF8000
FF8000
FF8000
FF8000
FF8000
FF8000
FF8000
FF8000
FF8000
FF8000
FFFFC0
FFFFE0
FFFFE0
FFFFE0
7FFFE0
3FFFE0
1FFFC0
ENDCHAR
STARTCHAR backslash
ENCODING 92
SWIDTH 280 0
DWIDTH 20 0
BBX 18 53 1 -1
BITMAP
780000
FC0000
FE0000
FE0000
FE0000
FF0000
FF0000
7F0000
7F0000
7F8000
7F8000
3F8000
3F8000
3FC000
3FC000
1FC000
1FC000
1FC000
1FE000
0FE000
0FE000
0FE000
0FF000
07F000
07F000
07F000
07F800
03F800
03F800
03F800
03FC00
03FC00
01FC00
01FC00
01FE00
01FE00
00FE00
00FE00
00FF00
00FF00
007F00
007F00
007F00
007F80
003F80
003F80
003F80
003FC0
001FC0
001FC0
001FC0
000FC0
000780
ENDCHAR
STARTCHAR bracketright
ENCODING 93
SWIDTH 354 0
DWIDTH 25 0
BBX 19 65 1 -13
BITMAP
3FFF00
FFFF80
FFFFC0
FFFFE0
FFFFE0
FFFFE0
3FFFE0
003FE0
003FE0
003FE0
003FE0
003FE0
003FE0
003FE0
003FE0
003FE0
003FE0
003FE0
003FE0
003FE0
003FE0
003FE0
003FE0
003FE0
003FE0
003FE0
003FE0
003FE0
003FE0
003FE0
003FE0
003FE0
003FE0
003FE0
003FE0
003FE0
003FE0
003FE0
003FE0
003FE0
003FE0
003FE0
003FE0
003FE0
003FE0
003FE0
003FE0
003FE0
003FE0
003FE0
003FE0
003FE0
003FE0
003FE0
003FE0
003FE0
003FE0
003FE0
3FFFE0
FFFFE0
FFFFE0
FFFFE0
FFFFC0
FFFFC0
3FFF00
ENDCHAR
STARTCHAR asciicircum
ENCODING 94
SWIDTH 583 0
DWIDTH 41 0
BBX 33 27 4 25
BITMAP
0007F80000
000FF80000
000FFC0000
001FFC0000
001FFE0000
003FFE0000
003FFF0000
007FFF0000
007FFF8000
00FFFF8000
00FFFFC000
01FF7FC000
01FF3FE000
01FE3FE000
03FE3FF000
03FE1FF000
07FC1FF000
07FC0FF800
0FF80FF800
0FF80FFC00
1FF807FC00
1FF007FE00
3FF003FE00
3FE003FF00
7FE001FF00
7FE001FF80
FFC001FF80
ENDCHAR
STARTCHAR underscore
ENCODING 95
SWIDTH 500 0
DWIDTH 36 0
BBX 36 4 0 -9
BITMAP
FFFFFFFFF0
FFFFFFFFF0
FFFFFFFFF0
FFFFFFFFF0
ENDCHAR
STARTCHAR grave
ENCODING 96
SWIDTH 333 0
DWIDTH 24 0
BBX 14 10 3 41
BITMAP
FF80
FFC0
7FE0
3FE0
1FF0
0FF0
07F8
01FC
00FC
003C
ENDCHAR
STARTCHAR a
ENCODING 97
SWIDTH 594 0
DWIDTH 42 0
BBX 36 38 3 -1
BITMAP
000FFF0000
007FFFF000
01FFFFFC00
07FFFFFE00
0FFFFFFF00
1FFFFFFF00
1FFFFFFF80
3FFC03FF80
3FF000FF80
3FC000FFC0
3FC0007FC0
3F80007FC0
1F00007FC0
000001FFC0
00000FFFC0
0000FFFFC0
000FFFFFC0
00FFFFFFC0
07FFFFFFC0
0FFFFF7FC0
1FFFF07FC0
3FFF007FC0
7FF8007FC0
7FE0007FC0
FFE0007FC0
FFC0007FC0
FFC000FFC0
FFC000FFC0
FFC001FFC0
FFE003FFE0
FFF007FFE0
7FF81FFFE0
7FFFFFFFE0
3FFFFFBFF0
1FFFFE1FF0
0FFFFC1FE0
03FFF00FE0
00FF000380
ENDCHAR
STARTCHAR b
ENCODING 98
SWIDTH 625 0
DWIDTH 44 0
BBX 37 53 5 -1
BITMAP
3E00000000
7F00000000
7F00000000
FF80000000
FF80000000
FF80000000
FF80000000
FF80000000
FF80000000
FF80000000
FF80000000
FF80000000
FF80000000
FF80000000
FF80000000
FF807FC000
FF83FFF000
FF87FFFC00
FF9FFFFE00
FFBFFFFF00
FFFFFFFF80
FFFFFFFFC0
FFFF07FFC0
FFFC01FFE0
FFF800FFE0
FFF0007FF0
FFE0007FF0
FFE0003FF0
FFC0003FF8
FFC0003FF8
FFC0001FF8
FFC0001FF8
FFC0001FF8
FF80001FF8
FF80001FF8
FF80001FF8
FFC0001FF8
FFC0001FF8
FFC0001FF8
FFC0003FF0
FFC0003FF0
FFE0007FF0
FFF0007FF0
FFF000FFE0
FFFC01FFE0
FFFF07FFC0
FFFFFFFF80
FFBFFFFF80
FFBFFFFF00
FF9FFFFE00
FF87FFFC00
7F03FFF000
3E007F8000
ENDCHAR
STARTCHAR c
ENCODING 99
SWIDTH 594 0
DWIDTH 42 0
BBX 36 38 3 -1
BITMAP
0003FF0000
001FFFE000
007FFFF800
01FFFFFE00
03FFFFFF00
07FFFFFF80
0FFFFFFFC0
1FFF03FFE0
1FFC00FFE0
3FF8007FF0
3FF0003FF0
7FF0001FF0
7FE0000FE0
7FE00007E0
FFE0000380
FFC0000000
FFC0000000
FFC0000000
FFC0000000
FFC0000000
FFC0000000
FFC0000000
FFC0000180
FFC00003E0
7FE00007F0
7FE0000FF0
7FF0001FF0
7FF0001FF0
3FF8003FF0
3FFC007FF0
1FFF01FFE0
0FFFFFFFC0
07FFFFFFC0
03FFFFFF80
01FFFFFE00
007FFFFC00
001FFFF000
0003FF0000
ENDCHAR
STARTCHAR d
ENCODING 100
SWIDTH 625 0
DWIDTH 44 0
BBX 38 53 2 -1
BITMAP
00000001F0
00000003F8
00000003F8
00000007FC
00000007FC
00000007FC
00000007FC
00000007FC
00000007FC
00000007FC
00000007FC
00000007FC
00000007FC
00000007FC
00000007FC
000FF807FC
007FFF07FC
01FFFF87FC
03FFFFE7FC
07FFFFF7FC
0FFFFFFFFC
1FFFFFFFFC
1FFF03FFFC
3FFC00FFFC
3FF8007FFC
7FF0003FFC
7FF0001FFC
7FE0001FFC
FFE0000FFC
FFE0000FFC
FFC0000FFC
FFC0000FFC
FFC0000FFC
FFC0000FFC
FFC0000FFC
FFC0000FFC
FFC0000FFC
FFC0000FFC
FFC0000FFC
7FE0000FFC
7FE0001FFC
7FF0001FFC
3FF0003FFC
3FF8007FFC
3FFC00FFFC
1FFF03FFFC
0FFFFFFFFC
0FFFFFF7FC
07FFFFE7FC
03FFFFC7FC
00FFFF87F8
007FFE03F8
000FF001F0
ENDCHAR
STARTCHAR e
ENCODING 101
SWIDTH 594 0
DWIDTH 42 0
BBX 36 38 3 -1
BITMAP
0003FF0000
001FFFE000
007FFFF800
01FFFFFC00
03FFFFFE00
07FFFFFF00
0FFFFFFF80
1FFE03FFC0
1FF800FFE0
3FF0007FE0
3FE0003FE0
7FE0003FF0
7FE0001FF0
7FC0001FF0
FFC0001FF0
FFFFFFFFF0
FFFFFFFFF0
FFFFFFFFF0
FFFFFFFFF0
FFFFFFFFE0
FFFFFFFF80
FFC0000000
FFC0000000
FFC0000000
7FE0000000
7FE00003E0
7FE00007F0
3FF0000FF0
3FF8001FF0
1FFC007FE0
1FFF01FFE0
0FFFFFFFC0
07FFFFFFC0
03FFFFFF80
01FFFFFE00
007FFFFC00
001FFFF000
0003FF0000
ENDCHAR
STARTCHAR f
ENCODING 102
SWIDTH 333 0
DWIDTH 24 0
BBX 28 53 -1 -1
BITMAP
0001FF80
000FFFE0
003FFFF0
007FFFF0
00FFFFF0
00FFFFF0
00FFFFE0
01FFE000
01FFC000
01FF8000
01FF8000
01FF8000
01FF8000
01FF8000
01FF8000
3FFFFE00
7FFFFF00
FFFFFF80
FFFFFF80
FFFFFF80
7FFFFF00
3FFFFE00
01FF8000
01FF8000
01FF8000
01FF8000
01FF8000
01FF8000
01FF8000
01FF8000
01FF8000
01FF8000
01FF8000
01FF8000
01FF8000
01FF8000
01FF8000
01FF8000
01FF8000
01FF8000
01FF8000
01FF8000
01FF8000
01FF8000
01FF8000
01FF8000
01FF8000
01FF8000
01FF8000
01FF8000
00FF0000
00FF0000
003C0000
ENDCHAR
STARTCHAR g
ENCODING 103
SWIDTH 625 0
DWIDTH 44 0
BBX 37 52 3 -15
BITMAP
000FF003E0
007FFE07F0
01FFFF07F0
03FFFFCFF8
07FFFFEFF8
0FFFFFFFF8
1FFFFFFFF8
3FFF03FFF8
3FFC00FFF8
7FF8007FF8
7FF0003FF8
7FE0003FF8
7FE0001FF8
FFE0001FF8
FFC0001FF8
FFC0000FF8
FFC0000FF8
FFC0000FF8
FFC0000FF8
FFC0000FF8
FFC0000FF8
FFC0000FF8
FFC0000FF8
7FE0001FF8
7FE0001FF8
7FE0003FF8
7FF0003FF8
3FF8007FF8
3FFC00FFF8
1FFF03FFF8
1FFFFFFFF8
0FFFFFEFF8
07FFFFCFF8
03FFFF8FF8
01FFFF0FF8
007FFE0FF8
000FF00FF8
0000000FF8
0000001FF8
1F00001FF8
3F80001FF0
7FC0001FF0
7FE0003FF0
7FF0007FF0
3FFC03FFE0
3FFFFFFFE0
1FFFFFFFC0
0FFFFFFF80
07FFFFFF00
01FFFFFC00
007FFFF000
0007FF0000
ENDCHAR
STARTCHAR h
ENCODING 104
SWIDTH 604 0
DWIDTH 43 0
BBX 35 53 4 -1
BITMAP
1E00000000
7F80000000
7F80000000
FFC0000000
FFC0000000
FFC0000000
FFC0000000
FFC0000000
FFC0000000
FFC0000000
FFC0000000
FFC0000000
FFC0000000
FFC0000000
FFC0000000
FFC03FC000
FFC1FFF800
FFC7FFFC00
FFCFFFFF00
FFDFFFFF00
FFFFFFFF80
FFFFFFFFC0
FFFF07FFC0
FFFC01FFC0
FFF800FFE0
FFF000FFE0
FFE000FFE0
FFE0007FE0
FFC0007FE0
FFC0007FE0
FFC0007FE0
FFC0007FE0
FFC0007FE0
FFC0007FE0
FFC0007FE0
FFC0007FE0
FFC0007FE0
FFC0007FE0
FFC0007FE0
FFC0007FE0
FFC0007FE0
FFC0007FE0
FFC0007FE0
FFC0007FE0
FFC0007FE0
FFC0007FE0
FFC0007FE0
FFC0007FE0
FFC0007FE0
FFC0007FE0
7F80003FC0
7F80003FC0
3E00001F00
ENDCHAR
STARTCHAR i
ENCODING 105
SWIDTH 270 0
DWIDTH 19 0
BBX 10 52 5 -1
BITMAP
1E00
7F80
FFC0
FFC0
FFC0
FFC0
FFC0
7F80
1E00
0000
0000
0000
0000
0000
1E00
7F80
7F80
FFC0
FFC0
FFC0
FFC0
FFC0
FFC0
FFC0
FFC0
FFC0
FFC0
FFC0
FFC0
FFC0
FFC0
FFC0
FFC0
FFC0
FFC0
FFC0
FFC0
FFC0
FFC0
FFC0
FFC0
FFC0
FFC0
FFC0
FFC0
FFC0
FFC0
FFC0
FFC0
7F80
7F80
1E00
ENDCHAR
STARTCHAR j
ENCODING 106
SWIDTH 270 0
DWIDTH 19 0
BBX 20 66 -5 -15
BITMAP
000780
001FE0
003FF0
003FF0
003FF0
003FF0
003FF0
001FE0
000780
000000
000000
000000
000000
000000
000780
001FE0
001FF0
003FF0
003FF0
003FF0
003FF0
003FF0
003FF0
003FF0
003FF0
003FF0
003FF0
003FF0
003FF0
003FF0
003FF0
003FF0
003FF0
003FF0
003FF0
003FF0
003FF0
003FF0
003FF0
003FF0
003FF0
003FF0
003FF0
003FF0
003FF0
003FF0
003FF0
003FF0
003FF0
003FF0
003FF0
003FF0
003FF0
003FF0
003FF0
003FF0
007FF0
007FF0
7FFFF0
FFFFE0
FFFFE0
FFFFC0
FFFFC0
FFFF80
7FFE00
0FF800
ENDCHAR
STARTCHAR k
ENCODING 107
SWIDTH 573 0
DWIDTH 41 0
BBX 33 53 5 -1
BITMAP
1E00000000
7F80000000
7F80000000
FFC0000000
FFC0000000
FFC0000000
FFC0000000
FFC0000000
FFC0000000
FFC0000000
FFC0000000
FFC0000000
FFC0000000
FFC0000000
FFC0000000
FFC000F000
FFC001F800
FFC003FC00
FFC007FC00
FFC00FFC00
FFC01FFC00
FFC03FF800
FFC07FF000
FFC0FFE000
FFC1FFC000
FFC3FF8000
FFCFFF0000
FFDFFE0000
FFFFFC0000
FFFFFC0000
FFFFFC0000
FFFFFE0000
FFFFFF0000
FFFFFF0000
FFFFFF8000
FFFFFFC000
FFFCFFC000
FFF07FE000
FFE07FF000
FFC03FF000
FFC03FF800
FFC01FFC00
FFC00FFC00
FFC00FFE00
FFC007FE00
FFC003FF00
FFC003FF80
FFC001FF80
FFC001FF80
FFC000FF80
7F80007F80
7F80007F00
1E00001E00
ENDCHAR
STARTCHAR l
ENCODING 108
SWIDTH 270 0
DWIDTH 19 0
BBX 10 53 5 -1
BITMAP
1E00
7F80
7F80
FFC0
FFC0
FFC0
FFC0
FFC0
FFC0
FFC0
FFC0
FFC0
FFC0
FFC0
FFC0
FFC0
FFC0
FFC0
FFC0
FFC0
FFC0
FFC0
FFC0
FFC0
FFC0
FFC0
FFC0
FFC0
FFC0
FFC0
FFC0
FFC0
FFC0
FFC0
FFC0
FFC0
FFC0
FFC0
FFC0
FFC0
FFC0
FFC0
FFC0
FFC0
FFC0
FFC0
FFC0
FFC0
FFC0
FFC0
7F80
7F80
1E00
ENDCHAR
STARTCHAR m
ENCODING 109
SWIDTH 884 0
DWIDTH 63 0
BBX 55 38 4 -1
BITMAP
3E007F0001FE00
7F03FFE00FFF80
FF8FFFF03FFFE0
FF9FFFF87FFFF0
FFBFFFFCFFFFF8
FFFFFFFFFFFFFC
FFFFFFFFFFFFFC
FFFC1FFFF83FFC
FFF807FFE01FFE
FFF007FFC00FFE
FFE003FF8007FE
FFE003FF8007FE
FFE003FF8007FE
FFC003FF0007FE
FFC003FF0007FE
FFC003FF0007FE
FFC003FF0007FE
FFC003FF0007FE
FFC003FF0007FE
FFC003FF0007FE
FFC003FF0007FE
FFC003FF0007FE
FFC003FF0007FE
FFC003FF0007FE
FFC003FF0007FE
FFC003FF0007FE
FFC003FF0007FE
FFC003FF0007FE
FFC003FF0007FE
FFC003FF0007FE
FFC003FF0007FE
FFC003FF0007FE
FFC003FF0007FE
FFC003FF0007FE
FFC003FF0007FE
7F8001FE0003FC
7F8001FE0003FC
1E0000780000F0
ENDCHAR
STARTCHAR n
ENCODING 110
SWIDTH 604 0
DWIDTH 43 0
BBX 35 38 4 -1
BITMAP
3E003FC000
7F01FFF800
FF87FFFC00
FF8FFFFF00
FF9FFFFF00
FFBFFFFF80
FFFFFFFFC0
FFFF07FFC0
FFFC01FFC0
FFF800FFE0
FFF000FFE0
FFE000FFE0
FFE0007FE0
FFE0007FE0
FFC0007FE0
FFC0007FE0
FFC0007FE0
FFC0007FE0
FFC0007FE0
FFC0007FE0
FFC0007FE0
FFC0007FE0
FFC0007FE0
FFC0007FE0
FFC0007FE0
FFC0007FE0
FFC0007FE0
FFC0007FE0
FFC0007FE0
FFC0007FE0
FFC0007FE0
FFC0007FE0
FFC0007FE0
FFC0007FE0
FFC0007FE0
7F80003FC0
7F80003FC0
1E00000F00
ENDCHAR
STARTCHAR o
ENCODING 111
SWIDTH 604 0
DWIDTH 43 0
BBX 39 38 2 -1
BITMAP
0003FF8000
001FFFF000
007FFFFC00
01FFFFFF00
03FFFFFF80
07FFFFFFC0
0FFFFFFFE0
1FFF01FFF0
1FFC007FF0
3FF8003FF8
3FF0001FF8
7FF0001FFC
7FE0000FFC
7FE0000FFC
FFE0000FFE
FFC00007FE
FFC00007FE
FFC00007FE
FFC00007FE
FFC00007FE
FFC00007FE
FFC00007FE
FFC00007FE
FFC0000FFE
7FE0000FFC
7FE0000FFC
7FF0001FFC
3FF0001FF8
3FF8003FF8
1FFC007FF0
1FFF01FFF0
0FFFFFFFE0
07FFFFFFC0
03FFFFFF80
01FFFFFF00
007FFFFC00
001FFFF000
0003FF0000
ENDCHAR
STARTCHAR p
ENCODING 112
SWIDTH 625 0
DWIDTH 44 0
BBX 37 52 5 -15
BITMAP
3E007F8000
7F01FFF000
FF07FFFC00
FF8FFFFE00
FF9FFFFF00
FFBFFFFF80
FFFFFFFFC0
FFFF07FFC0
FFFC01FFE0
FFF800FFE0
FFF0007FF0
FFE0007FF0
FFE0003FF0
FFC0003FF0
FFC0003FF8
FFC0001FF8
FFC0001FF8
FFC0001FF8
FF80001FF8
FF80001FF8
FF80001FF8
FFC0001FF8
FFC0001FF8
FFC0003FF8
FFC0003FF0
FFE0003FF0
FFE0007FF0
FFF0007FF0
FFF800FFE0
FFFC01FFE0
FFFF07FFC0
FFFFFFFFC0
FFBFFFFF80
FFBFFFFF00
FF8FFFFE00
FF87FFF800
FF83FFF000
FF807F8000
FF80000000
FF80000000
FF80000000
FF80000000
FF80000000
FF80000000
FF80000000
FF80000000
FF80000000
FF80000000
FF80000000
FF00000000
7F00000000
3E00000000
ENDCHAR
STARTCHAR q
ENCODING 113
SWIDTH 625 0
DWIDTH 44 0
BBX 37 52 3 -15
BITMAP
000FF003E0
007FFE07F0
01FFFF0FF8
03FFFFCFF8
07FFFFEFF8
0FFFFFEFF8
1FFFFFFFF8
1FFF07FFF8
3FFC01FFF8
3FF800FFF8
7FF0007FF8
7FF0003FF8
7FE0003FF8
FFE0001FF8
FFC0001FF8
FFC0001FF8
FFC0001FF8
FFC0000FF8
FFC0000FF8
FFC0000FF8
FFC0001FF8
FFC0001FF8
FFC0001FF8
FFC0001FF8
7FE0001FF8
7FE0003FF8
7FF0003FF8
7FF0007FF8
3FF800FFF8
3FFC01FFF8
1FFF07FFF8
1FFFFFFFF8
0FFFFFFFF8
07FFFFEFF8
03FFFFCFF8
01FFFF0FF8
007FFE0FF8
000FF00FF8
0000000FF8
0000000FF8
0000000FF8
0000000FF8
0000000FF8
0000000FF8
0000000FF8
0000000FF8
0000000FF8
0000000FF8
0000000FF8
0000000FF0
00000007F0
00000003E0
ENDCHAR
STARTCHAR r
ENCODING 114
SWIDTH 437 0
DWIDTH 31 0
BBX 27 38 5 -1
BITMAP
1E01F800
7F07FF00
7F8FFF80
FF9FFFC0
FFFFFFC0
FFFFFFE0
FFFFFFC0
FFFFFFC0
FFFC0F80
FFF80000
FFF00000
FFF00000
FFE00000
FFE00000
FFE00000
FFE00000
FFC00000
FFC00000
FFC00000
FFC00000
FFC00000
FFC00000
FFC00000
FFC00000
FFC00000
FFC00000
FFC00000
FFC00000
FFC00000
FFC00000
FFC00000
FFC00000
FFC00000
FFC00000
FFC00000
7F800000
7F800000
1E000000
ENDCHAR
STARTCHAR s
ENCODING 115
SWIDTH 541 0
DWIDTH 38 0
BBX 32 38 3 -1
BITMAP
003FF000
01FFFF00
07FFFFC0
1FFFFFE0
3FFFFFF0
3FFFFFF8
7FF03FFC
7FC00FFC
FF8007FC
FF8003FC
FF8001FC
FFC000F8
FFE00000
FFF80000
7FFF0000
7FFFF000
3FFFFF00
1FFFFFC0
07FFFFF0
01FFFFF8
007FFFFC
000FFFFE
0000FFFE
00001FFF
380007FF
7C0003FF
FE0001FF
FF0001FF
FF8001FF
FF8003FE
FFE007FE
7FF80FFE
7FFFFFFC
3FFFFFF8
1FFFFFF0
07FFFFE0
01FFFF80
003FF800
ENDCHAR
STARTCHAR t
ENCODING 116
SWIDTH 354 0
DWIDTH 25 0
BBX 26 51 1 -1
BITMAP
00F00000
03FC0000
03FC0000
07FE0000
07FE0000
07FE0000
07FE0000
07FE0000
07FE0000
07FE0000
07FE0000
07FE0000
07FE0000
7FFFF800
FFFFFC00
FFFFFC00
FFFFFE00
FFFFFC00
FFFFFC00
7FFFF000
07FE0000
07FE0000
07FE0000
07FE0000
07FE0000
07FE0000
07FE0000
07FE0000
07FE0000
07FE0000
07FE0000
07FE0000
07FE0000
07FE0000
07FE0000
07FE0000
07FE0000
07FE0000
07FE0000
07FE0000
07FE0000
07FE0000
07FF0000
07FF0200
03FFFF80
03FFFFC0
03FFFFC0
01FFFFC0
00FFFF80
007FFF00
001FF800
ENDCHAR
STARTCHAR u
ENCODING 117
SWIDTH 604 0
DWIDTH 43 0
BBX 35 38 4 -1
BITMAP
1E00000F00
7F80003FC0
7F80003FC0
FFC0007FE0
FFC0007FE0
FFC0007FE0
FFC0007FE0
FFC0007FE0
FFC0007FE0
FFC0007FE0
FFC0007FE0
FFC0007FE0
FFC0007FE0
FFC0007FE0
FFC0007FE0
FFC0007FE0
FFC0007FE0
FFC0007FE0
FFC0007FE0
FFC0007FE0
FFC0007FE0
FFC0007FE0
FFC0007FE0
FFC0007FE0
FFC0007FE0
FFC000FFE0
FFE000FFE0
FFE001FFE0
FFF003FFE0
7FF007FFE0
7FFC1FFFE0
7FFFFFFFE0
3FFFFFBFE0
3FFFFF3FE0
1FFFFE3FE0
0FFFFC3FC0
03FFF01FC0
007F800F80
ENDCHAR
STARTCHAR v
ENCODING 118
SWIDTH 541 0
DWIDTH 38 0
BBX 35 38 2 -1
BITMAP
3E00000780
7F00001FC0
FF00001FE0
FF80003FE0
FF80003FE0
FFC0003FE0
7FC0007FC0
7FC0007FC0
7FE000FFC0
3FE000FF80
3FE000FF80
1FF001FF00
1FF001FF00
1FF801FF00
0FF803FE00
0FF803FE00
07FC07FC00
07FC07FC00
07FC07F800
03FE0FF800
03FE0FF800
01FE0FF000
01FF1FF000
01FF1FE000
00FFBFE000
00FFBFE000
007FBFC000
007FFFC000
003FFF8000
003FFF8000
003FFF8000
001FFF0000
001FFF0000
000FFE0000
000FFE0000
0007FC0000
0003F80000
0001F00000
ENDCHAR
STARTCHAR w
ENCODING 119
SWIDTH 812 0
DWIDTH 58 0
BBX 55 38 1 -1
BITMAP
3E00007C000078
7F0000FE0001FC
FF0001FF0001FE
FF8003FF8003FE
FF8003FF8003FE
FF8003FF8003FE
7FC007FFC003FE
7FC007FFC007FC
7FC007FFC007FC
3FC00FFFE007F8
3FE00FFFE00FF8
3FE00FFFE00FF8
1FE00FEFE00FF0
1FF01FEFF01FF0
1FF01FEFF01FF0
0FF01FCFF01FE0
0FF83FC7F83FE0
0FF83FC7F83FE0
07F83FC7F83FC0
07F87F83FC3FC0
07FC7F83FC7FC0
03FC7F83FC7F80
03FC7F01FC7F80
03FEFF01FEFF80
01FEFF01FEFF00
01FEFF01FEFF00
01FFFE00FFFF00
00FFFE00FFFE00
00FFFE00FFFE00
00FFFC007FFE00
007FFC007FFC00
007FFC007FFC00
003FF8003FF800
003FF8003FF800
003FF8003FF800
001FF0001FF000
000FF0000FE000
0007C00007C000
ENDCHAR
STARTCHAR x
ENCODING 120
SWIDTH 520 0
DWIDTH 37 0
BBX 33 38 2 -1
BITMAP
1E00003C00
3F8000FE00
7F8001FF00
7FC001FF00
7FE003FF00
7FF007FF00
3FF007FE00
1FF80FFC00
1FFC1FFC00
0FFE3FF800
07FE3FF000
03FF7FE000
03FFFFE000
01FFFFC000
00FFFF8000
007FFF0000
007FFF0000
003FFE0000
003FFE0000
007FFF0000
007FFF0000
00FFFF8000
01FFFFC000
03FFFFC000
03FF7FE000
07FF3FF000
0FFE3FF800
0FFC1FF800
1FF80FFC00
3FF80FFE00
3FF007FE00
7FE003FF00
FFE003FF00
FFC001FF80
FF8000FF80
FF0000FF80
7F00007F00
3C00001E00
ENDCHAR
STARTCHAR y
ENCODING 121
SWIDTH 541 0
DWIDTH 38 0
BBX 36 52 1 -15
BITMAP
0F000003C0
3F800007E0
7FC0000FF0
7FC0001FF0
7FC0001FF0
7FE0001FF0
7FE0003FE0
3FE0003FE0
3FF0003FE0
1FF0007FC0
1FF8007FC0
1FF8007FC0
0FF800FF80
0FFC00FF80
07FC01FF00
07FC01FF00
07FE01FF00
03FE03FE00
03FE03FE00
01FF03FC00
01FF07FC00
01FF07FC00
00FF87F800
00FF8FF800
007F8FF800
007FCFF000
007FDFF000
003FFFE000
003FFFE000
001FFFE000
001FFFC000
001FFFC000
000FFF8000
000FFF8000
0007FF8000
0007FF0000
0007FF0000
0003FE0000
0007FE0000
0007FE0000
000FFC0000
000FFC0000
001FF80000
001FF80000
003FF80000
7FFFF00000
FFFFF00000
FFFFE00000
FFFFC00000
FFFF800000
7FFF000000
1FF8000000
ENDCHAR
STARTCHAR z
ENCODING 122
SWIDTH 520 0
DWIDTH 37 0
BBX 36 37 1 0
BITMAP
1FFFFFFE00
3FFFFFFF80
7FFFFFFFC0
7FFFFFFFC0
7FFFFFFFC0
3FFFFFFFC0
1FFFFFFF80
000007FF80
00000FFF00
00001FFE00
00001FFC00
00003FF800
00007FF000
0000FFE000
0001FFC000
0003FFC000
0007FF8000
000FFF0000
000FFE0000
001FFC0000
003FF80000
007FF00000
00FFE00000
01FFC00000
03FFC00000
07FF800000
0FFF000000
1FFE000000
3FFC000000
3FF8000000
7FFFFFFFC0
FFFFFFFFE0
FFFFFFFFF0
FFFFFFFFF0
FFFFFFFFF0
7FFFFFFFE0
3FFFFFFFC0
ENDCHAR
STARTCHAR braceleft
ENCODING 123
SWIDTH 384 0
DWIDTH 27 0
BBX 24 67 2 -15
BITMAP
0001FC
0007FE
000FFF
001FFF
003FFF
007FFF
007FFF
00FFFE
00FFF8
00FFC0
00FFC0
00FF80
00FF80
00FF80
00FF80
00FF80
00FF80
00FF80
00FF80
00FF80
00FF80
00FF80
00FF80
01FF80
01FF80
01FF00
03FF00
07FF00
0FFE00
3FFE00
7FFC00
7FF800
FFF000
FFE000
FFF000
7FF800
7FFC00
1FFE00
0FFE00
07FF00
03FF00
01FF00
01FF80
01FF80
00FF80
00FF80
00FF80
00FF80
00FF80
00FF80
00FF80
00FF80
00FF80
00FF80
00FF80
00FF80
00FFC0
00FFC0
00FFF8
00FFFE
007FFF
007FFF
003FFF
001FFF
000FFF
0007FE
0001FC
ENDCHAR
STARTCHAR bar
ENCODING 124
SWIDTH 280 0
DWIDTH 20 0
BBX 8 67 6 -15
BITMAP
3C
7E
FF
FF
FF
FF
FF
FF
FF
FF
FF
FF
FF
FF
FF
FF
FF
FF
FF
FF
FF
FF
FF
FF
FF
FF
FF
FF
FF
FF
FF
FF
FF
FF
FF
FF
FF
FF
FF
FF
FF
FF
FF
FF
FF
FF
FF
FF
FF
FF
FF
FF
FF
FF
FF
FF
FF
FF
FF
FF
FF
FF
FF
FF
FF
7E
3C
ENDCHAR
STARTCHAR braceright
ENCODING 125
SWIDTH 384 0
DWIDTH 27 0
BBX 24 67 2 -15
BITMAP
3F8000
7FE000
FFF000
FFF800
FFFC00
FFFE00
FFFE00
7FFF00
1FFF00
03FF00
01FF00
01FF00
01FF00
01FF00
01FF00
01FF00
01FF00
01FF00
01FF00
01FF00
01FF00
01FF00
01FF00
01FF80
01FF80
00FF80
00FFC0
00FFE0
007FF0
007FFC
003FFE
001FFE
000FFF
0007FF
000FFF
001FFE
003FFE
007FFC
007FF0
00FFE0
00FFC0
00FF80
01FF80
01FF80
01FF00
01FF00
01FF00
01FF00
01FF00
01FF00
01FF00
01FF00
01FF00
01FF00
01FF00
01FF00
03FF00
03FF00
1FFF00
7FFF00
FFFE00
FFFE00
FFFC00
FFF800
FFF000
7FE000
3F8000
ENDCHAR
STARTCHAR asciitilde
ENCODING 126
SWIDTH 583 0
DWIDTH 41 0
BBX 37 13 2 18
BITMAP
03FE000008
0FFFC00018
3FFFF80038
7FFFFE00F8
FFFFFFFFF8
FFFFFFFFF8
FFFFFFFFF8
FFFFFFFFF8
FFFFFFFFF8
F801FFFFF0
E0007FFFE0
C0000FFF80
800001FC00
ENDCHAR
STARTCHAR nonbreakingspace
ENCODING 160
SWIDTH 250 0
DWIDTH 18 0
BBX 1 1 0 0
BITMAP
00
ENDCHAR
STARTCHAR degree
ENCODING 176
SWIDTH 395 0
DWIDTH 28 0
BBX 22 23 3 29
BITMAP
00FC00
03FF00
0FFFC0
1FFFE0
3FFFF0
3FFFF0
7F87F8
7F03F8
FE01FC
FC00FC
FC00FC
FC00FC
FC00FC
FC00FC
FE01FC
7F03F8
7F87F8
3FFFF0
3FFFF0
1FFFE0
0FFFC0
07FF80
00FC00
ENDCHAR
STARTCHAR ordmasculine
ENCODING 186
SWIDTH 384 0
DWIDTH 27 0
BBX 25 24 1 28
BITMAP
007F0000
03FFE000
0FFFF800
1FFFFC00
3FFFFE00
3FC1FE00
7F80FF00
7F007F00
FF007F80
FE003F80
FE003F80
FE003F80
FE003F80
FE003F80
FE003F80
FF007F80
7F007F00
7F80FF00
3FC1FE00
3FFFFE00
1FFFFC00
0FFFF800
03FFE000
00FF0000
ENDCHAR
STARTCHAR onequarter
ENCODING 188
SWIDTH 854 0
DWIDTH 61 0
BBX 58 54 2 -2
BITMAP
00000000001C0000
001E0000003C0000
003F0000007C0000
007F0000007C0000
00FF000000F80000
01FF000001F80000
07FF000001F00000
3FFF000003F00000
FFFF000007E00000
FF7F000007C00000
FC7F00000FC00000
707F00000F800000
007F00001F800000
007F00003F000000
007F00003E000000
007F00007E000000
007F0000FC000000
007F0000F8000000
007F0001F8000000
007F0001F0000000
007F0003F0000000
007F0007E0000000
007F0007C0000000
007F000FC0000000
007F001F80000000
007E001F80000000
003E003F00007800
0000003E0000FC00
0000007E0001FC00
000000FC0003FC00
000000F80007FC00
000001F8000FFC00
000003F0001FFC00
000003F0003FFC00
000007E0007FFC00
000007C000FEFC00
00000FC001FCFC00
00001F8001F8FC00
00001F8003F0FC00
00003F0007E0FC00
00007E000FC0FC00
00007E001F80FC00
0000FC003FFFFF80
0000F8003FFFFFC0
0001F8003FFFFFC0
0003F0003FFFFFC0
0003F0001FFFFF80
0007E0000000FC00
0007C0000000FC00
000FC0000000FC00
001F80000000FC00
001F80000000FC00
001F000000003000
000E000000000000
ENDCHAR
STARTCHAR onehalf
ENCODING 189
SWIDTH 854 0
DWIDTH 61 0
BBX 57 54 2 -2
BITMAP
0000000000380000
001E000000780000
003F000000F80000
007F000000F80000
00FF000001F00000
01FF000003F00000
07FF000003E00000
3FFF000007E00000
FFFF000007C00000
FF7F00000F800000
FC7F00001F800000
707F00001F000000
007F00003F000000
007F00007E000000
007F00007C000000
007F0000FC000000
007F0000F8000000
007F0001F0000000
007F0003F0000000
007F0003E0000000
007F0007E0000000
007F000FC0000000
007F000F80000000
007F001F80000000
007F001F00000000
007F003F00000000
003E007E003FE000
0008007C00FFF800
000000FC03FFFE00
000000F807FFFF00
000001F00FFFFF00
000003F00FE0FF80
000003E00FC07F80
000007E01FC03F80
00000FC01F803F80
00000F800F803F80
00001F8007007F00
00001F000000FF00
00003E000001FE00
00007E000003FC00
00007C00000FF800
0000FC00001FE000
0001F800007FC000
0001F00000FF0000
0003F00001FE0000
0003E00003F80000
0007E00007F00000
000FC0000FFFFF00
000F80001FFFFF80
001F80001FFFFF80
001F00000FFFFF80
003E000007FFFF00
003E000000000000
001C000000000000
ENDCHAR
STARTCHAR threequarters
ENCODING 190
SWIDTH 854 0
DWIDTH 61 0
BBX 58 53 2 -2
BITMAP
03FE0000000E0000
0FFF8000001F0000
3FFFE000003F0000
7FFFF000003E0000
7FFFF000007E0000
7E07F000007C0000
7C03F80000FC0000
7807F00001F80000
000FF00001F00000
03FFE00003F00000
03FFC00007E00000
07FFC00007C00000
07FFE0000FC00000
03FFF0001F800000
0007F8001F800000
0003FC003F000000
7001FC003E000000
F801FC007E000000
F801FC00FC000000
FC01FC00F8000000
FE03FC01F8000000
FF0FF803F0000000
7FFFF003F0000000
3FFFE007E0000000
1FFFC007C0000000
0FFF800FC0007800
03FC001F8000FC00
0000001F0001FC00
0000003F0003FC00
0000007E0007FC00
0000007C000FFC00
000000FC001FFC00
000001F8003FFC00
000001F8007FFC00
000003F000FEFC00
000003E000FCFC00
000007E001F8FC00
00000FC003F0FC00
00000F8007E0FC00
00001F800FC0FC00
00003F001F80FC00
00003F003FFFFF80
00007E003FFFFFC0
00007C003FFFFFC0
0000FC003FFFFFC0
0001F8000FFFFF80
0001F0000000FC00
0003F0000000FC00
0007E0000000FC00
0007C0000000FC00
000FC0000000FC00
000F800000007000
0007000000000000
ENDCHAR
ENDFONT
