STARTFONT 2.1
FONT -FontForge-Arial Narrow-Bold-R-Normal--21-200-75-75-P-95-ISO10646-1
SIZE 20 75 75
FONTBOUNDINGBOX 18 22 -1 -4
COMMENT "Generated by fontforge, http://fontforge.sourceforge.net"
COMMENT "(c) 2008 The Monotype Corporation. All Rights Reserved."
STARTPROPERTIES 40
FOUNDRY "FontForge"
FAMILY_NAME "Arial Narrow"
WEIGHT_NAME "Bold"
SLANT "R"
SETWIDTH_NAME "Normal"
ADD_STYLE_NAME ""
PIXEL_SIZE 21
POINT_SIZE 200
RESOLUTION_X 75
RESOLUTION_Y 75
SPACING "P"
AVERAGE_WIDTH 95
CHARSET_REGISTRY "ISO10646"
CHARSET_ENCODING "1"
FONTNAME_REGISTRY ""
CHARSET_COLLECTIONS "ISO10646-1"
FONT_NAME "ArialNarrow-Bold"
FACE_NAME "Arial Narrow Bold"
COPYRIGHT "(c) 2008 The Monotype Corporation. All Rights Reserved."
FONT_VERSION "2.40"
FONT_ASCENT 17
FONT_DESCENT 4
UNDERLINE_POSITION -3
UNDERLINE_THICKNESS 2
X_HEIGHT 10
CAP_HEIGHT 14
RAW_ASCENT 799
RAW_DESCENT 200
NORM_SPACE 5
RELATIVE_WEIGHT 70
RELATIVE_SETWIDTH 30
SUPERSCRIPT_X 0
SUPERSCRIPT_Y 5
SUPERSCRIPT_SIZE 13
SUBSCRIPT_X 0
SUBSCRIPT_Y 1
SUBSCRIPT_SIZE 13
FIGURE_WIDTH 10
AVG_LOWERCASE_WIDTH 94
AVG_UPPERCASE_WIDTH 116
ENDPROPERTIES
CHARS 126
STARTCHAR space
ENCODING 32
SWIDTH 228 0
DWIDTH 5 0
BBX 1 1 0 0
BITMAP
00
ENDCHAR
STARTCHAR exclam
ENCODING 33
SWIDTH 272 0
DWIDTH 6 0
BBX 3 15 1 0
BITMAP
E0
E0
E0
E0
E0
E0
E0
E0
40
40
40
40
00
E0
E0
ENDCHAR
STARTCHAR quotedbl
ENCODING 34
SWIDTH 389 0
DWIDTH 8 0
BBX 7 5 0 10
BITMAP
EE
EE
EE
EE
EE
ENDCHAR
STARTCHAR numbersign
ENCODING 35
SWIDTH 456 0
DWIDTH 10 0
BBX 9 15 0 0
BITMAP
3300
3300
3300
3300
FF80
FF80
3300
7700
6600
FF80
FF80
6600
6600
6600
6600
ENDCHAR
STARTCHAR dollar
ENCODING 36
SWIDTH 456 0
DWIDTH 10 0
BBX 8 18 1 -2
BITMAP
10
3C
7E
D7
D3
D0
F0
78
7E
1F
17
D3
D3
77
7E
3C
10
10
ENDCHAR
STARTCHAR percent
ENCODING 37
SWIDTH 729 0
DWIDTH 15 0
BBX 14 15 1 0
BITMAP
7060
F860
D8C0
D8C0
D980
D980
FB00
7338
037C
066C
066C
0C6C
0C6C
187C
1838
ENDCHAR
STARTCHAR ampersand
ENCODING 38
SWIDTH 591 0
DWIDTH 12 0
BBX 11 15 1 0
BITMAP
1F00
3F80
3B80
3B80
3B80
1F00
1E00
3E00
7F60
E7C0
E3C0
E3C0
E3E0
7FE0
3E40
ENDCHAR
STARTCHAR quotesingle
ENCODING 39
SWIDTH 194 0
DWIDTH 4 0
BBX 3 5 0 10
BITMAP
E0
E0
E0
E0
E0
ENDCHAR
STARTCHAR parenleft
ENCODING 40
SWIDTH 272 0
DWIDTH 6 0
BBX 5 19 1 -4
BITMAP
18
30
30
70
70
E0
E0
E0
E0
E0
E0
E0
E0
60
70
70
30
30
18
ENDCHAR
STARTCHAR parenright
ENCODING 41
SWIDTH 272 0
DWIDTH 6 0
BBX 5 19 0 -4
BITMAP
C0
60
60
70
70
30
38
38
38
38
38
38
38
30
70
70
60
60
C0
ENDCHAR
STARTCHAR asterisk
ENCODING 42
SWIDTH 318 0
DWIDTH 7 0
BBX 6 7 0 8
BITMAP
30
30
FC
78
30
78
48
ENDCHAR
STARTCHAR plus
ENCODING 43
SWIDTH 479 0
DWIDTH 10 0
BBX 7 11 1 2
BITMAP
38
38
38
38
FE
FE
FE
38
38
38
38
ENDCHAR
STARTCHAR comma
ENCODING 44
SWIDTH 228 0
DWIDTH 5 0
BBX 3 5 1 -3
BITMAP
E0
E0
60
E0
C0
ENDCHAR
STARTCHAR hyphen
ENCODING 45
SWIDTH 272 0
DWIDTH 6 0
BBX 4 2 1 4
BITMAP
F0
F0
ENDCHAR
STARTCHAR period
ENCODING 46
SWIDTH 228 0
DWIDTH 5 0
BBX 3 2 1 0
BITMAP
E0
E0
ENDCHAR
STARTCHAR slash
ENCODING 47
SWIDTH 228 0
DWIDTH 5 0
BBX 5 15 0 0
BITMAP
38
38
38
38
70
70
70
70
70
70
70
E0
E0
E0
E0
ENDCHAR
STARTCHAR zero
ENCODING 48
SWIDTH 456 0
DWIDTH 10 0
BBX 8 15 1 0
BITMAP
3C
7E
66
E7
E7
E7
E7
E7
E7
E7
E7
E7
66
7E
3C
ENDCHAR
STARTCHAR one
ENCODING 49
SWIDTH 456 0
DWIDTH 10 0
BBX 6 15 1 0
BITMAP
0C
1C
3C
7C
DC
9C
1C
1C
1C
1C
1C
1C
1C
1C
1C
ENDCHAR
STARTCHAR two
ENCODING 50
SWIDTH 456 0
DWIDTH 10 0
BBX 9 15 0 0
BITMAP
3E00
7F00
E380
E380
0380
0380
0780
0F00
1E00
1E00
3C00
7800
7000
FF80
FF80
ENDCHAR
STARTCHAR three
ENCODING 51
SWIDTH 456 0
DWIDTH 10 0
BBX 8 15 1 0
BITMAP
3C
7E
E7
E7
07
0F
1E
1E
07
07
07
E7
E7
7E
3C
ENDCHAR
STARTCHAR four
ENCODING 52
SWIDTH 456 0
DWIDTH 10 0
BBX 9 15 1 0
BITMAP
0E00
0E00
1E00
1E00
3E00
3E00
2E00
6E00
4E00
CE00
FF80
FF80
0E00
0E00
0E00
ENDCHAR
STARTCHAR five
ENCODING 53
SWIDTH 456 0
DWIDTH 10 0
BBX 8 15 1 0
BITMAP
7E
7E
60
60
C0
FC
FE
CF
07
07
07
E7
E6
7E
3C
ENDCHAR
STARTCHAR six
ENCODING 54
SWIDTH 456 0
DWIDTH 10 0
BBX 8 15 1 0
BITMAP
1C
7E
67
E7
E0
E0
FC
FE
E7
E7
E7
E7
67
7E
3C
ENDCHAR
STARTCHAR seven
ENCODING 55
SWIDTH 456 0
DWIDTH 10 0
BBX 8 15 1 0
BITMAP
FF
FF
07
06
0E
0E
1C
1C
1C
1C
38
38
38
38
38
ENDCHAR
STARTCHAR eight
ENCODING 56
SWIDTH 456 0
DWIDTH 10 0
BBX 8 15 1 0
BITMAP
3C
7E
E7
E7
E7
E6
3C
3C
66
E7
E7
E7
E7
7E
3C
ENDCHAR
STARTCHAR nine
ENCODING 57
SWIDTH 456 0
DWIDTH 10 0
BBX 8 15 1 0
BITMAP
3C
7E
E6
E7
E7
E7
E7
7F
3F
07
07
E7
E6
7E
38
ENDCHAR
STARTCHAR colon
ENCODING 58
SWIDTH 272 0
DWIDTH 6 0
BBX 3 11 2 0
BITMAP
E0
E0
00
00
00
00
00
00
00
E0
E0
ENDCHAR
STARTCHAR semicolon
ENCODING 59
SWIDTH 272 0
DWIDTH 6 0
BBX 3 14 2 -3
BITMAP
E0
E0
00
00
00
00
00
00
00
E0
E0
60
E0
C0
ENDCHAR
STARTCHAR less
ENCODING 60
SWIDTH 479 0
DWIDTH 10 0
BBX 8 9 1 2
BITMAP
03
3F
FF
FC
C0
FC
FF
3F
03
ENDCHAR
STARTCHAR equal
ENCODING 61
SWIDTH 479 0
DWIDTH 10 0
BBX 8 8 1 3
BITMAP
FF
FF
FF
00
00
FF
FF
FF
ENDCHAR
STARTCHAR greater
ENCODING 62
SWIDTH 479 0
DWIDTH 10 0
BBX 8 9 1 2
BITMAP
C0
FC
FF
3F
03
3F
FF
FC
C0
ENDCHAR
STARTCHAR question
ENCODING 63
SWIDTH 500 0
DWIDTH 11 0
BBX 9 15 1 0
BITMAP
3E00
7F00
7380
E380
E380
0380
0780
0F00
1E00
1E00
1C00
1C00
0000
1C00
1C00
ENDCHAR
STARTCHAR at
ENCODING 64
SWIDTH 799 0
DWIDTH 17 0
BBX 17 19 0 -4
BITMAP
03F000
0FF800
1C1C00
300E00
700600
61DB00
E3FB00
C67300
CE3300
CC3300
CC6700
CC6600
CCEC00
6FFC00
66F180
300300
3C0E00
0FFC00
03F000
ENDCHAR
STARTCHAR A
ENCODING 65
SWIDTH 591 0
DWIDTH 12 0
BBX 11 15 0 0
BITMAP
1F00
1F00
1F00
1B00
3B80
3B80
3B80
3B80
3180
7FC0
7FC0
71C0
71C0
E0E0
E0E0
ENDCHAR
STARTCHAR B
ENCODING 66
SWIDTH 591 0
DWIDTH 12 0
BBX 10 15 1 0
BITMAP
FF00
FF80
E1C0
E1C0
E1C0
E180
FF80
FF80
E1C0
E1C0
E1C0
E1C0
E1C0
FF80
FF00
ENDCHAR
STARTCHAR C
ENCODING 67
SWIDTH 591 0
DWIDTH 12 0
BBX 11 15 1 0
BITMAP
1F00
3FC0
71C0
70E0
E0C0
E000
E000
E000
E000
E000
E0C0
70E0
71C0
3FC0
1F00
ENDCHAR
STARTCHAR D
ENCODING 68
SWIDTH 591 0
DWIDTH 12 0
BBX 10 15 1 0
BITMAP
FE00
FF00
E380
E180
E1C0
E1C0
E1C0
E1C0
E1C0
E1C0
E1C0
E180
E380
FF00
FE00
ENDCHAR
STARTCHAR E
ENCODING 69
SWIDTH 546 0
DWIDTH 11 0
BBX 9 15 1 0
BITMAP
FF80
FF80
E000
E000
E000
E000
FF80
FF80
E000
E000
E000
E000
E000
FF80
FF80
ENDCHAR
STARTCHAR F
ENCODING 70
SWIDTH 500 0
DWIDTH 11 0
BBX 9 15 1 0
BITMAP
FF80
FF80
E000
E000
E000
E000
FF00
FF00
E000
E000
E000
E000
E000
E000
E000
ENDCHAR
STARTCHAR G
ENCODING 71
SWIDTH 638 0
DWIDTH 13 0
BBX 11 15 1 0
BITMAP
1F00
3FC0
71C0
70E0
E0E0
E000
E000
E3E0
E3E0
E0E0
E0E0
70E0
71E0
3FC0
0F00
ENDCHAR
STARTCHAR H
ENCODING 72
SWIDTH 591 0
DWIDTH 12 0
BBX 10 15 1 0
BITMAP
E1C0
E1C0
E1C0
E1C0
E1C0
E1C0
FFC0
FFC0
E1C0
E1C0
E1C0
E1C0
E1C0
E1C0
E1C0
ENDCHAR
STARTCHAR I
ENCODING 73
SWIDTH 228 0
DWIDTH 5 0
BBX 3 15 1 0
BITMAP
E0
E0
E0
E0
E0
E0
E0
E0
E0
E0
E0
E0
E0
E0
E0
ENDCHAR
STARTCHAR J
ENCODING 74
SWIDTH 456 0
DWIDTH 10 0
BBX 9 15 0 0
BITMAP
0380
0380
0380
0380
0380
0380
0380
0380
0380
0380
E380
E380
F380
7F00
3E00
ENDCHAR
STARTCHAR K
ENCODING 75
SWIDTH 591 0
DWIDTH 12 0
BBX 11 15 1 0
BITMAP
E0E0
E1C0
E380
E780
E700
EE00
FF00
FF00
F700
E380
E380
E1C0
E1C0
E0E0
E0E0
ENDCHAR
STARTCHAR L
ENCODING 76
SWIDTH 500 0
DWIDTH 11 0
BBX 9 15 1 0
BITMAP
E000
E000
E000
E000
E000
E000
E000
E000
E000
E000
E000
E000
E000
FF80
FF80
ENDCHAR
STARTCHAR M
ENCODING 77
SWIDTH 683 0
DWIDTH 15 0
BBX 13 15 1 0
BITMAP
F078
F078
F078
F8F8
F8F8
E8B8
E8B8
EDB8
EDB8
EDB8
E538
E738
E738
E738
E738
ENDCHAR
STARTCHAR N
ENCODING 78
SWIDTH 591 0
DWIDTH 12 0
BBX 10 15 1 0
BITMAP
E1C0
F1C0
F1C0
F1C0
F9C0
F9C0
EDC0
EDC0
EDC0
E7C0
E7C0
E7C0
E3C0
E3C0
E1C0
ENDCHAR
STARTCHAR O
ENCODING 79
SWIDTH 638 0
DWIDTH 13 0
BBX 11 15 1 0
BITMAP
1F00
3F80
71C0
71C0
E0E0
E0E0
E0E0
E0E0
E0E0
E0E0
E0E0
71C0
71C0
3F80
1F00
ENDCHAR
STARTCHAR P
ENCODING 80
SWIDTH 546 0
DWIDTH 11 0
BBX 9 15 1 0
BITMAP
FE00
FF00
E380
E380
E380
E380
E380
FF00
FE00
E000
E000
E000
E000
E000
E000
ENDCHAR
STARTCHAR Q
ENCODING 81
SWIDTH 638 0
DWIDTH 13 0
BBX 12 16 1 -1
BITMAP
1F00
3F80
71C0
71C0
E0E0
E0E0
E0E0
E0E0
E0E0
E0E0
E6E0
77C0
73C0
3FC0
1F70
0020
ENDCHAR
STARTCHAR R
ENCODING 82
SWIDTH 591 0
DWIDTH 12 0
BBX 11 15 1 0
BITMAP
FF00
FF80
E1C0
E1C0
E1C0
E1C0
E1C0
FF80
FF00
E700
E380
E380
E1C0
E1C0
E0E0
ENDCHAR
STARTCHAR S
ENCODING 83
SWIDTH 546 0
DWIDTH 11 0
BBX 10 15 0 0
BITMAP
3E00
7F80
F380
E1C0
E1C0
F000
7E00
7F80
1FC0
03C0
E1C0
E1C0
73C0
7F80
1F00
ENDCHAR
STARTCHAR T
ENCODING 84
SWIDTH 500 0
DWIDTH 11 0
BBX 11 15 0 0
BITMAP
FFE0
FFE0
0E00
0E00
0E00
0E00
0E00
0E00
0E00
0E00
0E00
0E00
0E00
0E00
0E00
ENDCHAR
STARTCHAR U
ENCODING 85
SWIDTH 591 0
DWIDTH 12 0
BBX 10 15 1 0
BITMAP
E1C0
E1C0
E1C0
E1C0
E1C0
E1C0
E1C0
E1C0
E1C0
E1C0
E1C0
E1C0
F3C0
7F80
3F00
ENDCHAR
STARTCHAR V
ENCODING 86
SWIDTH 546 0
DWIDTH 11 0
BBX 11 15 0 0
BITMAP
E0E0
E0E0
71C0
71C0
71C0
71C0
71C0
3B80
3B80
3B80
3B80
1F00
1F00
1F00
1F00
ENDCHAR
STARTCHAR W
ENCODING 87
SWIDTH 773 0
DWIDTH 16 0
BBX 16 15 0 0
BITMAP
E187
E1C7
E3C7
E3C7
73CE
73CE
766E
766E
766E
766E
766E
3E7C
3C3C
3C3C
3C3C
ENDCHAR
STARTCHAR X
ENCODING 88
SWIDTH 546 0
DWIDTH 11 0
BBX 11 15 0 0
BITMAP
E0E0
71C0
71C0
3B80
3B80
1F00
1F00
0E00
1F00
1F00
3B80
3B80
71C0
71C0
E0E0
ENDCHAR
STARTCHAR Y
ENCODING 89
SWIDTH 546 0
DWIDTH 11 0
BBX 11 15 0 0
BITMAP
E0E0
71C0
71C0
3B80
3B80
1F00
1F00
0E00
0E00
0E00
0E00
0E00
0E00
0E00
0E00
ENDCHAR
STARTCHAR Z
ENCODING 90
SWIDTH 500 0
DWIDTH 11 0
BBX 9 15 1 0
BITMAP
7F80
7F80
0380
0700
0700
0E00
1C00
1C00
3800
3800
7000
7000
E000
FF80
FF80
ENDCHAR
STARTCHAR bracketleft
ENCODING 91
SWIDTH 272 0
DWIDTH 6 0
BBX 5 19 1 -4
BITMAP
F8
F8
E0
E0
E0
E0
E0
E0
E0
E0
E0
E0
E0
E0
E0
E0
E0
F8
F8
ENDCHAR
STARTCHAR backslash
ENCODING 92
SWIDTH 228 0
DWIDTH 5 0
BBX 5 15 0 0
BITMAP
E0
E0
E0
E0
70
70
70
70
70
70
70
38
38
38
38
ENDCHAR
STARTCHAR bracketright
ENCODING 93
SWIDTH 272 0
DWIDTH 6 0
BBX 5 19 0 -4
BITMAP
F8
F8
38
38
38
38
38
38
38
38
38
38
38
38
38
38
38
F8
F8
ENDCHAR
STARTCHAR asciicircum
ENCODING 94
SWIDTH 479 0
DWIDTH 10 0
BBX 9 8 1 7
BITMAP
3E00
3E00
3E00
7700
7700
7700
E380
E380
ENDCHAR
STARTCHAR underscore
ENCODING 95
SWIDTH 456 0
DWIDTH 10 0
BBX 10 1 0 -3
BITMAP
FFC0
ENDCHAR
STARTCHAR grave
ENCODING 96
SWIDTH 272 0
DWIDTH 6 0
BBX 3 2 1 12
BITMAP
C0
60
ENDCHAR
STARTCHAR a
ENCODING 97
SWIDTH 456 0
DWIDTH 10 0
BBX 8 11 1 0
BITMAP
3E
7F
E7
07
0F
7F
F7
E7
E7
FF
77
ENDCHAR
STARTCHAR b
ENCODING 98
SWIDTH 500 0
DWIDTH 11 0
BBX 9 15 1 0
BITMAP
E000
E000
E000
E000
EE00
FF00
F780
E380
E380
E380
E380
E380
F780
FF00
EE00
ENDCHAR
STARTCHAR c
ENCODING 99
SWIDTH 456 0
DWIDTH 10 0
BBX 8 11 1 0
BITMAP
3C
7E
67
E7
E0
E0
E0
E7
67
7E
3C
ENDCHAR
STARTCHAR d
ENCODING 100
SWIDTH 500 0
DWIDTH 11 0
BBX 9 15 1 0
BITMAP
0380
0380
0380
0380
3B80
7F80
F780
E380
E380
E380
E380
E380
F780
7F80
3B80
ENDCHAR
STARTCHAR e
ENCODING 101
SWIDTH 456 0
DWIDTH 10 0
BBX 8 11 1 0
BITMAP
3C
7E
66
E7
FF
FF
E0
E7
67
7E
3C
ENDCHAR
STARTCHAR f
ENCODING 102
SWIDTH 272 0
DWIDTH 6 0
BBX 7 15 0 0
BITMAP
3E
7E
70
70
FC
FC
70
70
70
70
70
70
70
70
70
ENDCHAR
STARTCHAR g
ENCODING 103
SWIDTH 500 0
DWIDTH 11 0
BBX 9 15 1 -4
BITMAP
3B80
7F80
F780
E380
E380
E380
E380
E380
F780
7F80
3B80
0380
E380
FF00
7E00
ENDCHAR
STARTCHAR h
ENCODING 104
SWIDTH 500 0
DWIDTH 11 0
BBX 9 15 1 0
BITMAP
E000
E000
E000
E000
EF00
FF80
F380
E380
E380
E380
E380
E380
E380
E380
E380
ENDCHAR
STARTCHAR i
ENCODING 105
SWIDTH 228 0
DWIDTH 5 0
BBX 3 15 1 0
BITMAP
E0
E0
E0
00
E0
E0
E0
E0
E0
E0
E0
E0
E0
E0
E0
ENDCHAR
STARTCHAR j
ENCODING 106
SWIDTH 228 0
DWIDTH 5 0
BBX 5 19 -1 -4
BITMAP
38
38
38
00
38
38
38
38
38
38
38
38
38
38
38
38
38
F8
F0
ENDCHAR
STARTCHAR k
ENCODING 107
SWIDTH 456 0
DWIDTH 10 0
BBX 8 15 1 0
BITMAP
E0
E0
E0
E0
E7
EE
EE
FC
FC
FE
FE
EE
E7
E7
E7
ENDCHAR
STARTCHAR l
ENCODING 108
SWIDTH 228 0
DWIDTH 5 0
BBX 3 15 1 0
BITMAP
E0
E0
E0
E0
E0
E0
E0
E0
E0
E0
E0
E0
E0
E0
E0
ENDCHAR
STARTCHAR m
ENCODING 109
SWIDTH 729 0
DWIDTH 15 0
BBX 13 11 1 0
BITMAP
EE70
FFF8
E738
E738
E738
E738
E738
E738
E738
E738
E738
ENDCHAR
STARTCHAR n
ENCODING 110
SWIDTH 500 0
DWIDTH 11 0
BBX 9 11 1 0
BITMAP
EF00
FF80
F380
E380
E380
E380
E380
E380
E380
E380
E380
ENDCHAR
STARTCHAR o
ENCODING 111
SWIDTH 500 0
DWIDTH 11 0
BBX 9 11 1 0
BITMAP
3C00
7F00
7700
E380
E380
E380
E380
E380
7700
7F00
3C00
ENDCHAR
STARTCHAR p
ENCODING 112
SWIDTH 500 0
DWIDTH 11 0
BBX 9 15 1 -4
BITMAP
EE00
FF00
F780
E380
E380
E380
E380
E380
F780
FF00
EE00
E000
E000
E000
E000
ENDCHAR
STARTCHAR q
ENCODING 113
SWIDTH 500 0
DWIDTH 11 0
BBX 9 15 1 -4
BITMAP
3B80
7F80
F780
E380
E380
E380
E380
E380
F780
7F80
3B80
0380
0380
0380
0380
ENDCHAR
STARTCHAR r
ENCODING 114
SWIDTH 318 0
DWIDTH 7 0
BBX 6 11 1 0
BITMAP
EC
FC
F0
E0
E0
E0
E0
E0
E0
E0
E0
ENDCHAR
STARTCHAR s
ENCODING 115
SWIDTH 456 0
DWIDTH 10 0
BBX 8 11 1 0
BITMAP
3C
7F
E7
E0
F8
7E
1F
07
E7
7E
3C
ENDCHAR
STARTCHAR t
ENCODING 116
SWIDTH 272 0
DWIDTH 6 0
BBX 6 15 0 0
BITMAP
10
70
70
70
FC
FC
70
70
70
70
70
70
70
7C
3C
ENDCHAR
STARTCHAR u
ENCODING 117
SWIDTH 500 0
DWIDTH 11 0
BBX 9 11 1 0
BITMAP
E380
E380
E380
E380
E380
E380
E380
E380
E780
7F80
3B80
ENDCHAR
STARTCHAR v
ENCODING 118
SWIDTH 456 0
DWIDTH 10 0
BBX 9 11 0 0
BITMAP
E380
E380
7700
7700
7700
7700
7700
3600
3E00
3E00
3E00
ENDCHAR
STARTCHAR w
ENCODING 119
SWIDTH 638 0
DWIDTH 13 0
BBX 13 11 0 0
BITMAP
E738
E738
7770
7770
7570
7570
3560
3DE0
3DE0
3DE0
3DE0
ENDCHAR
STARTCHAR x
ENCODING 120
SWIDTH 456 0
DWIDTH 10 0
BBX 10 11 0 0
BITMAP
E1C0
7380
3300
3F00
1E00
1E00
1E00
3F00
3300
7380
E1C0
ENDCHAR
STARTCHAR y
ENCODING 121
SWIDTH 456 0
DWIDTH 10 0
BBX 10 15 0 -4
BITMAP
E1C0
E1C0
7380
7380
7380
3300
3300
3F00
1E00
1E00
1E00
0C00
1C00
7800
7000
ENDCHAR
STARTCHAR z
ENCODING 122
SWIDTH 410 0
DWIDTH 9 0
BBX 9 11 0 0
BITMAP
FF80
FF80
0700
0700
0E00
1C00
3800
7000
7000
FF80
FF80
ENDCHAR
STARTCHAR braceleft
ENCODING 123
SWIDTH 318 0
DWIDTH 7 0
BBX 7 19 0 -4
BITMAP
1E
1E
38
38
38
38
38
70
F0
F0
70
38
38
38
38
38
38
1E
0E
ENDCHAR
STARTCHAR bar
ENCODING 124
SWIDTH 229 0
DWIDTH 5 0
BBX 3 19 1 -4
BITMAP
E0
E0
E0
E0
E0
E0
E0
E0
E0
E0
E0
E0
E0
E0
E0
E0
E0
E0
E0
ENDCHAR
STARTCHAR braceright
ENCODING 125
SWIDTH 318 0
DWIDTH 7 0
BBX 7 19 0 -4
BITMAP
E0
F0
38
38
38
38
38
1C
1E
1E
1C
38
38
38
38
38
38
F8
E0
ENDCHAR
STARTCHAR asciitilde
ENCODING 126
SWIDTH 479 0
DWIDTH 10 0
BBX 8 3 1 6
BITMAP
71
FF
8E
ENDCHAR
STARTCHAR nbspace
ENCODING 160
SWIDTH 456 0
DWIDTH 10 0
BBX 1 1 0 0
BITMAP
00
ENDCHAR
STARTCHAR exclamdown
ENCODING 161
SWIDTH 272 0
DWIDTH 6 0
BBX 3 15 1 -4
BITMAP
E0
E0
00
40
40
40
40
E0
E0
E0
E0
E0
E0
E0
E0
ENDCHAR
STARTCHAR cent
ENCODING 162
SWIDTH 456 0
DWIDTH 10 0
BBX 8 19 1 -4
BITMAP
04
04
04
08
3C
7E
EE
EF
E8
E8
F0
F7
F7
7E
3C
10
20
20
20
ENDCHAR
STARTCHAR sterling
ENCODING 163
SWIDTH 456 0
DWIDTH 10 0
BBX 10 15 0 0
BITMAP
1E00
3F00
7380
7380
7000
7000
FC00
FC00
3800
3800
3000
7000
FC80
FFC0
4780
ENDCHAR
STARTCHAR currency
ENCODING 164
SWIDTH 456 0
DWIDTH 10 0
BBX 10 11 0 2
BITMAP
6180
FFC0
7F80
3300
7380
7380
7380
3300
7F80
FFC0
6180
ENDCHAR
STARTCHAR yen
ENCODING 165
SWIDTH 456 0
DWIDTH 11 0
BBX 11 15 0 0
BITMAP
E0E0
71C0
71C0
3B80
3B80
1B00
1F00
FFE0
FFE0
0E00
FFE0
FFE0
0E00
0E00
0E00
ENDCHAR
STARTCHAR brokenbar
ENCODING 166
SWIDTH 229 0
DWIDTH 5 0
BBX 3 19 2 -4
BITMAP
E0
E0
E0
E0
E0
E0
E0
E0
00
00
00
E0
E0
E0
E0
E0
E0
E0
E0
ENDCHAR
STARTCHAR section
ENCODING 167
SWIDTH 456 0
DWIDTH 10 0
BBX 9 19 0 -4
BITMAP
3C00
7E00
7700
7700
7000
3800
7C00
EE00
E700
E380
7380
3B80
1F00
0E00
0700
7700
7700
3F00
1E00
ENDCHAR
STARTCHAR dieresis
ENCODING 168
SWIDTH 272 0
DWIDTH 6 0
BBX 6 2 0 13
BITMAP
CC
CC
ENDCHAR
STARTCHAR copyright
ENCODING 169
SWIDTH 604 0
DWIDTH 13 0
BBX 13 15 0 0
BITMAP
0F80
1040
2020
4790
4850
9008
9008
9008
9008
9048
48D0
4790
2020
1040
0F80
ENDCHAR
STARTCHAR ordfeminine
ENCODING 170
SWIDTH 303 0
DWIDTH 6 0
BBX 5 7 0 8
BITMAP
70
F8
18
78
D8
F8
78
ENDCHAR
STARTCHAR guillemotleft
ENCODING 171
SWIDTH 456 0
DWIDTH 10 0
BBX 9 9 1 1
BITMAP
1980
3300
7700
6600
EE00
6600
7700
3300
1980
ENDCHAR
STARTCHAR logicalnot
ENCODING 172
SWIDTH 479 0
DWIDTH 10 0
BBX 8 8 1 3
BITMAP
FF
FF
FF
07
07
07
07
07
ENDCHAR
STARTCHAR hyphen.dup1
ENCODING 173
SWIDTH 272 0
DWIDTH 6 0
BBX 4 2 1 4
BITMAP
F0
F0
ENDCHAR
STARTCHAR registered
ENCODING 174
SWIDTH 604 0
DWIDTH 13 0
BBX 13 15 0 0
BITMAP
0F80
1040
2020
5F90
5050
9048
9048
9F88
9308
9188
5190
50D0
2020
1040
0F80
ENDCHAR
STARTCHAR overscore
ENCODING 175
SWIDTH 500 0
DWIDTH 11 0
BBX 11 1 0 17
BITMAP
FFE0
ENDCHAR
STARTCHAR degree
ENCODING 176
SWIDTH 399 0
DWIDTH 8 0
BBX 7 7 0 8
BITMAP
38
7C
C6
C6
C6
7C
38
ENDCHAR
STARTCHAR plusminus
ENCODING 177
SWIDTH 548 0
DWIDTH 12 0
BBX 11 15 0 0
BITMAP
0E00
0E00
0E00
0E00
FFE0
FFE0
FFE0
0E00
0E00
0E00
0E00
0000
FFE0
FFE0
FFE0
ENDCHAR
STARTCHAR twosuperior
ENCODING 178
SWIDTH 272 0
DWIDTH 6 0
BBX 5 8 0 7
BITMAP
70
D8
18
38
30
70
E0
F8
ENDCHAR
STARTCHAR threesuperior
ENCODING 179
SWIDTH 272 0
DWIDTH 6 0
BBX 5 8 0 7
BITMAP
70
D8
18
30
18
D8
D8
70
ENDCHAR
STARTCHAR acute
ENCODING 180
SWIDTH 272 0
DWIDTH 6 0
BBX 3 2 2 12
BITMAP
60
C0
ENDCHAR
STARTCHAR mu1
ENCODING 181
SWIDTH 576 0
DWIDTH 12 0
BBX 10 15 1 -4
BITMAP
E1C0
E1C0
E1C0
E1C0
E1C0
E1C0
E1C0
E1C0
F3C0
FFC0
EDC0
E000
E000
E000
E000
ENDCHAR
STARTCHAR paragraph
ENCODING 182
SWIDTH 456 0
DWIDTH 10 0
BBX 10 19 0 -4
BITMAP
3FC0
7FC0
F980
F980
F980
F980
7980
3980
1980
1980
1980
1980
1980
1980
1980
1980
1980
1980
1980
ENDCHAR
STARTCHAR middot
ENCODING 183
SWIDTH 272 0
DWIDTH 6 0
BBX 2 2 2 6
BITMAP
C0
C0
ENDCHAR
STARTCHAR cedilla
ENCODING 184
SWIDTH 272 0
DWIDTH 6 0
BBX 5 4 0 -4
BITMAP
70
18
18
F0
ENDCHAR
STARTCHAR onesuperior
ENCODING 185
SWIDTH 272 0
DWIDTH 6 0
BBX 4 8 0 7
BITMAP
30
F0
B0
30
30
30
30
30
ENDCHAR
STARTCHAR ordmasculine
ENCODING 186
SWIDTH 298 0
DWIDTH 6 0
BBX 6 7 0 8
BITMAP
78
FC
CC
CC
CC
FC
78
ENDCHAR
STARTCHAR guillemotright
ENCODING 187
SWIDTH 456 0
DWIDTH 10 0
BBX 9 9 1 1
BITMAP
CC00
6600
7700
3300
3B80
3300
7700
6600
CC00
ENDCHAR
STARTCHAR onequarter
ENCODING 188
SWIDTH 684 0
DWIDTH 14 0
BBX 13 16 1 -1
BITMAP
6040
E0C0
A080
2180
2100
2100
2200
2200
0430
0430
0C70
08D0
18F8
10F8
3010
2000
ENDCHAR
STARTCHAR onehalf
ENCODING 189
SWIDTH 684 0
DWIDTH 14 0
BBX 13 16 1 -1
BITMAP
6040
E0C0
A080
2180
2100
2100
2200
2200
0470
04D8
0C18
0830
1870
1060
30F8
2000
ENDCHAR
STARTCHAR threequarters
ENCODING 190
SWIDTH 684 0
DWIDTH 14 0
BBX 14 16 0 -1
BITMAP
7820
5820
1840
3840
08C0
C880
7980
3100
0318
0218
0638
0468
0C7C
087C
0808
1000
ENDCHAR
ENDFONT
