STARTFONT 2.1
FONT -FontForge-Arial Narrow-Bold-R-Normal--14-100-100-100-P-61-ISO10646-1
SIZE 10 100 100
FONTBOUNDINGBOX 12 15 -1 -3
COMMENT "Generated by fontforge, http://fontforge.sourceforge.net"
COMMENT "(c) 2008 The Monotype Corporation. All Rights Reserved."
STARTPROPERTIES 40
FOUNDRY "FontForge"
FAMILY_NAME "Arial Narrow"
WEIGHT_NAME "Bold"
SLANT "R"
SETWIDTH_NAME "Normal"
ADD_STYLE_NAME ""
PIXEL_SIZE 14
POINT_SIZE 100
RESOLUTION_X 100
RESOLUTION_Y 100
SPACING "P"
AVERAGE_WIDTH 61
CHARSET_REGISTRY "ISO10646"
CHARSET_ENCODING "1"
FONTNAME_REGISTRY ""
CHARSET_COLLECTIONS "ISO10646-1"
FONT_NAME "ArialNarrow-Bold"
FACE_NAME "Arial Narrow Bold"
COPYRIGHT "(c) 2008 The Monotype Corporation. All Rights Reserved."
FONT_VERSION "2.40"
FONT_ASCENT 11
FONT_DESCENT 3
UNDERLINE_POSITION -2
UNDERLINE_THICKNESS 2
X_HEIGHT 6
CAP_HEIGHT 9
RAW_ASCENT 799
RAW_DESCENT 200
NORM_SPACE 3
RELATIVE_WEIGHT 70
RELATIVE_SETWIDTH 30
SUPERSCRIPT_X 0
SUPERSCRIPT_Y 3
SUPERSCRIPT_SIZE 9
SUBSCRIPT_X 0
SUBSCRIPT_Y 1
SUBSCRIPT_SIZE 9
FIGURE_WIDTH 6
AVG_LOWERCASE_WIDTH 59
AVG_UPPERCASE_WIDTH 79
ENDPROPERTIES
CHARS 126
STARTCHAR space
ENCODING 32
SWIDTH 228 0
DWIDTH 3 0
BBX 1 1 0 0
BITMAP
00
ENDCHAR
STARTCHAR exclam
ENCODING 33
SWIDTH 272 0
DWIDTH 4 0
BBX 2 10 1 0
BITMAP
C0
C0
C0
C0
C0
C0
C0
00
C0
C0
ENDCHAR
STARTCHAR quotedbl
ENCODING 34
SWIDTH 389 0
DWIDTH 5 0
BBX 5 4 0 6
BITMAP
D8
D8
D8
D8
ENDCHAR
STARTCHAR numbersign
ENCODING 35
SWIDTH 456 0
DWIDTH 6 0
BBX 6 10 0 0
BITMAP
24
24
FC
FC
48
48
FC
FC
90
90
ENDCHAR
STARTCHAR dollar
ENCODING 36
SWIDTH 456 0
DWIDTH 6 0
BBX 5 12 0 -1
BITMAP
20
70
A8
A8
E0
F0
78
28
A8
E8
70
20
ENDCHAR
STARTCHAR percent
ENCODING 37
SWIDTH 729 0
DWIDTH 10 0
BBX 9 10 0 0
BITMAP
6200
9200
9400
9400
6400
0B00
0C80
1480
1480
1300
ENDCHAR
STARTCHAR ampersand
ENCODING 38
SWIDTH 591 0
DWIDTH 8 0
BBX 8 10 0 0
BITMAP
38
7C
6C
38
30
7A
CE
CE
FF
7A
ENDCHAR
STARTCHAR quotesingle
ENCODING 39
SWIDTH 194 0
DWIDTH 3 0
BBX 2 4 0 6
BITMAP
C0
C0
C0
C0
ENDCHAR
STARTCHAR parenleft
ENCODING 40
SWIDTH 272 0
DWIDTH 4 0
BBX 3 13 0 -3
BITMAP
20
60
40
C0
C0
C0
C0
C0
C0
C0
40
60
20
ENDCHAR
STARTCHAR parenright
ENCODING 41
SWIDTH 272 0
DWIDTH 4 0
BBX 3 13 0 -3
BITMAP
80
C0
40
60
60
60
60
60
60
60
40
C0
80
ENDCHAR
STARTCHAR asterisk
ENCODING 42
SWIDTH 318 0
DWIDTH 4 0
BBX 5 5 -1 5
BITMAP
20
A8
70
50
50
ENDCHAR
STARTCHAR plus
ENCODING 43
SWIDTH 479 0
DWIDTH 7 0
BBX 6 8 0 1
BITMAP
30
30
30
FC
FC
30
30
30
ENDCHAR
STARTCHAR comma
ENCODING 44
SWIDTH 228 0
DWIDTH 3 0
BBX 2 4 0 -2
BITMAP
C0
C0
40
80
ENDCHAR
STARTCHAR hyphen
ENCODING 45
SWIDTH 272 0
DWIDTH 4 0
BBX 4 2 0 3
BITMAP
F0
F0
ENDCHAR
STARTCHAR period
ENCODING 46
SWIDTH 228 0
DWIDTH 3 0
BBX 2 2 0 0
BITMAP
C0
C0
ENDCHAR
STARTCHAR slash
ENCODING 47
SWIDTH 228 0
DWIDTH 3 0
BBX 3 10 0 0
BITMAP
60
60
60
60
60
C0
C0
C0
C0
C0
ENDCHAR
STARTCHAR zero
ENCODING 48
SWIDTH 456 0
DWIDTH 6 0
BBX 5 10 0 0
BITMAP
70
F8
D8
D8
D8
D8
D8
D8
F8
70
ENDCHAR
STARTCHAR one
ENCODING 49
SWIDTH 456 0
DWIDTH 6 0
BBX 4 10 0 0
BITMAP
30
70
F0
B0
30
30
30
30
30
30
ENDCHAR
STARTCHAR two
ENCODING 50
SWIDTH 456 0
DWIDTH 6 0
BBX 5 10 0 0
BITMAP
70
F8
D8
18
18
30
60
60
F8
F8
ENDCHAR
STARTCHAR three
ENCODING 51
SWIDTH 456 0
DWIDTH 6 0
BBX 5 10 0 0
BITMAP
70
F8
D8
18
30
30
18
D8
F8
70
ENDCHAR
STARTCHAR four
ENCODING 52
SWIDTH 456 0
DWIDTH 6 0
BBX 6 10 0 0
BITMAP
18
38
38
78
58
D8
FC
FC
18
18
ENDCHAR
STARTCHAR five
ENCODING 53
SWIDTH 456 0
DWIDTH 6 0
BBX 5 10 0 0
BITMAP
78
78
60
D0
F8
98
18
D8
F8
70
ENDCHAR
STARTCHAR six
ENCODING 54
SWIDTH 456 0
DWIDTH 6 0
BBX 5 10 0 0
BITMAP
70
F8
D8
C0
F0
F8
D8
D8
F8
70
ENDCHAR
STARTCHAR seven
ENCODING 55
SWIDTH 456 0
DWIDTH 6 0
BBX 5 10 0 0
BITMAP
F8
F8
10
10
30
30
60
60
60
60
ENDCHAR
STARTCHAR eight
ENCODING 56
SWIDTH 456 0
DWIDTH 6 0
BBX 5 10 0 0
BITMAP
70
F8
D8
D8
70
70
D8
D8
F8
70
ENDCHAR
STARTCHAR nine
ENCODING 57
SWIDTH 456 0
DWIDTH 6 0
BBX 5 10 0 0
BITMAP
70
F8
D8
D8
F8
78
18
D8
F8
70
ENDCHAR
STARTCHAR colon
ENCODING 58
SWIDTH 272 0
DWIDTH 4 0
BBX 2 7 1 0
BITMAP
C0
C0
00
00
00
C0
C0
ENDCHAR
STARTCHAR semicolon
ENCODING 59
SWIDTH 272 0
DWIDTH 4 0
BBX 2 9 1 -2
BITMAP
C0
C0
00
00
00
C0
C0
40
80
ENDCHAR
STARTCHAR less
ENCODING 60
SWIDTH 479 0
DWIDTH 7 0
BBX 6 7 0 1
BITMAP
04
3C
F8
C0
F8
3C
04
ENDCHAR
STARTCHAR equal
ENCODING 61
SWIDTH 479 0
DWIDTH 7 0
BBX 6 5 0 2
BITMAP
FC
FC
00
FC
FC
ENDCHAR
STARTCHAR greater
ENCODING 62
SWIDTH 479 0
DWIDTH 7 0
BBX 6 7 0 1
BITMAP
80
F0
7C
0C
7C
F0
80
ENDCHAR
STARTCHAR question
ENCODING 63
SWIDTH 500 0
DWIDTH 7 0
BBX 6 10 0 0
BITMAP
78
FC
CC
0C
18
30
30
00
30
30
ENDCHAR
STARTCHAR at
ENCODING 64
SWIDTH 799 0
DWIDTH 11 0
BBX 11 13 0 -3
BITMAP
0F00
3FC0
70C0
4F60
DFA0
B9A0
B320
B340
BFC0
DF80
6060
3FC0
1F80
ENDCHAR
STARTCHAR A
ENCODING 65
SWIDTH 591 0
DWIDTH 9 0
BBX 8 10 0 0
BITMAP
18
18
3C
3C
24
66
7E
7E
C3
C3
ENDCHAR
STARTCHAR B
ENCODING 66
SWIDTH 591 0
DWIDTH 8 0
BBX 7 10 0 0
BITMAP
FC
FE
C6
C6
FC
FC
C6
C6
FE
FC
ENDCHAR
STARTCHAR C
ENCODING 67
SWIDTH 591 0
DWIDTH 9 0
BBX 8 10 0 0
BITMAP
3C
7E
E7
C3
C0
C0
C2
E7
7E
3C
ENDCHAR
STARTCHAR D
ENCODING 68
SWIDTH 591 0
DWIDTH 8 0
BBX 7 10 0 0
BITMAP
F8
FC
CE
C6
C6
C6
C6
CE
FC
F8
ENDCHAR
STARTCHAR E
ENCODING 69
SWIDTH 546 0
DWIDTH 7 0
BBX 6 10 0 0
BITMAP
FC
FC
C0
C0
FC
FC
C0
C0
FC
FC
ENDCHAR
STARTCHAR F
ENCODING 70
SWIDTH 500 0
DWIDTH 7 0
BBX 6 10 0 0
BITMAP
FC
FC
C0
C0
F8
F8
C0
C0
C0
C0
ENDCHAR
STARTCHAR G
ENCODING 71
SWIDTH 638 0
DWIDTH 9 0
BBX 8 10 0 0
BITMAP
3C
7E
E7
C3
C0
CF
CF
E3
7F
3E
ENDCHAR
STARTCHAR H
ENCODING 72
SWIDTH 591 0
DWIDTH 8 0
BBX 7 10 0 0
BITMAP
C6
C6
C6
C6
FE
FE
C6
C6
C6
C6
ENDCHAR
STARTCHAR I
ENCODING 73
SWIDTH 228 0
DWIDTH 3 0
BBX 2 10 0 0
BITMAP
C0
C0
C0
C0
C0
C0
C0
C0
C0
C0
ENDCHAR
STARTCHAR J
ENCODING 74
SWIDTH 456 0
DWIDTH 6 0
BBX 5 10 0 0
BITMAP
18
18
18
18
18
18
D8
D8
F8
70
ENDCHAR
STARTCHAR K
ENCODING 75
SWIDTH 591 0
DWIDTH 8 0
BBX 7 10 0 0
BITMAP
C6
CC
CC
D8
F8
E8
CC
CC
C6
C6
ENDCHAR
STARTCHAR L
ENCODING 76
SWIDTH 500 0
DWIDTH 7 0
BBX 6 10 0 0
BITMAP
C0
C0
C0
C0
C0
C0
C0
C0
FC
FC
ENDCHAR
STARTCHAR M
ENCODING 77
SWIDTH 683 0
DWIDTH 10 0
BBX 9 10 0 0
BITMAP
E380
E380
F380
F780
D580
D580
D580
D580
D980
C980
ENDCHAR
STARTCHAR N
ENCODING 78
SWIDTH 591 0
DWIDTH 8 0
BBX 7 10 0 0
BITMAP
C6
E6
E6
F6
F6
D6
DE
CE
CE
C6
ENDCHAR
STARTCHAR O
ENCODING 79
SWIDTH 638 0
DWIDTH 9 0
BBX 8 10 0 0
BITMAP
3C
7E
E7
C3
C3
C3
C3
E7
7E
3C
ENDCHAR
STARTCHAR P
ENCODING 80
SWIDTH 546 0
DWIDTH 7 0
BBX 6 10 0 0
BITMAP
F8
FC
CC
CC
FC
F8
C0
C0
C0
C0
ENDCHAR
STARTCHAR Q
ENCODING 81
SWIDTH 638 0
DWIDTH 9 0
BBX 9 11 0 -1
BITMAP
3C00
7E00
E700
C300
C300
C300
CB00
E700
7F00
3D80
0080
ENDCHAR
STARTCHAR R
ENCODING 82
SWIDTH 591 0
DWIDTH 8 0
BBX 8 10 0 0
BITMAP
FC
FE
C6
C6
FE
FC
CE
C6
C6
C3
ENDCHAR
STARTCHAR S
ENCODING 83
SWIDTH 546 0
DWIDTH 8 0
BBX 7 10 0 0
BITMAP
7C
FE
C6
C0
78
3C
06
C6
FE
7C
ENDCHAR
STARTCHAR T
ENCODING 84
SWIDTH 500 0
DWIDTH 7 0
BBX 6 10 0 0
BITMAP
FC
FC
30
30
30
30
30
30
30
30
ENDCHAR
STARTCHAR U
ENCODING 85
SWIDTH 591 0
DWIDTH 8 0
BBX 7 10 0 0
BITMAP
C6
C6
C6
C6
C6
C6
C6
C6
FE
7C
ENDCHAR
STARTCHAR V
ENCODING 86
SWIDTH 546 0
DWIDTH 8 0
BBX 7 10 0 0
BITMAP
C6
C6
EE
6C
6C
6C
6C
7C
38
38
ENDCHAR
STARTCHAR W
ENCODING 87
SWIDTH 773 0
DWIDTH 12 0
BBX 11 10 0 0
BITMAP
C460
C460
6AC0
6AC0
6AC0
6AC0
72C0
3180
3180
3180
ENDCHAR
STARTCHAR X
ENCODING 88
SWIDTH 546 0
DWIDTH 8 0
BBX 7 10 0 0
BITMAP
C6
6C
6C
38
38
38
38
6C
6C
C6
ENDCHAR
STARTCHAR Y
ENCODING 89
SWIDTH 546 0
DWIDTH 8 0
BBX 8 10 0 0
BITMAP
C3
66
66
3C
3C
18
18
18
18
18
ENDCHAR
STARTCHAR Z
ENCODING 90
SWIDTH 500 0
DWIDTH 7 0
BBX 6 10 0 0
BITMAP
FC
FC
0C
18
30
30
60
C0
FC
FC
ENDCHAR
STARTCHAR bracketleft
ENCODING 91
SWIDTH 272 0
DWIDTH 4 0
BBX 3 13 0 -3
BITMAP
E0
E0
C0
C0
C0
C0
C0
C0
C0
C0
C0
E0
E0
ENDCHAR
STARTCHAR backslash
ENCODING 92
SWIDTH 228 0
DWIDTH 3 0
BBX 3 10 0 0
BITMAP
C0
C0
C0
C0
C0
60
60
60
60
60
ENDCHAR
STARTCHAR bracketright
ENCODING 93
SWIDTH 272 0
DWIDTH 4 0
BBX 3 13 0 -3
BITMAP
E0
E0
60
60
60
60
60
60
60
60
60
E0
E0
ENDCHAR
STARTCHAR asciicircum
ENCODING 94
SWIDTH 479 0
DWIDTH 7 0
BBX 7 5 1 5
BITMAP
38
38
6C
6C
C6
ENDCHAR
STARTCHAR underscore
ENCODING 95
SWIDTH 456 0
DWIDTH 6 0
BBX 6 1 0 -2
BITMAP
FC
ENDCHAR
STARTCHAR grave
ENCODING 96
SWIDTH 272 0
DWIDTH 4 0
BBX 3 2 0 8
BITMAP
C0
60
ENDCHAR
STARTCHAR a
ENCODING 97
SWIDTH 456 0
DWIDTH 6 0
BBX 5 7 0 0
BITMAP
70
D8
18
78
D8
D8
78
ENDCHAR
STARTCHAR b
ENCODING 98
SWIDTH 500 0
DWIDTH 7 0
BBX 6 10 0 0
BITMAP
C0
C0
C0
D8
FC
CC
CC
CC
FC
D8
ENDCHAR
STARTCHAR c
ENCODING 99
SWIDTH 456 0
DWIDTH 6 0
BBX 5 7 0 0
BITMAP
70
F8
D8
C0
D8
F8
70
ENDCHAR
STARTCHAR d
ENCODING 100
SWIDTH 500 0
DWIDTH 7 0
BBX 6 10 0 0
BITMAP
0C
0C
0C
6C
FC
CC
CC
CC
FC
6C
ENDCHAR
STARTCHAR e
ENCODING 101
SWIDTH 456 0
DWIDTH 6 0
BBX 5 7 0 0
BITMAP
70
F8
D8
F8
C0
D8
70
ENDCHAR
STARTCHAR f
ENCODING 102
SWIDTH 272 0
DWIDTH 4 0
BBX 4 10 -1 0
BITMAP
30
70
60
F0
F0
60
60
60
60
60
ENDCHAR
STARTCHAR g
ENCODING 103
SWIDTH 500 0
DWIDTH 7 0
BBX 6 10 0 -3
BITMAP
6C
FC
CC
CC
CC
FC
6C
CC
FC
78
ENDCHAR
STARTCHAR h
ENCODING 104
SWIDTH 500 0
DWIDTH 7 0
BBX 6 10 0 0
BITMAP
C0
C0
C0
D8
FC
CC
CC
CC
CC
CC
ENDCHAR
STARTCHAR i
ENCODING 105
SWIDTH 228 0
DWIDTH 3 0
BBX 2 10 0 0
BITMAP
C0
C0
00
C0
C0
C0
C0
C0
C0
C0
ENDCHAR
STARTCHAR j
ENCODING 106
SWIDTH 228 0
DWIDTH 3 0
BBX 3 13 -1 -3
BITMAP
60
60
00
60
60
60
60
60
60
60
60
E0
C0
ENDCHAR
STARTCHAR k
ENCODING 107
SWIDTH 456 0
DWIDTH 6 0
BBX 5 10 0 0
BITMAP
C0
C0
C0
D8
F0
F0
F8
D8
D8
D8
ENDCHAR
STARTCHAR l
ENCODING 108
SWIDTH 228 0
DWIDTH 3 0
BBX 2 10 0 0
BITMAP
C0
C0
C0
C0
C0
C0
C0
C0
C0
C0
ENDCHAR
STARTCHAR m
ENCODING 109
SWIDTH 729 0
DWIDTH 9 0
BBX 8 7 0 0
BITMAP
F7
FF
DB
DB
DB
DB
DB
ENDCHAR
STARTCHAR n
ENCODING 110
SWIDTH 500 0
DWIDTH 7 0
BBX 6 7 0 0
BITMAP
D8
FC
CC
CC
CC
CC
CC
ENDCHAR
STARTCHAR o
ENCODING 111
SWIDTH 500 0
DWIDTH 7 0
BBX 6 7 0 0
BITMAP
78
FC
CC
CC
CC
FC
78
ENDCHAR
STARTCHAR p
ENCODING 112
SWIDTH 500 0
DWIDTH 7 0
BBX 6 10 0 -3
BITMAP
D8
FC
CC
CC
CC
FC
D8
C0
C0
C0
ENDCHAR
STARTCHAR q
ENCODING 113
SWIDTH 500 0
DWIDTH 7 0
BBX 6 10 0 -3
BITMAP
6C
FC
CC
CC
CC
FC
6C
0C
0C
0C
ENDCHAR
STARTCHAR r
ENCODING 114
SWIDTH 318 0
DWIDTH 4 0
BBX 4 7 0 0
BITMAP
D0
F0
C0
C0
C0
C0
C0
ENDCHAR
STARTCHAR s
ENCODING 115
SWIDTH 456 0
DWIDTH 6 0
BBX 5 7 0 0
BITMAP
70
D8
C0
F8
18
D8
70
ENDCHAR
STARTCHAR t
ENCODING 116
SWIDTH 272 0
DWIDTH 4 0
BBX 4 10 -1 0
BITMAP
20
60
60
F0
F0
60
60
60
70
30
ENDCHAR
STARTCHAR u
ENCODING 117
SWIDTH 500 0
DWIDTH 7 0
BBX 6 7 0 0
BITMAP
CC
CC
CC
CC
CC
FC
6C
ENDCHAR
STARTCHAR v
ENCODING 118
SWIDTH 456 0
DWIDTH 6 0
BBX 5 7 0 0
BITMAP
D8
D8
D8
D8
50
70
70
ENDCHAR
STARTCHAR w
ENCODING 119
SWIDTH 638 0
DWIDTH 9 0
BBX 9 7 0 0
BITMAP
DD80
DD80
DD80
5500
5500
7700
7700
ENDCHAR
STARTCHAR x
ENCODING 120
SWIDTH 456 0
DWIDTH 6 0
BBX 6 7 0 0
BITMAP
CC
78
78
30
78
78
CC
ENDCHAR
STARTCHAR y
ENCODING 121
SWIDTH 456 0
DWIDTH 6 0
BBX 5 10 0 -3
BITMAP
D8
D8
D8
50
50
70
70
20
E0
C0
ENDCHAR
STARTCHAR z
ENCODING 122
SWIDTH 410 0
DWIDTH 6 0
BBX 5 7 0 0
BITMAP
F8
F8
30
70
60
F8
F8
ENDCHAR
STARTCHAR braceleft
ENCODING 123
SWIDTH 318 0
DWIDTH 4 0
BBX 4 13 -1 -3
BITMAP
30
70
60
60
60
C0
C0
60
60
60
60
70
30
ENDCHAR
STARTCHAR bar
ENCODING 124
SWIDTH 229 0
DWIDTH 3 0
BBX 2 13 0 -3
BITMAP
C0
C0
C0
C0
C0
C0
C0
C0
C0
C0
C0
C0
C0
ENDCHAR
STARTCHAR braceright
ENCODING 125
SWIDTH 318 0
DWIDTH 4 0
BBX 4 13 0 -3
BITMAP
C0
E0
60
60
60
30
30
60
60
60
60
E0
C0
ENDCHAR
STARTCHAR asciitilde
ENCODING 126
SWIDTH 479 0
DWIDTH 7 0
BBX 7 3 0 3
BITMAP
72
FE
9C
ENDCHAR
STARTCHAR nbspace
ENCODING 160
SWIDTH 456 0
DWIDTH 6 0
BBX 1 1 0 0
BITMAP
00
ENDCHAR
STARTCHAR exclamdown
ENCODING 161
SWIDTH 272 0
DWIDTH 4 0
BBX 2 10 1 -3
BITMAP
C0
C0
00
C0
C0
C0
C0
C0
C0
C0
ENDCHAR
STARTCHAR cent
ENCODING 162
SWIDTH 456 0
DWIDTH 6 0
BBX 6 13 0 -3
BITMAP
08
08
10
78
F8
DC
E0
EC
FC
78
20
40
40
ENDCHAR
STARTCHAR sterling
ENCODING 163
SWIDTH 456 0
DWIDTH 6 0
BBX 6 10 0 0
BITMAP
38
7C
6C
60
60
F0
F0
24
FC
9C
ENDCHAR
STARTCHAR currency
ENCODING 164
SWIDTH 456 0
DWIDTH 6 0
BBX 6 8 0 1
BITMAP
48
FC
48
48
48
48
FC
48
ENDCHAR
STARTCHAR yen
ENCODING 165
SWIDTH 456 0
DWIDTH 6 0
BBX 6 10 0 0
BITMAP
CC
48
78
78
30
FC
30
FC
30
30
ENDCHAR
STARTCHAR brokenbar
ENCODING 166
SWIDTH 229 0
DWIDTH 3 0
BBX 2 13 1 -3
BITMAP
C0
C0
C0
C0
C0
00
00
00
C0
C0
C0
C0
C0
ENDCHAR
STARTCHAR section
ENCODING 167
SWIDTH 456 0
DWIDTH 7 0
BBX 6 13 0 -3
BITMAP
78
FC
CC
E0
70
DC
CC
EC
38
1C
CC
FC
78
ENDCHAR
STARTCHAR dieresis
ENCODING 168
SWIDTH 272 0
DWIDTH 4 0
BBX 5 2 0 9
BITMAP
D8
D8
ENDCHAR
STARTCHAR copyright
ENCODING 169
SWIDTH 604 0
DWIDTH 8 0
BBX 8 10 0 0
BITMAP
3C
66
52
A9
A1
A1
A9
52
66
3C
ENDCHAR
STARTCHAR ordfeminine
ENCODING 170
SWIDTH 303 0
DWIDTH 4 0
BBX 4 5 0 5
BITMAP
F0
10
F0
90
F0
ENDCHAR
STARTCHAR guillemotleft
ENCODING 171
SWIDTH 456 0
DWIDTH 6 0
BBX 6 7 -1 0
BITMAP
24
6C
48
D8
48
6C
24
ENDCHAR
STARTCHAR logicalnot
ENCODING 172
SWIDTH 479 0
DWIDTH 7 0
BBX 6 5 0 2
BITMAP
FC
FC
0C
0C
0C
ENDCHAR
STARTCHAR hyphen.dup1
ENCODING 173
SWIDTH 272 0
DWIDTH 4 0
BBX 4 2 0 3
BITMAP
F0
F0
ENDCHAR
STARTCHAR registered
ENCODING 174
SWIDTH 604 0
DWIDTH 8 0
BBX 8 10 0 0
BITMAP
3C
66
7E
A5
A5
B9
A9
66
66
3C
ENDCHAR
STARTCHAR overscore
ENCODING 175
SWIDTH 500 0
DWIDTH 7 0
BBX 7 1 0 11
BITMAP
FE
ENDCHAR
STARTCHAR degree
ENCODING 176
SWIDTH 399 0
DWIDTH 6 0
BBX 4 4 1 6
BITMAP
60
90
90
60
ENDCHAR
STARTCHAR plusminus
ENCODING 177
SWIDTH 548 0
DWIDTH 8 0
BBX 8 11 0 0
BITMAP
18
18
18
FF
FF
18
18
18
00
FF
FF
ENDCHAR
STARTCHAR twosuperior
ENCODING 178
SWIDTH 272 0
DWIDTH 4 0
BBX 3 5 0 5
BITMAP
E0
A0
20
40
E0
ENDCHAR
STARTCHAR threesuperior
ENCODING 179
SWIDTH 272 0
DWIDTH 4 0
BBX 3 5 0 5
BITMAP
E0
20
60
20
E0
ENDCHAR
STARTCHAR acute
ENCODING 180
SWIDTH 272 0
DWIDTH 4 0
BBX 3 2 1 8
BITMAP
60
C0
ENDCHAR
STARTCHAR mu1
ENCODING 181
SWIDTH 576 0
DWIDTH 8 0
BBX 6 10 1 -3
BITMAP
CC
CC
CC
CC
CC
FC
FC
C0
C0
C0
ENDCHAR
STARTCHAR paragraph
ENCODING 182
SWIDTH 456 0
DWIDTH 7 0
BBX 7 13 0 -3
BITMAP
7E
FE
EC
EC
EC
EC
6C
6C
6C
6C
6C
6C
6C
ENDCHAR
STARTCHAR middot
ENCODING 183
SWIDTH 272 0
DWIDTH 4 0
BBX 2 2 1 4
BITMAP
C0
C0
ENDCHAR
STARTCHAR cedilla
ENCODING 184
SWIDTH 272 0
DWIDTH 4 0
BBX 3 3 0 -3
BITMAP
E0
20
E0
ENDCHAR
STARTCHAR onesuperior
ENCODING 185
SWIDTH 272 0
DWIDTH 4 0
BBX 2 5 0 5
BITMAP
40
C0
40
40
40
ENDCHAR
STARTCHAR ordmasculine
ENCODING 186
SWIDTH 298 0
DWIDTH 4 0
BBX 4 5 0 5
BITMAP
60
90
90
90
60
ENDCHAR
STARTCHAR guillemotright
ENCODING 187
SWIDTH 456 0
DWIDTH 6 0
BBX 6 7 0 0
BITMAP
90
D8
48
6C
48
D8
90
ENDCHAR
STARTCHAR onequarter
ENCODING 188
SWIDTH 684 0
DWIDTH 10 0
BBX 8 10 1 0
BITMAP
44
C4
48
48
48
11
13
25
27
41
ENDCHAR
STARTCHAR onehalf
ENCODING 189
SWIDTH 684 0
DWIDTH 10 0
BBX 8 10 1 0
BITMAP
44
C4
48
48
48
13
15
21
22
47
ENDCHAR
STARTCHAR threequarters
ENCODING 190
SWIDTH 684 0
DWIDTH 10 0
BBX 9 10 0 0
BITMAP
6100
2200
6200
B400
6400
0880
0980
1280
1380
2080
ENDCHAR
ENDFONT
