STARTFONT 2.1
FONT -FontForge-Arial Narrow-Book-R-Normal--8-80-75-75-P-35-ISO10646-1
SIZE 8 75 75
FONTBOUNDINGBOX 8 10 -1 -3
COMMENT "Generated by fontforge, http://fontforge.sourceforge.net"
COMMENT "(c) 2008 The Monotype Corporation. All Rights Reserved."
STARTPROPERTIES 40
FOUNDRY "FontForge"
FAMILY_NAME "Arial Narrow"
WEIGHT_NAME "Book"
SLANT "R"
SETWIDTH_NAME "Normal"
ADD_STYLE_NAME ""
PIXEL_SIZE 8
POINT_SIZE 80
RESOLUTION_X 75
RESOLUTION_Y 75
SPACING "P"
AVERAGE_WIDTH 35
CHARSET_REGISTRY "ISO10646"
CHARSET_ENCODING "1"
FONTNAME_REGISTRY ""
CHARSET_COLLECTIONS "ISO10646-1"
FONT_NAME "ArialNarrow"
FACE_NAME "Arial Narrow"
COPYRIGHT "(c) 2008 The Monotype Corporation. All Rights Reserved."
FONT_VERSION "2.40"
FONT_ASCENT 6
FONT_DESCENT 2
UNDERLINE_POSITION -1
UNDERLINE_THICKNESS 1
X_HEIGHT 3
CAP_HEIGHT 5
RAW_ASCENT 799
RAW_DESCENT 200
NORM_SPACE 2
RELATIVE_WEIGHT 40
RELATIVE_SETWIDTH 30
SUPERSCRIPT_X 0
SUPERSCRIPT_Y 2
SUPERSCRIPT_SIZE 5
SUBSCRIPT_X 0
SUBSCRIPT_Y 0
SUBSCRIPT_SIZE 5
FIGURE_WIDTH 4
AVG_LOWERCASE_WIDTH 32
AVG_UPPERCASE_WIDTH 43
ENDPROPERTIES
CHARS 126
STARTCHAR space
ENCODING 32
SWIDTH 228 0
DWIDTH 2 0
BBX 1 1 0 0
BITMAP
00
ENDCHAR
STARTCHAR exclam
ENCODING 33
SWIDTH 228 0
DWIDTH 2 0
BBX 1 6 1 0
BITMAP
80
80
80
80
00
80
ENDCHAR
STARTCHAR quotedbl
ENCODING 34
SWIDTH 291 0
DWIDTH 2 0
BBX 2 2 0 4
BITMAP
C0
C0
ENDCHAR
STARTCHAR numbersign
ENCODING 35
SWIDTH 456 0
DWIDTH 4 0
BBX 4 6 0 0
BITMAP
50
50
F0
A0
F0
A0
ENDCHAR
STARTCHAR dollar
ENCODING 36
SWIDTH 456 0
DWIDTH 4 0
BBX 3 8 0 -1
BITMAP
40
E0
C0
E0
60
E0
E0
40
ENDCHAR
STARTCHAR percent
ENCODING 37
SWIDTH 729 0
DWIDTH 8 0
BBX 7 6 0 0
BITMAP
44
A8
48
14
2A
24
ENDCHAR
STARTCHAR ampersand
ENCODING 38
SWIDTH 546 0
DWIDTH 4 0
BBX 4 6 0 0
BITMAP
20
50
20
D0
90
60
ENDCHAR
STARTCHAR quotesingle
ENCODING 39
SWIDTH 157 0
DWIDTH 1 0
BBX 1 2 0 4
BITMAP
80
80
ENDCHAR
STARTCHAR parenleft
ENCODING 40
SWIDTH 272 0
DWIDTH 2 0
BBX 2 8 0 -2
BITMAP
40
80
80
80
80
80
80
40
ENDCHAR
STARTCHAR parenright
ENCODING 41
SWIDTH 272 0
DWIDTH 2 0
BBX 2 8 0 -2
BITMAP
80
40
40
40
40
40
40
80
ENDCHAR
STARTCHAR asterisk
ENCODING 42
SWIDTH 318 0
DWIDTH 3 0
BBX 3 3 0 3
BITMAP
40
E0
C0
ENDCHAR
STARTCHAR plus
ENCODING 43
SWIDTH 479 0
DWIDTH 4 0
BBX 5 3 0 1
BITMAP
20
F8
20
ENDCHAR
STARTCHAR comma
ENCODING 44
SWIDTH 228 0
DWIDTH 2 0
BBX 2 3 -1 -2
BITMAP
40
40
80
ENDCHAR
STARTCHAR hyphen
ENCODING 45
SWIDTH 272 0
DWIDTH 2 0
BBX 2 1 0 2
BITMAP
C0
ENDCHAR
STARTCHAR period
ENCODING 46
SWIDTH 228 0
DWIDTH 2 0
BBX 1 1 0 0
BITMAP
80
ENDCHAR
STARTCHAR slash
ENCODING 47
SWIDTH 228 0
DWIDTH 2 0
BBX 2 6 0 0
BITMAP
40
40
40
80
80
80
ENDCHAR
STARTCHAR zero
ENCODING 48
SWIDTH 456 0
DWIDTH 4 0
BBX 3 6 0 0
BITMAP
40
A0
A0
A0
A0
40
ENDCHAR
STARTCHAR one
ENCODING 49
SWIDTH 456 0
DWIDTH 4 0
BBX 2 6 1 0
BITMAP
40
C0
40
40
40
40
ENDCHAR
STARTCHAR two
ENCODING 50
SWIDTH 456 0
DWIDTH 4 0
BBX 3 6 0 0
BITMAP
C0
A0
20
40
80
E0
ENDCHAR
STARTCHAR three
ENCODING 51
SWIDTH 456 0
DWIDTH 4 0
BBX 3 6 0 0
BITMAP
C0
20
40
20
A0
C0
ENDCHAR
STARTCHAR four
ENCODING 52
SWIDTH 456 0
DWIDTH 4 0
BBX 4 6 0 0
BITMAP
60
60
60
A0
F0
20
ENDCHAR
STARTCHAR five
ENCODING 53
SWIDTH 456 0
DWIDTH 4 0
BBX 3 6 0 0
BITMAP
E0
80
C0
20
A0
C0
ENDCHAR
STARTCHAR six
ENCODING 54
SWIDTH 456 0
DWIDTH 4 0
BBX 3 6 0 0
BITMAP
60
80
C0
A0
A0
40
ENDCHAR
STARTCHAR seven
ENCODING 55
SWIDTH 456 0
DWIDTH 4 0
BBX 3 6 0 0
BITMAP
E0
20
40
40
40
40
ENDCHAR
STARTCHAR eight
ENCODING 56
SWIDTH 456 0
DWIDTH 4 0
BBX 3 6 0 0
BITMAP
40
A0
40
A0
A0
40
ENDCHAR
STARTCHAR nine
ENCODING 57
SWIDTH 456 0
DWIDTH 4 0
BBX 3 6 0 0
BITMAP
40
A0
A0
60
20
C0
ENDCHAR
STARTCHAR colon
ENCODING 58
SWIDTH 228 0
DWIDTH 2 0
BBX 1 4 0 0
BITMAP
80
00
00
80
ENDCHAR
STARTCHAR semicolon
ENCODING 59
SWIDTH 228 0
DWIDTH 2 0
BBX 2 6 -1 -2
BITMAP
40
00
00
40
40
80
ENDCHAR
STARTCHAR less
ENCODING 60
SWIDTH 479 0
DWIDTH 4 0
BBX 3 3 0 1
BITMAP
60
80
60
ENDCHAR
STARTCHAR equal
ENCODING 61
SWIDTH 479 0
DWIDTH 4 0
BBX 3 3 0 2
BITMAP
E0
00
E0
ENDCHAR
STARTCHAR greater
ENCODING 62
SWIDTH 479 0
DWIDTH 4 0
BBX 3 3 0 1
BITMAP
C0
20
C0
ENDCHAR
STARTCHAR question
ENCODING 63
SWIDTH 456 0
DWIDTH 4 0
BBX 3 6 0 0
BITMAP
C0
A0
20
40
00
40
ENDCHAR
STARTCHAR at
ENCODING 64
SWIDTH 832 0
DWIDTH 7 0
BBX 6 8 0 -2
BITMAP
38
44
9C
AC
AC
98
44
38
ENDCHAR
STARTCHAR A
ENCODING 65
SWIDTH 546 0
DWIDTH 4 0
BBX 5 6 0 0
BITMAP
20
50
50
50
F8
88
ENDCHAR
STARTCHAR B
ENCODING 66
SWIDTH 546 0
DWIDTH 4 0
BBX 3 6 1 0
BITMAP
C0
A0
C0
A0
A0
C0
ENDCHAR
STARTCHAR C
ENCODING 67
SWIDTH 591 0
DWIDTH 5 0
BBX 4 6 0 0
BITMAP
60
90
80
80
90
60
ENDCHAR
STARTCHAR D
ENCODING 68
SWIDTH 591 0
DWIDTH 5 0
BBX 4 6 1 0
BITMAP
E0
90
90
90
90
E0
ENDCHAR
STARTCHAR E
ENCODING 69
SWIDTH 546 0
DWIDTH 4 0
BBX 4 6 1 0
BITMAP
F0
80
F0
80
80
F0
ENDCHAR
STARTCHAR F
ENCODING 70
SWIDTH 500 0
DWIDTH 4 0
BBX 3 6 1 0
BITMAP
E0
80
E0
80
80
80
ENDCHAR
STARTCHAR G
ENCODING 71
SWIDTH 638 0
DWIDTH 5 0
BBX 5 6 0 0
BITMAP
70
88
80
98
88
70
ENDCHAR
STARTCHAR H
ENCODING 72
SWIDTH 591 0
DWIDTH 5 0
BBX 4 6 1 0
BITMAP
90
90
F0
90
90
90
ENDCHAR
STARTCHAR I
ENCODING 73
SWIDTH 228 0
DWIDTH 2 0
BBX 1 6 1 0
BITMAP
80
80
80
80
80
80
ENDCHAR
STARTCHAR J
ENCODING 74
SWIDTH 410 0
DWIDTH 3 0
BBX 3 6 0 0
BITMAP
20
20
20
20
A0
C0
ENDCHAR
STARTCHAR K
ENCODING 75
SWIDTH 546 0
DWIDTH 4 0
BBX 3 6 1 0
BITMAP
A0
C0
C0
C0
C0
A0
ENDCHAR
STARTCHAR L
ENCODING 76
SWIDTH 456 0
DWIDTH 4 0
BBX 3 6 1 0
BITMAP
80
80
80
80
80
E0
ENDCHAR
STARTCHAR M
ENCODING 77
SWIDTH 683 0
DWIDTH 5 0
BBX 5 6 1 0
BITMAP
88
D8
D8
D8
D8
A8
ENDCHAR
STARTCHAR N
ENCODING 78
SWIDTH 591 0
DWIDTH 5 0
BBX 4 6 1 0
BITMAP
90
D0
D0
B0
B0
90
ENDCHAR
STARTCHAR O
ENCODING 79
SWIDTH 638 0
DWIDTH 5 0
BBX 5 6 0 0
BITMAP
70
88
88
88
88
70
ENDCHAR
STARTCHAR P
ENCODING 80
SWIDTH 546 0
DWIDTH 4 0
BBX 4 6 1 0
BITMAP
E0
90
90
E0
80
80
ENDCHAR
STARTCHAR Q
ENCODING 81
SWIDTH 638 0
DWIDTH 5 0
BBX 5 6 0 0
BITMAP
70
88
88
88
90
78
ENDCHAR
STARTCHAR R
ENCODING 82
SWIDTH 591 0
DWIDTH 5 0
BBX 4 6 1 0
BITMAP
E0
90
E0
C0
A0
90
ENDCHAR
STARTCHAR S
ENCODING 83
SWIDTH 546 0
DWIDTH 4 0
BBX 4 6 0 0
BITMAP
E0
90
C0
20
90
70
ENDCHAR
STARTCHAR T
ENCODING 84
SWIDTH 500 0
DWIDTH 4 0
BBX 5 6 0 0
BITMAP
F8
20
20
20
20
20
ENDCHAR
STARTCHAR U
ENCODING 85
SWIDTH 591 0
DWIDTH 5 0
BBX 4 6 1 0
BITMAP
90
90
90
90
90
60
ENDCHAR
STARTCHAR V
ENCODING 86
SWIDTH 546 0
DWIDTH 4 0
BBX 5 6 0 0
BITMAP
88
88
50
50
50
20
ENDCHAR
STARTCHAR W
ENCODING 87
SWIDTH 773 0
DWIDTH 6 0
BBX 5 6 0 0
BITMAP
A8
E8
E8
E8
E8
50
ENDCHAR
STARTCHAR X
ENCODING 88
SWIDTH 546 0
DWIDTH 4 0
BBX 4 6 0 0
BITMAP
90
60
60
60
60
90
ENDCHAR
STARTCHAR Y
ENCODING 89
SWIDTH 546 0
DWIDTH 4 0
BBX 5 6 0 0
BITMAP
88
50
50
20
20
20
ENDCHAR
STARTCHAR Z
ENCODING 90
SWIDTH 500 0
DWIDTH 4 0
BBX 4 6 0 0
BITMAP
F0
10
20
40
80
F0
ENDCHAR
STARTCHAR bracketleft
ENCODING 91
SWIDTH 228 0
DWIDTH 2 0
BBX 2 8 1 -2
BITMAP
C0
80
80
80
80
80
80
C0
ENDCHAR
STARTCHAR backslash
ENCODING 92
SWIDTH 228 0
DWIDTH 2 0
BBX 2 6 0 0
BITMAP
80
80
80
40
40
40
ENDCHAR
STARTCHAR bracketright
ENCODING 93
SWIDTH 228 0
DWIDTH 2 0
BBX 2 8 1 -2
BITMAP
C0
40
40
40
40
40
40
C0
ENDCHAR
STARTCHAR asciicircum
ENCODING 94
SWIDTH 384 0
DWIDTH 3 0
BBX 3 3 0 3
BITMAP
40
A0
A0
ENDCHAR
STARTCHAR underscore
ENCODING 95
SWIDTH 456 0
DWIDTH 4 0
BBX 4 1 0 -1
BITMAP
F0
ENDCHAR
STARTCHAR grave
ENCODING 96
SWIDTH 272 0
DWIDTH 2 0
BBX 1 2 0 5
BITMAP
80
80
ENDCHAR
STARTCHAR a
ENCODING 97
SWIDTH 456 0
DWIDTH 4 0
BBX 3 4 0 0
BITMAP
C0
E0
A0
E0
ENDCHAR
STARTCHAR b
ENCODING 98
SWIDTH 456 0
DWIDTH 4 0
BBX 3 6 0 0
BITMAP
80
80
C0
A0
A0
C0
ENDCHAR
STARTCHAR c
ENCODING 99
SWIDTH 410 0
DWIDTH 3 0
BBX 3 4 0 0
BITMAP
60
80
A0
40
ENDCHAR
STARTCHAR d
ENCODING 100
SWIDTH 456 0
DWIDTH 4 0
BBX 3 6 0 0
BITMAP
20
20
60
A0
A0
60
ENDCHAR
STARTCHAR e
ENCODING 101
SWIDTH 456 0
DWIDTH 4 0
BBX 3 4 0 0
BITMAP
40
E0
80
60
ENDCHAR
STARTCHAR f
ENCODING 102
SWIDTH 228 0
DWIDTH 2 0
BBX 3 6 0 0
BITMAP
60
40
E0
40
40
40
ENDCHAR
STARTCHAR g
ENCODING 103
SWIDTH 456 0
DWIDTH 4 0
BBX 3 6 0 -2
BITMAP
60
A0
A0
60
20
C0
ENDCHAR
STARTCHAR h
ENCODING 104
SWIDTH 456 0
DWIDTH 4 0
BBX 3 6 0 0
BITMAP
80
80
E0
A0
A0
A0
ENDCHAR
STARTCHAR i
ENCODING 105
SWIDTH 182 0
DWIDTH 1 0
BBX 1 6 0 0
BITMAP
80
00
80
80
80
80
ENDCHAR
STARTCHAR j
ENCODING 106
SWIDTH 182 0
DWIDTH 1 0
BBX 2 8 -1 -2
BITMAP
40
00
40
40
40
40
40
C0
ENDCHAR
STARTCHAR k
ENCODING 107
SWIDTH 410 0
DWIDTH 3 0
BBX 3 6 0 0
BITMAP
80
80
A0
C0
A0
A0
ENDCHAR
STARTCHAR l
ENCODING 108
SWIDTH 182 0
DWIDTH 1 0
BBX 1 6 0 0
BITMAP
80
80
80
80
80
80
ENDCHAR
STARTCHAR m
ENCODING 109
SWIDTH 683 0
DWIDTH 5 0
BBX 5 4 0 0
BITMAP
F8
A8
A8
A8
ENDCHAR
STARTCHAR n
ENCODING 110
SWIDTH 456 0
DWIDTH 4 0
BBX 3 4 0 0
BITMAP
E0
A0
A0
A0
ENDCHAR
STARTCHAR o
ENCODING 111
SWIDTH 456 0
DWIDTH 4 0
BBX 3 4 0 0
BITMAP
40
A0
A0
40
ENDCHAR
STARTCHAR p
ENCODING 112
SWIDTH 456 0
DWIDTH 4 0
BBX 3 6 0 -2
BITMAP
C0
A0
A0
C0
80
80
ENDCHAR
STARTCHAR q
ENCODING 113
SWIDTH 456 0
DWIDTH 4 0
BBX 3 6 0 -2
BITMAP
60
A0
A0
60
20
20
ENDCHAR
STARTCHAR r
ENCODING 114
SWIDTH 272 0
DWIDTH 2 0
BBX 2 4 0 0
BITMAP
C0
80
80
80
ENDCHAR
STARTCHAR s
ENCODING 115
SWIDTH 410 0
DWIDTH 3 0
BBX 3 4 0 0
BITMAP
E0
E0
20
E0
ENDCHAR
STARTCHAR t
ENCODING 116
SWIDTH 228 0
DWIDTH 2 0
BBX 3 6 0 0
BITMAP
40
40
E0
40
40
60
ENDCHAR
STARTCHAR u
ENCODING 117
SWIDTH 456 0
DWIDTH 4 0
BBX 3 4 0 0
BITMAP
A0
A0
A0
E0
ENDCHAR
STARTCHAR v
ENCODING 118
SWIDTH 410 0
DWIDTH 3 0
BBX 3 4 0 0
BITMAP
A0
A0
A0
40
ENDCHAR
STARTCHAR w
ENCODING 119
SWIDTH 591 0
DWIDTH 5 0
BBX 5 4 0 0
BITMAP
A8
E8
E8
50
ENDCHAR
STARTCHAR x
ENCODING 120
SWIDTH 410 0
DWIDTH 3 0
BBX 3 4 0 0
BITMAP
A0
40
40
A0
ENDCHAR
STARTCHAR y
ENCODING 121
SWIDTH 410 0
DWIDTH 3 0
BBX 3 6 0 -2
BITMAP
A0
C0
40
40
40
80
ENDCHAR
STARTCHAR z
ENCODING 122
SWIDTH 410 0
DWIDTH 3 0
BBX 3 4 0 0
BITMAP
E0
40
C0
E0
ENDCHAR
STARTCHAR braceleft
ENCODING 123
SWIDTH 273 0
DWIDTH 2 0
BBX 3 8 0 -2
BITMAP
60
40
40
80
40
40
40
60
ENDCHAR
STARTCHAR bar
ENCODING 124
SWIDTH 212 0
DWIDTH 2 0
BBX 1 8 0 -2
BITMAP
80
80
80
80
80
80
80
80
ENDCHAR
STARTCHAR braceright
ENCODING 125
SWIDTH 273 0
DWIDTH 2 0
BBX 3 8 0 -2
BITMAP
C0
40
40
20
40
40
40
C0
ENDCHAR
STARTCHAR asciitilde
ENCODING 126
SWIDTH 479 0
DWIDTH 4 0
BBX 3 2 0 3
BITMAP
E0
E0
ENDCHAR
STARTCHAR space.dup1
ENCODING 160
SWIDTH 228 0
DWIDTH 2 0
BBX 1 1 0 0
BITMAP
00
ENDCHAR
STARTCHAR exclamdown
ENCODING 161
SWIDTH 272 0
DWIDTH 2 0
BBX 1 6 1 -2
BITMAP
80
00
80
80
80
80
ENDCHAR
STARTCHAR cent
ENCODING 162
SWIDTH 456 0
DWIDTH 4 0
BBX 3 8 0 -2
BITMAP
20
20
60
C0
E0
E0
80
80
ENDCHAR
STARTCHAR sterling
ENCODING 163
SWIDTH 456 0
DWIDTH 4 0
BBX 3 6 0 0
BITMAP
20
60
E0
40
40
E0
ENDCHAR
STARTCHAR currency
ENCODING 164
SWIDTH 456 0
DWIDTH 4 0
BBX 3 3 0 1
BITMAP
E0
A0
E0
ENDCHAR
STARTCHAR yen
ENCODING 165
SWIDTH 456 0
DWIDTH 4 0
BBX 5 6 0 0
BITMAP
88
50
50
F8
20
F8
ENDCHAR
STARTCHAR brokenbar
ENCODING 166
SWIDTH 212 0
DWIDTH 2 0
BBX 1 7 1 -1
BITMAP
80
80
80
00
80
80
80
ENDCHAR
STARTCHAR section
ENCODING 167
SWIDTH 456 0
DWIDTH 4 0
BBX 3 8 0 -2
BITMAP
E0
80
40
A0
A0
40
20
E0
ENDCHAR
STARTCHAR dieresis
ENCODING 168
SWIDTH 272 0
DWIDTH 2 0
BBX 3 1 1 5
BITMAP
A0
ENDCHAR
STARTCHAR copyright
ENCODING 169
SWIDTH 604 0
DWIDTH 5 0
BBX 5 6 0 0
BITMAP
70
88
A8
A8
88
70
ENDCHAR
STARTCHAR ordfeminine
ENCODING 170
SWIDTH 303 0
DWIDTH 2 0
BBX 3 4 0 2
BITMAP
E0
60
A0
E0
ENDCHAR
STARTCHAR guillemotleft
ENCODING 171
SWIDTH 456 0
DWIDTH 4 0
BBX 4 3 0 0
BITMAP
50
A0
50
ENDCHAR
STARTCHAR logicalnot
ENCODING 172
SWIDTH 479 0
DWIDTH 4 0
BBX 3 2 0 2
BITMAP
E0
20
ENDCHAR
STARTCHAR hyphen.dup2
ENCODING 173
SWIDTH 272 0
DWIDTH 2 0
BBX 2 1 0 2
BITMAP
C0
ENDCHAR
STARTCHAR registered
ENCODING 174
SWIDTH 604 0
DWIDTH 5 0
BBX 5 6 0 0
BITMAP
70
88
A8
A8
88
70
ENDCHAR
STARTCHAR overscore
ENCODING 175
SWIDTH 500 0
DWIDTH 4 0
BBX 4 1 0 6
BITMAP
F0
ENDCHAR
STARTCHAR degree
ENCODING 176
SWIDTH 399 0
DWIDTH 3 0
BBX 2 2 0 3
BITMAP
80
C0
ENDCHAR
STARTCHAR plusminus
ENCODING 177
SWIDTH 548 0
DWIDTH 4 0
BBX 5 4 0 0
BITMAP
20
F8
20
F8
ENDCHAR
STARTCHAR twosuperior
ENCODING 178
SWIDTH 272 0
DWIDTH 2 0
BBX 2 4 0 2
BITMAP
C0
C0
80
C0
ENDCHAR
STARTCHAR threesuperior
ENCODING 179
SWIDTH 272 0
DWIDTH 2 0
BBX 2 4 0 2
BITMAP
C0
80
40
C0
ENDCHAR
STARTCHAR acute
ENCODING 180
SWIDTH 272 0
DWIDTH 2 0
BBX 1 1 1 5
BITMAP
80
ENDCHAR
STARTCHAR mu1
ENCODING 181
SWIDTH 576 0
DWIDTH 5 0
BBX 4 6 0 -2
BITMAP
90
90
90
F0
80
80
ENDCHAR
STARTCHAR paragraph
ENCODING 182
SWIDTH 439 0
DWIDTH 5 0
BBX 5 7 0 -1
BITMAP
F8
D0
D0
50
50
50
50
ENDCHAR
STARTCHAR middot
ENCODING 183
SWIDTH 271 0
DWIDTH 2 0
BBX 1 1 1 2
BITMAP
80
ENDCHAR
STARTCHAR cedilla
ENCODING 184
SWIDTH 272 0
DWIDTH 2 0
BBX 3 3 0 -3
BITMAP
40
20
E0
ENDCHAR
STARTCHAR onesuperior
ENCODING 185
SWIDTH 272 0
DWIDTH 2 0
BBX 2 4 0 2
BITMAP
C0
40
40
40
ENDCHAR
STARTCHAR ordmasculine
ENCODING 186
SWIDTH 298 0
DWIDTH 2 0
BBX 2 4 0 2
BITMAP
C0
C0
C0
C0
ENDCHAR
STARTCHAR guillemotright
ENCODING 187
SWIDTH 456 0
DWIDTH 4 0
BBX 4 3 0 0
BITMAP
A0
50
A0
ENDCHAR
STARTCHAR onequarter
ENCODING 188
SWIDTH 684 0
DWIDTH 5 0
BBX 4 6 1 0
BITMAP
90
A0
C0
50
B0
B0
ENDCHAR
STARTCHAR onehalf
ENCODING 189
SWIDTH 684 0
DWIDTH 5 0
BBX 4 6 1 0
BITMAP
90
A0
C0
50
90
A0
ENDCHAR
STARTCHAR threequarters
ENCODING 190
SWIDTH 684 0
DWIDTH 5 0
BBX 5 6 0 0
BITMAP
C8
50
E0
28
58
58
ENDCHAR
ENDFONT
