STARTFONT 2.1
FONT -FontForge-Arial Narrow-Book-R-Normal--22-210-75-75-P-95-ISO10646-1
SIZE 21 75 75
FONTBOUNDINGBOX 19 23 -1 -5
COMMENT "Generated by fontforge, http://fontforge.sourceforge.net"
COMMENT "(c) 2008 The Monotype Corporation. All Rights Reserved."
STARTPROPERTIES 40
FOUNDRY "FontForge"
FAMILY_NAME "Arial Narrow"
WEIGHT_NAME "Book"
SLANT "R"
SETWIDTH_NAME "Normal"
ADD_STYLE_NAME ""
PIXEL_SIZE 22
POINT_SIZE 210
RESOLUTION_X 75
RESOLUTION_Y 75
SPACING "P"
AVERAGE_WIDTH 95
CHARSET_REGISTRY "ISO10646"
CHARSET_ENCODING "1"
FONTNAME_REGISTRY ""
CHARSET_COLLECTIONS "ISO10646-1"
FONT_NAME "ArialNarrow"
FACE_NAME "Arial Narrow"
COPYRIGHT "(c) 2008 The Monotype Corporation. All Rights Reserved."
FONT_VERSION "2.40"
FONT_ASCENT 18
FONT_DESCENT 4
UNDERLINE_POSITION -3
UNDERLINE_THICKNESS 2
X_HEIGHT 10
CAP_HEIGHT 15
RAW_ASCENT 799
RAW_DESCENT 200
NORM_SPACE 5
RELATIVE_WEIGHT 40
RELATIVE_SETWIDTH 30
SUPERSCRIPT_X 0
SUPERSCRIPT_Y 5
SUPERSCRIPT_SIZE 14
SUBSCRIPT_X 0
SUBSCRIPT_Y 1
SUBSCRIPT_SIZE 14
FIGURE_WIDTH 10
AVG_LOWERCASE_WIDTH 88
AVG_UPPERCASE_WIDTH 121
ENDPROPERTIES
CHARS 125
STARTCHAR space
ENCODING 32
SWIDTH 228 0
DWIDTH 5 0
BBX 1 1 0 0
BITMAP
00
ENDCHAR
STARTCHAR exclam
ENCODING 33
SWIDTH 228 0
DWIDTH 5 0
BBX 2 16 1 0
BITMAP
C0
C0
C0
C0
C0
C0
C0
C0
C0
C0
C0
C0
00
00
C0
C0
ENDCHAR
STARTCHAR quotedbl
ENCODING 34
SWIDTH 291 0
DWIDTH 6 0
BBX 5 6 0 10
BITMAP
D8
D8
D8
D8
D8
D8
ENDCHAR
STARTCHAR numbersign
ENCODING 35
SWIDTH 456 0
DWIDTH 12 0
BBX 12 16 0 0
BITMAP
0C60
0C60
0C60
18C0
18C0
FFF0
FFF0
18C0
3180
FFF0
FFF0
3180
3180
6300
6300
6300
ENDCHAR
STARTCHAR dollar
ENCODING 36
SWIDTH 456 0
DWIDTH 10 0
BBX 8 19 1 -2
BITMAP
08
3C
7E
EB
CB
C8
C8
E8
7C
1E
0B
0B
CB
CB
6B
7E
3C
08
08
ENDCHAR
STARTCHAR percent
ENCODING 37
SWIDTH 729 0
DWIDTH 19 0
BBX 17 16 1 0
BITMAP
380C00
7C1800
C61800
C63000
C63000
C66000
7C6000
38C000
00CE00
019F00
033180
033180
063180
063180
0C1F00
0C0E00
ENDCHAR
STARTCHAR ampersand
ENCODING 38
SWIDTH 546 0
DWIDTH 12 0
BBX 11 16 1 0
BITMAP
1E00
1F00
3300
3300
3300
1E00
1C00
3C00
66C0
C6C0
C380
C180
C180
E3C0
7E60
3C40
ENDCHAR
STARTCHAR quotesingle
ENCODING 39
SWIDTH 157 0
DWIDTH 3 0
BBX 2 6 0 10
BITMAP
C0
C0
C0
C0
C0
C0
ENDCHAR
STARTCHAR parenleft
ENCODING 40
SWIDTH 272 0
DWIDTH 6 0
BBX 5 20 1 -4
BITMAP
18
30
30
60
60
60
C0
C0
C0
C0
C0
C0
C0
C0
60
60
60
30
30
18
ENDCHAR
STARTCHAR parenright
ENCODING 41
SWIDTH 272 0
DWIDTH 6 0
BBX 5 20 0 -4
BITMAP
C0
60
60
30
30
30
18
18
18
18
18
18
18
18
30
30
30
60
60
C0
ENDCHAR
STARTCHAR asterisk
ENCODING 42
SWIDTH 318 0
DWIDTH 7 0
BBX 6 7 0 9
BITMAP
30
B4
FC
78
78
48
48
ENDCHAR
STARTCHAR plus
ENCODING 43
SWIDTH 479 0
DWIDTH 11 0
BBX 10 10 0 3
BITMAP
0C00
0C00
0C00
0C00
FFC0
FFC0
0C00
0C00
0C00
0C00
ENDCHAR
STARTCHAR comma
ENCODING 44
SWIDTH 228 0
DWIDTH 5 0
BBX 2 5 1 -3
BITMAP
C0
C0
40
40
80
ENDCHAR
STARTCHAR hyphen
ENCODING 45
SWIDTH 272 0
DWIDTH 6 0
BBX 5 2 0 5
BITMAP
F8
F8
ENDCHAR
STARTCHAR period
ENCODING 46
SWIDTH 228 0
DWIDTH 5 0
BBX 2 2 1 0
BITMAP
C0
C0
ENDCHAR
STARTCHAR slash
ENCODING 47
SWIDTH 228 0
DWIDTH 5 0
BBX 6 16 -1 0
BITMAP
0C
0C
0C
0C
18
18
18
30
30
30
30
60
60
60
60
C0
ENDCHAR
STARTCHAR zero
ENCODING 48
SWIDTH 456 0
DWIDTH 10 0
BBX 8 16 1 0
BITMAP
3C
7E
66
C3
C3
C3
C3
C3
C3
C3
C3
C3
C3
66
7E
3C
ENDCHAR
STARTCHAR one
ENCODING 49
SWIDTH 456 0
DWIDTH 10 0
BBX 5 16 2 0
BITMAP
18
18
38
78
D8
98
18
18
18
18
18
18
18
18
18
18
ENDCHAR
STARTCHAR two
ENCODING 50
SWIDTH 456 0
DWIDTH 10 0
BBX 8 16 1 0
BITMAP
3C
7E
67
C3
C3
03
03
06
0E
1C
18
30
60
40
FF
FF
ENDCHAR
STARTCHAR three
ENCODING 51
SWIDTH 456 0
DWIDTH 10 0
BBX 8 16 1 0
BITMAP
3C
7E
E7
C3
03
07
1E
1C
06
03
03
03
C3
E7
7E
3C
ENDCHAR
STARTCHAR four
ENCODING 52
SWIDTH 456 0
DWIDTH 10 0
BBX 10 16 0 0
BITMAP
0700
0700
0F00
0F00
1B00
1B00
3300
6300
6300
C300
FFC0
FFC0
0300
0300
0300
0300
ENDCHAR
STARTCHAR five
ENCODING 53
SWIDTH 456 0
DWIDTH 10 0
BBX 8 16 1 0
BITMAP
7E
7E
60
60
C0
DC
FE
E7
03
03
03
03
C3
E6
7E
3C
ENDCHAR
STARTCHAR six
ENCODING 54
SWIDTH 456 0
DWIDTH 10 0
BBX 8 16 1 0
BITMAP
1C
3E
67
43
C0
DC
FE
E7
C3
C3
C3
C3
C3
66
7E
3C
ENDCHAR
STARTCHAR seven
ENCODING 55
SWIDTH 456 0
DWIDTH 10 0
BBX 8 16 1 0
BITMAP
FF
FF
02
06
06
0C
0C
08
18
18
18
18
30
30
30
30
ENDCHAR
STARTCHAR eight
ENCODING 56
SWIDTH 456 0
DWIDTH 10 0
BBX 8 16 1 0
BITMAP
3C
7E
E7
C3
C3
E7
7E
7E
66
C3
C3
C3
C3
E7
7E
3C
ENDCHAR
STARTCHAR nine
ENCODING 57
SWIDTH 456 0
DWIDTH 10 0
BBX 8 16 1 0
BITMAP
3C
7E
66
C3
C3
C3
C3
C3
E7
7F
3B
03
C2
E6
7C
38
ENDCHAR
STARTCHAR colon
ENCODING 58
SWIDTH 228 0
DWIDTH 5 0
BBX 2 11 1 0
BITMAP
C0
C0
00
00
00
00
00
00
00
C0
C0
ENDCHAR
STARTCHAR semicolon
ENCODING 59
SWIDTH 228 0
DWIDTH 5 0
BBX 2 14 1 -3
BITMAP
C0
C0
00
00
00
00
00
00
00
C0
C0
40
40
80
ENDCHAR
STARTCHAR less
ENCODING 60
SWIDTH 479 0
DWIDTH 11 0
BBX 9 11 1 2
BITMAP
0080
0380
0F00
3C00
F000
C000
F000
3C00
0F00
0380
0080
ENDCHAR
STARTCHAR equal
ENCODING 61
SWIDTH 479 0
DWIDTH 11 0
BBX 9 7 1 4
BITMAP
FF80
FF80
0000
0000
0000
FF80
FF80
ENDCHAR
STARTCHAR greater
ENCODING 62
SWIDTH 479 0
DWIDTH 11 0
BBX 9 11 1 2
BITMAP
8000
E000
7800
1E00
0780
0180
0780
1E00
7800
E000
8000
ENDCHAR
STARTCHAR question
ENCODING 63
SWIDTH 456 0
DWIDTH 10 0
BBX 9 16 0 0
BITMAP
3E00
7F00
6380
C180
C180
0180
0380
0300
0600
0C00
1800
1800
1800
0000
1800
1800
ENDCHAR
STARTCHAR at
ENCODING 64
SWIDTH 832 0
DWIDTH 18 0
BBX 17 21 1 -5
BITMAP
03E000
0FF800
1C1C00
380E00
300600
61B700
63F300
C67300
C63300
CC3300
CC3300
CC6600
CC6600
CEEC00
E7FC00
677000
700180
380300
1C0E00
0FFC00
03F000
ENDCHAR
STARTCHAR A
ENCODING 65
SWIDTH 546 0
DWIDTH 11 0
BBX 11 16 0 0
BITMAP
0E00
0E00
1B00
1B00
1B00
1B00
3180
3180
3180
3180
7FC0
7FC0
60C0
60C0
C060
C060
ENDCHAR
STARTCHAR B
ENCODING 66
SWIDTH 546 0
DWIDTH 12 0
BBX 10 16 1 0
BITMAP
FF00
FF80
C1C0
C0C0
C0C0
C0C0
C180
FF00
FF80
C1C0
C0C0
C0C0
C0C0
C1C0
FF80
FF00
ENDCHAR
STARTCHAR C
ENCODING 67
SWIDTH 591 0
DWIDTH 13 0
BBX 11 16 1 0
BITMAP
0F00
3F80
70C0
60E0
E060
C000
C000
C000
C000
C000
C060
E060
60C0
71C0
3F80
1F00
ENDCHAR
STARTCHAR D
ENCODING 68
SWIDTH 591 0
DWIDTH 13 0
BBX 11 16 1 0
BITMAP
FF00
FF80
C1C0
C0C0
C060
C060
C060
C060
C060
C060
C060
C0E0
C0C0
C1C0
FF80
FF00
ENDCHAR
STARTCHAR E
ENCODING 69
SWIDTH 546 0
DWIDTH 12 0
BBX 10 16 1 0
BITMAP
FFC0
FFC0
C000
C000
C000
C000
C000
FFC0
FFC0
C000
C000
C000
C000
C000
FFC0
FFC0
ENDCHAR
STARTCHAR F
ENCODING 70
SWIDTH 500 0
DWIDTH 11 0
BBX 9 16 1 0
BITMAP
FF80
FF80
C000
C000
C000
C000
C000
FF00
FF00
C000
C000
C000
C000
C000
C000
C000
ENDCHAR
STARTCHAR G
ENCODING 71
SWIDTH 638 0
DWIDTH 14 0
BBX 12 16 1 0
BITMAP
0F80
3FC0
30E0
6070
6030
C000
C000
C000
C3F0
C3F0
C030
6030
6030
3070
3FE0
0F80
ENDCHAR
STARTCHAR H
ENCODING 72
SWIDTH 591 0
DWIDTH 13 0
BBX 11 16 1 0
BITMAP
C060
C060
C060
C060
C060
C060
FFE0
FFE0
C060
C060
C060
C060
C060
C060
C060
C060
ENDCHAR
STARTCHAR I
ENCODING 73
SWIDTH 228 0
DWIDTH 4 0
BBX 2 16 1 0
BITMAP
C0
C0
C0
C0
C0
C0
C0
C0
C0
C0
C0
C0
C0
C0
C0
C0
ENDCHAR
STARTCHAR J
ENCODING 74
SWIDTH 410 0
DWIDTH 9 0
BBX 7 16 1 0
BITMAP
06
06
06
06
06
06
06
06
06
06
06
C6
C6
EE
7C
38
ENDCHAR
STARTCHAR K
ENCODING 75
SWIDTH 546 0
DWIDTH 12 0
BBX 11 16 1 0
BITMAP
C0C0
C1C0
C180
C300
C600
CC00
D800
FC00
FE00
E600
C300
C300
C180
C1C0
C0C0
C060
ENDCHAR
STARTCHAR L
ENCODING 76
SWIDTH 456 0
DWIDTH 10 0
BBX 8 16 1 0
BITMAP
C0
C0
C0
C0
C0
C0
C0
C0
C0
C0
C0
C0
C0
C0
FF
FF
ENDCHAR
STARTCHAR M
ENCODING 77
SWIDTH 683 0
DWIDTH 15 0
BBX 13 16 1 0
BITMAP
E038
E038
F038
F078
F078
F078
D878
D8D8
D8D8
D8D8
CD98
CD98
CD98
CD98
C718
C718
ENDCHAR
STARTCHAR N
ENCODING 78
SWIDTH 591 0
DWIDTH 13 0
BBX 11 16 1 0
BITMAP
C060
E060
E060
F060
D860
D860
CC60
CC60
C660
C660
C360
C360
C1E0
C0E0
C0E0
C060
ENDCHAR
STARTCHAR O
ENCODING 79
SWIDTH 638 0
DWIDTH 14 0
BBX 12 16 1 0
BITMAP
0F00
3FC0
70E0
6060
E070
C030
C030
C030
C030
C030
C030
6070
6060
70E0
3FC0
0F00
ENDCHAR
STARTCHAR P
ENCODING 80
SWIDTH 546 0
DWIDTH 12 0
BBX 10 16 1 0
BITMAP
FF00
FF80
C1C0
C0C0
C0C0
C0C0
C0C0
C1C0
FF80
FF00
C000
C000
C000
C000
C000
C000
ENDCHAR
STARTCHAR Q
ENCODING 81
SWIDTH 638 0
DWIDTH 14 0
BBX 12 17 1 -1
BITMAP
0F00
3FC0
70E0
6060
6070
C030
C030
C030
C030
C030
C030
E260
6360
71C0
3FE0
0F70
0010
ENDCHAR
STARTCHAR R
ENCODING 82
SWIDTH 591 0
DWIDTH 13 0
BBX 11 16 1 0
BITMAP
FF00
FF80
C1C0
C0C0
C0C0
C0C0
C180
FF80
FC00
C300
C380
C180
C1C0
C0C0
C0C0
C060
ENDCHAR
STARTCHAR S
ENCODING 83
SWIDTH 546 0
DWIDTH 12 0
BBX 10 16 1 0
BITMAP
3E00
7F80
E180
C0C0
C0C0
C000
7800
3F00
0F80
01C0
00C0
C0C0
C0C0
6180
7F80
1E00
ENDCHAR
STARTCHAR T
ENCODING 84
SWIDTH 500 0
DWIDTH 11 0
BBX 10 16 0 0
BITMAP
FFC0
FFC0
0C00
0C00
0C00
0C00
0C00
0C00
0C00
0C00
0C00
0C00
0C00
0C00
0C00
0C00
ENDCHAR
STARTCHAR U
ENCODING 85
SWIDTH 591 0
DWIDTH 13 0
BBX 11 16 1 0
BITMAP
C060
C060
C060
C060
C060
C060
C060
C060
C060
C060
C060
C060
E0E0
60C0
7FC0
1F00
ENDCHAR
STARTCHAR V
ENCODING 86
SWIDTH 546 0
DWIDTH 13 0
BBX 11 16 1 0
BITMAP
C060
C060
60C0
60C0
60C0
60C0
3180
3180
3180
3180
1B00
1B00
1B00
1B00
0E00
0E00
ENDCHAR
STARTCHAR W
ENCODING 87
SWIDTH 773 0
DWIDTH 17 0
BBX 17 16 0 0
BITMAP
C1C180
C1C180
C36180
636180
636300
636300
636300
637300
763300
363600
363600
363600
363600
341600
1C1C00
1C1C00
ENDCHAR
STARTCHAR X
ENCODING 88
SWIDTH 546 0
DWIDTH 12 0
BBX 12 16 0 0
BITMAP
C030
6060
30C0
30C0
1980
1B80
0F00
0600
0600
0F00
1980
1980
30C0
30C0
6060
C030
ENDCHAR
STARTCHAR Y
ENCODING 89
SWIDTH 546 0
DWIDTH 12 0
BBX 12 16 0 0
BITMAP
C030
6060
6060
30C0
39C0
1980
0F00
0F00
0600
0600
0600
0600
0600
0600
0600
0600
ENDCHAR
STARTCHAR Z
ENCODING 90
SWIDTH 500 0
DWIDTH 11 0
BBX 10 16 0 0
BITMAP
FFC0
FFC0
00C0
0180
0300
0300
0600
0C00
0C00
1800
3000
3000
6000
C000
FFC0
FFC0
ENDCHAR
STARTCHAR bracketleft
ENCODING 91
SWIDTH 228 0
DWIDTH 5 0
BBX 4 20 1 -4
BITMAP
F0
F0
C0
C0
C0
C0
C0
C0
C0
C0
C0
C0
C0
C0
C0
C0
C0
C0
F0
F0
ENDCHAR
STARTCHAR backslash
ENCODING 92
SWIDTH 228 0
DWIDTH 5 0
BBX 5 16 0 0
BITMAP
C0
C0
C0
60
60
60
60
60
30
30
30
30
30
18
18
18
ENDCHAR
STARTCHAR bracketright
ENCODING 93
SWIDTH 228 0
DWIDTH 5 0
BBX 4 20 0 -4
BITMAP
F0
F0
30
30
30
30
30
30
30
30
30
30
30
30
30
30
30
30
F0
F0
ENDCHAR
STARTCHAR asciicircum
ENCODING 94
SWIDTH 384 0
DWIDTH 8 0
BBX 7 8 0 8
BITMAP
38
38
6C
6C
6C
6C
C6
C6
ENDCHAR
STARTCHAR underscore
ENCODING 95
SWIDTH 456 0
DWIDTH 10 0
BBX 10 1 0 -3
BITMAP
FFC0
ENDCHAR
STARTCHAR grave
ENCODING 96
SWIDTH 272 0
DWIDTH 6 0
BBX 3 3 1 13
BITMAP
C0
60
20
ENDCHAR
STARTCHAR a
ENCODING 97
SWIDTH 456 0
DWIDTH 10 0
BBX 8 11 1 0
BITMAP
3E
7F
C3
07
3F
7B
C3
C3
C7
FF
73
ENDCHAR
STARTCHAR b
ENCODING 98
SWIDTH 456 0
DWIDTH 10 0
BBX 8 16 1 0
BITMAP
C0
C0
C0
C0
C0
DC
FE
E7
C3
C3
C3
C3
C3
E6
FE
DC
ENDCHAR
STARTCHAR c
ENCODING 99
SWIDTH 410 0
DWIDTH 9 0
BBX 7 11 1 0
BITMAP
38
7C
E6
C6
C0
C0
C0
C6
E6
7C
38
ENDCHAR
STARTCHAR d
ENCODING 100
SWIDTH 456 0
DWIDTH 10 0
BBX 8 16 1 0
BITMAP
03
03
03
03
03
3B
7F
E7
C3
C3
C3
C3
C3
67
7F
3B
ENDCHAR
STARTCHAR e
ENCODING 101
SWIDTH 456 0
DWIDTH 10 0
BBX 8 11 1 0
BITMAP
3C
7E
67
C3
FF
FF
C0
C3
E7
7E
3C
ENDCHAR
STARTCHAR f
ENCODING 102
SWIDTH 228 0
DWIDTH 5 0
BBX 6 16 0 0
BITMAP
3C
7C
60
60
60
F8
F8
60
60
60
60
60
60
60
60
60
ENDCHAR
STARTCHAR g
ENCODING 103
SWIDTH 456 0
DWIDTH 10 0
BBX 8 15 1 -4
BITMAP
3B
7F
E7
C3
C3
C3
C3
C3
E7
7F
3B
03
C7
FE
7C
ENDCHAR
STARTCHAR h
ENCODING 104
SWIDTH 456 0
DWIDTH 10 0
BBX 8 16 1 0
BITMAP
C0
C0
C0
C0
C0
DE
FF
E7
C3
C3
C3
C3
C3
C3
C3
C3
ENDCHAR
STARTCHAR i
ENCODING 105
SWIDTH 182 0
DWIDTH 4 0
BBX 2 16 1 0
BITMAP
C0
C0
00
00
00
C0
C0
C0
C0
C0
C0
C0
C0
C0
C0
C0
ENDCHAR
STARTCHAR j
ENCODING 106
SWIDTH 182 0
DWIDTH 4 0
BBX 4 20 -1 -4
BITMAP
30
30
00
00
00
30
30
30
30
30
30
30
30
30
30
30
30
30
F0
E0
ENDCHAR
STARTCHAR k
ENCODING 107
SWIDTH 410 0
DWIDTH 9 0
BBX 7 16 1 0
BITMAP
C0
C0
C0
C0
C0
C6
CC
D8
D0
F0
F8
D8
CC
CC
C6
C6
ENDCHAR
STARTCHAR l
ENCODING 108
SWIDTH 182 0
DWIDTH 4 0
BBX 2 16 1 0
BITMAP
C0
C0
C0
C0
C0
C0
C0
C0
C0
C0
C0
C0
C0
C0
C0
C0
ENDCHAR
STARTCHAR m
ENCODING 109
SWIDTH 683 0
DWIDTH 15 0
BBX 14 11 0 0
BITMAP
DE78
FEFC
E38C
C30C
C30C
C30C
C30C
C30C
C30C
C30C
C30C
ENDCHAR
STARTCHAR n
ENCODING 110
SWIDTH 456 0
DWIDTH 10 0
BBX 8 11 1 0
BITMAP
DE
FF
E7
C3
C3
C3
C3
C3
C3
C3
C3
ENDCHAR
STARTCHAR o
ENCODING 111
SWIDTH 456 0
DWIDTH 10 0
BBX 8 11 1 0
BITMAP
3C
7E
E7
C3
C3
C3
C3
C3
E7
7E
3C
ENDCHAR
STARTCHAR p
ENCODING 112
SWIDTH 456 0
DWIDTH 10 0
BBX 8 15 1 -4
BITMAP
DC
FE
E7
C3
C3
C3
C3
C3
E6
FE
DC
C0
C0
C0
C0
ENDCHAR
STARTCHAR q
ENCODING 113
SWIDTH 456 0
DWIDTH 10 0
BBX 8 15 1 -4
BITMAP
3B
7F
E7
C3
C3
C3
C3
C3
67
7F
3B
03
03
03
03
ENDCHAR
STARTCHAR r
ENCODING 114
SWIDTH 272 0
DWIDTH 6 0
BBX 5 11 1 0
BITMAP
D8
F8
C0
C0
C0
C0
C0
C0
C0
C0
C0
ENDCHAR
STARTCHAR s
ENCODING 115
SWIDTH 410 0
DWIDTH 9 0
BBX 7 11 1 0
BITMAP
38
7E
C6
C0
78
3C
06
C6
C6
7C
38
ENDCHAR
STARTCHAR t
ENCODING 116
SWIDTH 228 0
DWIDTH 5 0
BBX 5 15 0 0
BITMAP
20
60
60
60
F8
F8
60
60
60
60
60
60
60
78
38
ENDCHAR
STARTCHAR u
ENCODING 117
SWIDTH 456 0
DWIDTH 10 0
BBX 8 11 1 0
BITMAP
C3
C3
C3
C3
C3
C3
C3
C3
E7
FF
7B
ENDCHAR
STARTCHAR v
ENCODING 118
SWIDTH 410 0
DWIDTH 9 0
BBX 9 11 0 0
BITMAP
C180
C180
6300
6300
6300
7700
3600
3600
3600
1C00
1C00
ENDCHAR
STARTCHAR w
ENCODING 119
SWIDTH 591 0
DWIDTH 13 0
BBX 13 11 0 0
BITMAP
C718
C718
C718
6DB0
6DB0
6DB0
6DB0
6DB0
69B0
38E0
38E0
ENDCHAR
STARTCHAR x
ENCODING 120
SWIDTH 410 0
DWIDTH 9 0
BBX 9 11 0 0
BITMAP
C180
6300
3600
3600
1C00
1C00
1C00
3600
3600
6300
C180
ENDCHAR
STARTCHAR y
ENCODING 121
SWIDTH 410 0
DWIDTH 9 0
BBX 9 15 0 -4
BITMAP
C180
6300
6300
6300
3600
3600
3600
1C00
1C00
1C00
1800
1800
1800
7000
6000
ENDCHAR
STARTCHAR z
ENCODING 122
SWIDTH 410 0
DWIDTH 9 0
BBX 8 11 0 0
BITMAP
FF
FF
03
06
0C
18
30
60
C0
FF
FF
ENDCHAR
STARTCHAR braceleft
ENCODING 123
SWIDTH 273 0
DWIDTH 6 0
BBX 6 20 0 -4
BITMAP
1C
3C
30
30
30
30
30
30
60
C0
E0
70
30
30
30
30
30
30
3C
1C
ENDCHAR
STARTCHAR bar
ENCODING 124
SWIDTH 212 0
DWIDTH 5 0
BBX 2 21 1 -5
BITMAP
C0
C0
C0
C0
C0
C0
C0
C0
C0
C0
C0
C0
C0
C0
C0
C0
C0
C0
C0
C0
C0
ENDCHAR
STARTCHAR braceright
ENCODING 125
SWIDTH 273 0
DWIDTH 6 0
BBX 6 20 0 -4
BITMAP
E0
F0
30
30
30
30
30
30
18
0C
1C
38
30
30
30
30
30
30
F0
E0
ENDCHAR
STARTCHAR asciitilde
ENCODING 126
SWIDTH 479 0
DWIDTH 11 0
BBX 9 3 1 6
BITMAP
7880
FF80
8F00
ENDCHAR
STARTCHAR exclamdown
ENCODING 161
SWIDTH 272 0
DWIDTH 6 0
BBX 2 15 2 -4
BITMAP
C0
C0
00
C0
C0
C0
C0
C0
C0
C0
C0
C0
C0
C0
C0
ENDCHAR
STARTCHAR cent
ENCODING 162
SWIDTH 456 0
DWIDTH 10 0
BBX 8 20 1 -4
BITMAP
04
04
04
04
04
3C
7E
EF
CB
C8
D0
D0
D3
77
7E
3C
20
20
20
20
ENDCHAR
STARTCHAR sterling
ENCODING 163
SWIDTH 456 0
DWIDTH 10 0
BBX 9 16 0 0
BITMAP
1E00
3F00
7300
6180
6180
6000
6000
FC00
FC00
3000
3000
3000
6000
7880
FF80
8700
ENDCHAR
STARTCHAR currency
ENCODING 164
SWIDTH 456 0
DWIDTH 10 0
BBX 9 11 0 2
BITMAP
C180
EF80
7F00
3600
6300
6300
6300
3600
7F00
EF80
C180
ENDCHAR
STARTCHAR yen
ENCODING 165
SWIDTH 456 0
DWIDTH 10 0
BBX 10 16 0 0
BITMAP
C0C0
6180
6180
3300
3300
3300
1E00
1E00
FFC0
FFC0
0C00
0C00
FFC0
FFC0
0C00
0C00
ENDCHAR
STARTCHAR brokenbar
ENCODING 166
SWIDTH 212 0
DWIDTH 5 0
BBX 2 20 1 -4
BITMAP
C0
C0
C0
C0
C0
C0
C0
C0
00
00
00
00
C0
C0
C0
C0
C0
C0
C0
C0
ENDCHAR
STARTCHAR section
ENCODING 167
SWIDTH 456 0
DWIDTH 10 0
BBX 8 21 1 -5
BITMAP
38
7C
66
66
60
30
38
6C
C6
C7
C3
63
73
3E
1C
0E
06
66
66
3C
1C
ENDCHAR
STARTCHAR dieresis
ENCODING 168
SWIDTH 272 0
DWIDTH 6 0
BBX 6 2 0 14
BITMAP
CC
CC
ENDCHAR
STARTCHAR copyright
ENCODING 169
SWIDTH 604 0
DWIDTH 13 0
BBX 13 16 0 0
BITMAP
0F80
1FC0
38E0
7070
6730
CF98
CC18
CC18
CC18
CD98
CF98
6730
7070
38E0
1FC0
0F80
ENDCHAR
STARTCHAR ordfeminine
ENCODING 170
SWIDTH 303 0
DWIDTH 7 0
BBX 5 8 1 8
BITMAP
70
F8
18
78
C8
C8
F8
68
ENDCHAR
STARTCHAR guillemotleft
ENCODING 171
SWIDTH 456 0
DWIDTH 10 0
BBX 9 9 0 1
BITMAP
1980
3300
6600
6600
CC00
6600
6600
3300
1980
ENDCHAR
STARTCHAR logicalnot
ENCODING 172
SWIDTH 479 0
DWIDTH 11 0
BBX 9 7 1 5
BITMAP
FF80
FF80
0180
0180
0180
0180
0180
ENDCHAR
STARTCHAR hyphen.dup1
ENCODING 173
SWIDTH 272 0
DWIDTH 6 0
BBX 5 2 0 5
BITMAP
F8
F8
ENDCHAR
STARTCHAR registered
ENCODING 174
SWIDTH 604 0
DWIDTH 13 0
BBX 13 16 0 0
BITMAP
0F80
1FC0
38E0
7070
6030
CF18
CF98
CD98
CF98
CF98
CD98
6CF0
7070
38E0
1FC0
0F80
ENDCHAR
STARTCHAR overscore
ENCODING 175
SWIDTH 500 0
DWIDTH 11 0
BBX 11 1 0 17
BITMAP
FFE0
ENDCHAR
STARTCHAR degree
ENCODING 176
SWIDTH 399 0
DWIDTH 9 0
BBX 6 6 1 9
BITMAP
78
FC
CC
CC
FC
78
ENDCHAR
STARTCHAR plusminus
ENCODING 177
SWIDTH 548 0
DWIDTH 12 0
BBX 10 13 1 0
BITMAP
0C00
0C00
0C00
0C00
FFC0
FFC0
0C00
0C00
0C00
0C00
0000
FFC0
FFC0
ENDCHAR
STARTCHAR twosuperior
ENCODING 178
SWIDTH 272 0
DWIDTH 6 0
BBX 5 8 0 8
BITMAP
70
F8
D8
10
20
40
78
F8
ENDCHAR
STARTCHAR threesuperior
ENCODING 179
SWIDTH 272 0
DWIDTH 6 0
BBX 5 8 0 8
BITMAP
70
F8
18
20
18
18
F8
70
ENDCHAR
STARTCHAR acute
ENCODING 180
SWIDTH 272 0
DWIDTH 6 0
BBX 3 3 2 13
BITMAP
60
C0
C0
ENDCHAR
STARTCHAR mu1
ENCODING 181
SWIDTH 576 0
DWIDTH 13 0
BBX 10 15 1 -4
BITMAP
C0C0
C0C0
C0C0
C0C0
C0C0
C0C0
C0C0
C0C0
E1C0
FFC0
DEC0
C000
C000
C000
C000
ENDCHAR
STARTCHAR paragraph
ENCODING 182
SWIDTH 439 0
DWIDTH 11 0
BBX 11 20 0 -4
BITMAP
3FE0
7FE0
FCC0
FCC0
FCC0
FCC0
FCC0
7CC0
3CC0
0CC0
0CC0
0CC0
0CC0
0CC0
0CC0
0CC0
0CC0
0CC0
0CC0
0CC0
ENDCHAR
STARTCHAR middot
ENCODING 183
SWIDTH 271 0
DWIDTH 6 0
BBX 2 2 2 7
BITMAP
C0
C0
ENDCHAR
STARTCHAR cedilla
ENCODING 184
SWIDTH 272 0
DWIDTH 6 0
BBX 4 5 1 -5
BITMAP
30
70
30
F0
E0
ENDCHAR
STARTCHAR onesuperior
ENCODING 185
SWIDTH 272 0
DWIDTH 6 0
BBX 4 8 0 8
BITMAP
30
70
B0
30
30
30
30
30
ENDCHAR
STARTCHAR ordmasculine
ENCODING 186
SWIDTH 298 0
DWIDTH 7 0
BBX 6 8 0 8
BITMAP
78
78
CC
CC
CC
CC
78
78
ENDCHAR
STARTCHAR guillemotright
ENCODING 187
SWIDTH 456 0
DWIDTH 10 0
BBX 9 9 0 1
BITMAP
CC00
6600
3300
3300
1980
3300
3300
6600
CC00
ENDCHAR
STARTCHAR onequarter
ENCODING 188
SWIDTH 684 0
DWIDTH 15 0
BBX 14 17 1 -1
BITMAP
2010
6020
E060
2040
20C0
2080
2100
2300
0208
0618
0438
0C28
0848
10C8
30FC
2008
6000
ENDCHAR
STARTCHAR onehalf
ENCODING 189
SWIDTH 684 0
DWIDTH 15 0
BBX 14 17 1 -1
BITMAP
2030
6020
E060
2040
2080
2180
2100
2300
0230
0678
04CC
0808
1818
1030
3060
20FC
4000
ENDCHAR
STARTCHAR threequarters
ENCODING 190
SWIDTH 684 0
DWIDTH 15 0
BBX 15 17 0 -1
BITMAP
7808
4810
0830
1820
1860
0C40
CC80
7980
0104
030C
021C
0634
0424
0864
187E
1004
3000
ENDCHAR
ENDFONT
