STARTFONT 2.1
FONT -FontForge-Arial Rounded MT Bold-Book-R-Normal--25-240-75-75-P-139-ISO10646-1
SIZE 24 75 75
FONTBOUNDINGBOX 27 25 -2 -5
COMMENT "Generated by fontforge, http://fontforge.sourceforge.net"
COMMENT "Copyright (c) 1993 , Monotype Typography ltd."
STARTPROPERTIES 40
FOUNDRY "FontForge"
FAMILY_NAME "Arial Rounded MT Bold"
WEIGHT_NAME "Book"
SLANT "R"
SETWIDTH_NAME "Normal"
ADD_STYLE_NAME ""
PIXEL_SIZE 25
POINT_SIZE 240
RESOLUTION_X 75
RESOLUTION_Y 75
SPACING "P"
AVERAGE_WIDTH 139
CHARSET_REGISTRY "ISO10646"
CHARSET_ENCODING "1"
FONTNAME_REGISTRY ""
CHARSET_COLLECTIONS "ISO10646-1"
FONT_NAME "ArialRoundedMTBold"
FACE_NAME "Arial Rounded MT Bold"
COPYRIGHT "Copyright (c) 1993 , Monotype Typography ltd."
FONT_VERSION "1.51"
FONT_ASCENT 20
FONT_DESCENT 5
UNDERLINE_POSITION -3
UNDERLINE_THICKNESS 2
X_HEIGHT 12
CAP_HEIGHT 17
RAW_ASCENT 799
RAW_DESCENT 200
NORM_SPACE 6
RELATIVE_WEIGHT 40
RELATIVE_SETWIDTH 50
SUPERSCRIPT_X 0
SUPERSCRIPT_Y 5
SUPERSCRIPT_SIZE 16
SUBSCRIPT_X 0
SUBSCRIPT_Y 1
SUBSCRIPT_SIZE 16
FIGURE_WIDTH 15
AVG_LOWERCASE_WIDTH 136
AVG_UPPERCASE_WIDTH 175
ENDPROPERTIES
CHARS 107
STARTCHAR space
ENCODING 32
SWIDTH 250 0
DWIDTH 6 0
BBX 1 1 0 0
BITMAP
00
ENDCHAR
STARTCHAR exclam
ENCODING 33
SWIDTH 333 0
DWIDTH 8 0
BBX 3 18 3 0
BITMAP
60
E0
E0
E0
E0
E0
E0
E0
E0
E0
E0
40
40
00
00
E0
E0
E0
ENDCHAR
STARTCHAR quotedbl
ENCODING 34
SWIDTH 479 0
DWIDTH 12 0
BBX 8 6 2 12
BITMAP
E7
E7
E7
E7
E7
E7
ENDCHAR
STARTCHAR numbersign
ENCODING 35
SWIDTH 551 0
DWIDTH 14 0
BBX 13 18 0 0
BITMAP
0C30
0E70
0C70
0C70
1C60
FFF8
FFF8
18E0
18E0
38C0
38C0
FFF8
FFF8
3180
7180
7380
7380
6180
ENDCHAR
STARTCHAR dollar
ENCODING 36
SWIDTH 594 0
DWIDTH 15 0
BBX 13 25 1 -5
BITMAP
0600
0600
0F00
3FE0
76F0
E670
E670
E630
F600
FF00
7FE0
1FF0
07F8
06F8
C638
E638
E638
F670
7FF0
3FC0
0E00
0600
0600
0600
0600
ENDCHAR
STARTCHAR percent
ENCODING 37
SWIDTH 854 0
DWIDTH 21 0
BBX 20 19 1 -1
BITMAP
380300
6C0600
C60E00
C60C00
C61800
C61800
C63000
6E3000
7C6000
00C7C0
00C660
018C30
018C30
030C30
020C30
060C30
0C0660
0C03C0
080000
ENDCHAR
STARTCHAR ampersand
ENCODING 38
SWIDTH 759 0
DWIDTH 19 0
BBX 17 18 2 0
BITMAP
07C000
1FE000
3CF000
387000
387000
3CF000
1FE000
0FC000
1F0000
3F8600
7BCE00
E1EE00
E0FC00
E07C00
E07C00
70FF00
3FEF80
1F8300
ENDCHAR
STARTCHAR quotesingle
ENCODING 39
SWIDTH 240 0
DWIDTH 6 0
BBX 3 6 2 12
BITMAP
E0
E0
E0
E0
E0
E0
ENDCHAR
STARTCHAR parenleft
ENCODING 40
SWIDTH 354 0
DWIDTH 9 0
BBX 6 23 2 -5
BITMAP
0C
18
38
38
70
70
70
E0
E0
E0
E0
E0
E0
E0
E0
E0
70
70
70
38
38
18
0C
ENDCHAR
STARTCHAR parenright
ENCODING 41
SWIDTH 354 0
DWIDTH 9 0
BBX 6 23 1 -5
BITMAP
C0
60
70
70
38
38
38
1C
1C
1C
1C
1C
1C
1C
1C
1C
38
38
38
70
70
60
C0
ENDCHAR
STARTCHAR asterisk
ENCODING 42
SWIDTH 437 0
DWIDTH 11 0
BBX 10 10 0 9
BITMAP
0C00
0C00
0C00
EDC0
7F80
0C00
1E00
3300
7380
2100
ENDCHAR
STARTCHAR plus
ENCODING 43
SWIDTH 583 0
DWIDTH 15 0
BBX 13 12 1 3
BITMAP
0700
0700
0700
0700
0700
FFF8
FFF8
FFF8
0700
0700
0700
0700
ENDCHAR
STARTCHAR comma
ENCODING 44
SWIDTH 312 0
DWIDTH 8 0
BBX 4 7 2 -4
BITMAP
60
F0
F0
70
30
E0
C0
ENDCHAR
STARTCHAR hyphen
ENCODING 45
SWIDTH 333 0
DWIDTH 8 0
BBX 7 3 1 5
BITMAP
FE
FE
FE
ENDCHAR
STARTCHAR period
ENCODING 46
SWIDTH 312 0
DWIDTH 8 0
BBX 3 3 2 0
BITMAP
E0
E0
E0
ENDCHAR
STARTCHAR slash
ENCODING 47
SWIDTH 280 0
DWIDTH 7 0
BBX 6 18 1 0
BITMAP
0C
0C
1C
1C
18
18
38
38
30
30
70
70
60
60
E0
E0
C0
C0
ENDCHAR
STARTCHAR zero
ENCODING 48
SWIDTH 594 0
DWIDTH 15 0
BBX 13 18 1 0
BITMAP
0F80
3FE0
78E0
7070
E030
E038
E038
E038
E038
E038
E038
E038
E038
E038
7070
78F0
3FE0
0F80
ENDCHAR
STARTCHAR one
ENCODING 49
SWIDTH 594 0
DWIDTH 15 0
BBX 8 18 2 0
BITMAP
03
07
0F
1F
3F
F7
E7
C7
07
07
07
07
07
07
07
07
07
07
ENDCHAR
STARTCHAR two
ENCODING 50
SWIDTH 594 0
DWIDTH 15 0
BBX 12 18 1 0
BITMAP
1F80
3FE0
78E0
F070
E070
E070
0070
00E0
01E0
03C0
0780
1F00
3C00
7800
7000
FFF0
FFF0
7FF0
ENDCHAR
STARTCHAR three
ENCODING 51
SWIDTH 594 0
DWIDTH 15 0
BBX 12 18 2 0
BITMAP
1F80
3FC0
71E0
E0E0
E0E0
00E0
01E0
1FC0
1FC0
00E0
0070
4070
E070
E070
E0F0
71E0
3FC0
1F80
ENDCHAR
STARTCHAR four
ENCODING 52
SWIDTH 594 0
DWIDTH 15 0
BBX 14 18 1 0
BITMAP
00C0
01E0
03E0
03E0
07E0
0EE0
1CE0
1CE0
38E0
70E0
F0E0
E0E0
FFF8
FFFC
00E0
00E0
00E0
00E0
ENDCHAR
STARTCHAR five
ENCODING 53
SWIDTH 594 0
DWIDTH 15 0
BBX 12 18 2 0
BITMAP
3FE0
7FF0
7FE0
7000
7000
7000
6F80
FFC0
F0E0
60F0
0070
0070
4070
E070
E0E0
F1E0
7FC0
1F80
ENDCHAR
STARTCHAR six
ENCODING 54
SWIDTH 594 0
DWIDTH 15 0
BBX 13 18 1 0
BITMAP
0FC0
1FE0
38F0
7070
6030
E030
E000
E7C0
FFE0
F8F0
F078
E038
E038
6038
7078
38F0
3FE0
0FC0
ENDCHAR
STARTCHAR seven
ENCODING 55
SWIDTH 594 0
DWIDTH 15 0
BBX 12 18 2 0
BITMAP
FFF0
FFF0
FFF0
00E0
01C0
01C0
0380
0700
0700
0E00
0E00
0E00
1E00
1C00
1C00
1C00
1C00
1800
ENDCHAR
STARTCHAR eight
ENCODING 56
SWIDTH 594 0
DWIDTH 15 0
BBX 13 18 1 0
BITMAP
0F80
3FE0
78F0
7070
6030
7070
78F0
3FE0
3FE0
78F0
F078
E038
E038
E038
F078
78F0
3FE0
1F80
ENDCHAR
STARTCHAR nine
ENCODING 57
SWIDTH 594 0
DWIDTH 15 0
BBX 12 18 1 0
BITMAP
1F00
3FC0
71E0
F0E0
E060
E070
E070
E070
F0F0
71F0
3FF0
1F70
0070
6060
70E0
71C0
3F80
1F00
ENDCHAR
STARTCHAR colon
ENCODING 58
SWIDTH 312 0
DWIDTH 8 0
BBX 3 13 2 0
BITMAP
E0
E0
E0
00
00
00
00
00
00
00
E0
E0
E0
ENDCHAR
STARTCHAR semicolon
ENCODING 59
SWIDTH 312 0
DWIDTH 8 0
BBX 3 17 2 -4
BITMAP
E0
E0
E0
00
00
00
00
00
00
00
C0
E0
E0
60
60
C0
80
ENDCHAR
STARTCHAR less
ENCODING 60
SWIDTH 583 0
DWIDTH 15 0
BBX 12 14 1 2
BITMAP
0010
0070
01F0
0FF0
3FC0
FE00
F800
F800
FE00
3FC0
0FF0
01F0
0070
0010
ENDCHAR
STARTCHAR equal
ENCODING 61
SWIDTH 583 0
DWIDTH 15 0
BBX 12 8 1 5
BITMAP
FFF0
FFF0
FFF0
0000
0000
FFF0
FFF0
FFF0
ENDCHAR
STARTCHAR greater
ENCODING 62
SWIDTH 583 0
DWIDTH 15 0
BBX 12 14 1 2
BITMAP
8000
E000
FC00
FF00
3FC0
07F0
01F0
01F0
07F0
3FC0
FF00
F800
E000
8000
ENDCHAR
STARTCHAR question
ENCODING 63
SWIDTH 573 0
DWIDTH 14 0
BBX 12 18 1 0
BITMAP
0F80
3FE0
78E0
F070
F070
E070
00F0
01E0
03C0
0380
0700
0700
0700
0200
0000
0700
0700
0700
ENDCHAR
STARTCHAR at
ENCODING 64
SWIDTH 979 0
DWIDTH 24 0
BBX 24 23 1 -5
BITMAP
007F00
03FFE0
0780F0
1C0038
38001C
30FBCC
61FFCE
638FC6
E70786
C70786
CE0786
CE0786
CE070C
CE070C
CE0F18
EF1F30
67FFE0
73E780
380007
1C001E
0F0078
03FFF0
00FF80
ENDCHAR
STARTCHAR A
ENCODING 65
SWIDTH 719 0
DWIDTH 18 0
BBX 16 18 1 0
BITMAP
0380
03C0
07E0
07E0
0FE0
0EF0
0E70
1E78
1C38
3C38
3C3C
3FFC
7FFE
700E
700E
F00F
E007
E007
ENDCHAR
STARTCHAR B
ENCODING 66
SWIDTH 719 0
DWIDTH 18 0
BBX 14 18 2 0
BITMAP
7FE0
FFF0
E078
E038
E038
E038
E038
E078
FFF0
FFF0
E038
E01C
E01C
E01C
E01C
E03C
FFF8
7FF0
ENDCHAR
STARTCHAR C
ENCODING 67
SWIDTH 740 0
DWIDTH 19 0
BBX 15 18 2 0
BITMAP
07E0
1FF8
3FFC
7C3E
701E
F00E
E006
E000
E000
E000
E000
E00E
F00E
701E
7C3E
3FFC
1FF8
07E0
ENDCHAR
STARTCHAR D
ENCODING 68
SWIDTH 740 0
DWIDTH 19 0
BBX 15 18 2 0
BITMAP
FFE0
FFF0
FFF8
E07C
E01C
E01E
E00E
E00E
E00E
E00E
E00E
E00E
E01E
E01C
E07C
FFF8
FFF8
7FE0
ENDCHAR
STARTCHAR E
ENCODING 69
SWIDTH 666 0
DWIDTH 17 0
BBX 13 18 2 0
BITMAP
FFF8
FFF8
FFF8
E000
E000
E000
E000
E000
FFF0
FFF0
E000
E000
E000
E000
E000
FFF8
FFF8
FFF8
ENDCHAR
STARTCHAR F
ENCODING 70
SWIDTH 604 0
DWIDTH 15 0
BBX 12 18 2 0
BITMAP
FFE0
FFF0
FFF0
E000
E000
E000
E000
E000
FFC0
FFE0
E000
E000
E000
E000
E000
E000
E000
E000
ENDCHAR
STARTCHAR G
ENCODING 71
SWIDTH 791 0
DWIDTH 20 0
BBX 16 18 2 0
BITMAP
03F0
1FFC
3FFE
7C1E
780E
F00F
E004
E000
E000
E0FF
E0FF
E007
7007
7807
7C1F
3FFF
1FFC
07F0
ENDCHAR
STARTCHAR H
ENCODING 72
SWIDTH 759 0
DWIDTH 19 0
BBX 15 18 2 0
BITMAP
E00E
E00E
E00E
E00E
E00E
E00E
E00E
FFFE
FFFE
FFFE
E00E
E00E
E00E
E00E
E00E
E00E
E00E
E00E
ENDCHAR
STARTCHAR I
ENCODING 73
SWIDTH 312 0
DWIDTH 8 0
BBX 3 18 2 0
BITMAP
E0
E0
E0
E0
E0
E0
E0
E0
E0
E0
E0
E0
E0
E0
E0
E0
E0
E0
ENDCHAR
STARTCHAR J
ENCODING 74
SWIDTH 573 0
DWIDTH 14 0
BBX 11 18 1 0
BITMAP
00E0
00E0
00E0
00E0
00E0
00E0
00E0
00E0
00E0
00E0
00E0
E0E0
E0E0
E0E0
F1E0
7FC0
7FC0
1F00
ENDCHAR
STARTCHAR K
ENCODING 75
SWIDTH 740 0
DWIDTH 19 0
BBX 15 18 2 0
BITMAP
E018
E03C
E078
E0F0
E1E0
E3C0
EF80
FF80
FF80
FFC0
FBE0
F1F0
E0F0
E0F8
E07C
E03C
E01E
E01C
ENDCHAR
STARTCHAR L
ENCODING 76
SWIDTH 604 0
DWIDTH 15 0
BBX 12 18 2 0
BITMAP
E000
E000
E000
E000
E000
E000
E000
E000
E000
E000
E000
E000
E000
E000
E000
FFF0
FFF0
FFF0
ENDCHAR
STARTCHAR M
ENCODING 77
SWIDTH 833 0
DWIDTH 21 0
BBX 17 18 2 0
BITMAP
F80F00
FC1F80
FC1F80
FC1F80
FC3F80
FE3F80
EE3B80
EE3B80
EF7B80
EF7B80
E77380
E77380
E7F380
E3E380
E3E380
E3E380
E3E380
E1C380
ENDCHAR
STARTCHAR N
ENCODING 78
SWIDTH 759 0
DWIDTH 19 0
BBX 15 18 2 0
BITMAP
600E
F00E
F80E
F80E
FC0E
FE0E
FE0E
EF0E
E78E
E3CE
E3CE
E1EE
E0FE
E07E
E07E
E03E
E01E
E00C
ENDCHAR
STARTCHAR O
ENCODING 79
SWIDTH 791 0
DWIDTH 20 0
BBX 17 18 1 0
BITMAP
07F000
1FFC00
3FFE00
7C1F00
780F00
F00780
E00380
E00380
E00380
E00380
E00380
E00380
700780
780F00
7C1F00
3FFE00
1FFC00
07F000
ENDCHAR
STARTCHAR P
ENCODING 80
SWIDTH 666 0
DWIDTH 17 0
BBX 13 18 2 0
BITMAP
7FE0
FFF0
E0F0
E038
E038
E038
E038
E038
E0F0
FFE0
FFC0
E000
E000
E000
E000
E000
E000
E000
ENDCHAR
STARTCHAR Q
ENCODING 81
SWIDTH 791 0
DWIDTH 20 0
BBX 18 19 1 -1
BITMAP
07F000
1FFC00
3FFE00
7C1F00
780F00
F00780
E00380
E00380
E00380
E00380
E00380
E00380
71E780
78FF00
7C3F00
3FFE00
1FFF80
03F3C0
0001C0
ENDCHAR
STARTCHAR R
ENCODING 82
SWIDTH 719 0
DWIDTH 18 0
BBX 14 18 2 0
BITMAP
7FF0
FFF8
E03C
E01C
E01C
E01C
E01C
E038
FFF8
FFE0
E1E0
E0F0
E078
E078
E03C
E03C
E01C
E00C
ENDCHAR
STARTCHAR S
ENCODING 83
SWIDTH 666 0
DWIDTH 17 0
BBX 13 18 2 0
BITMAP
1F80
3FE0
70F0
E070
E070
F020
FC00
7F80
3FE0
1FF0
01F8
0078
C038
E038
E038
F070
7FE0
1FC0
ENDCHAR
STARTCHAR T
ENCODING 84
SWIDTH 625 0
DWIDTH 16 0
BBX 15 18 0 0
BITMAP
7FFC
FFFE
7FFC
0380
0380
0380
0380
0380
0380
0380
0380
0380
0380
0380
0380
0380
0380
0380
ENDCHAR
STARTCHAR U
ENCODING 85
SWIDTH 759 0
DWIDTH 19 0
BBX 15 18 2 0
BITMAP
E00E
E00E
E00E
E00E
E00E
E00E
E00E
E00E
E00E
E00E
E00E
E00E
E00E
F01E
783C
7FFC
3FF8
0FE0
ENDCHAR
STARTCHAR V
ENCODING 86
SWIDTH 687 0
DWIDTH 17 0
BBX 15 18 1 0
BITMAP
E00E
E00E
F01E
F01C
701C
783C
3838
3838
3C78
1C70
1C70
1EF0
0EE0
0EE0
0FC0
07C0
07C0
0380
ENDCHAR
STARTCHAR W
ENCODING 87
SWIDTH 937 0
DWIDTH 23 0
BBX 22 18 1 0
BITMAP
E0301C
E0781C
F0783C
F0FC3C
70FC38
70FC38
71CC38
79CE78
39CE70
39CE70
3B8770
3B87F0
1F87E0
1F87E0
1F03E0
1F03E0
0F03C0
0E01C0
ENDCHAR
STARTCHAR X
ENCODING 88
SWIDTH 604 0
DWIDTH 15 0
BBX 14 18 0 0
BITMAP
6018
703C
7838
3878
3CF0
1FE0
0FE0
0FC0
0780
0FC0
1FE0
1FE0
3CF0
7878
7878
F03C
F03C
E01C
ENDCHAR
STARTCHAR Y
ENCODING 89
SWIDTH 625 0
DWIDTH 16 0
BBX 14 18 1 0
BITMAP
C018
E03C
F078
F078
78F0
3DE0
3DE0
1FC0
0F80
0F80
0700
0700
0700
0700
0700
0700
0700
0700
ENDCHAR
STARTCHAR Z
ENCODING 90
SWIDTH 645 0
DWIDTH 16 0
BBX 15 18 0 0
BITMAP
7FFC
7FFC
003C
007C
00F8
00F0
01E0
03E0
07C0
0780
0F00
1F00
1E00
3C00
7800
F800
FFFE
7FFE
ENDCHAR
STARTCHAR bracketleft
ENCODING 91
SWIDTH 354 0
DWIDTH 9 0
BBX 7 22 2 -4
BITMAP
FC
FE
E0
E0
E0
E0
E0
E0
E0
E0
E0
E0
E0
E0
E0
E0
E0
E0
E0
E0
FC
FE
ENDCHAR
STARTCHAR backslash
ENCODING 92
SWIDTH 280 0
DWIDTH 7 0
BBX 7 18 0 0
BITMAP
E0
E0
60
60
70
70
30
30
38
38
18
18
1C
1C
0C
0C
0E
0E
ENDCHAR
STARTCHAR bracketright
ENCODING 93
SWIDTH 354 0
DWIDTH 9 0
BBX 7 22 0 -4
BITMAP
7C
FE
0E
0E
0E
0E
0E
0E
0E
0E
0E
0E
0E
0E
0E
0E
0E
0E
0E
0E
7E
FE
ENDCHAR
STARTCHAR asciicircum
ENCODING 94
SWIDTH 583 0
DWIDTH 15 0
BBX 12 9 1 9
BITMAP
0700
0F00
0F80
1F80
1DC0
39C0
38E0
78E0
F070
ENDCHAR
STARTCHAR underscore
ENCODING 95
SWIDTH 500 0
DWIDTH 13 0
BBX 13 1 0 -3
BITMAP
FFF8
ENDCHAR
STARTCHAR grave
ENCODING 96
SWIDTH 333 0
DWIDTH 8 0
BBX 5 3 1 15
BITMAP
F0
70
18
ENDCHAR
STARTCHAR a
ENCODING 97
SWIDTH 594 0
DWIDTH 15 0
BBX 13 13 1 0
BITMAP
1FC0
3FE0
70F0
7070
6070
01F0
3FF0
7E70
E070
E070
F1F0
7FF8
3E30
ENDCHAR
STARTCHAR b
ENCODING 98
SWIDTH 625 0
DWIDTH 16 0
BBX 13 18 2 0
BITMAP
E000
E000
E000
E000
E000
E7C0
FFE0
F8F0
F078
E038
E038
E038
E038
E038
F070
F8F0
FFE0
E7C0
ENDCHAR
STARTCHAR c
ENCODING 99
SWIDTH 594 0
DWIDTH 15 0
BBX 12 13 1 0
BITMAP
0F80
3FE0
78F0
7070
E030
E000
E000
E000
E030
F070
78F0
3FE0
1F80
ENDCHAR
STARTCHAR d
ENCODING 100
SWIDTH 625 0
DWIDTH 16 0
BBX 13 18 1 0
BITMAP
0038
0038
0038
0038
0038
1F38
3FF8
78F8
F078
E078
E038
E038
E038
E038
7078
78F8
3FF8
1F38
ENDCHAR
STARTCHAR e
ENCODING 101
SWIDTH 594 0
DWIDTH 15 0
BBX 12 13 1 0
BITMAP
1F80
3FE0
70E0
6070
E070
FFF0
FFF0
E000
E020
F070
78F0
3FE0
1F80
ENDCHAR
STARTCHAR f
ENCODING 102
SWIDTH 333 0
DWIDTH 8 0
BBX 9 18 0 0
BITMAP
1F00
3F80
3800
3800
3800
FF00
FF00
3800
3800
3800
3800
3800
3800
3800
3800
3800
3800
3800
ENDCHAR
STARTCHAR g
ENCODING 103
SWIDTH 625 0
DWIDTH 16 0
BBX 13 18 1 -5
BITMAP
1F38
3FF8
78F8
F078
E038
E038
E038
E038
E038
7078
78F8
3FF8
1F38
4038
E038
7070
7FE0
1FC0
ENDCHAR
STARTCHAR h
ENCODING 104
SWIDTH 604 0
DWIDTH 15 0
BBX 11 18 2 0
BITMAP
E000
E000
E000
E000
E000
EF80
FFC0
F1E0
E0E0
E0E0
E0E0
E0E0
E0E0
E0E0
E0E0
E0E0
E0E0
E0E0
ENDCHAR
STARTCHAR i
ENCODING 105
SWIDTH 270 0
DWIDTH 7 0
BBX 3 18 2 0
BITMAP
E0
E0
E0
00
00
E0
E0
E0
E0
E0
E0
E0
E0
E0
E0
E0
E0
E0
ENDCHAR
STARTCHAR j
ENCODING 106
SWIDTH 270 0
DWIDTH 7 0
BBX 7 23 -2 -5
BITMAP
0E
0E
0E
00
00
0E
0E
0E
0E
0E
0E
0E
0E
0E
0E
0E
0E
0E
0E
0E
7E
FC
78
ENDCHAR
STARTCHAR k
ENCODING 107
SWIDTH 573 0
DWIDTH 14 0
BBX 11 18 2 0
BITMAP
E000
E000
E000
E000
E000
E1C0
E3C0
E7C0
EF00
FE00
FF00
FF00
F780
E3C0
E3C0
E1E0
E0E0
E0E0
ENDCHAR
STARTCHAR l
ENCODING 108
SWIDTH 270 0
DWIDTH 7 0
BBX 3 18 2 0
BITMAP
E0
E0
E0
E0
E0
E0
E0
E0
E0
E0
E0
E0
E0
E0
E0
E0
E0
E0
ENDCHAR
STARTCHAR m
ENCODING 109
SWIDTH 884 0
DWIDTH 22 0
BBX 18 13 2 0
BITMAP
CF8F00
FFFFC0
F1F3C0
E0E1C0
E0E1C0
E0E1C0
E0E1C0
E0E1C0
E0E1C0
E0E1C0
E0E1C0
E0E1C0
E0E1C0
ENDCHAR
STARTCHAR n
ENCODING 110
SWIDTH 604 0
DWIDTH 15 0
BBX 11 13 2 0
BITMAP
CF80
FFC0
F1E0
E0E0
E0E0
E0E0
E0E0
E0E0
E0E0
E0E0
E0E0
E0E0
E0E0
ENDCHAR
STARTCHAR o
ENCODING 111
SWIDTH 604 0
DWIDTH 15 0
BBX 13 13 1 0
BITMAP
0F80
3FE0
78F0
7070
E038
E038
E038
E038
E038
7070
78F0
3FE0
0F80
ENDCHAR
STARTCHAR p
ENCODING 112
SWIDTH 625 0
DWIDTH 16 0
BBX 13 18 2 -5
BITMAP
E7C0
FFE0
F8F0
F070
E038
E038
E038
E038
E038
F070
F8F0
FFE0
E7C0
E000
E000
E000
E000
E000
ENDCHAR
STARTCHAR q
ENCODING 113
SWIDTH 625 0
DWIDTH 16 0
BBX 13 18 1 -5
BITMAP
1F38
3FF8
78F8
F078
E038
E038
E038
E038
E038
7078
78F8
3FF8
1F38
0038
0038
0038
0038
0038
ENDCHAR
STARTCHAR r
ENCODING 114
SWIDTH 437 0
DWIDTH 11 0
BBX 9 13 2 0
BITMAP
EF00
FF80
FF80
F000
E000
E000
E000
E000
E000
E000
E000
E000
E000
ENDCHAR
STARTCHAR s
ENCODING 115
SWIDTH 541 0
DWIDTH 14 0
BBX 11 13 1 0
BITMAP
3F00
7FC0
E1C0
E0C0
F000
7F00
3FC0
07E0
40E0
E0E0
F1E0
7FC0
3F00
ENDCHAR
STARTCHAR t
ENCODING 116
SWIDTH 354 0
DWIDTH 9 0
BBX 9 18 0 0
BITMAP
3800
3800
3800
3800
3800
FE00
FF00
3800
3800
3800
3800
3800
3800
3800
3800
3800
3F80
1F00
ENDCHAR
STARTCHAR u
ENCODING 117
SWIDTH 604 0
DWIDTH 15 0
BBX 11 13 2 0
BITMAP
E0E0
E0E0
E0E0
E0E0
E0E0
E0E0
E0E0
E0E0
E0E0
E0E0
F1E0
7FE0
3CE0
ENDCHAR
STARTCHAR v
ENCODING 118
SWIDTH 541 0
DWIDTH 14 0
BBX 12 13 1 0
BITMAP
E070
E070
F0F0
70E0
70E0
39C0
39C0
39C0
1F80
1F80
0F00
0F00
0600
ENDCHAR
STARTCHAR w
ENCODING 119
SWIDTH 812 0
DWIDTH 20 0
BBX 19 13 1 0
BITMAP
E0E0E0
E0E0E0
E1F0E0
71F1C0
71B1C0
73B9C0
3BBB80
3B1B80
3F1F80
1F1F00
1F1F00
1E0F00
0E0E00
ENDCHAR
STARTCHAR x
ENCODING 120
SWIDTH 520 0
DWIDTH 13 0
BBX 11 13 1 0
BITMAP
60C0
F1E0
71C0
3B80
3F80
1F00
1F00
3F80
3B80
7BC0
F1E0
E0E0
C0E0
ENDCHAR
STARTCHAR y
ENCODING 121
SWIDTH 541 0
DWIDTH 14 0
BBX 12 18 1 -5
BITMAP
E070
E070
F070
70E0
70E0
78E0
39C0
39C0
1D80
1F80
1F80
0F00
0F00
0F00
0E00
1E00
FC00
F800
ENDCHAR
STARTCHAR z
ENCODING 122
SWIDTH 520 0
DWIDTH 13 0
BBX 12 13 1 0
BITMAP
7FE0
FFE0
01E0
03C0
0780
0700
0F00
1E00
3C00
3800
7800
FFF0
FFF0
ENDCHAR
STARTCHAR braceleft
ENCODING 123
SWIDTH 384 0
DWIDTH 10 0
BBX 9 23 0 -5
BITMAP
0700
0F80
1F00
1C00
1C00
1C00
1C00
1C00
1C00
3C00
7800
F000
7800
3C00
1C00
1C00
1C00
1C00
1C00
1C00
1F00
0F80
0700
ENDCHAR
STARTCHAR bar
ENCODING 124
SWIDTH 280 0
DWIDTH 7 0
BBX 3 23 2 -5
BITMAP
E0
E0
E0
E0
E0
E0
E0
E0
E0
E0
E0
E0
E0
E0
E0
E0
E0
E0
E0
E0
E0
E0
E0
ENDCHAR
STARTCHAR braceright
ENCODING 125
SWIDTH 384 0
DWIDTH 10 0
BBX 9 23 0 -5
BITMAP
7000
F800
7C00
1C00
1C00
1C00
1C00
1C00
1C00
1E00
0F00
0780
0F00
1E00
1C00
1C00
1C00
1C00
1C00
1C00
7C00
F800
7000
ENDCHAR
STARTCHAR asciitilde
ENCODING 126
SWIDTH 583 0
DWIDTH 15 0
BBX 13 5 1 6
BITMAP
3C08
FFB8
FFF8
C7F8
81E0
ENDCHAR
STARTCHAR nonbreakingspace
ENCODING 160
SWIDTH 250 0
DWIDTH 6 0
BBX 1 1 0 0
BITMAP
00
ENDCHAR
STARTCHAR degree
ENCODING 176
SWIDTH 395 0
DWIDTH 10 0
BBX 8 8 1 10
BITMAP
3C
7E
E7
C3
C3
E7
7E
3C
ENDCHAR
STARTCHAR plusminus
ENCODING 177
SWIDTH 583 0
DWIDTH 15 0
BBX 13 17 1 0
BITMAP
0700
0700
0700
0700
0700
FFF8
FFF8
FFF8
0700
0700
0700
0700
0700
0000
FFF8
FFF8
FFF8
ENDCHAR
STARTCHAR twosuperior
ENCODING 178
SWIDTH 354 0
DWIDTH 9 0
BBX 7 9 1 9
BITMAP
7C
C6
C6
0E
1C
38
60
FE
FE
ENDCHAR
STARTCHAR threesuperior
ENCODING 179
SWIDTH 354 0
DWIDTH 9 0
BBX 7 9 1 9
BITMAP
78
CC
C6
0C
3C
06
C6
C6
7C
ENDCHAR
STARTCHAR acute
ENCODING 180
SWIDTH 333 0
DWIDTH 8 0
BBX 5 3 2 15
BITMAP
78
70
C0
ENDCHAR
STARTCHAR mu
ENCODING 181
SWIDTH 615 0
DWIDTH 15 0
BBX 11 18 2 -5
BITMAP
E0E0
E0E0
E0E0
E0E0
E0E0
E0E0
E0E0
E0E0
E0E0
F1E0
FFE0
FFE0
EEE0
E000
E000
E000
E000
E000
ENDCHAR
STARTCHAR onesuperior
ENCODING 185
SWIDTH 354 0
DWIDTH 9 0
BBX 5 9 1 9
BITMAP
18
38
F8
D8
18
18
18
18
18
ENDCHAR
STARTCHAR ordmasculine
ENCODING 186
SWIDTH 384 0
DWIDTH 10 0
BBX 8 8 1 10
BITMAP
3C
7E
E7
C3
C3
E7
7E
3C
ENDCHAR
STARTCHAR onequarter
ENCODING 188
SWIDTH 854 0
DWIDTH 21 0
BBX 21 19 1 -1
BITMAP
180100
380300
F80600
D80600
180C00
180C00
181800
183000
183000
006060
00C0E0
00C1E0
018360
030660
030FF0
060FF8
0C0060
0C0060
080000
ENDCHAR
STARTCHAR onehalf
ENCODING 189
SWIDTH 854 0
DWIDTH 21 0
BBX 20 19 1 -1
BITMAP
180100
380300
F80600
D80600
180C00
181800
181800
183000
186000
0063E0
00C630
018C30
018070
0300E0
0601C0
060700
0C0FF0
1C07F0
080000
ENDCHAR
STARTCHAR threequarters
ENCODING 190
SWIDTH 854 0
DWIDTH 21 0
BBX 21 19 1 -1
BITMAP
780180
CC0300
C60300
0C0600
3C0C00
060C00
C61800
C61000
7C3000
0060E0
0061E0
00C3E0
018760
018E60
030FF0
020FF8
060060
0C0060
0C0000
ENDCHAR
ENDFONT
