STARTFONT 2.1
FONT -FontForge-Arial Narrow-Bold-R-Normal--19-180-75-75-P-85-ISO10646-1
SIZE 18 75 75
FONTBOUNDINGBOX 16 20 -1 -4
COMMENT "Generated by fontforge, http://fontforge.sourceforge.net"
COMMENT "(c) 2008 The Monotype Corporation. All Rights Reserved."
STARTPROPERTIES 40
FOUNDRY "FontForge"
FAMILY_NAME "Arial Narrow"
WEIGHT_NAME "Bold"
SLANT "R"
SETWIDTH_NAME "Normal"
ADD_STYLE_NAME ""
PIXEL_SIZE 19
POINT_SIZE 180
RESOLUTION_X 75
RESOLUTION_Y 75
SPACING "P"
AVERAGE_WIDTH 85
CHARSET_REGISTRY "ISO10646"
CHARSET_ENCODING "1"
FONTNAME_REGISTRY ""
CHARSET_COLLECTIONS "ISO10646-1"
FONT_NAME "ArialNarrow-Bold"
FACE_NAME "Arial Narrow Bold"
COPYRIGHT "(c) 2008 The Monotype Corporation. All Rights Reserved."
FONT_VERSION "2.40"
FONT_ASCENT 15
FONT_DESCENT 4
UNDERLINE_POSITION -3
UNDERLINE_THICKNESS 2
X_HEIGHT 9
CAP_HEIGHT 13
RAW_ASCENT 799
RAW_DESCENT 200
NORM_SPACE 4
RELATIVE_WEIGHT 70
RELATIVE_SETWIDTH 30
SUPERSCRIPT_X 0
SUPERSCRIPT_Y 4
SUPERSCRIPT_SIZE 12
SUBSCRIPT_X 0
SUBSCRIPT_Y 1
SUBSCRIPT_SIZE 12
FIGURE_WIDTH 9
AVG_LOWERCASE_WIDTH 85
AVG_UPPERCASE_WIDTH 106
ENDPROPERTIES
CHARS 126
STARTCHAR space
ENCODING 32
SWIDTH 228 0
DWIDTH 4 0
BBX 1 1 0 0
BITMAP
00
ENDCHAR
STARTCHAR exclam
ENCODING 33
SWIDTH 272 0
DWIDTH 5 0
BBX 2 14 1 0
BITMAP
C0
C0
C0
C0
C0
C0
C0
C0
C0
C0
C0
00
C0
C0
ENDCHAR
STARTCHAR quotedbl
ENCODING 34
SWIDTH 389 0
DWIDTH 7 0
BBX 5 5 1 9
BITMAP
D8
D8
D8
D8
D8
ENDCHAR
STARTCHAR numbersign
ENCODING 35
SWIDTH 456 0
DWIDTH 9 0
BBX 8 14 0 0
BITMAP
36
36
36
36
FF
FF
36
6C
FF
FF
6C
6C
6C
6C
ENDCHAR
STARTCHAR dollar
ENCODING 36
SWIDTH 456 0
DWIDTH 9 0
BBX 7 17 1 -2
BITMAP
10
38
7C
D6
D6
D0
F0
7C
3C
1E
16
D6
F6
7C
38
10
10
ENDCHAR
STARTCHAR percent
ENCODING 37
SWIDTH 729 0
DWIDTH 14 0
BBX 12 14 1 0
BITMAP
7080
D880
D900
D900
D900
DA00
7200
04E0
05B0
09B0
09B0
09B0
11B0
10E0
ENDCHAR
STARTCHAR ampersand
ENCODING 38
SWIDTH 591 0
DWIDTH 11 0
BBX 10 14 1 0
BITMAP
3C00
7E00
6600
6600
7E00
3C00
3800
7900
CD80
CF80
C700
C780
7FC0
3C80
ENDCHAR
STARTCHAR quotesingle
ENCODING 39
SWIDTH 194 0
DWIDTH 4 0
BBX 2 5 1 9
BITMAP
C0
C0
C0
C0
C0
ENDCHAR
STARTCHAR parenleft
ENCODING 40
SWIDTH 272 0
DWIDTH 5 0
BBX 4 18 1 -4
BITMAP
10
20
20
60
60
C0
C0
C0
C0
C0
C0
C0
C0
60
60
20
20
10
ENDCHAR
STARTCHAR parenright
ENCODING 41
SWIDTH 272 0
DWIDTH 5 0
BBX 4 18 0 -4
BITMAP
80
40
40
60
60
30
30
30
30
30
30
30
30
60
60
40
40
80
ENDCHAR
STARTCHAR asterisk
ENCODING 42
SWIDTH 318 0
DWIDTH 6 0
BBX 5 7 0 7
BITMAP
20
20
F8
70
70
50
50
ENDCHAR
STARTCHAR plus
ENCODING 43
SWIDTH 479 0
DWIDTH 9 0
BBX 8 10 0 2
BITMAP
18
18
18
18
FF
FF
18
18
18
18
ENDCHAR
STARTCHAR comma
ENCODING 44
SWIDTH 228 0
DWIDTH 4 0
BBX 2 5 1 -3
BITMAP
C0
C0
40
40
80
ENDCHAR
STARTCHAR hyphen
ENCODING 45
SWIDTH 272 0
DWIDTH 5 0
BBX 4 2 0 4
BITMAP
F0
F0
ENDCHAR
STARTCHAR period
ENCODING 46
SWIDTH 228 0
DWIDTH 4 0
BBX 2 2 1 0
BITMAP
C0
C0
ENDCHAR
STARTCHAR slash
ENCODING 47
SWIDTH 228 0
DWIDTH 4 0
BBX 4 14 0 0
BITMAP
30
30
30
70
60
60
60
60
60
60
E0
C0
C0
C0
ENDCHAR
STARTCHAR zero
ENCODING 48
SWIDTH 456 0
DWIDTH 9 0
BBX 7 14 1 0
BITMAP
38
7C
6C
C6
C6
C6
C6
C6
C6
C6
C6
6C
7C
38
ENDCHAR
STARTCHAR one
ENCODING 49
SWIDTH 456 0
DWIDTH 9 0
BBX 5 14 1 0
BITMAP
18
18
38
78
D8
98
18
18
18
18
18
18
18
18
ENDCHAR
STARTCHAR two
ENCODING 50
SWIDTH 456 0
DWIDTH 9 0
BBX 8 14 0 0
BITMAP
3C
7E
E7
C3
03
03
06
0E
1C
38
70
70
FF
FF
ENDCHAR
STARTCHAR three
ENCODING 51
SWIDTH 456 0
DWIDTH 9 0
BBX 7 14 1 0
BITMAP
38
7C
E6
C6
06
1C
1C
06
06
06
C6
EE
7C
38
ENDCHAR
STARTCHAR four
ENCODING 52
SWIDTH 456 0
DWIDTH 9 0
BBX 8 14 0 0
BITMAP
06
0E
0E
1E
1E
36
76
66
C6
FF
FF
06
06
06
ENDCHAR
STARTCHAR five
ENCODING 53
SWIDTH 456 0
DWIDTH 9 0
BBX 7 14 1 0
BITMAP
7C
7C
60
E0
D8
FC
CE
06
06
06
C6
EE
7C
38
ENDCHAR
STARTCHAR six
ENCODING 54
SWIDTH 456 0
DWIDTH 9 0
BBX 7 14 1 0
BITMAP
38
7C
66
C6
C0
F8
FC
EE
C6
C6
C6
66
7C
38
ENDCHAR
STARTCHAR seven
ENCODING 55
SWIDTH 456 0
DWIDTH 9 0
BBX 7 14 1 0
BITMAP
FE
FE
06
0C
0C
18
18
18
18
30
30
30
30
30
ENDCHAR
STARTCHAR eight
ENCODING 56
SWIDTH 456 0
DWIDTH 9 0
BBX 7 14 1 0
BITMAP
7C
FE
C6
C6
C6
7C
7C
EE
C6
C6
C6
EE
7C
38
ENDCHAR
STARTCHAR nine
ENCODING 57
SWIDTH 456 0
DWIDTH 9 0
BBX 7 14 1 0
BITMAP
38
7C
CC
C6
C6
C6
EE
7E
3E
06
C6
CC
7C
38
ENDCHAR
STARTCHAR colon
ENCODING 58
SWIDTH 272 0
DWIDTH 5 0
BBX 2 10 2 0
BITMAP
C0
C0
00
00
00
00
00
00
C0
C0
ENDCHAR
STARTCHAR semicolon
ENCODING 59
SWIDTH 272 0
DWIDTH 5 0
BBX 2 13 1 -3
BITMAP
C0
C0
00
00
00
00
00
00
C0
C0
40
40
80
ENDCHAR
STARTCHAR less
ENCODING 60
SWIDTH 479 0
DWIDTH 9 0
BBX 7 9 1 2
BITMAP
02
0E
3C
F0
C0
F0
3C
0E
02
ENDCHAR
STARTCHAR equal
ENCODING 61
SWIDTH 479 0
DWIDTH 9 0
BBX 7 6 1 4
BITMAP
FE
FE
00
00
FE
FE
ENDCHAR
STARTCHAR greater
ENCODING 62
SWIDTH 479 0
DWIDTH 9 0
BBX 7 9 1 2
BITMAP
80
E0
78
1E
06
1E
78
E0
80
ENDCHAR
STARTCHAR question
ENCODING 63
SWIDTH 500 0
DWIDTH 10 0
BBX 8 14 1 0
BITMAP
3C
7E
E7
C3
03
07
06
0E
1C
18
18
00
18
18
ENDCHAR
STARTCHAR at
ENCODING 64
SWIDTH 799 0
DWIDTH 15 0
BBX 15 18 0 -4
BITMAP
07C0
1FF0
3838
3018
677C
6FEC
CCEC
D84C
D84C
D8CC
D8D8
D9D8
EFF0
6EE2
7004
3C1C
1FF8
07E0
ENDCHAR
STARTCHAR A
ENCODING 65
SWIDTH 591 0
DWIDTH 11 0
BBX 11 14 0 0
BITMAP
0E00
0E00
0E00
1B00
1B00
1B00
3180
3180
3F80
7FC0
60C0
60C0
E0E0
C060
ENDCHAR
STARTCHAR B
ENCODING 66
SWIDTH 591 0
DWIDTH 11 0
BBX 9 14 1 0
BITMAP
FE00
FF00
C180
C180
C180
C380
FF00
FF00
C380
C180
C180
C180
FF00
FE00
ENDCHAR
STARTCHAR C
ENCODING 67
SWIDTH 591 0
DWIDTH 11 0
BBX 10 14 1 0
BITMAP
1F00
3F80
71C0
6080
C000
C000
C000
C000
C000
C080
61C0
7180
3F80
1F00
ENDCHAR
STARTCHAR D
ENCODING 68
SWIDTH 591 0
DWIDTH 11 0
BBX 9 14 1 0
BITMAP
FC00
FF00
C300
C180
C180
C180
C180
C180
C180
C180
C180
C300
FF00
FC00
ENDCHAR
STARTCHAR E
ENCODING 69
SWIDTH 546 0
DWIDTH 10 0
BBX 8 14 1 0
BITMAP
FF
FF
C0
C0
C0
C0
FF
FF
C0
C0
C0
C0
FF
FF
ENDCHAR
STARTCHAR F
ENCODING 70
SWIDTH 500 0
DWIDTH 10 0
BBX 8 14 1 0
BITMAP
FF
FF
C0
C0
C0
C0
FE
FE
C0
C0
C0
C0
C0
C0
ENDCHAR
STARTCHAR G
ENCODING 71
SWIDTH 638 0
DWIDTH 12 0
BBX 10 14 1 0
BITMAP
1F00
3F80
71C0
60C0
C000
C000
C7C0
C7C0
C0C0
C0C0
60C0
71C0
3F80
1F00
ENDCHAR
STARTCHAR H
ENCODING 72
SWIDTH 591 0
DWIDTH 11 0
BBX 9 14 1 0
BITMAP
C180
C180
C180
C180
C180
C180
FF80
FF80
C180
C180
C180
C180
C180
C180
ENDCHAR
STARTCHAR I
ENCODING 73
SWIDTH 228 0
DWIDTH 4 0
BBX 2 14 1 0
BITMAP
C0
C0
C0
C0
C0
C0
C0
C0
C0
C0
C0
C0
C0
C0
ENDCHAR
STARTCHAR J
ENCODING 74
SWIDTH 456 0
DWIDTH 9 0
BBX 7 14 0 0
BITMAP
06
06
06
06
06
06
06
06
06
06
C6
C6
7C
78
ENDCHAR
STARTCHAR K
ENCODING 75
SWIDTH 591 0
DWIDTH 11 0
BBX 10 14 1 0
BITMAP
C0C0
C180
C300
C700
CE00
DC00
DC00
FC00
E600
C700
C300
C180
C1C0
C0C0
ENDCHAR
STARTCHAR L
ENCODING 76
SWIDTH 500 0
DWIDTH 10 0
BBX 8 14 1 0
BITMAP
C0
C0
C0
C0
C0
C0
C0
C0
C0
C0
C0
C0
FF
FF
ENDCHAR
STARTCHAR M
ENCODING 77
SWIDTH 683 0
DWIDTH 13 0
BBX 11 14 1 0
BITMAP
F0E0
F1E0
F1E0
F1E0
D160
D160
DB60
DB60
DB60
CA60
CA60
CE60
CE60
CE60
ENDCHAR
STARTCHAR N
ENCODING 78
SWIDTH 591 0
DWIDTH 11 0
BBX 9 14 1 0
BITMAP
C180
E180
E180
F180
F180
D980
D980
CD80
CD80
C780
C780
C380
C380
C180
ENDCHAR
STARTCHAR O
ENCODING 79
SWIDTH 638 0
DWIDTH 12 0
BBX 10 14 1 0
BITMAP
1E00
3F00
7180
6180
C0C0
C0C0
C0C0
C0C0
C0C0
C0C0
6180
7380
3F00
1E00
ENDCHAR
STARTCHAR P
ENCODING 80
SWIDTH 546 0
DWIDTH 10 0
BBX 8 14 1 0
BITMAP
FC
FE
C7
C3
C3
C3
C7
FE
FC
C0
C0
C0
C0
C0
ENDCHAR
STARTCHAR Q
ENCODING 81
SWIDTH 638 0
DWIDTH 12 0
BBX 12 15 0 -1
BITMAP
1F00
3F80
71C0
60C0
C060
C060
C060
C060
C060
C660
67C0
73C0
3FE0
1F70
0020
ENDCHAR
STARTCHAR R
ENCODING 82
SWIDTH 591 0
DWIDTH 11 0
BBX 10 14 1 0
BITMAP
FE00
FF00
C180
C180
C180
C180
FF00
FE00
C600
C300
C300
C180
C180
C0C0
ENDCHAR
STARTCHAR S
ENCODING 83
SWIDTH 546 0
DWIDTH 10 0
BBX 8 14 1 0
BITMAP
3C
7E
C7
C3
C0
E0
78
1E
07
C3
C3
E7
7E
3C
ENDCHAR
STARTCHAR T
ENCODING 84
SWIDTH 500 0
DWIDTH 10 0
BBX 8 14 1 0
BITMAP
FF
FF
18
18
18
18
18
18
18
18
18
18
18
18
ENDCHAR
STARTCHAR U
ENCODING 85
SWIDTH 591 0
DWIDTH 11 0
BBX 9 14 1 0
BITMAP
C180
C180
C180
C180
C180
C180
C180
C180
C180
C180
C180
E380
7F00
3E00
ENDCHAR
STARTCHAR V
ENCODING 86
SWIDTH 546 0
DWIDTH 10 0
BBX 10 14 0 0
BITMAP
C0C0
C0C0
6180
6180
6180
3300
3300
3300
3300
1E00
1E00
1E00
0C00
0C00
ENDCHAR
STARTCHAR W
ENCODING 87
SWIDTH 773 0
DWIDTH 15 0
BBX 15 14 0 0
BITMAP
C386
C386
638C
628C
66CC
66CC
36D8
36D8
36D8
3458
1C70
1C70
1C70
1C70
ENDCHAR
STARTCHAR X
ENCODING 88
SWIDTH 546 0
DWIDTH 10 0
BBX 10 14 0 0
BITMAP
C0C0
6180
7380
3300
1E00
1E00
0C00
0C00
1E00
1E00
3300
7380
6180
C0C0
ENDCHAR
STARTCHAR Y
ENCODING 89
SWIDTH 546 0
DWIDTH 10 0
BBX 10 14 0 0
BITMAP
C0C0
6180
6180
3300
3300
1E00
1E00
0C00
0C00
0C00
0C00
0C00
0C00
0C00
ENDCHAR
STARTCHAR Z
ENCODING 90
SWIDTH 500 0
DWIDTH 10 0
BBX 9 14 0 0
BITMAP
7F80
7F80
0380
0300
0600
0E00
0C00
1800
3000
3000
6000
C000
FF80
FF80
ENDCHAR
STARTCHAR bracketleft
ENCODING 91
SWIDTH 272 0
DWIDTH 5 0
BBX 4 18 1 -4
BITMAP
F0
F0
C0
C0
C0
C0
C0
C0
C0
C0
C0
C0
C0
C0
C0
C0
F0
F0
ENDCHAR
STARTCHAR backslash
ENCODING 92
SWIDTH 228 0
DWIDTH 4 0
BBX 4 14 0 0
BITMAP
C0
C0
C0
E0
60
60
60
60
60
60
70
30
30
30
ENDCHAR
STARTCHAR bracketright
ENCODING 93
SWIDTH 272 0
DWIDTH 5 0
BBX 4 18 0 -4
BITMAP
F0
F0
30
30
30
30
30
30
30
30
30
30
30
30
30
30
F0
F0
ENDCHAR
STARTCHAR asciicircum
ENCODING 94
SWIDTH 479 0
DWIDTH 9 0
BBX 7 7 1 7
BITMAP
38
38
38
6C
6C
6C
C6
ENDCHAR
STARTCHAR underscore
ENCODING 95
SWIDTH 456 0
DWIDTH 9 0
BBX 9 1 0 -2
BITMAP
FF80
ENDCHAR
STARTCHAR grave
ENCODING 96
SWIDTH 272 0
DWIDTH 5 0
BBX 3 2 1 11
BITMAP
C0
60
ENDCHAR
STARTCHAR a
ENCODING 97
SWIDTH 456 0
DWIDTH 9 0
BBX 7 10 1 0
BITMAP
7C
7E
C6
06
3E
7E
E6
C6
FE
76
ENDCHAR
STARTCHAR b
ENCODING 98
SWIDTH 500 0
DWIDTH 10 0
BBX 8 14 1 0
BITMAP
C0
C0
C0
C0
DC
FE
E7
C3
C3
C3
C3
E7
FE
DC
ENDCHAR
STARTCHAR c
ENCODING 99
SWIDTH 456 0
DWIDTH 9 0
BBX 8 10 1 0
BITMAP
3C
7E
E7
C3
C0
C0
C3
E7
7E
3C
ENDCHAR
STARTCHAR d
ENCODING 100
SWIDTH 500 0
DWIDTH 10 0
BBX 8 14 1 0
BITMAP
03
03
03
03
3B
7F
E7
C3
C3
C3
C3
E7
7F
3B
ENDCHAR
STARTCHAR e
ENCODING 101
SWIDTH 456 0
DWIDTH 9 0
BBX 8 10 1 0
BITMAP
3C
7E
E6
C3
FF
FF
C0
E3
7E
3C
ENDCHAR
STARTCHAR f
ENCODING 102
SWIDTH 272 0
DWIDTH 5 0
BBX 6 14 0 0
BITMAP
3C
7C
60
60
F8
F8
60
60
60
60
60
60
60
60
ENDCHAR
STARTCHAR g
ENCODING 103
SWIDTH 500 0
DWIDTH 10 0
BBX 8 14 1 -4
BITMAP
3B
7F
E7
C3
C3
C3
C3
E7
7F
3B
03
C3
FE
7C
ENDCHAR
STARTCHAR h
ENCODING 104
SWIDTH 500 0
DWIDTH 10 0
BBX 8 14 1 0
BITMAP
C0
C0
C0
C0
DE
FF
E3
C3
C3
C3
C3
C3
C3
C3
ENDCHAR
STARTCHAR i
ENCODING 105
SWIDTH 228 0
DWIDTH 4 0
BBX 2 13 1 0
BITMAP
C0
C0
00
C0
C0
C0
C0
C0
C0
C0
C0
C0
C0
ENDCHAR
STARTCHAR j
ENCODING 106
SWIDTH 228 0
DWIDTH 4 0
BBX 4 17 -1 -4
BITMAP
30
30
00
30
30
30
30
30
30
30
30
30
30
30
30
F0
E0
ENDCHAR
STARTCHAR k
ENCODING 107
SWIDTH 456 0
DWIDTH 9 0
BBX 7 14 1 0
BITMAP
C0
C0
C0
C0
C6
CC
D8
F8
F8
F8
CC
CC
C6
C6
ENDCHAR
STARTCHAR l
ENCODING 108
SWIDTH 228 0
DWIDTH 4 0
BBX 2 14 1 0
BITMAP
C0
C0
C0
C0
C0
C0
C0
C0
C0
C0
C0
C0
C0
C0
ENDCHAR
STARTCHAR m
ENCODING 109
SWIDTH 729 0
DWIDTH 14 0
BBX 12 10 1 0
BITMAP
DCE0
FFF0
E730
C630
C630
C630
C630
C630
C630
C630
ENDCHAR
STARTCHAR n
ENCODING 110
SWIDTH 500 0
DWIDTH 10 0
BBX 8 10 1 0
BITMAP
DE
FF
E3
C3
C3
C3
C3
C3
C3
C3
ENDCHAR
STARTCHAR o
ENCODING 111
SWIDTH 500 0
DWIDTH 10 0
BBX 8 10 1 0
BITMAP
3C
7E
E7
C3
C3
C3
C3
E7
7E
3C
ENDCHAR
STARTCHAR p
ENCODING 112
SWIDTH 500 0
DWIDTH 10 0
BBX 8 14 1 -4
BITMAP
DC
FE
E7
C3
C3
C3
C3
E7
FE
DC
C0
C0
C0
C0
ENDCHAR
STARTCHAR q
ENCODING 113
SWIDTH 500 0
DWIDTH 10 0
BBX 8 14 1 -4
BITMAP
3B
7F
E7
C3
C3
C3
C3
E7
7F
3B
03
03
03
03
ENDCHAR
STARTCHAR r
ENCODING 114
SWIDTH 318 0
DWIDTH 6 0
BBX 5 10 1 0
BITMAP
D8
F8
C0
C0
C0
C0
C0
C0
C0
C0
ENDCHAR
STARTCHAR s
ENCODING 115
SWIDTH 456 0
DWIDTH 9 0
BBX 7 10 1 0
BITMAP
7C
FE
C6
E0
FC
7E
0E
C6
FE
7C
ENDCHAR
STARTCHAR t
ENCODING 116
SWIDTH 272 0
DWIDTH 5 0
BBX 5 13 0 0
BITMAP
20
60
60
F8
F8
60
60
60
60
60
60
78
38
ENDCHAR
STARTCHAR u
ENCODING 117
SWIDTH 500 0
DWIDTH 10 0
BBX 8 10 1 0
BITMAP
C3
C3
C3
C3
C3
C3
C3
C7
FF
7B
ENDCHAR
STARTCHAR v
ENCODING 118
SWIDTH 456 0
DWIDTH 9 0
BBX 9 10 0 0
BITMAP
C180
E380
6300
6300
7700
3600
3600
3E00
1C00
1C00
ENDCHAR
STARTCHAR w
ENCODING 119
SWIDTH 638 0
DWIDTH 12 0
BBX 11 10 0 0
BITMAP
CE60
CE60
6EC0
6EC0
6AC0
6AC0
2A80
3B80
3B80
3B80
ENDCHAR
STARTCHAR x
ENCODING 120
SWIDTH 456 0
DWIDTH 9 0
BBX 9 10 0 0
BITMAP
E380
6300
3600
3E00
1C00
1C00
3E00
3600
6300
E380
ENDCHAR
STARTCHAR y
ENCODING 121
SWIDTH 456 0
DWIDTH 9 0
BBX 9 14 0 -4
BITMAP
C180
E380
6300
6300
7700
3600
3600
3E00
1C00
1C00
1C00
1800
7800
7000
ENDCHAR
STARTCHAR z
ENCODING 122
SWIDTH 410 0
DWIDTH 8 0
BBX 8 10 0 0
BITMAP
FF
FF
06
0C
1C
38
30
60
FF
FF
ENDCHAR
STARTCHAR braceleft
ENCODING 123
SWIDTH 318 0
DWIDTH 6 0
BBX 6 18 0 -4
BITMAP
1C
3C
30
30
30
30
30
70
E0
E0
70
30
30
30
30
30
3C
1C
ENDCHAR
STARTCHAR bar
ENCODING 124
SWIDTH 229 0
DWIDTH 4 0
BBX 2 18 1 -4
BITMAP
C0
C0
C0
C0
C0
C0
C0
C0
C0
C0
C0
C0
C0
C0
C0
C0
C0
C0
ENDCHAR
STARTCHAR braceright
ENCODING 125
SWIDTH 318 0
DWIDTH 6 0
BBX 6 18 0 -4
BITMAP
E0
F0
30
30
30
30
30
38
1C
1C
38
30
30
30
30
30
F0
E0
ENDCHAR
STARTCHAR asciitilde
ENCODING 126
SWIDTH 479 0
DWIDTH 9 0
BBX 7 3 1 6
BITMAP
72
FE
9C
ENDCHAR
STARTCHAR nbspace
ENCODING 160
SWIDTH 456 0
DWIDTH 9 0
BBX 1 1 0 0
BITMAP
00
ENDCHAR
STARTCHAR exclamdown
ENCODING 161
SWIDTH 272 0
DWIDTH 5 0
BBX 2 14 1 -4
BITMAP
C0
C0
00
C0
C0
C0
C0
C0
C0
C0
C0
C0
C0
C0
ENDCHAR
STARTCHAR cent
ENCODING 162
SWIDTH 456 0
DWIDTH 9 0
BBX 8 18 1 -4
BITMAP
04
02
04
04
3C
7E
EB
C8
C8
D0
D3
F7
7E
3C
20
20
40
40
ENDCHAR
STARTCHAR sterling
ENCODING 163
SWIDTH 456 0
DWIDTH 9 0
BBX 9 14 0 0
BITMAP
1C00
3E00
6700
6300
6000
6000
FC00
FC00
3000
3000
6000
F880
FF80
8700
ENDCHAR
STARTCHAR currency
ENCODING 164
SWIDTH 456 0
DWIDTH 9 0
BBX 9 10 0 2
BITMAP
4100
FF80
7F00
7700
6300
6300
7700
7F00
FF80
4100
ENDCHAR
STARTCHAR yen
ENCODING 165
SWIDTH 456 0
DWIDTH 8 0
BBX 8 14 0 0
BITMAP
C3
66
66
66
3C
3C
FF
FF
18
FF
FF
18
18
18
ENDCHAR
STARTCHAR brokenbar
ENCODING 166
SWIDTH 229 0
DWIDTH 4 0
BBX 2 18 1 -4
BITMAP
C0
C0
C0
C0
C0
C0
C0
00
00
00
00
C0
C0
C0
C0
C0
C0
C0
ENDCHAR
STARTCHAR section
ENCODING 167
SWIDTH 456 0
DWIDTH 9 0
BBX 8 18 0 -4
BITMAP
3C
7E
66
60
30
78
CC
C6
C3
C3
63
37
1E
0C
06
66
7E
3C
ENDCHAR
STARTCHAR dieresis
ENCODING 168
SWIDTH 272 0
DWIDTH 5 0
BBX 5 2 0 12
BITMAP
D8
D8
ENDCHAR
STARTCHAR copyright
ENCODING 169
SWIDTH 604 0
DWIDTH 11 0
BBX 11 14 0 0
BITMAP
1F00
3180
60C0
4E40
9920
9020
9020
9020
9120
9B20
4E40
60C0
3180
1F00
ENDCHAR
STARTCHAR ordfeminine
ENCODING 170
SWIDTH 303 0
DWIDTH 6 0
BBX 5 7 0 7
BITMAP
70
98
18
78
D8
D8
78
ENDCHAR
STARTCHAR guillemotleft
ENCODING 171
SWIDTH 456 0
DWIDTH 9 0
BBX 7 8 1 1
BITMAP
36
6C
6C
D8
48
6C
24
36
ENDCHAR
STARTCHAR logicalnot
ENCODING 172
SWIDTH 479 0
DWIDTH 9 0
BBX 7 6 1 4
BITMAP
FE
FE
06
06
06
06
ENDCHAR
STARTCHAR hyphen.dup1
ENCODING 173
SWIDTH 272 0
DWIDTH 5 0
BBX 4 2 0 4
BITMAP
F0
F0
ENDCHAR
STARTCHAR registered
ENCODING 174
SWIDTH 604 0
DWIDTH 11 0
BBX 11 14 0 0
BITMAP
1F00
3180
60C0
5E40
9120
9120
9120
9E20
9220
9220
5140
60C0
3180
1F00
ENDCHAR
STARTCHAR overscore
ENCODING 175
SWIDTH 500 0
DWIDTH 10 0
BBX 10 1 0 15
BITMAP
FFC0
ENDCHAR
STARTCHAR degree
ENCODING 176
SWIDTH 399 0
DWIDTH 8 0
BBX 6 6 1 8
BITMAP
78
CC
84
84
CC
78
ENDCHAR
STARTCHAR plusminus
ENCODING 177
SWIDTH 548 0
DWIDTH 10 0
BBX 8 13 1 0
BITMAP
18
18
18
18
FF
FF
18
18
18
18
00
FF
FF
ENDCHAR
STARTCHAR twosuperior
ENCODING 178
SWIDTH 272 0
DWIDTH 5 0
BBX 4 7 0 7
BITMAP
60
90
10
30
60
40
F0
ENDCHAR
STARTCHAR threesuperior
ENCODING 179
SWIDTH 272 0
DWIDTH 5 0
BBX 4 7 0 7
BITMAP
60
90
10
60
10
90
60
ENDCHAR
STARTCHAR acute
ENCODING 180
SWIDTH 272 0
DWIDTH 5 0
BBX 3 2 1 11
BITMAP
60
C0
ENDCHAR
STARTCHAR mu1
ENCODING 181
SWIDTH 576 0
DWIDTH 11 0
BBX 9 14 1 -4
BITMAP
C180
C180
C180
C180
C180
C180
C180
E380
FF80
DD80
C000
C000
C000
C000
ENDCHAR
STARTCHAR paragraph
ENCODING 182
SWIDTH 456 0
DWIDTH 9 0
BBX 9 18 0 -4
BITMAP
3F80
7F80
FB00
FB00
FB00
FB00
7B00
3B00
1B00
1B00
1B00
1B00
1B00
1B00
1B00
1B00
1B00
1B00
ENDCHAR
STARTCHAR middot
ENCODING 183
SWIDTH 272 0
DWIDTH 5 0
BBX 2 2 2 5
BITMAP
C0
C0
ENDCHAR
STARTCHAR cedilla
ENCODING 184
SWIDTH 272 0
DWIDTH 5 0
BBX 4 4 0 -4
BITMAP
70
10
10
E0
ENDCHAR
STARTCHAR onesuperior
ENCODING 185
SWIDTH 272 0
DWIDTH 5 0
BBX 3 7 0 7
BITMAP
20
60
A0
20
20
20
20
ENDCHAR
STARTCHAR ordmasculine
ENCODING 186
SWIDTH 298 0
DWIDTH 6 0
BBX 5 7 0 7
BITMAP
70
F8
D8
D8
D8
F8
70
ENDCHAR
STARTCHAR guillemotright
ENCODING 187
SWIDTH 456 0
DWIDTH 9 0
BBX 7 8 1 1
BITMAP
D8
48
6C
24
36
6C
6C
D8
ENDCHAR
STARTCHAR onequarter
ENCODING 188
SWIDTH 684 0
DWIDTH 13 0
BBX 12 15 1 -1
BITMAP
6080
6080
E100
6100
6200
6200
6600
0420
0C60
08E0
18A0
1120
11F0
2020
2000
ENDCHAR
STARTCHAR onehalf
ENCODING 189
SWIDTH 684 0
DWIDTH 13 0
BBX 12 15 1 -1
BITMAP
6080
6080
E100
6100
6200
6200
6600
0440
0DE0
09B0
1820
1060
10C0
21F0
2000
ENDCHAR
STARTCHAR threequarters
ENCODING 190
SWIDTH 684 0
DWIDTH 13 0
BBX 13 15 0 -1
BITMAP
7040
7040
18C0
3080
1980
D900
7300
0210
0230
0470
0450
0890
08F8
1010
1000
ENDCHAR
ENDFONT
