STARTFONT 2.1
FONT -FontForge-Arial Narrow-Book-R-Normal--12-120-75-75-P-51-ISO10646-1
SIZE 12 75 75
FONTBOUNDINGBOX 11 13 -1 -3
COMMENT "Generated by fontforge, http://fontforge.sourceforge.net"
COMMENT "(c) 2008 The Monotype Corporation. All Rights Reserved."
STARTPROPERTIES 40
FOUNDRY "FontForge"
FAMILY_NAME "Arial Narrow"
WEIGHT_NAME "Book"
SLANT "R"
SETWIDTH_NAME "Normal"
ADD_STYLE_NAME ""
PIXEL_SIZE 12
POINT_SIZE 120
RESOLUTION_X 75
RESOLUTION_Y 75
SPACING "P"
AVERAGE_WIDTH 51
CHARSET_REGISTRY "ISO10646"
CHARSET_ENCODING "1"
FONTNAME_REGISTRY ""
CHARSET_COLLECTIONS "ISO10646-1"
FONT_NAME "ArialNarrow"
FACE_NAME "Arial Narrow"
COPYRIGHT "(c) 2008 The Monotype Corporation. All Rights Reserved."
FONT_VERSION "2.40"
FONT_ASCENT 10
FONT_DESCENT 2
UNDERLINE_POSITION -2
UNDERLINE_THICKNESS 1
X_HEIGHT 5
CAP_HEIGHT 8
RAW_ASCENT 799
RAW_DESCENT 200
NORM_SPACE 3
RELATIVE_WEIGHT 40
RELATIVE_SETWIDTH 30
SUPERSCRIPT_X 0
SUPERSCRIPT_Y 3
SUPERSCRIPT_SIZE 7
SUBSCRIPT_X 0
SUBSCRIPT_Y 0
SUBSCRIPT_SIZE 7
FIGURE_WIDTH 5
AVG_LOWERCASE_WIDTH 47
AVG_UPPERCASE_WIDTH 68
ENDPROPERTIES
CHARS 126
STARTCHAR space
ENCODING 32
SWIDTH 228 0
DWIDTH 3 0
BBX 1 1 0 0
BITMAP
00
ENDCHAR
STARTCHAR exclam
ENCODING 33
SWIDTH 228 0
DWIDTH 3 0
BBX 1 9 1 0
BITMAP
80
80
80
80
80
80
00
00
80
ENDCHAR
STARTCHAR quotedbl
ENCODING 34
SWIDTH 291 0
DWIDTH 4 0
BBX 3 3 0 6
BITMAP
A0
A0
A0
ENDCHAR
STARTCHAR numbersign
ENCODING 35
SWIDTH 456 0
DWIDTH 6 0
BBX 7 9 -1 0
BITMAP
24
24
24
FE
48
FE
48
48
48
ENDCHAR
STARTCHAR dollar
ENCODING 36
SWIDTH 456 0
DWIDTH 5 0
BBX 5 11 0 -1
BITMAP
20
70
A8
A0
A0
70
28
A8
A8
70
20
ENDCHAR
STARTCHAR percent
ENCODING 37
SWIDTH 729 0
DWIDTH 11 0
BBX 10 9 0 0
BITMAP
6100
9200
9200
9400
6580
0A40
1240
1240
2180
ENDCHAR
STARTCHAR ampersand
ENCODING 38
SWIDTH 546 0
DWIDTH 7 0
BBX 6 9 1 0
BITMAP
30
48
48
50
60
94
8C
8C
70
ENDCHAR
STARTCHAR quotesingle
ENCODING 39
SWIDTH 157 0
DWIDTH 2 0
BBX 1 3 0 6
BITMAP
80
80
80
ENDCHAR
STARTCHAR parenleft
ENCODING 40
SWIDTH 272 0
DWIDTH 3 0
BBX 2 11 1 -2
BITMAP
40
40
80
80
80
80
80
80
80
40
40
ENDCHAR
STARTCHAR parenright
ENCODING 41
SWIDTH 272 0
DWIDTH 3 0
BBX 2 11 0 -2
BITMAP
80
80
40
40
40
40
40
40
40
80
80
ENDCHAR
STARTCHAR asterisk
ENCODING 42
SWIDTH 318 0
DWIDTH 4 0
BBX 3 4 0 5
BITMAP
40
E0
40
A0
ENDCHAR
STARTCHAR plus
ENCODING 43
SWIDTH 479 0
DWIDTH 6 0
BBX 5 5 0 1
BITMAP
20
20
F8
20
20
ENDCHAR
STARTCHAR comma
ENCODING 44
SWIDTH 228 0
DWIDTH 3 0
BBX 2 3 0 -2
BITMAP
40
40
80
ENDCHAR
STARTCHAR hyphen
ENCODING 45
SWIDTH 272 0
DWIDTH 3 0
BBX 3 1 0 3
BITMAP
E0
ENDCHAR
STARTCHAR period
ENCODING 46
SWIDTH 228 0
DWIDTH 3 0
BBX 1 1 1 0
BITMAP
80
ENDCHAR
STARTCHAR slash
ENCODING 47
SWIDTH 228 0
DWIDTH 3 0
BBX 3 9 0 0
BITMAP
20
20
20
40
40
40
40
80
80
ENDCHAR
STARTCHAR zero
ENCODING 48
SWIDTH 456 0
DWIDTH 5 0
BBX 4 10 0 0
BITMAP
60
90
90
90
90
90
90
90
90
60
ENDCHAR
STARTCHAR one
ENCODING 49
SWIDTH 456 0
DWIDTH 5 0
BBX 3 10 0 0
BITMAP
20
60
A0
20
20
20
20
20
20
20
ENDCHAR
STARTCHAR two
ENCODING 50
SWIDTH 456 0
DWIDTH 5 0
BBX 4 10 0 0
BITMAP
60
90
90
10
10
20
60
40
80
F0
ENDCHAR
STARTCHAR three
ENCODING 51
SWIDTH 456 0
DWIDTH 5 0
BBX 4 10 0 0
BITMAP
60
90
10
10
60
10
10
10
90
60
ENDCHAR
STARTCHAR four
ENCODING 52
SWIDTH 456 0
DWIDTH 5 0
BBX 5 10 0 0
BITMAP
10
30
30
50
50
50
90
F8
10
10
ENDCHAR
STARTCHAR five
ENCODING 53
SWIDTH 456 0
DWIDTH 5 0
BBX 4 10 0 0
BITMAP
70
40
80
E0
90
10
10
10
90
60
ENDCHAR
STARTCHAR six
ENCODING 54
SWIDTH 456 0
DWIDTH 5 0
BBX 4 10 0 0
BITMAP
60
90
80
80
A0
D0
90
90
90
60
ENDCHAR
STARTCHAR seven
ENCODING 55
SWIDTH 456 0
DWIDTH 5 0
BBX 4 10 0 0
BITMAP
F0
10
20
20
20
20
40
40
40
40
ENDCHAR
STARTCHAR eight
ENCODING 56
SWIDTH 456 0
DWIDTH 5 0
BBX 4 10 0 0
BITMAP
60
90
90
90
60
90
90
90
90
60
ENDCHAR
STARTCHAR nine
ENCODING 57
SWIDTH 456 0
DWIDTH 5 0
BBX 4 10 0 0
BITMAP
60
90
90
90
B0
50
10
10
90
60
ENDCHAR
STARTCHAR colon
ENCODING 58
SWIDTH 228 0
DWIDTH 3 0
BBX 1 6 1 0
BITMAP
80
00
00
00
00
80
ENDCHAR
STARTCHAR semicolon
ENCODING 59
SWIDTH 228 0
DWIDTH 3 0
BBX 2 8 0 -2
BITMAP
40
00
00
00
00
40
40
80
ENDCHAR
STARTCHAR less
ENCODING 60
SWIDTH 479 0
DWIDTH 6 0
BBX 5 5 0 1
BITMAP
08
70
80
70
08
ENDCHAR
STARTCHAR equal
ENCODING 61
SWIDTH 479 0
DWIDTH 6 0
BBX 5 4 0 2
BITMAP
F8
00
00
F8
ENDCHAR
STARTCHAR greater
ENCODING 62
SWIDTH 479 0
DWIDTH 6 0
BBX 5 5 0 1
BITMAP
80
70
08
70
80
ENDCHAR
STARTCHAR question
ENCODING 63
SWIDTH 456 0
DWIDTH 5 0
BBX 5 9 0 0
BITMAP
70
88
08
08
10
20
20
00
20
ENDCHAR
STARTCHAR at
ENCODING 64
SWIDTH 832 0
DWIDTH 10 0
BBX 9 12 0 -3
BITMAP
1E00
2100
4080
9A80
A680
A480
A480
A480
9B00
4080
2100
1E00
ENDCHAR
STARTCHAR A
ENCODING 65
SWIDTH 546 0
DWIDTH 7 0
BBX 7 9 0 0
BITMAP
10
28
28
28
44
7C
44
82
82
ENDCHAR
STARTCHAR B
ENCODING 66
SWIDTH 546 0
DWIDTH 7 0
BBX 5 9 1 0
BITMAP
F0
88
88
88
F0
88
88
88
F0
ENDCHAR
STARTCHAR C
ENCODING 67
SWIDTH 591 0
DWIDTH 8 0
BBX 6 9 1 0
BITMAP
38
44
84
80
80
80
84
44
38
ENDCHAR
STARTCHAR D
ENCODING 68
SWIDTH 591 0
DWIDTH 7 0
BBX 5 9 1 0
BITMAP
E0
90
88
88
88
88
88
90
E0
ENDCHAR
STARTCHAR E
ENCODING 69
SWIDTH 546 0
DWIDTH 7 0
BBX 5 9 1 0
BITMAP
F8
80
80
80
F8
80
80
80
F8
ENDCHAR
STARTCHAR F
ENCODING 70
SWIDTH 500 0
DWIDTH 6 0
BBX 5 9 1 0
BITMAP
F8
80
80
80
F0
80
80
80
80
ENDCHAR
STARTCHAR G
ENCODING 71
SWIDTH 638 0
DWIDTH 8 0
BBX 6 9 1 0
BITMAP
38
44
84
80
9C
84
84
44
38
ENDCHAR
STARTCHAR H
ENCODING 72
SWIDTH 591 0
DWIDTH 8 0
BBX 6 9 1 0
BITMAP
84
84
84
84
FC
84
84
84
84
ENDCHAR
STARTCHAR I
ENCODING 73
SWIDTH 228 0
DWIDTH 3 0
BBX 1 9 1 0
BITMAP
80
80
80
80
80
80
80
80
80
ENDCHAR
STARTCHAR J
ENCODING 74
SWIDTH 410 0
DWIDTH 5 0
BBX 4 9 0 0
BITMAP
10
10
10
10
10
10
90
90
60
ENDCHAR
STARTCHAR K
ENCODING 75
SWIDTH 546 0
DWIDTH 7 0
BBX 5 9 1 0
BITMAP
88
90
A0
A0
E0
A0
90
90
88
ENDCHAR
STARTCHAR L
ENCODING 76
SWIDTH 456 0
DWIDTH 5 0
BBX 4 9 1 0
BITMAP
80
80
80
80
80
80
80
80
F0
ENDCHAR
STARTCHAR M
ENCODING 77
SWIDTH 683 0
DWIDTH 9 0
BBX 7 9 1 0
BITMAP
82
C6
C6
C6
AA
AA
AA
AA
92
ENDCHAR
STARTCHAR N
ENCODING 78
SWIDTH 591 0
DWIDTH 8 0
BBX 6 9 1 0
BITMAP
84
C4
C4
A4
A4
94
94
8C
84
ENDCHAR
STARTCHAR O
ENCODING 79
SWIDTH 638 0
DWIDTH 8 0
BBX 6 9 1 0
BITMAP
30
48
84
84
84
84
84
48
30
ENDCHAR
STARTCHAR P
ENCODING 80
SWIDTH 546 0
DWIDTH 7 0
BBX 5 9 1 0
BITMAP
F0
88
88
88
F0
80
80
80
80
ENDCHAR
STARTCHAR Q
ENCODING 81
SWIDTH 638 0
DWIDTH 8 0
BBX 6 10 1 -1
BITMAP
30
48
84
84
84
84
84
58
34
04
ENDCHAR
STARTCHAR R
ENCODING 82
SWIDTH 591 0
DWIDTH 7 0
BBX 6 9 1 0
BITMAP
F0
88
88
88
F0
90
88
88
84
ENDCHAR
STARTCHAR S
ENCODING 83
SWIDTH 546 0
DWIDTH 7 0
BBX 5 9 1 0
BITMAP
70
88
88
80
70
08
88
88
70
ENDCHAR
STARTCHAR T
ENCODING 84
SWIDTH 500 0
DWIDTH 5 0
BBX 5 9 0 0
BITMAP
F8
20
20
20
20
20
20
20
20
ENDCHAR
STARTCHAR U
ENCODING 85
SWIDTH 591 0
DWIDTH 8 0
BBX 6 9 1 0
BITMAP
84
84
84
84
84
84
84
48
30
ENDCHAR
STARTCHAR V
ENCODING 86
SWIDTH 546 0
DWIDTH 7 0
BBX 7 9 0 0
BITMAP
82
82
44
44
44
28
28
28
10
ENDCHAR
STARTCHAR W
ENCODING 87
SWIDTH 773 0
DWIDTH 9 0
BBX 9 9 0 0
BITMAP
8880
9480
5480
5500
5500
5500
5500
5500
2200
ENDCHAR
STARTCHAR X
ENCODING 88
SWIDTH 546 0
DWIDTH 6 0
BBX 6 9 0 0
BITMAP
84
48
48
30
30
30
48
48
84
ENDCHAR
STARTCHAR Y
ENCODING 89
SWIDTH 546 0
DWIDTH 7 0
BBX 7 9 0 0
BITMAP
82
44
44
28
10
10
10
10
10
ENDCHAR
STARTCHAR Z
ENCODING 90
SWIDTH 500 0
DWIDTH 5 0
BBX 5 9 0 0
BITMAP
F8
08
10
10
20
40
40
80
F8
ENDCHAR
STARTCHAR bracketleft
ENCODING 91
SWIDTH 228 0
DWIDTH 3 0
BBX 2 11 1 -2
BITMAP
C0
80
80
80
80
80
80
80
80
80
C0
ENDCHAR
STARTCHAR backslash
ENCODING 92
SWIDTH 228 0
DWIDTH 3 0
BBX 3 9 0 0
BITMAP
80
80
40
40
40
40
40
20
20
ENDCHAR
STARTCHAR bracketright
ENCODING 93
SWIDTH 228 0
DWIDTH 3 0
BBX 2 11 0 -2
BITMAP
C0
40
40
40
40
40
40
40
40
40
C0
ENDCHAR
STARTCHAR asciicircum
ENCODING 94
SWIDTH 384 0
DWIDTH 5 0
BBX 5 5 0 4
BITMAP
20
50
50
50
88
ENDCHAR
STARTCHAR underscore
ENCODING 95
SWIDTH 456 0
DWIDTH 5 0
BBX 5 1 0 -2
BITMAP
F8
ENDCHAR
STARTCHAR grave
ENCODING 96
SWIDTH 272 0
DWIDTH 3 0
BBX 2 2 0 7
BITMAP
80
40
ENDCHAR
STARTCHAR a
ENCODING 97
SWIDTH 456 0
DWIDTH 5 0
BBX 4 6 0 0
BITMAP
E0
10
70
90
90
70
ENDCHAR
STARTCHAR b
ENCODING 98
SWIDTH 456 0
DWIDTH 5 0
BBX 4 9 0 0
BITMAP
80
80
80
A0
D0
90
90
D0
A0
ENDCHAR
STARTCHAR c
ENCODING 99
SWIDTH 410 0
DWIDTH 5 0
BBX 4 6 0 0
BITMAP
60
90
80
80
90
60
ENDCHAR
STARTCHAR d
ENCODING 100
SWIDTH 456 0
DWIDTH 5 0
BBX 4 9 0 0
BITMAP
10
10
10
50
B0
90
90
B0
50
ENDCHAR
STARTCHAR e
ENCODING 101
SWIDTH 456 0
DWIDTH 5 0
BBX 4 6 0 0
BITMAP
60
90
F0
80
90
60
ENDCHAR
STARTCHAR f
ENCODING 102
SWIDTH 228 0
DWIDTH 2 0
BBX 3 9 -1 0
BITMAP
60
40
40
E0
40
40
40
40
40
ENDCHAR
STARTCHAR g
ENCODING 103
SWIDTH 456 0
DWIDTH 5 0
BBX 4 8 0 -2
BITMAP
50
B0
90
90
B0
50
10
E0
ENDCHAR
STARTCHAR h
ENCODING 104
SWIDTH 456 0
DWIDTH 5 0
BBX 4 9 0 0
BITMAP
80
80
80
A0
D0
90
90
90
90
ENDCHAR
STARTCHAR i
ENCODING 105
SWIDTH 182 0
DWIDTH 2 0
BBX 1 9 0 0
BITMAP
80
00
00
80
80
80
80
80
80
ENDCHAR
STARTCHAR j
ENCODING 106
SWIDTH 182 0
DWIDTH 2 0
BBX 2 11 -1 -2
BITMAP
40
00
00
40
40
40
40
40
40
40
C0
ENDCHAR
STARTCHAR k
ENCODING 107
SWIDTH 410 0
DWIDTH 5 0
BBX 4 9 0 0
BITMAP
80
80
80
90
A0
C0
A0
90
90
ENDCHAR
STARTCHAR l
ENCODING 108
SWIDTH 182 0
DWIDTH 2 0
BBX 1 9 0 0
BITMAP
80
80
80
80
80
80
80
80
80
ENDCHAR
STARTCHAR m
ENCODING 109
SWIDTH 683 0
DWIDTH 8 0
BBX 7 6 0 0
BITMAP
A6
DA
92
92
92
92
ENDCHAR
STARTCHAR n
ENCODING 110
SWIDTH 456 0
DWIDTH 5 0
BBX 4 6 0 0
BITMAP
A0
D0
90
90
90
90
ENDCHAR
STARTCHAR o
ENCODING 111
SWIDTH 456 0
DWIDTH 5 0
BBX 4 6 0 0
BITMAP
60
90
90
90
90
60
ENDCHAR
STARTCHAR p
ENCODING 112
SWIDTH 456 0
DWIDTH 5 0
BBX 4 8 0 -2
BITMAP
A0
D0
90
90
D0
A0
80
80
ENDCHAR
STARTCHAR q
ENCODING 113
SWIDTH 456 0
DWIDTH 5 0
BBX 4 8 0 -2
BITMAP
50
B0
90
90
B0
50
10
10
ENDCHAR
STARTCHAR r
ENCODING 114
SWIDTH 272 0
DWIDTH 3 0
BBX 3 6 0 0
BITMAP
A0
C0
80
80
80
80
ENDCHAR
STARTCHAR s
ENCODING 115
SWIDTH 410 0
DWIDTH 5 0
BBX 4 6 0 0
BITMAP
60
90
40
20
90
70
ENDCHAR
STARTCHAR t
ENCODING 116
SWIDTH 228 0
DWIDTH 2 0
BBX 3 8 -1 0
BITMAP
40
40
E0
40
40
40
40
60
ENDCHAR
STARTCHAR u
ENCODING 117
SWIDTH 456 0
DWIDTH 5 0
BBX 4 6 0 0
BITMAP
90
90
90
90
B0
50
ENDCHAR
STARTCHAR v
ENCODING 118
SWIDTH 410 0
DWIDTH 6 0
BBX 5 6 0 0
BITMAP
88
88
50
50
50
20
ENDCHAR
STARTCHAR w
ENCODING 119
SWIDTH 591 0
DWIDTH 8 0
BBX 7 6 0 0
BITMAP
92
AA
AA
AA
AA
44
ENDCHAR
STARTCHAR x
ENCODING 120
SWIDTH 410 0
DWIDTH 6 0
BBX 5 6 0 0
BITMAP
88
50
20
20
50
88
ENDCHAR
STARTCHAR y
ENCODING 121
SWIDTH 410 0
DWIDTH 6 0
BBX 5 8 0 -2
BITMAP
88
50
50
50
20
20
20
40
ENDCHAR
STARTCHAR z
ENCODING 122
SWIDTH 410 0
DWIDTH 5 0
BBX 4 6 0 0
BITMAP
F0
10
20
40
80
F0
ENDCHAR
STARTCHAR braceleft
ENCODING 123
SWIDTH 273 0
DWIDTH 3 0
BBX 3 11 0 -2
BITMAP
20
40
40
40
40
80
40
40
40
40
20
ENDCHAR
STARTCHAR bar
ENCODING 124
SWIDTH 212 0
DWIDTH 3 0
BBX 1 11 1 -2
BITMAP
80
80
80
80
80
80
80
80
80
80
80
ENDCHAR
STARTCHAR braceright
ENCODING 125
SWIDTH 273 0
DWIDTH 3 0
BBX 3 11 0 -2
BITMAP
C0
40
40
40
40
20
40
40
40
40
C0
ENDCHAR
STARTCHAR asciitilde
ENCODING 126
SWIDTH 479 0
DWIDTH 6 0
BBX 5 2 0 4
BITMAP
E8
B0
ENDCHAR
STARTCHAR space.dup1
ENCODING 160
SWIDTH 228 0
DWIDTH 3 0
BBX 1 1 0 0
BITMAP
00
ENDCHAR
STARTCHAR exclamdown
ENCODING 161
SWIDTH 272 0
DWIDTH 3 0
BBX 1 8 1 -2
BITMAP
80
00
80
80
80
80
80
80
ENDCHAR
STARTCHAR cent
ENCODING 162
SWIDTH 456 0
DWIDTH 5 0
BBX 4 11 0 -2
BITMAP
10
20
20
60
B0
A0
C0
D0
60
40
80
ENDCHAR
STARTCHAR sterling
ENCODING 163
SWIDTH 456 0
DWIDTH 5 0
BBX 5 9 0 0
BITMAP
30
48
48
40
F0
20
20
E0
98
ENDCHAR
STARTCHAR currency
ENCODING 164
SWIDTH 456 0
DWIDTH 5 0
BBX 5 5 0 2
BITMAP
B8
50
88
50
B8
ENDCHAR
STARTCHAR yen
ENCODING 165
SWIDTH 456 0
DWIDTH 5 0
BBX 5 9 0 0
BITMAP
88
50
50
50
F8
20
F8
20
20
ENDCHAR
STARTCHAR brokenbar
ENCODING 166
SWIDTH 212 0
DWIDTH 3 0
BBX 1 12 1 -3
BITMAP
80
80
80
80
80
00
00
80
80
80
80
80
ENDCHAR
STARTCHAR section
ENCODING 167
SWIDTH 456 0
DWIDTH 5 0
BBX 5 12 0 -3
BITMAP
30
48
40
60
90
88
48
28
10
08
88
70
ENDCHAR
STARTCHAR dieresis
ENCODING 168
SWIDTH 272 0
DWIDTH 3 0
BBX 3 1 1 7
BITMAP
A0
ENDCHAR
STARTCHAR copyright
ENCODING 169
SWIDTH 604 0
DWIDTH 7 0
BBX 7 9 0 0
BITMAP
38
44
9A
A2
A2
AA
92
44
38
ENDCHAR
STARTCHAR ordfeminine
ENCODING 170
SWIDTH 303 0
DWIDTH 4 0
BBX 3 4 0 5
BITMAP
E0
60
A0
E0
ENDCHAR
STARTCHAR guillemotleft
ENCODING 171
SWIDTH 456 0
DWIDTH 5 0
BBX 5 5 0 0
BITMAP
28
50
A0
50
28
ENDCHAR
STARTCHAR logicalnot
ENCODING 172
SWIDTH 479 0
DWIDTH 6 0
BBX 5 4 0 2
BITMAP
F8
08
08
08
ENDCHAR
STARTCHAR hyphen.dup2
ENCODING 173
SWIDTH 272 0
DWIDTH 3 0
BBX 3 1 0 3
BITMAP
E0
ENDCHAR
STARTCHAR registered
ENCODING 174
SWIDTH 604 0
DWIDTH 7 0
BBX 7 9 0 0
BITMAP
38
44
BA
AA
BA
AA
AA
44
38
ENDCHAR
STARTCHAR overscore
ENCODING 175
SWIDTH 500 0
DWIDTH 6 0
BBX 6 1 0 9
BITMAP
FC
ENDCHAR
STARTCHAR degree
ENCODING 176
SWIDTH 399 0
DWIDTH 5 0
BBX 3 3 1 5
BITMAP
40
A0
40
ENDCHAR
STARTCHAR plusminus
ENCODING 177
SWIDTH 548 0
DWIDTH 7 0
BBX 5 7 1 0
BITMAP
20
20
F8
20
20
00
F8
ENDCHAR
STARTCHAR twosuperior
ENCODING 178
SWIDTH 272 0
DWIDTH 3 0
BBX 3 4 0 5
BITMAP
E0
20
40
E0
ENDCHAR
STARTCHAR threesuperior
ENCODING 179
SWIDTH 272 0
DWIDTH 3 0
BBX 3 4 0 5
BITMAP
E0
40
20
E0
ENDCHAR
STARTCHAR acute
ENCODING 180
SWIDTH 272 0
DWIDTH 3 0
BBX 2 2 1 7
BITMAP
40
80
ENDCHAR
STARTCHAR mu1
ENCODING 181
SWIDTH 576 0
DWIDTH 7 0
BBX 5 8 1 -2
BITMAP
88
88
88
88
D8
A8
80
80
ENDCHAR
STARTCHAR paragraph
ENCODING 182
SWIDTH 439 0
DWIDTH 6 0
BBX 6 11 0 -2
BITMAP
7C
E8
E8
E8
68
28
28
28
28
28
28
ENDCHAR
STARTCHAR middot
ENCODING 183
SWIDTH 271 0
DWIDTH 3 0
BBX 1 1 1 4
BITMAP
80
ENDCHAR
STARTCHAR cedilla
ENCODING 184
SWIDTH 272 0
DWIDTH 3 0
BBX 3 3 0 -3
BITMAP
40
20
E0
ENDCHAR
STARTCHAR onesuperior
ENCODING 185
SWIDTH 272 0
DWIDTH 3 0
BBX 2 4 0 5
BITMAP
40
C0
40
40
ENDCHAR
STARTCHAR ordmasculine
ENCODING 186
SWIDTH 298 0
DWIDTH 4 0
BBX 3 4 0 5
BITMAP
E0
A0
A0
E0
ENDCHAR
STARTCHAR guillemotright
ENCODING 187
SWIDTH 456 0
DWIDTH 5 0
BBX 5 5 0 0
BITMAP
A0
50
28
50
A0
ENDCHAR
STARTCHAR onequarter
ENCODING 188
SWIDTH 684 0
DWIDTH 8 0
BBX 8 9 0 0
BITMAP
02
C2
44
48
08
13
13
25
43
ENDCHAR
STARTCHAR onehalf
ENCODING 189
SWIDTH 684 0
DWIDTH 8 0
BBX 8 9 0 0
BITMAP
02
C4
44
48
08
17
21
22
47
ENDCHAR
STARTCHAR threequarters
ENCODING 190
SWIDTH 684 0
DWIDTH 8 0
BBX 7 9 1 0
BITMAP
84
44
C8
50
D0
26
26
4A
86
ENDCHAR
ENDFONT
