STARTFONT 2.1
FONT -FontForge-Arial Narrow-Bold-R-Normal--17-120-100-100-P-77-ISO10646-1
SIZE 12 100 100
FONTBOUNDINGBOX 15 18 -1 -4
COMMENT "Generated by fontforge, http://fontforge.sourceforge.net"
COMMENT "(c) 2008 The Monotype Corporation. All Rights Reserved."
STARTPROPERTIES 40
FOUNDRY "FontForge"
FAMILY_NAME "Arial Narrow"
WEIGHT_NAME "Bold"
SLANT "R"
SETWIDTH_NAME "Normal"
ADD_STYLE_NAME ""
PIXEL_SIZE 17
POINT_SIZE 120
RESOLUTION_X 100
RESOLUTION_Y 100
SPACING "P"
AVERAGE_WIDTH 77
CHARSET_REGISTRY "ISO10646"
CHARSET_ENCODING "1"
FONTNAME_REGISTRY ""
CHARSET_COLLECTIONS "ISO10646-1"
FONT_NAME "ArialNarrow-Bold"
FACE_NAME "Arial Narrow Bold"
COPYRIGHT "(c) 2008 The Monotype Corporation. All Rights Reserved."
FONT_VERSION "2.40"
FONT_ASCENT 14
FONT_DESCENT 3
UNDERLINE_POSITION -2
UNDERLINE_THICKNESS 2
X_HEIGHT 8
CAP_HEIGHT 11
RAW_ASCENT 799
RAW_DESCENT 200
NORM_SPACE 4
RELATIVE_WEIGHT 70
RELATIVE_SETWIDTH 30
SUPERSCRIPT_X 0
SUPERSCRIPT_Y 4
SUPERSCRIPT_SIZE 11
SUBSCRIPT_X 0
SUBSCRIPT_Y 1
SUBSCRIPT_SIZE 11
FIGURE_WIDTH 8
AVG_LOWERCASE_WIDTH 76
AVG_UPPERCASE_WIDTH 96
ENDPROPERTIES
CHARS 126
STARTCHAR space
ENCODING 32
SWIDTH 228 0
DWIDTH 4 0
BBX 1 1 0 0
BITMAP
00
ENDCHAR
STARTCHAR exclam
ENCODING 33
SWIDTH 272 0
DWIDTH 5 0
BBX 2 12 1 0
BITMAP
C0
C0
C0
C0
C0
C0
C0
C0
C0
00
C0
C0
ENDCHAR
STARTCHAR quotedbl
ENCODING 34
SWIDTH 389 0
DWIDTH 7 0
BBX 5 4 1 8
BITMAP
D8
D8
D8
D8
ENDCHAR
STARTCHAR numbersign
ENCODING 35
SWIDTH 456 0
DWIDTH 8 0
BBX 7 12 0 0
BITMAP
36
36
36
FE
FE
6C
6C
FE
FE
D8
D8
D8
ENDCHAR
STARTCHAR dollar
ENCODING 36
SWIDTH 456 0
DWIDTH 8 0
BBX 7 15 0 -2
BITMAP
10
38
7C
D6
D0
F0
78
3C
16
D6
F6
7C
38
10
10
ENDCHAR
STARTCHAR percent
ENCODING 37
SWIDTH 729 0
DWIDTH 12 0
BBX 10 12 1 0
BITMAP
6100
9100
9200
9200
9200
6400
0580
0A40
0A40
0A40
1240
1180
ENDCHAR
STARTCHAR ampersand
ENCODING 38
SWIDTH 591 0
DWIDTH 10 0
BBX 9 12 1 0
BITMAP
3C00
7E00
6600
7E00
3C00
3800
7D00
CD00
C700
C700
7F80
7900
ENDCHAR
STARTCHAR quotesingle
ENCODING 39
SWIDTH 194 0
DWIDTH 3 0
BBX 2 4 0 8
BITMAP
C0
C0
C0
C0
ENDCHAR
STARTCHAR parenleft
ENCODING 40
SWIDTH 272 0
DWIDTH 5 0
BBX 4 15 1 -3
BITMAP
10
20
60
60
C0
C0
C0
C0
C0
C0
C0
60
60
20
10
ENDCHAR
STARTCHAR parenright
ENCODING 41
SWIDTH 272 0
DWIDTH 5 0
BBX 4 15 0 -3
BITMAP
80
40
60
60
30
30
30
30
30
30
20
60
60
40
80
ENDCHAR
STARTCHAR asterisk
ENCODING 42
SWIDTH 318 0
DWIDTH 5 0
BBX 5 6 0 6
BITMAP
20
A8
F8
20
50
50
ENDCHAR
STARTCHAR plus
ENCODING 43
SWIDTH 479 0
DWIDTH 8 0
BBX 6 8 1 2
BITMAP
30
30
30
FC
FC
30
30
30
ENDCHAR
STARTCHAR comma
ENCODING 44
SWIDTH 228 0
DWIDTH 4 0
BBX 2 5 1 -3
BITMAP
C0
C0
40
40
80
ENDCHAR
STARTCHAR hyphen
ENCODING 45
SWIDTH 272 0
DWIDTH 5 0
BBX 4 2 0 3
BITMAP
F0
F0
ENDCHAR
STARTCHAR period
ENCODING 46
SWIDTH 228 0
DWIDTH 4 0
BBX 2 2 1 0
BITMAP
C0
C0
ENDCHAR
STARTCHAR slash
ENCODING 47
SWIDTH 228 0
DWIDTH 4 0
BBX 4 12 0 0
BITMAP
30
30
30
60
60
60
60
60
60
C0
C0
C0
ENDCHAR
STARTCHAR zero
ENCODING 48
SWIDTH 456 0
DWIDTH 8 0
BBX 7 12 0 0
BITMAP
38
7C
EE
C6
C6
C6
C6
C6
C6
EE
7C
38
ENDCHAR
STARTCHAR one
ENCODING 49
SWIDTH 456 0
DWIDTH 8 0
BBX 4 12 1 0
BITMAP
30
30
70
F0
B0
30
30
30
30
30
30
30
ENDCHAR
STARTCHAR two
ENCODING 50
SWIDTH 456 0
DWIDTH 8 0
BBX 7 12 0 0
BITMAP
38
7C
C6
C6
06
0C
1C
38
30
60
FE
FE
ENDCHAR
STARTCHAR three
ENCODING 51
SWIDTH 456 0
DWIDTH 8 0
BBX 7 12 0 0
BITMAP
38
7C
C6
06
06
1C
1C
06
06
C6
7C
38
ENDCHAR
STARTCHAR four
ENCODING 52
SWIDTH 456 0
DWIDTH 8 0
BBX 7 12 0 0
BITMAP
0C
1C
1C
3C
3C
6C
6C
CC
FE
FE
0C
0C
ENDCHAR
STARTCHAR five
ENCODING 53
SWIDTH 456 0
DWIDTH 8 0
BBX 7 12 0 0
BITMAP
7E
7E
60
40
F8
FC
C6
06
C6
E6
7C
38
ENDCHAR
STARTCHAR six
ENCODING 54
SWIDTH 456 0
DWIDTH 8 0
BBX 6 12 0 0
BITMAP
38
7C
CC
C0
F8
F8
CC
CC
CC
CC
78
38
ENDCHAR
STARTCHAR seven
ENCODING 55
SWIDTH 456 0
DWIDTH 8 0
BBX 6 12 1 0
BITMAP
FC
FC
08
18
18
30
30
30
60
60
60
60
ENDCHAR
STARTCHAR eight
ENCODING 56
SWIDTH 456 0
DWIDTH 8 0
BBX 7 12 0 0
BITMAP
38
7C
C6
C6
C6
7C
7C
C6
C6
C6
FE
38
ENDCHAR
STARTCHAR nine
ENCODING 57
SWIDTH 456 0
DWIDTH 8 0
BBX 6 12 1 0
BITMAP
70
78
CC
CC
CC
CC
7C
7C
0C
CC
F8
70
ENDCHAR
STARTCHAR colon
ENCODING 58
SWIDTH 272 0
DWIDTH 5 0
BBX 2 9 1 0
BITMAP
C0
C0
00
00
00
00
00
C0
C0
ENDCHAR
STARTCHAR semicolon
ENCODING 59
SWIDTH 272 0
DWIDTH 5 0
BBX 2 12 1 -3
BITMAP
C0
C0
00
00
00
00
00
C0
C0
40
40
80
ENDCHAR
STARTCHAR less
ENCODING 60
SWIDTH 479 0
DWIDTH 8 0
BBX 6 9 1 1
BITMAP
04
1C
38
F0
C0
F0
38
1C
04
ENDCHAR
STARTCHAR equal
ENCODING 61
SWIDTH 479 0
DWIDTH 8 0
BBX 6 6 1 3
BITMAP
FC
FC
00
00
FC
FC
ENDCHAR
STARTCHAR greater
ENCODING 62
SWIDTH 479 0
DWIDTH 8 0
BBX 6 9 1 1
BITMAP
80
E0
70
3C
0C
3C
70
E0
80
ENDCHAR
STARTCHAR question
ENCODING 63
SWIDTH 500 0
DWIDTH 9 0
BBX 7 12 1 0
BITMAP
38
7C
E6
C6
06
0C
1C
18
18
00
18
18
ENDCHAR
STARTCHAR at
ENCODING 64
SWIDTH 799 0
DWIDTH 14 0
BBX 14 15 0 -3
BITMAP
07C0
1FF0
3838
77D8
67CC
C4CC
CCCC
CC8C
CD9C
CDB8
EFF0
66E4
7808
3FF0
0FE0
ENDCHAR
STARTCHAR A
ENCODING 65
SWIDTH 591 0
DWIDTH 10 0
BBX 9 12 0 0
BITMAP
1C00
1C00
1C00
3600
3600
3600
6300
7F00
7F00
6300
C180
C180
ENDCHAR
STARTCHAR B
ENCODING 66
SWIDTH 591 0
DWIDTH 10 0
BBX 8 12 1 0
BITMAP
FE
FF
C3
C3
C3
FE
FE
C3
C3
C3
FF
FE
ENDCHAR
STARTCHAR C
ENCODING 67
SWIDTH 591 0
DWIDTH 10 0
BBX 9 12 1 0
BITMAP
1E00
7F00
6380
C100
C000
C000
C000
C100
C180
6380
7F00
1E00
ENDCHAR
STARTCHAR D
ENCODING 68
SWIDTH 591 0
DWIDTH 10 0
BBX 8 12 1 0
BITMAP
FC
FE
C6
C3
C3
C3
C3
C3
C3
C6
FE
FC
ENDCHAR
STARTCHAR E
ENCODING 69
SWIDTH 546 0
DWIDTH 9 0
BBX 7 12 1 0
BITMAP
FE
FE
C0
C0
C0
FE
FE
C0
C0
C0
FE
FE
ENDCHAR
STARTCHAR F
ENCODING 70
SWIDTH 500 0
DWIDTH 9 0
BBX 7 12 1 0
BITMAP
FE
FE
C0
C0
C0
FC
FC
C0
C0
C0
C0
C0
ENDCHAR
STARTCHAR G
ENCODING 71
SWIDTH 638 0
DWIDTH 11 0
BBX 9 12 1 0
BITMAP
1E00
7F00
6380
C180
C000
C000
C780
C780
C180
6180
7F80
1E00
ENDCHAR
STARTCHAR H
ENCODING 72
SWIDTH 591 0
DWIDTH 10 0
BBX 8 12 1 0
BITMAP
C3
C3
C3
C3
C3
FF
FF
C3
C3
C3
C3
C3
ENDCHAR
STARTCHAR I
ENCODING 73
SWIDTH 228 0
DWIDTH 4 0
BBX 2 12 1 0
BITMAP
C0
C0
C0
C0
C0
C0
C0
C0
C0
C0
C0
C0
ENDCHAR
STARTCHAR J
ENCODING 74
SWIDTH 456 0
DWIDTH 8 0
BBX 7 12 0 0
BITMAP
06
06
06
06
06
06
06
06
C6
C6
7C
78
ENDCHAR
STARTCHAR K
ENCODING 75
SWIDTH 591 0
DWIDTH 10 0
BBX 9 12 1 0
BITMAP
C180
C300
C600
CC00
D800
F800
EC00
C600
C600
C300
C180
C180
ENDCHAR
STARTCHAR L
ENCODING 76
SWIDTH 500 0
DWIDTH 9 0
BBX 7 12 1 0
BITMAP
C0
C0
C0
C0
C0
C0
C0
C0
C0
C0
FE
FE
ENDCHAR
STARTCHAR M
ENCODING 77
SWIDTH 683 0
DWIDTH 13 0
BBX 11 12 1 0
BITMAP
F0E0
F1E0
F1E0
F1E0
D160
DB60
DB60
DB60
CA60
CE60
CE60
CE60
ENDCHAR
STARTCHAR N
ENCODING 78
SWIDTH 591 0
DWIDTH 10 0
BBX 8 12 1 0
BITMAP
C3
E3
E3
F3
F3
DB
DB
CF
CF
C7
C7
C3
ENDCHAR
STARTCHAR O
ENCODING 79
SWIDTH 638 0
DWIDTH 11 0
BBX 9 12 1 0
BITMAP
3E00
7F00
6300
C180
C180
C180
C180
C180
C180
6300
7F00
3E00
ENDCHAR
STARTCHAR P
ENCODING 80
SWIDTH 546 0
DWIDTH 9 0
BBX 8 12 1 0
BITMAP
FE
FF
C3
C3
C3
FE
FC
C0
C0
C0
C0
C0
ENDCHAR
STARTCHAR Q
ENCODING 81
SWIDTH 638 0
DWIDTH 11 0
BBX 10 13 1 -1
BITMAP
3E00
7F00
6300
C180
C180
C180
C180
C180
CD80
6700
7F00
3FC0
0080
ENDCHAR
STARTCHAR R
ENCODING 82
SWIDTH 591 0
DWIDTH 10 0
BBX 9 12 1 0
BITMAP
FE00
FF00
C300
C300
C300
FF00
FC00
CE00
C600
C300
C300
C180
ENDCHAR
STARTCHAR S
ENCODING 83
SWIDTH 546 0
DWIDTH 9 0
BBX 7 12 1 0
BITMAP
7C
FE
C6
C6
C0
78
3C
06
C6
C6
FE
7C
ENDCHAR
STARTCHAR T
ENCODING 84
SWIDTH 500 0
DWIDTH 9 0
BBX 8 12 0 0
BITMAP
FF
FF
18
18
18
18
18
18
18
18
18
18
ENDCHAR
STARTCHAR U
ENCODING 85
SWIDTH 591 0
DWIDTH 10 0
BBX 8 12 1 0
BITMAP
C3
C3
C3
C3
C3
C3
C3
C3
C3
E7
7E
3C
ENDCHAR
STARTCHAR V
ENCODING 86
SWIDTH 546 0
DWIDTH 9 0
BBX 9 12 0 0
BITMAP
C180
C180
6300
6300
6300
3600
3600
3600
3600
1C00
1C00
1C00
ENDCHAR
STARTCHAR W
ENCODING 87
SWIDTH 773 0
DWIDTH 13 0
BBX 13 12 0 0
BITMAP
C718
C718
C718
6530
6DB0
6DB0
6DB0
6DB0
28A0
38E0
38E0
38E0
ENDCHAR
STARTCHAR X
ENCODING 88
SWIDTH 546 0
DWIDTH 9 0
BBX 9 12 0 0
BITMAP
C180
6300
6300
3600
1C00
1C00
1C00
1C00
3600
6300
6300
C180
ENDCHAR
STARTCHAR Y
ENCODING 89
SWIDTH 546 0
DWIDTH 8 0
BBX 8 12 0 0
BITMAP
C3
66
66
3C
3C
3C
18
18
18
18
18
18
ENDCHAR
STARTCHAR Z
ENCODING 90
SWIDTH 500 0
DWIDTH 9 0
BBX 8 12 0 0
BITMAP
FF
FF
07
06
0C
18
38
30
60
C0
FF
FF
ENDCHAR
STARTCHAR bracketleft
ENCODING 91
SWIDTH 272 0
DWIDTH 5 0
BBX 3 15 2 -3
BITMAP
E0
E0
C0
C0
C0
C0
C0
C0
C0
C0
C0
C0
C0
E0
E0
ENDCHAR
STARTCHAR backslash
ENCODING 92
SWIDTH 228 0
DWIDTH 4 0
BBX 4 12 0 0
BITMAP
C0
C0
C0
60
60
60
60
60
60
30
30
30
ENDCHAR
STARTCHAR bracketright
ENCODING 93
SWIDTH 272 0
DWIDTH 5 0
BBX 3 15 0 -3
BITMAP
E0
E0
60
60
60
60
60
60
60
60
60
60
60
E0
E0
ENDCHAR
STARTCHAR asciicircum
ENCODING 94
SWIDTH 479 0
DWIDTH 8 0
BBX 7 7 1 5
BITMAP
38
38
6C
6C
6C
C6
C6
ENDCHAR
STARTCHAR underscore
ENCODING 95
SWIDTH 456 0
DWIDTH 8 0
BBX 8 1 0 -2
BITMAP
FF
ENDCHAR
STARTCHAR grave
ENCODING 96
SWIDTH 272 0
DWIDTH 5 0
BBX 3 2 1 10
BITMAP
C0
60
ENDCHAR
STARTCHAR a
ENCODING 97
SWIDTH 456 0
DWIDTH 8 0
BBX 6 9 1 0
BITMAP
78
FC
CC
1C
7C
CC
CC
FC
6C
ENDCHAR
STARTCHAR b
ENCODING 98
SWIDTH 500 0
DWIDTH 9 0
BBX 7 12 1 0
BITMAP
C0
C0
C0
D8
FC
E6
C6
C6
C6
E6
FC
DC
ENDCHAR
STARTCHAR c
ENCODING 99
SWIDTH 456 0
DWIDTH 8 0
BBX 6 9 1 0
BITMAP
38
7C
CC
C0
C0
C0
CC
7C
38
ENDCHAR
STARTCHAR d
ENCODING 100
SWIDTH 500 0
DWIDTH 9 0
BBX 7 12 1 0
BITMAP
06
06
06
36
7E
E6
C6
C6
C6
CE
7E
36
ENDCHAR
STARTCHAR e
ENCODING 101
SWIDTH 456 0
DWIDTH 8 0
BBX 6 9 1 0
BITMAP
78
FC
CC
FC
FC
C0
CC
FC
78
ENDCHAR
STARTCHAR f
ENCODING 102
SWIDTH 272 0
DWIDTH 5 0
BBX 4 12 1 0
BITMAP
30
70
60
F0
F0
60
60
60
60
60
60
60
ENDCHAR
STARTCHAR g
ENCODING 103
SWIDTH 500 0
DWIDTH 9 0
BBX 7 12 1 -3
BITMAP
36
7E
EE
C6
C6
C6
EE
7E
36
C6
FE
7C
ENDCHAR
STARTCHAR h
ENCODING 104
SWIDTH 500 0
DWIDTH 9 0
BBX 7 12 1 0
BITMAP
C0
C0
C0
DC
FE
E6
C6
C6
C6
C6
C6
C6
ENDCHAR
STARTCHAR i
ENCODING 105
SWIDTH 228 0
DWIDTH 4 0
BBX 2 12 1 0
BITMAP
C0
C0
00
C0
C0
C0
C0
C0
C0
C0
C0
C0
ENDCHAR
STARTCHAR j
ENCODING 106
SWIDTH 228 0
DWIDTH 4 0
BBX 4 15 -1 -3
BITMAP
30
30
00
30
30
30
30
30
30
30
30
30
30
F0
E0
ENDCHAR
STARTCHAR k
ENCODING 107
SWIDTH 456 0
DWIDTH 8 0
BBX 6 12 1 0
BITMAP
C0
C0
C0
CC
D8
D8
F0
F8
D8
CC
CC
CC
ENDCHAR
STARTCHAR l
ENCODING 108
SWIDTH 228 0
DWIDTH 4 0
BBX 2 12 1 0
BITMAP
C0
C0
C0
C0
C0
C0
C0
C0
C0
C0
C0
C0
ENDCHAR
STARTCHAR m
ENCODING 109
SWIDTH 729 0
DWIDTH 12 0
BBX 10 9 1 0
BITMAP
D980
FFC0
CCC0
CCC0
CCC0
CCC0
CCC0
CCC0
CCC0
ENDCHAR
STARTCHAR n
ENCODING 110
SWIDTH 500 0
DWIDTH 9 0
BBX 7 9 1 0
BITMAP
DC
FE
E6
C6
C6
C6
C6
C6
C6
ENDCHAR
STARTCHAR o
ENCODING 111
SWIDTH 500 0
DWIDTH 9 0
BBX 7 9 1 0
BITMAP
38
7C
EE
C6
C6
C6
EE
7C
38
ENDCHAR
STARTCHAR p
ENCODING 112
SWIDTH 500 0
DWIDTH 9 0
BBX 7 12 1 -3
BITMAP
D8
FC
EE
C6
C6
C6
E6
FC
D8
C0
C0
C0
ENDCHAR
STARTCHAR q
ENCODING 113
SWIDTH 500 0
DWIDTH 9 0
BBX 7 12 1 -3
BITMAP
76
7E
E6
C6
C6
C6
CE
7E
36
06
06
06
ENDCHAR
STARTCHAR r
ENCODING 114
SWIDTH 318 0
DWIDTH 6 0
BBX 5 9 1 0
BITMAP
F8
F8
C0
C0
C0
C0
C0
C0
C0
ENDCHAR
STARTCHAR s
ENCODING 115
SWIDTH 456 0
DWIDTH 8 0
BBX 6 9 1 0
BITMAP
78
FC
CC
E0
78
1C
CC
FC
78
ENDCHAR
STARTCHAR t
ENCODING 116
SWIDTH 272 0
DWIDTH 5 0
BBX 5 12 0 0
BITMAP
20
60
60
F8
F8
60
60
60
60
60
78
38
ENDCHAR
STARTCHAR u
ENCODING 117
SWIDTH 500 0
DWIDTH 9 0
BBX 7 9 1 0
BITMAP
C6
C6
C6
C6
C6
C6
CE
FE
76
ENDCHAR
STARTCHAR v
ENCODING 118
SWIDTH 456 0
DWIDTH 8 0
BBX 8 9 0 0
BITMAP
C3
C3
66
66
66
3C
3C
3C
18
ENDCHAR
STARTCHAR w
ENCODING 119
SWIDTH 638 0
DWIDTH 11 0
BBX 11 9 0 0
BITMAP
CE60
CE60
6EC0
6AC0
6AC0
2A80
3B80
3B80
3B80
ENDCHAR
STARTCHAR x
ENCODING 120
SWIDTH 456 0
DWIDTH 8 0
BBX 8 9 0 0
BITMAP
C3
66
3C
3C
18
3C
3C
66
C3
ENDCHAR
STARTCHAR y
ENCODING 121
SWIDTH 456 0
DWIDTH 8 0
BBX 8 12 0 -3
BITMAP
C3
C3
66
66
66
3C
3C
3C
18
18
F0
E0
ENDCHAR
STARTCHAR z
ENCODING 122
SWIDTH 410 0
DWIDTH 7 0
BBX 7 9 0 0
BITMAP
FE
FE
0C
18
30
30
60
FE
FE
ENDCHAR
STARTCHAR braceleft
ENCODING 123
SWIDTH 318 0
DWIDTH 5 0
BBX 4 15 1 -3
BITMAP
30
70
60
60
60
60
C0
C0
60
60
60
60
60
70
30
ENDCHAR
STARTCHAR bar
ENCODING 124
SWIDTH 229 0
DWIDTH 4 0
BBX 2 15 1 -3
BITMAP
C0
C0
C0
C0
C0
C0
C0
C0
C0
C0
C0
C0
C0
C0
C0
ENDCHAR
STARTCHAR braceright
ENCODING 125
SWIDTH 318 0
DWIDTH 5 0
BBX 4 15 0 -3
BITMAP
C0
E0
60
60
60
60
30
30
60
60
60
60
60
E0
C0
ENDCHAR
STARTCHAR asciitilde
ENCODING 126
SWIDTH 479 0
DWIDTH 8 0
BBX 6 3 1 5
BITMAP
E4
FC
9C
ENDCHAR
STARTCHAR nbspace
ENCODING 160
SWIDTH 456 0
DWIDTH 8 0
BBX 1 1 0 0
BITMAP
00
ENDCHAR
STARTCHAR exclamdown
ENCODING 161
SWIDTH 272 0
DWIDTH 5 0
BBX 2 12 1 -3
BITMAP
C0
C0
00
C0
C0
C0
C0
C0
C0
C0
C0
C0
ENDCHAR
STARTCHAR cent
ENCODING 162
SWIDTH 456 0
DWIDTH 8 0
BBX 7 15 1 -3
BITMAP
04
04
08
38
7C
CE
D0
D0
D6
E6
7C
78
20
40
40
ENDCHAR
STARTCHAR sterling
ENCODING 163
SWIDTH 456 0
DWIDTH 8 0
BBX 8 12 0 0
BITMAP
1C
7E
67
63
60
FC
FC
30
20
79
FF
8E
ENDCHAR
STARTCHAR currency
ENCODING 164
SWIDTH 456 0
DWIDTH 8 0
BBX 8 10 0 1
BITMAP
42
FF
7E
66
66
66
66
7E
FF
42
ENDCHAR
STARTCHAR yen
ENCODING 165
SWIDTH 456 0
DWIDTH 8 0
BBX 8 12 0 0
BITMAP
C3
66
66
3C
3C
FF
FF
18
FF
FF
18
18
ENDCHAR
STARTCHAR brokenbar
ENCODING 166
SWIDTH 229 0
DWIDTH 4 0
BBX 2 15 1 -3
BITMAP
C0
C0
C0
C0
C0
C0
C0
00
C0
C0
C0
C0
C0
C0
C0
ENDCHAR
STARTCHAR section
ENCODING 167
SWIDTH 456 0
DWIDTH 8 0
BBX 6 15 1 -3
BITMAP
78
FC
CC
C0
70
F8
CC
CC
CC
7C
38
0C
CC
FC
78
ENDCHAR
STARTCHAR dieresis
ENCODING 168
SWIDTH 272 0
DWIDTH 5 0
BBX 5 2 0 10
BITMAP
D8
D8
ENDCHAR
STARTCHAR copyright
ENCODING 169
SWIDTH 604 0
DWIDTH 10 0
BBX 10 12 0 0
BITMAP
1E00
2100
4080
CCC0
9240
9040
9040
9240
CCC0
4080
2100
1E00
ENDCHAR
STARTCHAR ordfeminine
ENCODING 170
SWIDTH 303 0
DWIDTH 5 0
BBX 4 6 0 6
BITMAP
E0
10
70
90
90
F0
ENDCHAR
STARTCHAR guillemotleft
ENCODING 171
SWIDTH 456 0
DWIDTH 8 0
BBX 7 7 1 1
BITMAP
36
6C
6C
D8
6C
6C
36
ENDCHAR
STARTCHAR logicalnot
ENCODING 172
SWIDTH 479 0
DWIDTH 8 0
BBX 6 6 1 3
BITMAP
FC
FC
0C
0C
0C
0C
ENDCHAR
STARTCHAR hyphen.dup1
ENCODING 173
SWIDTH 272 0
DWIDTH 5 0
BBX 4 2 0 3
BITMAP
F0
F0
ENDCHAR
STARTCHAR registered
ENCODING 174
SWIDTH 604 0
DWIDTH 10 0
BBX 10 12 0 0
BITMAP
1E00
2100
4080
DEC0
9240
9E40
9440
9640
D2C0
4080
2100
1E00
ENDCHAR
STARTCHAR overscore
ENCODING 175
SWIDTH 500 0
DWIDTH 9 0
BBX 9 1 0 13
BITMAP
FF80
ENDCHAR
STARTCHAR degree
ENCODING 176
SWIDTH 399 0
DWIDTH 7 0
BBX 5 5 1 7
BITMAP
70
88
88
88
70
ENDCHAR
STARTCHAR plusminus
ENCODING 177
SWIDTH 548 0
DWIDTH 9 0
BBX 8 11 0 0
BITMAP
18
18
18
FF
FF
18
18
18
00
FF
FF
ENDCHAR
STARTCHAR twosuperior
ENCODING 178
SWIDTH 272 0
DWIDTH 5 0
BBX 4 6 0 6
BITMAP
60
90
10
20
40
F0
ENDCHAR
STARTCHAR threesuperior
ENCODING 179
SWIDTH 272 0
DWIDTH 5 0
BBX 4 6 0 6
BITMAP
60
90
20
10
90
60
ENDCHAR
STARTCHAR acute
ENCODING 180
SWIDTH 272 0
DWIDTH 5 0
BBX 3 2 1 10
BITMAP
60
C0
ENDCHAR
STARTCHAR mu1
ENCODING 181
SWIDTH 576 0
DWIDTH 10 0
BBX 8 12 1 -3
BITMAP
C3
C3
C3
C3
C3
C3
E7
FF
DB
C0
C0
C0
ENDCHAR
STARTCHAR paragraph
ENCODING 182
SWIDTH 456 0
DWIDTH 8 0
BBX 8 15 0 -3
BITMAP
7F
FF
F6
F6
F6
F6
76
36
36
36
36
36
36
36
36
ENDCHAR
STARTCHAR middot
ENCODING 183
SWIDTH 272 0
DWIDTH 5 0
BBX 2 2 1 5
BITMAP
C0
C0
ENDCHAR
STARTCHAR cedilla
ENCODING 184
SWIDTH 272 0
DWIDTH 5 0
BBX 4 4 0 -4
BITMAP
70
10
10
E0
ENDCHAR
STARTCHAR onesuperior
ENCODING 185
SWIDTH 272 0
DWIDTH 5 0
BBX 2 6 1 6
BITMAP
40
C0
40
40
40
40
ENDCHAR
STARTCHAR ordmasculine
ENCODING 186
SWIDTH 298 0
DWIDTH 5 0
BBX 5 6 0 6
BITMAP
70
88
88
88
88
70
ENDCHAR
STARTCHAR guillemotright
ENCODING 187
SWIDTH 456 0
DWIDTH 8 0
BBX 7 7 1 1
BITMAP
D8
6C
6C
36
6C
6C
D8
ENDCHAR
STARTCHAR onequarter
ENCODING 188
SWIDTH 684 0
DWIDTH 12 0
BBX 10 12 1 0
BITMAP
4100
C200
4200
4600
4400
4400
08C0
08C0
1140
1340
23C0
2040
ENDCHAR
STARTCHAR onehalf
ENCODING 189
SWIDTH 684 0
DWIDTH 12 0
BBX 10 12 1 0
BITMAP
4100
C200
4200
4600
4400
4400
09C0
0B40
1040
10C0
2180
23C0
ENDCHAR
STARTCHAR threequarters
ENCODING 190
SWIDTH 684 0
DWIDTH 12 0
BBX 12 12 0 0
BITMAP
7080
5080
3100
1100
D200
7200
0460
0460
08A0
09A0
11F0
1020
ENDCHAR
ENDFONT
