STARTFONT 2.1
FONT -FontForge-Arial Rounded MT Bold-Book-R-Normal--33-240-100-100-P-183-ISO10646-1
SIZE 24 100 100
FONTBOUNDINGBOX 34 34 -2 -7
COMMENT "Generated by fontforge, http://fontforge.sourceforge.net"
COMMENT "Copyright (c) 1993 , Monotype Typography ltd."
STARTPROPERTIES 40
FOUNDRY "FontForge"
FAMILY_NAME "Arial Rounded MT Bold"
WEIGHT_NAME "Book"
SLANT "R"
SETWIDTH_NAME "Normal"
ADD_STYLE_NAME ""
PIXEL_SIZE 33
POINT_SIZE 240
RESOLUTION_X 100
RESOLUTION_Y 100
SPACING "P"
AVERAGE_WIDTH 183
CHARSET_REGISTRY "ISO10646"
CHARSET_ENCODING "1"
FONTNAME_REGISTRY ""
CHARSET_COLLECTIONS "ISO10646-1"
FONT_NAME "ArialRoundedMTBold"
FACE_NAME "Arial Rounded MT Bold"
COPYRIGHT "Copyright (c) 1993 , Monotype Typography ltd."
FONT_VERSION "1.51"
FONT_ASCENT 26
FONT_DESCENT 7
UNDERLINE_POSITION -4
UNDERLINE_THICKNESS 2
X_HEIGHT 16
CAP_HEIGHT 23
RAW_ASCENT 799
RAW_DESCENT 200
NORM_SPACE 8
RELATIVE_WEIGHT 40
RELATIVE_SETWIDTH 50
SUPERSCRIPT_X 0
SUPERSCRIPT_Y 7
SUPERSCRIPT_SIZE 21
SUBSCRIPT_X 0
SUBSCRIPT_Y 2
SUBSCRIPT_SIZE 21
FIGURE_WIDTH 20
AVG_LOWERCASE_WIDTH 180
AVG_UPPERCASE_WIDTH 229
ENDPROPERTIES
CHARS 107
STARTCHAR space
ENCODING 32
SWIDTH 250 0
DWIDTH 8 0
BBX 1 1 0 0
BITMAP
00
ENDCHAR
STARTCHAR exclam
ENCODING 33
SWIDTH 333 0
DWIDTH 11 0
BBX 5 24 3 0
BITMAP
70
F8
F8
F8
F8
F8
F8
F8
F8
F8
F0
70
70
70
70
70
00
00
00
70
F8
F8
F8
70
ENDCHAR
STARTCHAR quotedbl
ENCODING 34
SWIDTH 479 0
DWIDTH 16 0
BBX 12 8 2 15
BITMAP
F9F0
F9F0
F9F0
F9F0
F9F0
F9F0
78F0
70E0
ENDCHAR
STARTCHAR numbersign
ENCODING 35
SWIDTH 551 0
DWIDTH 18 0
BBX 17 24 1 0
BITMAP
030600
078F00
078F00
078E00
070E00
070E00
0F1E00
FFFF80
FFFF80
FFFF80
0E1C00
1E3C00
1E3C00
1E3800
1C3800
FFFF80
FFFF80
FFFF80
3C7000
387000
387000
78F000
78F000
306000
ENDCHAR
STARTCHAR dollar
ENCODING 36
SWIDTH 594 0
DWIDTH 20 0
BBX 17 33 1 -6
BITMAP
00C000
00C000
00C000
03F000
0FFC00
3FFE00
3EDE00
78CF00
78CF00
78CF00
78C700
7EC000
3FC000
3FF000
1FFC00
07FE00
00FF00
00DF80
00CF80
70C780
F8C780
F8C780
7CCF80
7EDF00
3FFE00
1FFC00
0FF800
00C000
00C000
00C000
00C000
00C000
00C000
ENDCHAR
STARTCHAR percent
ENCODING 37
SWIDTH 854 0
DWIDTH 28 0
BBX 26 25 1 -1
BITMAP
1E001800
7F003800
73803000
E1C07000
E1C0E000
E1C0C000
E1C1C000
E1C18000
E1C38000
E1C70000
73860000
3F8E0000
1E0C1C00
001C7F80
00387380
0030E1C0
0070E1C0
0060E1C0
00E0E1C0
01C0E1C0
0180E1C0
03807380
03007F80
07001E00
02000000
ENDCHAR
STARTCHAR ampersand
ENCODING 38
SWIDTH 759 0
DWIDTH 25 0
BBX 22 24 2 0
BITMAP
01F000
07FC00
0FFE00
1F1F00
1E0F00
1E0F00
1E0F00
1F1E00
0FFE00
0FFC00
07F000
0FE000
3FF070
7EF8F0
78FCF0
F07FF0
F03FE0
F01FE0
F00FC0
F80FF0
7C3FF8
3FFEFC
1FFC7C
07F038
ENDCHAR
STARTCHAR quotesingle
ENCODING 39
SWIDTH 240 0
DWIDTH 8 0
BBX 5 8 1 15
BITMAP
F8
F8
F8
F8
F8
F8
78
70
ENDCHAR
STARTCHAR parenleft
ENCODING 40
SWIDTH 354 0
DWIDTH 12 0
BBX 8 31 2 -7
BITMAP
07
0E
0E
1E
1C
3C
38
78
78
78
F0
F0
F0
F0
F0
F0
F0
F0
F0
F0
F0
78
78
78
38
3C
1C
1E
0E
0E
07
ENDCHAR
STARTCHAR parenright
ENCODING 41
SWIDTH 354 0
DWIDTH 12 0
BBX 8 31 2 -7
BITMAP
E0
70
70
78
38
3C
1C
1E
1E
1E
0E
0F
0F
0F
0F
0F
0F
0F
0F
0F
0E
1E
1E
1E
1C
3C
38
78
70
70
E0
ENDCHAR
STARTCHAR asterisk
ENCODING 42
SWIDTH 437 0
DWIDTH 14 0
BBX 13 12 1 13
BITMAP
0700
0700
0700
C718
F778
FFF8
1FC0
0F80
1DC0
3DE0
38E0
3060
ENDCHAR
STARTCHAR plus
ENCODING 43
SWIDTH 583 0
DWIDTH 19 0
BBX 16 17 2 3
BITMAP
03C0
03C0
03C0
03C0
03C0
03C0
FFFF
FFFF
FFFF
FFFF
03C0
03C0
03C0
03C0
03C0
03C0
03C0
ENDCHAR
STARTCHAR comma
ENCODING 44
SWIDTH 312 0
DWIDTH 10 0
BBX 5 9 3 -5
BITMAP
70
F8
F8
F8
38
38
70
F0
C0
ENDCHAR
STARTCHAR hyphen
ENCODING 45
SWIDTH 333 0
DWIDTH 11 0
BBX 10 4 1 7
BITMAP
7F80
FFC0
FFC0
7F80
ENDCHAR
STARTCHAR period
ENCODING 46
SWIDTH 312 0
DWIDTH 10 0
BBX 5 5 3 0
BITMAP
70
F8
F8
F8
70
ENDCHAR
STARTCHAR slash
ENCODING 47
SWIDTH 280 0
DWIDTH 9 0
BBX 8 24 1 0
BITMAP
07
07
07
0F
0E
0E
0E
1E
1C
1C
1C
3C
3C
38
38
38
78
70
70
70
F0
E0
E0
E0
ENDCHAR
STARTCHAR zero
ENCODING 48
SWIDTH 594 0
DWIDTH 20 0
BBX 16 24 2 0
BITMAP
07E0
1FF0
3FF8
7C3C
781E
781E
F00E
F00F
F00F
F00F
F00F
F00F
F00F
F00F
F00F
F00F
F00F
F01F
781E
781E
3C3E
3FFC
1FF8
07E0
ENDCHAR
STARTCHAR one
ENCODING 49
SWIDTH 594 0
DWIDTH 20 0
BBX 11 24 3 0
BITMAP
00C0
01E0
01E0
03E0
07E0
1FE0
7FE0
FDE0
F9E0
E1E0
01E0
01E0
01E0
01E0
01E0
01E0
01E0
01E0
01E0
01E0
01E0
01E0
01E0
00C0
ENDCHAR
STARTCHAR two
ENCODING 50
SWIDTH 594 0
DWIDTH 20 0
BBX 16 24 2 0
BITMAP
07F0
1FFC
3FFE
7C3E
781F
F80F
F00F
700F
400F
001E
003E
007C
00F8
01F0
03E0
07C0
0F80
1F00
3E00
7C00
7FFF
FFFF
FFFF
7FFF
ENDCHAR
STARTCHAR three
ENCODING 51
SWIDTH 594 0
DWIDTH 20 0
BBX 16 23 2 0
BITMAP
07E0
1FF8
3FFC
7C3E
781E
701E
201E
001E
007C
07F8
0FF8
07FC
003E
001F
000F
E00F
F00F
F00F
F81E
7C3E
3FFC
1FF8
07E0
ENDCHAR
STARTCHAR four
ENCODING 52
SWIDTH 594 0
DWIDTH 20 0
BBX 18 24 1 0
BITMAP
001C00
003E00
003E00
007E00
00FE00
01FE00
01FE00
03DE00
079E00
0F9E00
0F1E00
1E1E00
3E1E00
7C1E00
781E00
F01E00
FFFFC0
FFFFC0
7FFFC0
001E00
001E00
001E00
001E00
000C00
ENDCHAR
STARTCHAR five
ENCODING 53
SWIDTH 594 0
DWIDTH 20 0
BBX 16 23 2 0
BITMAP
1FFE
3FFE
3FFE
3FFE
3800
7800
7800
7BE0
7FF8
7FFC
FC3E
701E
000F
000F
000F
600F
E00F
F01F
F81E
7C3E
7FFC
3FF8
0FE0
ENDCHAR
STARTCHAR six
ENCODING 54
SWIDTH 594 0
DWIDTH 20 0
BBX 17 24 1 0
BITMAP
03F000
0FFC00
1FFE00
3F1F00
3C0F00
7C0F00
780700
780000
F80000
F9F800
FBFC00
FFFE00
FE1F00
FC0F00
F80780
F80780
F80780
780780
780780
7C0F00
3E1F00
1FFE00
0FFC00
03F000
ENDCHAR
STARTCHAR seven
ENCODING 55
SWIDTH 594 0
DWIDTH 20 0
BBX 16 23 3 0
BITMAP
FFFE
FFFF
FFFF
7FFE
001E
003C
0078
00F0
00F0
01E0
01E0
03C0
03C0
07C0
0780
0780
0F80
0F80
0F00
1F00
1F00
0F00
0E00
ENDCHAR
STARTCHAR eight
ENCODING 56
SWIDTH 594 0
DWIDTH 20 0
BBX 16 24 2 0
BITMAP
07E0
1FF8
3FFC
3C3E
781E
781E
781E
781E
781E
7C3C
3FFC
1FF8
3FFC
7C3E
F81F
F00F
F00F
F00F
F00F
F81F
7C3E
3FFC
1FF8
07E0
ENDCHAR
STARTCHAR nine
ENCODING 57
SWIDTH 594 0
DWIDTH 20 0
BBX 17 24 1 0
BITMAP
07E000
1FF800
3FFC00
7C3E00
781F00
F01F00
F00F00
F00F80
F00F80
F00F80
F00F80
781F80
7C3F80
3FFF80
1FEF80
07CF80
000F00
000F00
701F00
781E00
7C3E00
3FFC00
1FF800
07E000
ENDCHAR
STARTCHAR colon
ENCODING 58
SWIDTH 312 0
DWIDTH 10 0
BBX 5 17 3 0
BITMAP
70
F8
F8
F8
70
00
00
00
00
00
00
00
70
F8
F8
F8
70
ENDCHAR
STARTCHAR semicolon
ENCODING 59
SWIDTH 312 0
DWIDTH 10 0
BBX 5 22 3 -5
BITMAP
70
F8
F8
F8
70
00
00
00
00
00
00
00
00
70
F8
F8
F8
38
38
70
E0
C0
ENDCHAR
STARTCHAR less
ENCODING 60
SWIDTH 583 0
DWIDTH 19 0
BBX 16 18 2 3
BITMAP
0001
0007
003F
00FF
03FF
1FFC
7FE0
FF80
FC00
FC00
FF80
7FE0
1FFC
03FF
00FF
003F
0007
0001
ENDCHAR
STARTCHAR equal
ENCODING 61
SWIDTH 583 0
DWIDTH 19 0
BBX 16 11 2 6
BITMAP
FFFF
FFFF
FFFF
FFFF
0000
0000
0000
FFFF
FFFF
FFFF
FFFF
ENDCHAR
STARTCHAR greater
ENCODING 62
SWIDTH 583 0
DWIDTH 19 0
BBX 16 18 2 3
BITMAP
8000
E000
FC00
FF00
FFC0
3FF8
07FE
01FF
003F
003F
01FF
07FE
3FF0
FFC0
FF00
FC00
E000
8000
ENDCHAR
STARTCHAR question
ENCODING 63
SWIDTH 573 0
DWIDTH 19 0
BBX 16 24 1 0
BITMAP
07F0
1FFC
3FFE
7E1E
7C0F
780F
F80F
700F
001F
003E
007C
00F8
01F0
01E0
03E0
03C0
01C0
0100
0000
01C0
03E0
03E0
03E0
01C0
ENDCHAR
STARTCHAR at
ENCODING 64
SWIDTH 979 0
DWIDTH 32 0
BBX 31 31 1 -7
BITMAP
000FF800
007FFE00
01FFFF80
03F00FC0
07C003E0
0F0000F0
1E000078
3C0F9E38
383FDE38
787FFE1C
70F87E1C
70F07C1C
F1E03C1C
E1E03C1C
E3C03C1C
E3C03C3C
E3C07838
E3C07838
E3C07870
E3C0F8F0
F1E1F9E0
71FFFFC0
70FFFF80
387E7E00
3C00001E
1E00003C
0F8000F8
07E007F0
03FFFFE0
00FFFF80
000FFC00
ENDCHAR
STARTCHAR A
ENCODING 65
SWIDTH 719 0
DWIDTH 24 0
BBX 22 24 1 0
BITMAP
007800
00FC00
00FC00
01FE00
01FE00
03FF00
03DF00
03CF00
07CF80
078F80
0F87C0
0F87C0
1F03C0
1F03E0
1F03E0
3FFFF0
3FFFF0
7FFFF8
7C00F8
7C00F8
F8007C
F8007C
F0003C
700038
ENDCHAR
STARTCHAR B
ENCODING 66
SWIDTH 719 0
DWIDTH 24 0
BBX 20 23 2 0
BITMAP
7FFE00
FFFF80
FFFFC0
F80FC0
F803E0
F803E0
F803E0
F803C0
F80FC0
FFFF80
FFFF00
FFFFC0
F807E0
F803E0
F801F0
F801F0
F801F0
F801F0
F803F0
F807E0
FFFFE0
FFFF80
7FFE00
ENDCHAR
STARTCHAR C
ENCODING 67
SWIDTH 740 0
DWIDTH 24 0
BBX 21 24 2 0
BITMAP
00FE00
03FF80
0FFFE0
1FFFF0
3F83F0
3E01F8
7C00F8
7C0078
F80038
F80000
F80000
F80000
F80000
F80000
F80030
F80078
7C0078
7C00F8
3E01F8
3F83F0
1FFFE0
0FFFE0
07FF80
00FE00
ENDCHAR
STARTCHAR D
ENCODING 68
SWIDTH 740 0
DWIDTH 24 0
BBX 21 23 2 0
BITMAP
7FFC00
FFFF00
FFFF80
FFFFC0
F80FE0
F803F0
F801F0
F801F8
F800F8
F800F8
F800F8
F800F8
F800F8
F800F8
F800F8
F801F8
F801F0
F803F0
F807E0
FFFFC0
FFFF80
FFFF00
7FFC00
ENDCHAR
STARTCHAR E
ENCODING 69
SWIDTH 666 0
DWIDTH 22 0
BBX 18 23 2 0
BITMAP
7FFFC0
FFFFC0
FFFFC0
F80000
F80000
F80000
F80000
F80000
F80000
FFFF80
FFFF80
FFFF80
F80000
F80000
F80000
F80000
F80000
F80000
F80000
FFFFC0
FFFFC0
FFFFC0
7FFFC0
ENDCHAR
STARTCHAR F
ENCODING 70
SWIDTH 604 0
DWIDTH 20 0
BBX 17 23 2 0
BITMAP
7FFF00
FFFF80
FFFF00
F80000
F80000
F80000
F80000
F80000
F80000
FFFE00
FFFE00
FFFE00
F80000
F80000
F80000
F80000
F80000
F80000
F80000
F80000
F80000
F80000
700000
ENDCHAR
STARTCHAR G
ENCODING 71
SWIDTH 791 0
DWIDTH 26 0
BBX 22 24 2 0
BITMAP
00FF00
07FFC0
0FFFE0
1F83F0
3F00F8
7E0078
7C0078
7C0038
F80010
F80000
F80000
F80000
F80FF8
F80FFC
F80FFC
F8003C
7C003C
7C003C
7E003C
3F007C
1F81FC
0FFFF8
07FFE0
00FF00
ENDCHAR
STARTCHAR H
ENCODING 72
SWIDTH 759 0
DWIDTH 25 0
BBX 21 24 2 0
BITMAP
700070
F800F8
F800F8
F800F8
F800F8
F800F8
F800F8
F800F8
F800F8
F800F8
FFFFF8
FFFFF8
FFFFF8
FFFFF8
F800F8
F800F8
F800F8
F800F8
F800F8
F800F8
F800F8
F800F8
F800F8
700070
ENDCHAR
STARTCHAR I
ENCODING 73
SWIDTH 312 0
DWIDTH 10 0
BBX 5 24 3 0
BITMAP
70
F8
F8
F8
F8
F8
F8
F8
F8
F8
F8
F8
F8
F8
F8
F8
F8
F8
F8
F8
F8
F8
F8
70
ENDCHAR
STARTCHAR J
ENCODING 74
SWIDTH 573 0
DWIDTH 19 0
BBX 16 24 0 0
BITMAP
000E
001F
001F
001F
001F
001F
001F
001F
001F
001F
001F
001F
001F
001F
001F
701F
F01F
F81F
F83F
7C3E
7FFE
3FFC
1FF8
07E0
ENDCHAR
STARTCHAR K
ENCODING 75
SWIDTH 740 0
DWIDTH 24 0
BBX 20 24 2 0
BITMAP
7001C0
F803E0
F807E0
F80FE0
F81FC0
F83F80
F87E00
F8FC00
F9F800
FBF000
FFF800
FFFC00
FFFC00
FF7E00
FE3F00
FC1F00
F81F80
F80FC0
F807E0
F807E0
F803F0
F801F0
F801F0
7000F0
ENDCHAR
STARTCHAR L
ENCODING 76
SWIDTH 604 0
DWIDTH 20 0
BBX 17 24 2 0
BITMAP
700000
F80000
F80000
F80000
F80000
F80000
F80000
F80000
F80000
F80000
F80000
F80000
F80000
F80000
F80000
F80000
F80000
F80000
F80000
F80000
FFFF00
FFFF80
FFFF80
7FFF00
ENDCHAR
STARTCHAR M
ENCODING 77
SWIDTH 833 0
DWIDTH 27 0
BBX 22 23 3 0
BITMAP
7E01F8
FE01FC
FE03FC
FF03FC
FF03FC
FF03FC
F787BC
F787BC
F787BC
F78FBC
F3CF3C
F3CF3C
F3CF3C
F3FF3C
F1FE3C
F1FE3C
F1FE3C
F1FE3C
F0FC3C
F0FC3C
F0FC3C
F0783C
607818
ENDCHAR
STARTCHAR N
ENCODING 78
SWIDTH 759 0
DWIDTH 25 0
BBX 19 24 3 0
BITMAP
7000C0
F801E0
F801E0
FC01E0
FE01E0
FE01E0
FF01E0
FF81E0
FF81E0
F7C1E0
F3E1E0
F3E1E0
F1F1E0
F0F9E0
F0F9E0
F07DE0
F03FE0
F03FE0
F01FE0
F00FE0
F007E0
F007E0
F003E0
6001C0
ENDCHAR
STARTCHAR O
ENCODING 79
SWIDTH 791 0
DWIDTH 26 0
BBX 24 24 1 0
BITMAP
00FF00
07FFE0
0FFFF0
1FFFF8
3F81FC
7F00FE
7E007E
7C003E
FC003F
F8001F
F8001F
F8001F
F8001F
F8001F
F8001F
FC003F
7C003E
7E007E
7F00FC
3F81FC
1FFFF8
0FFFF0
07FFE0
00FF00
ENDCHAR
STARTCHAR P
ENCODING 80
SWIDTH 666 0
DWIDTH 22 0
BBX 19 23 2 0
BITMAP
7FFE00
FFFF80
FFFFC0
F80FC0
F807E0
F803E0
F803E0
F803E0
F807E0
F80FC0
FFFFC0
FFFF00
FFFC00
F80000
F80000
F80000
F80000
F80000
F80000
F80000
F80000
F80000
700000
ENDCHAR
STARTCHAR Q
ENCODING 81
SWIDTH 791 0
DWIDTH 26 0
BBX 25 26 1 -2
BITMAP
00FF0000
07FFE000
0FFFF000
1FFFF800
3F81FC00
7F00FE00
7E007E00
7C003E00
FC003F00
F8001F00
F8001F00
F8001F00
F8001F00
F8001F00
F8001F00
FC003F00
7C1E3E00
7E3F7E00
3F07FC00
3F83FC00
1FFFF800
0FFFFC00
07FFFF00
00FF1F80
00000780
00000180
ENDCHAR
STARTCHAR R
ENCODING 82
SWIDTH 719 0
DWIDTH 24 0
BBX 20 23 2 0
BITMAP
7FFF00
FFFFC0
FFFFE0
F807E0
F803F0
F801F0
F801F0
F801F0
F803F0
F807E0
FFFFC0
FFFF80
FFFC00
F87E00
F81F00
F81F80
F80FC0
F807E0
F803E0
F803F0
F801F0
F801F0
7000F0
ENDCHAR
STARTCHAR S
ENCODING 83
SWIDTH 666 0
DWIDTH 22 0
BBX 18 24 2 0
BITMAP
07F000
1FFE00
3FFF00
7C1F80
F80F80
F00780
F00380
F80100
FE0000
7FE000
7FFC00
1FFE00
07FF80
00FF80
000FC0
4007C0
E003C0
F003C0
F003C0
F80780
7C0F80
7FFF00
3FFE00
07F000
ENDCHAR
STARTCHAR T
ENCODING 84
SWIDTH 625 0
DWIDTH 21 0
BBX 21 23 0 0
BITMAP
7FFFF0
FFFFF8
FFFFF8
7FFFF0
00F800
00F800
00F800
00F800
00F800
00F800
00F800
00F800
00F800
00F800
00F800
00F800
00F800
00F800
00F800
00F800
00F800
00F800
007000
ENDCHAR
STARTCHAR U
ENCODING 85
SWIDTH 759 0
DWIDTH 25 0
BBX 21 24 2 0
BITMAP
700070
F800F8
F800F8
F800F8
F800F8
F800F8
F800F8
F800F8
F800F8
F800F8
F800F8
F800F8
F800F8
F800F8
F800F8
F800F8
F800F8
FC01F8
7C01F0
7F07F0
3FFFE0
3FFFC0
0FFF80
03FE00
ENDCHAR
STARTCHAR V
ENCODING 86
SWIDTH 687 0
DWIDTH 23 0
BBX 20 24 1 0
BITMAP
7000E0
F000F0
F801F0
F801F0
7801E0
7C03E0
7C03E0
3C03C0
3E07C0
3E07C0
1E0780
1F0F80
1F0F00
0F0F00
0F8F00
079E00
079E00
07DE00
03FC00
03FC00
03FC00
01F800
01F800
00F000
ENDCHAR
STARTCHAR W
ENCODING 87
SWIDTH 937 0
DWIDTH 31 0
BBX 30 24 0 0
BITMAP
70078038
F00FC03C
F80FC07C
F80FC07C
F81FE07C
781FE078
7C1FE0F8
7C1FE0F8
7C3CF0F8
3C3CF0F0
3C3CF0F0
3E7C79F0
3E7879F0
1E7879E0
1E7879E0
1FF03FE0
1FF03FE0
0FF03FC0
0FF03FC0
0FE01FC0
0FE01FC0
07E01F80
07C00F80
03800700
ENDCHAR
STARTCHAR X
ENCODING 88
SWIDTH 604 0
DWIDTH 20 0
BBX 18 24 1 0
BITMAP
700380
7807C0
7C0780
7C0F80
3E1F00
3F1F00
1F3E00
0FFC00
0FFC00
07F800
03F000
03F000
07F800
07F800
0FFC00
1FFE00
1F3E00
3E1F00
7E1F00
7C0F80
FC0FC0
F807C0
F003C0
600380
ENDCHAR
STARTCHAR Y
ENCODING 89
SWIDTH 625 0
DWIDTH 21 0
BBX 19 24 1 0
BITMAP
6000E0
F001E0
F803E0
FC03E0
7C07C0
3E0F80
3E0F80
1F1F00
0F9F00
0FBE00
07FC00
03FC00
03F800
01F000
01F000
01F000
01F000
01F000
01F000
01F000
01F000
01F000
01F000
00E000
ENDCHAR
STARTCHAR Z
ENCODING 90
SWIDTH 645 0
DWIDTH 21 0
BBX 20 23 1 0
BITMAP
3FFFC0
7FFFE0
3FFFE0
0007E0
000FC0
001F80
001F00
003F00
007E00
00FC00
00F800
01F000
03F000
07E000
0FC000
0F8000
1F8000
3F0000
7E0000
FC0000
FFFFF0
FFFFF0
7FFFF0
ENDCHAR
STARTCHAR bracketleft
ENCODING 91
SWIDTH 354 0
DWIDTH 12 0
BBX 9 30 2 -6
BITMAP
7F00
FF80
FF00
F000
F000
F000
F000
F000
F000
F000
F000
F000
F000
F000
F000
F000
F000
F000
F000
F000
F000
F000
F000
F000
F000
F000
F000
FF00
FF80
7F00
ENDCHAR
STARTCHAR backslash
ENCODING 92
SWIDTH 280 0
DWIDTH 9 0
BBX 9 24 0 0
BITMAP
6000
F000
7000
7000
7000
7800
3800
3800
3800
3C00
1C00
1C00
1C00
1E00
0E00
0E00
0E00
0F00
0700
0700
0700
0780
0380
0380
ENDCHAR
STARTCHAR bracketright
ENCODING 93
SWIDTH 354 0
DWIDTH 12 0
BBX 9 30 0 -6
BITMAP
7F00
FF80
7F80
0780
0780
0780
0780
0780
0780
0780
0780
0780
0780
0780
0780
0780
0780
0780
0780
0780
0780
0780
0780
0780
0780
0780
0780
7F80
FF80
7F00
ENDCHAR
STARTCHAR asciicircum
ENCODING 94
SWIDTH 583 0
DWIDTH 19 0
BBX 15 13 2 11
BITMAP
03C0
07C0
07E0
0FE0
0FF0
1EF0
1EF0
3E78
3C78
7C7C
783C
783E
F81E
ENDCHAR
STARTCHAR underscore
ENCODING 95
SWIDTH 500 0
DWIDTH 17 0
BBX 17 2 0 -4
BITMAP
FFFF80
FFFF80
ENDCHAR
STARTCHAR grave
ENCODING 96
SWIDTH 333 0
DWIDTH 11 0
BBX 7 4 1 20
BITMAP
F8
3C
1C
0E
ENDCHAR
STARTCHAR a
ENCODING 97
SWIDTH 594 0
DWIDTH 20 0
BBX 16 17 2 0
BITMAP
0FF0
3FFC
7FFC
783E
701E
701E
007E
03FE
3FFE
7F9E
F81E
F01E
F03E
F87E
7FFF
7FCF
1F06
ENDCHAR
STARTCHAR b
ENCODING 98
SWIDTH 625 0
DWIDTH 21 0
BBX 17 24 2 0
BITMAP
600000
F00000
F00000
F00000
F00000
F00000
F00000
F1F000
F7FC00
FFFE00
FE1F00
F80F00
F80F80
F00780
F00780
F00780
F00780
F00780
F80F80
F80F00
FE1F00
FFFE00
F7FC00
61F000
ENDCHAR
STARTCHAR c
ENCODING 99
SWIDTH 594 0
DWIDTH 20 0
BBX 16 17 2 0
BITMAP
07F0
1FFC
3FFE
7C3F
780F
F80F
F006
F000
F000
F000
F007
F80F
780F
7C3F
3FFE
1FFC
07F0
ENDCHAR
STARTCHAR d
ENCODING 100
SWIDTH 625 0
DWIDTH 21 0
BBX 17 24 1 0
BITMAP
000300
000780
000780
000780
000780
000780
000780
0FC780
1FF780
3FFF80
7C3F80
781F80
F80F80
F00F80
F00780
F00780
F00780
F00780
F80F80
780F80
7C3F80
3FFF80
1FF780
07C300
ENDCHAR
STARTCHAR e
ENCODING 101
SWIDTH 594 0
DWIDTH 20 0
BBX 16 17 2 0
BITMAP
07E0
1FF8
3FFC
7C3E
781F
F00F
F00F
FFFF
FFFF
FFFE
F000
F002
780F
7C1F
3FFE
1FFC
07F0
ENDCHAR
STARTCHAR f
ENCODING 102
SWIDTH 333 0
DWIDTH 11 0
BBX 12 24 0 0
BITMAP
07E0
0FF0
1FF0
1F00
1E00
1E00
1E00
FFC0
FFE0
FFC0
1E00
1E00
1E00
1E00
1E00
1E00
1E00
1E00
1E00
1E00
1E00
1E00
1E00
0C00
ENDCHAR
STARTCHAR g
ENCODING 103
SWIDTH 625 0
DWIDTH 21 0
BBX 16 24 2 -7
BITMAP
0F86
1FEF
3FFF
7C3F
781F
F01F
F00F
F00F
F00F
F00F
F00F
F01F
781F
7C3F
3FFF
1FEF
0F8F
600F
700F
701F
7C3E
7FFE
1FFC
0FF0
ENDCHAR
STARTCHAR h
ENCODING 104
SWIDTH 604 0
DWIDTH 20 0
BBX 16 24 2 0
BITMAP
6000
F000
F000
F000
F000
F000
F000
F1F8
F7FC
FFFE
FC1F
F81F
F00F
F00F
F00F
F00F
F00F
F00F
F00F
F00F
F00F
F00F
F00F
6006
ENDCHAR
STARTCHAR i
ENCODING 105
SWIDTH 270 0
DWIDTH 9 0
BBX 4 24 2 0
BITMAP
60
F0
F0
60
00
00
00
60
F0
F0
F0
F0
F0
F0
F0
F0
F0
F0
F0
F0
F0
F0
F0
60
ENDCHAR
STARTCHAR j
ENCODING 106
SWIDTH 270 0
DWIDTH 9 0
BBX 9 31 -2 -7
BITMAP
0300
0780
0780
0300
0000
0000
0000
0380
0780
0780
0780
0780
0780
0780
0780
0780
0780
0780
0780
0780
0780
0780
0780
0780
0780
0780
0780
7F80
FF00
FF00
3E00
ENDCHAR
STARTCHAR k
ENCODING 107
SWIDTH 573 0
DWIDTH 19 0
BBX 15 24 3 0
BITMAP
6000
F000
F000
F000
F000
F000
F000
F038
F078
F0F8
F1F0
F3E0
F7C0
FF80
FFC0
FFE0
FDE0
F9F0
F0F8
F07C
F07C
F03E
F01E
601C
ENDCHAR
STARTCHAR l
ENCODING 108
SWIDTH 270 0
DWIDTH 9 0
BBX 4 24 2 0
BITMAP
60
F0
F0
F0
F0
F0
F0
F0
F0
F0
F0
F0
F0
F0
F0
F0
F0
F0
F0
F0
F0
F0
F0
60
ENDCHAR
STARTCHAR m
ENCODING 109
SWIDTH 884 0
DWIDTH 29 0
BBX 25 17 2 0
BITMAP
61F07C00
F7FDFF00
FFFFFF80
FC3F8F80
F81F0780
F01E0780
F01E0780
F01E0780
F01E0780
F01E0780
F01E0780
F01E0780
F01E0780
F01E0780
F01E0780
F01E0780
600C0300
ENDCHAR
STARTCHAR n
ENCODING 110
SWIDTH 604 0
DWIDTH 20 0
BBX 16 17 2 0
BITMAP
61F8
F7FE
FFFE
FC1F
F81F
F00F
F00F
F00F
F00F
F00F
F00F
F00F
F00F
F00F
F00F
F00F
6006
ENDCHAR
STARTCHAR o
ENCODING 111
SWIDTH 604 0
DWIDTH 20 0
BBX 18 17 1 0
BITMAP
03F000
1FFC00
3FFF00
7E1F80
780780
F807C0
F003C0
F003C0
F003C0
F003C0
F003C0
F807C0
780780
7E1F80
3FFF00
1FFC00
03F000
ENDCHAR
STARTCHAR p
ENCODING 112
SWIDTH 625 0
DWIDTH 21 0
BBX 17 24 2 -7
BITMAP
61F000
F7FC00
FFFE00
FE1F00
F80F00
F80F80
F00780
F00780
F00780
F00780
F00780
F80F80
F80F00
FE1F00
FFFE00
F7FC00
F1F000
F00000
F00000
F00000
F00000
F00000
F00000
600000
ENDCHAR
STARTCHAR q
ENCODING 113
SWIDTH 625 0
DWIDTH 21 0
BBX 16 24 2 -7
BITMAP
0F86
1FEF
3FFF
7C3F
781F
F81F
F00F
F00F
F00F
F00F
F00F
F81F
781F
7C3F
3FFF
1FEF
0F8F
000F
000F
000F
000F
000F
000F
0006
ENDCHAR
STARTCHAR r
ENCODING 114
SWIDTH 437 0
DWIDTH 14 0
BBX 12 17 2 0
BITMAP
63C0
F7E0
FFF0
FFF0
FC40
F800
F000
F000
F000
F000
F000
F000
F000
F000
F000
F000
6000
ENDCHAR
STARTCHAR s
ENCODING 115
SWIDTH 541 0
DWIDTH 18 0
BBX 14 17 2 0
BITMAP
1FC0
3FF0
7FF8
F8F8
F078
F038
FE00
7FC0
1FF0
07F8
007C
E03C
F03C
F87C
7FF8
3FF0
1FC0
ENDCHAR
STARTCHAR t
ENCODING 116
SWIDTH 354 0
DWIDTH 12 0
BBX 12 23 0 0
BITMAP
0C00
1E00
1E00
1E00
1E00
1E00
7FC0
FFE0
7FC0
1E00
1E00
1E00
1E00
1E00
1E00
1E00
1E00
1E00
1E00
1E00
1FF0
0FF0
07E0
ENDCHAR
STARTCHAR u
ENCODING 117
SWIDTH 604 0
DWIDTH 20 0
BBX 16 17 2 0
BITMAP
6006
F00F
F00F
F00F
F00F
F00F
F00F
F00F
F00F
F00F
F00F
F00F
F81F
FC3F
7FFF
7FEF
1F86
ENDCHAR
STARTCHAR v
ENCODING 118
SWIDTH 541 0
DWIDTH 18 0
BBX 16 17 1 0
BITMAP
6006
F00F
F00F
F81E
781E
7C3E
3C3C
3C3C
1E78
1E78
1E78
0FF0
0FF0
07E0
07E0
03C0
03C0
ENDCHAR
STARTCHAR w
ENCODING 119
SWIDTH 812 0
DWIDTH 27 0
BBX 25 17 1 0
BITMAP
601C0300
F03E0780
F03E0780
F03E0780
787F0F00
78770F00
38770F00
3CF79E00
3CE79E00
1CE39C00
1FE3FC00
1FE3FC00
0FC1F800
0FC1F800
0FC1F800
0780F000
0780E000
ENDCHAR
STARTCHAR x
ENCODING 120
SWIDTH 520 0
DWIDTH 17 0
BBX 15 17 1 0
BITMAP
701C
F03E
783C
7C7C
3EF8
1EF0
1FF0
0FE0
07C0
0FE0
1FF0
3EF8
3C78
7C7C
F83E
F01E
600C
ENDCHAR
STARTCHAR y
ENCODING 121
SWIDTH 541 0
DWIDTH 18 0
BBX 17 24 0 -7
BITMAP
300300
780780
780780
7C0F80
3C0F00
3C0F00
1E1E00
1E1E00
1F1E00
0F3C00
0F3C00
07BC00
07F800
07F800
03F000
03F000
01F000
01E000
03E000
03C000
07C000
7F8000
FF8000
7E0000
ENDCHAR
STARTCHAR z
ENCODING 122
SWIDTH 520 0
DWIDTH 17 0
BBX 16 17 1 0
BITMAP
7FFC
7FFE
7FFE
007C
00F8
00F8
01F0
03E0
07C0
0F80
1F80
1F00
3E00
7C00
FFFF
FFFF
7FFF
ENDCHAR
STARTCHAR braceleft
ENCODING 123
SWIDTH 384 0
DWIDTH 13 0
BBX 11 31 1 -7
BITMAP
01E0
07E0
07E0
0FE0
0F00
0F00
0F00
0F00
0F00
0F00
0F00
0F00
1F00
3E00
7C00
F800
7C00
3E00
1F00
0F00
0F00
0F00
0F00
0F00
0F00
0F00
0F00
0FE0
07E0
07E0
01E0
ENDCHAR
STARTCHAR bar
ENCODING 124
SWIDTH 280 0
DWIDTH 9 0
BBX 4 31 3 -7
BITMAP
60
F0
F0
F0
F0
F0
F0
F0
F0
F0
F0
F0
F0
F0
F0
F0
F0
F0
F0
F0
F0
F0
F0
F0
F0
F0
F0
F0
F0
F0
60
ENDCHAR
STARTCHAR braceright
ENCODING 125
SWIDTH 384 0
DWIDTH 13 0
BBX 11 31 1 -7
BITMAP
F000
FC00
FC00
FE00
1E00
1E00
1E00
1E00
1E00
1E00
1E00
1E00
1F00
0F80
07C0
03E0
07C0
0F80
1F00
1E00
1E00
1E00
1E00
1E00
1E00
1E00
1E00
FE00
FC00
FC00
F000
ENDCHAR
STARTCHAR asciitilde
ENCODING 126
SWIDTH 583 0
DWIDTH 19 0
BBX 17 6 1 9
BITMAP
3F0080
7FC180
FFFF80
FFFF80
C1FF00
803E00
ENDCHAR
STARTCHAR nonbreakingspace
ENCODING 160
SWIDTH 250 0
DWIDTH 8 0
BBX 1 1 0 0
BITMAP
00
ENDCHAR
STARTCHAR degree
ENCODING 176
SWIDTH 395 0
DWIDTH 13 0
BBX 11 10 1 14
BITMAP
1F00
3F80
7FC0
F1E0
E0E0
E0E0
F1E0
7FC0
3F80
1F00
ENDCHAR
STARTCHAR plusminus
ENCODING 177
SWIDTH 583 0
DWIDTH 19 0
BBX 17 22 1 0
BITMAP
01E000
01E000
01E000
01E000
01E000
01E000
7FFF80
7FFF80
7FFF80
7FFF80
01E000
01E000
01E000
01E000
01E000
01E000
000000
000000
FFFF80
FFFF80
FFFF80
FFFF80
ENDCHAR
STARTCHAR twosuperior
ENCODING 178
SWIDTH 354 0
DWIDTH 12 0
BBX 10 11 1 12
BITMAP
3F00
7F80
F1C0
E1C0
43C0
0780
1F00
3C00
7800
FFC0
FFC0
ENDCHAR
STARTCHAR threesuperior
ENCODING 179
SWIDTH 354 0
DWIDTH 12 0
BBX 10 13 1 11
BITMAP
3E00
7F80
E380
E380
0380
1F00
1F80
03C0
C1C0
E1C0
E3C0
7F80
3E00
ENDCHAR
STARTCHAR acute
ENCODING 180
SWIDTH 333 0
DWIDTH 11 0
BBX 6 4 3 20
BITMAP
3C
78
70
E0
ENDCHAR
STARTCHAR mu
ENCODING 181
SWIDTH 615 0
DWIDTH 20 0
BBX 15 24 3 -7
BITMAP
F01E
F01E
F01E
F01E
F01E
F01E
F01E
F01E
F01E
F01E
F01E
F01E
F83E
FC7E
FFFE
FFFE
F3DE
F000
F000
F000
F000
F000
F000
F000
ENDCHAR
STARTCHAR onesuperior
ENCODING 185
SWIDTH 354 0
DWIDTH 12 0
BBX 7 13 1 11
BITMAP
06
0E
1E
7E
EE
CE
0E
0E
0E
0E
0E
0E
0E
ENDCHAR
STARTCHAR ordmasculine
ENCODING 186
SWIDTH 384 0
DWIDTH 13 0
BBX 11 11 1 13
BITMAP
1F00
3F80
7FC0
F1E0
E0E0
E0E0
E0E0
F1E0
7FC0
7FC0
1F00
ENDCHAR
STARTCHAR onequarter
ENCODING 188
SWIDTH 854 0
DWIDTH 28 0
BBX 27 25 1 -1
BITMAP
06001800
0E001800
1E003800
7E007000
EE006000
CE00E000
0E01C000
0E018000
0E038000
0E030000
0E070000
0E0E0000
0E0C0380
001C0780
00380F80
00301F80
00703B80
00607380
00E0E380
01C1FFE0
0180FFE0
03800380
03000380
06000100
06000000
ENDCHAR
STARTCHAR onehalf
ENCODING 189
SWIDTH 854 0
DWIDTH 28 0
BBX 26 25 1 -1
BITMAP
06001800
0E003800
1E003000
7E007000
EE00E000
CE00C000
0E01C000
0E038000
0E030000
0E070000
0E060000
0E0E0000
041C3F00
00187F80
0038F3C0
0030E1C0
006041C0
00E00380
00C00F00
01C01E00
03803C00
03007800
0700FFC0
0600FFC0
0C000000
ENDCHAR
STARTCHAR threequarters
ENCODING 190
SWIDTH 854 0
DWIDTH 28 0
BBX 27 25 1 -1
BITMAP
3E000C00
7F801C00
E3801800
E3803000
03807000
1F006000
1F80E000
03C1C000
C1C18000
E1C38000
E3C30000
7F870000
3E0E0300
000C0780
001C0F80
00181F80
00383B80
00707380
0060E380
00E0FFE0
00C0FFE0
01C00380
03800380
03000100
03000000
ENDCHAR
ENDFONT
