STARTFONT 2.1
FONT -FontForge-Arial Narrow-Book-R-Normal--36-350-75-75-P-155-ISO10646-1
SIZE 35 75 75
FONTBOUNDINGBOX 30 36 -1 -8
COMMENT "Generated by fontforge, http://fontforge.sourceforge.net"
COMMENT "(c) 2008 The Monotype Corporation. All Rights Reserved."
STARTPROPERTIES 39
FOUNDRY "FontForge"
FAMILY_NAME "Arial Narrow"
WEIGHT_NAME "Book"
SLANT "R"
SETWIDTH_NAME "Normal"
ADD_STYLE_NAME ""
PIXEL_SIZE 36
POINT_SIZE 350
RESOLUTION_X 75
RESOLUTION_Y 75
SPACING "P"
AVERAGE_WIDTH 155
CHARSET_REGISTRY "ISO10646"
CHARSET_ENCODING "1"
FONTNAME_REGISTRY ""
CHARSET_COLLECTIONS "ISO10646-1"
FONT_NAME "ArialNarrow"
FACE_NAME "Arial Narrow"
COPYRIGHT "(c) 2008 The Monotype Corporation. All Rights Reserved."
FONT_VERSION "2.40"
FONT_ASCENT 29
FONT_DESCENT 7
UNDERLINE_POSITION -5
UNDERLINE_THICKNESS 3
X_HEIGHT 18
CAP_HEIGHT 25
RAW_ASCENT 799
RAW_DESCENT 200
RELATIVE_WEIGHT 40
RELATIVE_SETWIDTH 30
SUPERSCRIPT_X 0
SUPERSCRIPT_Y 9
SUPERSCRIPT_SIZE 23
SUBSCRIPT_X 0
SUBSCRIPT_Y 2
SUBSCRIPT_SIZE 23
FIGURE_WIDTH 16
AVG_LOWERCASE_WIDTH 142
AVG_UPPERCASE_WIDTH 200
ENDPROPERTIES
CHARS 111
STARTCHAR exclam
ENCODING 33
SWIDTH 228 0
DWIDTH 8 0
BBX 3 26 2 0
BITMAP
E0
E0
E0
E0
E0
E0
E0
E0
E0
E0
E0
E0
E0
E0
E0
60
40
40
40
00
00
00
00
E0
E0
E0
ENDCHAR
STARTCHAR quotedbl
ENCODING 34
SWIDTH 291 0
DWIDTH 10 0
BBX 8 9 1 17
BITMAP
E7
E7
E7
E7
E7
E7
E7
67
42
ENDCHAR
STARTCHAR numbersign
ENCODING 35
SWIDTH 456 0
DWIDTH 19 0
BBX 18 26 0 0
BITMAP
070700
070700
070700
0E0E00
0E0E00
0E0E00
0E0E00
0E0E00
FFFFC0
FFFFC0
FFFFC0
1C1C00
1C1C00
1C1C00
1C1C00
FFFFC0
FFFFC0
FFFFC0
383800
383800
383800
383800
383800
707000
707000
707000
ENDCHAR
STARTCHAR dollar
ENCODING 36
SWIDTH 456 0
DWIDTH 16 0
BBX 14 31 1 -3
BITMAP
0300
0300
0FC0
3FE0
7FF0
7B70
F338
E338
E300
E300
E300
F300
7F00
3FC0
1FE0
07F0
0378
033C
031C
031C
E31C
E31C
E31C
733C
7B78
3FF0
3FF0
0FC0
0300
0300
0300
ENDCHAR
STARTCHAR percent
ENCODING 37
SWIDTH 729 0
DWIDTH 30 0
BBX 27 26 1 0
BITMAP
1F001C00
3F803800
7FC03800
71C07000
E0E07000
E0E0E000
E0E0E000
E0E1C000
E0E1C000
E0E38000
71C38000
7FC70000
3F871F00
1F0E3F80
000E7FC0
001C71C0
003CE0E0
0038E0E0
0070E0E0
0070E0E0
00E0E0E0
00E0E0E0
01C071C0
01C07FC0
03803F80
03801F00
ENDCHAR
STARTCHAR ampersand
ENCODING 38
SWIDTH 546 0
DWIDTH 20 0
BBX 17 26 1 0
BITMAP
03C000
07F000
0FF000
1E7800
1C3800
1C3800
1C3800
1C3800
0C7000
0EF000
07E000
078000
0F8000
1FC000
39E600
70E700
F07600
E03E00
E03E00
E01C00
E01E00
F03E00
787F00
3FF380
3FE380
0F8100
ENDCHAR
STARTCHAR quotesingle
ENCODING 39
SWIDTH 157 0
DWIDTH 6 0
BBX 3 9 1 17
BITMAP
E0
E0
E0
E0
E0
E0
E0
E0
40
ENDCHAR
STARTCHAR parenleft
ENCODING 40
SWIDTH 272 0
DWIDTH 10 0
BBX 7 33 2 -7
BITMAP
0E
1C
1C
38
38
38
70
70
70
70
60
E0
E0
E0
E0
E0
E0
E0
E0
E0
E0
E0
F0
70
70
70
70
38
38
38
1C
1C
0E
ENDCHAR
STARTCHAR parenright
ENCODING 41
SWIDTH 272 0
DWIDTH 10 0
BBX 7 33 1 -7
BITMAP
E0
70
70
78
38
38
1C
1C
1C
1C
1C
0E
0E
0E
0E
0E
0E
0E
0E
0E
0E
0E
1C
1C
1C
1C
1C
38
38
78
70
70
E0
ENDCHAR
STARTCHAR asterisk
ENCODING 42
SWIDTH 318 0
DWIDTH 11 0
BBX 11 11 1 15
BITMAP
0E00
0E00
4E40
EEE0
FFE0
3F80
1F00
1B00
3B80
71C0
2080
ENDCHAR
STARTCHAR plus
ENCODING 43
SWIDTH 479 0
DWIDTH 17 0
BBX 17 15 1 4
BITMAP
01C000
01C000
01C000
01C000
01C000
01C000
FFFF80
FFFF80
FFFF80
01C000
01C000
01C000
01C000
01C000
01C000
ENDCHAR
STARTCHAR comma
ENCODING 44
SWIDTH 228 0
DWIDTH 8 0
BBX 3 8 2 -5
BITMAP
E0
E0
E0
20
20
60
C0
80
ENDCHAR
STARTCHAR hyphen
ENCODING 45
SWIDTH 272 0
DWIDTH 10 0
BBX 8 3 1 8
BITMAP
FF
FF
FF
ENDCHAR
STARTCHAR period
ENCODING 46
SWIDTH 228 0
DWIDTH 8 0
BBX 3 3 2 0
BITMAP
E0
E0
E0
ENDCHAR
STARTCHAR slash
ENCODING 47
SWIDTH 228 0
DWIDTH 8 0
BBX 9 26 -1 0
BITMAP
0380
0380
0380
0380
0700
0700
0700
0700
0E00
0E00
0E00
0E00
1C00
1C00
1C00
1C00
3C00
3800
3800
3800
3800
7000
7000
7000
7000
E000
ENDCHAR
STARTCHAR zero
ENCODING 48
SWIDTH 456 0
DWIDTH 16 0
BBX 13 27 1 0
BITMAP
0F80
1FC0
3FE0
38E0
7070
7070
7070
E038
E038
E038
E038
E038
E038
E038
E038
E038
E038
E038
E038
E038
7070
7070
7070
38E0
3FE0
1FC0
0F80
ENDCHAR
STARTCHAR one
ENCODING 49
SWIDTH 456 0
DWIDTH 16 0
BBX 8 27 3 0
BITMAP
03
07
07
0F
1F
3F
7F
F7
C7
87
07
07
07
07
07
07
07
07
07
07
07
07
07
07
07
07
07
ENDCHAR
STARTCHAR two
ENCODING 50
SWIDTH 456 0
DWIDTH 16 0
BBX 13 27 1 0
BITMAP
0F80
1FE0
3FF0
78F0
7070
E038
E038
E038
0038
0038
0078
0070
00F0
00E0
01E0
03C0
0780
0780
0F00
1E00
3C00
3800
7800
7000
FFF8
FFF8
FFF8
ENDCHAR
STARTCHAR three
ENCODING 51
SWIDTH 456 0
DWIDTH 16 0
BBX 14 27 1 0
BITMAP
0F80
3FE0
7FF0
78F0
F078
E038
0038
0038
0038
0070
00F0
07E0
07C0
07F0
0078
0038
001C
001C
001C
001C
E01C
E03C
7038
7878
3FF0
1FE0
0F80
ENDCHAR
STARTCHAR four
ENCODING 52
SWIDTH 456 0
DWIDTH 16 0
BBX 15 27 1 0
BITMAP
00F0
00F0
01F0
01F0
03F0
03F0
07F0
0770
0770
0E70
0E70
1C70
1C70
3870
3870
7070
7070
E070
FFFE
FFFE
FFFE
0070
0070
0070
0070
0070
0070
ENDCHAR
STARTCHAR five
ENCODING 53
SWIDTH 456 0
DWIDTH 16 0
BBX 14 27 1 0
BITMAP
3FF8
3FF8
3FF8
7800
7000
7000
7000
7000
7000
77C0
FFE0
FFF0
F878
F038
003C
001C
001C
001C
001C
001C
E01C
E038
F038
7878
3FF0
1FE0
0F80
ENDCHAR
STARTCHAR six
ENCODING 54
SWIDTH 456 0
DWIDTH 16 0
BBX 13 27 1 0
BITMAP
07C0
1FE0
1FF0
3870
7078
7038
6000
6000
E000
E780
EFE0
FFE0
F8F0
F070
F078
E038
E038
E038
E038
E038
6038
7078
7070
38F0
3FE0
1FC0
0780
ENDCHAR
STARTCHAR seven
ENCODING 55
SWIDTH 456 0
DWIDTH 16 0
BBX 13 27 1 0
BITMAP
FFF8
FFF8
FFF8
0030
0070
0060
00E0
00E0
01C0
01C0
0380
0380
0380
0700
0700
0700
0F00
0E00
0E00
0E00
0E00
1E00
1C00
1C00
1C00
1C00
1C00
ENDCHAR
STARTCHAR eight
ENCODING 56
SWIDTH 456 0
DWIDTH 16 0
BBX 14 27 1 0
BITMAP
0780
1FE0
3FF0
3CF0
7878
7038
7038
7038
7038
7878
3CF0
1FE0
0FC0
3FF0
7878
7038
F03C
E01C
E01C
E01C
E01C
E01C
7038
7878
3FF0
1FE0
0FC0
ENDCHAR
STARTCHAR nine
ENCODING 57
SWIDTH 456 0
DWIDTH 16 0
BBX 13 27 1 0
BITMAP
0F00
1FC0
3FE0
78E0
7070
F070
E030
E038
E038
E038
E038
E038
F078
7078
78F8
3FF8
3FB8
0F38
0038
0030
0030
E070
E070
70E0
7FC0
3FC0
1F00
ENDCHAR
STARTCHAR colon
ENCODING 58
SWIDTH 228 0
DWIDTH 8 0
BBX 3 19 2 0
BITMAP
E0
E0
E0
00
00
00
00
00
00
00
00
00
00
00
00
00
E0
E0
E0
ENDCHAR
STARTCHAR semicolon
ENCODING 59
SWIDTH 228 0
DWIDTH 8 0
BBX 3 24 2 -5
BITMAP
E0
E0
E0
00
00
00
00
00
00
00
00
00
00
00
00
00
E0
E0
E0
20
20
60
C0
80
ENDCHAR
STARTCHAR less
ENCODING 60
SWIDTH 479 0
DWIDTH 17 0
BBX 14 17 1 4
BITMAP
0004
001C
007C
01F8
07E0
1F80
7E00
F800
E000
F800
7E00
1F80
07E0
01F8
007C
001C
0004
ENDCHAR
STARTCHAR equal
ENCODING 61
SWIDTH 479 0
DWIDTH 17 0
BBX 14 11 1 7
BITMAP
FFFC
FFFC
FFFC
0000
0000
0000
0000
0000
FFFC
FFFC
FFFC
ENDCHAR
STARTCHAR greater
ENCODING 62
SWIDTH 479 0
DWIDTH 17 0
BBX 14 17 1 4
BITMAP
8000
E000
F800
7E00
1F80
07E0
01F8
007C
001C
007C
01F8
07E0
1F80
7E00
F800
E000
8000
ENDCHAR
STARTCHAR question
ENCODING 63
SWIDTH 456 0
DWIDTH 16 0
BBX 14 26 1 0
BITMAP
0FC0
1FE0
3FF0
7878
703C
E03C
E01C
001C
001C
001C
0038
0078
00F0
01E0
01E0
03C0
0780
0700
0700
0700
0700
0000
0000
0700
0700
0700
ENDCHAR
STARTCHAR at
ENCODING 64
SWIDTH 832 0
DWIDTH 30 0
BBX 28 34 1 -8
BITMAP
001FC000
00FFF800
01FFFC00
07E07E00
07801F00
0F000780
1E000380
1C1E3BC0
383F71C0
387FF1C0
70F1F0E0
70E0F0E0
71C0F0E0
E1C0F0E0
E3C0E0E0
E380E0E0
E380E0E0
E380E1C0
E380E1C0
E381E1C0
E381C380
E3C3C780
F1E7CF00
71FFFE00
70FDFC00
7878F000
38000070
3C0000E0
1E0001E0
0F8007C0
07E01F80
03FFFE00
00FFFC00
003FE000
ENDCHAR
STARTCHAR A
ENCODING 65
SWIDTH 546 0
DWIDTH 20 0
BBX 19 26 0 0
BITMAP
01F000
01F000
01F000
03B800
03B800
03B800
07BC00
071C00
071C00
071C00
0E0E00
0E0E00
0E0E00
1E0F00
1C0700
1FFF00
1FFF00
3FFF80
380380
380380
380380
7001C0
7001C0
7001C0
E000E0
E000E0
ENDCHAR
STARTCHAR B
ENCODING 66
SWIDTH 546 0
DWIDTH 20 0
BBX 16 26 2 0
BITMAP
FFE0
FFF8
FFFC
E03C
E01E
E00E
E00E
E00E
E00E
E01C
E03C
FFF8
FFF0
FFFC
E01E
E00E
E007
E007
E007
E007
E007
E00F
E01E
FFFE
FFFC
FFF0
ENDCHAR
STARTCHAR C
ENCODING 67
SWIDTH 591 0
DWIDTH 21 0
BBX 18 26 1 0
BITMAP
01F800
07FE00
0FFF00
1E0F80
3C0780
7803C0
7003C0
700180
E00000
E00000
E00000
E00000
E00000
E00000
E00000
E00000
E00000
E00180
7001C0
7003C0
780380
3C0780
1E1F00
1FFE00
0FFC00
03F000
ENDCHAR
STARTCHAR D
ENCODING 68
SWIDTH 591 0
DWIDTH 21 0
BBX 17 26 2 0
BITMAP
FFE000
FFF800
FFFC00
E03E00
E00E00
E00F00
E00700
E00700
E00380
E00380
E00380
E00380
E00380
E00380
E00380
E00380
E00380
E00380
E00700
E00700
E00F00
E00E00
E03E00
FFFC00
FFF800
FFE000
ENDCHAR
STARTCHAR E
ENCODING 69
SWIDTH 546 0
DWIDTH 20 0
BBX 16 26 2 0
BITMAP
FFFF
FFFF
FFFF
E000
E000
E000
E000
E000
E000
E000
E000
FFFE
FFFE
FFFE
E000
E000
E000
E000
E000
E000
E000
E000
E000
FFFF
FFFF
FFFF
ENDCHAR
STARTCHAR F
ENCODING 70
SWIDTH 500 0
DWIDTH 18 0
BBX 15 26 2 0
BITMAP
FFFE
FFFE
FFFE
E000
E000
E000
E000
E000
E000
E000
E000
FFF8
FFF8
FFF8
E000
E000
E000
E000
E000
E000
E000
E000
E000
E000
E000
E000
ENDCHAR
STARTCHAR G
ENCODING 71
SWIDTH 638 0
DWIDTH 23 0
BBX 20 26 1 0
BITMAP
00FC00
07FF80
0FFFC0
1F07E0
3C01E0
3800F0
7000F0
700060
700000
E00000
E00000
E00000
E00000
E01FF0
E01FF0
E01FF0
E00070
F00070
700070
700070
380070
3C00F0
1F03F0
0FFFC0
07FF80
00FC00
ENDCHAR
STARTCHAR H
ENCODING 72
SWIDTH 591 0
DWIDTH 21 0
BBX 17 26 2 0
BITMAP
E00380
E00380
E00380
E00380
E00380
E00380
E00380
E00380
E00380
E00380
E00380
FFFF80
FFFF80
FFFF80
E00380
E00380
E00380
E00380
E00380
E00380
E00380
E00380
E00380
E00380
E00380
E00380
ENDCHAR
STARTCHAR I
ENCODING 73
SWIDTH 228 0
DWIDTH 8 0
BBX 3 26 2 0
BITMAP
E0
E0
E0
E0
E0
E0
E0
E0
E0
E0
E0
E0
E0
E0
E0
E0
E0
E0
E0
E0
E0
E0
E0
E0
E0
E0
ENDCHAR
STARTCHAR J
ENCODING 74
SWIDTH 410 0
DWIDTH 15 0
BBX 12 26 1 0
BITMAP
0070
0070
0070
0070
0070
0070
0070
0070
0070
0070
0070
0070
0070
0070
0070
0070
0070
0070
E070
E070
E070
F0F0
70E0
7FE0
3FC0
1F00
ENDCHAR
STARTCHAR K
ENCODING 75
SWIDTH 546 0
DWIDTH 20 0
BBX 16 26 2 0
BITMAP
E00E
E00E
E01C
E038
E070
E070
E0E0
E1C0
E380
E380
E700
EF00
FF80
FF80
F9C0
F1C0
E0E0
E0F0
E070
E038
E038
E01C
E01C
E00E
E00E
E007
ENDCHAR
STARTCHAR L
ENCODING 76
SWIDTH 456 0
DWIDTH 16 0
BBX 13 26 2 0
BITMAP
E000
E000
E000
E000
E000
E000
E000
E000
E000
E000
E000
E000
E000
E000
E000
E000
E000
E000
E000
E000
E000
E000
E000
FFF8
FFF8
FFF8
ENDCHAR
STARTCHAR M
ENCODING 77
SWIDTH 683 0
DWIDTH 25 0
BBX 21 26 2 0
BITMAP
F80078
F800F8
F800F8
F800F8
FC00F8
FC01F8
FC01F8
FE01F8
EE03B8
EE03B8
EE03B8
E703B8
E70738
E70738
E70738
E38E38
E38E38
E38E38
E3CE38
E1DC38
E1DC38
E1DC38
E0F838
E0F838
E0F838
E0F838
ENDCHAR
STARTCHAR N
ENCODING 78
SWIDTH 591 0
DWIDTH 21 0
BBX 17 26 2 0
BITMAP
E00380
F00380
F00380
F80380
FC0380
FC0380
EE0380
EE0380
E70380
E70380
E38380
E38380
E1C380
E1C380
E0E380
E0E380
E07380
E07380
E03B80
E03B80
E01F80
E01F80
E00F80
E00F80
E00780
E00380
ENDCHAR
STARTCHAR O
ENCODING 79
SWIDTH 638 0
DWIDTH 23 0
BBX 20 26 1 0
BITMAP
01F800
07FE00
0FFF00
1F0F80
3C03C0
3801C0
7000E0
7000E0
F000E0
E00070
E00070
E00070
E00070
E00070
E00070
E00070
E00070
F000E0
7000E0
7000E0
3801C0
3C03C0
1F0F80
0FFF00
07FE00
01F800
ENDCHAR
STARTCHAR P
ENCODING 80
SWIDTH 546 0
DWIDTH 20 0
BBX 16 26 2 0
BITMAP
FFF0
FFFC
FFFE
E01E
E00F
E007
E007
E007
E007
E007
E00F
E01E
FFFE
FFFC
FFF0
E000
E000
E000
E000
E000
E000
E000
E000
E000
E000
E000
ENDCHAR
STARTCHAR Q
ENCODING 81
SWIDTH 638 0
DWIDTH 23 0
BBX 20 28 1 -2
BITMAP
01F800
07FE00
0FFF00
1F0F80
3C03C0
3801C0
7000E0
7000E0
F000E0
E00070
E00070
E00070
E00070
E00070
E00070
E00070
E00070
F000E0
7000E0
7038E0
383DC0
3C1FC0
1F0F80
0FFFC0
07FFE0
01F8F0
000070
000010
ENDCHAR
STARTCHAR R
ENCODING 82
SWIDTH 591 0
DWIDTH 21 0
BBX 19 26 2 0
BITMAP
FFF800
FFFE00
FFFF00
E00F00
E00780
E00380
E00380
E00380
E00380
E00780
E00F00
FFFE00
FFFC00
FFE000
E07000
E03800
E03C00
E01C00
E00E00
E00F00
E00700
E00780
E00380
E003C0
E001C0
E000E0
ENDCHAR
STARTCHAR S
ENCODING 83
SWIDTH 546 0
DWIDTH 20 0
BBX 17 26 1 0
BITMAP
07E000
1FF800
3FFC00
3C1E00
780E00
700F00
700700
700700
700000
780000
3E0000
1FE000
0FF800
03FE00
007F00
000F00
000780
E00380
E00380
F00380
700380
780700
3C0F00
3FFE00
1FFC00
03F000
ENDCHAR
STARTCHAR T
ENCODING 84
SWIDTH 500 0
DWIDTH 18 0
BBX 17 26 0 0
BITMAP
FFFF80
FFFF80
FFFF80
01C000
01C000
01C000
01C000
01C000
01C000
01C000
01C000
01C000
01C000
01C000
01C000
01C000
01C000
01C000
01C000
01C000
01C000
01C000
01C000
01C000
01C000
01C000
ENDCHAR
STARTCHAR U
ENCODING 85
SWIDTH 591 0
DWIDTH 21 0
BBX 17 26 2 0
BITMAP
E00380
E00380
E00380
E00380
E00380
E00380
E00380
E00380
E00380
E00380
E00380
E00380
E00380
E00380
E00380
E00380
E00380
E00380
E00380
E00780
700700
780F00
7C1F00
3FFE00
1FFC00
07F000
ENDCHAR
STARTCHAR V
ENCODING 86
SWIDTH 546 0
DWIDTH 20 0
BBX 19 26 0 0
BITMAP
E000E0
E000E0
7001C0
7001C0
7001C0
380380
380380
380380
380380
1C0700
1C0700
1C0700
0E0F00
0E0E00
0E0E00
0E0E00
071C00
071C00
071C00
07BC00
03B800
03B800
03B800
01F000
01F000
01F000
ENDCHAR
STARTCHAR W
ENCODING 87
SWIDTH 773 0
DWIDTH 28 0
BBX 27 26 0 0
BITMAP
E01F00E0
E01F00E0
E01F00E0
E03B80E0
E03B80E0
703B81E0
703B81C0
703BC1C0
7071C1C0
7071C1C0
7871C1C0
3871C380
38F1E380
38E0E380
38E0E380
38E0E380
3CE0F780
1DE07700
1DC07700
1DC07700
1DC07700
1DC07700
0F803F00
0F803E00
0F803E00
0F803E00
ENDCHAR
STARTCHAR X
ENCODING 88
SWIDTH 546 0
DWIDTH 20 0
BBX 19 26 0 0
BITMAP
7001C0
380380
380380
1C0700
0E0E00
0E0E00
071C00
071C00
03B800
03F800
01F000
00E000
00E000
01F000
01F000
03B800
07BC00
071C00
0E0E00
0E0E00
1C0700
1C0700
380380
7001C0
7001C0
E000E0
ENDCHAR
STARTCHAR Y
ENCODING 89
SWIDTH 546 0
DWIDTH 20 0
BBX 19 26 0 0
BITMAP
E000E0
7001C0
7001C0
380380
380780
1C0700
1E0F00
0E0E00
071C00
071C00
03B800
03B800
01F000
01F000
00E000
00E000
00E000
00E000
00E000
00E000
00E000
00E000
00E000
00E000
00E000
00E000
ENDCHAR
STARTCHAR Z
ENCODING 90
SWIDTH 500 0
DWIDTH 18 0
BBX 16 26 1 0
BITMAP
7FFF
7FFF
7FFF
0007
000E
001C
001C
0038
0070
0070
00E0
01E0
01C0
0380
0780
0700
0E00
1E00
1C00
3800
3800
7000
E000
FFFF
FFFF
FFFF
ENDCHAR
STARTCHAR bracketleft
ENCODING 91
SWIDTH 228 0
DWIDTH 8 0
BBX 6 33 2 -7
BITMAP
FC
FC
FC
E0
E0
E0
E0
E0
E0
E0
E0
E0
E0
E0
E0
E0
E0
E0
E0
E0
E0
E0
E0
E0
E0
E0
E0
E0
E0
E0
FC
FC
FC
ENDCHAR
STARTCHAR backslash
ENCODING 92
SWIDTH 228 0
DWIDTH 8 0
BBX 8 26 0 0
BITMAP
E0
E0
E0
70
70
70
70
70
38
38
38
38
38
1C
1C
1C
1C
1C
0E
0E
0E
0E
0E
07
07
07
ENDCHAR
STARTCHAR bracketright
ENCODING 93
SWIDTH 228 0
DWIDTH 8 0
BBX 6 33 0 -7
BITMAP
FC
FC
FC
1C
1C
1C
1C
1C
1C
1C
1C
1C
1C
1C
1C
1C
1C
1C
1C
1C
1C
1C
1C
1C
1C
1C
1C
1C
1C
1C
FC
FC
FC
ENDCHAR
STARTCHAR asciicircum
ENCODING 94
SWIDTH 384 0
DWIDTH 14 0
BBX 13 14 0 12
BITMAP
0F80
0F80
0F80
1FC0
1DC0
1DC0
3DE0
38E0
38E0
78F0
7070
7070
F078
E038
ENDCHAR
STARTCHAR underscore
ENCODING 95
SWIDTH 456 0
DWIDTH 16 0
BBX 16 2 0 -5
BITMAP
FFFF
FFFF
ENDCHAR
STARTCHAR grave
ENCODING 96
SWIDTH 272 0
DWIDTH 10 0
BBX 5 5 1 21
BITMAP
E0
70
30
30
18
ENDCHAR
STARTCHAR a
ENCODING 97
SWIDTH 456 0
DWIDTH 16 0
BBX 14 19 1 0
BITMAP
0FE0
3FF8
7FF8
783C
F01C
E01C
007C
0FFC
3FFC
7F9C
781C
E01C
E01C
E03C
E03C
F0FC
7FDC
7F9C
1F1C
ENDCHAR
STARTCHAR b
ENCODING 98
SWIDTH 456 0
DWIDTH 16 0
BBX 13 26 1 0
BITMAP
E000
E000
E000
E000
E000
E000
E000
E780
EFE0
FFE0
F8F0
F070
F078
E038
E038
E038
E038
E038
E038
E038
F078
F070
F8F0
FFE0
EFC0
E780
ENDCHAR
STARTCHAR c
ENCODING 99
SWIDTH 410 0
DWIDTH 15 0
BBX 13 19 1 0
BITMAP
0F80
1FE0
3FF0
7870
7078
F038
E000
E000
E000
E000
E000
E000
E038
F038
7070
78F0
3FE0
1FE0
0F80
ENDCHAR
STARTCHAR d
ENCODING 100
SWIDTH 456 0
DWIDTH 16 0
BBX 13 26 1 0
BITMAP
0038
0038
0038
0038
0038
0038
0038
0F38
1FB8
3FF8
78F8
7078
F078
E038
E038
E038
E038
E038
E038
E038
F078
7078
78F8
3FF8
1FB8
0F38
ENDCHAR
STARTCHAR e
ENCODING 101
SWIDTH 456 0
DWIDTH 16 0
BBX 14 19 1 0
BITMAP
07C0
1FE0
3FF0
7878
7038
E01C
E01C
FFFC
FFFC
FFFC
E000
E000
E000
F01C
703C
7C78
3FF0
1FF0
07C0
ENDCHAR
STARTCHAR f
ENCODING 102
SWIDTH 228 0
DWIDTH 8 0
BBX 9 26 0 0
BITMAP
0F80
1F80
3F80
3C00
3800
3800
3800
FF00
FF00
FF00
3800
3800
3800
3800
3800
3800
3800
3800
3800
3800
3800
3800
3800
3800
3800
3800
ENDCHAR
STARTCHAR g
ENCODING 103
SWIDTH 456 0
DWIDTH 16 0
BBX 13 26 1 -7
BITMAP
0F38
3FB8
3FF8
78F8
7078
F078
E038
E038
E038
E038
E038
E038
E038
F078
7078
78F8
3FF8
1FB8
0F38
0038
E038
E070
F0F0
7FF0
3FE0
1F80
ENDCHAR
STARTCHAR h
ENCODING 104
SWIDTH 456 0
DWIDTH 16 0
BBX 12 26 2 0
BITMAP
E000
E000
E000
E000
E000
E000
E000
E780
EFE0
FFE0
F8F0
F070
E070
E070
E070
E070
E070
E070
E070
E070
E070
E070
E070
E070
E070
E070
ENDCHAR
STARTCHAR i
ENCODING 105
SWIDTH 182 0
DWIDTH 7 0
BBX 3 26 2 0
BITMAP
E0
E0
E0
00
00
00
00
E0
E0
E0
E0
E0
E0
E0
E0
E0
E0
E0
E0
E0
E0
E0
E0
E0
E0
E0
ENDCHAR
STARTCHAR j
ENCODING 106
SWIDTH 182 0
DWIDTH 7 0
BBX 6 33 -1 -7
BITMAP
1C
1C
1C
00
00
00
00
1C
1C
1C
1C
1C
1C
1C
1C
1C
1C
1C
1C
1C
1C
1C
1C
1C
1C
1C
1C
1C
1C
3C
FC
F8
F0
ENDCHAR
STARTCHAR k
ENCODING 107
SWIDTH 410 0
DWIDTH 15 0
BBX 12 26 2 0
BITMAP
E000
E000
E000
E000
E000
E000
E000
E070
E0E0
E1C0
E380
E700
E700
EE00
FE00
FE00
FF00
F700
E380
E380
E1C0
E1C0
E0E0
E0E0
E070
E070
ENDCHAR
STARTCHAR l
ENCODING 108
SWIDTH 182 0
DWIDTH 7 0
BBX 3 26 2 0
BITMAP
E0
E0
E0
E0
E0
E0
E0
E0
E0
E0
E0
E0
E0
E0
E0
E0
E0
E0
E0
E0
E0
E0
E0
E0
E0
E0
ENDCHAR
STARTCHAR m
ENCODING 109
SWIDTH 683 0
DWIDTH 25 0
BBX 21 19 2 0
BITMAP
E783C0
EFE7F0
FFEFF0
F8FC78
F07838
E07038
E07038
E07038
E07038
E07038
E07038
E07038
E07038
E07038
E07038
E07038
E07038
E07038
E07038
ENDCHAR
STARTCHAR n
ENCODING 110
SWIDTH 456 0
DWIDTH 16 0
BBX 12 19 2 0
BITMAP
E780
EFE0
FFE0
F8F0
F0F0
E070
E070
E070
E070
E070
E070
E070
E070
E070
E070
E070
E070
E070
E070
ENDCHAR
STARTCHAR o
ENCODING 111
SWIDTH 456 0
DWIDTH 16 0
BBX 14 19 1 0
BITMAP
0F80
1FE0
3FF0
7878
7038
F03C
E01C
E01C
E01C
E01C
E01C
E01C
E01C
F03C
7038
7878
3FF0
1FE0
0780
ENDCHAR
STARTCHAR p
ENCODING 112
SWIDTH 456 0
DWIDTH 16 0
BBX 13 26 1 -7
BITMAP
E780
EFE0
FFE0
F8F0
F070
F078
E038
E038
E038
E038
E038
E038
E038
F078
F070
F8F0
FFE0
EFC0
E780
E000
E000
E000
E000
E000
E000
E000
ENDCHAR
STARTCHAR q
ENCODING 113
SWIDTH 456 0
DWIDTH 16 0
BBX 13 26 1 -7
BITMAP
0F38
3FB8
3FF8
78F8
7078
F078
E038
E038
E038
E038
E038
E038
E038
F078
7078
78F8
3FF8
1FB8
0F38
0038
0038
0038
0038
0038
0038
0038
ENDCHAR
STARTCHAR r
ENCODING 114
SWIDTH 272 0
DWIDTH 10 0
BBX 9 19 1 0
BITMAP
E700
EF80
FF80
F900
F000
E000
E000
E000
E000
E000
E000
E000
E000
E000
E000
E000
E000
E000
E000
ENDCHAR
STARTCHAR s
ENCODING 115
SWIDTH 410 0
DWIDTH 15 0
BBX 12 19 1 0
BITMAP
1F80
7FC0
7FE0
F0F0
E070
E000
F000
7E00
3FC0
1FE0
01F0
0070
0070
E070
E070
70F0
7FE0
3FC0
1F80
ENDCHAR
STARTCHAR t
ENCODING 116
SWIDTH 228 0
DWIDTH 8 0
BBX 8 25 0 0
BITMAP
08
18
38
38
38
38
FF
FF
FF
38
38
38
38
38
38
38
38
38
38
38
38
38
3F
1F
0F
ENDCHAR
STARTCHAR u
ENCODING 117
SWIDTH 456 0
DWIDTH 16 0
BBX 12 19 2 0
BITMAP
E070
E070
E070
E070
E070
E070
E070
E070
E070
E070
E070
E070
E070
E070
E0F0
F1F0
7FF0
7F70
1E70
ENDCHAR
STARTCHAR v
ENCODING 118
SWIDTH 410 0
DWIDTH 15 0
BBX 15 19 0 0
BITMAP
E00E
E00E
701C
701C
701C
3838
3838
3838
3838
1C70
1C70
1C70
1EF0
0EE0
0EE0
0EE0
07C0
07C0
07C0
ENDCHAR
STARTCHAR w
ENCODING 119
SWIDTH 591 0
DWIDTH 21 0
BBX 21 19 0 0
BITMAP
E0F838
E0F838
70F870
70F870
70D870
70D870
79DCF0
39DCE0
39DCE0
39DCE0
39DCE0
1DDDC0
1DDDC0
1D8DC0
1D8DC0
0F8F80
0F8F80
0F8F80
0F8F80
ENDCHAR
STARTCHAR x
ENCODING 120
SWIDTH 410 0
DWIDTH 15 0
BBX 14 19 0 0
BITMAP
E01C
7038
7038
3870
1CE0
1CE0
0FC0
0FC0
0780
0780
0780
0FC0
0FC0
1CE0
1CE0
3870
7038
7038
E01C
ENDCHAR
STARTCHAR y
ENCODING 121
SWIDTH 410 0
DWIDTH 15 0
BBX 15 26 0 -7
BITMAP
E00E
701E
701C
701C
383C
3838
3838
1C78
1C70
1C70
1EF0
0EE0
0EE0
0FE0
07C0
07C0
07C0
0380
0380
0380
0700
0700
0F00
3E00
3C00
3800
ENDCHAR
STARTCHAR z
ENCODING 122
SWIDTH 410 0
DWIDTH 15 0
BBX 13 19 1 0
BITMAP
FFF8
FFF8
FFF8
0070
0070
00E0
01C0
0380
0380
0700
0E00
1C00
1C00
3800
7000
E000
FFF8
FFF8
FFF8
ENDCHAR
STARTCHAR braceleft
ENCODING 123
SWIDTH 273 0
DWIDTH 10 0
BBX 9 33 0 -7
BITMAP
0780
0F80
1F80
1E00
1C00
1C00
1C00
1C00
1C00
1C00
1C00
1C00
1C00
3C00
3800
F000
C000
F000
3800
3800
1C00
1C00
1C00
1C00
1C00
1C00
1C00
1C00
1C00
1E00
0F80
0F80
0780
ENDCHAR
STARTCHAR bar
ENCODING 124
SWIDTH 212 0
DWIDTH 8 0
BBX 3 34 2 -8
BITMAP
E0
E0
E0
E0
E0
E0
E0
E0
E0
E0
E0
E0
E0
E0
E0
E0
E0
E0
E0
E0
E0
E0
E0
E0
E0
E0
E0
E0
E0
E0
E0
E0
E0
E0
ENDCHAR
STARTCHAR braceright
ENCODING 125
SWIDTH 273 0
DWIDTH 10 0
BBX 9 33 0 -7
BITMAP
F000
F800
F800
3C00
1C00
1C00
1C00
1C00
1C00
1C00
1C00
1C00
1C00
0E00
0E00
0780
0180
0780
0E00
0E00
1C00
1C00
1C00
1C00
1C00
1C00
1C00
1C00
1C00
3C00
F800
F800
F000
ENDCHAR
STARTCHAR asciitilde
ENCODING 126
SWIDTH 479 0
DWIDTH 17 0
BBX 15 5 1 10
BITMAP
3E02
FF86
FFFE
C3FE
80F8
ENDCHAR
STARTCHAR cent
ENCODING 162
SWIDTH 456 0
DWIDTH 16 0
BBX 13 33 1 -7
BITMAP
0060
0060
0060
00C0
00C0
00C0
00C0
0FC0
1FE0
3FF0
79F0
71F8
F338
E300
E300
E300
E300
E600
E600
E638
E638
7C70
7CF0
3FE0
1FE0
0F80
1800
1800
1800
1800
3000
3000
3000
ENDCHAR
STARTCHAR sterling
ENCODING 163
SWIDTH 456 0
DWIDTH 16 0
BBX 15 26 0 0
BITMAP
03C0
0FF0
1FF0
1C78
3C38
383C
381C
381C
3800
3800
3800
FFC0
FFC0
FFC0
1C00
1C00
1C00
1C00
1800
3800
3000
7E00
FFC4
FFFE
E1FE
807C
ENDCHAR
STARTCHAR brokenbar
ENCODING 166
SWIDTH 212 0
DWIDTH 8 0
BBX 3 34 2 -8
BITMAP
E0
E0
E0
E0
E0
E0
E0
E0
E0
E0
E0
E0
E0
E0
00
00
00
00
00
00
E0
E0
E0
E0
E0
E0
E0
E0
E0
E0
E0
E0
E0
E0
ENDCHAR
STARTCHAR guillemotleft
ENCODING 171
SWIDTH 456 0
DWIDTH 16 0
BBX 14 17 1 1
BITMAP
071C
0E38
0E38
1C70
38E0
38E0
71C0
71C0
E380
71C0
71C0
38E0
38E0
1C70
0E38
0E38
071C
ENDCHAR
STARTCHAR hyphen.dup1
ENCODING 173
SWIDTH 272 0
DWIDTH 10 0
BBX 8 3 1 8
BITMAP
FF
FF
FF
ENDCHAR
STARTCHAR degree
ENCODING 176
SWIDTH 399 0
DWIDTH 14 0
BBX 10 10 2 16
BITMAP
1E00
7F80
7F80
F3C0
E1C0
E1C0
F3C0
7F80
7F80
1E00
ENDCHAR
STARTCHAR plusminus
ENCODING 177
SWIDTH 548 0
DWIDTH 20 0
BBX 17 20 1 0
BITMAP
01C000
01C000
01C000
01C000
01C000
01C000
FFFF80
FFFF80
FFFF80
01C000
01C000
01C000
01C000
01C000
01C000
000000
000000
FFFF80
FFFF80
FFFF80
ENDCHAR
STARTCHAR twosuperior
ENCODING 178
SWIDTH 272 0
DWIDTH 10 0
BBX 9 13 0 13
BITMAP
3E00
7F00
7F80
F380
E380
0300
0600
0C00
1800
3000
7F80
FF80
FF80
ENDCHAR
STARTCHAR threesuperior
ENCODING 179
SWIDTH 272 0
DWIDTH 10 0
BBX 9 13 0 13
BITMAP
3E00
7F00
FF00
0700
0600
0800
0F00
0380
0380
E380
FF80
7F00
3E00
ENDCHAR
STARTCHAR acute
ENCODING 180
SWIDTH 272 0
DWIDTH 10 0
BBX 5 5 3 21
BITMAP
38
70
70
60
C0
ENDCHAR
STARTCHAR middot
ENCODING 183
SWIDTH 271 0
DWIDTH 10 0
BBX 3 3 3 11
BITMAP
E0
E0
E0
ENDCHAR
STARTCHAR onesuperior
ENCODING 185
SWIDTH 272 0
DWIDTH 10 0
BBX 6 13 1 13
BITMAP
1C
3C
7C
DC
9C
1C
1C
1C
1C
1C
1C
1C
1C
ENDCHAR
STARTCHAR ordmasculine
ENCODING 186
SWIDTH 298 0
DWIDTH 11 0
BBX 9 13 1 13
BITMAP
1C00
7F00
7F00
F780
E380
E380
E380
E380
E380
F780
7F00
7F00
1C00
ENDCHAR
STARTCHAR guillemotright
ENCODING 187
SWIDTH 456 0
DWIDTH 16 0
BBX 14 17 1 1
BITMAP
E380
71C0
71C0
38E0
1C70
1C70
0E38
0E38
071C
0E38
0E38
1C70
1C70
38E0
71C0
71C0
E380
ENDCHAR
STARTCHAR onequarter
ENCODING 188
SWIDTH 684 0
DWIDTH 25 0
BBX 22 27 2 -1
BITMAP
180060
3800E0
7800C0
F801C0
980180
180300
180300
180600
180E00
180C00
181800
181800
183000
007018
006038
00E078
00C078
0180D8
0181D8
030198
070318
060718
0C07FC
0C07FC
180018
380018
300018
ENDCHAR
STARTCHAR onehalf
ENCODING 189
SWIDTH 684 0
DWIDTH 25 0
BBX 22 27 2 -1
BITMAP
180060
3800C0
7800C0
F80180
980380
180300
180600
180600
180C00
181C00
181800
183800
183000
0060E0
0061F8
00C3FC
01C30C
01800C
03001C
030018
060038
0E00F0
0C01E0
1C0180
1803FC
3007FC
3007FC
ENDCHAR
STARTCHAR threequarters
ENCODING 190
SWIDTH 684 0
DWIDTH 25 0
BBX 23 27 1 -1
BITMAP
7C0030
FE0070
C70060
4300E0
0700C0
1E0180
1E0180
070300
030700
430600
C30C00
FF0C00
7E1800
00380C
00301C
00703C
00603C
00C06C
00C0EC
0180CC
03818C
03038C
0603FE
0603FE
0C000C
1C000C
18000C
ENDCHAR
ENDFONT
