STARTFONT 2.1
FONT -FontForge-Century Schoolbook-Book-R-Normal--38-360-75-75-P-232-ISO10646-1
SIZE 36 75 75
FONTBOUNDINGBOX 40 36 -2 -8
COMMENT "Generated by fontforge, http://fontforge.sourceforge.net"
COMMENT "Typeface (c) The Monotype Corporation plc. Data (c) The Monotype Corporation plc / Type Solutions Inc. 1990-91 All Rights Reserved."
STARTPROPERTIES 39
FOUNDRY "FontForge"
FAMILY_NAME "Century Schoolbook"
WEIGHT_NAME "Book"
SLANT "R"
SETWIDTH_NAME "Normal"
ADD_STYLE_NAME ""
PIXEL_SIZE 38
POINT_SIZE 360
RESOLUTION_X 75
RESOLUTION_Y 75
SPACING "P"
AVERAGE_WIDTH 232
CHARSET_REGISTRY "ISO10646"
CHARSET_ENCODING "1"
FONTNAME_REGISTRY ""
CHARSET_COLLECTIONS "ISO10646-1"
FONT_NAME "CenturySchoolbook"
FACE_NAME "Century Schoolbook"
COPYRIGHT "Typeface (c) The Monotype Corporation plc. Data (c) The Monotype Corporation plc / Type Solutions Inc. 1990-91 All Rights Reserved."
FONT_VERSION "2.35"
FONT_ASCENT 30
FONT_DESCENT 8
UNDERLINE_POSITION -5
UNDERLINE_THICKNESS 2
X_HEIGHT 16
CAP_HEIGHT 26
RAW_ASCENT 799
RAW_DESCENT 200
RELATIVE_WEIGHT 40
RELATIVE_SETWIDTH 50
SUPERSCRIPT_X 0
SUPERSCRIPT_Y 9
SUPERSCRIPT_SIZE 24
SUBSCRIPT_X 0
SUBSCRIPT_Y 2
SUBSCRIPT_SIZE 24
FIGURE_WIDTH -1
AVG_LOWERCASE_WIDTH 197
AVG_UPPERCASE_WIDTH 275
ENDPROPERTIES
CHARS 56
STARTCHAR at
ENCODING 64
SWIDTH 736 0
DWIDTH 28 0
BBX 27 29 0 -3
BITMAP
001FE000
00E03800
01000C00
06000200
0C000100
18000180
10000080
200790C0
601CB040
40387040
40706040
80E06040
80E06040
81C0E040
81C0C080
83C0C080
8381C080
8381C100
83838300
43858200
43C98C20
41F0F040
200000C0
30000080
10000100
0C000600
06000C00
01C07000
003F8000
ENDCHAR
STARTCHAR A
ENCODING 65
SWIDTH 722 0
DWIDTH 27 0
BBX 28 27 0 0
BITMAP
00020000
00030000
00070000
00070000
000B8000
000B8000
001BC000
0011C000
0011C000
0021E000
0020E000
0040E000
00407000
00407000
00807000
00803800
01003800
01FFF800
03001C00
02001C00
02001E00
04000E00
04000E00
0C000F00
0C000700
3E000F80
FFC07FF0
ENDCHAR
STARTCHAR B
ENCODING 66
SWIDTH 722 0
DWIDTH 27 0
BBX 24 27 2 0
BITMAP
FFFFC0
0F00F0
0E0038
0E001C
0E000E
0E000E
0E000E
0E000E
0E000E
0E000C
0E001C
0E0038
0E00F0
0FFFC0
0E0078
0E001C
0E000E
0E000F
0E0007
0E0007
0E0007
0E0007
0E0006
0E000E
0E001C
0E0070
FFFFC0
ENDCHAR
STARTCHAR C
ENCODING 67
SWIDTH 722 0
DWIDTH 27 0
BBX 23 27 3 0
BITMAP
007E08
018398
0600F8
0C0078
180038
30001C
30001C
70000C
60000C
600004
E00004
E00000
E00000
E00000
E00000
E00000
E00000
E00002
600002
700006
300004
38000C
180008
0C0018
060030
0380C0
007F00
ENDCHAR
STARTCHAR D
ENCODING 68
SWIDTH 777 0
DWIDTH 30 0
BBX 26 27 2 0
BITMAP
FFFFC000
0E00F000
0E001800
0E000C00
0E000600
0E000700
0E000300
0E000380
0E000380
0E0001C0
0E0001C0
0E0001C0
0E0001C0
0E0001C0
0E0001C0
0E0001C0
0E0001C0
0E0001C0
0E000180
0E000380
0E000380
0E000300
0E000600
0E000E00
0E001800
0E00F000
FFFF8000
ENDCHAR
STARTCHAR E
ENCODING 69
SWIDTH 722 0
DWIDTH 27 0
BBX 23 27 2 0
BITMAP
FFFFFC
0E007C
0E001C
0E000C
0E0006
0E0006
0E0006
0E0202
0E0202
0E0200
0E0600
0E0600
0E1E00
0FFE00
0E1E00
0E0600
0E0600
0E0202
0E0202
0E0206
0E0006
0E0006
0E000C
0E001C
0E003C
0E00FC
FFFFFC
ENDCHAR
STARTCHAR F
ENCODING 70
SWIDTH 666 0
DWIDTH 25 0
BBX 22 27 1 0
BITMAP
FFFFFC
0E00FC
0E003C
0E001C
0E000C
0E000C
0E0004
0E0004
0E0200
0E0200
0E0600
0E0600
0E0E00
0FFE00
0E0E00
0E0600
0E0600
0E0200
0E0200
0E0200
0E0000
0E0000
0E0000
0E0000
0E0000
0E0000
FFF000
ENDCHAR
STARTCHAR G
ENCODING 71
SWIDTH 777 0
DWIDTH 30 0
BBX 26 27 2 0
BITMAP
007F0400
0181CC00
06007C00
0C003C00
18001C00
30000E00
30000E00
70000600
60000600
60000600
E0000200
E0000000
E0000000
E0000000
E0000000
E000FFC0
E0000E00
E0000E00
60000E00
70000E00
30000E00
30000E00
18001E00
0C001600
06003600
0180C200
007F0200
ENDCHAR
STARTCHAR H
ENCODING 72
SWIDTH 833 0
DWIDTH 32 0
BBX 28 27 2 0
BITMAP
FFE07FF0
0E000700
0E000700
0E000700
0E000700
0E000700
0E000700
0E000700
0E000700
0E000700
0E000700
0E000700
0E000700
0FFFFF00
0E000700
0E000700
0E000700
0E000700
0E000700
0E000700
0E000700
0E000700
0E000700
0E000700
0E000700
0E000700
FFE07FF0
ENDCHAR
STARTCHAR I
ENCODING 73
SWIDTH 407 0
DWIDTH 15 0
BBX 11 27 2 0
BITMAP
FFE0
0E00
0E00
0E00
0E00
0E00
0E00
0E00
0E00
0E00
0E00
0E00
0E00
0E00
0E00
0E00
0E00
0E00
0E00
0E00
0E00
0E00
0E00
0E00
0E00
0E00
FFE0
ENDCHAR
STARTCHAR J
ENCODING 74
SWIDTH 556 0
DWIDTH 21 0
BBX 21 27 0 0
BITMAP
00FFF8
000700
000700
000700
000700
000700
000700
000700
000700
000700
000700
000700
000700
000700
000700
000700
380700
7C0700
FC0700
FC0700
F80700
C00700
C00600
400E00
201C00
183800
0FE000
ENDCHAR
STARTCHAR K
ENCODING 75
SWIDTH 777 0
DWIDTH 30 0
BBX 28 27 2 0
BITMAP
FFE0FFE0
0E003F00
0E003C00
0E001800
0E001000
0E002000
0E004000
0E008000
0E010000
0E020000
0E060000
0E0E0000
0E170000
0E278000
0E438000
0E81C000
0F01E000
0E00E000
0E007000
0E007800
0E003800
0E001C00
0E001E00
0E000E00
0E000F00
0E001F80
FFE1FFF0
ENDCHAR
STARTCHAR L
ENCODING 76
SWIDTH 666 0
DWIDTH 25 0
BBX 23 27 1 0
BITMAP
FFE000
0E0000
0E0000
0E0000
0E0000
0E0000
0E0000
0E0000
0E0000
0E0000
0E0000
0E0000
0E0000
0E0000
0E0000
0E0000
0E0000
0E0002
0E0002
0E0006
0E0006
0E0006
0E000C
0E001C
0E003C
0E007C
FFFFFC
ENDCHAR
STARTCHAR M
ENCODING 77
SWIDTH 943 0
DWIDTH 36 0
BBX 34 27 1 0
BITMAP
FF80003FC0
0F80003C00
0FC0007C00
0DC0005C00
0DC0005C00
0CE0009C00
0CE0009C00
0CF0019C00
0C70011C00
0C70011C00
0C78021C00
0C38021C00
0C3C061C00
0C1C041C00
0C1C041C00
0C1E081C00
0C0E081C00
0C0F181C00
0C07101C00
0C07101C00
0C07A01C00
0C03A01C00
0C03A01C00
0C01C01C00
1E01C01C00
3F01C01C00
FFC081FFC0
ENDCHAR
STARTCHAR N
ENCODING 78
SWIDTH 814 0
DWIDTH 31 0
BBX 29 27 2 0
BITMAP
FC000FF8
1E0003E0
0F0001C0
0F800080
0B800080
09C00080
09E00080
08F00080
08780080
08380080
081C0080
081E0080
080F0080
08078080
08038080
0801C080
0801E080
0800F080
08007880
08003880
08001C80
08001E80
08000F80
08000780
1C000380
3E000180
FFC00180
ENDCHAR
STARTCHAR O
ENCODING 79
SWIDTH 777 0
DWIDTH 30 0
BBX 25 27 2 0
BITMAP
007F0000
0180C000
06003000
0C001800
18000C00
38000E00
30000600
70000700
70000300
E0000300
E0000380
E0000380
E0000380
E0000380
E0000380
E0000380
E0000380
60000300
60000700
70000700
30000600
30000E00
18000C00
0C001800
06003000
0180C000
007F0000
ENDCHAR
STARTCHAR P
ENCODING 80
SWIDTH 666 0
DWIDTH 25 0
BBX 22 27 1 0
BITMAP
FFFF80
0F01E0
0E0070
0E0038
0E0018
0E001C
0E001C
0E001C
0E001C
0E001C
0E0018
0E0038
0E0070
0E01C0
0FFF00
0E0000
0E0000
0E0000
0E0000
0E0000
0E0000
0E0000
0E0000
0E0000
0E0000
0E0000
FFF000
ENDCHAR
STARTCHAR Q
ENCODING 81
SWIDTH 777 0
DWIDTH 30 0
BBX 25 34 2 -7
BITMAP
007F0000
0180C000
06003000
0C001800
18000C00
38000E00
30000600
70000700
60000300
E0000300
E0000380
E0000380
E0000380
E0000380
E0000380
E0000380
E0000380
60000380
707E0300
71838700
3300C600
3A00EE00
1A006C00
0E007800
07007000
0180E000
007FF000
00007000
00007080
00007880
00003980
00003F00
00003F00
00001E00
ENDCHAR
STARTCHAR R
ENCODING 82
SWIDTH 722 0
DWIDTH 27 0
BBX 25 27 1 0
BITMAP
FFFF8000
0E00E000
0E003000
0E003800
0E001C00
0E001C00
0E001C00
0E001C00
0E001C00
0E001800
0E003800
0E007000
0E01C000
0FFE0000
0E0E0000
0E038000
0E01C000
0E01C000
0E01C000
0E01C000
0E01E000
0E00E080
0E00E080
0E00E180
0E00F100
0E007F00
FFE03C00
ENDCHAR
STARTCHAR S
ENCODING 83
SWIDTH 629 0
DWIDTH 24 0
BBX 20 27 2 0
BITMAP
03F020
0E0C60
180360
3801E0
3000E0
7000E0
700060
700060
780020
7C0020
3E0000
3FE000
1FFC00
07FF00
007FC0
000FE0
8001E0
8000F0
C00070
C00070
C00070
E00070
F00060
F800E0
EC01C0
C70700
81FC00
ENDCHAR
STARTCHAR T
ENCODING 84
SWIDTH 666 0
DWIDTH 25 0
BBX 23 27 1 0
BITMAP
FFFFFE
FC387E
F0381E
E0380E
E0380E
C03806
C03806
C03806
803802
803802
003800
003800
003800
003800
003800
003800
003800
003800
003800
003800
003800
003800
003800
003800
003800
003800
03FF80
ENDCHAR
STARTCHAR U
ENCODING 85
SWIDTH 814 0
DWIDTH 31 0
BBX 29 27 1 0
BITMAP
FFE00FF8
0E0001C0
0E000180
0E000080
0E000080
0E000080
0E000080
0E000080
0E000080
0E000080
0E000080
0E000080
0E000080
0E000080
0E000080
0E000080
0E000080
0E000080
0E000080
0E000080
0E000080
0E000100
07000100
07000200
03C00400
00F01800
003FC000
ENDCHAR
STARTCHAR V
ENCODING 86
SWIDTH 722 0
DWIDTH 27 0
BBX 28 27 0 0
BITMAP
FFF03FF0
1F000780
0F000300
07000200
07000200
03800200
03800400
03C00400
01C00400
01C00800
00E00800
00E01800
00F01000
00701000
00702000
00382000
00382000
00384000
001C4000
001C4000
001E8000
000E8000
000E8000
00070000
00070000
00070000
00020000
ENDCHAR
STARTCHAR W
ENCODING 87
SWIDTH 980 0
DWIDTH 37 0
BBX 37 27 1 0
BITMAP
FF87FF0FF8
3C00F001E0
1C007001C0
1C00700180
1E00780100
0E00380100
0E00380100
0F005C0300
07005C0200
07005C0200
07808E0200
03808E0400
03808E0400
03C1070400
01C1070400
01C1070800
01E2038800
00E2038800
00E2039000
00F401D000
007401D000
007401D000
007800E000
003800E000
003800E000
003000C000
0010004000
ENDCHAR
STARTCHAR X
ENCODING 88
SWIDTH 704 0
DWIDTH 27 0
BBX 26 27 1 0
BITMAP
FFE1FF80
3E003C00
1E003000
0E002000
07004000
07804000
03C08000
01C10000
01E10000
00F20000
00740000
007C0000
003C0000
001C0000
001E0000
002F0000
00470000
00438000
0083C000
0101C000
0100E000
0200F000
04007000
04003800
0C003C00
3E003E00
FFC1FFC0
ENDCHAR
STARTCHAR Y
ENCODING 89
SWIDTH 704 0
DWIDTH 27 0
BBX 26 27 0 0
BITMAP
FFF0FFC0
1E001E00
0E001C00
0F000800
07001000
03801000
03C02000
01C02000
01E04000
00E04000
00708000
00788000
00390000
003D0000
001D0000
000E0000
000E0000
000E0000
000E0000
000E0000
000E0000
000E0000
000E0000
000E0000
000E0000
000E0000
00FFE000
ENDCHAR
STARTCHAR Z
ENCODING 90
SWIDTH 610 0
DWIDTH 23 0
BBX 20 27 1 0
BITMAP
7FFFF0
7E00F0
7800E0
7001C0
7003C0
600380
600700
400F00
400E00
401C00
003C00
003800
007000
00F000
00E000
01C000
03C000
038010
070010
0F0030
0E0030
1C0030
3C0070
3800F0
7001F0
F007F0
FFFFF0
ENDCHAR
STARTCHAR bracketleft
ENCODING 91
SWIDTH 333 0
DWIDTH 13 0
BBX 8 35 5 -8
BITMAP
FF
E0
E0
E0
E0
E0
E0
E0
E0
E0
E0
E0
E0
E0
E0
E0
E0
E0
E0
E0
E0
E0
E0
E0
E0
E0
E0
E0
E0
E0
E0
E0
E0
E0
FF
ENDCHAR
STARTCHAR bracketright
ENCODING 93
SWIDTH 333 0
DWIDTH 13 0
BBX 8 35 1 -8
BITMAP
FF
07
07
07
07
07
07
07
07
07
07
07
07
07
07
07
07
07
07
07
07
07
07
07
07
07
07
07
07
07
07
07
07
07
FF
ENDCHAR
STARTCHAR underscore
ENCODING 95
SWIDTH 500 0
DWIDTH 19 0
BBX 20 2 0 -5
BITMAP
FFFFF0
FFFFF0
ENDCHAR
STARTCHAR a
ENCODING 97
SWIDTH 556 0
DWIDTH 21 0
BBX 18 17 2 0
BITMAP
07F000
183C00
301C00
700E00
780E00
780E00
300E00
007E00
078E00
1C0E00
700E00
E00E00
E00E00
E01E00
E03E00
706640
3F8380
ENDCHAR
STARTCHAR b
ENCODING 98
SWIDTH 556 0
DWIDTH 21 0
BBX 19 28 0 0
BITMAP
FC0000
3C0000
1C0000
1C0000
1C0000
1C0000
1C0000
1C0000
1C0000
1C0000
1C0000
1CFC00
1D0700
1E0380
1C01C0
1C01C0
1C00E0
1C00E0
1C00E0
1C00E0
1C00E0
1C00E0
1C00C0
1C01C0
1E0180
1F0380
1B8700
10FC00
ENDCHAR
STARTCHAR c
ENCODING 99
SWIDTH 443 0
DWIDTH 17 0
BBX 14 17 1 0
BITMAP
07E0
1C30
3818
703C
703C
E03C
E018
E000
E000
E000
E000
E004
700C
7008
3818
1C30
07C0
ENDCHAR
STARTCHAR d
ENCODING 100
SWIDTH 574 0
DWIDTH 22 0
BBX 20 28 2 0
BITMAP
007F00
000F00
000700
000700
000700
000700
000700
000700
000700
000700
000700
07E700
1C1700
300F00
700700
600700
E00700
E00700
E00700
E00700
E00700
E00700
E00700
600700
700700
380F00
1C1780
07E7F0
ENDCHAR
STARTCHAR e
ENCODING 101
SWIDTH 500 0
DWIDTH 19 0
BBX 15 17 1 0
BITMAP
07C0
1C30
3818
701C
700C
E00E
E00E
E00E
FFFE
E000
E000
E002
6006
7004
3808
1C30
07C0
ENDCHAR
STARTCHAR f
ENCODING 102
SWIDTH 333 0
DWIDTH 13 0
BBX 14 28 1 0
BITMAP
01F0
0318
061C
0E3C
0C3C
0C18
1C00
1C00
1C00
1C00
1C00
FFC0
1C00
1C00
1C00
1C00
1C00
1C00
1C00
1C00
1C00
1C00
1C00
1C00
1C00
1C00
1C00
FFC0
ENDCHAR
STARTCHAR g
ENCODING 103
SWIDTH 537 0
DWIDTH 20 0
BBX 17 25 2 -8
BITMAP
0FC700
387F80
703980
E01C00
E01C00
E01C00
E01C00
E01C00
703800
387000
3FC000
600000
C00000
C00000
FFF000
7FFC00
3FFE00
381E00
600E00
C00600
C00600
C00400
600C00
703000
1FC000
ENDCHAR
STARTCHAR h
ENCODING 104
SWIDTH 610 0
DWIDTH 23 0
BBX 21 28 0 0
BITMAP
FE0000
1E0000
0E0000
0E0000
0E0000
0E0000
0E0000
0E0000
0E0000
0E0000
0E0000
0E1E00
0E7F00
0EC780
0F03C0
0F01C0
0E01C0
0E01C0
0E01C0
0E01C0
0E01C0
0E01C0
0E01C0
0E01C0
0E01C0
0E01C0
0E01C0
7FCFF8
ENDCHAR
STARTCHAR i
ENCODING 105
SWIDTH 314 0
DWIDTH 12 0
BBX 11 27 0 0
BITMAP
0400
0E00
0E00
0400
0000
0000
0000
0000
0000
0000
FE00
1E00
0E00
0E00
0E00
0E00
0E00
0E00
0E00
0E00
0E00
0E00
0E00
0E00
0E00
0E00
FFE0
ENDCHAR
STARTCHAR j
ENCODING 106
SWIDTH 295 0
DWIDTH 11 0
BBX 9 35 -2 -8
BITMAP
0180
0380
0380
0180
0000
0000
0000
0000
0000
0000
3F80
0780
0380
0380
0380
0380
0380
0380
0380
0380
0380
0380
0380
0380
0380
0380
0380
0380
0380
0380
0300
C300
E600
E400
7800
ENDCHAR
STARTCHAR k
ENCODING 107
SWIDTH 592 0
DWIDTH 23 0
BBX 22 28 0 0
BITMAP
FE0000
1E0000
0E0000
0E0000
0E0000
0E0000
0E0000
0E0000
0E0000
0E0000
0E0000
0E0FF8
0E03E0
0E0180
0E0300
0E0400
0E1800
0E3000
0EF800
0F3C00
0E1E00
0E0F00
0E0780
0E0380
0E01C0
0E01E0
0E01F0
FFCFFC
ENDCHAR
STARTCHAR l
ENCODING 108
SWIDTH 314 0
DWIDTH 12 0
BBX 11 28 0 0
BITMAP
FE00
1E00
0E00
0E00
0E00
0E00
0E00
0E00
0E00
0E00
0E00
0E00
0E00
0E00
0E00
0E00
0E00
0E00
0E00
0E00
0E00
0E00
0E00
0E00
0E00
0E00
0E00
FFE0
ENDCHAR
STARTCHAR m
ENCODING 109
SWIDTH 889 0
DWIDTH 34 0
BBX 31 17 1 0
BITMAP
F87C0F80
3CFF1FE0
1D8F31E0
1E07C0F0
1E03C070
1C038070
1C038070
1C038070
1C038070
1C038070
1C038070
1C038070
1C038070
1C038070
1C038070
1C038070
FF9FF3FE
ENDCHAR
STARTCHAR n
ENCODING 110
SWIDTH 610 0
DWIDTH 23 0
BBX 20 17 1 0
BITMAP
F87C00
3CFF00
1D8F00
1E0780
1E0380
1C0380
1C0380
1C0380
1C0380
1C0380
1C0380
1C0380
1C0380
1C0380
1C0380
1C0380
FF9FF0
ENDCHAR
STARTCHAR o
ENCODING 111
SWIDTH 500 0
DWIDTH 19 0
BBX 16 17 1 0
BITMAP
07E0
1C38
381C
700E
700E
E007
E007
E007
E007
E007
E007
E007
700E
700E
381C
1C38
07E0
ENDCHAR
STARTCHAR p
ENCODING 112
SWIDTH 574 0
DWIDTH 22 0
BBX 19 25 0 -8
BITMAP
FCFC00
3D0700
1E0380
1C01C0
1C01C0
1C00E0
1C00E0
1C00E0
1C00E0
1C00E0
1C00E0
1C00E0
1C01C0
1C01C0
1E0380
1D0700
1CFC00
1C0000
1C0000
1C0000
1C0000
1C0000
1C0000
1C0000
FF8000
ENDCHAR
STARTCHAR q
ENCODING 113
SWIDTH 556 0
DWIDTH 21 0
BBX 19 25 2 -8
BITMAP
07E100
1C3B00
381F00
300F00
700F00
600700
E00700
E00700
E00700
E00700
E00700
E00700
700700
700700
380F00
1C1700
07E700
000700
000700
000700
000700
000700
000700
000700
003FE0
ENDCHAR
STARTCHAR r
ENCODING 114
SWIDTH 443 0
DWIDTH 17 0
BBX 15 17 1 0
BITMAP
FC3C
3C7E
1CCE
1D8E
1D0E
1E0C
1E00
1C00
1C00
1C00
1C00
1C00
1C00
1C00
1C00
1C00
FFC0
ENDCHAR
STARTCHAR s
ENCODING 115
SWIDTH 462 0
DWIDTH 18 0
BBX 14 17 2 0
BITMAP
1F98
3078
4038
C018
C008
E000
FC00
7FE0
3FF8
07F8
003C
800C
C00C
C00C
E018
F830
CFC0
ENDCHAR
STARTCHAR t
ENCODING 116
SWIDTH 389 0
DWIDTH 15 0
BBX 13 24 0 0
BITMAP
0400
0400
0400
0C00
0C00
1C00
3C00
FFF0
1C00
1C00
1C00
1C00
1C00
1C00
1C00
1C00
1C00
1C08
1C08
1C08
1C10
1C10
0E20
07C0
ENDCHAR
STARTCHAR u
ENCODING 117
SWIDTH 610 0
DWIDTH 23 0
BBX 20 17 1 0
BITMAP
FC1F80
3C0780
1C0380
1C0380
1C0380
1C0380
1C0380
1C0380
1C0380
1C0380
1C0380
1C0380
1C0780
1E0780
0F1B80
07F3C0
03C3F0
ENDCHAR
STARTCHAR v
ENCODING 118
SWIDTH 537 0
DWIDTH 20 0
BBX 20 17 -1 0
BITMAP
FF87F0
3E01E0
1C00C0
1C0080
0E0180
0E0100
070100
078200
038200
03C400
01C400
01EC00
00E800
00F800
007000
007000
002000
ENDCHAR
STARTCHAR w
ENCODING 119
SWIDTH 777 0
DWIDTH 30 0
BBX 27 17 0 0
BITMAP
FF3FC7E0
380F01C0
380F0180
1C070100
1C0F0100
1E0F8200
0E0B8200
0E138200
0711C400
0711C400
07A1E800
03A0E800
03A0E800
01C07000
01C07000
01C07000
00802000
ENDCHAR
STARTCHAR x
ENCODING 120
SWIDTH 537 0
DWIDTH 20 0
BBX 19 17 1 0
BITMAP
FF9FC0
3E0700
1E0400
0E0800
071000
079000
03E000
01C000
00E000
00F000
017800
023800
041C00
041E00
080F00
380780
FE3FE0
ENDCHAR
STARTCHAR y
ENCODING 121
SWIDTH 537 0
DWIDTH 20 0
BBX 19 25 0 -8
BITMAP
FF8FE0
3E0380
1E0100
1C0100
0E0200
0E0200
0F0200
070400
070400
038800
038800
03C800
01D000
01D000
00F000
00E000
00E000
006000
004000
004000
608000
E18000
E30000
FE0000
780000
ENDCHAR
STARTCHAR z
ENCODING 122
SWIDTH 480 0
DWIDTH 18 0
BBX 14 17 2 0
BITMAP
FFFC
E03C
C078
C070
80E0
81E0
01C0
0380
0780
0700
0E04
1E04
3C0C
380C
780C
F03C
FFFC
ENDCHAR
ENDFONT
