STARTFONT 2.1
FONT -FontForge-Georgia-Bold-R-Normal--75-720-75-75-P-468-ISO10646-1
SIZE 72 75 75
FONTBOUNDINGBOX 94 73 -9 -16
COMMENT "Generated by fontforge, http://fontforge.sourceforge.net"
COMMENT "(c) 2016 Microsoft Corporation. All Rights Reserved."
STARTPROPERTIES 38
FOUNDRY "FontForge"
FAMILY_NAME "Georgia"
WEIGHT_NAME "Bold"
SLANT "R"
SETWIDTH_NAME "Normal"
ADD_STYLE_NAME ""
PIXEL_SIZE 75
POINT_SIZE 720
RESOLUTION_X 75
RESOLUTION_Y 75
SPACING "P"
AVERAGE_WIDTH 468
CHARSET_REGISTRY "ISO10646"
CHARSET_ENCODING "1"
FONTNAME_REGISTRY ""
CHARSET_COLLECTIONS "ISO10646-1"
FONT_NAME "Georgia-Bold"
FACE_NAME "Georgia Bold"
COPYRIGHT "(c) 2016 Microsoft Corporation. All Rights Reserved."
FONT_VERSION "5.59"
FONT_ASCENT 60
FONT_DESCENT 15
UNDERLINE_POSITION -9
UNDERLINE_THICKNESS 5
X_HEIGHT 35
CAP_HEIGHT 51
RAW_ASCENT 799
RAW_DESCENT 200
RELATIVE_WEIGHT 70
RELATIVE_SETWIDTH 50
SUPERSCRIPT_X 0
SUPERSCRIPT_Y 19
SUPERSCRIPT_SIZE 48
SUBSCRIPT_X 0
SUBSCRIPT_Y 5
SUBSCRIPT_SIZE 48
AVG_LOWERCASE_WIDTH 437
AVG_UPPERCASE_WIDTH 577
ENDPROPERTIES
CHARS 96
STARTCHAR exclam
ENCODING 33
SWIDTH 376 0
DWIDTH 28 0
BBX 14 54 7 -1
BITMAP
0FC0
1FE0
3FF0
7FF8
FFFC
FFFC
FFFC
FFFC
FFFC
FFFC
FFFC
7FF8
7FF8
7FF8
7FF8
3FF0
3FF0
3FF0
3FF0
3FE0
1FE0
1FE0
1FE0
1FE0
0FC0
0FC0
0FC0
0FC0
0FC0
0780
0780
0780
0780
0780
0780
0300
0000
0000
0000
0000
0FC0
1FE0
3FF0
7FF8
FFFC
FFFC
FFFC
FFFC
FFFC
FFFC
7FF8
3FF0
1FE0
0FC0
ENDCHAR
STARTCHAR quotedbl
ENCODING 34
SWIDTH 509 0
DWIDTH 38 0
BBX 29 26 4 30
BITMAP
1F800FC0
3FC01FE0
7FE03FF0
FFF07FF8
FFF07FF8
FFF07FF8
FFF07FF8
FFF07FF8
FFF07FF8
7FE03FF0
7FE03FF0
7FE03FF0
7FE03FF0
3FC01FE0
3FC01FE0
3FC01FE0
1F800FC0
1F800FC0
1F800FC0
1F800FC0
0F000780
0F000780
0F000780
0F000780
0F000780
06000300
ENDCHAR
STARTCHAR numbersign
ENCODING 35
SWIDTH 703 0
DWIDTH 53 0
BBX 41 47 6 0
BITMAP
00003E00F800
00003E01F800
00007C01F000
00007C01F000
00007C03F000
0000FC03E000
0000F803E000
0000F803E000
0001F807C000
0001F007C000
0001F007C000
0001F00FC000
0003F00F8000
3FFFFFFFFF80
3FFFFFFFFF80
3FFFFFFFFF80
3FFFFFFFFF80
3FFFFFFFFF80
3FFFFFFFFF80
000F803E0000
000F803E0000
000F807E0000
001F007C0000
001F007C0000
001F007C0000
003F00F80000
003E00F80000
003E00F80000
003E01F00000
FFFFFFFFFE00
FFFFFFFFFE00
FFFFFFFFFE00
FFFFFFFFFE00
FFFFFFFFFE00
FFFFFFFFFE00
01F807C00000
01F007C00000
01F007C00000
01F00FC00000
03E00F800000
03E00F800000
03E01F800000
07E01F000000
07C01F000000
07C01F000000
0FC03E000000
0F803E000000
ENDCHAR
STARTCHAR dollar
ENCODING 36
SWIDTH 640 0
DWIDTH 48 0
BBX 40 67 4 -11
BITMAP
00001C0000
00001C0000
00001C0000
00001C0000
00001C0000
00001C0000
00001C0000
00001C0000
0001FFE000
001FFFFE00
007FFFFF80
01FF1C3FE0
03FC1C07F0
07F01C0FF8
0FE01C0FFC
1FE01C1FFC
1FC01C1FFE
3FC01C1FFE
3FC01C1FFE
7FC01C1FFE
7FC01C1FFE
7FE01C0FFC
7FE01C07F8
7FF01C03F0
7FF81C0000
7FFF1C0000
7FFFFF0000
3FFFFFF800
3FFFFFFF00
1FFFFFFFC0
1FFFFFFFE0
0FFFFFFFF0
07FFFFFFF8
03FFFFFFFC
00FFFFFFFC
003FFFFFFE
0007FFFFFE
00001FFFFF
00001C3FFF
1F801C0FFF
3FC01C07FF
7FE01C03FF
7FF01C03FF
FFF01C01FF
FFF01C01FF
FFF01C01FE
FFF01C01FE
FFF01C01FE
7FE01C03FC
7FE01C03F8
3FE01C07F8
1FC01C07F0
0FF01C1FC0
03FE1C7F80
00FFFFFE00
003FFFF800
0003FFC000
00001C0000
00001C0000
00001C0000
00001C0000
00001C0000
00001C0000
00001C0000
00001C0000
00001C0000
00001C0000
ENDCHAR
STARTCHAR percent
ENCODING 37
SWIDTH 879 0
DWIDTH 66 0
BBX 60 54 3 -1
BITMAP
003FE00000000000
01FFFC000000FE00
03FFFE000000FC00
0FF8FF800001F800
1FF07FC00003F000
1FE03FC00007E000
3FE03FE0000FC000
7FE03FF0001FC000
7FC01FF0003F8000
7FC01FF0003F0000
FFC01FF8007E0000
FFC01FF800FC0000
FFC01FF801F80000
FFC01FF803F00000
FFC01FF807F00000
FFC01FF807E00000
FFC01FF80FC00000
7FC01FF01F800000
7FC01FF03F000000
7FE03FF07E000000
3FE03FE0FE000000
3FE03FC0FC000000
1FF07FC1F8000000
0FF8FF83F0000000
03FFFE07E0000000
01FFF80FC0000000
003FE01FC0000000
0000003F807FC000
0000003F03FFF800
0000007E07FFFC00
000000FC1FF1FF00
000001F83FE0FF80
000003F03FC07F80
000007F07FC07FC0
000007E0FFC07FE0
00000FC0FF803FE0
00001F80FF803FE0
00003F01FF803FF0
00007E01FF803FF0
0000FE01FF803FF0
0000FC01FF803FF0
0001F801FF803FF0
0003F001FF803FF0
0007E001FF803FF0
000FC000FF803FE0
001FC000FF803FE0
003F8000FFC07FE0
003F00007FC07FC0
007E00007FC07F80
00FC00003FE0FF80
01F800001FF1FF00
03F0000007FFFC00
07F0000003FFF000
00000000007FC000
ENDCHAR
STARTCHAR ampersand
ENCODING 38
SWIDTH 799 0
DWIDTH 60 0
BBX 57 54 3 -1
BITMAP
00007FC000000000
0003FFF800000000
0007FFFC00000000
001FFFFE00000000
003FF87F00000000
007FF03F80000000
00FFF01F80000000
00FFE00FC0000000
00FFE00FC0000000
01FFE00FC0000000
01FFE00FC0000000
01FFE00FC0000000
01FFF00FC0000000
01FFF00FC0000000
01FFF81F80000000
01FFF81F80000000
00FFFC1F00000000
00FFFC3F00000000
00FFFE3E00000000
007FFF7C00000000
003FFFF80FFFFF00
003FFFF00FFFFF00
001FFFC00FFFFF00
000FFFE003FFF000
000FFFE0007FC000
000FFFF0003F8000
003FFFF8003F0000
00FFFFFC003E0000
01FDFFFE003C0000
07F8FFFE007C0000
0FF87FFF00780000
1FF83FFF80780000
1FF01FFFC0F00000
3FF01FFFE0F00000
7FF00FFFE1E00000
7FF007FFF1C00000
7FF003FFFBC00000
FFF001FFFF800000
FFF000FFFF000000
FFF000FFFF000000
FFF0007FFF000000
FFF8003FFF800000
FFF8001FFFC00000
FFFC000FFFE00000
FFFE0007FFF00000
7FFE0007FFF80000
7FFF800FFFFC0000
3FFFE03FFFFF0000
3FFFFFFCFFFFC000
1FFFFFF87FFFF800
0FFFFFE07FFFFF80
03FFFFC03FFFFF80
00FFFF001FFFFF80
001FF00000000000
ENDCHAR
STARTCHAR quotesingle
ENCODING 39
SWIDTH 269 0
DWIDTH 20 0
BBX 12 26 4 30
BITMAP
1F80
3FC0
7FE0
FFF0
FFF0
FFF0
FFF0
FFF0
FFF0
7FE0
7FE0
7FE0
7FE0
3FC0
3FC0
3FC0
1F80
1F80
1F80
1F80
0F00
0F00
0F00
0F00
0F00
0600
ENDCHAR
STARTCHAR parenleft
ENCODING 40
SWIDTH 446 0
DWIDTH 34 0
BBX 27 68 4 -12
BITMAP
000000E0
000007E0
00003FE0
0000FF80
0003FE00
0007F800
000FF000
003FE000
007FE000
00FFC000
00FF8000
01FF8000
03FF0000
07FF0000
07FF0000
0FFE0000
0FFE0000
1FFE0000
1FFC0000
3FFC0000
3FFC0000
3FFC0000
7FFC0000
7FFC0000
7FF80000
7FF80000
7FF80000
FFF80000
FFF80000
FFF80000
FFF80000
FFF80000
FFF80000
FFF80000
FFF80000
FFF80000
FFF80000
FFF80000
FFF80000
FFF80000
FFF80000
7FF80000
7FF80000
7FF80000
7FFC0000
7FFC0000
3FFC0000
3FFC0000
3FFC0000
1FFC0000
1FFE0000
0FFE0000
0FFE0000
07FF0000
07FF0000
03FF0000
01FF8000
00FF8000
00FFC000
007FE000
003FE000
000FF000
0007FC00
0003FE00
0000FF80
00003FE0
000007E0
000000E0
ENDCHAR
STARTCHAR parenright
ENCODING 41
SWIDTH 446 0
DWIDTH 34 0
BBX 27 68 2 -12
BITMAP
E0000000
FC000000
FF800000
3FE00000
0FF80000
07FC0000
01FE0000
00FF8000
00FFC000
007FE000
003FE000
003FF000
001FF800
001FFC00
001FFC00
000FFE00
000FFE00
000FFF00
0007FF00
0007FF80
0007FF80
0007FF80
0007FFC0
0007FFC0
0003FFC0
0003FFC0
0003FFC0
0003FFE0
0003FFE0
0003FFE0
0003FFE0
0003FFE0
0003FFE0
0003FFE0
0003FFE0
0003FFE0
0003FFE0
0003FFE0
0003FFE0
0003FFE0
0003FFE0
0003FFC0
0003FFC0
0007FFC0
0007FFC0
0007FFC0
0007FF80
0007FF80
0007FF80
0007FF00
000FFF00
000FFE00
000FFE00
001FFC00
001FFC00
001FF800
003FF000
003FE000
007FE000
00FFC000
00FF8000
01FE0000
07FC0000
0FF80000
3FE00000
FF800000
FC000000
E0000000
ENDCHAR
STARTCHAR asterisk
ENCODING 42
SWIDTH 481 0
DWIDTH 36 0
BBX 30 26 3 27
BITMAP
00E01E00
03F03F00
03F03F00
03F87F00
01F87F00
01F87E00
00F87C00
007CF800
003CF000
001DE000
7C0FC0F8
FFE79FFC
FFFFFFFC
FFFFFFFC
FFC78FFC
7C0FC0F8
001CE000
003CF000
007CF800
00F87C00
01F87E00
03F87E00
03F87F00
03F03F00
03F03F00
01E01C00
ENDCHAR
STARTCHAR plus
ENCODING 43
SWIDTH 703 0
DWIDTH 53 0
BBX 40 40 6 1
BITMAP
00007E0000
00007E0000
00007E0000
00007E0000
00007E0000
00007E0000
00007E0000
00007E0000
00007E0000
00007E0000
00007E0000
00007E0000
00007E0000
00007E0000
00007E0000
00007E0000
00007E0000
FFFFFFFFFF
FFFFFFFFFF
FFFFFFFFFF
FFFFFFFFFF
FFFFFFFFFF
FFFFFFFFFF
00007E0000
00007E0000
00007E0000
00007E0000
00007E0000
00007E0000
00007E0000
00007E0000
00007E0000
00007E0000
00007E0000
00007E0000
00007E0000
00007E0000
00007E0000
00007E0000
00007E0000
ENDCHAR
STARTCHAR comma
ENCODING 44
SWIDTH 328 0
DWIDTH 25 0
BBX 15 27 5 -15
BITMAP
0FC0
3FE0
7FF8
7FF8
FFFC
FFFC
FFFE
FFFE
7FFE
7FFE
3FFE
0FFE
003E
003E
003C
007C
0078
00F8
01F0
01E0
03E0
07C0
1F80
7E00
FC00
7800
6000
ENDCHAR
STARTCHAR hyphen
ENCODING 45
SWIDTH 378 0
DWIDTH 28 0
BBX 22 8 3 16
BITMAP
FFFFFC
FFFFFC
FFFFFC
FFFFFC
FFFFFC
FFFFFC
FFFFFC
FFFFFC
ENDCHAR
STARTCHAR period
ENCODING 46
SWIDTH 328 0
DWIDTH 25 0
BBX 14 14 5 -1
BITMAP
0FC0
1FE0
3FF0
7FF8
FFFC
FFFC
FFFC
FFFC
FFFC
FFFC
7FF8
3FF0
1FE0
0FC0
ENDCHAR
STARTCHAR slash
ENCODING 47
SWIDTH 471 0
DWIDTH 35 0
BBX 32 72 1 -16
BITMAP
0000007F
0000007E
0000007E
000000FE
000000FC
000000FC
000001FC
000001F8
000001F8
000003F8
000003F0
000003F0
000007F0
000007E0
00000FE0
00000FC0
00000FC0
00001FC0
00001F80
00001F80
00003F80
00003F00
00003F00
00007F00
00007E00
00007E00
0000FE00
0000FC00
0001FC00
0001F800
0001F800
0003F800
0003F000
0003F000
0007F000
0007E000
0007E000
000FE000
000FC000
000FC000
001FC000
001F8000
001F8000
003F0000
003F0000
007F0000
007E0000
007E0000
00FE0000
00FC0000
00FC0000
01FC0000
01F80000
01F80000
03F80000
03F00000
03F00000
07E00000
07E00000
0FE00000
0FC00000
0FC00000
1FC00000
1F800000
1F800000
3F800000
3F000000
3F000000
7F000000
7E000000
7E000000
FC000000
ENDCHAR
STARTCHAR zero
ENCODING 48
SWIDTH 701 0
DWIDTH 53 0
BBX 45 41 4 -1
BITMAP
00007FF00000
0007FFFF0000
001FFFFFC000
007FF07FF000
00FFC01FF800
03FF800FFE00
07FF800FFF00
0FFF0007FF80
0FFF0007FF80
1FFE0003FFC0
3FFE0003FFE0
3FFE0003FFE0
7FFE0003FFE0
7FFC0001FFF0
7FFC0001FFF0
7FFC0001FFF0
FFFC0001FFF8
FFFC0001FFF8
FFFC0001FFF8
FFFC0001FFF8
FFFC0001FFF8
FFFC0001FFF8
FFFC0001FFF8
FFFC0001FFF8
FFFC0001FFF8
7FFC0001FFF0
7FFC0001FFF0
7FFC0001FFF0
7FFE0003FFF0
3FFE0003FFE0
3FFE0003FFE0
1FFE0003FFC0
0FFF0007FF80
0FFF0007FF80
07FF800FFF00
03FF800FFE00
00FFC01FF800
007FF07FF000
001FFFFFC000
0007FFFF0000
00007FF00000
ENDCHAR
STARTCHAR one
ENCODING 49
SWIDTH 489 0
DWIDTH 37 0
BBX 30 40 5 0
BITMAP
0003F800
0003F800
0007F800
001FF800
007FF800
03FFF800
FFFFF800
FFFFF800
FFFFF800
007FF800
007FF800
007FF800
007FF800
007FF800
007FF800
007FF800
007FF800
007FF800
007FF800
007FF800
007FF800
007FF800
007FF800
007FF800
007FF800
007FF800
007FF800
007FF800
007FF800
007FF800
007FF800
007FF800
007FF800
007FF800
007FFC00
00FFFE00
0FFFFFC0
FFFFFFFC
FFFFFFFC
FFFFFFFC
ENDCHAR
STARTCHAR two
ENCODING 50
SWIDTH 626 0
DWIDTH 47 0
BBX 40 40 4 0
BITMAP
0007FF8000
007FFFF800
01FFFFFF00
07F01FFFC0
0FF007FFE0
3FF003FFF0
3FF001FFF0
7FF801FFF8
FFF800FFF8
FFF800FFFC
FFF800FFFC
FFF800FFFC
FFF800FFFC
FFF800FFFC
7FF000FFFC
3FE001FFFC
1F8001FFF8
000003FFF8
000003FFF0
000007FFE0
00001FFFC0
00003FFF00
0000FFFC00
0001FFE000
0007FF0000
001FF00000
007F000000
01F8000000
03E0000000
0780000000
1FFFFFFFFF
3FFFFFFFFF
7FFFFFFFFF
FFFFFFFFFF
FFFFFFFFFF
FFFFFFFFFF
FFFFFFFFFF
FFFFFFFFFF
FFFFFFFFFF
FFFFFFFFFF
ENDCHAR
STARTCHAR three
ENCODING 51
SWIDTH 624 0
DWIDTH 47 0
BBX 41 54 2 -14
BITMAP
0001FFE00000
001FFFFC0000
007FFFFF8000
01FC07FFC000
07FC01FFF000
0FFC00FFF000
1FFC007FF800
1FFC007FFC00
3FFE003FFC00
3FFE003FFE00
3FFE003FFE00
3FFE003FFE00
3FFE003FFE00
1FFE003FFE00
1FFC003FFE00
0FF8003FFC00
07E0003FFC00
0000007FF800
0000007FF800
000000FFF000
000000FFE000
000003FFC000
00000FFF0000
0007FFF80000
0007FFC00000
0007FFF80000
0007FFFF8000
0007FFFFE000
000007FFF000
000000FFFC00
0000007FFC00
0000007FFE00
0000003FFF00
0000003FFF00
0000001FFF80
0000001FFF80
0000001FFF80
0F80001FFF80
3FE0001FFF80
7FF0001FFF80
7FF8001FFF80
FFF8001FFF80
FFF8001FFF00
FFF8003FFF00
FFF8003FFE00
FFF8003FFE00
7FF0007FFC00
7FF000FFF800
3FF001FFF000
1FF003FFC000
07F00FFF8000
03FFFFFE0000
00FFFFF00000
000FFF000000
ENDCHAR
STARTCHAR four
ENCODING 52
SWIDTH 649 0
DWIDTH 49 0
BBX 45 54 2 -14
BITMAP
0000001FF800
0000003FF800
0000007FF800
000000FFF800
000001FFF800
000003FFF800
000003FFF800
000007FFF800
00000FFFF800
00001F7FF800
00003E7FF800
00003C7FF800
00007C7FF800
0000F87FF800
0001F07FF800
0003E07FF800
0003C07FF800
0007C07FF800
000F807FF800
001F007FF800
003E007FF800
007C007FF800
0078007FF800
00F8007FF800
01F0007FF800
03E0007FF800
07C0007FF800
0780007FF800
0F80007FF800
1F00007FF800
3E00007FF800
7C00007FF800
FFFFFFFFFFF8
FFFFFFFFFFF8
FFFFFFFFFFF8
FFFFFFFFFFF8
FFFFFFFFFFF8
FFFFFFFFFFF8
FFFFFFFFFFF8
FFFFFFFFFFF8
0000007FF800
0000007FF800
0000007FF800
0000007FF800
0000007FF800
0000007FF800
0000007FF800
0000007FF800
0000007FF800
0000007FF800
0000007FF800
0000007FF800
0000007FF800
0000007FF800
ENDCHAR
STARTCHAR five
ENCODING 53
SWIDTH 599 0
DWIDTH 45 0
BBX 40 54 2 -14
BITMAP
00FFFFFFFC
00FFFFFFFC
00FFFFFFFC
01FFFFFFFC
01FFFFFFFC
01FFFFFFFC
01FFFFFFFC
01FFFFFFFC
01FFFFFFFC
01FFFFFFFC
03C0000000
03C0000000
03C0000000
03C0000000
03C0000000
03C0000000
03C0000000
0780000000
0780000000
0780FFC000
0787FFFC00
07BFFFFF00
07FFFFFFC0
07FFFFFFE0
0FF80FFFF0
0FC003FFF8
0F8001FFFC
060000FFFC
0000007FFE
0000003FFE
0000003FFE
0000003FFF
0000001FFF
0000001FFF
0000001FFF
0000001FFF
0000001FFF
0F80001FFF
3FE0001FFF
7FF0001FFF
7FF8001FFE
FFF8003FFE
FFF8003FFE
FFF8003FFC
FFF8007FFC
FFF8007FF8
7FF000FFF0
7FF001FFE0
3FF003FFC0
1FF007FF80
07F01FFE00
03FFFFF800
00FFFFE000
000FFF0000
ENDCHAR
STARTCHAR six
ENCODING 54
SWIDTH 647 0
DWIDTH 49 0
BBX 42 54 4 -1
BITMAP
00000001C000
0000003FE000
000001FFE000
00000FFF0000
00003FF00000
0000FFC00000
0003FF000000
0007FE000000
001FF8000000
003FF0000000
007FE0000000
00FFE0000000
01FFC0000000
03FF80000000
03FF80000000
07FF00000000
0FFF00000000
0FFE00000000
1FFE00000000
1FFE00000000
3FFC03FE0000
3FFC3FFF8000
7FFCFFFFE000
7FFDFFFFF000
7FFBFFFFFC00
7FFF80FFFC00
FFFF007FFE00
FFFC003FFF00
FFF8001FFF00
FFF8001FFF80
FFF8000FFF80
FFF8000FFF80
FFF8000FFFC0
FFF80007FFC0
FFF80007FFC0
FFF80007FFC0
FFF80007FFC0
FFF80007FFC0
7FF80007FFC0
7FF80007FFC0
7FF80007FF80
3FFC0007FF80
3FFC0007FF80
3FFC000FFF00
1FFC000FFF00
0FFE000FFE00
0FFE001FFC00
07FF001FFC00
03FF803FF800
01FF807FE000
007FE0FFC000
003FFFFF0000
000FFFFC0000
0000FFC00000
ENDCHAR
STARTCHAR seven
ENCODING 55
SWIDTH 554 0
DWIDTH 42 0
BBX 39 53 3 -14
BITMAP
FFFFFFFFFE
FFFFFFFFFE
FFFFFFFFFE
FFFFFFFFFE
FFFFFFFFFE
FFFFFFFFFC
FFFFFFFFFC
FFFFFFFFF8
FFFFFFFFF8
FFFFFFFFF0
FE000001F0
F8000003E0
F8000003E0
F0000007C0
F0000007C0
F000000F80
E000000F00
E000001F00
0000003E00
0000003E00
0000007C00
0000007C00
000000F800
000000F800
000001F000
000001F000
000003E000
000007E000
000007C000
00000F8000
00000F8000
00001F0000
00001F0000
00003E0000
00007E0000
00007C0000
0000FC0000
0000F80000
0001F80000
0001F00000
0003F00000
0007E00000
0007C00000
000FC00000
000F800000
001F800000
001F000000
003F000000
003E000000
007E000000
00FC000000
00FC000000
01F8000000
ENDCHAR
STARTCHAR eight
ENCODING 56
SWIDTH 676 0
DWIDTH 51 0
BBX 43 54 4 -1
BITMAP
00007FF00000
0007FFFF0000
001FFFFFC000
007FE0FFF000
01FF803FF800
03FF001FFC00
07FE000FFE00
0FFE000FFF00
0FFC000FFF00
1FFC0007FF80
1FFC0007FF80
3FFC0007FF80
3FFC0007FF80
3FFC0007FF80
3FFE0007FF80
3FFE0007FF80
3FFF0007FF00
3FFF8007FF00
1FFFE00FFE00
1FFFF80FFC00
0FFFFE0FF800
0FFFFF8FE000
07FFFFFFC000
03FFFFFE0000
01FFFFFE0000
00FFFFFFC000
003FFFFFE000
001FFFFFF800
001FFFFFFC00
00FFFFFFFE00
03FC7FFFFF00
0FFC0FFFFF80
1FF803FFFFC0
3FF800FFFFC0
3FF8003FFFC0
7FF0000FFFE0
7FF00007FFE0
FFF00003FFE0
FFF00003FFE0
FFF00001FFE0
FFF00001FFE0
FFF00001FFE0
FFF00001FFC0
FFF00001FFC0
7FF80001FF80
7FF80003FF80
3FFC0003FF00
1FFC0007FE00
0FFE0007FC00
07FF001FF800
03FFC07FF000
00FFFFFFC000
003FFFFE0000
0003FFE00000
ENDCHAR
STARTCHAR nine
ENCODING 57
SWIDTH 647 0
DWIDTH 49 0
BBX 42 54 3 -14
BITMAP
0000FFC00000
000FFFFC0000
003FFFFF0000
00FFC1FF8000
01FF807FE000
07FF007FF000
0FFE003FF800
1FFE001FFC00
1FFC001FFC00
3FFC000FFE00
3FFC000FFF00
7FF8000FFF00
7FF8000FFF00
FFF8000FFF80
FFF80007FF80
FFF80007FF80
FFF80007FFC0
FFF80007FFC0
FFF80007FFC0
FFF80007FFC0
FFF80007FFC0
FFFC0007FFC0
7FFC0007FFC0
7FFC0007FFC0
7FFE0007FFC0
3FFE0007FFC0
3FFF000FFFC0
1FFF803FFFC0
0FFFE0FFFF80
07FFFFFFFF80
03FFFFEFFF80
01FFFFCFFF80
007FFF0FFF00
001FF80FFF00
0000001FFE00
0000001FFE00
0000001FFC00
0000003FFC00
0000003FF800
0000007FF000
0000007FF000
000000FFE000
000000FFC000
000001FF8000
000003FF0000
000007FC0000
00001FF80000
00003FF00000
0000FFC00000
0003FF000000
003FFC000000
01FFE0000000
01FF00000000
00E000000000
ENDCHAR
STARTCHAR colon
ENCODING 58
SWIDTH 367 0
DWIDTH 28 0
BBX 14 37 7 -1
BITMAP
0FC0
1FE0
3FF0
7FF8
FFFC
FFFC
FFFC
FFFC
FFFC
FFFC
7FF8
3FF0
1FE0
0FC0
0000
0000
0000
0000
0000
0000
0000
0000
0000
0FC0
1FE0
3FF0
7FF8
FFFC
FFFC
FFFC
FFFC
FFFC
FFFC
7FF8
3FF0
1FE0
0FC0
ENDCHAR
STARTCHAR semicolon
ENCODING 59
SWIDTH 367 0
DWIDTH 28 0
BBX 15 51 6 -15
BITMAP
0FC0
1FE0
3FF0
7FF8
FFFC
FFFC
FFFC
FFFC
FFFC
FFFC
7FF8
3FF0
1FE0
0FC0
0000
0000
0000
0000
0000
0000
0000
0000
0000
0000
0FC0
3FE0
7FF8
7FF8
FFFC
FFFC
FFFE
FFFE
7FFE
7FFE
3FFE
0FFE
003E
003E
003C
007C
0078
00F8
01F0
01E0
03E0
07C0
1F80
7E00
FC00
7800
6000
ENDCHAR
STARTCHAR less
ENCODING 60
SWIDTH 703 0
DWIDTH 53 0
BBX 37 42 8 0
BITMAP
0000000008
0000000038
00000000F8
00000003F8
0000000FF8
0000003FF8
000000FFF8
000003FFE0
00000FFF80
00003FFE00
0000FFF800
0003FFE000
000FFF8000
003FFE0000
00FFF80000
03FFE00000
0FFF800000
3FFE000000
FFF8000000
FFE0000000
FF80000000
FF80000000
FFE0000000
FFF8000000
3FFE000000
0FFF800000
03FFE00000
00FFF80000
003FFE0000
000FFF8000
0003FFE000
0000FFF800
00003FFE00
00000FFF80
000003FFE0
000000FFF8
0000003FF8
0000000FF8
00000003F8
00000000F8
0000000038
0000000008
ENDCHAR
STARTCHAR equal
ENCODING 61
SWIDTH 703 0
DWIDTH 53 0
BBX 39 21 7 11
BITMAP
FFFFFFFFFE
FFFFFFFFFE
FFFFFFFFFE
FFFFFFFFFE
FFFFFFFFFE
FFFFFFFFFE
0000000000
0000000000
0000000000
0000000000
0000000000
0000000000
0000000000
0000000000
0000000000
FFFFFFFFFE
FFFFFFFFFE
FFFFFFFFFE
FFFFFFFFFE
FFFFFFFFFE
FFFFFFFFFE
ENDCHAR
STARTCHAR greater
ENCODING 62
SWIDTH 703 0
DWIDTH 53 0
BBX 37 42 8 0
BITMAP
8000000000
E000000000
F800000000
FE00000000
FF80000000
FFE0000000
FFF8000000
3FFE000000
0FFF800000
03FFE00000
00FFF80000
003FFE0000
000FFF8000
0003FFE000
0000FFF800
00003FFE00
00000FFF80
000003FFE0
000000FFF8
0000003FF8
0000000FF8
0000000FF8
0000003FF8
000000FFF8
000003FFE0
00000FFF80
00003FFE00
0000FFF800
0003FFE000
000FFF8000
003FFE0000
00FFF80000
03FFE00000
0FFF800000
3FFE000000
FFF8000000
FFE0000000
FF80000000
FE00000000
F800000000
E000000000
8000000000
ENDCHAR
STARTCHAR question
ENCODING 63
SWIDTH 548 0
DWIDTH 41 0
BBX 34 54 3 -1
BITMAP
001FF80000
00FFFF8000
07FFFFE000
0FF01FF000
1FE007F800
3FE003FC00
7FE001FE00
FFF001FF00
FFF000FF80
FFF000FF80
FFF000FF80
FFF000FFC0
FFF000FFC0
7FE000FFC0
3FC000FFC0
1F8001FFC0
000001FFC0
000001FFC0
000003FFC0
000007FF80
00000FFF80
00003FFF80
0001FFFF00
000FFFFF00
000FFFFE00
000FFFFC00
000FFFF800
000FFFF000
000FFFE000
000FFF8000
000FFE0000
000FE00000
000E000000
000E000000
000E000000
000E000000
000E000000
0000000000
0000000000
0000000000
001F800000
003FC00000
007FE00000
00FFF00000
01FFF80000
01FFF80000
01FFF80000
01FFF80000
01FFF80000
01FFF80000
00FFF00000
007FE00000
003FC00000
001F800000
ENDCHAR
STARTCHAR at
ENCODING 64
SWIDTH 966 0
DWIDTH 73 0
BBX 62 62 6 -12
BITMAP
00000007FFC00000
0000007FFFFC0000
000003FFFFFF8000
00001FFFFFFFE000
00007FFC007FF000
0000FFC00007F800
0003FE000001FE00
0007F80000007F00
001FF00000001F80
003FC00000000F80
007F8000000007C0
00FF0000000003E0
01FE0000000001E0
01FC0000000001F0
03F80000000000F0
07F00003F8FFC0F8
07F0001FFCFF8078
0FE0007FFEFF8078
1FC000FF0FFF8078
1FC001FE07FF003C
1F8003FC07FF003C
3F8007F803FF003C
3F800FF003FE003C
7F001FF007FE003C
7F003FE007FE003C
7F003FE007FC003C
7F007FE00FFC003C
FE007FC00FFC003C
FE00FFC00FF8003C
FE00FFC01FF80038
FE00FFC01FF80078
FE01FF801FF00078
FE01FF803FF00078
FE01FF803FF00070
FE01FF803FE000F0
FE01FF807FE000E0
FE01FF807FC001E0
FE01FF807FC001C0
FF01FF80FFC003C0
7F01FFC1FFC00780
7F00FFC3FFC00F00
7F00FFFFFFC01E00
7F807FFF3FE0FC00
3F803FFE1FFFF000
3F801FFC0FFFC000
1FC007F001FE0000
1FC0000000000000
0FE0000000000000
0FF0000000000000
07F0000000000000
03F8000000000000
01FC000000000000
00FE000000000800
007F800000003800
003FC0000000FC00
001FF0000003F000
0007FE00000FE000
0003FFE001FF8000
0000FFFFFFFF0000
00001FFFFFFC0000
000003FFFFE00000
0000003FFE000000
ENDCHAR
STARTCHAR A
ENCODING 65
SWIDTH 758 0
DWIDTH 57 0
BBX 61 52 -2 0
BITMAP
0000001FE0000000
0000001FE0000000
0000003FF0000000
0000003FF0000000
0000007FF8000000
0000007FF8000000
0000007FF8000000
000000FFFC000000
000000FFFC000000
000001FFFE000000
000001FFFE000000
000003FFFE000000
000003FFFF000000
000003BFFF000000
0000079FFF800000
0000071FFF800000
00000F1FFF800000
00000F0FFFC00000
00000E0FFFC00000
00001E07FFE00000
00001C07FFE00000
00003C07FFF00000
00003C03FFF00000
00007803FFF00000
00007801FFF80000
00007001FFF80000
0000F001FFFC0000
0000F000FFFC0000
0001E000FFFC0000
0001E0007FFE0000
0001C0007FFE0000
0003FFFFFFFF0000
0003FFFFFFFF0000
0007FFFFFFFF0000
0007FFFFFFFF8000
000F00001FFF8000
000F00000FFFC000
000F00000FFFC000
001E00000FFFC000
001E000007FFE000
003C000007FFE000
003C000003FFF000
007C000003FFF000
0078000001FFF800
00F8000001FFF800
00F8000001FFFC00
01F8000000FFFC00
03FC000001FFFF00
1FFF80000FFFFFC0
FFFFF8007FFFFFF8
FFFFF8007FFFFFF8
FFFFF8007FFFFFF8
ENDCHAR
STARTCHAR B
ENCODING 66
SWIDTH 757 0
DWIDTH 57 0
BBX 52 52 2 0
BITMAP
FFFFFFFFF00000
FFFFFFFFFF8000
FFFFFFFFFFE000
1FFFF807FFF800
03FFF801FFFC00
01FFF800FFFE00
00FFF8007FFF00
00FFF8003FFF00
00FFF8003FFF80
00FFF8001FFF80
00FFF8001FFF80
00FFF8001FFF80
00FFF8001FFF80
00FFF8001FFF80
00FFF8001FFF80
00FFF8001FFF00
00FFF8003FFF00
00FFF8003FFE00
00FFF8007FFE00
00FFF8007FFC00
00FFF800FFF000
00FFF803FFE000
00FFF80FFF0000
00FFFFFFF80000
00FFFFFFE00000
00FFFFFFFE0000
00FFFFFFFFC000
00FFF807FFF800
00FFF800FFFE00
00FFF8007FFF00
00FFF8003FFF80
00FFF8001FFFC0
00FFF8000FFFC0
00FFF8000FFFE0
00FFF80007FFE0
00FFF80007FFF0
00FFF80007FFF0
00FFF80007FFF0
00FFF80007FFF0
00FFF80007FFF0
00FFF80007FFF0
00FFF80007FFF0
00FFF8000FFFE0
00FFF8000FFFE0
00FFF8001FFFC0
00FFF8001FFFC0
00FFF8003FFF80
01FFFC007FFF00
0FFFFF01FFFC00
FFFFFFFFFFF000
FFFFFFFFFFC000
FFFFFFFFF80000
ENDCHAR
STARTCHAR C
ENCODING 67
SWIDTH 715 0
DWIDTH 54 0
BBX 50 54 3 -1
BITMAP
000001FFE00000
00001FFFFE0F00
0000FFFFFFDF00
0003FFFFFFFF00
000FFF807FFF00
001FFE001FFF00
007FFC0007FF00
00FFF00003FF00
01FFF00001FF00
03FFE00000FF00
03FFC000007F00
07FFC000007F00
0FFF8000003F00
0FFF8000003F00
1FFF8000001F00
1FFF0000001F00
3FFF0000000F00
3FFF0000000F00
7FFF0000000F00
7FFF0000000700
7FFE0000000000
7FFE0000000000
FFFE0000000000
FFFE0000000000
FFFE0000000000
FFFE0000000000
FFFE0000000000
FFFE0000000000
FFFE0000000000
FFFE0000000000
FFFE0000000000
FFFE0000000000
FFFE0000000000
7FFE0000000000
7FFF0000000000
7FFF0000000000
7FFF0000000000
3FFF0000000000
3FFF0000000100
1FFF8000000380
1FFF80000003C0
0FFFC000000780
0FFFC000000F80
07FFE000001F00
03FFE000003E00
03FFF000003C00
01FFF80000FC00
00FFFC0001F800
003FFF0007E000
001FFFE01FC000
0007FFFFFF8000
0001FFFFFE0000
00007FFFF00000
000007FF800000
ENDCHAR
STARTCHAR D
ENCODING 68
SWIDTH 833 0
DWIDTH 63 0
BBX 58 52 2 0
BITMAP
FFFFFFFFC0000000
FFFFFFFFFE000000
FFFFFFFFFFC00000
1FFFF803FFF00000
03FFF8007FFC0000
01FFF8001FFF0000
00FFF8000FFF8000
00FFF80007FFC000
00FFF80003FFE000
00FFF80001FFF000
00FFF80001FFF800
00FFF80000FFFC00
00FFF80000FFFC00
00FFF800007FFE00
00FFF800007FFE00
00FFF800003FFF00
00FFF800003FFF00
00FFF800003FFF80
00FFF800003FFF80
00FFF800003FFF80
00FFF800001FFF80
00FFF800001FFFC0
00FFF800001FFFC0
00FFF800001FFFC0
00FFF800001FFFC0
00FFF800001FFFC0
00FFF800001FFFC0
00FFF800001FFFC0
00FFF800001FFFC0
00FFF800001FFFC0
00FFF800001FFFC0
00FFF800001FFFC0
00FFF800001FFF80
00FFF800001FFF80
00FFF800003FFF80
00FFF800003FFF00
00FFF800003FFF00
00FFF800003FFF00
00FFF800007FFE00
00FFF800007FFC00
00FFF800007FFC00
00FFF80000FFF800
00FFF80000FFF000
00FFF80001FFE000
00FFF80003FFC000
00FFF80007FF8000
00FFFC000FFE0000
01FFFE001FFC0000
07FFFF00FFF00000
FFFFFFFFFF800000
FFFFFFFFFC000000
FFFFFFFFC0000000
ENDCHAR
STARTCHAR E
ENCODING 69
SWIDTH 721 0
DWIDTH 54 0
BBX 50 52 2 0
BITMAP
FFFFFFFFFFFC00
FFFFFFFFFFFC00
FFFFFFFFFFFC00
1FFFF8001FFC00
03FFF80007FC00
01FFF80003FC00
00FFF80001FC00
00FFF80000FC00
00FFF800007C00
00FFF800007C00
00FFF800003C00
00FFF800003C00
00FFF800001C00
00FFF800000000
00FFF8000E0000
00FFF8000E0000
00FFF8001E0000
00FFF8001E0000
00FFF8001E0000
00FFF8003E0000
00FFF8007E0000
00FFF800FE0000
00FFF803FE0000
00FFFFFFFE0000
00FFFFFFFE0000
00FFFFFFFE0000
00FFF803FE0000
00FFF800FE0000
00FFF8007E0000
00FFF8003E0000
00FFF8001E0000
00FFF8001E0000
00FFF8001E0000
00FFF8000E0000
00FFF8000E0000
00FFF800000000
00FFF8000001C0
00FFF8000003C0
00FFF8000003C0
00FFF8000007C0
00FFF8000007C0
00FFF800000FC0
00FFF800000FC0
00FFF800001FC0
00FFF800003F80
00FFF800003F80
00FFFC00007F80
01FFFC0000FF80
0FFFFF0007FF80
FFFFFFFFFFFF80
FFFFFFFFFFFF80
FFFFFFFFFFFF80
ENDCHAR
STARTCHAR F
ENCODING 70
SWIDTH 671 0
DWIDTH 50 0
BBX 47 52 2 0
BITMAP
FFFFFFFFFFFE
FFFFFFFFFFFE
FFFFFFFFFFFE
1FFFF8000FFE
03FFF80003FE
01FFF80001FE
00FFF80000FE
00FFF80000FE
00FFF800007E
00FFF800003E
00FFF800003E
00FFF800001E
00FFF800001E
00FFF800000E
00FFF8000000
00FFF8001C00
00FFF8001C00
00FFF8003C00
00FFF8003C00
00FFF8003C00
00FFF8007C00
00FFF800FC00
00FFF801FC00
00FFF803FC00
00FFFFFFFC00
00FFFFFFFC00
00FFFFFFFC00
00FFF807FC00
00FFF800FC00
00FFF8007C00
00FFF8007C00
00FFF8003C00
00FFF8003C00
00FFF8003C00
00FFF8001C00
00FFF8001C00
00FFF8000000
00FFF8000000
00FFF8000000
00FFF8000000
00FFF8000000
00FFF8000000
00FFF8000000
00FFF8000000
00FFF8000000
00FFF8000000
00FFFC000000
01FFFC000000
0FFFFF800000
FFFFFFF00000
FFFFFFF00000
FFFFFFF00000
ENDCHAR
STARTCHAR G
ENCODING 71
SWIDTH 807 0
DWIDTH 61 0
BBX 58 54 3 -1
BITMAP
000001FFF0000000
00001FFFFF078000
0000FFFFFFEF8000
0003FFFFFFFF8000
000FFFC07FFF8000
003FFE000FFF8000
007FFC0003FF8000
00FFF80001FF8000
01FFF00000FF8000
03FFE000007F8000
07FFC000007F8000
07FFC000003F8000
0FFF8000001F8000
1FFF8000001F8000
1FFF8000000F8000
3FFF0000000F8000
3FFF000000078000
3FFF000000078000
7FFF000000078000
7FFE000000038000
7FFE000000000000
7FFE000000000000
FFFE000000000000
FFFE000000000000
FFFE000000000000
FFFE000000000000
FFFE000000000000
FFFE000000000000
FFFE000000000000
FFFE0001FFFFFFC0
FFFE0001FFFFFFC0
FFFE0001FFFFFFC0
FFFE00003FFFFE00
7FFE000007FFF000
7FFF000003FFE000
7FFF000001FFE000
7FFF000001FFE000
3FFF000001FFE000
3FFF800001FFE000
3FFF800001FFE000
1FFF800001FFE000
1FFFC00001FFE000
0FFFC00001FFE000
07FFE00001FFE000
07FFE00001FFE000
03FFF00001FFE000
01FFF80001FFE000
00FFFC0003FFE000
007FFE000FFFC000
001FFFC03FFF0000
0007FFFFFFFC0000
0001FFFFFFE00000
00007FFFFE000000
000007FFC0000000
ENDCHAR
STARTCHAR H
ENCODING 72
SWIDTH 913 0
DWIDTH 68 0
BBX 64 52 2 0
BITMAP
FFFFFFF00FFFFFFF
FFFFFFF00FFFFFFF
FFFFFFF00FFFFFFF
1FFFFF8003FFFFF0
03FFFC00007FFF80
01FFF800003FFF00
00FFF800001FFF00
00FFF800001FFF00
00FFF800001FFF00
00FFF800001FFF00
00FFF800001FFF00
00FFF800001FFF00
00FFF800001FFF00
00FFF800001FFF00
00FFF800001FFF00
00FFF800001FFF00
00FFF800001FFF00
00FFF800001FFF00
00FFF800001FFF00
00FFF800001FFF00
00FFF800001FFF00
00FFF800001FFF00
00FFF800001FFF00
00FFFFFFFFFFFF00
00FFFFFFFFFFFF00
00FFFFFFFFFFFF00
00FFFFFFFFFFFF00
00FFF800001FFF00
00FFF800001FFF00
00FFF800001FFF00
00FFF800001FFF00
00FFF800001FFF00
00FFF800001FFF00
00FFF800001FFF00
00FFF800001FFF00
00FFF800001FFF00
00FFF800001FFF00
00FFF800001FFF00
00FFF800001FFF00
00FFF800001FFF00
00FFF800001FFF00
00FFF800001FFF00
00FFF800001FFF00
00FFF800001FFF00
00FFF800001FFF00
00FFF800001FFF00
00FFFC00001FFF80
01FFFC00003FFFC0
07FFFF8000FFFFF0
FFFFFFF00FFFFFFF
FFFFFFF00FFFFFFF
FFFFFFF00FFFFFFF
ENDCHAR
STARTCHAR I
ENCODING 73
SWIDTH 445 0
DWIDTH 33 0
BBX 29 52 2 0
BITMAP
FFFFFFF8
FFFFFFF8
FFFFFFF8
1FFFFF80
03FFFC00
01FFF800
00FFF800
00FFF800
00FFF800
00FFF800
00FFF800
00FFF800
00FFF800
00FFF800
00FFF800
00FFF800
00FFF800
00FFF800
00FFF800
00FFF800
00FFF800
00FFF800
00FFF800
00FFF800
00FFF800
00FFF800
00FFF800
00FFF800
00FFF800
00FFF800
00FFF800
00FFF800
00FFF800
00FFF800
00FFF800
00FFF800
00FFF800
00FFF800
00FFF800
00FFF800
00FFF800
00FFF800
00FFF800
00FFF800
00FFF800
00FFF800
00FFFC00
01FFFE00
07FFFF80
FFFFFFF8
FFFFFFF8
FFFFFFF8
ENDCHAR
STARTCHAR J
ENCODING 74
SWIDTH 595 0
DWIDTH 45 0
BBX 42 53 1 -1
BITMAP
0003FFFFFFC0
0003FFFFFFC0
0003FFFFFFC0
00007FFFFE00
00000FFFF000
000007FFE000
000003FFE000
000003FFE000
000003FFE000
000003FFE000
000003FFE000
000003FFE000
000003FFE000
000003FFE000
000003FFE000
000003FFE000
000003FFE000
000003FFE000
000003FFE000
000003FFE000
000003FFE000
000003FFE000
000003FFE000
000003FFE000
000003FFE000
000003FFE000
000003FFE000
000003FFE000
000003FFE000
000003FFE000
000003FFE000
000003FFE000
000003FFE000
0FC003FFE000
1FF003FFE000
3FF803FFE000
7FF803FFE000
7FFC03FFE000
FFFC03FFE000
FFFC03FFE000
FFFC03FFC000
FFFC07FFC000
FFF807FFC000
FFF007FF8000
FFE00FFF8000
7FC00FFF0000
7F801FFE0000
3F803FFC0000
1FC0FFF80000
0FFFFFF00000
07FFFFC00000
01FFFF000000
003FF8000000
ENDCHAR
STARTCHAR K
ENCODING 75
SWIDTH 816 0
DWIDTH 61 0
BBX 61 52 2 0
BITMAP
FFFFFFF81FFFFFC0
FFFFFFF81FFFFFC0
FFFFFFF81FFFFFC0
1FFFFF8001FFFE00
03FFFC00007FE000
01FFF80000FF0000
00FFF80000FE0000
00FFF80001FC0000
00FFF80001F00000
00FFF80003E00000
00FFF80007C00000
00FFF8000F800000
00FFF8001F000000
00FFF8003E000000
00FFF8007C000000
00FFF800F8000000
00FFF801F0000000
00FFF803E0000000
00FFF807C0000000
00FFF80F80000000
00FFF81F00000000
00FFF83F80000000
00FFF87FC0000000
00FFF8FFE0000000
00FFF9FFE0000000
00FFFFFFF0000000
00FFFFFFF8000000
00FFFFFFFC000000
00FFF9FFFC000000
00FFF8FFFE000000
00FFF87FFF000000
00FFF83FFF800000
00FFF83FFFC00000
00FFF81FFFC00000
00FFF80FFFE00000
00FFF807FFF00000
00FFF803FFF80000
00FFF803FFFC0000
00FFF801FFFC0000
00FFF800FFFE0000
00FFF8007FFF0000
00FFF8007FFF8000
00FFF8003FFFC000
00FFF8001FFFE000
00FFF8000FFFF000
00FFF8000FFFF800
00FFFC0007FFFC00
01FFFE0003FFFE00
07FFFF8003FFFFC0
FFFFFFF001FFFFF8
FFFFFFF000FFFFF8
FFFFFFF000FFFFF8
ENDCHAR
STARTCHAR L
ENCODING 76
SWIDTH 685 0
DWIDTH 51 0
BBX 49 52 2 0
BITMAP
FFFFFFF8000000
FFFFFFF8000000
FFFFFFF8000000
1FFFFF80000000
03FFFC00000000
01FFF800000000
00FFF800000000
00FFF800000000
00FFF800000000
00FFF800000000
00FFF800000000
00FFF800000000
00FFF800000000
00FFF800000000
00FFF800000000
00FFF800000000
00FFF800000000
00FFF800000000
00FFF800000000
00FFF800000000
00FFF800000000
00FFF800000000
00FFF800000000
00FFF800000000
00FFF800000000
00FFF800000000
00FFF800000000
00FFF800000000
00FFF800000000
00FFF800000000
00FFF800000000
00FFF800000000
00FFF800000000
00FFF800000000
00FFF800000000
00FFF800000380
00FFF800000780
00FFF800000780
00FFF800000F80
00FFF800000F80
00FFF800001F80
00FFF800001F80
00FFF800003F80
00FFF800003F00
00FFF800007F00
00FFF80000FF00
00FFFC0000FF00
01FFFC0001FF00
0FFFFF000FFF00
FFFFFFFFFFFF00
FFFFFFFFFFFF00
FFFFFFFFFFFF00
ENDCHAR
STARTCHAR M
ENCODING 77
SWIDTH 1023 0
DWIDTH 77 0
BBX 73 52 1 0
BITMAP
FFFFFF8000003FFFFF80
FFFFFFC000003FFFFF80
FFFFFFC000007FFFFF80
1FFFFFC000007FFFFC00
03FFFFE000007FFFE000
01FFFFE000007FFFC000
00FBFFE00000FFFFC000
00FBFFF00000F7FFC000
007BFFF00000F7FFC000
0079FFF80001E7FFC000
0079FFF80001E7FFC000
0079FFF80003E7FFC000
0078FFFC0003C7FFC000
0078FFFC0003C7FFC000
00787FFC000787FFC000
00787FFE000787FFC000
00787FFE000F87FFC000
00783FFE000F07FFC000
00783FFF000F07FFC000
00783FFF001E07FFC000
00781FFF801E07FFC000
00781FFF803E07FFC000
00780FFF803C07FFC000
00780FFFC03C07FFC000
00780FFFC07807FFC000
007807FFC07807FFC000
007807FFE0F807FFC000
007807FFE0F007FFC000
007803FFF0F007FFC000
007803FFF1E007FFC000
007801FFF1E007FFC000
007801FFFBE007FFC000
007801FFFBC007FFC000
007800FFFBC007FFC000
007800FFFF8007FFC000
007800FFFF8007FFC000
0078007FFF8007FFC000
0078007FFF0007FFC000
0078003FFF0007FFC000
0078003FFE0007FFC000
0078003FFE0007FFC000
0078001FFE0007FFC000
0078001FFC0007FFC000
00FC001FFC0007FFC000
00FC000FF80007FFC000
00FC000FF80007FFC000
01FE0007F8000FFFC000
03FF8007F0000FFFE000
1FFFF007F0007FFFFC00
FFFFFC03E007FFFFFF80
FFFFFC03E007FFFFFF80
FFFFFC000007FFFFFF80
ENDCHAR
STARTCHAR N
ENCODING 78
SWIDTH 839 0
DWIDTH 63 0
BBX 61 52 1 0
BITMAP
FFFFF00001FFFFF8
FFFFF80001FFFFF8
FFFFFC0001FFFFF8
3FFFFE00007FFF80
0FFFFE00000FFE00
03FFFF000003FC00
01FFFF800001F800
00FFFFC00001F800
00FFFFE00001F000
007FFFE00000F000
007FFFF00000F000
007FFFF80000F000
007FFFFC0000F000
007BFFFE0000F000
0079FFFF0000F000
0078FFFF0000F000
00787FFF8000F000
00787FFFC000F000
00783FFFE000F000
00781FFFF000F000
00780FFFF000F000
007807FFF800F000
007803FFFC00F000
007803FFFE00F000
007801FFFF00F000
007800FFFF80F000
0078007FFF80F000
0078003FFFC0F000
0078003FFFE0F000
0078001FFFF0F000
0078000FFFF8F000
00780007FFFCF000
00780003FFFCF000
00780001FFFEF000
00780001FFFFF000
00780000FFFFF000
007800007FFFF000
007800003FFFF000
007800001FFFF000
007800000FFFF000
007800000FFFF000
0078000007FFF000
0078000003FFF000
007C000001FFF000
00FC000000FFF000
00FC000000FFF000
01FE0000007FF000
03FF8000003FF000
1FFFF000001FF000
FFFFFC00000FF000
FFFFFC000007F000
FFFFFC000007F000
ENDCHAR
STARTCHAR O
ENCODING 79
SWIDTH 819 0
DWIDTH 61 0
BBX 55 54 3 -1
BITMAP
000003FF800000
00003FFFF80000
0001FFFFFF0000
0007FFFFFFC000
000FFF01FFE000
003FFC007FF800
007FF8003FFC00
00FFF0001FFE00
01FFE0000FFF00
03FFC00007FF80
07FFC00007FFC0
07FFC00003FFE0
0FFF800003FFE0
1FFF800003FFF0
1FFF000001FFF0
3FFF000001FFF8
3FFF000001FFF8
3FFF000001FFFC
7FFF000001FFFC
7FFE000000FFFC
7FFE000000FFFC
7FFE000000FFFE
FFFE000000FFFE
FFFE000000FFFE
FFFE000000FFFE
FFFE000000FFFE
FFFE000000FFFE
FFFE000000FFFE
FFFE000000FFFE
FFFE000000FFFE
FFFE000000FFFE
FFFE000000FFFE
FFFE000000FFFC
7FFE000000FFFC
7FFE000000FFFC
7FFF000001FFFC
7FFF000001FFF8
3FFF000001FFF8
3FFF000001FFF8
1FFF000001FFF0
1FFF800003FFF0
0FFF800003FFE0
0FFF800007FFE0
07FFC00007FFC0
03FFC00007FF80
01FFE0000FFF00
00FFF0001FFE00
007FF8003FFC00
003FFC007FF800
001FFF01FFF000
0007FFFFFFC000
0001FFFFFF0000
00003FFFF80000
000007FF800000
ENDCHAR
STARTCHAR P
ENCODING 80
SWIDTH 701 0
DWIDTH 53 0
BBX 50 52 2 0
BITMAP
FFFFFFFFF80000
FFFFFFFFFF8000
FFFFFFFFFFF000
1FFFF807FFF800
03FFF800FFFE00
01FFF8007FFE00
00FFF8003FFF00
00FFF8001FFF80
00FFF8001FFF80
00FFF8001FFFC0
00FFF8000FFFC0
00FFF8000FFFC0
00FFF8000FFFC0
00FFF8000FFFC0
00FFF8000FFFC0
00FFF8000FFFC0
00FFF8000FFFC0
00FFF8000FFF80
00FFF8000FFF80
00FFF8001FFF80
00FFF8001FFF00
00FFF8003FFF00
00FFF8007FFE00
00FFF800FFFC00
00FFF801FFF800
00FFF80FFFF000
00FFFFFFFFC000
00FFFFFFFF0000
00FFFFFFF80000
00FFFFFF800000
00FFF800000000
00FFF800000000
00FFF800000000
00FFF800000000
00FFF800000000
00FFF800000000
00FFF800000000
00FFF800000000
00FFF800000000
00FFF800000000
00FFF800000000
00FFF800000000
00FFF800000000
00FFF800000000
00FFF800000000
00FFF800000000
00FFFC00000000
01FFFE00000000
0FFFFFC0000000
FFFFFFF8000000
FFFFFFF8000000
FFFFFFF8000000
ENDCHAR
STARTCHAR Q
ENCODING 81
SWIDTH 819 0
DWIDTH 61 0
BBX 55 68 3 -15
BITMAP
000003FF800000
00003FFFF80000
0001FFFFFF0000
0007FFFFFFC000
000FFF01FFE000
003FFC007FF800
007FF8003FFC00
00FFF0001FFE00
01FFE0000FFF00
03FFE0000FFF80
07FFC00007FFC0
07FFC00007FFE0
0FFF800003FFE0
1FFF800003FFF0
1FFF800001FFF0
3FFF000001FFF8
3FFF000001FFF8
3FFF000001FFFC
7FFF000001FFFC
7FFF000001FFFC
7FFE000000FFFC
7FFE000000FFFE
FFFE000000FFFE
FFFE000000FFFE
FFFE000000FFFE
FFFE000000FFFE
FFFE000000FFFE
FFFE000000FFFE
FFFE000000FFFE
FFFE000000FFFE
FFFE000000FFFE
FFFE000000FFFE
FFFE000000FFFE
7FFE000000FFFC
7FFE000000FFFC
7FFE000001FFFC
7FFF000001FFFC
3FFF000001FFF8
3FFF000001FFF8
1FFF000001FFF0
1FFF800003FFF0
0FFF800003FFE0
0FFF800003FFE0
07FFC00007FFC0
03FFC00007FF80
01FFE0000FFF00
00FFE0000FFE00
007FF0001FFC00
003FF8003FF800
001FFC007FF000
0007FF01FFC000
0001FFFFFF0000
00007FFFFC0000
000007FFFC0000
000000FFFC0000
000000FFFC0000
000000FFFE0000
0000007FFE0000
0000007FFE0000
0000007FFF0000
0000003FFF8000
0000003FFF8000
0000001FFFC000
0000000FFFF018
00000007FFFFF8
00000003FFFFF8
00000001FFFFC0
000000003FFC00
ENDCHAR
STARTCHAR R
ENCODING 82
SWIDTH 797 0
DWIDTH 60 0
BBX 60 52 2 0
BITMAP
FFFFFFFFF0000000
FFFFFFFFFF000000
FFFFFFFFFFE00000
1FFFF80FFFF80000
03FFF801FFFC0000
01FFF800FFFE0000
00FFF8007FFE0000
00FFF8003FFF0000
00FFF8003FFF0000
00FFF8001FFF8000
00FFF8001FFF8000
00FFF8001FFF8000
00FFF8001FFF8000
00FFF8001FFF8000
00FFF8001FFF8000
00FFF8001FFF8000
00FFF8001FFF8000
00FFF8001FFF0000
00FFF8003FFF0000
00FFF8003FFE0000
00FFF8007FFE0000
00FFF8007FFC0000
00FFF800FFF80000
00FFF803FFF00000
00FFF80FFFC00000
00FFFFFFFF000000
00FFFFFFF8000000
00FFFFFFF8000000
00FFFFFFFC000000
00FFF8FFFE000000
00FFF87FFF000000
00FFF87FFF800000
00FFF83FFF800000
00FFF81FFFC00000
00FFF80FFFE00000
00FFF807FFF00000
00FFF807FFF80000
00FFF803FFF80000
00FFF801FFFC0000
00FFF800FFFE0000
00FFF800FFFF0000
00FFF8007FFF8000
00FFF8003FFF8000
00FFF8001FFFC000
00FFF8001FFFE000
00FFF8000FFFF000
00FFF80007FFF800
01FFFC0007FFFC00
0FFFFF8003FFFF80
FFFFFFF001FFFFF0
FFFFFFF001FFFFF0
FFFFFFF000FFFFF0
ENDCHAR
STARTCHAR S
ENCODING 83
SWIDTH 648 0
DWIDTH 49 0
BBX 44 54 2 -1
BITMAP
0000FFE00000
000FFFFE0780
003FFFFFCF80
00FFFFFFFF80
01FFE03FFF80
07FF800FFF80
0FFE0003FF80
0FFC0001FF80
1FFC0000FF80
3FF800007F80
3FF800003F80
3FF800003F80
7FF800001F80
7FF800001F80
7FFC00000F80
7FFC00000F80
7FFE00000780
7FFF80000780
7FFFE0000380
3FFFF8000000
3FFFFF800000
3FFFFFF00000
1FFFFFFE0000
1FFFFFFFC000
0FFFFFFFF000
07FFFFFFF800
03FFFFFFFE00
01FFFFFFFF00
007FFFFFFF80
001FFFFFFFC0
0007FFFFFFC0
0000FFFFFFE0
00001FFFFFE0
000001FFFFE0
E000007FFFF0
F000000FFFF0
F0000007FFF0
F8000003FFF0
F8000001FFF0
FC000000FFF0
FC000000FFF0
FE000000FFE0
FF000000FFE0
FF800000FFE0
FFC00000FFC0
FFE00001FFC0
FFF00003FF80
FFF80007FF00
FFFE000FFE00
FFFF803FFC00
FFFFFFFFF000
F8FFFFFFC000
F01FFFFF0000
0001FFF00000
ENDCHAR
STARTCHAR T
ENCODING 84
SWIDTH 684 0
DWIDTH 51 0
BBX 51 52 0 0
BITMAP
FFFFFFFFFFFFE0
FFFFFFFFFFFFE0
FFFFFFFFFFFFE0
FFE01FFF00FFE0
FF801FFF003FE0
FF001FFF001FE0
FE001FFF000FE0
FE001FFF000FE0
FC001FFF0007E0
FC001FFF0007E0
F8001FFF0003E0
F0001FFF0001E0
F0001FFF0001E0
F0001FFF0001E0
E0001FFF0000E0
00001FFF000000
00001FFF000000
00001FFF000000
00001FFF000000
00001FFF000000
00001FFF000000
00001FFF000000
00001FFF000000
00001FFF000000
00001FFF000000
00001FFF000000
00001FFF000000
00001FFF000000
00001FFF000000
00001FFF000000
00001FFF000000
00001FFF000000
00001FFF000000
00001FFF000000
00001FFF000000
00001FFF000000
00001FFF000000
00001FFF000000
00001FFF000000
00001FFF000000
00001FFF000000
00001FFF000000
00001FFF000000
00001FFF000000
00001FFF000000
00001FFF000000
00001FFF800000
00003FFFC00000
0001FFFFF80000
001FFFFFFF0000
001FFFFFFF0000
001FFFFFFF0000
ENDCHAR
STARTCHAR U
ENCODING 85
SWIDTH 833 0
DWIDTH 63 0
BBX 61 53 2 -1
BITMAP
FFFFFFE001FFFFF8
FFFFFFE001FFFFF8
FFFFFFE001FFFFF8
1FFFFF00007FFFC0
07FFF800000FFE00
03FFF0000003FC00
01FFF0000003F800
01FFF0000001F800
01FFF0000001F000
01FFF0000000F000
01FFF0000000F000
01FFF0000000F000
01FFF0000000F000
01FFF0000000F000
01FFF0000000F000
01FFF0000000F000
01FFF0000000F000
01FFF0000000F000
01FFF0000000F000
01FFF0000000F000
01FFF0000000F000
01FFF0000000F000
01FFF0000000F000
01FFF0000000F000
01FFF0000000F000
01FFF0000000F000
01FFF0000000F000
01FFF0000000F000
01FFF0000000F000
01FFF0000000F000
01FFF0000000F000
01FFF0000000F000
01FFF0000000F000
01FFF0000000F000
01FFF0000000F000
01FFF0000000F000
01FFF0000000F000
01FFF0000000F000
01FFF0000001F000
00FFF8000001E000
00FFF8000001E000
00FFF8000001E000
007FFC000003C000
007FFC000007C000
003FFE0000078000
001FFF00000F0000
001FFF80001F0000
000FFFC0007E0000
0003FFF803F80000
0001FFFFFFF00000
00007FFFFFC00000
00000FFFFF000000
000000FFF0000000
ENDCHAR
STARTCHAR V
ENCODING 86
SWIDTH 762 0
DWIDTH 57 0
BBX 61 53 -2 -1
BITMAP
FFFFFFF000FFFFF8
FFFFFFF000FFFFF8
FFFFFFF000FFFFF8
3FFFFF80000FFFE0
07FFFC000001FF00
03FFFC000000FE00
01FFFC000000FC00
00FFFC000000F800
007FFE000000F800
007FFE000000F000
007FFE000001F000
003FFF000001E000
003FFF000001E000
001FFF800003C000
001FFF800003C000
000FFF800007C000
000FFFC000078000
000FFFC000078000
0007FFE0000F0000
0007FFE0000F0000
0003FFE0000F0000
0003FFF0001E0000
0003FFF0001E0000
0001FFF8003C0000
0001FFF8003C0000
0000FFFC00380000
0000FFFC00780000
0000FFFC00780000
00007FFE00F00000
00007FFE00F00000
00003FFF00E00000
00003FFF01E00000
00003FFF01C00000
00001FFF83C00000
00001FFF83C00000
00000FFFC3800000
00000FFFC7800000
00000FFFC7000000
000007FFEF000000
000007FFEF000000
000003FFFE000000
000003FFFE000000
000003FFFC000000
000001FFFC000000
000001FFFC000000
000000FFF8000000
000000FFF8000000
0000007FF0000000
0000007FF0000000
0000007FF0000000
0000003FE0000000
0000003FE0000000
0000001FC0000000
ENDCHAR
STARTCHAR W
ENCODING 87
SWIDTH 1126 0
DWIDTH 84 0
BBX 87 53 -2 -1
BITMAP
FFFFFFF0000FF0003FFFFE
FFFFFFF0000FF0003FFFFE
FFFFFFF0001FF8003FFFFE
3FFFFF00001FF80003FFF8
07FFF800001FF800003FE0
03FFF800003FFC00001F80
01FFF800003FFC00001F00
00FFFC00003FFE00001F00
00FFFC00007FFE00001E00
007FFC00007FFE00003E00
007FFE00007FFF00003C00
007FFE0000FFFF00003C00
003FFE0000FFFF00003C00
003FFF0000FFFF80007800
003FFF0001FFFF80007800
001FFF0001FFFF80007800
001FFF8001EFFFC000F000
001FFF8003EFFFC000F000
000FFF8003C7FFE000F000
000FFFC003C7FFE000E000
000FFFC007C7FFE001E000
0007FFC00783FFF001E000
0007FFE00783FFF001C000
0007FFE00F83FFF003C000
0003FFE00F01FFF803C000
0003FFF00F01FFF8038000
0003FFF01F00FFF8078000
0001FFF01E00FFFC078000
0001FFF81E00FFFC070000
0001FFF83E007FFE070000
0000FFF83C007FFE0F0000
0000FFF83C007FFE0E0000
0000FFFC7C003FFF0E0000
00007FFC78003FFF1E0000
00007FFC78003FFF1C0000
00007FFEF8001FFF9C0000
00003FFEF0001FFFBC0000
00003FFEF0000FFFB80000
00003FFFF0000FFFF80000
00001FFFE0000FFFF80000
00001FFFE00007FFF00000
00001FFFE00007FFF00000
00000FFFC00007FFE00000
00000FFFC00003FFE00000
00000FFFC00003FFE00000
000007FF800003FFC00000
000007FF800001FFC00000
000007FF800001FFC00000
000003FF000000FFC00000
000003FF000000FF800000
000003FF000000FF800000
000001FE0000007F000000
000001FE0000007F000000
ENDCHAR
STARTCHAR X
ENCODING 88
SWIDTH 808 0
DWIDTH 61 0
BBX 61 52 0 0
BITMAP
FFFFFFFF01FFFFE0
FFFFFFFF01FFFFE0
FFFFFFFF01FFFFE0
1FFFFFE0003FFF00
03FFFF80001FF800
00FFFF80000FF000
007FFF80001FC000
003FFFC0001F8000
001FFFE0003F0000
000FFFE0007E0000
000FFFF000FE0000
0007FFF000FC0000
0003FFF801F80000
0003FFFC03F00000
0001FFFC07E00000
0000FFFE0FC00000
0000FFFF1F800000
00007FFF1F000000
00003FFFBE000000
00001FFFFC000000
00001FFFFC000000
00000FFFF8000000
000007FFF0000000
000007FFF0000000
000003FFF8000000
000001FFFC000000
000001FFFC000000
000000FFFE000000
000001FFFF000000
000003FFFF000000
000007FFFF800000
00000FDFFFC00000
00001F9FFFE00000
00003F0FFFE00000
00003E07FFF00000
00007C07FFF80000
0000F803FFF80000
0001F801FFFC0000
0003F001FFFE0000
0007E000FFFE0000
000FC0007FFF0000
001F80007FFF8000
003F00003FFFC000
007F00001FFFC000
007E00001FFFE000
00FE00000FFFF000
03FC00000FFFF800
07FE00000FFFFE00
1FFF80003FFFFFC0
FFFFF007FFFFFFF8
FFFFF007FFFFFFF8
FFFFF007FFFFFFF8
ENDCHAR
STARTCHAR Y
ENCODING 89
SWIDTH 731 0
DWIDTH 55 0
BBX 59 52 -2 0
BITMAP
FFFFFFF800FFFFE0
FFFFFFF800FFFFE0
FFFFFFF800FFFFE0
1FFFFF00000FFF80
07FFFE000003FC00
01FFFE000001F800
00FFFE000003F000
007FFF000003E000
007FFF000007C000
003FFF800007C000
001FFF80000F8000
001FFFC0000F0000
000FFFE0001F0000
000FFFE0001E0000
0007FFF0003C0000
0003FFF0007C0000
0003FFF800780000
0001FFF800F00000
0001FFFC01F00000
0000FFFC01E00000
0000FFFE03C00000
00007FFF03C00000
00003FFF07800000
00003FFF8F800000
00001FFF8F000000
00001FFFDE000000
00000FFFFE000000
000007FFFC000000
000007FFF8000000
000003FFF8000000
000003FFF8000000
000001FFF0000000
000001FFF0000000
000001FFF0000000
000001FFF0000000
000001FFF0000000
000001FFF0000000
000001FFF0000000
000001FFF0000000
000001FFF0000000
000001FFF0000000
000001FFF0000000
000001FFF0000000
000001FFF0000000
000001FFF0000000
000001FFF0000000
000001FFF8000000
000003FFFC000000
00001FFFFF800000
0001FFFFFFF00000
0001FFFFFFF00000
0001FFFFFFF00000
ENDCHAR
STARTCHAR Z
ENCODING 90
SWIDTH 689 0
DWIDTH 52 0
BBX 50 52 1 0
BITMAP
07FFFFFFFFFF80
0FFFFFFFFFFF80
0FFFFFFFFFFF80
0FFF0000FFFF00
0FF80000FFFE00
0FF00001FFFE00
0FE00003FFFC00
0FE00007FFF800
0FC00007FFF000
0F80000FFFF000
0F80001FFFE000
1F00001FFFC000
1F00003FFFC000
1E00007FFF8000
1E00007FFF0000
1C0000FFFF0000
000001FFFE0000
000001FFFC0000
000003FFFC0000
000007FFF80000
00000FFFF00000
00000FFFE00000
00001FFFE00000
00003FFFC00000
00003FFF800000
00007FFF800000
0000FFFF000000
0000FFFE000000
0001FFFE000000
0003FFFC000000
0003FFF8000000
0007FFF8000000
000FFFF0000000
001FFFE0000000
001FFFC00001C0
003FFFC00003C0
007FFF800003C0
007FFF000007C0
00FFFF000007C0
01FFFE00000F80
01FFFC00000F80
03FFFC00001F80
07FFF800001F80
07FFF000003F80
0FFFF000003F80
1FFFE000007F80
3FFFC00000FF80
3FFF800001FF80
7FFF800007FF80
FFFFFFFFFFFF80
FFFFFFFFFFFF00
FFFFFFFFFFFF00
ENDCHAR
STARTCHAR bracketleft
ENCODING 91
SWIDTH 446 0
DWIDTH 34 0
BBX 24 68 7 -12
BITMAP
FFFFFF
FFFFFF
FFFFFF
FFFFFF
FFF000
FFF000
FFF000
FFF000
FFF000
FFF000
FFF000
FFF000
FFF000
FFF000
FFF000
FFF000
FFF000
FFF000
FFF000
FFF000
FFF000
FFF000
FFF000
FFF000
FFF000
FFF000
FFF000
FFF000
FFF000
FFF000
FFF000
FFF000
FFF000
FFF000
FFF000
FFF000
FFF000
FFF000
FFF000
FFF000
FFF000
FFF000
FFF000
FFF000
FFF000
FFF000
FFF000
FFF000
FFF000
FFF000
FFF000
FFF000
FFF000
FFF000
FFF000
FFF000
FFF000
FFF000
FFF000
FFF000
FFF000
FFF000
FFF000
FFF000
FFFFFF
FFFFFF
FFFFFF
FFFFFF
ENDCHAR
STARTCHAR backslash
ENCODING 92
SWIDTH 471 0
DWIDTH 35 0
BBX 32 72 2 -16
BITMAP
FC000000
7E000000
7E000000
7F000000
3F000000
3F000000
3F800000
1F800000
1F800000
1FC00000
0FC00000
0FC00000
0FE00000
07E00000
07E00000
03F00000
03F00000
03F80000
01F80000
01F80000
01FC0000
00FC0000
00FC0000
00FE0000
007E0000
007E0000
007F0000
003F0000
003F0000
001F8000
001F8000
001FC000
000FC000
000FC000
000FE000
0007E000
0007E000
0007F000
0003F000
0003F000
0003F800
0001F800
0001F800
0000FC00
0000FC00
0000FE00
00007E00
00007E00
00007F00
00003F00
00003F00
00003F80
00001F80
00001F80
00001FC0
00000FC0
00000FC0
000007E0
000007E0
000007F0
000003F0
000003F0
000003F8
000001F8
000001F8
000001FC
000000FC
000000FC
000000FE
0000007E
0000007E
0000003F
ENDCHAR
STARTCHAR bracketright
ENCODING 93
SWIDTH 446 0
DWIDTH 34 0
BBX 24 68 3 -12
BITMAP
FFFFFF
FFFFFF
FFFFFF
FFFFFF
000FFF
000FFF
000FFF
000FFF
000FFF
000FFF
000FFF
000FFF
000FFF
000FFF
000FFF
000FFF
000FFF
000FFF
000FFF
000FFF
000FFF
000FFF
000FFF
000FFF
000FFF
000FFF
000FFF
000FFF
000FFF
000FFF
000FFF
000FFF
000FFF
000FFF
000FFF
000FFF
000FFF
000FFF
000FFF
000FFF
000FFF
000FFF
000FFF
000FFF
000FFF
000FFF
000FFF
000FFF
000FFF
000FFF
000FFF
000FFF
000FFF
000FFF
000FFF
000FFF
000FFF
000FFF
000FFF
000FFF
000FFF
000FFF
000FFF
000FFF
FFFFFF
FFFFFF
FFFFFF
FFFFFF
ENDCHAR
STARTCHAR asciicircum
ENCODING 94
SWIDTH 703 0
DWIDTH 53 0
BBX 38 25 8 28
BITMAP
0000FC0000
0001FE0000
0001FE0000
0003FF0000
0007FF8000
0007FF8000
000FFFC000
001FCFE000
001FCFE000
003F87F000
003F83F000
007F03F800
00FE01FC00
00FE01FC00
01FC00FE00
03F8007F00
03F8007F00
07F0003F80
0FE0001FC0
0FE0001FC0
1FC0000FE0
3F800007F0
3F800007F0
7F000003F8
FE000001FC
ENDCHAR
STARTCHAR underscore
ENCODING 95
SWIDTH 703 0
DWIDTH 53 0
BBX 53 4 0 -11
BITMAP
FFFFFFFFFFFFF8
FFFFFFFFFFFFF8
FFFFFFFFFFFFF8
FFFFFFFFFFFFF8
ENDCHAR
STARTCHAR grave
ENCODING 96
SWIDTH 500 0
DWIDTH 38 0
BBX 19 16 8 40
BITMAP
3F0000
7F8000
FFC000
FFE000
FFF000
7FF000
7FF800
1FFC00
0FFC00
03FE00
00FF00
003F80
001F80
0007C0
0001E0
000040
ENDCHAR
STARTCHAR a
ENCODING 97
SWIDTH 595 0
DWIDTH 45 0
BBX 41 38 3 -1
BITMAP
0007FF800000
007FFFF80000
01FFFFFE0000
07FE0FFF0000
0FFC07FF8000
1FFC03FF8000
3FFC01FFC000
3FFE01FFC000
3FFE01FFE000
3FFE01FFE000
3FFE01FFE000
1FFC01FFE000
0FFC01FFE000
07F001FFE000
000003FFE000
00001FFFE000
0001FFFFE000
000FFFFFE000
007FFDFFE000
03FFE1FFE000
0FFF81FFE000
1FFE01FFE000
3FFC01FFE000
7FFC01FFE000
7FF801FFE000
FFF801FFE000
FFF801FFE000
FFF801FFE000
FFF801FFE000
FFF801FFE000
FFFC03FFE000
FFFE0FFFE000
7FFFFFFFF000
7FFFFDFFF800
3FFFF8FFFF80
1FFFF07FFF80
0FFFC03FFF80
01FE000FF800
ENDCHAR
STARTCHAR b
ENCODING 98
SWIDTH 645 0
DWIDTH 48 0
BBX 46 59 -1 -2
BITMAP
007FE0000000
FFFFE0000000
FFFFE0000000
FFFFE0000000
1FFFE0000000
07FFE0000000
03FFE0000000
01FFE0000000
01FFE0000000
01FFE0000000
01FFE0000000
01FFE0000000
01FFE0000000
01FFE0000000
01FFE0000000
01FFE0000000
01FFE0000000
01FFE0000000
01FFE0000000
01FFE0000000
01FFE01FC000
01FFE0FFF800
01FFE3FFFE00
01FFE7FFFF00
01FFEFFFFF80
01FFFFFFFFC0
01FFFC0FFFE0
01FFF007FFE0
01FFE003FFF0
01FFE001FFF0
01FFE001FFF8
01FFE000FFF8
01FFE000FFF8
01FFE000FFF8
01FFE0007FFC
01FFE0007FFC
01FFE0007FFC
01FFE0007FFC
01FFE0007FFC
01FFE0007FFC
01FFE0007FFC
01FFE0007FFC
01FFE0007FFC
01FFE0007FFC
01FFE0007FF8
01FFE0007FF8
01FFE000FFF8
01FFE000FFF0
01FFE000FFF0
01FFE000FFE0
01FFE001FFE0
01FFF001FFC0
01FFF003FF80
01FFF807FF00
01FCFE0FFE00
01F87FFFF800
01F01FFFF000
01E003FF8000
00E000000000
ENDCHAR
STARTCHAR c
ENCODING 99
SWIDTH 531 0
DWIDTH 40 0
BBX 37 38 3 -1
BITMAP
0000FFC000
000FFFF800
003FFFFE00
00FFC1FF00
01FF81FF80
03FF01FFC0
07FE01FFE0
0FFE03FFE0
1FFC03FFE0
1FFC03FFE0
3FFC03FFE0
3FFC03FFE0
7FF801FFC0
7FF800FF80
7FF8003F00
FFF8000000
FFF8000000
FFF8000000
FFF8000000
FFF8000000
FFF8000000
FFF8000000
FFF8000000
FFFC000000
7FFC000000
7FFC000000
7FFE000020
3FFF000070
3FFF0000F8
1FFF8001F0
1FFFE003E0
0FFFF81FE0
07FFFFFFC0
03FFFFFF80
01FFFFFE00
007FFFFC00
001FFFF000
0001FF8000
ENDCHAR
STARTCHAR d
ENCODING 100
SWIDTH 663 0
DWIDTH 50 0
BBX 47 58 3 -1
BITMAP
00000003FF00
000007FFFF00
000007FFFF00
000007FFFF00
000000FFFF00
0000003FFF00
0000001FFF00
0000000FFF00
0000000FFF00
0000000FFF00
0000000FFF00
0000000FFF00
0000000FFF00
0000000FFF00
0000000FFF00
0000000FFF00
0000000FFF00
0000000FFF00
0000000FFF00
0000000FFF00
0003FE0FFF00
001FFFCFFF00
007FFFFFFF00
00FFFFFFFF00
03FFE0FFFF00
07FF803FFF00
0FFF001FFF00
0FFF001FFF00
1FFE000FFF00
3FFE000FFF00
3FFC000FFF00
7FFC000FFF00
7FFC000FFF00
7FF8000FFF00
FFF8000FFF00
FFF8000FFF00
FFF8000FFF00
FFF8000FFF00
FFF8000FFF00
FFF8000FFF00
FFF8000FFF00
FFF8000FFF00
FFF8000FFF00
FFF8000FFF00
7FFC000FFF00
7FFC000FFF00
7FFC000FFF00
3FFE000FFF00
3FFE000FFF00
1FFF000FFF00
1FFF803FFF00
0FFFE07FFF80
07FFFFFFFFE0
03FFFFFFFFFE
01FFFFCFFFFE
00FFFF8FFFFE
003FFE0FFC00
0007F0000000
ENDCHAR
STARTCHAR e
ENCODING 101
SWIDTH 571 0
DWIDTH 43 0
BBX 38 38 3 -1
BITMAP
0001FF8000
000FFFF000
007FFFFC00
00FF87FF00
03FF03FF80
07FE01FFC0
0FFC01FFE0
0FFC01FFE0
1FFC00FFF0
3FFC00FFF0
3FF800FFF0
7FF800FFF8
7FF800FFF8
7FF800FFF8
FFF800FFF8
FFFFFFFFF8
FFFFFFFFF8
FFFFFFFFF8
FFF8000000
FFF8000000
FFF8000000
FFF8000000
FFF8000000
FFFC000000
7FFC000000
7FFC000000
7FFE000010
3FFE000038
3FFF00007C
1FFF8000F8
1FFFC003F0
0FFFF80FE0
07FFFFFFC0
03FFFFFF80
01FFFFFF00
007FFFFC00
001FFFF000
0001FF8000
ENDCHAR
STARTCHAR f
ENCODING 102
SWIDTH 393 0
DWIDTH 29 0
BBX 36 57 1 0
BITMAP
000003FE00
00003FFF80
0000FFFFC0
0001FFFFE0
0003FBFFF0
0007F9FFF0
000FF1FFF0
001FF0FFF0
003FE0FFF0
003FE07FE0
007FE03FC0
007FE01F80
00FFE00000
00FFE00000
00FFE00000
00FFE00000
01FFE00000
01FFE00000
01FFE00000
01FFE00000
01FFE00000
FFFFFFF800
FFFFFFF800
FFFFFFF800
FFFFFFF800
01FFE00000
01FFE00000
01FFE00000
01FFE00000
01FFE00000
01FFE00000
01FFE00000
01FFE00000
01FFE00000
01FFE00000
01FFE00000
01FFE00000
01FFE00000
01FFE00000
01FFE00000
01FFE00000
01FFE00000
01FFE00000
01FFE00000
01FFE00000
01FFE00000
01FFE00000
01FFE00000
01FFE00000
01FFE00000
01FFE00000
01FFE00000
03FFF00000
07FFFE0000
7FFFFFC000
7FFFFFC000
7FFFFFC000
ENDCHAR
STARTCHAR g
ENCODING 103
SWIDTH 576 0
DWIDTH 43 0
BBX 42 53 1 -16
BITMAP
0003FF800000
003FFFFFFFC0
00FFFFFFFFC0
03FF83FFFFC0
07FF01FFFFC0
0FFE00FFE000
1FFE00FFE000
1FFC00FFF000
3FFC007FF000
3FFC007FF800
3FFC007FF800
3FFC007FF800
3FFC007FF800
3FFC007FF800
3FFC007FF800
1FFE007FF000
1FFE00FFF000
0FFE00FFE000
07FF01FFC000
03FF83FF8000
00FFFFFE0000
003FFFF80000
000FFFC00000
007C00000000
01F800000000
03F800000000
07F800000000
0FF800000000
0FFE00000000
0FFFFFFE0000
0FFFFFFFE000
0FFFFFFFF800
07FFFFFFFC00
03FFFFFFFF00
01FFFFFFFF00
00FFFFFFFF80
003FFFFFFF80
007FFFFFFFC0
0FFC001FFFC0
3FF80003FFC0
7FF00003FFC0
7FE00001FFC0
FFE00001FFC0
FFE00001FF80
FFE00001FF80
FFE00001FF00
FFF00003FF00
7FF80007FE00
3FFC000FFC00
1FFF003FF000
0FFFFFFFC000
01FFFFFE0000
001FFFE00000
ENDCHAR
STARTCHAR h
ENCODING 104
SWIDTH 679 0
DWIDTH 51 0
BBX 50 57 0 0
BITMAP
007FE000000000
FFFFE000000000
FFFFE000000000
FFFFE000000000
1FFFE000000000
07FFE000000000
03FFE000000000
01FFE000000000
01FFE000000000
01FFE000000000
01FFE000000000
01FFE000000000
01FFE000000000
01FFE000000000
01FFE000000000
01FFE000000000
01FFE000000000
01FFE000000000
01FFE000000000
01FFE000000000
01FFE00FF00000
01FFE07FFE0000
01FFE0FFFF0000
01FFE3FFFF8000
01FFE7FFFFC000
01FFEFFFFFE000
01FFFF07FFE000
01FFFC03FFE000
01FFF801FFF000
01FFF001FFF000
01FFE000FFF000
01FFE000FFF000
01FFE000FFF000
01FFE000FFF000
01FFE000FFF000
01FFE000FFF000
01FFE000FFF000
01FFE000FFF000
01FFE000FFF000
01FFE000FFF000
01FFE000FFF000
01FFE000FFF000
01FFE000FFF000
01FFE000FFF000
01FFE000FFF000
01FFE000FFF000
01FFE000FFF000
01FFE000FFF000
01FFE000FFF000
01FFE000FFF000
01FFE000FFF000
01FFE000FFF000
03FFF000FFF800
07FFF801FFFE00
7FFFFE0FFFFFC0
7FFFFE0FFFFFC0
7FFFFE0FFFFFC0
ENDCHAR
STARTCHAR i
ENCODING 105
SWIDTH 353 0
DWIDTH 27 0
BBX 25 56 1 0
BITMAP
007E0000
00FF0000
03FF8000
03FFC000
07FFE000
07FFE000
07FFE000
07FFE000
07FFE000
03FFC000
03FF8000
00FF0000
007E0000
00000000
00000000
00000000
00000000
00000000
00000000
007FE000
FFFFE000
FFFFE000
FFFFE000
3FFFE000
07FFE000
03FFE000
01FFE000
01FFE000
01FFE000
01FFE000
01FFE000
01FFE000
01FFE000
01FFE000
01FFE000
01FFE000
01FFE000
01FFE000
01FFE000
01FFE000
01FFE000
01FFE000
01FFE000
01FFE000
01FFE000
01FFE000
01FFE000
01FFE000
01FFE000
01FFE000
01FFF000
03FFF000
0FFFFE00
7FFFFF80
7FFFFF80
7FFFFF80
ENDCHAR
STARTCHAR j
ENCODING 106
SWIDTH 346 0
DWIDTH 26 0
BBX 29 72 -9 -16
BITMAP
00001F80
00003FC0
0000FFE0
0000FFF0
0001FFF8
0001FFF8
0001FFF8
0001FFF8
0001FFF8
0000FFF0
0000FFE0
00003FC0
00001F80
00000000
00000000
00000000
00000000
00000000
00000000
00001FF8
003FFFF8
003FFFF8
003FFFF8
0007FFF8
0001FFF8
0000FFF8
00007FF8
00007FF8
00007FF8
00007FF8
00007FF8
00007FF8
00007FF8
00007FF8
00007FF8
00007FF8
00007FF8
00007FF8
00007FF8
00007FF8
00007FF8
00007FF8
00007FF8
00007FF8
00007FF8
00007FF8
00007FF8
00007FF8
00007FF8
00007FF8
00007FF8
00007FF8
00007FF8
00007FF8
00007FF8
00007FF8
00007FF0
00007FF0
00007FF0
00007FF0
1F807FE0
3FC07FE0
7FE07FC0
FFF0FFC0
FFF0FF80
FFF8FF00
FFF9FE00
FFFDFC00
7FFFF800
7FFFE000
1FFF8000
07FC0000
ENDCHAR
STARTCHAR k
ENCODING 107
SWIDTH 631 0
DWIDTH 47 0
BBX 49 57 0 0
BITMAP
007FE000000000
FFFFE000000000
FFFFE000000000
FFFFE000000000
1FFFE000000000
07FFE000000000
03FFE000000000
01FFE000000000
01FFE000000000
01FFE000000000
01FFE000000000
01FFE000000000
01FFE000000000
01FFE000000000
01FFE000000000
01FFE000000000
01FFE000000000
01FFE000000000
01FFE000000000
01FFE000000000
01FFE01FFFFC00
01FFE01FFFFC00
01FFE01FFFF000
01FFE003FFC000
01FFE000FF0000
01FFE000FC0000
01FFE000F80000
01FFE001F00000
01FFE003C00000
01FFE007800000
01FFE00F000000
01FFE01E000000
01FFE03C000000
01FFE07E000000
01FFE0FF000000
01FFE1FF000000
01FFE7FF800000
01FFEFFFC00000
01FFFFFFC00000
01FFFFFFE00000
01FFFBFFF00000
01FFE1FFF00000
01FFE1FFF80000
01FFE0FFFC0000
01FFE07FFC0000
01FFE07FFE0000
01FFE03FFF0000
01FFE01FFF8000
01FFE01FFF8000
01FFE00FFFC000
01FFE007FFE000
01FFE007FFE000
03FFF003FFF000
07FFFC03FFFC00
7FFFFF81FFFF80
7FFFFF80FFFF80
7FFFFF80FFFF80
ENDCHAR
STARTCHAR l
ENCODING 108
SWIDTH 344 0
DWIDTH 26 0
BBX 25 57 0 0
BITMAP
007FE000
FFFFE000
FFFFE000
FFFFE000
1FFFE000
07FFE000
03FFE000
01FFE000
01FFE000
01FFE000
01FFE000
01FFE000
01FFE000
01FFE000
01FFE000
01FFE000
01FFE000
01FFE000
01FFE000
01FFE000
01FFE000
01FFE000
01FFE000
01FFE000
01FFE000
01FFE000
01FFE000
01FFE000
01FFE000
01FFE000
01FFE000
01FFE000
01FFE000
01FFE000
01FFE000
01FFE000
01FFE000
01FFE000
01FFE000
01FFE000
01FFE000
01FFE000
01FFE000
01FFE000
01FFE000
01FFE000
01FFE000
01FFE000
01FFE000
01FFE000
01FFE000
01FFE000
03FFF000
07FFFC00
7FFFFF80
7FFFFF80
7FFFFF80
ENDCHAR
STARTCHAR m
ENCODING 109
SWIDTH 1015 0
DWIDTH 76 0
BBX 74 37 1 0
BITMAP
007FC01FE0000FF00000
FFFFC0FFFC007FFE0000
FFFFC1FFFE00FFFF0000
FFFFC7FFFF03FFFF8000
3FFFCFFFFF87FFFFC000
0FFFDFFFFFCFFFFFE000
07FFFE0FFFDF07FFE000
03FFF807FFFC03FFE000
03FFF003FFF801FFF000
03FFE003FFF001FFF000
03FFC001FFE000FFF000
03FFC001FFE000FFF000
03FFC001FFE000FFF000
03FFC001FFE000FFF000
03FFC001FFE000FFF000
03FFC001FFE000FFF000
03FFC001FFE000FFF000
03FFC001FFE000FFF000
03FFC001FFE000FFF000
03FFC001FFE000FFF000
03FFC001FFE000FFF000
03FFC001FFE000FFF000
03FFC001FFE000FFF000
03FFC001FFE000FFF000
03FFC001FFE000FFF000
03FFC001FFE000FFF000
03FFC001FFE000FFF000
03FFC001FFE000FFF000
03FFC001FFE000FFF000
03FFC001FFE000FFF000
03FFC001FFE000FFF000
03FFC001FFE000FFF000
07FFE001FFF000FFF800
0FFFF003FFF801FFFE00
FFFFFC1FFFFE0FFFFFC0
FFFFFC1FFFFE0FFFFFC0
FFFFFC1FFFFE0FFFFFC0
ENDCHAR
STARTCHAR n
ENCODING 110
SWIDTH 689 0
DWIDTH 52 0
BBX 50 37 1 0
BITMAP
007FC00FF00000
FFFFC07FFE0000
FFFFC1FFFF0000
FFFFC7FFFF8000
3FFFCFFFFFC000
0FFFDFFFFFC000
07FFFE07FFE000
03FFF803FFE000
03FFF001FFF000
03FFE001FFF000
03FFC000FFF000
03FFC000FFF000
03FFC000FFF000
03FFC000FFF000
03FFC000FFF000
03FFC000FFF000
03FFC000FFF000
03FFC000FFF000
03FFC000FFF000
03FFC000FFF000
03FFC000FFF000
03FFC000FFF000
03FFC000FFF000
03FFC000FFF000
03FFC000FFF000
03FFC000FFF000
03FFC000FFF000
03FFC000FFF000
03FFC000FFF000
03FFC000FFF000
03FFC000FFF000
03FFC000FFF000
07FFE000FFF800
0FFFF001FFFE00
FFFFFC0FFFFFC0
FFFFFC0FFFFFC0
FFFFFC0FFFFFC0
ENDCHAR
STARTCHAR o
ENCODING 111
SWIDTH 635 0
DWIDTH 48 0
BBX 42 38 3 -1
BITMAP
0000FFE00000
000FFFFC0000
003FFFFF0000
00FFC0FFC000
03FF807FF000
07FF003FF800
0FFE001FFC00
0FFE001FFC00
1FFC000FFE00
3FFC000FFF00
3FFC000FFF00
7FF8000FFF80
7FF80007FF80
7FF80007FF80
FFF80007FFC0
FFF80007FFC0
FFF80007FFC0
FFF80007FFC0
FFF80007FFC0
FFF80007FFC0
FFF80007FFC0
FFF80007FFC0
FFF80007FFC0
FFF80007FF80
7FF80007FF80
7FF80007FF80
7FF8000FFF80
3FFC000FFF00
3FFC000FFF00
1FFC000FFE00
0FFE001FFC00
0FFE001FF800
07FF003FF000
01FF807FE000
00FFC0FFC000
003FFFFF0000
000FFFFC0000
0001FFC00000
ENDCHAR
STARTCHAR p
ENCODING 112
SWIDTH 657 0
DWIDTH 49 0
BBX 46 53 0 -16
BITMAP
007FE01FC000
FFFFE0FFF800
FFFFE3FFFE00
FFFFE7FFFF00
1FFFEFFFFF80
07FFFFFFFFC0
03FFFC0FFFE0
01FFF007FFE0
01FFE003FFF0
01FFE001FFF0
01FFE001FFF8
01FFE000FFF8
01FFE000FFF8
01FFE000FFF8
01FFE0007FFC
01FFE0007FFC
01FFE0007FFC
01FFE0007FFC
01FFE0007FFC
01FFE0007FFC
01FFE0007FFC
01FFE0007FFC
01FFE0007FFC
01FFE0007FFC
01FFE0007FF8
01FFE000FFF8
01FFE000FFF8
01FFE000FFF0
01FFE000FFF0
01FFE001FFE0
01FFF001FFE0
01FFF003FFC0
01FFF807FF80
01FFFE0FFF00
01FFFFFFFE00
01FFFFFFFC00
01FFE7FFF000
01FFE0FF8000
01FFE0000000
01FFE0000000
01FFE0000000
01FFE0000000
01FFE0000000
01FFE0000000
01FFE0000000
01FFE0000000
01FFE0000000
01FFE0000000
03FFF0000000
0FFFFE000000
FFFFFFC00000
FFFFFFC00000
FFFFFFC00000
ENDCHAR
STARTCHAR q
ENCODING 113
SWIDTH 648 0
DWIDTH 49 0
BBX 47 54 3 -16
BITMAP
000000000380
0001FF800780
001FFFF80F80
007FFFFF1F80
00FFFFFFFF80
03FFE0FFFF80
07FF807FFF00
0FFF003FFF00
0FFF001FFF00
1FFE000FFF00
3FFE000FFF00
3FFC000FFF00
7FFC000FFF00
7FFC000FFF00
7FF8000FFF00
FFF8000FFF00
FFF8000FFF00
FFF8000FFF00
FFF8000FFF00
FFF8000FFF00
FFF8000FFF00
FFF8000FFF00
FFF8000FFF00
FFF8000FFF00
FFF8000FFF00
7FFC000FFF00
7FFC000FFF00
7FFC000FFF00
7FFE000FFF00
3FFE000FFF00
3FFF000FFF00
1FFF801FFF00
0FFFE07FFF00
0FFFFFFFFF00
07FFFFFFFF00
03FFFFEFFF00
00FFFF8FFF00
003FFE0FFF00
000FF80FFF00
0000000FFF00
0000000FFF00
0000000FFF00
0000000FFF00
0000000FFF00
0000000FFF00
0000000FFF00
0000000FFF00
0000000FFF00
0000000FFF80
0000001FFF80
0000007FFFF0
000007FFFFFE
000007FFFFFE
000007FFFFFE
ENDCHAR
STARTCHAR r
ENCODING 114
SWIDTH 520 0
DWIDTH 39 0
BBX 37 37 2 0
BITMAP
007FC03F00
FFFFC0FFC0
FFFFC3FFE0
FFFFC7FFF0
3FFFCFFFF0
0FFFDFFFF8
07FFFCFFF8
03FFF8FFF8
03FFE0FFF8
03FFC0FFF8
03FFC0FFF8
03FFC0FFF0
03FFC07FE0
03FFC03FE0
03FFC00F80
03FFC00000
03FFC00000
03FFC00000
03FFC00000
03FFC00000
03FFC00000
03FFC00000
03FFC00000
03FFC00000
03FFC00000
03FFC00000
03FFC00000
03FFC00000
03FFC00000
03FFC00000
03FFC00000
03FFC00000
07FFE00000
0FFFF80000
FFFFFF8000
FFFFFF8000
FFFFFF8000
ENDCHAR
STARTCHAR s
ENCODING 115
SWIDTH 512 0
DWIDTH 38 0
BBX 32 38 3 -1
BITMAP
001FF038
00FFFF38
03FFFFF8
07FE0FF8
0FF803F8
1FF001F8
3FF000FC
3FF0007C
7FF0007C
7FF0003C
7FF8003C
7FFC001C
7FFF0000
7FFFE000
7FFFFE00
3FFFFF80
3FFFFFE0
1FFFFFF0
1FFFFFF8
0FFFFFFC
03FFFFFE
01FFFFFE
007FFFFF
E00FFFFF
F001FFFF
F0003FFF
F0000FFF
F8000FFF
FC0007FF
FC0007FE
FE0007FE
FF0007FC
FF800FFC
FFC00FF8
FFF03FF0
F3FFFFC0
E0FFFF00
001FF800
ENDCHAR
STARTCHAR t
ENCODING 116
SWIDTH 397 0
DWIDTH 30 0
BBX 30 48 0 -1
BITMAP
01FFE000
01FFE000
01FFE000
01FFE000
01FFE000
01FFE000
01FFE000
01FFE000
01FFE000
01FFE000
01FFE000
FFFFFFFC
FFFFFFFC
FFFFFFFC
FFFFFFFC
01FFE000
01FFE000
01FFE000
01FFE000
01FFE000
01FFE000
01FFE000
01FFE000
01FFE000
01FFE000
01FFE000
01FFE000
01FFE000
01FFE000
01FFE000
01FFE000
01FFE000
01FFE000
01FFE000
01FFE000
01FFE000
01FFE000
01FFE000
01FFE000
01FFF000
01FFF000
00FFFC00
00FFFFFC
00FFFFFC
007FFFFC
003FFFF8
001FFFE0
0003FF00
ENDCHAR
STARTCHAR u
ENCODING 117
SWIDTH 676 0
DWIDTH 51 0
BBX 49 38 1 -1
BITMAP
007FC0003FE000
FFFFC07FFFE000
FFFFC07FFFE000
FFFFC07FFFE000
1FFFC007FFE000
0FFFC003FFE000
07FFC001FFE000
03FFC001FFE000
03FFC001FFE000
03FFC001FFE000
03FFC001FFE000
03FFC001FFE000
03FFC001FFE000
03FFC001FFE000
03FFC001FFE000
03FFC001FFE000
03FFC001FFE000
03FFC001FFE000
03FFC001FFE000
03FFC001FFE000
03FFC001FFE000
03FFC001FFE000
03FFC001FFE000
03FFC001FFE000
03FFC001FFE000
03FFC001FFE000
03FFC001FFE000
03FFC001FFE000
03FFE001FFE000
03FFE003FFE000
01FFF00FFFE000
01FFF83FFFF000
01FFFFFDFFFC00
00FFFFF9FFFF80
007FFFF1FFFF80
003FFFE1FFFF80
001FFF81FF0000
0007FC00000000
ENDCHAR
STARTCHAR v
ENCODING 118
SWIDTH 566 0
DWIDTH 43 0
BBX 45 36 -1 0
BITMAP
FFFFFE03FFF8
FFFFFE03FFF8
FFFFFE03FFF8
3FFFF0007FE0
0FFFC0001F80
07FFC0000F00
03FFE0000F00
03FFE0000E00
03FFF0001E00
01FFF0001C00
01FFF8003C00
00FFF8003800
00FFFC003800
007FFC007000
007FFC007000
003FFE00E000
003FFE00E000
001FFF01C000
001FFF01C000
000FFF838000
000FFF838000
0007FFC30000
0007FFC70000
0003FFE60000
0003FFEE0000
0001FFFC0000
0001FFFC0000
0001FFF80000
0000FFF80000
0000FFF80000
00007FF00000
00007FF00000
00003FE00000
00003FE00000
00001FE00000
00001FC00000
ENDCHAR
STARTCHAR w
ENCODING 119
SWIDTH 863 0
DWIDTH 65 0
BBX 67 36 -1 0
BITMAP
FFFFFC003F800FFFE0
FFFFFC007FC00FFFE0
FFFFFC007FC00FFFE0
3FFFF0007FE001FF80
0FFFC000FFE0007E00
07FFC000FFF0003C00
07FFC000FFF0003C00
03FFE001FFF8003800
03FFE001FFF8003800
01FFF001FFF8007000
01FFF003FFFC007000
00FFF003FFFC007000
00FFF803BFFE00E000
00FFF8073FFE00E000
007FFC071FFF01C000
007FFC0F1FFF01C000
003FFC0E1FFF018000
003FFE0E0FFF838000
003FFE1E0FFF838000
001FFF1C07FFC30000
001FFF1C07FFC70000
000FFF3C03FFE60000
000FFFB803FFEE0000
000FFFB803FFFC0000
0007FFF801FFFC0000
0007FFF001FFFC0000
0003FFF000FFF80000
0003FFE000FFF80000
0003FFE0007FF80000
0001FFE0007FF00000
0001FFC0007FF00000
0000FFC0003FE00000
0000FFC0003FE00000
0000FF80001FE00000
00007F80001FE00000
00007F80000FC00000
ENDCHAR
STARTCHAR x
ENCODING 120
SWIDTH 587 0
DWIDTH 44 0
BBX 44 36 0 0
BITMAP
7FFFFE0FFFE0
7FFFFE0FFFE0
7FFFFE0FFFE0
1FFFF000FF80
07FFF8007E00
03FFF8007800
01FFFC00F000
00FFFC01E000
007FFE03C000
007FFF038000
003FFF070000
001FFF8E0000
001FFFDC0000
000FFFF80000
0007FFF00000
0003FFF00000
0003FFF80000
0001FFF80000
0000FFFC0000
0000FFFE0000
0000FFFE0000
0001FFFF0000
0003BFFF8000
00071FFF8000
000E0FFFC000
001C07FFE000
003C07FFF000
007803FFF000
00F001FFF800
01E001FFFC00
07C000FFFE00
0FC000FFFF00
3FE000FFFF80
FFFE07FFFFF0
FFFE07FFFFF0
FFFE07FFFFF0
ENDCHAR
STARTCHAR y
ENCODING 121
SWIDTH 562 0
DWIDTH 42 0
BBX 44 52 -1 -16
BITMAP
FFFFFC07FFF0
FFFFFC07FFF0
FFFFFC07FFF0
3FFFF000FFC0
0FFFC0003F00
07FFC0001E00
07FFE0001E00
03FFE0001C00
03FFF0003C00
01FFF0003800
01FFF8003800
00FFF8007000
007FFC007000
007FFC00E000
003FFE00E000
003FFE01C000
001FFF01C000
001FFF018000
000FFF838000
000FFF838000
0007FFC70000
0007FFC70000
0003FFEE0000
0003FFEE0000
0001FFFC0000
0001FFFC0000
0000FFF80000
0000FFF80000
00007FF80000
00007FF00000
00003FF00000
00003FE00000
00001FE00000
00001FC00000
00000FC00000
00000F800000
00000F800000
000007000000
000007000000
000006000000
07C00E000000
0FF01C000000
1FF81C000000
3FFC38000000
3FFC70000000
3FFEF0000000
3FFFE0000000
3FFFC0000000
1FFF80000000
0FFF00000000
07FE00000000
03F000000000
ENDCHAR
STARTCHAR z
ENCODING 122
SWIDTH 525 0
DWIDTH 39 0
BBX 35 36 2 0
BITMAP
7FFFFFFFC0
7FFFFFFFC0
7FFFFFFFC0
7FFFFFFFC0
7F803FFF80
7E003FFF00
7C007FFF00
7C00FFFE00
7800FFFC00
7801FFFC00
7003FFF800
7003FFF000
0007FFF000
0007FFE000
000FFFC000
001FFFC000
001FFF8000
003FFF0000
007FFF0000
007FFE0000
00FFFE0000
01FFFC0000
01FFF800E0
03FFF800E0
07FFF001E0
07FFE001E0
0FFFE001E0
1FFFC003E0
1FFF8003E0
3FFF8007E0
3FFF0007E0
7FFE001FE0
FFFFFFFFE0
FFFFFFFFE0
FFFFFFFFE0
FFFFFFFFE0
ENDCHAR
STARTCHAR braceleft
ENCODING 123
SWIDTH 500 0
DWIDTH 38 0
BBX 33 68 2 -12
BITMAP
000000FF80
00001FFF80
00007FFF80
0001FFF800
0003FFC000
0007FF8000
0007FF0000
000FFF0000
000FFE0000
001FFE0000
001FFE0000
001FFE0000
001FFE0000
001FFE0000
001FFE0000
001FFE0000
001FFE0000
001FFE0000
001FFE0000
001FFE0000
001FFE0000
001FFE0000
001FFE0000
001FFC0000
001FFC0000
001FF80000
003FF80000
003FF00000
007FE00000
00FFC00000
0FFF000000
FFF8000000
FFC0000000
FFC0000000
FFC0000000
FFF8000000
0FFF000000
01FFC00000
007FE00000
003FF00000
003FF80000
001FF80000
001FFC0000
001FFC0000
001FFC0000
001FFE0000
001FFE0000
001FFE0000
001FFE0000
001FFE0000
001FFE0000
001FFE0000
001FFE0000
001FFE0000
001FFE0000
001FFE0000
001FFE0000
001FFE0000
001FFE0000
000FFE0000
000FFF0000
0007FF0000
0007FF8000
0003FFC000
0001FFF800
00007FFF80
00001FFF80
000001FF80
ENDCHAR
STARTCHAR bar
ENCODING 124
SWIDTH 387 0
DWIDTH 29 0
BBX 6 73 11 -16
BITMAP
FC
FC
FC
FC
FC
FC
FC
FC
FC
FC
FC
FC
FC
FC
FC
FC
FC
FC
FC
FC
FC
FC
FC
FC
FC
FC
FC
FC
FC
FC
FC
FC
FC
FC
FC
FC
FC
FC
FC
FC
FC
FC
FC
FC
FC
FC
FC
FC
FC
FC
FC
FC
FC
FC
FC
FC
FC
FC
FC
FC
FC
FC
FC
FC
FC
FC
FC
FC
FC
FC
FC
FC
FC
ENDCHAR
STARTCHAR braceright
ENCODING 125
SWIDTH 500 0
DWIDTH 38 0
BBX 33 68 3 -12
BITMAP
FFC0000000
FFFC000000
FFFF000000
0FFFC00000
01FFE00000
00FFF00000
007FF00000
007FF80000
003FF80000
003FFC0000
003FFC0000
003FFC0000
003FFC0000
003FFC0000
003FFC0000
003FFC0000
003FFC0000
003FFC0000
003FFC0000
003FFC0000
003FFC0000
003FFC0000
003FFC0000
001FFC0000
001FFC0000
000FFC0000
000FFE0000
0007FE0000
0003FF0000
0001FF8000
00007FF800
00000FFF80
000001FF80
000001FF80
000001FF80
00000FFF80
00007FF800
0001FFC000
0003FF0000
0007FE0000
000FFE0000
000FFC0000
001FFC0000
001FFC0000
003FFC0000
003FFC0000
003FFC0000
003FFC0000
003FFC0000
003FFC0000
003FFC0000
003FFC0000
003FFC0000
003FFC0000
003FFC0000
003FFC0000
003FFC0000
003FFC0000
003FF80000
003FF80000
007FF80000
007FF00000
00FFF00000
01FFE00000
0FFFC00000
FFFF000000
FFFC000000
FFC0000000
ENDCHAR
STARTCHAR asciitilde
ENCODING 126
SWIDTH 703 0
DWIDTH 53 0
BBX 43 15 5 14
BITMAP
000000000100
001F800003E0
00FFF00003E0
01FFFC0007C0
03FFFE0007C0
07FFFF800F80
0FFFFFE01F00
1F83FFF83F00
3F00FFFFFE00
3E003FFFFC00
7C000FFFF800
7C0007FFF000
F80001FFE000
F800003F0000
100000000000
ENDCHAR
STARTCHAR degree
ENCODING 176
SWIDTH 419 0
DWIDTH 32 0
BBX 25 24 3 29
BITMAP
007F0000
03FFE000
07FFF000
1FC3FC00
1F80FC00
3F007E00
7F007F00
7F007F00
FE003F80
FE003F80
FE003F80
FE003F80
FE003F80
FE003F80
FE003F80
FE003F80
7F007F00
7F007F00
3F007E00
1F80FC00
1FC1FC00
07FFF000
03FFE000
007F0000
ENDCHAR
STARTCHAR ordmasculine
ENCODING 186
SWIDTH 551 0
DWIDTH 41 0
BBX 35 31 3 22
BITMAP
000FFE0000
007FFFC000
01FFFFF000
03FE0FF800
0FF803FE00
0FF001FE00
1FE001FF00
3FE000FF80
7FE000FFC0
7FC0007FC0
7FC0007FC0
FFC0007FE0
FFC0007FE0
FFC0007FE0
FFC0007FE0
FFC0007FE0
FFC0007FE0
FFC0007FE0
FFC0007FE0
FFC0007FE0
7FC0007FC0
7FC000FFC0
3FE000FF80
3FE000FF80
1FF001FF00
0FF001FE00
07F803FC00
03FE0FF800
01FFFFF000
007FFFC000
000FFC0000
ENDCHAR
ENDFONT
