STARTFONT 2.1
FONT -FontForge-Georgia-Book-R-Normal--36-350-75-75-P-202-ISO10646-1
SIZE 35 75 75
FONTBOUNDINGBOX 39 36 -2 -8
COMMENT "Generated by fontforge, http://fontforge.sourceforge.net"
COMMENT "(c) 2016 Microsoft Corporation. All Rights Reserved."
STARTPROPERTIES 38
FOUNDRY "FontForge"
FAMILY_NAME "Georgia"
WEIGHT_NAME "Book"
SLANT "R"
SETWIDTH_NAME "Normal"
ADD_STYLE_NAME ""
PIXEL_SIZE 36
POINT_SIZE 350
RESOLUTION_X 75
RESOLUTION_Y 75
SPACING "P"
AVERAGE_WIDTH 202
CHARSET_REGISTRY "ISO10646"
CHARSET_ENCODING "1"
FONTNAME_REGISTRY ""
CHARSET_COLLECTIONS "ISO10646-1"
FONT_NAME "Georgia"
FACE_NAME "Georgia"
COPYRIGHT "(c) 2016 Microsoft Corporation. All Rights Reserved."
FONT_VERSION "5.59"
FONT_ASCENT 29
FONT_DESCENT 7
UNDERLINE_POSITION -4
UNDERLINE_THICKNESS 2
X_HEIGHT 16
CAP_HEIGHT 24
RAW_ASCENT 799
RAW_DESCENT 200
RELATIVE_WEIGHT 40
RELATIVE_SETWIDTH 50
SUPERSCRIPT_X 0
SUPERSCRIPT_Y 9
SUPERSCRIPT_SIZE 23
SUBSCRIPT_X 0
SUBSCRIPT_Y 2
SUBSCRIPT_SIZE 23
AVG_LOWERCASE_WIDTH 180
AVG_UPPERCASE_WIDTH 245
ENDPROPERTIES
CHARS 111
STARTCHAR exclam
ENCODING 33
SWIDTH 331 0
DWIDTH 12 0
BBX 5 25 4 0
BITMAP
70
F8
F8
F8
F8
F8
F8
70
70
70
70
70
70
70
70
20
20
00
00
00
70
F8
F8
F8
70
ENDCHAR
STARTCHAR quotedbl
ENCODING 34
SWIDTH 411 0
DWIDTH 15 0
BBX 11 10 2 17
BITMAP
60C0
F1E0
F1E0
F1E0
F1E0
60C0
60C0
60C0
60C0
60C0
ENDCHAR
STARTCHAR numbersign
ENCODING 35
SWIDTH 643 0
DWIDTH 23 0
BBX 17 22 3 0
BITMAP
00C600
00CE00
018C00
018C00
018C00
039800
7FFF80
7FFF80
031800
063000
063000
063000
063000
FFFF00
FFFF00
0C6000
1CE000
18C000
18C000
18C000
318000
318000
ENDCHAR
STARTCHAR dollar
ENCODING 36
SWIDTH 609 0
DWIDTH 22 0
BBX 16 31 3 -5
BITMAP
0080
0080
0080
0080
07F0
1C8C
3886
3087
7087
7087
7087
7880
3E80
3FC0
0FF0
03FC
00FE
009F
E08F
E087
E087
E087
4086
608C
3898
07E0
0080
0080
0080
0080
0080
ENDCHAR
STARTCHAR percent
ENCODING 37
SWIDTH 817 0
DWIDTH 29 0
BBX 25 25 2 0
BITMAP
1F800000
39C00300
70E00600
60600C00
E0701800
E0703000
E0706000
E070C000
E0718000
E0618000
70E30000
39C60000
1F8CFC00
0019CE00
00338700
00630300
00C70380
00C70380
01870380
03070380
06070380
0C070300
18038700
3001CE00
6000FC00
ENDCHAR
STARTCHAR ampersand
ENCODING 38
SWIDTH 710 0
DWIDTH 26 0
BBX 25 25 1 0
BITMAP
01F00000
071C0000
0E0C0000
1C060000
1C060000
1C060000
1C060000
1E0C0000
0F180000
07300000
07E1FF80
03C07C00
0FE03800
18F03000
30F03000
70786000
E03C6000
E01E4000
E00FC000
E0078000
E007C000
7003E000
7805F000
3C18FC00
0FE07F80
ENDCHAR
STARTCHAR quotesingle
ENCODING 39
SWIDTH 215 0
DWIDTH 8 0
BBX 4 10 2 17
BITMAP
60
F0
F0
F0
F0
60
60
60
60
60
ENDCHAR
STARTCHAR parenleft
ENCODING 40
SWIDTH 375 0
DWIDTH 14 0
BBX 10 33 2 -6
BITMAP
00C0
03C0
0700
0E00
1C00
3800
3800
7000
7000
7000
6000
E000
E000
E000
E000
E000
E000
E000
E000
E000
E000
E000
6000
7000
7000
7000
3800
3800
1C00
0E00
0700
03C0
00C0
ENDCHAR
STARTCHAR parenright
ENCODING 41
SWIDTH 375 0
DWIDTH 14 0
BBX 10 33 1 -6
BITMAP
C000
F000
3800
1C00
0E00
0700
0700
0380
0380
0380
0180
01C0
01C0
01C0
01C0
01C0
01C0
01C0
01C0
01C0
01C0
01C0
0180
0380
0380
0380
0700
0700
0E00
1C00
3800
F000
C000
ENDCHAR
STARTCHAR asterisk
ENCODING 42
SWIDTH 472 0
DWIDTH 17 0
BBX 14 13 2 12
BITMAP
1860
1CE0
0CC0
0CC0
0580
E31C
FFFC
E31C
0780
0CC0
0CC0
1CE0
1860
ENDCHAR
STARTCHAR plus
ENCODING 43
SWIDTH 643 0
DWIDTH 23 0
BBX 18 18 2 1
BITMAP
00C000
00C000
00C000
00C000
00C000
00C000
00C000
00C000
FFFFC0
FFFFC0
00C000
00C000
00C000
00C000
00C000
00C000
00C000
00C000
ENDCHAR
STARTCHAR comma
ENCODING 44
SWIDTH 269 0
DWIDTH 10 0
BBX 6 11 1 -7
BITMAP
38
7C
7C
3C
0C
0C
18
38
30
E0
40
ENDCHAR
STARTCHAR hyphen
ENCODING 45
SWIDTH 374 0
DWIDTH 13 0
BBX 10 3 2 8
BITMAP
FFC0
FFC0
FFC0
ENDCHAR
STARTCHAR period
ENCODING 46
SWIDTH 269 0
DWIDTH 10 0
BBX 5 5 2 0
BITMAP
70
F8
F8
F8
70
ENDCHAR
STARTCHAR slash
ENCODING 47
SWIDTH 468 0
DWIDTH 17 0
BBX 14 34 1 -7
BITMAP
000C
0018
0018
0018
0030
0030
0030
0060
0060
0060
00C0
00C0
00C0
0180
0180
0380
0300
0300
0700
0600
0600
0C00
0C00
0C00
1800
1800
1800
3000
3000
3000
6000
6000
6000
C000
ENDCHAR
STARTCHAR zero
ENCODING 48
SWIDTH 613 0
DWIDTH 22 0
BBX 18 19 2 0
BITMAP
03F000
0E1C00
380700
300300
700380
700380
E001C0
E001C0
E001C0
E001C0
E001C0
E001C0
E001C0
700380
700380
300300
380700
0E1C00
03F000
ENDCHAR
STARTCHAR one
ENCODING 49
SWIDTH 429 0
DWIDTH 15 0
BBX 11 19 2 0
BITMAP
0600
1E00
FE00
0E00
0E00
0E00
0E00
0E00
0E00
0E00
0E00
0E00
0E00
0E00
0E00
0E00
0E00
1F00
FFE0
ENDCHAR
STARTCHAR two
ENCODING 50
SWIDTH 558 0
DWIDTH 20 0
BBX 16 19 2 0
BITMAP
0FE0
3038
601C
600E
E00E
E00E
E00E
C00E
001C
001C
0078
00E0
0380
0E00
1800
7000
FFFF
FFFF
FFFF
ENDCHAR
STARTCHAR three
ENCODING 51
SWIDTH 551 0
DWIDTH 20 0
BBX 17 25 1 -6
BITMAP
03F000
0C1C00
300E00
300700
700700
700700
700700
600700
000E00
000C00
003800
03F000
001C00
000700
000700
000380
000380
000380
E00380
E00380
E00700
E00700
600E00
303800
0FE000
ENDCHAR
STARTCHAR four
ENCODING 52
SWIDTH 564 0
DWIDTH 20 0
BBX 18 25 1 -6
BITMAP
000C00
001C00
003C00
007C00
00DC00
01DC00
019C00
031C00
061C00
0C1C00
181C00
181C00
301C00
601C00
C01C00
FFFFC0
FFFFC0
001C00
001C00
001C00
001C00
001C00
001C00
001C00
001C00
ENDCHAR
STARTCHAR five
ENCODING 53
SWIDTH 528 0
DWIDTH 19 0
BBX 17 25 1 -6
BITMAP
0FFF00
0FFF00
0FFF00
180000
180000
180000
180000
180000
180000
3BF000
3C1C00
380E00
300700
000300
000380
000380
000380
000380
C00380
E00300
E00700
E00600
600C00
303800
0FE000
ENDCHAR
STARTCHAR six
ENCODING 54
SWIDTH 565 0
DWIDTH 20 0
BBX 17 25 2 0
BITMAP
001C00
00F000
018000
070000
0E0000
1C0000
380000
300000
700000
73F000
6C1C00
F00E00
E00700
E00700
E00380
E00380
E00380
E00380
E00380
700380
700700
380600
380E00
0E1800
07E000
ENDCHAR
STARTCHAR seven
ENCODING 55
SWIDTH 502 0
DWIDTH 18 0
BBX 16 25 2 -6
BITMAP
FFFF
FFFF
FFFE
C006
C00C
800C
8018
0018
0030
0030
0060
0060
00C0
00C0
0180
0180
0300
0300
0600
0600
0C00
0C00
1800
1800
3000
ENDCHAR
STARTCHAR eight
ENCODING 56
SWIDTH 596 0
DWIDTH 21 0
BBX 17 25 2 0
BITMAP
03F000
0C1C00
180E00
300600
700700
700700
700700
780700
780600
3E0E00
1F9C00
0FF000
07F800
18FE00
303F00
700F00
E00780
E00380
E00380
E00380
E00300
700700
380600
1C1C00
07F000
ENDCHAR
STARTCHAR nine
ENCODING 57
SWIDTH 565 0
DWIDTH 20 0
BBX 17 26 1 -7
BITMAP
03E000
0C3800
180C00
300E00
700700
600700
E00380
E00380
E00380
E00380
E00380
E00380
700380
700380
380780
1C1B00
07C700
000600
000600
000C00
001C00
003800
007000
00C000
078000
1C0000
ENDCHAR
STARTCHAR colon
ENCODING 58
SWIDTH 312 0
DWIDTH 11 0
BBX 5 17 3 0
BITMAP
70
F8
F8
F8
70
00
00
00
00
00
00
00
70
F8
F8
F8
70
ENDCHAR
STARTCHAR semicolon
ENCODING 59
SWIDTH 312 0
DWIDTH 11 0
BBX 6 24 2 -7
BITMAP
38
7C
7C
7C
38
00
00
00
00
00
00
00
00
38
7C
7C
3C
0C
0C
18
38
70
E0
40
ENDCHAR
STARTCHAR less
ENCODING 60
SWIDTH 643 0
DWIDTH 23 0
BBX 16 19 3 0
BITMAP
0001
0007
001E
0078
00F0
03C0
0F00
3C00
F000
C000
F000
3C00
0F00
03C0
00F0
0078
001E
0007
0001
ENDCHAR
STARTCHAR equal
ENCODING 61
SWIDTH 643 0
DWIDTH 23 0
BBX 18 9 3 5
BITMAP
FFFFC0
FFFFC0
000000
000000
000000
000000
000000
FFFFC0
FFFFC0
ENDCHAR
STARTCHAR greater
ENCODING 62
SWIDTH 643 0
DWIDTH 23 0
BBX 16 19 4 0
BITMAP
8000
E000
7800
3E00
0F00
03C0
00F0
003C
000F
0003
000F
003C
00F0
03C0
0F00
1E00
7800
E000
8000
ENDCHAR
STARTCHAR question
ENCODING 63
SWIDTH 478 0
DWIDTH 17 0
BBX 13 25 2 0
BITMAP
1F80
70E0
F070
F030
F038
6038
0038
0038
0078
0078
01F0
0FE0
0FC0
0F00
0C00
0C00
0C00
0C00
0000
0000
1C00
3E00
3E00
3E00
1C00
ENDCHAR
STARTCHAR at
ENCODING 64
SWIDTH 928 0
DWIDTH 33 0
BBX 27 30 3 -6
BITMAP
000FE000
00701C00
01C00600
03000300
06000180
0C0000C0
1C0000C0
38079CC0
301CF860
70307860
70707860
60607060
E0E07060
E0E07060
E1C0E060
E1C0E040
E1C1E0C0
E1C1C0C0
E1C3C180
E1E7C100
70FDC600
70787800
70000000
38000000
18000000
1C000000
0E000200
03000C00
01E03000
003FC000
ENDCHAR
STARTCHAR A
ENCODING 65
SWIDTH 670 0
DWIDTH 24 0
BBX 26 25 -1 0
BITMAP
000C0000
000C0000
001E0000
001E0000
001F0000
00370000
00370000
00638000
00638000
0063C000
00C1C000
00C1C000
0080E000
0180E000
0180F000
03FFF000
03007000
02003800
06003800
06003C00
0C001C00
0C001C00
1C001E00
3E001F00
FFC0FFC0
ENDCHAR
STARTCHAR B
ENCODING 66
SWIDTH 653 0
DWIDTH 24 0
BBX 20 25 2 0
BITMAP
FFFE00
3C0780
1C01C0
1C00E0
1C00E0
1C00E0
1C00E0
1C00E0
1C01C0
1C0380
1C0600
1FF800
1C0780
1C01C0
1C00E0
1C0060
1C0070
1C0070
1C0070
1C0070
1C00F0
1C00E0
1C01C0
3E0780
FFFE00
ENDCHAR
STARTCHAR C
ENCODING 67
SWIDTH 642 0
DWIDTH 23 0
BBX 22 25 1 0
BITMAP
007FC8
0381F8
0600F8
0C0078
180038
380018
700018
700008
600008
E00000
E00000
E00000
E00000
E00000
E00000
E00000
E00000
700004
70000C
380008
380018
1C0030
0F0060
03C1C0
00FE00
ENDCHAR
STARTCHAR D
ENCODING 68
SWIDTH 749 0
DWIDTH 27 0
BBX 24 25 2 0
BITMAP
FFFE00
3C0780
1C00E0
1C0070
1C0038
1C001C
1C000E
1C000E
1C000E
1C0007
1C0007
1C0007
1C0007
1C0007
1C0007
1C0007
1C0006
1C000E
1C000E
1C001C
1C0018
1C0030
1C0060
3F0380
FFFE00
ENDCHAR
STARTCHAR E
ENCODING 69
SWIDTH 653 0
DWIDTH 24 0
BBX 22 25 1 0
BITMAP
FFFFF0
3E00F0
0E0070
0E0030
0E0030
0E0010
0E0000
0E0100
0E0100
0E0300
0E0700
0FFF00
0E0700
0E0300
0E0100
0E0100
0E0000
0E0000
0E0004
0E000C
0E000C
0E001C
0E003C
1F007C
FFFFFC
ENDCHAR
STARTCHAR F
ENCODING 70
SWIDTH 599 0
DWIDTH 22 0
BBX 21 25 1 0
BITMAP
FFFFF8
3E00F8
0E0038
0E0018
0E0018
0E0008
0E0000
0E0080
0E0080
0E0180
0E0380
0FFF80
0E0380
0E0180
0E0080
0E0080
0E0000
0E0000
0E0000
0E0000
0E0000
0E0000
0E0000
1F0000
FFE000
ENDCHAR
STARTCHAR G
ENCODING 71
SWIDTH 725 0
DWIDTH 26 0
BBX 25 25 1 0
BITMAP
007FE400
0181FC00
06007C00
0C003C00
18001C00
38000C00
30000C00
70000400
60000400
E0000000
E0000000
E0000000
E0000000
E001FF80
E0003E00
E0001C00
70001C00
70001C00
70001C00
38001C00
1C001C00
0C001C00
07001C00
03C07000
007F8000
ENDCHAR
STARTCHAR H
ENCODING 72
SWIDTH 814 0
DWIDTH 29 0
BBX 25 25 2 0
BITMAP
FF80FF80
3E003E00
1C001C00
1C001C00
1C001C00
1C001C00
1C001C00
1C001C00
1C001C00
1C001C00
1C001C00
1FFFFC00
1C001C00
1C001C00
1C001C00
1C001C00
1C001C00
1C001C00
1C001C00
1C001C00
1C001C00
1C001C00
1C001C00
3E003E00
FF80FF80
ENDCHAR
STARTCHAR I
ENCODING 73
SWIDTH 389 0
DWIDTH 14 0
BBX 11 25 1 0
BITMAP
FFE0
3F00
0E00
0E00
0E00
0E00
0E00
0E00
0E00
0E00
0E00
0E00
0E00
0E00
0E00
0E00
0E00
0E00
0E00
0E00
0E00
0E00
0E00
1F00
FFE0
ENDCHAR
STARTCHAR J
ENCODING 74
SWIDTH 517 0
DWIDTH 19 0
BBX 19 25 0 0
BITMAP
00FFE0
001F00
000E00
000E00
000E00
000E00
000E00
000E00
000E00
000E00
000E00
000E00
000E00
000E00
000E00
000E00
700E00
F80E00
F80E00
F80E00
F00C00
F01C00
601800
307000
0FC000
ENDCHAR
STARTCHAR K
ENCODING 75
SWIDTH 694 0
DWIDTH 25 0
BBX 24 25 2 0
BITMAP
FF87FC
3E01F0
1C01E0
1C01C0
1C0380
1C0700
1C0E00
1C1C00
1C3800
1C7000
1CE000
1DC000
1FC000
1DE000
1CF000
1C7800
1C3C00
1C1E00
1C0E00
1C0F00
1C0780
1C03C0
1C01E0
3E00F8
FF80FF
ENDCHAR
STARTCHAR L
ENCODING 76
SWIDTH 603 0
DWIDTH 22 0
BBX 20 25 2 0
BITMAP
FF8000
3E0000
1C0000
1C0000
1C0000
1C0000
1C0000
1C0000
1C0000
1C0000
1C0000
1C0000
1C0000
1C0000
1C0000
1C0000
1C0000
1C0000
1C0010
1C0030
1C0030
1C0070
1C00F0
3E01F0
FFFFF0
ENDCHAR
STARTCHAR M
ENCODING 77
SWIDTH 927 0
DWIDTH 33 0
BBX 31 25 1 0
BITMAP
FF0001FE
3F8003F0
1F8003E0
0F8003E0
0DC006E0
0DC006E0
0CE00CE0
0CE00CE0
0CE00CE0
0C7018E0
0C7018E0
0C7038E0
0C3830E0
0C3830E0
0C3C60E0
0C1C60E0
0C1C60E0
0C0EC0E0
0C0EC0E0
0C0F80E0
0C0780E0
0C0780E0
1E0700E0
3F0301F0
FFC20FFE
ENDCHAR
STARTCHAR N
ENCODING 78
SWIDTH 767 0
DWIDTH 28 0
BBX 27 25 1 0
BITMAP
FC007FE0
3E001F80
1E000F00
0F000600
0F800600
0DC00600
0DC00600
0CE00600
0C700600
0C380600
0C380600
0C1C0600
0C0E0600
0C070600
0C070600
0C038600
0C01C600
0C00E600
0C00E600
0C007600
0C003E00
0C001E00
1E001E00
3F000E00
FFC00600
ENDCHAR
STARTCHAR O
ENCODING 79
SWIDTH 744 0
DWIDTH 27 0
BBX 25 25 1 0
BITMAP
007F0000
0380E000
06003000
0C001800
18000C00
38000E00
70000700
70000700
60000300
E0000380
E0000380
E0000380
E0000380
E0000380
E0000380
E0000380
60000300
70000700
70000700
38000E00
18000C00
0C001800
06003000
0380E000
007F0000
ENDCHAR
STARTCHAR P
ENCODING 80
SWIDTH 609 0
DWIDTH 22 0
BBX 20 25 1 0
BITMAP
FFFE00
1E0780
0E01E0
0E00E0
0E0070
0E0070
0E0070
0E0070
0E0070
0E00E0
0E00E0
0E01C0
0E0700
0FFC00
0E0000
0E0000
0E0000
0E0000
0E0000
0E0000
0E0000
0E0000
0E0000
1F0000
7FE000
ENDCHAR
STARTCHAR Q
ENCODING 81
SWIDTH 744 0
DWIDTH 27 0
BBX 25 32 1 -7
BITMAP
007F0000
0380E000
06003000
0C001800
18000C00
38000E00
70000700
70000700
60000300
E0000380
E0000380
E0000380
E0000380
E0000380
E0000380
E0000380
60000300
70000700
70000700
38000E00
18000C00
0C001800
06003000
0380C000
007F0000
000E0000
000E0000
00070000
00070000
00038000
0001E000
0000FF80
ENDCHAR
STARTCHAR R
ENCODING 82
SWIDTH 701 0
DWIDTH 25 0
BBX 24 25 2 0
BITMAP
FFFE00
3C0780
1C03C0
1C01E0
1C00E0
1C00E0
1C00E0
1C00E0
1C01C0
1C01C0
1C0380
1C0E00
1FF800
1C1C00
1C1E00
1C0E00
1C0700
1C0780
1C0380
1C01C0
1C00E0
1C00F0
1C0078
3E003C
FFC03F
ENDCHAR
STARTCHAR S
ENCODING 83
SWIDTH 561 0
DWIDTH 20 0
BBX 17 25 2 0
BITMAP
03F900
0C1F00
380F00
300700
700300
700300
700300
780100
7C0000
3E0000
1FC000
0FF000
01FC00
007E00
000F00
000780
800780
800380
C00380
C00380
E00300
F00300
F80600
FC0C00
8FF000
ENDCHAR
STARTCHAR T
ENCODING 84
SWIDTH 618 0
DWIDTH 22 0
BBX 21 25 0 0
BITMAP
FFFFF8
F07078
E07038
E07038
C07018
C07018
807008
007000
007000
007000
007000
007000
007000
007000
007000
007000
007000
007000
007000
007000
007000
007000
007000
00F800
07FF00
ENDCHAR
STARTCHAR U
ENCODING 85
SWIDTH 756 0
DWIDTH 27 0
BBX 25 25 2 0
BITMAP
FF81FF80
3E007E00
1C003C00
1C001800
1C001800
1C001800
1C001800
1C001800
1C001800
1C001800
1C001800
1C001800
1C001800
1C001800
1C001800
1C001800
1C001800
1C001800
1C001800
1C001800
0C003000
0E003000
07006000
0381C000
007E0000
ENDCHAR
STARTCHAR V
ENCODING 86
SWIDTH 666 0
DWIDTH 24 0
BBX 26 25 -1 0
BITMAP
FFC0FFC0
3E001F00
1E000E00
0E000C00
0E000C00
0F001800
07001800
07001800
03803000
03803000
03C06000
01C06000
01C06000
00E0C000
00E0C000
00F18000
00718000
00718000
007B0000
003B0000
003E0000
001E0000
001E0000
001C0000
000C0000
ENDCHAR
STARTCHAR W
ENCODING 87
SWIDTH 975 0
DWIDTH 35 0
BBX 36 25 0 0
BITMAP
FFC0601FF0
3E006007C0
1C00F00380
1E00F00300
0E00F00300
0E01F80300
0E01B80600
0701B80600
07039C0600
07031C0600
07831C0C00
03870E0C00
03860E0C00
03860E1800
01CE071800
01CC071800
01CC071000
01EC03B000
00F803B000
00F803A000
00F801E000
007001E000
007001C000
007000C000
006000C000
ENDCHAR
STARTCHAR X
ENCODING 88
SWIDTH 710 0
DWIDTH 26 0
BBX 26 25 0 0
BITMAP
FFF0FF80
1F003E00
0F003800
07803800
07807000
03C06000
01C0C000
00E18000
00F18000
007B0000
003E0000
001E0000
001E0000
001F0000
00370000
00638000
00E3C000
00C1E000
0180E000
0380F000
07007800
06003800
0E003C00
3E003E00
FF83FFC0
ENDCHAR
STARTCHAR Y
ENCODING 89
SWIDTH 615 0
DWIDTH 22 0
BBX 23 25 -1 0
BITMAP
FFC1FE
3E003C
1E0030
0E0060
0E0060
0700C0
0300C0
038180
01C100
01C300
00E600
00E600
007C00
007C00
003800
003800
003800
003800
003800
003800
003800
003800
003800
007C00
03FF80
ENDCHAR
STARTCHAR Z
ENCODING 90
SWIDTH 601 0
DWIDTH 22 0
BBX 21 25 0 0
BITMAP
3FFFF8
3E0070
7800E0
7000E0
6001C0
600380
400700
000700
000E00
001C00
003C00
003800
007000
00E000
01E000
01C000
038000
070008
070018
0E0018
1C0038
380078
3800F0
7001F0
FFFFF0
ENDCHAR
STARTCHAR bracketleft
ENCODING 91
SWIDTH 375 0
DWIDTH 14 0
BBX 9 33 3 -6
BITMAP
FF80
FF80
E000
E000
E000
E000
E000
E000
E000
E000
E000
E000
E000
E000
E000
E000
E000
E000
E000
E000
E000
E000
E000
E000
E000
E000
E000
E000
E000
E000
E000
FF80
FF80
ENDCHAR
STARTCHAR backslash
ENCODING 92
SWIDTH 468 0
DWIDTH 17 0
BBX 14 34 2 -7
BITMAP
C000
6000
6000
6000
3000
3000
3000
1800
1800
1800
0C00
0C00
0C00
0600
0600
0700
0300
0300
0380
0180
0180
00C0
00C0
00C0
0060
0060
0060
0030
0030
0030
0018
0018
0018
000C
ENDCHAR
STARTCHAR bracketright
ENCODING 93
SWIDTH 375 0
DWIDTH 14 0
BBX 9 33 1 -6
BITMAP
FF80
FF80
0380
0380
0380
0380
0380
0380
0380
0380
0380
0380
0380
0380
0380
0380
0380
0380
0380
0380
0380
0380
0380
0380
0380
0380
0380
0380
0380
0380
0380
FF80
FF80
ENDCHAR
STARTCHAR asciicircum
ENCODING 94
SWIDTH 643 0
DWIDTH 23 0
BBX 16 12 3 13
BITMAP
0180
03C0
03C0
0660
0E70
0C30
1818
1818
300C
700E
6006
C003
ENDCHAR
STARTCHAR underscore
ENCODING 95
SWIDTH 643 0
DWIDTH 23 0
BBX 23 2 0 -5
BITMAP
FFFFFE
FFFFFE
ENDCHAR
STARTCHAR grave
ENCODING 96
SWIDTH 500 0
DWIDTH 18 0
BBX 7 8 6 20
BITMAP
E0
E0
F0
78
38
1C
04
02
ENDCHAR
STARTCHAR a
ENCODING 97
SWIDTH 503 0
DWIDTH 18 0
BBX 17 17 1 0
BITMAP
07E000
187800
303800
701C00
701C00
701C00
003C00
03DC00
1C1C00
301C00
701C00
E01C00
E01C00
E03C00
F07C00
7FDE00
3F0F80
ENDCHAR
STARTCHAR b
ENCODING 98
SWIDTH 560 0
DWIDTH 20 0
BBX 19 27 0 0
BITMAP
FC0000
3C0000
1C0000
1C0000
1C0000
1C0000
1C0000
1C0000
1C0000
1C0000
1C7C00
1DFF00
1F0780
1C03C0
1C01C0
1C01E0
1C00E0
1C00E0
1C00E0
1C00E0
1C00E0
1C00C0
1C01C0
1C0180
1E0380
1F0600
10F800
ENDCHAR
STARTCHAR c
ENCODING 99
SWIDTH 454 0
DWIDTH 16 0
BBX 15 17 1 0
BITMAP
07E0
1C38
3838
703C
703C
E03C
E018
E000
E000
E000
E000
F000
7006
7804
3C1C
1FF0
07E0
ENDCHAR
STARTCHAR d
ENCODING 100
SWIDTH 574 0
DWIDTH 21 0
BBX 20 27 1 0
BITMAP
003F80
000780
000380
000380
000380
000380
000380
000380
000380
000380
03FB80
0E0F80
180780
300380
700380
600380
E00380
E00380
E00380
E00380
E00380
F00380
700380
380380
3E0F80
1FFBC0
03E3F0
ENDCHAR
STARTCHAR e
ENCODING 101
SWIDTH 483 0
DWIDTH 17 0
BBX 15 17 1 0
BITMAP
07E0
1C38
381C
701C
600E
E00E
E00E
FFFE
E000
E000
E000
F000
7002
7806
3C1C
1FF8
07E0
ENDCHAR
STARTCHAR f
ENCODING 102
SWIDTH 325 0
DWIDTH 12 0
BBX 13 27 1 0
BITMAP
01F0
0278
0678
0C38
0C00
1C00
1C00
1C00
1C00
1C00
FFC0
1C00
1C00
1C00
1C00
1C00
1C00
1C00
1C00
1C00
1C00
1C00
1C00
1C00
1C00
3E00
FF80
ENDCHAR
STARTCHAR g
ENCODING 103
SWIDTH 509 0
DWIDTH 18 0
BBX 16 25 1 -8
BITMAP
0F80
18FF
3870
7038
7038
7038
7038
7038
3870
1CE0
0FC0
1000
3000
3800
3FF8
1FFE
07FE
380F
7007
E007
E007
E006
F00E
781C
1FE0
ENDCHAR
STARTCHAR h
ENCODING 104
SWIDTH 582 0
DWIDTH 21 0
BBX 20 27 1 0
BITMAP
FC0000
3C0000
1C0000
1C0000
1C0000
1C0000
1C0000
1C0000
1C0000
1C0000
1C7C00
1CFF00
1F0F00
1E0780
1C0380
1C0380
1C0380
1C0380
1C0380
1C0380
1C0380
1C0380
1C0380
1C0380
1C0380
3E07C0
FF9FF0
ENDCHAR
STARTCHAR i
ENCODING 105
SWIDTH 292 0
DWIDTH 11 0
BBX 9 26 1 0
BITMAP
3800
7C00
7C00
7C00
3800
0000
0000
0000
0000
1C00
FC00
3C00
1C00
1C00
1C00
1C00
1C00
1C00
1C00
1C00
1C00
1C00
1C00
1C00
3E00
FF80
ENDCHAR
STARTCHAR j
ENCODING 106
SWIDTH 291 0
DWIDTH 11 0
BBX 10 34 -2 -8
BITMAP
0380
07C0
07C0
07C0
0380
0000
0000
0000
0000
1FC0
07C0
01C0
01C0
01C0
01C0
01C0
01C0
01C0
01C0
01C0
01C0
01C0
01C0
01C0
01C0
01C0
01C0
01C0
01C0
0180
E180
F300
F200
7800
ENDCHAR
STARTCHAR k
ENCODING 107
SWIDTH 535 0
DWIDTH 19 0
BBX 18 27 1 0
BITMAP
FC0000
3C0000
1C0000
1C0000
1C0000
1C0000
1C0000
1C0000
1C0000
1C0000
1C3F80
1C1F00
1C0C00
1C1000
1C2000
1C6000
1CC000
1DC000
1EE000
1CF000
1C7000
1C3800
1C3C00
1C1E00
1C0E00
3E0F00
FF87C0
ENDCHAR
STARTCHAR l
ENCODING 108
SWIDTH 286 0
DWIDTH 10 0
BBX 9 27 0 0
BITMAP
FC00
3C00
1C00
1C00
1C00
1C00
1C00
1C00
1C00
1C00
1C00
1C00
1C00
1C00
1C00
1C00
1C00
1C00
1C00
1C00
1C00
1C00
1C00
1C00
1C00
3E00
FF80
ENDCHAR
STARTCHAR m
ENCODING 109
SWIDTH 880 0
DWIDTH 32 0
BBX 31 17 1 0
BITMAP
FC7C0F80
3CFF1FE0
1F07E0E0
1E07C0F0
1C038070
1C038070
1C038070
1C038070
1C038070
1C038070
1C038070
1C038070
1C038070
1C038070
1C038070
3E07C0F8
FF9FF3FE
ENDCHAR
STARTCHAR n
ENCODING 110
SWIDTH 590 0
DWIDTH 21 0
BBX 20 17 1 0
BITMAP
FC7C00
3CFF00
1F0F00
1E0780
1C0380
1C0380
1C0380
1C0380
1C0380
1C0380
1C0380
1C0380
1C0380
1C0380
1C0380
3E07C0
FF9FF0
ENDCHAR
STARTCHAR o
ENCODING 111
SWIDTH 539 0
DWIDTH 19 0
BBX 17 17 1 0
BITMAP
07F000
1C1C00
380E00
700700
700700
E00380
E00380
E00380
E00380
E00380
E00380
E00300
700700
700700
380E00
1C1C00
07E000
ENDCHAR
STARTCHAR p
ENCODING 112
SWIDTH 571 0
DWIDTH 21 0
BBX 19 25 1 -8
BITMAP
FC7C00
3DFF00
1F0780
1C03C0
1C01C0
1C01E0
1C00E0
1C00E0
1C00E0
1C00E0
1C00E0
1C00C0
1C01C0
1C0180
1E0380
1F0600
1DF800
1C0000
1C0000
1C0000
1C0000
1C0000
1C0000
3E0000
FF8000
ENDCHAR
STARTCHAR q
ENCODING 113
SWIDTH 559 0
DWIDTH 20 0
BBX 19 25 1 -8
BITMAP
03E100
0C1F00
380F00
300700
700700
E00700
E00700
E00700
E00700
E00700
E00700
E00700
700700
780700
3C1F00
1FF700
07C700
000700
000700
000700
000700
000700
000700
000F80
003FE0
ENDCHAR
STARTCHAR r
ENCODING 114
SWIDTH 409 0
DWIDTH 15 0
BBX 14 17 1 0
BITMAP
FC78
3DFC
1F9C
1E1C
1C1C
1C00
1C00
1C00
1C00
1C00
1C00
1C00
1C00
1C00
1C00
3E00
FF80
ENDCHAR
STARTCHAR s
ENCODING 115
SWIDTH 432 0
DWIDTH 16 0
BBX 14 17 1 0
BITMAP
0FE8
1878
3038
7018
7008
7808
7E00
3FC0
1FF0
03F8
007C
803C
C01C
C01C
E018
F830
9FC0
ENDCHAR
STARTCHAR t
ENCODING 116
SWIDTH 345 0
DWIDTH 12 0
BBX 12 22 0 0
BITMAP
1C00
1C00
1C00
1C00
1C00
FFF0
1C00
1C00
1C00
1C00
1C00
1C00
1C00
1C00
1C00
1C00
1C00
1C00
1C00
1E00
0FF0
07E0
ENDCHAR
STARTCHAR u
ENCODING 117
SWIDTH 575 0
DWIDTH 21 0
BBX 20 17 1 0
BITMAP
FC1F80
3C0780
1C0380
1C0380
1C0380
1C0380
1C0380
1C0380
1C0380
1C0380
1C0380
1C0380
1C0380
1C0780
0E0F80
0FFBC0
03E3F0
ENDCHAR
STARTCHAR v
ENCODING 118
SWIDTH 496 0
DWIDTH 18 0
BBX 19 17 0 0
BITMAP
FF07E0
7C0380
1C0180
1C0100
1E0100
0E0200
0F0200
070400
070400
038800
038800
03D000
01D000
01F000
00E000
00E000
004000
ENDCHAR
STARTCHAR w
ENCODING 119
SWIDTH 737 0
DWIDTH 27 0
BBX 28 17 0 0
BITMAP
FF0603F0
7C0700E0
1C070080
1C0F8080
1C0B8080
0E0BC100
0E19C100
0E11E100
0710E200
0730E200
07207400
03A07400
03A07C00
03C03800
01C03800
01C01800
01801000
ENDCHAR
STARTCHAR x
ENCODING 120
SWIDTH 504 0
DWIDTH 18 0
BBX 18 17 0 0
BITMAP
FF0FC0
3C0F00
1E0E00
0E1C00
0F1800
07B000
03F000
01E000
01E000
01F000
037000
063800
0E3C00
0C1E00
1C0E00
780F00
FC3FC0
ENDCHAR
STARTCHAR y
ENCODING 121
SWIDTH 492 0
DWIDTH 18 0
BBX 19 25 0 -8
BITMAP
FF07E0
7C03C0
1C0180
1C0100
1E0100
0E0200
0F0200
070400
070400
038800
038800
03C800
01D000
01D000
00E000
00E000
004000
004000
004000
008000
010000
630000
F60000
FC0000
780000
ENDCHAR
STARTCHAR z
ENCODING 122
SWIDTH 443 0
DWIDTH 16 0
BBX 14 17 1 0
BITMAP
7FFC
7038
6078
4070
40E0
01E0
01C0
0380
0780
0700
0E00
1E04
1C04
380C
780C
701C
FFFC
ENDCHAR
STARTCHAR braceleft
ENCODING 123
SWIDTH 430 0
DWIDTH 15 0
BBX 13 33 1 -6
BITMAP
0078
01F8
03C0
0780
0700
0700
0700
0700
0700
0700
0700
0700
0600
0E00
3C00
F000
E000
1C00
0E00
0600
0700
0700
0700
0700
0700
0700
0700
0700
0700
0780
03C0
01F8
0078
ENDCHAR
STARTCHAR bar
ENCODING 124
SWIDTH 375 0
DWIDTH 14 0
BBX 2 34 6 -7
BITMAP
C0
C0
C0
C0
C0
C0
C0
C0
C0
C0
C0
C0
C0
C0
C0
C0
C0
C0
C0
C0
C0
C0
C0
C0
C0
C0
C0
C0
C0
C0
C0
C0
C0
C0
ENDCHAR
STARTCHAR braceright
ENCODING 125
SWIDTH 430 0
DWIDTH 15 0
BBX 13 33 1 -6
BITMAP
F000
FC00
1E00
0F00
0700
0700
0700
0700
0700
0700
0700
0700
0700
0380
01C0
0078
0038
01C0
0380
0300
0700
0700
0700
0700
0700
0700
0700
0700
0700
0F00
1E00
FC00
F000
ENDCHAR
STARTCHAR asciitilde
ENCODING 126
SWIDTH 643 0
DWIDTH 23 0
BBX 19 7 2 6
BITMAP
000060
0F8060
1FF0C0
3FFF80
61FF00
C03E00
C00000
ENDCHAR
STARTCHAR cent
ENCODING 162
SWIDTH 555 0
DWIDTH 20 0
BBX 16 27 2 -5
BITMAP
00C0
00C0
00C0
00C0
00C0
03F0
0EDC
18DC
30DE
70DE
60DE
E0CC
E0C0
E0C0
E0C0
E0C0
F0C0
70C1
78C3
3EC6
1FFC
07F0
00C0
00C0
00C0
00C0
00C0
ENDCHAR
STARTCHAR sterling
ENCODING 163
SWIDTH 622 0
DWIDTH 22 0
BBX 18 25 2 0
BITMAP
007C00
018600
030300
070380
060380
0E0380
0E0380
0E0000
0E0000
0E0000
0E0000
0E0000
0E0000
7FFC00
0E0000
0E0000
0E0000
0C0000
1C0000
180000
100000
200000
FFFFC0
FFFFC0
FFFFC0
ENDCHAR
STARTCHAR brokenbar
ENCODING 166
SWIDTH 375 0
DWIDTH 14 0
BBX 2 34 6 -7
BITMAP
C0
C0
C0
C0
C0
C0
C0
C0
C0
C0
C0
C0
C0
C0
00
00
00
00
00
00
C0
C0
C0
C0
C0
C0
C0
C0
C0
C0
C0
C0
C0
C0
ENDCHAR
STARTCHAR ordfeminine
ENCODING 170
SWIDTH 500 0
DWIDTH 18 0
BBX 13 15 3 10
BITMAP
0F80
31C0
70E0
70E0
70E0
00E0
07E0
1CE0
70E0
E0E0
E0E0
E0E0
F1E0
7EF8
3C78
ENDCHAR
STARTCHAR guillemotleft
ENCODING 171
SWIDTH 581 0
DWIDTH 21 0
BBX 15 14 3 2
BITMAP
0102
060C
0E1C
1C38
3870
70E0
F1E0
F1E0
70E0
3870
1C38
0E1C
060C
0102
ENDCHAR
STARTCHAR hyphen.dup1
ENCODING 173
SWIDTH 374 0
DWIDTH 13 0
BBX 10 3 2 8
BITMAP
FFC0
FFC0
FFC0
ENDCHAR
STARTCHAR degree
ENCODING 176
SWIDTH 419 0
DWIDTH 15 0
BBX 11 11 2 14
BITMAP
1F00
3180
61C0
E0E0
E0E0
E0E0
E0E0
E0E0
71C0
3180
1F00
ENDCHAR
STARTCHAR plusminus
ENCODING 177
SWIDTH 643 0
DWIDTH 23 0
BBX 18 19 2 0
BITMAP
00C000
00C000
00C000
00C000
00C000
00C000
00C000
00C000
FFFFC0
FFFFC0
00C000
00C000
00C000
00C000
00C000
00C000
00C000
FFFFC0
FFFFC0
ENDCHAR
STARTCHAR uni00B2
ENCODING 178
SWIDTH 500 0
DWIDTH 18 0
BBX 13 17 3 8
BITMAP
1F80
70E0
6060
E070
E070
E070
0070
00E0
01E0
03C0
0700
1C00
3000
6000
FFF8
FFF8
FFF8
ENDCHAR
STARTCHAR uni00B3
ENCODING 179
SWIDTH 500 0
DWIDTH 18 0
BBX 13 18 2 7
BITMAP
0F80
30E0
7070
7070
7070
0070
00E0
00E0
0F80
0FE0
0070
0038
0038
E038
E038
E070
60E0
1F80
ENDCHAR
STARTCHAR acute
ENCODING 180
SWIDTH 500 0
DWIDTH 18 0
BBX 7 8 5 20
BITMAP
0E
0E
1E
3C
38
70
40
80
ENDCHAR
STARTCHAR uni00B9
ENCODING 185
SWIDTH 500 0
DWIDTH 18 0
BBX 9 17 5 8
BITMAP
0C00
1C00
FC00
1C00
1C00
1C00
1C00
1C00
1C00
1C00
1C00
1C00
1C00
1C00
1C00
1E00
FF80
ENDCHAR
STARTCHAR ordmasculine
ENCODING 186
SWIDTH 500 0
DWIDTH 18 0
BBX 14 15 2 10
BITMAP
0FC0
1860
3030
7038
E01C
E01C
E01C
E01C
E01C
E01C
E018
7038
3030
1860
0FC0
ENDCHAR
STARTCHAR guillemotright
ENCODING 187
SWIDTH 581 0
DWIDTH 21 0
BBX 15 14 3 2
BITMAP
8100
60C0
70E0
3870
1C38
0E1C
0F1E
0F1E
0E1C
1C38
3870
70E0
60C0
8100
ENDCHAR
STARTCHAR onequarter
ENCODING 188
SWIDTH 1049 0
DWIDTH 38 0
BBX 33 25 2 0
BITMAP
0600060000
FE000E0000
FE000C0000
0E001C0000
0E00180000
0E00380000
0E00300000
0E00700000
0E00600C00
0E00E01C00
0E00C03C00
0E01807C00
0E0180DC00
0E03019C00
0E03039C00
FFC6031C00
000E061C00
000C0C1C00
001C181C00
00181FFF80
00381FFF80
0030001C00
0070001C00
0060001C00
00E0001C00
ENDCHAR
STARTCHAR onehalf
ENCODING 189
SWIDTH 1049 0
DWIDTH 38 0
BBX 34 25 2 0
BITMAP
0600060000
FE000E0000
FE000C0000
0E00180000
0E00180000
0E00300000
0E00300000
0E00600000
0E00E0FC00
0E00C3DF00
0E01C70700
0E01870380
0E03870380
0E03070380
0E07000380
FFC6000780
000E000F00
000C001E00
001C003C00
0018007000
003801C000
0030030000
007007FFC0
006007FFC0
00E007FFC0
ENDCHAR
STARTCHAR threequarters
ENCODING 190
SWIDTH 1049 0
DWIDTH 38 0
BBX 35 25 2 0
BITMAP
1FE001C000
70F0018000
7070038000
7078030000
7070070000
0070060000
00E00E0000
0F800C0000
0FF01C0700
0078180F00
0038380F00
0038301F00
E038703700
E038606700
E070E0C700
79E0C18700
1F81C30700
0001870700
0003860700
00030FFFE0
00060FFFE0
0006000700
000C000700
000C000700
0018000700
ENDCHAR
ENDFONT
