STARTFONT 2.1
FONT -FontForge-Georgia-Bold-R-Normal--47-450-75-75-P-295-ISO10646-1
SIZE 45 75 75
FONTBOUNDINGBOX 60 46 -6 -10
COMMENT "Generated by fontforge, http://fontforge.sourceforge.net"
COMMENT "(c) 2016 Microsoft Corporation. All Rights Reserved."
STARTPROPERTIES 38
FOUNDRY "FontForge"
FAMILY_NAME "Georgia"
WEIGHT_NAME "Bold"
SLANT "R"
SETWIDTH_NAME "Normal"
ADD_STYLE_NAME ""
PIXEL_SIZE 47
POINT_SIZE 450
RESOLUTION_X 75
RESOLUTION_Y 75
SPACING "P"
AVERAGE_WIDTH 295
CHARSET_REGISTRY "ISO10646"
CHARSET_ENCODING "1"
FONTNAME_REGISTRY ""
CHARSET_COLLECTIONS "ISO10646-1"
FONT_NAME "Georgia-Bold"
FACE_NAME "Georgia Bold"
COPYRIGHT "(c) 2016 Microsoft Corporation. All Rights Reserved."
FONT_VERSION "5.59"
FONT_ASCENT 38
FONT_DESCENT 9
UNDERLINE_POSITION -6
UNDERLINE_THICKNESS 3
X_HEIGHT 22
CAP_HEIGHT 32
RAW_ASCENT 799
RAW_DESCENT 200
RELATIVE_WEIGHT 70
RELATIVE_SETWIDTH 50
SUPERSCRIPT_X 0
SUPERSCRIPT_Y 12
SUPERSCRIPT_SIZE 30
SUBSCRIPT_X 0
SUBSCRIPT_Y 3
SUBSCRIPT_SIZE 30
AVG_LOWERCASE_WIDTH 274
AVG_UPPERCASE_WIDTH 361
ENDPROPERTIES
CHARS 111
STARTCHAR exclam
ENCODING 33
SWIDTH 376 0
DWIDTH 18 0
BBX 9 35 4 -1
BITMAP
3E00
7F00
FF80
FF80
FF80
FF80
FF80
FF80
7F00
7F00
7F00
7F00
3E00
3E00
3E00
3E00
3E00
1C00
1C00
1C00
1C00
1C00
0800
0000
0000
0000
3E00
7F00
FF80
FF80
FF80
FF80
FF80
7F00
3E00
ENDCHAR
STARTCHAR quotedbl
ENCODING 34
SWIDTH 509 0
DWIDTH 24 0
BBX 19 16 3 19
BITMAP
3C0780
7E0FC0
FF1FE0
FF1FE0
FF1FE0
FF1FE0
7E0FC0
7E0FC0
7E0FC0
7E0FC0
3C0780
3C0780
3C0780
180300
180300
180300
ENDCHAR
STARTCHAR numbersign
ENCODING 35
SWIDTH 703 0
DWIDTH 33 0
BBX 27 29 3 0
BITMAP
000E0700
000E0F00
001C0E00
001C0E00
001C1E00
00381C00
00381C00
00381C00
3FFFFFE0
3FFFFFE0
3FFFFFE0
3FFFFFE0
00E07000
00E07000
01E0F000
01C0E000
01C0E000
01C1E000
FFFFFF80
FFFFFF80
FFFFFF80
FFFFFF80
07038000
07038000
0F070000
0E070000
0E070000
1E0E0000
1C0E0000
ENDCHAR
STARTCHAR dollar
ENCODING 36
SWIDTH 640 0
DWIDTH 30 0
BBX 26 41 2 -6
BITMAP
000C0000
000C0000
000C0000
000C0000
000C0000
007FC000
03FFF800
0F8C7E00
1F0C3F00
1E0C7F80
3C0C7F80
7C0C7F80
7C0C7F80
7C0C3F00
7E0C1E00
7F8C0000
7FFF0000
3FFFF000
3FFFFC00
1FFFFF00
0FFFFF00
03FFFF80
007FFFC0
000CFFC0
3C0C1FC0
7E0C0FC0
FF0C07C0
FF0C07C0
FF0C0780
FF0C0780
7E0C0F00
3E0C1E00
1F8C7C00
07FFF000
00FF8000
000C0000
000C0000
000C0000
000C0000
000C0000
000C0000
ENDCHAR
STARTCHAR percent
ENCODING 37
SWIDTH 879 0
DWIDTH 41 0
BBX 37 35 2 -1
BITMAP
03F0000000
0FFC0001C0
3F3F000380
3E1F000700
7C0F800E00
FC0FC01C00
FC0FC03800
FC0FC07800
FC0FC07000
FC0FC0E000
FC0FC1C000
FC0FC38000
7C0F870000
3E1F0E0000
3F3F0E0000
0FFC1C0000
03F0380000
0000700000
0000E07E00
0001C1FF80
000387E7E0
000387C3E0
00070F81F0
000E1F81F8
001C1F81F8
00381F81F8
00701F81F8
00F01F81F8
00E01F81F8
01C01F81F8
03800F81F0
070007C3E0
0E0007E7E0
1C0001FF80
0000007E00
ENDCHAR
STARTCHAR ampersand
ENCODING 38
SWIDTH 799 0
DWIDTH 38 0
BBX 36 35 2 -1
BITMAP
001FC00000
007FE00000
01FC780000
03F8380000
03F81C0000
07F81C0000
07F81C0000
07F81C0000
07FC1C0000
07FC380000
07FE380000
03FE300000
03FF700000
01FFE3FFE0
01FF83FFE0
00FFC0FF00
00FFE03C00
03FFE03800
0FBFF03800
1F9FF83800
3F0FFC7000
7F07FC7000
7F07FE6000
FF03FFE000
FF01FFC000
FF00FFC000
FF007FC000
FF807FE000
FF803FF000
7FC03FF800
7FC03FFC00
3FF0E7FF80
1FFFC7FFF0
0FFF03FFF0
03F8000000
ENDCHAR
STARTCHAR quotesingle
ENCODING 39
SWIDTH 269 0
DWIDTH 13 0
BBX 8 16 3 19
BITMAP
3C
7E
FF
FF
FF
FF
7E
7E
7E
7E
3C
3C
3C
18
18
18
ENDCHAR
STARTCHAR parenleft
ENCODING 40
SWIDTH 446 0
DWIDTH 21 0
BBX 17 43 3 -8
BITMAP
000180
000F80
003E00
00FC00
01F000
03F000
07E000
0FC000
1FC000
1FC000
3F8000
3F8000
7F8000
7F8000
7F0000
7F0000
FF0000
FF0000
FF0000
FF0000
FF0000
FF0000
FF0000
FF0000
FF0000
FF0000
FF0000
7F0000
7F0000
7F8000
7F8000
3F8000
3F8000
1FC000
1FC000
0FC000
07E000
03F000
01F000
00FC00
003E00
000F80
000180
ENDCHAR
STARTCHAR parenright
ENCODING 41
SWIDTH 446 0
DWIDTH 21 0
BBX 17 43 2 -8
BITMAP
E00000
F80000
3E0000
1F8000
07C000
07E000
03F000
01F800
01FC00
01FC00
00FE00
00FE00
00FF00
00FF00
007F00
007F00
007F80
007F80
007F80
007F80
007F80
007F80
007F80
007F80
007F80
007F80
007F80
007F00
007F00
00FF00
00FF00
00FE00
00FE00
01FC00
01FC00
01F800
03F000
07E000
07C000
1F8000
3E0000
F80000
C00000
ENDCHAR
STARTCHAR asterisk
ENCODING 42
SWIDTH 481 0
DWIDTH 23 0
BBX 19 18 2 16
BITMAP
060C00
0F1E00
0F1E00
0F1C00
07BC00
03B800
01B000
70E1C0
FFFFE0
FFFFE0
70E1C0
01B000
03B800
07BC00
0F1C00
0F1E00
0F1E00
060C00
ENDCHAR
STARTCHAR plus
ENCODING 43
SWIDTH 703 0
DWIDTH 33 0
BBX 26 26 4 0
BITMAP
001E0000
001E0000
001E0000
001E0000
001E0000
001E0000
001E0000
001E0000
001E0000
001E0000
001E0000
FFFFFFC0
FFFFFFC0
FFFFFFC0
FFFFFFC0
001E0000
001E0000
001E0000
001E0000
001E0000
001E0000
001E0000
001E0000
001E0000
001E0000
001E0000
ENDCHAR
STARTCHAR comma
ENCODING 44
SWIDTH 328 0
DWIDTH 15 0
BBX 9 17 3 -10
BITMAP
3C00
7E00
FF00
FF80
FF80
7F80
3F80
0380
0380
0700
0700
0E00
0E00
3C00
7800
F000
4000
ENDCHAR
STARTCHAR hyphen
ENCODING 45
SWIDTH 378 0
DWIDTH 18 0
BBX 14 5 2 10
BITMAP
FFFC
FFFC
FFFC
FFFC
FFFC
ENDCHAR
STARTCHAR period
ENCODING 46
SWIDTH 328 0
DWIDTH 15 0
BBX 9 9 3 -1
BITMAP
3E00
7F00
FF00
FF80
FF80
FF80
FF80
7F00
3C00
ENDCHAR
STARTCHAR slash
ENCODING 47
SWIDTH 471 0
DWIDTH 22 0
BBX 20 45 1 -10
BITMAP
0000F0
0001E0
0001E0
0001E0
0003C0
0003C0
0003C0
000780
000780
000F80
000F00
000F00
001F00
001E00
001E00
003E00
003C00
003C00
007C00
007800
007800
00F000
00F000
00F000
01E000
01E000
03E000
03C000
03C000
07C000
078000
078000
0F8000
0F0000
0F0000
1F0000
1E0000
1E0000
3C0000
3C0000
3C0000
780000
780000
780000
F00000
ENDCHAR
STARTCHAR zero
ENCODING 48
SWIDTH 701 0
DWIDTH 33 0
BBX 29 27 2 -1
BITMAP
003FE000
01FFFC00
03F07E00
0FE03F80
1FE03FC0
3FC01FE0
3FC01FE0
7FC01FF0
7F800FF0
FF800FF0
FF800FF8
FF800FF8
FF800FF8
FF800FF8
FF800FF8
FF800FF8
FF800FF8
FF800FF0
7F800FF0
7FC01FF0
3FC01FE0
3FC01FE0
1FE03FC0
0FE03F80
03F0FE00
01FFFC00
003FE000
ENDCHAR
STARTCHAR one
ENCODING 49
SWIDTH 489 0
DWIDTH 23 0
BBX 19 26 2 0
BITMAP
007C00
007C00
01FC00
07FC00
FFFC00
FFFC00
03FC00
03FC00
03FC00
03FC00
03FC00
03FC00
03FC00
03FC00
03FC00
03FC00
03FC00
03FC00
03FC00
03FC00
03FC00
03FC00
03FE00
0FFF00
FFFFE0
FFFFE0
ENDCHAR
STARTCHAR two
ENCODING 50
SWIDTH 626 0
DWIDTH 29 0
BBX 24 26 3 0
BITMAP
01FF00
0FFFE0
1E0FF8
7E07FC
7F07FC
FF03FE
FF03FE
FF03FE
FF03FE
7E03FE
3C03FE
0007FC
000FFC
001FF8
003FE0
00FF80
01FC00
07C000
0F0000
1C0000
7FFFFF
FFFFFF
FFFFFF
FFFFFF
FFFFFF
FFFFFF
ENDCHAR
STARTCHAR three
ENCODING 51
SWIDTH 624 0
DWIDTH 29 0
BBX 26 34 1 -8
BITMAP
00FFC000
07FFF800
0F03FC00
1F00FE00
3F80FF00
7F807F80
7F807F80
7F807F80
7F807F80
3F007F80
1E007F00
0000FF00
0000FE00
0001FC00
0003F000
00FFC000
00FFC000
00FFFC00
0003FE00
0000FF00
0000FF80
00007FC0
00007FC0
3C007FC0
7E007FC0
FF007FC0
FF007FC0
FF007F80
FF00FF80
7F01FF00
7E01FE00
1E07F800
0FFFF000
01FF0000
ENDCHAR
STARTCHAR four
ENCODING 52
SWIDTH 649 0
DWIDTH 31 0
BBX 28 34 1 -8
BITMAP
0000FE00
0001FE00
0003FE00
0003FE00
0007FE00
000FFE00
001DFE00
0039FE00
0039FE00
0071FE00
00E1FE00
01C1FE00
0381FE00
0381FE00
0701FE00
0E01FE00
1C01FE00
3C01FE00
3801FE00
7001FE00
FFFFFFF0
FFFFFFF0
FFFFFFF0
FFFFFFF0
FFFFFFF0
0001FE00
0001FE00
0001FE00
0001FE00
0001FE00
0001FE00
0001FE00
0001FE00
0001FE00
ENDCHAR
STARTCHAR five
ENCODING 53
SWIDTH 599 0
DWIDTH 28 0
BBX 25 34 1 -8
BITMAP
0FFFFF00
0FFFFF00
0FFFFF00
0FFFFF00
1FFFFF00
1FFFFF00
1C000000
1C000000
1C000000
1C000000
1C000000
1C000000
1C7F8000
39FFF000
3FFFF800
3F07FC00
3C01FE00
3801FF00
0000FF00
00007F80
00007F80
00007F80
00007F80
3C007F80
7E007F80
FF007F80
FF00FF00
FF00FF00
FF00FE00
7F01FC00
7E03F800
1E0FF000
0FFFC000
01FF0000
ENDCHAR
STARTCHAR six
ENCODING 54
SWIDTH 647 0
DWIDTH 30 0
BBX 26 35 2 -1
BITMAP
00003800
0003F800
000FC000
003F0000
00FC0000
01F80000
03F00000
07E00000
0FE00000
1FC00000
1FC00000
3F800000
3F800000
7F87F000
7FBFFC00
7F7FFE00
FFC1FF00
FF80FF00
FF007F80
FF007F80
FF003FC0
FF003FC0
FF003FC0
FF003FC0
FF003FC0
7F003FC0
7F003FC0
7F803F80
3F807F80
3F807F00
1FC07E00
0FC0FE00
07E1F800
01FFF000
007F8000
ENDCHAR
STARTCHAR seven
ENCODING 55
SWIDTH 554 0
DWIDTH 26 0
BBX 24 33 2 -8
BITMAP
FFFFFF
FFFFFF
FFFFFF
FFFFFF
FFFFFE
FFFFFE
F0001C
E00018
E00038
C00070
C00070
0000E0
0000E0
0001C0
0001C0
000380
000700
000700
000E00
000E00
001C00
001C00
003800
007800
007000
00F000
00E000
01C000
01C000
038000
078000
070000
0F0000
ENDCHAR
STARTCHAR eight
ENCODING 56
SWIDTH 676 0
DWIDTH 32 0
BBX 28 35 2 -1
BITMAP
003FE000
01FFFC00
07F0FF00
0FC03F80
1FC03FC0
3F801FC0
7F801FE0
7F801FE0
7F801FE0
7FC01FE0
7FC01FE0
7FE01FC0
3FF81F80
3FFE3F00
1FFFFC00
0FFFE000
07FFFC00
01FFFF00
01FFFF80
0FDFFFC0
1F87FFE0
3F81FFE0
7F007FF0
FF003FF0
FF001FF0
FF000FF0
FF000FF0
FF000FF0
FF000FE0
7F800FE0
7F801FC0
3FC03F80
0FF07F00
07FFFC00
00FFC000
ENDCHAR
STARTCHAR nine
ENCODING 57
SWIDTH 647 0
DWIDTH 30 0
BBX 26 35 2 -9
BITMAP
007F8000
03FFE000
07E1F800
1FC0FC00
3F80FE00
3F807F00
7F807F00
7F007F80
FF003F80
FF003F80
FF003FC0
FF003FC0
FF003FC0
FF003FC0
FF003FC0
7F803FC0
7F803FC0
3FC07FC0
3FE0FFC0
1FFFBF80
0FFF7F80
03FC7F80
00007F00
00007F00
0000FE00
0000FE00
0001FC00
0001F800
0003F000
0007E000
000FC000
003F0000
00FC0000
07F00000
07000000
ENDCHAR
STARTCHAR colon
ENCODING 58
SWIDTH 367 0
DWIDTH 17 0
BBX 9 24 4 -1
BITMAP
3E00
7F00
FF00
FF80
FF80
FF80
FF80
7F00
3C00
0000
0000
0000
0000
0000
0000
3E00
7F00
FF00
FF80
FF80
FF80
FF80
7F00
3C00
ENDCHAR
STARTCHAR semicolon
ENCODING 59
SWIDTH 367 0
DWIDTH 17 0
BBX 9 33 4 -10
BITMAP
3E00
7F00
FF00
FF80
FF80
FF80
FF80
7F00
3C00
0000
0000
0000
0000
0000
0000
0000
3C00
7E00
FF00
FF80
FF80
7F80
3F80
0380
0380
0700
0700
0E00
0E00
3C00
7800
F000
4000
ENDCHAR
STARTCHAR less
ENCODING 60
SWIDTH 703 0
DWIDTH 33 0
BBX 23 26 5 0
BITMAP
000002
00000E
00003E
0000FE
0003FE
000FF8
003FE0
00FF80
03FE00
0FF800
3FE000
FF8000
FE0000
FE0000
FF8000
3FE000
0FF800
03FE00
00FF80
003FE0
000FF8
0003FE
0000FE
00003E
00000E
000002
ENDCHAR
STARTCHAR equal
ENCODING 61
SWIDTH 703 0
DWIDTH 33 0
BBX 25 14 4 6
BITMAP
FFFFFF80
FFFFFF80
FFFFFF80
FFFFFF80
00000000
00000000
00000000
00000000
00000000
00000000
FFFFFF80
FFFFFF80
FFFFFF80
FFFFFF80
ENDCHAR
STARTCHAR greater
ENCODING 62
SWIDTH 703 0
DWIDTH 33 0
BBX 23 26 5 0
BITMAP
800000
E00000
F80000
FE0000
FF8000
3FE000
0FF800
03FE00
00FF80
003FE0
000FF8
0003FE
0000FE
0000FE
0003FE
000FF8
003FE0
00FF80
03FE00
0FF800
3FE000
FF8000
FE0000
F80000
E00000
800000
ENDCHAR
STARTCHAR question
ENCODING 63
SWIDTH 548 0
DWIDTH 26 0
BBX 22 35 2 -1
BITMAP
03FE00
0FFF80
3F07E0
7E03F0
FF01F0
FF00F8
FF00F8
FF00FC
7E00FC
3C00FC
0001FC
0001FC
0003FC
0007F8
001FF8
00FFF8
00FFF0
00FFE0
00FFC0
00FF00
00F800
00C000
00C000
00C000
000000
000000
01F000
03F800
07FC00
07FC00
07FC00
07FC00
07FC00
03F800
01F000
ENDCHAR
STARTCHAR at
ENCODING 64
SWIDTH 966 0
DWIDTH 45 0
BBX 38 39 4 -7
BITMAP
00007FE000
0007FFFC00
001F807E00
007C000F80
00F00003C0
01E00001E0
03C00000F0
0780000070
0F00000038
1E003CFE38
1E00FEFE38
3C03E3FC1C
3C07C1FC1C
780F81F81C
780F81F81C
781F03F81C
F03F03F01C
F03F03F01C
F03E07F01C
F07E07E018
F07E07E038
F07E0FE038
F07E0FC030
F07E0FC070
F07E1FC0E0
783F3FC1C0
783FF7C380
781FE7FF00
3C0F81FC00
3C00000000
1E00000000
1E00000000
0F00000000
0780000100
03E0000380
00F0000F00
007E007C00
000FFFF000
0001FF8000
ENDCHAR
STARTCHAR A
ENCODING 65
SWIDTH 758 0
DWIDTH 36 0
BBX 38 33 -1 0
BITMAP
00007C0000
0000FC0000
0000FE0000
0000FE0000
0001FE0000
0001FF0000
0003FF0000
0003FF8000
0007FF8000
00077F8000
00077FC000
000E3FC000
000E3FE000
001C3FE000
001C1FE000
001C1FF000
00380FF000
00380FF800
00700FF800
007007F800
007FFFFC00
00FFFFFC00
00E003FE00
01C003FE00
01C001FE00
03C001FF00
038000FF00
038000FF80
0780007F80
0F80007FC0
1FC001FFF0
FFF80FFFFC
FFF80FFFFC
ENDCHAR
STARTCHAR B
ENCODING 66
SWIDTH 757 0
DWIDTH 36 0
BBX 33 33 1 0
BITMAP
FFFFFF0000
FFFFFFE000
3FF81FF800
0FF80FFC00
07F807FC00
07F803FE00
07F803FE00
07F803FE00
07F803FE00
07F803FE00
07F807FC00
07F807F800
07F80FF000
07F83FC000
07FFFC0000
07FFFF8000
07F81FF000
07F807FC00
07F803FE00
07F801FF00
07F801FF00
07F800FF80
07F800FF80
07F800FF80
07F800FF80
07F800FF80
07F800FF80
07F801FF00
07F801FF00
07F803FE00
1FFE0FFC00
FFFFFFF000
FFFFFF0000
ENDCHAR
STARTCHAR C
ENCODING 67
SWIDTH 715 0
DWIDTH 34 0
BBX 31 35 2 -1
BITMAP
0007FC00
003FFF9C
00FE07FC
01F801FC
03F000FC
07F0007C
0FE0007C
1FE0003C
3FC0003C
3FC0001C
7FC0001C
7F80001C
7F80000C
FF800000
FF800000
FF800000
FF800000
FF800000
FF800000
FF800000
FF800000
FF800000
FF800000
7F800000
7FC00000
7FC00004
3FC0000E
1FE0000C
1FE0001C
0FF00038
07F80070
03FC00E0
00FF03C0
007FFF00
000FF800
ENDCHAR
STARTCHAR D
ENCODING 68
SWIDTH 833 0
DWIDTH 39 0
BBX 36 33 1 0
BITMAP
FFFFFC0000
FFFFFFC000
1FF80FF000
07F803FC00
07F801FE00
07F800FF00
07F8007F80
07F8007F80
07F8003FC0
07F8003FE0
07F8003FE0
07F8003FE0
07F8001FF0
07F8001FF0
07F8001FF0
07F8001FF0
07F8001FF0
07F8001FF0
07F8001FF0
07F8001FF0
07F8001FF0
07F8001FE0
07F8003FE0
07F8003FE0
07F8003FC0
07F8003F80
07F8007F80
07F8007F00
07F800FE00
07FC01F800
0FFE07F000
FFFFFF8000
FFFFFC0000
ENDCHAR
STARTCHAR E
ENCODING 69
SWIDTH 721 0
DWIDTH 34 0
BBX 32 33 1 0
BITMAP
FFFFFFFC
FFFFFFFC
3FF801FC
07F8007C
07F8003C
07F8001C
07F8001C
07F8000C
07F80000
07F80180
07F80180
07F80380
07F80380
07F80780
07F81F80
07FFFF80
07FFFF80
07F80F80
07F80780
07F80380
07F80380
07F80180
07F80180
07F80003
07F80007
07F80007
07F8000F
07F8001F
07F8001F
07F8003F
1FFC00FF
FFFFFFFE
FFFFFFFE
ENDCHAR
STARTCHAR F
ENCODING 70
SWIDTH 671 0
DWIDTH 32 0
BBX 30 33 1 0
BITMAP
FFFFFFFC
FFFFFFFC
3FF801FC
0FF800FC
07F8007C
07F8003C
07F8001C
07F8001C
07F8000C
07F80300
07F80300
07F80700
07F80700
07F80F00
07F81F00
07FFFF00
07FFFF00
07F81F00
07F80F00
07F80700
07F80700
07F80300
07F80300
07F80000
07F80000
07F80000
07F80000
07F80000
07F80000
07F80000
1FFE0000
FFFFC000
FFFFC000
ENDCHAR
STARTCHAR G
ENCODING 71
SWIDTH 807 0
DWIDTH 38 0
BBX 36 35 2 -1
BITMAP
0007FC0000
003FFF9C00
00FE07FC00
03F801FC00
07F000FC00
0FF0007C00
1FE0007C00
1FE0003C00
3FC0003C00
3FC0001C00
7FC0001C00
7F80001C00
7F80000C00
FF80000000
FF80000000
FF80000000
FF80000000
FF80000000
FF80000000
FF803FFFF0
FF803FFFF0
FF800FFF80
FF8003FE00
7F8001FE00
7FC001FE00
7FC001FE00
3FC001FE00
3FE001FE00
1FE001FE00
0FF001FE00
07F001FE00
03F803FE00
01FE0FF800
007FFFC000
000FF80000
ENDCHAR
STARTCHAR H
ENCODING 72
SWIDTH 913 0
DWIDTH 43 0
BBX 41 33 1 0
BITMAP
FFFFC1FFFF80
FFFFC1FFFF80
3FFE007FFC00
0FF8001FF000
07F8000FF000
07F8000FF000
07F8000FF000
07F8000FF000
07F8000FF000
07F8000FF000
07F8000FF000
07F8000FF000
07F8000FF000
07F8000FF000
07F8000FF000
07FFFFFFF000
07FFFFFFF000
07F8000FF000
07F8000FF000
07F8000FF000
07F8000FF000
07F8000FF000
07F8000FF000
07F8000FF000
07F8000FF000
07F8000FF000
07F8000FF000
07F8000FF000
07F8000FF000
07F8000FF000
0FFE001FFC00
FFFFC1FFFF80
FFFFC1FFFF80
ENDCHAR
STARTCHAR I
ENCODING 73
SWIDTH 445 0
DWIDTH 21 0
BBX 18 33 1 0
BITMAP
FFFFC0
FFFFC0
3FFE00
0FF800
07F800
07F800
07F800
07F800
07F800
07F800
07F800
07F800
07F800
07F800
07F800
07F800
07F800
07F800
07F800
07F800
07F800
07F800
07F800
07F800
07F800
07F800
07F800
07F800
07F800
07F800
0FFE00
FFFFC0
FFFFC0
ENDCHAR
STARTCHAR J
ENCODING 74
SWIDTH 595 0
DWIDTH 28 0
BBX 27 34 0 -1
BITMAP
007FFFE0
007FFFE0
001FFF00
0003FC00
0003FC00
0003FC00
0003FC00
0003FC00
0003FC00
0003FC00
0003FC00
0003FC00
0003FC00
0003FC00
0003FC00
0003FC00
0003FC00
0003FC00
0003FC00
0003FC00
0003FC00
3E03FC00
7F03FC00
7F83FC00
FF83FC00
FF83FC00
FF83F800
FF03F800
FF07F800
7E07F000
7C0FE000
3C3FC000
1FFF0000
03FC0000
ENDCHAR
STARTCHAR K
ENCODING 75
SWIDTH 816 0
DWIDTH 38 0
BBX 38 33 1 0
BITMAP
FFFFC3FFF0
FFFFC3FFF0
1FFE007F80
0FF8007E00
07F8007800
07F800F000
07F801E000
07F803C000
07F8078000
07F80F0000
07F80E0000
07F81C0000
07F8380000
07F8700000
07F8F80000
07FBFC0000
07FFFC0000
07FFFE0000
07F9FF0000
07F9FF8000
07F8FFC000
07F87FC000
07F83FE000
07F83FF000
07F81FF800
07F80FFC00
07F807FC00
07F803FE00
07F803FF00
07F801FF80
0FFE00FFE0
FFFFC0FFFC
FFFFC07FFC
ENDCHAR
STARTCHAR L
ENCODING 76
SWIDTH 685 0
DWIDTH 32 0
BBX 31 33 1 0
BITMAP
FFFFC000
FFFFC000
1FFE0000
07F80000
07F80000
07F80000
07F80000
07F80000
07F80000
07F80000
07F80000
07F80000
07F80000
07F80000
07F80000
07F80000
07F80000
07F80000
07F80000
07F80000
07F80000
07F80000
07F80000
07F80006
07F8000E
07F8000E
07F8001E
07F8001E
07F8003E
07F8007E
1FFC01FE
FFFFFFFC
FFFFFFFC
ENDCHAR
STARTCHAR M
ENCODING 77
SWIDTH 1023 0
DWIDTH 48 0
BBX 47 33 0 0
BITMAP
FFFF8000FFFE
FFFF8001FFFE
1FFF8001FFF0
07FFC001FFC0
07BFC001FFC0
03BFC003BFC0
03BFE003BFC0
039FE0073FC0
039FE0073FC0
039FF0073FC0
038FF00E3FC0
038FF80E3FC0
0387F81C3FC0
0387F81C3FC0
0387FC1C3FC0
0383FC383FC0
0383FC383FC0
0383FE703FC0
0381FE703FC0
0381FF703FC0
0380FFE03FC0
0380FFE03FC0
0380FFC03FC0
03807FC03FC0
03807FC03FC0
03807F803FC0
03803F803FC0
03803F003FC0
07C03F003FC0
07E01F003FC0
1FF81E00FFF0
FFFE0E07FFFE
FFFE0007FFFE
ENDCHAR
STARTCHAR N
ENCODING 78
SWIDTH 839 0
DWIDTH 39 0
BBX 39 33 0 0
BITMAP
FFF800FFFE
FFFC00FFFE
3FFE003FF0
0FFF000FC0
07FF0007C0
03FF800380
03FFC00380
03FFE00380
03BFF00380
03BFF00380
039FF80380
038FFC0380
0387FE0380
0383FE0380
0383FF0380
0381FF8380
0380FFC380
03807FE380
03807FE380
03803FF380
03801FFB80
03800FFF80
038007FF80
038007FF80
038003FF80
038001FF80
038000FF80
038000FF80
07C0007F80
07E0003F80
1FF8001F80
FFFE001F80
FFFE000F80
ENDCHAR
STARTCHAR O
ENCODING 79
SWIDTH 819 0
DWIDTH 39 0
BBX 35 35 2 -1
BITMAP
0007FC0000
003FFF8000
00FE0FE000
01F803F000
07F001FC00
0FF001FE00
0FE000FF00
1FE000FF00
3FC0007F80
3FC0007F80
7FC0007FC0
7F80003FC0
7F80003FC0
FF80003FE0
FF80003FE0
FF80003FE0
FF80003FE0
FF80003FE0
FF80003FE0
FF80003FE0
FF80003FE0
FF80003FE0
7F80003FC0
7F80003FC0
7FC0007FC0
3FC0007F80
3FC0007F80
1FE000FF00
1FE000FE00
0FE000FE00
07F001FC00
03F803F800
00FE0FE000
003FFF8000
0007FC0000
ENDCHAR
STARTCHAR P
ENCODING 80
SWIDTH 701 0
DWIDTH 33 0
BBX 31 33 1 0
BITMAP
FFFFFF00
FFFFFFE0
1FF83FF0
07F80FF8
07F807FC
07F807FE
07F803FE
07F803FE
07F803FE
07F803FE
07F803FE
07F803FE
07F803FC
07F807FC
07F807F8
07F80FF0
07F83FE0
07FFFF80
07FFF800
07F80000
07F80000
07F80000
07F80000
07F80000
07F80000
07F80000
07F80000
07F80000
07F80000
07F80000
1FFE0000
FFFFC000
FFFFC000
ENDCHAR
STARTCHAR Q
ENCODING 81
SWIDTH 819 0
DWIDTH 39 0
BBX 35 44 2 -10
BITMAP
0007FC0000
003FFF8000
00FE0FE000
01F803F000
07F001FC00
0FF001FE00
0FE000FF00
1FE000FF00
3FC0007F80
3FC0007F80
7FC0007FC0
7F80003FC0
7F80003FC0
FF80003FE0
FF80003FE0
FF80003FE0
FF80003FE0
FF80003FE0
FF80003FE0
FF80003FE0
FF80003FE0
FF80003FE0
7F80003FC0
7F80003FC0
7FC0007FC0
3FC0007F80
3FC0007F80
1FE000FF00
1FE000FE00
0FE000FE00
07F001FC00
03F803F000
00FE0FE000
003FFF8000
000FFF0000
0001FF0000
0001FF0000
0001FF8000
0000FF8000
0000FFC000
00007FC000
00003FF040
00001FFFC0
000007FC00
ENDCHAR
STARTCHAR R
ENCODING 82
SWIDTH 797 0
DWIDTH 37 0
BBX 38 33 1 0
BITMAP
FFFFFF0000
FFFFFFE000
3FF83FF800
0FF80FFC00
07F807FC00
07F803FE00
07F803FE00
07F803FE00
07F803FE00
07F803FE00
07F803FE00
07F803FC00
07F807FC00
07F807F800
07F80FF000
07F83FC000
07FFFF0000
07FFFF0000
07F9FF8000
07F8FFC000
07F87FC000
07F83FE000
07F81FF000
07F81FF800
07F80FF800
07F807FC00
07F803FE00
07F803FF00
07F801FF80
07F800FFC0
1FFE00FFE0
FFFFC07FFC
FFFFC03FFC
ENDCHAR
STARTCHAR S
ENCODING 83
SWIDTH 648 0
DWIDTH 31 0
BBX 28 35 1 -1
BITMAP
007FC000
01FFF9C0
07F07FC0
0FE01FC0
1FC00FC0
3F8007C0
3F8007C0
7F8003C0
7F8001C0
7FC001C0
7FC001C0
7FF000C0
7FFC0000
3FFF8000
3FFFF000
1FFFFC00
0FFFFF00
07FFFF80
01FFFFC0
007FFFE0
000FFFE0
0001FFF0
C0007FF0
E0001FF0
E0001FF0
F0000FF0
F0000FF0
F8000FE0
F8000FE0
FC000FC0
FE001FC0
FF803F80
FFC0FE00
E3FFFC00
007FE000
ENDCHAR
STARTCHAR T
ENCODING 84
SWIDTH 684 0
DWIDTH 32 0
BBX 32 33 0 0
BITMAP
FFFFFFFF
FFFFFFFF
FC0FF03F
F80FF01F
F00FF00F
F00FF00F
E00FF007
E00FF007
C00FF003
000FF000
000FF000
000FF000
000FF000
000FF000
000FF000
000FF000
000FF000
000FF000
000FF000
000FF000
000FF000
000FF000
000FF000
000FF000
000FF000
000FF000
000FF000
000FF000
000FF000
000FF000
003FFC00
01FFFF80
01FFFF80
ENDCHAR
STARTCHAR U
ENCODING 85
SWIDTH 833 0
DWIDTH 39 0
BBX 38 34 1 -1
BITMAP
FFFFC1FFFC
FFFFC1FFFC
3FFE007FE0
0FF8001F80
07F8000F80
07F8000F00
07F8000700
07F8000700
07F8000700
07F8000700
07F8000700
07F8000700
07F8000700
07F8000700
07F8000700
07F8000700
07F8000700
07F8000700
07F8000700
07F8000700
07F8000700
07F8000700
07F8000700
07F8000700
07F8000700
07F8000700
03F8000E00
03FC000E00
01FC001C00
01FE001C00
00FF003800
003FC0F000
001FFFC000
0003FE0000
ENDCHAR
STARTCHAR V
ENCODING 86
SWIDTH 762 0
DWIDTH 36 0
BBX 38 33 -1 0
BITMAP
FFFFC07FFC
FFFFC07FFC
3FFE000FF0
0FF80007C0
07FC000380
07FC000780
03FC000700
03FE000700
01FE000E00
01FF000E00
00FF001E00
00FF001C00
00FF801C00
007F803800
007FC03800
003FC03000
003FE07000
003FE07000
001FE0E000
001FF0E000
000FF0C000
000FF9C000
000FF9C000
0007FB8000
0007FF8000
0003FF0000
0003FF0000
0003FE0000
0001FE0000
0001FE0000
0000FC0000
0000FC0000
0000F80000
ENDCHAR
STARTCHAR W
ENCODING 87
SWIDTH 1126 0
DWIDTH 53 0
BBX 55 33 -1 0
BITMAP
FFFF800F803FFE
FFFF801F803FFE
3FFC001FC007F8
0FF8001FC001E0
07F8003FC001C0
07FC003FE001C0
03FC007FE003C0
03FC007FE00380
03FE007FF00380
01FE00FFF00780
01FE00EFF00700
01FF00EFF80700
00FF01EFF80600
00FF01C7F80E00
00FF81C7FC0E00
007F8383FC0C00
007F8383FC1C00
007FC383FE1C00
003FC701FE1800
003FC701FE3800
003FE701FF3800
001FEE00FF3000
001FEE00FF7000
001FFE00FFF000
000FFC007FE000
000FFC007FE000
000FFC007FE000
0007F8003FC000
0007F8003FC000
0003F0003FC000
0003F0001F8000
0003F0001F8000
0001E0000F8000
ENDCHAR
STARTCHAR X
ENCODING 88
SWIDTH 808 0
DWIDTH 38 0
BBX 38 33 0 0
BITMAP
FFFFF0FFF8
FFFFF0FFF8
1FFF003FC0
07FE003F00
03FF003E00
01FF007C00
01FF807800
00FFC0F000
007FC1E000
003FE3E000
003FF3C000
001FF78000
000FFF0000
000FFE0000
0007FC0000
0003FE0000
0003FF0000
0001FF0000
0003FF8000
0007FFC000
000F7FC000
001E3FE000
003C3FF000
003C1FF000
00780FF800
00F00FFC00
01E007FE00
03E003FE00
07C003FF00
0FC001FF80
3FC003FFE0
FFF83FFFFC
FFF83FFFFC
ENDCHAR
STARTCHAR Y
ENCODING 89
SWIDTH 731 0
DWIDTH 34 0
BBX 38 33 -2 0
BITMAP
FFFFE03FFC
FFFFE03FFC
1FFE000FF0
0FFE0007C0
07FE000780
03FE000700
01FF000F00
01FF801E00
00FF801C00
007FC03C00
007FC03800
003FE07000
003FE0F000
001FF0E000
000FF9C000
000FFBC000
0007FF8000
0007FF0000
0003FF0000
0001FE0000
0001FE0000
0001FE0000
0001FE0000
0001FE0000
0001FE0000
0001FE0000
0001FE0000
0001FE0000
0001FE0000
0001FF0000
0003FF8000
003FFFF000
003FFFF000
ENDCHAR
STARTCHAR Z
ENCODING 90
SWIDTH 689 0
DWIDTH 32 0
BBX 32 33 0 0
BITMAP
1FFFFFFE
1FFFFFFE
1FC007FC
1F000FF8
1E001FF8
3E003FF0
3C003FE0
38007FE0
3800FFC0
3000FF80
0001FF80
0003FF00
0003FE00
0007FC00
000FFC00
001FF800
001FF000
003FF000
007FE000
007FC000
00FF8000
01FF8000
03FF0003
03FE0007
07FE0007
0FFC000F
0FF8000F
1FF8001E
3FF0003E
3FE0003E
7FC000FE
FFFFFFFE
FFFFFFFE
ENDCHAR
STARTCHAR bracketleft
ENCODING 91
SWIDTH 446 0
DWIDTH 21 0
BBX 15 43 4 -8
BITMAP
FFFE
FFFE
FE00
FE00
FE00
FE00
FE00
FE00
FE00
FE00
FE00
FE00
FE00
FE00
FE00
FE00
FE00
FE00
FE00
FE00
FE00
FE00
FE00
FE00
FE00
FE00
FE00
FE00
FE00
FE00
FE00
FE00
FE00
FE00
FE00
FE00
FE00
FE00
FE00
FE00
FE00
FFFE
FFFE
ENDCHAR
STARTCHAR backslash
ENCODING 92
SWIDTH 471 0
DWIDTH 22 0
BBX 20 45 2 -10
BITMAP
F00000
780000
780000
780000
3C0000
3C0000
3C0000
1E0000
1E0000
1F0000
0F0000
0F0000
0F8000
078000
078000
07C000
03C000
03C000
01E000
01E000
01E000
00F000
00F000
00F000
007800
007800
007800
003C00
003C00
003E00
001E00
001E00
001F00
000F00
000F00
000F80
000780
000780
0003C0
0003C0
0003C0
0001E0
0001E0
0001E0
0000F0
ENDCHAR
STARTCHAR bracketright
ENCODING 93
SWIDTH 446 0
DWIDTH 21 0
BBX 15 43 2 -8
BITMAP
FFFE
FFFE
00FE
00FE
00FE
00FE
00FE
00FE
00FE
00FE
00FE
00FE
00FE
00FE
00FE
00FE
00FE
00FE
00FE
00FE
00FE
00FE
00FE
00FE
00FE
00FE
00FE
00FE
00FE
00FE
00FE
00FE
00FE
00FE
00FE
00FE
00FE
00FE
00FE
00FE
00FE
FFFE
FFFE
ENDCHAR
STARTCHAR asciicircum
ENCODING 94
SWIDTH 703 0
DWIDTH 33 0
BBX 24 16 5 18
BITMAP
003C00
007E00
007E00
00FF00
01FF80
01E780
03E7C0
07C3E0
0781E0
0F81F0
0F00F0
1E0078
3E007C
3C003C
7C003E
F8001F
ENDCHAR
STARTCHAR underscore
ENCODING 95
SWIDTH 703 0
DWIDTH 33 0
BBX 33 2 0 -6
BITMAP
FFFFFFFF80
FFFFFFFF80
ENDCHAR
STARTCHAR grave
ENCODING 96
SWIDTH 500 0
DWIDTH 24 0
BBX 12 10 5 25
BITMAP
7800
FC00
FE00
FF00
7F80
1F80
07C0
01E0
00F0
0030
ENDCHAR
STARTCHAR a
ENCODING 97
SWIDTH 595 0
DWIDTH 28 0
BBX 26 25 2 -1
BITMAP
01FF0000
0FFFE000
1F87F000
3F07F800
7F83F800
7F83FC00
7F83FC00
3F83FC00
1F03FC00
0007FC00
003FFC00
01FBFC00
0FE3FC00
1F83FC00
7F83FC00
7F03FC00
FF03FC00
FF03FC00
FF03FC00
FF03FC00
FF8FFC00
FFFFFE00
7FFBFFC0
3FF1FFC0
0FC07F00
ENDCHAR
STARTCHAR b
ENCODING 98
SWIDTH 645 0
DWIDTH 30 0
BBX 28 37 0 -1
BITMAP
03F00000
FFF00000
FFF00000
3FF00000
1FF00000
0FF00000
0FF00000
0FF00000
0FF00000
0FF00000
0FF00000
0FF00000
0FF0FC00
0FF3FF00
0FF7FF80
0FFFFFC0
0FF87FC0
0FF03FE0
0FF01FE0
0FF01FE0
0FF00FF0
0FF00FF0
0FF00FF0
0FF00FF0
0FF00FF0
0FF00FF0
0FF00FF0
0FF00FF0
0FF00FF0
0FF00FE0
0FF01FE0
0FF01FC0
0FF01FC0
0FF83F80
0FFC7F00
0F1FFC00
0E07F000
ENDCHAR
STARTCHAR c
ENCODING 99
SWIDTH 531 0
DWIDTH 25 0
BBX 23 25 2 -1
BITMAP
007F80
01FFE0
07E3F8
0FC1F8
1F83FC
3F83FC
3F83FC
7F03FC
7F03F8
FF00F0
FF0000
FF0000
FF0000
FF0000
FF0000
FF0000
FF8000
7F8004
7FC00E
3FE01C
3FF03C
1FFFF8
0FFFF0
03FFC0
00FF00
ENDCHAR
STARTCHAR d
ENCODING 100
SWIDTH 663 0
DWIDTH 31 0
BBX 29 37 2 -1
BITMAP
00001F80
0007FF80
0007FF80
0001FF80
0000FF80
00007F80
00007F80
00007F80
00007F80
00007F80
00007F80
00007F80
00FE7F80
03FFFF80
0FE1FF80
1FC0FF80
3F807F80
3F807F80
7F807F80
7F007F80
FF007F80
FF007F80
FF007F80
FF007F80
FF007F80
FF007F80
FF007F80
FF007F80
FF007F80
7F807F80
7F807F80
3FC07F80
3FE1FFC0
1FFFFFF8
0FFF7FF8
07FE7E00
01F80000
ENDCHAR
STARTCHAR e
ENCODING 101
SWIDTH 571 0
DWIDTH 27 0
BBX 24 25 2 -1
BITMAP
007F00
03FFE0
07C7F0
1F83F8
1F83FC
3F81FC
7F01FC
7F01FE
7F01FE
FF01FE
FFFFFE
FFFFFE
FF0000
FF0000
FF0000
FF0000
7F8000
7F8000
7FC006
3FE00F
3FF03E
1FFFFC
0FFFF8
03FFE0
007F80
ENDCHAR
STARTCHAR f
ENCODING 102
SWIDTH 393 0
DWIDTH 18 0
BBX 24 36 0 0
BITMAP
0003F8
001FFE
003DFF
007CFF
00F8FF
01F87F
03F83E
03F800
03F800
07F800
07F800
07F800
07F800
FFFFE0
FFFFE0
FFFFE0
07F800
07F800
07F800
07F800
07F800
07F800
07F800
07F800
07F800
07F800
07F800
07F800
07F800
07F800
07F800
07F800
07F800
0FFE00
3FFF80
3FFF80
ENDCHAR
STARTCHAR g
ENCODING 103
SWIDTH 576 0
DWIDTH 27 0
BBX 26 34 1 -10
BITMAP
00FF0000
07FFFFC0
1FC7FFC0
3FC3FFC0
3F81FC00
7F81FC00
7F81FE00
7F81FE00
7F81FE00
7F81FE00
3F81FC00
3FC3FC00
1FE7F800
07FFE000
01FF8000
07800000
1F800000
3FC00000
3FFFF000
3FFFFE00
3FFFFF00
1FFFFF80
07FFFF80
03FFFFC0
3F007FC0
7F001FC0
FE001FC0
FE001FC0
FE001F80
FE001F80
7F003F00
3FC0FE00
1FFFF800
03FF8000
ENDCHAR
STARTCHAR h
ENCODING 104
SWIDTH 679 0
DWIDTH 32 0
BBX 31 36 0 0
BITMAP
03F00000
FFF00000
FFF00000
3FF00000
1FF00000
0FF00000
0FF00000
0FF00000
0FF00000
0FF00000
0FF00000
0FF00000
0FF07F00
0FF1FF80
0FF3FFC0
0FF7FFE0
0FFE3FE0
0FF81FF0
0FF00FF0
0FF00FF0
0FF00FF0
0FF00FF0
0FF00FF0
0FF00FF0
0FF00FF0
0FF00FF0
0FF00FF0
0FF00FF0
0FF00FF0
0FF00FF0
0FF00FF0
0FF00FF0
0FF00FF0
1FF81FF8
7FFE7FFE
7FFE7FFE
ENDCHAR
STARTCHAR i
ENCODING 105
SWIDTH 353 0
DWIDTH 17 0
BBX 15 36 1 0
BITMAP
07C0
0FE0
1FF0
1FF0
1FF0
1FF0
0FE0
07C0
0000
0000
0000
0000
03F0
FFF0
FFF0
3FF0
1FF0
0FF0
0FF0
0FF0
0FF0
0FF0
0FF0
0FF0
0FF0
0FF0
0FF0
0FF0
0FF0
0FF0
0FF0
0FF0
0FF0
1FF8
7FFE
7FFE
ENDCHAR
STARTCHAR j
ENCODING 106
SWIDTH 346 0
DWIDTH 16 0
BBX 19 46 -6 -10
BITMAP
000F80
001FC0
003FE0
003FE0
003FE0
003FE0
001FC0
000F80
000000
000000
000000
000000
0007E0
01FFE0
01FFE0
007FE0
003FE0
001FE0
001FE0
001FE0
001FE0
001FE0
001FE0
001FE0
001FE0
001FE0
001FE0
001FE0
001FE0
001FE0
001FE0
001FE0
001FE0
001FE0
001FE0
001FE0
001FE0
001FC0
001FC0
3C1F80
7E1F80
FF1F00
FF3E00
FFBC00
7FF800
1FC000
ENDCHAR
STARTCHAR k
ENCODING 107
SWIDTH 631 0
DWIDTH 30 0
BBX 31 36 0 0
BITMAP
03F00000
FFF00000
FFF00000
3FF00000
1FF00000
0FF00000
0FF00000
0FF00000
0FF00000
0FF00000
0FF00000
0FF00000
0FF07FF8
0FF07FF8
0FF01FE0
0FF00F80
0FF00E00
0FF01C00
0FF03000
0FF06000
0FF0E000
0FF1F000
0FF3F800
0FF7F800
0FFFFC00
0FFBFE00
0FF3FE00
0FF1FF00
0FF0FF80
0FF0FF80
0FF07FC0
0FF07FE0
0FF03FE0
1FF81FF8
7FFE1FFE
7FFE0FFE
ENDCHAR
STARTCHAR l
ENCODING 108
SWIDTH 344 0
DWIDTH 16 0
BBX 15 36 0 0
BITMAP
03F0
FFF0
FFF0
3FF0
1FF0
0FF0
0FF0
0FF0
0FF0
0FF0
0FF0
0FF0
0FF0
0FF0
0FF0
0FF0
0FF0
0FF0
0FF0
0FF0
0FF0
0FF0
0FF0
0FF0
0FF0
0FF0
0FF0
0FF0
0FF0
0FF0
0FF0
0FF0
0FF0
1FF8
7FFE
7FFE
ENDCHAR
STARTCHAR m
ENCODING 109
SWIDTH 1015 0
DWIDTH 48 0
BBX 47 24 0 0
BITMAP
03F07F007F00
FFF1FFC1FF80
FFF3FFE3FFC0
3FF7FFE7FFE0
1FFE3FFE3FE0
0FF81FF81FF0
0FF00FF00FF0
0FF00FF00FF0
0FF00FF00FF0
0FF00FF00FF0
0FF00FF00FF0
0FF00FF00FF0
0FF00FF00FF0
0FF00FF00FF0
0FF00FF00FF0
0FF00FF00FF0
0FF00FF00FF0
0FF00FF00FF0
0FF00FF00FF0
0FF00FF00FF0
0FF00FF00FF0
1FF81FF81FF8
7FFE7FFE7FFE
7FFE7FFE7FFE
ENDCHAR
STARTCHAR n
ENCODING 110
SWIDTH 689 0
DWIDTH 32 0
BBX 31 24 0 0
BITMAP
03F07F00
FFF1FF80
FFF3FFC0
3FF7FFE0
1FFE3FE0
0FF81FF0
0FF00FF0
0FF00FF0
0FF00FF0
0FF00FF0
0FF00FF0
0FF00FF0
0FF00FF0
0FF00FF0
0FF00FF0
0FF00FF0
0FF00FF0
0FF00FF0
0FF00FF0
0FF00FF0
0FF00FF0
1FF81FF8
7FFE7FFE
7FFE7FFE
ENDCHAR
STARTCHAR o
ENCODING 111
SWIDTH 635 0
DWIDTH 30 0
BBX 26 25 2 -1
BITMAP
007F8000
03FFF000
07E1F800
1FC0FE00
1F807E00
3F807F00
7F807F80
7F003F80
FF003F80
FF003FC0
FF003FC0
FF003FC0
FF003FC0
FF003FC0
FF003FC0
FF003FC0
7F003F80
7F003F80
7F807F80
3F807F00
1F807E00
1FC0FC00
07E1F800
03FFF000
007F8000
ENDCHAR
STARTCHAR p
ENCODING 112
SWIDTH 657 0
DWIDTH 31 0
BBX 29 34 0 -10
BITMAP
03F0FC00
FFF3FF00
FFF7FF80
3FFFFFC0
1FFC3FE0
0FF01FF0
0FF00FF0
0FF00FF0
0FF00FF8
0FF007F8
0FF007F8
0FF007F8
0FF007F8
0FF007F8
0FF007F8
0FF007F8
0FF007F0
0FF007F0
0FF00FF0
0FF00FE0
0FF00FE0
0FF81FC0
0FFC3F80
0FFFFE00
0FF3F800
0FF00000
0FF00000
0FF00000
0FF00000
0FF00000
0FF00000
1FFC0000
FFFF0000
FFFF0000
ENDCHAR
STARTCHAR q
ENCODING 113
SWIDTH 648 0
DWIDTH 30 0
BBX 28 35 2 -10
BITMAP
00000300
00FE0700
03FFC700
0FE3FF00
1FC1FF00
3F80FF00
3F80FF00
7F80FF00
7F00FF00
FF00FF00
FF00FF00
FF00FF00
FF00FF00
FF00FF00
FF00FF00
FF00FF00
FF00FF00
FF00FF00
7F80FF00
7F80FF00
7FC0FF00
3FE1FF00
1FFFFF00
1FFEFF00
07FCFF00
01F0FF00
0000FF00
0000FF00
0000FF00
0000FF00
0000FF00
0000FF00
0001FFC0
000FFFF0
000FFFF0
ENDCHAR
STARTCHAR r
ENCODING 114
SWIDTH 520 0
DWIDTH 24 0
BBX 23 24 1 0
BITMAP
03F0F8
FFF1FC
FFF7FE
3FF7FE
1FFDFE
0FF9FE
0FF1FE
0FF1FC
0FF078
0FF000
0FF000
0FF000
0FF000
0FF000
0FF000
0FF000
0FF000
0FF000
0FF000
0FF000
0FF000
1FF800
7FFF00
7FFF00
ENDCHAR
STARTCHAR s
ENCODING 115
SWIDTH 512 0
DWIDTH 24 0
BBX 20 25 2 -1
BITMAP
01FC60
0FFFE0
1F87E0
3F03E0
3F01E0
7F00E0
7F00E0
7F8060
7FE000
7FFC00
3FFF00
3FFFC0
1FFFE0
0FFFE0
07FFF0
C0FFF0
C01FF0
E00FF0
E007F0
F007F0
F807E0
FC07E0
FE0FC0
C7FF00
01FC00
ENDCHAR
STARTCHAR t
ENCODING 116
SWIDTH 397 0
DWIDTH 19 0
BBX 19 31 0 -1
BITMAP
0FF000
0FF000
0FF000
0FF000
0FF000
0FF000
0FF000
FFFFE0
FFFFE0
FFFFE0
0FF000
0FF000
0FF000
0FF000
0FF000
0FF000
0FF000
0FF000
0FF000
0FF000
0FF000
0FF000
0FF000
0FF000
0FF000
0FF800
0FF800
07FFE0
07FFE0
03FFC0
00FE00
ENDCHAR
STARTCHAR u
ENCODING 117
SWIDTH 676 0
DWIDTH 32 0
BBX 32 25 0 -1
BITMAP
03F003F0
FFF0FFF0
FFF0FFF0
3FF01FF0
1FF00FF0
0FF00FF0
0FF00FF0
0FF00FF0
0FF00FF0
0FF00FF0
0FF00FF0
0FF00FF0
0FF00FF0
0FF00FF0
0FF00FF0
0FF00FF0
0FF00FF0
0FF00FF0
0FF00FF0
0FF81FF0
07FC3FF8
07FFEFFF
03FFCFFF
03FF8FC0
00FE0000
ENDCHAR
STARTCHAR v
ENCODING 118
SWIDTH 566 0
DWIDTH 27 0
BBX 29 23 -1 0
BITMAP
FFFC0FF8
FFFC0FF8
3FF003E0
1FE001C0
0FE00180
0FF00180
07F00300
07F80300
03F80600
03FC0600
01FC0C00
01FE0C00
00FE0800
00FF1800
00FF1800
007FB000
007FB000
003FE000
003FE000
001FC000
001FC000
000F8000
000F8000
ENDCHAR
STARTCHAR w
ENCODING 119
SWIDTH 863 0
DWIDTH 41 0
BBX 41 23 0 0
BITMAP
FFFC0F80FF80
FFFC0F80FF80
3FE01FC03E00
1FE01FC01C00
1FE01FE01C00
0FE03FE01800
0FF03FF01800
07F03FF03000
07F077F03000
07F867F83000
03F863F86000
03FCC3FC6000
01FCC3FC4000
01FCC1FCC000
01FF81FEC000
00FF80FE8000
00FF80FF8000
007F00FF0000
007F007F0000
007F007F0000
003E003E0000
003E003E0000
003E003E0000
ENDCHAR
STARTCHAR x
ENCODING 120
SWIDTH 587 0
DWIDTH 28 0
BBX 28 23 0 0
BITMAP
FFFC3FE0
FFFC3FE0
3FF00780
0FF80700
07F80E00
07FC1C00
03FE3800
01FE7000
00FFE000
00FFC000
007FC000
003FE000
001FE000
003FF000
006FF800
00C7F800
0183FC00
0303FE00
0601FF00
1E00FF80
3E00FFC0
FF83FFF0
FF83FFF0
ENDCHAR
STARTCHAR y
ENCODING 121
SWIDTH 562 0
DWIDTH 26 0
BBX 28 33 -1 -10
BITMAP
FFFC1FF0
FFFC1FF0
3FF007C0
1FE00380
0FE00300
0FF00300
07F00700
07F80600
03F80600
03FC0C00
01FC0C00
01FE1800
00FE1800
00FF3000
007F3000
007FA000
003FE000
003FE000
001FC000
001FC000
001F8000
000F8000
000F0000
00070000
00060000
00060000
1E0C0000
3F1C0000
7FB80000
7FF00000
7FE00000
3FC00000
1F000000
ENDCHAR
STARTCHAR z
ENCODING 122
SWIDTH 525 0
DWIDTH 25 0
BBX 23 23 1 0
BITMAP
7FFFFE
7FFFFE
7C03FC
7807F8
700FF8
700FF0
601FE0
003FE0
007FC0
007F80
00FF00
01FF00
01FE00
03FC00
07F806
0FF806
0FF00E
1FE00E
3FC00E
7FC01E
7F803E
FFFFFE
FFFFFE
ENDCHAR
STARTCHAR braceleft
ENCODING 123
SWIDTH 500 0
DWIDTH 24 0
BBX 21 43 1 -8
BITMAP
0003F8
001FF8
007FC0
00FF00
00FF00
01FE00
01FE00
01FE00
01FE00
01FE00
01FE00
01FE00
01FE00
01FE00
01FE00
01FC00
01FC00
03F800
03F000
0FE000
FE0000
FC0000
FE0000
1FE000
03F000
03F800
01FC00
01FC00
01FE00
01FE00
01FE00
01FE00
01FE00
01FE00
01FE00
01FE00
01FE00
01FE00
00FF00
00FF00
007FC0
001FF8
0003F8
ENDCHAR
STARTCHAR bar
ENCODING 124
SWIDTH 387 0
DWIDTH 18 0
BBX 4 46 7 -10
BITMAP
F0
F0
F0
F0
F0
F0
F0
F0
F0
F0
F0
F0
F0
F0
F0
F0
F0
F0
F0
F0
F0
F0
F0
F0
F0
F0
F0
F0
F0
F0
F0
F0
F0
F0
F0
F0
F0
F0
F0
F0
F0
F0
F0
F0
F0
F0
ENDCHAR
STARTCHAR braceright
ENCODING 125
SWIDTH 500 0
DWIDTH 24 0
BBX 21 43 2 -8
BITMAP
FE0000
FFC000
1FF000
07F800
07F800
03FC00
03FC00
03FC00
03FC00
03FC00
03FC00
03FC00
03FC00
03FC00
03FC00
01FC00
01FC00
00FE00
007E00
003F80
0007F8
0001F8
0003F8
001FC0
007E00
00FE00
01FC00
01FC00
03FC00
03FC00
03FC00
03FC00
03FC00
03FC00
03FC00
03FC00
03FC00
03FC00
07F800
07F800
1FF000
FFC000
FE0000
ENDCHAR
STARTCHAR asciitilde
ENCODING 126
SWIDTH 703 0
DWIDTH 33 0
BBX 27 10 3 8
BITMAP
000000C0
03F000E0
07FC01C0
1FFF01C0
3FFF8780
3C7FFF00
701FFF00
7007FC00
E000F800
60000000
ENDCHAR
STARTCHAR cent
ENCODING 162
SWIDTH 605 0
DWIDTH 28 0
BBX 24 36 3 -6
BITMAP
000600
000600
000600
000600
000600
000600
007FC0
01FFF0
07F7FC
0FC7FE
1F87FE
3F87FE
7F86FE
7F0678
7F0600
FF0600
FF0600
FF0600
FF0600
FF0600
FF0600
FF8600
7F8602
7FC607
3FE60E
3FFE3E
1FFFFC
0FFFF8
03FFE0
007F80
000600
000600
000600
000600
000600
000600
ENDCHAR
STARTCHAR sterling
ENCODING 163
SWIDTH 689 0
DWIDTH 32 0
BBX 26 34 3 0
BITMAP
0007F000
003FFE00
007E1F00
00FC1F80
01FC3FC0
03F83FC0
03F83FC0
03F83FC0
07F81F80
07F80F00
07F80000
07F80000
07F80000
07F80000
07F80000
07F80000
07F80000
7FFFF800
7FFFF800
7FFFF800
07F80000
07F80000
07F00000
07F00000
07F00000
07E00000
0FC00000
0F000000
1FFFFFC0
7FFFFFC0
FFFFFFC0
FFFFFFC0
FFFFFFC0
FFFFFFC0
ENDCHAR
STARTCHAR brokenbar
ENCODING 166
SWIDTH 387 0
DWIDTH 18 0
BBX 4 46 7 -10
BITMAP
F0
F0
F0
F0
F0
F0
F0
F0
F0
F0
F0
F0
F0
F0
F0
F0
F0
F0
00
00
00
00
00
00
00
00
00
F0
F0
F0
F0
F0
F0
F0
F0
F0
F0
F0
F0
F0
F0
F0
F0
F0
F0
F0
ENDCHAR
STARTCHAR guillemotleft
ENCODING 171
SWIDTH 610 0
DWIDTH 29 0
BBX 23 21 3 2
BITMAP
001004
00380E
00F03C
01E078
07C1F0
0FC3F0
1F87E0
7F1FC0
FE3F80
FC3F00
FC3F00
FC3F00
FE3F80
7F1FC0
1F87E0
0F83E0
07C1F0
01E078
00F03C
00380E
001004
ENDCHAR
STARTCHAR hyphen.dup1
ENCODING 173
SWIDTH 378 0
DWIDTH 18 0
BBX 14 5 2 10
BITMAP
FFFC
FFFC
FFFC
FFFC
FFFC
ENDCHAR
STARTCHAR degree
ENCODING 176
SWIDTH 419 0
DWIDTH 20 0
BBX 16 15 2 19
BITMAP
07E0
1FF8
3C3C
781E
781E
F00F
F00F
F00F
F00F
F00F
781E
781E
3C3C
1FF8
07E0
ENDCHAR
STARTCHAR plusminus
ENCODING 177
SWIDTH 703 0
DWIDTH 33 0
BBX 26 28 4 0
BITMAP
001E0000
001E0000
001E0000
001E0000
001E0000
001E0000
001E0000
001E0000
001E0000
001E0000
001E0000
FFFFFFC0
FFFFFFC0
FFFFFFC0
FFFFFFC0
001E0000
001E0000
001E0000
001E0000
001E0000
001E0000
001E0000
001E0000
001E0000
FFFFFFC0
FFFFFFC0
FFFFFFC0
FFFFFFC0
ENDCHAR
STARTCHAR uni00B2
ENCODING 178
SWIDTH 551 0
DWIDTH 26 0
BBX 19 22 4 12
BITMAP
07F800
1FFE00
783F80
FC1F80
FC0FC0
FC0FC0
FC0FC0
780FC0
000FC0
001F80
001F80
003F00
00FC00
01F000
03C000
0E0000
180000
7FFFE0
FFFFE0
FFFFE0
FFFFE0
FFFFE0
ENDCHAR
STARTCHAR uni00B3
ENCODING 179
SWIDTH 551 0
DWIDTH 26 0
BBX 19 23 3 11
BITMAP
03FC00
1FFF00
3C3F80
7E1FC0
7E0FC0
7E0FC0
7E0FC0
3C0F80
001F80
003E00
01F800
01FF00
001F80
000FC0
0007E0
7807E0
FC07E0
FC07E0
FC07E0
FC0FC0
783F80
3FFE00
07F800
ENDCHAR
STARTCHAR acute
ENCODING 180
SWIDTH 500 0
DWIDTH 24 0
BBX 12 10 6 25
BITMAP
01E0
03F0
07F0
0FF0
1FE0
1F80
3E00
7800
F000
C000
ENDCHAR
STARTCHAR periodcentered
ENCODING 183
SWIDTH 337 0
DWIDTH 16 0
BBX 9 9 3 8
BITMAP
3E00
7F00
FF00
FF80
FF80
FF80
FF80
7F00
3C00
ENDCHAR
STARTCHAR uni00B9
ENCODING 185
SWIDTH 551 0
DWIDTH 26 0
BBX 14 22 7 12
BITMAP
01C0
03C0
0FC0
FFC0
FFC0
0FC0
0FC0
0FC0
0FC0
0FC0
0FC0
0FC0
0FC0
0FC0
0FC0
0FC0
0FC0
0FC0
0FC0
1FE0
FFFC
FFFC
ENDCHAR
STARTCHAR ordmasculine
ENCODING 186
SWIDTH 551 0
DWIDTH 26 0
BBX 22 20 2 14
BITMAP
01FE00
07FF80
1F87E0
3F03F0
7E01F0
7C00F8
7C00F8
FC00FC
FC00FC
FC00FC
FC00FC
FC00FC
FC00FC
7C00F8
7E01F8
3E01F0
3F03F0
1F87E0
07FF80
01FE00
ENDCHAR
STARTCHAR guillemotright
ENCODING 187
SWIDTH 610 0
DWIDTH 29 0
BBX 23 21 3 2
BITMAP
401000
E03800
781E00
3C0F00
1F07C0
1F87E0
0FC3F0
07F1FC
03F8FE
01F87E
01F87E
01F87E
03F8FE
07F1FC
0FC3F0
0F83E0
1F07C0
3C0F00
781E00
E03800
401000
ENDCHAR
STARTCHAR onequarter
ENCODING 188
SWIDTH 1071 0
DWIDTH 50 0
BBX 44 33 3 0
BITMAP
01E000078000
03E000078000
1FE0000F0000
FFE0000E0000
FFE0001E0000
07E0001C0000
07E0003C0000
07E000780000
07E000780000
07E000F00000
07E000E00000
07E001E00F80
07E001C01F80
07E003C03F80
07E007807F80
07E00780EF80
07E00F01CF80
07E00E018F80
07E01E030F80
0FF01C070F80
FFFE3C0E0F80
FFFE781C0F80
000078380F80
0000F0300F80
0000E07FFFF0
0001E07FFFF0
0001C07FFFF0
0003C07FFFF0
000780000F80
000780000F80
000F00000F80
000E00000F80
001E00000F80
ENDCHAR
STARTCHAR onehalf
ENCODING 189
SWIDTH 1071 0
DWIDTH 50 0
BBX 46 33 3 0
BITMAP
01E000070000
03E0000F0000
1FE0001E0000
FFE0001C0000
FFE0003C0000
07E000380000
07E000780000
07E000700000
07E000F00000
07E001E00000
07E001C00000
07E003C1FF00
07E00387FFC0
07E0078F07E0
07E0071F87F0
07E00F1F83F0
07E01E1F83F8
07E01C1F83F8
07E03C0F03F0
0FF0380003F0
FFFE780007F0
FFFE700007E0
0000F0000FC0
0001E0001F80
0001C0007E00
0003C000F800
00038001E000
000780070000
0007000FFFFC
000F001FFFFC
001E001FFFFC
001C001FFFFC
003C001FFFFC
ENDCHAR
STARTCHAR threequarters
ENCODING 190
SWIDTH 1071 0
DWIDTH 50 0
BBX 45 33 3 0
BITMAP
0FFE0000E000
1E7F0001E000
3C1F8001C000
7E1F8003C000
7E0FC0078000
7E1FC0070000
7C1F800F0000
101F800E0000
003F001E0000
03FC001C0000
03F8003C0000
03FF007807C0
001FC0700FC0
000FC0F01FC0
000FE0E03FC0
F80FE1E077C0
FC0FE1C0E7C0
FC0FC3C0C7C0
F80FC78187C0
F81F870387C0
787F0F0707C0
1FFC0E0E07C0
01E01E1C07C0
00001C1807C0
00003C3FFFF8
0000783FFFF8
0000703FFFF8
0000F03FFFF8
0000E00007C0
0001E00007C0
0001C00007C0
0003C00007C0
0007800007C0
ENDCHAR
ENDFONT
