STARTFONT 2.1
FONT -FontForge-Georgia-Bold-R-Normal--68-650-75-75-P-428-ISO10646-1
SIZE 65 75 75
FONTBOUNDINGBOX 86 67 -8 -15
COMMENT "Generated by fontforge, http://fontforge.sourceforge.net"
COMMENT "(c) 2016 Microsoft Corporation. All Rights Reserved."
STARTPROPERTIES 38
FOUNDRY "FontForge"
FAMILY_NAME "Georgia"
WEIGHT_NAME "Bold"
SLANT "R"
SETWIDTH_NAME "Normal"
ADD_STYLE_NAME ""
PIXEL_SIZE 68
POINT_SIZE 650
RESOLUTION_X 75
RESOLUTION_Y 75
SPACING "P"
AVERAGE_WIDTH 428
CHARSET_REGISTRY "ISO10646"
CHARSET_ENCODING "1"
FONTNAME_REGISTRY ""
CHARSET_COLLECTIONS "ISO10646-1"
FONT_NAME "Georgia-Bold"
FACE_NAME "Georgia Bold"
COPYRIGHT "(c) 2016 Microsoft Corporation. All Rights Reserved."
FONT_VERSION "5.59"
FONT_ASCENT 54
FONT_DESCENT 14
UNDERLINE_POSITION -8
UNDERLINE_THICKNESS 5
X_HEIGHT 32
CAP_HEIGHT 46
RAW_ASCENT 799
RAW_DESCENT 200
RELATIVE_WEIGHT 70
RELATIVE_SETWIDTH 50
SUPERSCRIPT_X 0
SUPERSCRIPT_Y 17
SUPERSCRIPT_SIZE 44
SUBSCRIPT_X 0
SUBSCRIPT_Y 5
SUBSCRIPT_SIZE 44
AVG_LOWERCASE_WIDTH 397
AVG_UPPERCASE_WIDTH 525
ENDPROPERTIES
CHARS 111
STARTCHAR exclam
ENCODING 33
SWIDTH 376 0
DWIDTH 26 0
BBX 13 49 6 -1
BITMAP
0F80
3FE0
7FF0
7FF0
FFF8
FFF8
FFF8
FFF8
FFF8
FFF8
7FF0
7FF0
7FF0
7FF0
3FE0
3FE0
3FE0
3FE0
3FE0
1FC0
1FC0
1FC0
1FC0
0F80
0F80
0F80
0F80
0F80
0F80
0700
0700
0700
0700
0000
0000
0000
0000
0F80
3FE0
7FF0
7FF0
FFF8
FFF8
FFF8
FFF8
7FF0
7FF0
3FE0
0F80
ENDCHAR
STARTCHAR quotedbl
ENCODING 34
SWIDTH 509 0
DWIDTH 35 0
BBX 27 23 4 28
BITMAP
1F001F00
7F807F80
7FC07FC0
FFE0FFE0
FFE0FFE0
FFE0FFE0
FFE0FFE0
FFE0FFE0
7FC07FC0
7FC07FC0
7FC07FC0
7FC07FC0
3F803F80
3F803F80
3F803F80
1F001F00
1F001F00
1F001F00
1F001F00
0E000E00
0E000E00
0E000E00
0E000E00
ENDCHAR
STARTCHAR numbersign
ENCODING 35
SWIDTH 703 0
DWIDTH 48 0
BBX 38 42 5 0
BITMAP
00007C07C0
00007C0FC0
0000F80F80
0000F80F80
0000F81F80
0001F81F00
0001F01F00
0001F03F00
0003F03E00
0003E03E00
0003E03E00
3FFFFFFFFC
3FFFFFFFFC
3FFFFFFFFC
3FFFFFFFFC
3FFFFFFFFC
000F80F800
000F81F800
001F81F000
001F01F000
001F03F000
003F03E000
003E03E000
003E03E000
007E07C000
FFFFFFFFF0
FFFFFFFFF0
FFFFFFFFF0
FFFFFFFFF0
FFFFFFFFF0
00F81F8000
01F81F0000
01F01F0000
01F03F0000
03F03E0000
03E03E0000
03E07E0000
07E07C0000
07C07C0000
07C07C0000
0FC0F80000
0F80F80000
ENDCHAR
STARTCHAR dollar
ENCODING 36
SWIDTH 640 0
DWIDTH 44 0
BBX 37 60 4 -10
BITMAP
0000600000
0000600000
0000600000
0000600000
0000600000
0000600000
0000600000
0007FF0000
003FFFF000
00FFFFFE00
03FC60FF00
07F0603FC0
0FE0603FE0
1FC0603FE0
1F80607FF0
3F80607FF0
3F80607FF0
7F80607FF0
7F80607FF0
7FC0603FE0
7FC0603FC0
7FE0600F80
7FFC600000
7FFFF00000
3FFFFFC000
3FFFFFF800
3FFFFFFE00
1FFFFFFF00
0FFFFFFFC0
07FFFFFFE0
01FFFFFFE0
007FFFFFF0
000FFFFFF0
00007FFFF8
000060FFF8
1F00603FF8
3FC0601FF8
7FC0600FF8
FFE06007F8
FFE06007F8
FFE06007F0
FFE06007F0
FFE06007F0
7FC0600FE0
7FC0600FC0
3FC0601F80
1FC0607F00
0FF863FE00
03FFFFF800
00FFFFE000
000FFE0000
0000600000
0000600000
0000600000
0000600000
0000600000
0000600000
0000600000
0000600000
0000600000
ENDCHAR
STARTCHAR percent
ENCODING 37
SWIDTH 879 0
DWIDTH 60 0
BBX 54 49 3 -1
BITMAP
007F8000000000
01FFE000000F80
07E1F800001F00
0FC0FC00003E00
1FC0FE00007C00
3FC0FF0000F800
7F807F8000F000
7F807F8001F000
7F807F8003E000
FF807FC007C000
FF807FC00F8000
FF807FC01F0000
FF807FC01E0000
FF807FC03E0000
FF807FC07C0000
FF807FC0F80000
7F807F81F00000
7F807F83E00000
7F807F83C00000
3FC0FF07C00000
1FC0FE0F800000
0FC1FC1F000000
07E1F83E000000
03FFE07C000000
007F807807F800
000000F81FFE00
000001F07E1F80
000003E0FC0FC0
000007C1FC0FE0
00000F83FC0FF0
00000F07F807F8
00001F07F807F8
00003E07F807F8
00007C0FF807FC
0000F80FF807FC
0001F00FF807FC
0001E00FF807FC
0003E00FF807FC
0007C00FF807FC
000F800FF807FC
001F0007F807F8
003E0007F807F8
003C0007F807F8
007C0003FC0FF0
00F80001FC0FE0
01F00000FC1FC0
03E000007E1F80
07C000003FFE00
0000000007F800
ENDCHAR
STARTCHAR ampersand
ENCODING 38
SWIDTH 799 0
DWIDTH 54 0
BBX 52 49 2 -1
BITMAP
0000FF00000000
0007FFE0000000
000FFFF0000000
003FF0F8000000
007FE07C000000
007FC07C000000
00FFC03E000000
00FFC03E000000
01FFC03E000000
01FFC03E000000
01FFC03E000000
01FFE03E000000
01FFE03E000000
01FFF07C000000
01FFF07C000000
00FFF878000000
00FFFCF8000000
007FFDF0000000
007FFFE0FFFFE0
003FFFC0FFFFE0
001FFF00FFFFE0
001FFF803FFF00
000FFFC007F800
001FFFE003F000
007FFFE003E000
01FBFFF003C000
07F9FFF803C000
0FF0FFFC078000
1FF07FFC078000
3FF07FFE070000
3FE03FFF0F0000
7FE01FFF8E0000
7FE00FFFDE0000
FFE007FFFC0000
FFE003FFF80000
FFE003FFF80000
FFE001FFF80000
FFF000FFFC0000
FFF0007FFE0000
FFF8003FFF0000
FFFC001FFF8000
7FFE003FFFC000
7FFF80FFFFE000
3FFFFFF7FFF800
1FFFFFE3FFFF00
0FFFFFC1FFFFF0
07FFFF01FFFFF0
01FFFC00FFFFF0
003FE000000000
ENDCHAR
STARTCHAR quotesingle
ENCODING 39
SWIDTH 269 0
DWIDTH 18 0
BBX 11 23 4 28
BITMAP
1F00
7F80
7FC0
FFE0
FFE0
FFE0
FFE0
FFE0
7FC0
7FC0
7FC0
7FC0
3F80
3F80
3F80
1F00
1F00
1F00
1F00
0E00
0E00
0E00
0E00
ENDCHAR
STARTCHAR parenleft
ENCODING 40
SWIDTH 446 0
DWIDTH 30 0
BBX 24 62 4 -11
BITMAP
000007
00003F
0000FF
0003FC
000FF0
001FE0
003F80
007F80
00FF00
01FE00
03FE00
07FC00
07FC00
0FF800
0FF800
1FF800
1FF000
3FF000
3FF000
3FF000
7FF000
7FF000
7FE000
7FE000
FFE000
FFE000
FFE000
FFE000
FFE000
FFE000
FFE000
FFE000
FFE000
FFE000
FFE000
FFE000
FFE000
FFE000
7FE000
7FE000
7FF000
7FF000
3FF000
3FF000
3FF000
1FF000
1FF800
0FF800
0FF800
07FC00
07FC00
03FE00
01FE00
00FF00
007F80
003FC0
001FE0
000FF0
0003FC
0000FF
00003F
000007
ENDCHAR
STARTCHAR parenright
ENCODING 41
SWIDTH 446 0
DWIDTH 30 0
BBX 24 62 2 -11
BITMAP
E00000
FC0000
FF0000
3FC000
0FF000
07F800
03FC00
01FE00
00FF00
007F80
007FC0
003FE0
003FE0
001FF0
001FF0
001FF8
001FF8
000FFC
000FFC
000FFC
000FFE
000FFE
0007FE
0007FE
0007FF
0007FF
0007FF
0007FF
0007FF
0007FF
0007FF
0007FF
0007FF
0007FF
0007FF
0007FF
0007FF
0007FF
0007FE
0007FE
000FFE
000FFE
000FFC
000FFC
000FFC
001FF8
001FF8
001FF0
001FF0
003FE0
003FE0
007FC0
007F80
00FF00
01FE00
03FC00
07F800
0FF000
3FC000
FF0000
FC0000
E00000
ENDCHAR
STARTCHAR asterisk
ENCODING 42
SWIDTH 481 0
DWIDTH 33 0
BBX 27 24 3 24
BITMAP
03C07800
07E0FC00
07E0FC00
07E0FC00
03F1F800
01F1F000
00F1E000
007BC000
003B8000
781B03C0
FFDF7FE0
FFFFFFE0
FFFFFFE0
FF9F3FE0
781B07C0
003B8000
0071C000
00F1E000
01F1F000
03F1F800
07E0FC00
07E0FC00
07C07C00
03C07800
ENDCHAR
STARTCHAR plus
ENCODING 43
SWIDTH 703 0
DWIDTH 48 0
BBX 37 37 5 1
BITMAP
0000F80000
0000F80000
0000F80000
0000F80000
0000F80000
0000F80000
0000F80000
0000F80000
0000F80000
0000F80000
0000F80000
0000F80000
0000F80000
0000F80000
0000F80000
0000F80000
FFFFFFFFF8
FFFFFFFFF8
FFFFFFFFF8
FFFFFFFFF8
FFFFFFFFF8
0000F80000
0000F80000
0000F80000
0000F80000
0000F80000
0000F80000
0000F80000
0000F80000
0000F80000
0000F80000
0000F80000
0000F80000
0000F80000
0000F80000
0000F80000
0000F80000
ENDCHAR
STARTCHAR comma
ENCODING 44
SWIDTH 328 0
DWIDTH 22 0
BBX 13 24 5 -13
BITMAP
1F00
3FC0
7FE0
FFF0
FFF0
FFF8
FFF8
FFF8
7FF8
3FF8
1FF8
00F8
00F8
00F0
01F0
01E0
03C0
07C0
0F80
1F00
3E00
FC00
7000
4000
ENDCHAR
STARTCHAR hyphen
ENCODING 45
SWIDTH 378 0
DWIDTH 26 0
BBX 20 7 3 15
BITMAP
FFFFF0
FFFFF0
FFFFF0
FFFFF0
FFFFF0
FFFFF0
FFFFF0
ENDCHAR
STARTCHAR period
ENCODING 46
SWIDTH 328 0
DWIDTH 22 0
BBX 13 13 5 -1
BITMAP
0F80
3FE0
7FF0
7FF0
FFF8
FFF8
FFF8
FFF8
FFF8
7FF0
7FF0
3FE0
0F80
ENDCHAR
STARTCHAR slash
ENCODING 47
SWIDTH 471 0
DWIDTH 32 0
BBX 29 65 1 -14
BITMAP
000000F8
000001F0
000001F0
000003F0
000003E0
000003E0
000007E0
000007C0
000007C0
00000FC0
00000F80
00000F80
00001F00
00001F00
00003F00
00003E00
00003E00
00007E00
00007C00
00007C00
0000FC00
0000F800
0000F800
0001F000
0001F000
0003F000
0003E000
0003E000
0007E000
0007C000
0007C000
000F8000
000F8000
000F8000
001F0000
001F0000
003F0000
003E0000
003E0000
007E0000
007C0000
007C0000
00F80000
00F80000
01F80000
01F00000
01F00000
03F00000
03E00000
03E00000
07E00000
07C00000
07C00000
0F800000
0F800000
1F800000
1F000000
1F000000
3F000000
3E000000
3E000000
7E000000
7C000000
7C000000
F8000000
ENDCHAR
STARTCHAR zero
ENCODING 48
SWIDTH 701 0
DWIDTH 48 0
BBX 42 38 3 -1
BITMAP
0000FFC00000
000FFFFC0000
003FFFFF0000
00FFC0FFC000
01FF807FE000
07FF003FF000
07FE001FF800
0FFE001FFC00
1FFC000FFE00
3FFC000FFF00
3FFC000FFF00
7FFC000FFF80
7FF80007FF80
7FF80007FF80
FFF80007FF80
FFF80007FFC0
FFF80007FFC0
FFF80007FFC0
FFF80007FFC0
FFF80007FFC0
FFF80007FFC0
FFF80007FFC0
FFF80007FFC0
FFF80007FFC0
7FF80007FF80
7FF80007FF80
7FFC000FFF80
3FFC000FFF00
3FFC000FFF00
1FFC000FFE00
0FFE001FFC00
0FFE001FF800
07FF003FF800
01FF807FE000
00FFC1FFC000
003FFFFF0000
000FFFFC0000
0000FFC00000
ENDCHAR
STARTCHAR one
ENCODING 49
SWIDTH 489 0
DWIDTH 33 0
BBX 27 37 4 0
BITMAP
0007E000
000FE000
001FE000
003FE000
007FE000
03FFE000
FFFFE000
FFFFE000
FFFFE000
00FFE000
00FFE000
00FFE000
00FFE000
00FFE000
00FFE000
00FFE000
00FFE000
00FFE000
00FFE000
00FFE000
00FFE000
00FFE000
00FFE000
00FFE000
00FFE000
00FFE000
00FFE000
00FFE000
00FFE000
00FFE000
00FFE000
00FFF000
01FFF000
0FFFFE00
FFFFFFE0
FFFFFFE0
FFFFFFE0
ENDCHAR
STARTCHAR two
ENCODING 50
SWIDTH 626 0
DWIDTH 43 0
BBX 36 37 4 0
BITMAP
001FFE0000
00FFFFC000
03FFFFF800
0FC07FFC00
1FC03FFE00
3FC01FFF00
7FC00FFF80
7FE00FFF80
FFE007FFC0
FFE007FFC0
FFE007FFC0
FFE007FFC0
FFE007FFC0
7FC007FFC0
3F8007FFC0
1F000FFF80
00000FFF80
00001FFF00
00003FFE00
00007FFC00
0001FFF000
0007FFC000
000FFC0000
003FE00000
00FE000000
01F0000000
07C0000000
0F00000000
1FFFFFFFF0
3FFFFFFFF0
7FFFFFFFF0
FFFFFFFFF0
FFFFFFFFF0
FFFFFFFFF0
FFFFFFFFF0
FFFFFFFFF0
FFFFFFFFF0
ENDCHAR
STARTCHAR three
ENCODING 51
SWIDTH 624 0
DWIDTH 42 0
BBX 37 49 2 -12
BITMAP
0007FF0000
003FFFF000
00FFFFFC00
03F01FFE00
07F007FF00
0FF003FF80
1FF003FFC0
1FF801FFC0
3FF801FFE0
3FF801FFE0
3FF801FFE0
3FF801FFE0
3FF801FFE0
1FF001FFE0
0FE001FFC0
07C003FFC0
000003FF80
000003FF00
000007FE00
00000FFC00
00003FF000
000FFFC000
000FFE0000
000FFFF000
000FFFFE00
00001FFF00
000007FFC0
000003FFE0
000001FFE0
000001FFF0
000000FFF0
000000FFF8
000000FFF8
1F0000FFF8
3F8000FFF8
7FC000FFF8
FFE000FFF8
FFE000FFF8
FFE000FFF0
FFE001FFF0
FFE001FFE0
FFE003FFE0
7FC003FFC0
3FC007FF80
1FC00FFF00
0FC07FFC00
07FFFFF000
01FFFFC000
001FFC0000
ENDCHAR
STARTCHAR four
ENCODING 52
SWIDTH 649 0
DWIDTH 44 0
BBX 40 49 2 -12
BITMAP
000001FF80
000001FF80
000003FF80
000007FF80
00000FFF80
00001FFF80
00001FFF80
00003FFF80
00007FFF80
0000FBFF80
0001F3FF80
0001F3FF80
0003E3FF80
0007C3FF80
000F83FF80
001F03FF80
001F03FF80
003E03FF80
007C03FF80
00F803FF80
01F003FF80
01F003FF80
03E003FF80
07C003FF80
0F8003FF80
1F0003FF80
1F0003FF80
3E0003FF80
7C0003FF80
FFFFFFFFFF
FFFFFFFFFF
FFFFFFFFFF
FFFFFFFFFF
FFFFFFFFFF
FFFFFFFFFF
FFFFFFFFFF
000003FF80
000003FF80
000003FF80
000003FF80
000003FF80
000003FF80
000003FF80
000003FF80
000003FF80
000003FF80
000003FF80
000003FF80
000003FF80
ENDCHAR
STARTCHAR five
ENCODING 53
SWIDTH 599 0
DWIDTH 41 0
BBX 36 49 2 -12
BITMAP
03FFFFFFC0
03FFFFFFC0
03FFFFFFC0
03FFFFFFC0
07FFFFFFC0
07FFFFFFC0
07FFFFFFC0
07FFFFFFC0
07FFFFFFC0
0780000000
0780000000
0780000000
0F00000000
0F00000000
0F00000000
0F00000000
0F00000000
0F03FF0000
0F1FFFE000
0FFFFFF800
1FFFFFFE00
1FE03FFF00
1F800FFF80
1F0007FF80
0C0003FFC0
000003FFE0
000001FFE0
000001FFE0
000000FFF0
000000FFF0
000000FFF0
000000FFF0
000000FFF0
000000FFF0
1F0000FFF0
3FC000FFF0
7FC000FFE0
FFE001FFE0
FFE001FFE0
FFE001FFC0
FFE003FFC0
FFE003FF80
7FC007FF00
7FC00FFE00
3FC01FFC00
0FC07FF800
07FFFFE000
01FFFF8000
003FF80000
ENDCHAR
STARTCHAR six
ENCODING 54
SWIDTH 647 0
DWIDTH 44 0
BBX 38 49 3 -1
BITMAP
0000001C00
000001FE00
00000FFE00
00007FF000
0001FF8000
0007FE0000
000FF80000
003FF00000
007FE00000
00FFC00000
01FF800000
03FF000000
07FF000000
07FE000000
0FFE000000
1FFC000000
1FFC000000
3FF8000000
3FF80FF000
3FF87FFE00
7FF9FFFF00
7FFFFFFF80
7FFF07FFC0
7FFC01FFE0
FFF800FFF0
FFF000FFF0
FFF0007FF8
FFF0007FF8
FFF0007FFC
FFF0003FFC
FFF0003FFC
FFF0003FFC
FFF0003FFC
FFF0003FFC
FFF0003FFC
7FF0003FFC
7FF0003FFC
7FF8003FF8
3FF8003FF8
3FF8007FF0
1FF8007FF0
1FFC007FE0
0FFC00FFC0
07FE00FFC0
03FF01FF00
01FF87FE00
007FFFFC00
001FFFE000
0003FF0000
ENDCHAR
STARTCHAR seven
ENCODING 55
SWIDTH 554 0
DWIDTH 38 0
BBX 35 48 3 -12
BITMAP
FFFFFFFFE0
FFFFFFFFE0
FFFFFFFFE0
FFFFFFFFE0
FFFFFFFFE0
FFFFFFFFC0
FFFFFFFFC0
FFFFFFFF80
FFFFFFFF80
FC00000F00
F000000E00
E000001E00
E000003C00
E000003C00
C000007800
C000007800
000000F000
000000F000
000001E000
000003C000
000003C000
0000078000
0000078000
00000F0000
00000F0000
00001E0000
00003E0000
00003C0000
0000780000
0000780000
0000F00000
0000F00000
0001E00000
0003E00000
0003C00000
0007C00000
0007800000
000F000000
001F000000
001E000000
003E000000
003C000000
007C000000
0078000000
00F8000000
01F0000000
01E0000000
03E0000000
ENDCHAR
STARTCHAR eight
ENCODING 56
SWIDTH 676 0
DWIDTH 46 0
BBX 40 49 3 -1
BITMAP
0001FFC000
000FFFFC00
007FFFFF00
00FF81FFC0
03FF00FFE0
07FE007FF0
0FFC003FF8
0FF8003FF8
1FF8001FFC
1FF8001FFC
3FF8001FFC
3FF8001FFC
3FF8001FFC
3FFC001FFC
3FFE001FF8
3FFF001FF8
1FFF801FF0
1FFFE03FF0
1FFFF83FC0
0FFFFE3F80
07FFFFFE00
03FFFFF000
01FFFFFC00
00FFFFFF00
003FFFFFC0
000FFFFFE0
00FFFFFFF0
03F8FFFFF8
0FF83FFFFC
1FF007FFFE
3FF001FFFE
7FF0007FFF
7FE0003FFF
FFE0001FFF
FFE0000FFF
FFE00007FF
FFE00007FF
FFE00007FF
FFE00007FE
FFE00007FE
7FF00007FC
7FF0000FFC
3FF8000FF8
1FFC001FF0
0FFE003FE0
07FF80FFC0
01FFFFFF00
007FFFF800
0007FFC000
ENDCHAR
STARTCHAR nine
ENCODING 57
SWIDTH 647 0
DWIDTH 44 0
BBX 38 49 3 -12
BITMAP
0003FF0000
003FFFE000
00FFFFF800
01FF87FE00
07FE03FF00
0FFC01FF80
1FFC00FFC0
1FF800FFE0
3FF8007FE0
7FF8007FF0
7FF0007FF0
7FF0007FF8
FFF0003FF8
FFF0003FF8
FFF0003FF8
FFF0003FFC
FFF0003FFC
FFF0003FFC
FFF0003FFC
FFF0003FFC
7FF8003FFC
7FF8003FFC
7FF8003FFC
3FFC003FFC
3FFC007FFC
1FFE00FFFC
0FFF83FFF8
07FFFFBFF8
03FFFF7FF8
01FFFC7FF0
003FE07FF0
0000007FF0
000000FFE0
000000FFE0
000000FFC0
000001FF80
000001FF80
000003FF00
000007FE00
00000FFC00
00001FF800
00003FF000
00007FC000
0001FF8000
0007FE0000
003FF80000
01FFC00000
01FE000000
00E0000000
ENDCHAR
STARTCHAR colon
ENCODING 58
SWIDTH 367 0
DWIDTH 25 0
BBX 13 34 6 -1
BITMAP
0F80
3FE0
7FF0
7FF0
FFF8
FFF8
FFF8
FFF8
FFF8
7FF0
7FF0
3FE0
0F80
0000
0000
0000
0000
0000
0000
0000
0000
0F80
3FE0
7FF0
7FF0
FFF8
FFF8
FFF8
FFF8
FFF8
7FF0
7FF0
3FE0
0F80
ENDCHAR
STARTCHAR semicolon
ENCODING 59
SWIDTH 367 0
DWIDTH 25 0
BBX 13 46 6 -13
BITMAP
0F80
3FE0
7FF0
7FF0
FFF8
FFF8
FFF8
FFF8
FFF8
7FF0
7FF0
3FE0
0F80
0000
0000
0000
0000
0000
0000
0000
0000
0000
1F00
3FC0
7FE0
FFF0
FFF0
FFF8
FFF8
FFF8
7FF8
3FF8
1FF8
00F8
00F8
00F0
01F0
01E0
03C0
07C0
0F80
1F00
3E00
FC00
7000
4000
ENDCHAR
STARTCHAR less
ENCODING 60
SWIDTH 703 0
DWIDTH 48 0
BBX 33 38 7 0
BITMAP
0000000080
0000000380
0000000F80
0000003F80
000000FF80
000003FF80
00000FFE00
00003FF800
0000FFE000
0003FF8000
000FFE0000
003FF80000
00FFE00000
03FF800000
0FFE000000
3FF8000000
FFE0000000
FF80000000
FE00000000
FE00000000
FF80000000
FFE0000000
3FF8000000
0FFE000000
03FF800000
00FFE00000
003FF80000
000FFE0000
0003FF8000
0000FFE000
00003FF800
00000FFE00
000003FF80
000000FF80
0000003F80
0000000F80
0000000380
0000000080
ENDCHAR
STARTCHAR equal
ENCODING 61
SWIDTH 703 0
DWIDTH 48 0
BBX 36 19 6 10
BITMAP
FFFFFFFFF0
FFFFFFFFF0
FFFFFFFFF0
FFFFFFFFF0
FFFFFFFFF0
0000000000
0000000000
0000000000
0000000000
0000000000
0000000000
0000000000
0000000000
0000000000
FFFFFFFFF0
FFFFFFFFF0
FFFFFFFFF0
FFFFFFFFF0
FFFFFFFFF0
ENDCHAR
STARTCHAR greater
ENCODING 62
SWIDTH 703 0
DWIDTH 48 0
BBX 33 38 8 0
BITMAP
8000000000
E000000000
F800000000
FE00000000
FF80000000
FFE0000000
3FF8000000
0FFE000000
03FF800000
00FFE00000
003FF80000
000FFE0000
0003FF8000
0000FFE000
00003FF800
00000FFE00
000003FF80
000000FF80
0000003F80
0000003F80
000000FF80
000003FF80
00000FFE00
00003FF800
0000FFE000
0003FF8000
000FFE0000
003FF80000
00FFE00000
03FF800000
0FFE000000
3FF8000000
FFE0000000
FF80000000
FE00000000
F800000000
E000000000
8000000000
ENDCHAR
STARTCHAR question
ENCODING 63
SWIDTH 548 0
DWIDTH 37 0
BBX 30 49 3 -1
BITMAP
003FE000
03FFFC00
07FFFF00
1FE07F80
3FC03FC0
7FC01FE0
7FC00FF0
FFE00FF8
FFE007F8
FFE007F8
FFE007FC
FFE007FC
7FC007FC
3FC007FC
1F000FFC
00000FFC
00000FFC
00001FFC
00003FF8
0000FFF8
0003FFF0
001FFFF0
001FFFE0
001FFFC0
001FFF80
001FFF00
001FFC00
001FF000
001F8000
00180000
00180000
00180000
00180000
00180000
00000000
00000000
00000000
003E0000
00FF8000
01FFC000
01FFC000
03FFE000
03FFE000
03FFE000
03FFE000
01FFC000
01FFC000
00FF8000
003E0000
ENDCHAR
STARTCHAR at
ENCODING 64
SWIDTH 966 0
DWIDTH 66 0
BBX 56 57 5 -11
BITMAP
0000003FFC0000
000003FFFFC000
00001FFFFFF000
00007FE007FC00
0001FE0000FF00
0007F800001F80
000FE000000FC0
001F80000003E0
003F00000001F0
00FE00000000F0
00FC0000000078
01F8000000007C
03F0000000003C
07E0000000003C
07C0003F1FF81E
0FC001FF9FF01E
1F8003FFDFF01E
1F800FF1FFF00F
3F001FE0FFE00F
3F003FC07FE00F
3E007F807FE00F
7E007F807FC00F
7E00FF007FC00F
7E00FF00FFC00F
7C01FE00FF800F
FC01FE00FF800F
FC03FE01FF800F
FC03FE01FF001E
FC03FE01FF001E
FC07FC03FF001E
FC07FC03FE001C
FC07FC03FE003C
FC07FC07FE003C
FC07FC07FC0078
FC07FC07FC0070
FC07FC0FFC00E0
7E03FC1FFC01E0
7E03FE3FFC03C0
7E03FFF3FE0F80
7E01FFF1FFFE00
3F00FFC0FFF800
3F003F803FE000
1F800000000000
1F800000000000
0FC00000000000
07E00000000000
07E00000000000
03F00000000000
01F80000000100
00FE0000000380
007F0000000F00
001FC000003E00
000FF00001FC00
0003FF001FF000
0000FFFFFFC000
00001FFFFE0000
000000FFE00000
ENDCHAR
STARTCHAR A
ENCODING 65
SWIDTH 758 0
DWIDTH 52 0
BBX 56 47 -2 0
BITMAP
0000007F000000
000000FF000000
000000FF800000
000000FF800000
000001FFC00000
000001FFC00000
000003FFE00000
000003FFE00000
000007FFE00000
000007FFF00000
000007FFF00000
00000F7FF80000
00000E7FF80000
00001E3FFC0000
00001E3FFC0000
00003C3FFC0000
00003C1FFE0000
0000381FFE0000
0000780FFF0000
0000780FFF0000
0000F00FFF0000
0000F007FF8000
0001E007FF8000
0001E003FFC000
0001C003FFC000
0003C001FFE000
0003C001FFE000
00078001FFE000
0007FFFFFFF000
000FFFFFFFF000
000FFFFFFFF800
000F00007FF800
001E00003FF800
001E00003FFC00
003C00003FFC00
003C00001FFE00
007C00001FFE00
007800000FFF00
007800000FFF00
00F8000007FF00
01F0000007FF80
01F0000007FFC0
07F8000007FFE0
1FFF00003FFFF8
FFFFE003FFFFFF
FFFFE003FFFFFF
FFFFE003FFFFFF
ENDCHAR
STARTCHAR B
ENCODING 66
SWIDTH 757 0
DWIDTH 52 0
BBX 48 47 2 0
BITMAP
FFFFFFFFC000
FFFFFFFFFC00
FFFFFFFFFF00
1FFFE03FFFC0
03FFE007FFE0
01FFE003FFF0
01FFE001FFF0
01FFE001FFF8
01FFE000FFF8
01FFE000FFF8
01FFE000FFF8
01FFE000FFF8
01FFE000FFF8
01FFE000FFF8
01FFE000FFF0
01FFE001FFF0
01FFE001FFE0
01FFE003FFC0
01FFE007FF80
01FFE00FFE00
01FFE07FF800
01FFFFFF8000
01FFFFFF8000
01FFFFFFFC00
01FFE01FFF80
01FFE003FFE0
01FFE000FFF0
01FFE0007FF8
01FFE0007FFC
01FFE0003FFE
01FFE0003FFE
01FFE0001FFF
01FFE0001FFF
01FFE0001FFF
01FFE0001FFF
01FFE0001FFF
01FFE0001FFF
01FFE0001FFF
01FFE0003FFE
01FFE0003FFE
01FFE0007FFC
01FFE000FFFC
03FFF001FFF8
0FFFFC07FFE0
FFFFFFFFFF80
FFFFFFFFFE00
FFFFFFFFC000
ENDCHAR
STARTCHAR C
ENCODING 67
SWIDTH 715 0
DWIDTH 49 0
BBX 47 49 2 -1
BITMAP
000007FF8000
00007FFFF878
0003FFFFFEF8
000FFE03FFF8
001FF8007FF8
007FE0003FF8
00FFC0001FF8
01FF80000FF8
03FF800007F8
07FF000003F8
0FFE000001F8
0FFE000001F8
1FFE000000F8
1FFC000000F8
3FFC00000078
3FFC00000078
7FFC00000078
7FF800000038
7FF800000000
7FF800000000
FFF800000000
FFF800000000
FFF800000000
FFF800000000
FFF800000000
FFF800000000
FFF800000000
FFF800000000
FFF800000000
FFF800000000
7FF800000000
7FFC00000000
7FFC00000000
7FFC00000000
3FFC00000008
3FFE0000001E
1FFE0000001E
1FFE0000003C
0FFF00000078
07FF000000F8
07FF800000F0
03FFC00001E0
01FFE00003C0
00FFF0000F80
003FF8001F00
001FFF00FE00
0007FFFFF800
0000FFFFE000
00000FFE0000
ENDCHAR
STARTCHAR D
ENCODING 68
SWIDTH 833 0
DWIDTH 57 0
BBX 53 47 2 0
BITMAP
FFFFFFFE000000
FFFFFFFFF00000
FFFFFFFFFE0000
1FFFE00FFF8000
03FFE001FFE000
01FFE0007FF000
01FFE0003FF800
01FFE0001FFE00
01FFE0000FFF00
01FFE0000FFF00
01FFE00007FF80
01FFE00003FFC0
01FFE00003FFC0
01FFE00003FFE0
01FFE00001FFE0
01FFE00001FFF0
01FFE00001FFF0
01FFE00001FFF0
01FFE00000FFF8
01FFE00000FFF8
01FFE00000FFF8
01FFE00000FFF8
01FFE00000FFF8
01FFE00000FFF8
01FFE00000FFF8
01FFE00000FFF8
01FFE00000FFF8
01FFE00000FFF8
01FFE00000FFF8
01FFE00000FFF0
01FFE00001FFF0
01FFE00001FFF0
01FFE00001FFE0
01FFE00001FFE0
01FFE00001FFC0
01FFE00003FFC0
01FFE00003FF80
01FFE00007FF00
01FFE00007FF00
01FFE0000FFE00
01FFE0001FF800
01FFF0003FF000
03FFF000FFC000
0FFFFC03FF8000
FFFFFFFFFC0000
FFFFFFFFE00000
FFFFFFFE000000
ENDCHAR
STARTCHAR E
ENCODING 69
SWIDTH 721 0
DWIDTH 49 0
BBX 45 47 2 0
BITMAP
FFFFFFFFFFC0
FFFFFFFFFFC0
FFFFFFFFFFC0
1FFFE000FFC0
03FFE0003FC0
01FFE0001FC0
01FFE0000FC0
01FFE0000FC0
01FFE00007C0
01FFE00003C0
01FFE00003C0
01FFE00001C0
01FFE0000000
01FFE000E000
01FFE000E000
01FFE001E000
01FFE001E000
01FFE003E000
01FFE003E000
01FFE007E000
01FFE01FE000
01FFFFFFE000
01FFFFFFE000
01FFFFFFE000
01FFE01FE000
01FFE007E000
01FFE003E000
01FFE003E000
01FFE001E000
01FFE001E000
01FFE000E000
01FFE000E000
01FFE0000038
01FFE0000078
01FFE0000078
01FFE00000F8
01FFE00000F8
01FFE00001F8
01FFE00001F8
01FFE00003F8
01FFE00007F8
01FFE00007F0
03FFF0000FF0
0FFFF8007FF0
FFFFFFFFFFF0
FFFFFFFFFFF0
FFFFFFFFFFF0
ENDCHAR
STARTCHAR F
ENCODING 70
SWIDTH 671 0
DWIDTH 46 0
BBX 43 47 2 0
BITMAP
FFFFFFFFFFE0
FFFFFFFFFFE0
FFFFFFFFFFE0
1FFFE000FFE0
03FFE0003FE0
01FFE0001FE0
01FFE0000FE0
01FFE00007E0
01FFE00003E0
01FFE00003E0
01FFE00001E0
01FFE00001E0
01FFE00000E0
01FFE000E000
01FFE000E000
01FFE001E000
01FFE001E000
01FFE003E000
01FFE003E000
01FFE007E000
01FFE01FE000
01FFFFFFE000
01FFFFFFE000
01FFFFFFE000
01FFE01FE000
01FFE007E000
01FFE003E000
01FFE003E000
01FFE001E000
01FFE001E000
01FFE000E000
01FFE000E000
01FFE0000000
01FFE0000000
01FFE0000000
01FFE0000000
01FFE0000000
01FFE0000000
01FFE0000000
01FFE0000000
01FFE0000000
01FFE0000000
03FFF0000000
0FFFFE000000
FFFFFFC00000
FFFFFFC00000
FFFFFFC00000
ENDCHAR
STARTCHAR G
ENCODING 71
SWIDTH 807 0
DWIDTH 55 0
BBX 54 49 2 -1
BITMAP
000007FF800000
00007FFFF87800
0003FFFFFEF800
000FFE03FFF800
003FF8007FF800
007FE0003FF800
00FFC0000FF800
01FF800007F800
03FF800007F800
07FF000003F800
0FFE000001F800
0FFE000001F800
1FFE000000F800
3FFC000000F800
3FFC0000007800
3FFC0000007800
7FFC0000007800
7FF80000003800
7FF80000000000
FFF80000000000
FFF80000000000
FFF80000000000
FFF80000000000
FFF80000000000
FFF80000000000
FFF80000000000
FFF80007FFFFFC
FFF80007FFFFFC
FFF80007FFFFFC
FFF80000FFFFE0
FFF800003FFF00
7FFC00000FFE00
7FFC00000FFE00
7FFC00000FFE00
3FFC00000FFE00
3FFE00000FFE00
1FFE00000FFE00
1FFE00000FFE00
0FFF00000FFE00
0FFF00000FFE00
07FF80000FFE00
03FFC0000FFE00
01FFC0000FFE00
00FFE0001FFE00
007FF8003FF800
001FFE01FFE000
0007FFFFFF0000
0001FFFFF00000
00001FFE000000
ENDCHAR
STARTCHAR H
ENCODING 72
SWIDTH 913 0
DWIDTH 62 0
BBX 58 47 2 0
BITMAP
FFFFFFC0FFFFFFC0
FFFFFFC0FFFFFFC0
FFFFFFC0FFFFFFC0
1FFFFE001FFFFC00
07FFF00007FFF000
01FFE00001FFE000
01FFE00001FFE000
01FFE00001FFE000
01FFE00001FFE000
01FFE00001FFE000
01FFE00001FFE000
01FFE00001FFE000
01FFE00001FFE000
01FFE00001FFE000
01FFE00001FFE000
01FFE00001FFE000
01FFE00001FFE000
01FFE00001FFE000
01FFE00001FFE000
01FFE00001FFE000
01FFE00001FFE000
01FFFFFFFFFFE000
01FFFFFFFFFFE000
01FFFFFFFFFFE000
01FFE00001FFE000
01FFE00001FFE000
01FFE00001FFE000
01FFE00001FFE000
01FFE00001FFE000
01FFE00001FFE000
01FFE00001FFE000
01FFE00001FFE000
01FFE00001FFE000
01FFE00001FFE000
01FFE00001FFE000
01FFE00001FFE000
01FFE00001FFE000
01FFE00001FFE000
01FFE00001FFE000
01FFE00001FFE000
01FFE00001FFE000
01FFE00001FFE000
03FFF00003FFF000
0FFFFE000FFFFE00
FFFFFFC0FFFFFFC0
FFFFFFC0FFFFFFC0
FFFFFFC0FFFFFFC0
ENDCHAR
STARTCHAR I
ENCODING 73
SWIDTH 445 0
DWIDTH 30 0
BBX 26 47 2 0
BITMAP
FFFFFFC0
FFFFFFC0
FFFFFFC0
1FFFFC00
03FFF000
01FFE000
01FFE000
01FFE000
01FFE000
01FFE000
01FFE000
01FFE000
01FFE000
01FFE000
01FFE000
01FFE000
01FFE000
01FFE000
01FFE000
01FFE000
01FFE000
01FFE000
01FFE000
01FFE000
01FFE000
01FFE000
01FFE000
01FFE000
01FFE000
01FFE000
01FFE000
01FFE000
01FFE000
01FFE000
01FFE000
01FFE000
01FFE000
01FFE000
01FFE000
01FFE000
01FFE000
01FFE000
03FFF000
0FFFFE00
FFFFFFC0
FFFFFFC0
FFFFFFC0
ENDCHAR
STARTCHAR J
ENCODING 74
SWIDTH 595 0
DWIDTH 40 0
BBX 38 48 1 -1
BITMAP
000FFFFFFC
000FFFFFFC
000FFFFFFC
0001FFFFE0
00003FFF00
00001FFE00
00001FFE00
00001FFE00
00001FFE00
00001FFE00
00001FFE00
00001FFE00
00001FFE00
00001FFE00
00001FFE00
00001FFE00
00001FFE00
00001FFE00
00001FFE00
00001FFE00
00001FFE00
00001FFE00
00001FFE00
00001FFE00
00001FFE00
00001FFE00
00001FFE00
00001FFE00
00001FFE00
00001FFE00
0F801FFE00
3FE01FFE00
7FF01FFE00
7FF81FFE00
FFF81FFE00
FFF81FFE00
FFF81FFE00
FFF81FFC00
FFF03FFC00
FFF03FF800
FFE03FF800
7FC07FF000
7F807FE000
3F00FFC000
1F83FF8000
0FFFFF0000
03FFFC0000
007FC00000
ENDCHAR
STARTCHAR K
ENCODING 75
SWIDTH 816 0
DWIDTH 56 0
BBX 56 47 2 0
BITMAP
FFFFFFC07FFFF8
FFFFFFC07FFFF8
FFFFFFC07FFFF8
1FFFFC000FFFC0
03FFF00007FC00
01FFE00007F000
01FFE0000FE000
01FFE0001F8000
01FFE0001F0000
01FFE0003E0000
01FFE0007C0000
01FFE000F80000
01FFE001F00000
01FFE003E00000
01FFE007C00000
01FFE00F800000
01FFE01F000000
01FFE03E000000
01FFE07C000000
01FFE0FC000000
01FFE1FC000000
01FFE3FE000000
01FFE7FF000000
01FFFFFF800000
01FFFFFFC00000
01FFFFFFE00000
01FFE7FFF00000
01FFE3FFF00000
01FFE1FFF80000
01FFE0FFFC0000
01FFE0FFFE0000
01FFE07FFF0000
01FFE03FFF8000
01FFE01FFF8000
01FFE00FFFC000
01FFE007FFE000
01FFE007FFF000
01FFE003FFF800
01FFE001FFFC00
01FFE000FFFE00
01FFE0007FFF00
01FFE0007FFF80
03FFF0003FFFC0
0FFFFE001FFFF8
FFFFFFC01FFFFF
FFFFFFC00FFFFF
FFFFFFC007FFFF
ENDCHAR
STARTCHAR L
ENCODING 76
SWIDTH 685 0
DWIDTH 47 0
BBX 45 47 2 0
BITMAP
FFFFFFC00000
FFFFFFC00000
FFFFFFC00000
1FFFFC000000
03FFF0000000
01FFE0000000
01FFE0000000
01FFE0000000
01FFE0000000
01FFE0000000
01FFE0000000
01FFE0000000
01FFE0000000
01FFE0000000
01FFE0000000
01FFE0000000
01FFE0000000
01FFE0000000
01FFE0000000
01FFE0000000
01FFE0000000
01FFE0000000
01FFE0000000
01FFE0000000
01FFE0000000
01FFE0000000
01FFE0000000
01FFE0000000
01FFE0000000
01FFE0000000
01FFE0000000
01FFE0000000
01FFE0000038
01FFE0000078
01FFE0000078
01FFE00000F8
01FFE00000F8
01FFE00001F8
01FFE00001F8
01FFE00003F8
01FFE00007F0
01FFE0000FF0
03FFF0001FF0
0FFFF8007FF0
FFFFFFFFFFF0
FFFFFFFFFFF0
FFFFFFFFFFF0
ENDCHAR
STARTCHAR M
ENCODING 77
SWIDTH 1023 0
DWIDTH 70 0
BBX 67 47 1 0
BITMAP
FFFFFC000007FFFFE0
FFFFFE000007FFFFE0
FFFFFE00000FFFFFE0
1FFFFE00000FFFFE00
07FFFF00000FFFF800
01FFFF00000FFFF000
01F7FF00001EFFF000
00F7FF80001EFFF000
00F3FF80003EFFF000
00F3FFC0003CFFF000
00F3FFC0003CFFF000
00F1FFC00078FFF000
00F1FFE00078FFF000
00F1FFE000F8FFF000
00F0FFE000F0FFF000
00F0FFF000F0FFF000
00F07FF001E0FFF000
00F07FF801E0FFF000
00F07FF803E0FFF000
00F03FF803C0FFF000
00F03FFC03C0FFF000
00F03FFC0780FFF000
00F01FFC0780FFF000
00F01FFE0F80FFF000
00F00FFE0F00FFF000
00F00FFE0F00FFF000
00F00FFF1E00FFF000
00F007FF1E00FFF000
00F007FFBE00FFF000
00F007FFBC00FFF000
00F003FFBC00FFF000
00F003FFF800FFF000
00F001FFF800FFF000
00F001FFF800FFF000
00F001FFF000FFF000
00F000FFF000FFF000
00F000FFE000FFF000
00F000FFE000FFF000
00F0007FE000FFF000
01F8007FC000FFF000
01F8003FC000FFF000
01FC003F8000FFF000
03FE003F8001FFF800
1FFFC01F800FFFFF00
FFFFF01F007FFFFFE0
FFFFF01F007FFFFFE0
FFFFF000007FFFFFE0
ENDCHAR
STARTCHAR N
ENCODING 78
SWIDTH 839 0
DWIDTH 57 0
BBX 55 47 1 0
BITMAP
FFFF80001FFFFE
FFFFC0001FFFFE
FFFFE0001FFFFE
3FFFF00007FFF0
0FFFF80000FF80
03FFFC00007F00
01FFFC00003F00
01FFFE00003F00
00FFFF00001E00
00FFFF80001E00
00FFFFC0001E00
00FFFFC0001E00
00F7FFE0001E00
00F3FFF0001E00
00F1FFF8001E00
00F0FFFC001E00
00F07FFC001E00
00F07FFE001E00
00F03FFF001E00
00F01FFF801E00
00F00FFFC01E00
00F007FFC01E00
00F007FFE01E00
00F003FFF01E00
00F001FFF81E00
00F000FFFC1E00
00F0007FFC1E00
00F0007FFE1E00
00F0003FFF1E00
00F0001FFF9E00
00F0000FFFDE00
00F00007FFDE00
00F00007FFFE00
00F00003FFFE00
00F00001FFFE00
00F00000FFFE00
00F000007FFE00
00F000007FFE00
00F000003FFE00
00F800001FFE00
01F800000FFE00
01FC000007FE00
03FE000007FE00
1FFFC00003FE00
FFFFF00001FE00
FFFFF00000FE00
FFFFF000007E00
ENDCHAR
STARTCHAR O
ENCODING 79
SWIDTH 819 0
DWIDTH 56 0
BBX 52 49 2 -1
BITMAP
00000FFF000000
00007FFFF00000
0003FFFFFC0000
000FFE07FF0000
003FF000FFC000
007FE0007FE000
00FFC0003FF000
01FF80001FF800
03FF00000FFC00
07FF00000FFE00
0FFE000007FF00
0FFE000007FF80
1FFE000007FF80
1FFC000003FFC0
3FFC000003FFC0
3FFC000003FFE0
7FFC000003FFE0
7FF8000001FFE0
7FF8000001FFE0
7FF8000001FFF0
FFF8000001FFF0
FFF8000001FFF0
FFF8000001FFF0
FFF8000001FFF0
FFF8000001FFF0
FFF8000001FFF0
FFF8000001FFF0
FFF8000001FFF0
FFF8000001FFF0
FFF8000001FFE0
7FF8000001FFE0
7FF8000001FFE0
7FFC000003FFE0
7FFC000003FFC0
3FFC000003FFC0
3FFC000003FFC0
1FFE000007FF80
1FFE000007FF00
0FFE000007FF00
07FF00000FFE00
03FF00000FFC00
01FF80001FF800
00FFC0003FF000
007FE0007FE000
003FF000FFC000
000FFC03FF0000
0003FFFFFC0000
0000FFFFF00000
00000FFF000000
ENDCHAR
STARTCHAR P
ENCODING 80
SWIDTH 701 0
DWIDTH 48 0
BBX 45 47 2 0
BITMAP
FFFFFFFF8000
FFFFFFFFF800
FFFFFFFFFF00
1FFFE03FFF80
03FFE00FFFC0
01FFE003FFE0
01FFE003FFF0
01FFE001FFF0
01FFE001FFF8
01FFE000FFF8
01FFE000FFF8
01FFE000FFF8
01FFE000FFF8
01FFE000FFF8
01FFE000FFF8
01FFE000FFF8
01FFE000FFF0
01FFE001FFF0
01FFE001FFE0
01FFE001FFE0
01FFE003FFC0
01FFE007FF80
01FFE00FFF00
01FFE07FFE00
01FFFFFFF800
01FFFFFFC000
01FFFFFC0000
01FFE0000000
01FFE0000000
01FFE0000000
01FFE0000000
01FFE0000000
01FFE0000000
01FFE0000000
01FFE0000000
01FFE0000000
01FFE0000000
01FFE0000000
01FFE0000000
01FFE0000000
01FFE0000000
01FFE0000000
03FFF0000000
0FFFFE000000
FFFFFFC00000
FFFFFFC00000
FFFFFFC00000
ENDCHAR
STARTCHAR Q
ENCODING 81
SWIDTH 819 0
DWIDTH 56 0
BBX 52 62 2 -14
BITMAP
00000FFF000000
00007FFFE00000
0003FFFFFC0000
000FFE07FF0000
003FF000FFC000
007FE0007FE000
00FFC0003FF000
01FF80001FF800
03FF00000FFC00
07FF00000FFE00
0FFE000007FF00
0FFE000007FF80
1FFE000007FF80
1FFC000003FFC0
3FFC000003FFC0
3FFC000003FFE0
7FFC000003FFE0
7FF8000001FFE0
7FF8000001FFE0
7FF8000001FFF0
FFF8000001FFF0
FFF8000001FFF0
FFF8000001FFF0
FFF8000001FFF0
FFF8000001FFF0
FFF8000001FFF0
FFF8000001FFF0
FFF8000001FFF0
FFF8000001FFF0
FFF8000001FFF0
7FF8000001FFE0
7FF8000001FFE0
7FFC000003FFE0
7FFC000003FFC0
3FFC000003FFC0
3FFC000003FFC0
1FFE000007FF80
1FFE000007FF00
0FFE000007FF00
07FF00000FFE00
03FF00000FFC00
03FF80001FF800
01FFC0003FF000
007FE0007FE000
003FF000FFC000
000FFC03FF0000
0007FFFFFC0000
0000FFFFF00000
00001FFFF00000
000001FFF00000
000001FFF00000
000001FFF80000
000000FFF80000
000000FFF80000
000000FFFC0000
0000007FFC0000
0000007FFE0000
0000003FFF0000
0000001FFFC0C0
0000000FFFFFC0
00000003FFFF80
00000000FFE000
ENDCHAR
STARTCHAR R
ENCODING 82
SWIDTH 797 0
DWIDTH 54 0
BBX 54 47 2 0
BITMAP
FFFFFFFF800000
FFFFFFFFF80000
FFFFFFFFFE0000
1FFFE07FFF0000
03FFE00FFFC000
01FFE007FFC000
01FFE003FFE000
01FFE003FFE000
01FFE001FFF000
01FFE001FFF000
01FFE001FFF000
01FFE001FFF000
01FFE001FFF000
01FFE001FFF000
01FFE001FFF000
01FFE001FFE000
01FFE003FFE000
01FFE003FFE000
01FFE003FFC000
01FFE007FF8000
01FFE00FFF0000
01FFE01FFE0000
01FFE07FF80000
01FFFFFFC00000
01FFFFFF800000
01FFFFFFC00000
01FFE7FFE00000
01FFE3FFF00000
01FFE1FFF80000
01FFE1FFF80000
01FFE0FFFC0000
01FFE07FFE0000
01FFE03FFF0000
01FFE01FFF0000
01FFE01FFF8000
01FFE00FFFC000
01FFE007FFE000
01FFE007FFF000
01FFE003FFF800
01FFE001FFF800
01FFE000FFFC00
01FFE000FFFE00
03FFF0007FFF80
0FFFFE003FFFE0
FFFFFFC03FFFFC
FFFFFFC01FFFFC
FFFFFFC00FFFFC
ENDCHAR
STARTCHAR S
ENCODING 83
SWIDTH 648 0
DWIDTH 44 0
BBX 40 49 2 -1
BITMAP
0003FF8000
001FFFF078
00FFFFFEF8
01FF81FFF8
07FE003FF8
0FFC001FF8
0FF8000FF8
1FF00007F8
3FF00003F8
3FF00003F8
3FF00001F8
7FF00000F8
7FF00000F8
7FF80000F8
7FFC000078
7FFE000078
7FFF800038
7FFFE00000
3FFFFC0000
3FFFFF8000
1FFFFFF000
1FFFFFFE00
0FFFFFFF80
07FFFFFFE0
03FFFFFFF0
01FFFFFFF8
007FFFFFFC
001FFFFFFC
0003FFFFFE
00007FFFFE
00000FFFFF
E00001FFFF
F000007FFF
F000001FFF
F800000FFF
F800000FFF
FC000007FF
FC000007FF
FE000007FE
FF000007FE
FF800007FC
FFC0000FFC
FFE0000FF8
FFF0001FF0
FFF8003FE0
FFFF01FFC0
F9FFFFFF00
F03FFFFC00
0003FFC000
ENDCHAR
STARTCHAR T
ENCODING 84
SWIDTH 684 0
DWIDTH 47 0
BBX 46 47 1 0
BITMAP
FFFFFFFFFFFC
FFFFFFFFFFFC
FFFFFFFFFFFC
FFC07FF80FFC
FF007FF803FC
FE007FF801FC
FC007FF800FC
FC007FF800FC
F8007FF8007C
F8007FF8007C
F0007FF8003C
F0007FF8003C
E0007FF8001C
00007FF80000
00007FF80000
00007FF80000
00007FF80000
00007FF80000
00007FF80000
00007FF80000
00007FF80000
00007FF80000
00007FF80000
00007FF80000
00007FF80000
00007FF80000
00007FF80000
00007FF80000
00007FF80000
00007FF80000
00007FF80000
00007FF80000
00007FF80000
00007FF80000
00007FF80000
00007FF80000
00007FF80000
00007FF80000
00007FF80000
00007FF80000
00007FF80000
00007FF80000
0000FFFC0000
0003FFFF8000
003FFFFFF000
003FFFFFF000
003FFFFFF000
ENDCHAR
STARTCHAR U
ENCODING 85
SWIDTH 833 0
DWIDTH 57 0
BBX 56 48 1 -1
BITMAP
FFFFFFC00FFFFF
FFFFFFC00FFFFF
FFFFFFC00FFFFF
1FFFFC0003FFF8
07FFF000007FE0
03FFE000003F80
01FFE000001F80
01FFE000001F80
01FFE000001F00
01FFE000000F00
01FFE000000F00
01FFE000000F00
01FFE000000F00
01FFE000000F00
01FFE000000F00
01FFE000000F00
01FFE000000F00
01FFE000000F00
01FFE000000F00
01FFE000000F00
01FFE000000F00
01FFE000000F00
01FFE000000F00
01FFE000000F00
01FFE000000F00
01FFE000000F00
01FFE000000F00
01FFE000000F00
01FFE000000F00
01FFE000000F00
01FFE000000F00
01FFE000000F00
01FFE000000F00
01FFE000000F00
01FFE000000F00
01FFE000000E00
00FFE000001E00
00FFF000001E00
007FF000001C00
007FF800003C00
003FF800007800
003FFC00007000
001FFE0001F000
0007FF0003E000
0003FFE01F8000
0000FFFFFF0000
00003FFFF80000
000003FFC00000
ENDCHAR
STARTCHAR V
ENCODING 86
SWIDTH 762 0
DWIDTH 52 0
BBX 55 48 -2 -1
BITMAP
FFFFFFC00FFFFE
FFFFFFC00FFFFE
FFFFFFC00FFFFE
3FFFFC0001FFF8
07FFE000003FE0
03FFE000001F80
01FFE000001F00
00FFF000001F00
00FFF000001E00
00FFF000003E00
007FF800003C00
007FF800003C00
003FF800007800
003FFC00007800
001FFC0000F800
001FFE0000F000
001FFE0000F000
000FFF0001E000
000FFF0001E000
0007FF0003C000
0007FF8003C000
0007FF8003C000
0003FFC0078000
0003FFC0078000
0001FFC0070000
0001FFE00F0000
0001FFE00F0000
0000FFF01E0000
0000FFF01E0000
00007FF01C0000
00007FF83C0000
00007FF8380000
00003FFC780000
00003FFC780000
00001FFC700000
00001FFEF00000
00001FFEE00000
00000FFFE00000
00000FFFE00000
000007FFC00000
000007FFC00000
000007FF800000
000003FF800000
000003FF800000
000001FF000000
000001FF000000
000001FE000000
000000FE000000
ENDCHAR
STARTCHAR W
ENCODING 87
SWIDTH 1126 0
DWIDTH 77 0
BBX 79 48 -1 -1
BITMAP
FFFFFF8001FC000FFFFE
FFFFFF8001FE000FFFFE
FFFFFF8003FE000FFFFE
1FFFF80003FF0000FFF8
07FFE00003FF00001FE0
03FFC00007FF00000F80
01FFE00007FF80000F00
01FFE00007FF80001F00
00FFE0000FFF80001F00
00FFF0000FFFC0001E00
00FFF0000FFFC0001E00
007FF0001FFFC0003C00
007FF8001FFFE0003C00
007FF8001FFFE0003C00
003FF8003EFFE0003800
003FFC003CFFF0007800
003FFC003CFFF0007800
001FFC007C7FF0007000
001FFE00787FF800F000
001FFE00787FF800F000
000FFE00F03FFC00E000
000FFF00F03FFC01E000
0007FF00F03FFC01E000
0007FF01E01FFE01C000
0007FF81E01FFE01C000
0007FF81E00FFE03C000
0003FF83C00FFF038000
0003FFC3C00FFF038000
0001FFC3C007FF078000
0001FFC78007FF870000
0001FFE78007FF870000
0000FFE78003FF8F0000
0000FFEF0003FFCE0000
0000FFFF0003FFCE0000
00007FFF0001FFDE0000
00007FFE0001FFFC0000
00007FFE0001FFFC0000
00003FFE0000FFFC0000
00003FFC0000FFF80000
00003FFC00007FF80000
00001FFC00007FF80000
00001FF800007FF00000
00001FF800003FF00000
00000FF800003FF00000
00000FF000003FE00000
00000FF000001FE00000
000007F000001FE00000
000007E000001FC00000
ENDCHAR
STARTCHAR X
ENCODING 88
SWIDTH 808 0
DWIDTH 55 0
BBX 55 47 0 0
BITMAP
FFFFFFF81FFFF8
FFFFFFF81FFFF8
FFFFFFF81FFFF8
1FFFFF0003FFC0
03FFFC0001FF00
01FFFC0001FC00
00FFFC0003F800
007FFE0007F000
003FFF0007E000
001FFF000FC000
000FFF801F8000
000FFFC03F0000
0007FFC03E0000
0003FFE07C0000
0001FFF0FC0000
0001FFF1F80000
0000FFFBF00000
00007FFFE00000
00007FFFC00000
00003FFF800000
00001FFF000000
00000FFF800000
00000FFF800000
000007FFC00000
000003FFE00000
000007FFE00000
00000FFFF00000
00001FFFF80000
00003F7FF80000
00007E7FFC0000
0000FC3FFE0000
0001F81FFF0000
0001F01FFF0000
0003E00FFF8000
0007C007FFC000
000FC007FFE000
001F8003FFE000
003F0001FFF000
007E0001FFF800
00FE0000FFFC00
01FC00007FFC00
03F800007FFF00
07F800007FFF80
1FFE0001FFFFF0
FFFFC03FFFFFFE
FFFFC03FFFFFFE
FFFFC03FFFFFFE
ENDCHAR
STARTCHAR Y
ENCODING 89
SWIDTH 731 0
DWIDTH 50 0
BBX 54 47 -2 0
BITMAP
FFFFFFE007FFFC
FFFFFFE007FFFC
FFFFFFE007FFFC
1FFFF80000FFF0
07FFF000003FC0
03FFF000003F00
01FFF800003E00
00FFF800007C00
007FFC00007C00
003FFC0000F800
003FFE0000F000
001FFE0001E000
001FFF0003E000
000FFF0003C000
0007FF8007C000
0007FFC0078000
0003FFC00F0000
0003FFE01F0000
0001FFE01E0000
0000FFF03C0000
0000FFF87C0000
00007FF8780000
00007FFCF00000
00003FFCF00000
00001FFFE00000
00001FFFC00000
00000FFFC00000
00000FFFC00000
000007FF800000
000007FF800000
000007FF800000
000007FF800000
000007FF800000
000007FF800000
000007FF800000
000007FF800000
000007FF800000
000007FF800000
000007FF800000
000007FF800000
000007FF800000
000007FF800000
00000FFFC00000
00003FFFF80000
0003FFFFFF0000
0003FFFFFF0000
0003FFFFFF0000
ENDCHAR
STARTCHAR Z
ENCODING 90
SWIDTH 689 0
DWIDTH 47 0
BBX 46 47 1 0
BITMAP
0FFFFFFFFFF8
0FFFFFFFFFF8
0FFFFFFFFFF8
0FFE0001FFF0
0FF80003FFE0
0FF00007FFC0
0FE0000FFFC0
0FC0000FFF80
0F80001FFF00
1F80003FFE00
1F00007FFE00
1E00007FFC00
1E0000FFF800
1C0001FFF800
000003FFF000
000003FFE000
000007FFC000
00000FFFC000
00001FFF8000
00001FFF0000
00003FFE0000
00007FFE0000
00007FFC0000
0000FFF80000
0001FFF00000
0003FFF00000
0003FFE00000
0007FFC00000
000FFFC00000
001FFF800000
001FFF000000
003FFE00001C
007FFE00003C
00FFFC00003C
00FFF800007C
01FFF000007C
03FFF00000F8
03FFE00000F8
07FFC00001F8
0FFF800003F8
1FFF800003F8
1FFF000007F8
3FFE00000FF8
7FFC00003FF8
FFFFFFFFFFF8
FFFFFFFFFFF8
FFFFFFFFFFF0
ENDCHAR
STARTCHAR bracketleft
ENCODING 91
SWIDTH 446 0
DWIDTH 30 0
BBX 22 62 6 -11
BITMAP
FFFFFC
FFFFFC
FFFFFC
FFC000
FFC000
FFC000
FFC000
FFC000
FFC000
FFC000
FFC000
FFC000
FFC000
FFC000
FFC000
FFC000
FFC000
FFC000
FFC000
FFC000
FFC000
FFC000
FFC000
FFC000
FFC000
FFC000
FFC000
FFC000
FFC000
FFC000
FFC000
FFC000
FFC000
FFC000
FFC000
FFC000
FFC000
FFC000
FFC000
FFC000
FFC000
FFC000
FFC000
FFC000
FFC000
FFC000
FFC000
FFC000
FFC000
FFC000
FFC000
FFC000
FFC000
FFC000
FFC000
FFC000
FFC000
FFC000
FFC000
FFFFFC
FFFFFC
FFFFFC
ENDCHAR
STARTCHAR backslash
ENCODING 92
SWIDTH 471 0
DWIDTH 32 0
BBX 29 65 2 -14
BITMAP
F8000000
7C000000
7C000000
7E000000
3E000000
3E000000
3F000000
1F000000
1F000000
1F800000
0F800000
0F800000
07C00000
07C00000
07E00000
03E00000
03E00000
03F00000
01F00000
01F00000
01F80000
00F80000
00F80000
007C0000
007C0000
007E0000
003E0000
003E0000
003F0000
001F0000
001F0000
000F8000
000F8000
000F8000
0007C000
0007C000
0007E000
0003E000
0003E000
0003F000
0001F000
0001F000
0000F800
0000F800
0000FC00
00007C00
00007C00
00007E00
00003E00
00003E00
00003F00
00001F00
00001F00
00000F80
00000F80
00000FC0
000007C0
000007C0
000007E0
000003E0
000003E0
000003F0
000001F0
000001F0
000000F8
ENDCHAR
STARTCHAR bracketright
ENCODING 93
SWIDTH 446 0
DWIDTH 30 0
BBX 22 62 2 -11
BITMAP
FFFFFC
FFFFFC
FFFFFC
000FFC
000FFC
000FFC
000FFC
000FFC
000FFC
000FFC
000FFC
000FFC
000FFC
000FFC
000FFC
000FFC
000FFC
000FFC
000FFC
000FFC
000FFC
000FFC
000FFC
000FFC
000FFC
000FFC
000FFC
000FFC
000FFC
000FFC
000FFC
000FFC
000FFC
000FFC
000FFC
000FFC
000FFC
000FFC
000FFC
000FFC
000FFC
000FFC
000FFC
000FFC
000FFC
000FFC
000FFC
000FFC
000FFC
000FFC
000FFC
000FFC
000FFC
000FFC
000FFC
000FFC
000FFC
000FFC
000FFC
FFFFFC
FFFFFC
FFFFFC
ENDCHAR
STARTCHAR asciicircum
ENCODING 94
SWIDTH 703 0
DWIDTH 48 0
BBX 34 23 7 25
BITMAP
0003F00000
0003F00000
0007F80000
000FFC0000
000FFC0000
001FFE0000
001F3E0000
003F3F0000
007E1F8000
007C0F8000
00FC0FC000
01F807E000
01F003E000
03F003F000
07E001F800
07E000F800
0FC000FC00
1F80007E00
1F80007E00
3F00003F00
3E00001F00
7E00001F80
FC00000FC0
ENDCHAR
STARTCHAR underscore
ENCODING 95
SWIDTH 703 0
DWIDTH 48 0
BBX 48 3 0 -9
BITMAP
FFFFFFFFFFFF
FFFFFFFFFFFF
FFFFFFFFFFFF
ENDCHAR
STARTCHAR grave
ENCODING 96
SWIDTH 500 0
DWIDTH 34 0
BBX 17 15 7 37
BITMAP
3E0000
7F0000
FF8000
FFC000
FFE000
7FE000
3FF000
1FF800
07F800
03FC00
00FE00
003E00
001F00
000780
000100
ENDCHAR
STARTCHAR a
ENCODING 97
SWIDTH 595 0
DWIDTH 41 0
BBX 38 35 2 -1
BITMAP
000FFF0000
007FFFE000
03FFFFF800
07FC1FFC00
0FF00FFE00
1FF007FF00
3FF803FF00
3FF803FF80
3FF803FF80
3FF803FF80
1FF803FF80
1FF003FF80
07E003FF80
000007FF80
00003FFF80
0003FFFF80
001FF3FF80
00FFC3FF80
07FE03FF80
1FFC03FF80
3FF803FF80
7FF003FF80
7FE003FF80
FFE003FF80
FFE003FF80
FFE003FF80
FFE003FF80
FFE003FF80
FFF007FF80
FFFC1FFF80
7FFFFFFFC0
3FFFF9FFFC
1FFFE1FFFC
0FFFC0FFFC
03FE003FE0
ENDCHAR
STARTCHAR b
ENCODING 98
SWIDTH 645 0
DWIDTH 44 0
BBX 43 53 -1 -2
BITMAP
00FF80000000
FFFF80000000
FFFF80000000
FFFF80000000
1FFF80000000
07FF80000000
07FF80000000
03FF80000000
03FF80000000
03FF80000000
03FF80000000
03FF80000000
03FF80000000
03FF80000000
03FF80000000
03FF80000000
03FF80000000
03FF80FF0000
03FF83FFE000
03FF8FFFF000
03FFBFFFFC00
03FFFFFFFE00
03FFF03FFE00
03FFC01FFF00
03FF800FFF80
03FF8007FF80
03FF8003FFC0
03FF8003FFC0
03FF8003FFC0
03FF8003FFC0
03FF8001FFE0
03FF8001FFE0
03FF8001FFE0
03FF8001FFE0
03FF8001FFE0
03FF8001FFE0
03FF8001FFE0
03FF8001FFE0
03FF8001FFE0
03FF8001FFC0
03FF8001FFC0
03FF8003FFC0
03FF8003FF80
03FF8003FF80
03FF8007FF00
03FFC007FE00
03FFC00FFE00
03FFE01FFC00
03FFF83FF000
03F1FFFFE000
03E07FFF8000
03C00FFC0000
018000000000
ENDCHAR
STARTCHAR c
ENCODING 99
SWIDTH 531 0
DWIDTH 36 0
BBX 34 35 2 -1
BITMAP
0001FF8000
001FFFF000
007FFFFC00
01FFC3FE00
03FF01FF00
07FE01FF00
0FFC01FF80
1FFC03FF80
1FF803FF80
3FF803FF80
3FF803FF80
7FF003FF00
7FF001FF00
FFF0007E00
FFF0000000
FFF0000000
FFF0000000
FFF0000000
FFF0000000
FFF0000000
FFF0000000
FFF0000000
7FF8000000
7FF8000000
7FFC000100
3FFC0003C0
3FFE0003C0
1FFF000780
1FFF801F00
0FFFE07E00
07FFFFFC00
03FFFFF800
00FFFFF000
003FFFC000
0007FE0000
ENDCHAR
STARTCHAR d
ENCODING 100
SWIDTH 663 0
DWIDTH 45 0
BBX 43 52 2 -1
BITMAP
0000000FF800
00000FFFF800
00000FFFF800
00000FFFF800
000001FFF800
0000007FF800
0000007FF800
0000003FF800
0000003FF800
0000003FF800
0000003FF800
0000003FF800
0000003FF800
0000003FF800
0000003FF800
0000003FF800
0000003FF800
0007F83FF800
003FFFBFF800
00FFFFFFF800
01FFC3FFF800
07FF00FFF800
0FFE007FF800
0FFC007FF800
1FFC003FF800
3FF8003FF800
3FF8003FF800
7FF8003FF800
7FF8003FF800
7FF0003FF800
FFF0003FF800
FFF0003FF800
FFF0003FF800
FFF0003FF800
FFF0003FF800
FFF0003FF800
FFF0003FF800
FFF0003FF800
FFF0003FF800
7FF0003FF800
7FF8003FF800
7FF8003FF800
3FF8003FF800
3FFC003FF800
1FFE003FF800
1FFF007FFC00
0FFF81FFFE00
07FFFFFFFFE0
03FFFFBFFFE0
01FFFE3FFFE0
007FFC3FE000
001FE0000000
ENDCHAR
STARTCHAR e
ENCODING 101
SWIDTH 571 0
DWIDTH 39 0
BBX 36 35 2 -1
BITMAP
0003FF0000
001FFFE000
007FFFF800
01FF0FFE00
03FC07FF00
07FC03FF00
0FF803FF80
1FF801FFC0
3FF801FFC0
3FF001FFC0
7FF001FFE0
7FF001FFE0
7FF001FFE0
FFFFFFFFE0
FFFFFFFFE0
FFFFFFFFE0
FFF0000000
FFF0000000
FFF0000000
FFF0000000
FFF0000000
FFF8000000
7FF8000000
7FF8000000
7FFC000020
3FFC000070
3FFE0000F0
1FFF0001E0
1FFF8007C0
0FFFF01F80
07FFFFFF00
01FFFFFE00
00FFFFF800
003FFFE000
0003FF0000
ENDCHAR
STARTCHAR f
ENCODING 102
SWIDTH 393 0
DWIDTH 27 0
BBX 34 51 0 0
BITMAP
00000FF800
00007FFF00
0001FFFF80
0003F7FF80
000FE3FFC0
001FE3FFC0
001FE1FFC0
003FC1FFC0
007FC0FF80
007FC07F80
00FFC03E00
00FFC00000
00FFC00000
01FFC00000
01FFC00000
01FFC00000
01FFC00000
01FFC00000
FFFFFFE000
FFFFFFE000
FFFFFFE000
FFFFFFE000
01FFC00000
01FFC00000
01FFC00000
01FFC00000
01FFC00000
01FFC00000
01FFC00000
01FFC00000
01FFC00000
01FFC00000
01FFC00000
01FFC00000
01FFC00000
01FFC00000
01FFC00000
01FFC00000
01FFC00000
01FFC00000
01FFC00000
01FFC00000
01FFC00000
01FFC00000
01FFC00000
01FFC00000
01FFE00000
07FFF80000
3FFFFF0000
3FFFFF0000
3FFFFF0000
ENDCHAR
STARTCHAR g
ENCODING 103
SWIDTH 576 0
DWIDTH 39 0
BBX 39 49 0 -15
BITMAP
0007FE0000
007FFFFFFE
01FFFFFFFE
03FF0FFFFE
07FE07FFFE
0FFC03FF00
1FFC03FF80
1FF801FF80
3FF801FFC0
3FF801FFC0
3FF801FFC0
3FF801FFC0
3FF801FFC0
3FF801FFC0
1FF801FF80
1FFC03FF80
0FFC03FF00
07FE07FF00
03FF0FFC00
01FFFFF800
007FFFE000
001FFF0000
00F8000000
03F0000000
07F0000000
0FF0000000
0FFC000000
0FFFFFF800
0FFFFFFF80
0FFFFFFFE0
07FFFFFFF0
03FFFFFFF8
01FFFFFFFC
007FFFFFFC
003FFFFFFE
0FF0003FFE
3FE0000FFE
7FE00007FE
FFC00007FE
FFC00007FE
FFC00007FC
FFC00007FC
FFE0000FF8
7FE0000FF0
7FF8003FE0
3FFE00FFC0
0FFFFFFF00
03FFFFFC00
001FFFC000
ENDCHAR
STARTCHAR h
ENCODING 104
SWIDTH 679 0
DWIDTH 46 0
BBX 45 51 0 0
BITMAP
00FF80000000
FFFF80000000
FFFF80000000
FFFF80000000
1FFF80000000
07FF80000000
07FF80000000
03FF80000000
03FF80000000
03FF80000000
03FF80000000
03FF80000000
03FF80000000
03FF80000000
03FF80000000
03FF80000000
03FF80000000
03FF807F8000
03FF81FFE000
03FF87FFF800
03FF8FFFFC00
03FF9FFFFC00
03FFFC3FFE00
03FFF00FFE00
03FFC00FFF00
03FFC007FF00
03FF8007FF00
03FF8007FF00
03FF8007FF00
03FF8007FF00
03FF8007FF00
03FF8007FF00
03FF8007FF00
03FF8007FF00
03FF8007FF00
03FF8007FF00
03FF8007FF00
03FF8007FF00
03FF8007FF00
03FF8007FF00
03FF8007FF00
03FF8007FF00
03FF8007FF00
03FF8007FF00
03FF8007FF00
03FF8007FF00
03FFC007FF80
0FFFE00FFFE0
7FFFF87FFFF8
7FFFF87FFFF8
7FFFF87FFFF8
ENDCHAR
STARTCHAR i
ENCODING 105
SWIDTH 353 0
DWIDTH 24 0
BBX 22 52 1 0
BITMAP
007800
01FE00
03FF00
03FF00
07FF80
07FF80
07FF80
07FF80
03FF00
03FF00
01FE00
007800
000000
000000
000000
000000
000000
000000
00FF80
FFFF80
FFFF80
FFFF80
3FFF80
0FFF80
07FF80
03FF80
03FF80
03FF80
03FF80
03FF80
03FF80
03FF80
03FF80
03FF80
03FF80
03FF80
03FF80
03FF80
03FF80
03FF80
03FF80
03FF80
03FF80
03FF80
03FF80
03FF80
03FF80
07FFC0
0FFFF0
7FFFFC
7FFFFC
7FFFFC
ENDCHAR
STARTCHAR j
ENCODING 106
SWIDTH 346 0
DWIDTH 24 0
BBX 26 67 -8 -15
BITMAP
00003C00
0000FF00
0001FF80
0001FF80
0003FFC0
0003FFC0
0003FFC0
0003FFC0
0001FF80
0001FF80
0000FF00
00003C00
00000000
00000000
00000000
00000000
00000000
00000000
00007FC0
007FFFC0
007FFFC0
007FFFC0
001FFFC0
0007FFC0
0003FFC0
0001FFC0
0001FFC0
0001FFC0
0001FFC0
0001FFC0
0001FFC0
0001FFC0
0001FFC0
0001FFC0
0001FFC0
0001FFC0
0001FFC0
0001FFC0
0001FFC0
0001FFC0
0001FFC0
0001FFC0
0001FFC0
0001FFC0
0001FFC0
0001FFC0
0001FFC0
0001FFC0
0001FFC0
0001FFC0
0001FFC0
0001FFC0
0001FFC0
0001FF80
0001FF80
0001FF80
1F01FF00
7F81FF00
7FC1FE00
FFC1FE00
FFE3FC00
FFE3F800
FFF3F000
FFF7E000
7FFFC000
3FFF0000
0FF80000
ENDCHAR
STARTCHAR k
ENCODING 107
SWIDTH 631 0
DWIDTH 43 0
BBX 45 51 0 0
BITMAP
00FF80000000
FFFF80000000
FFFF80000000
FFFF80000000
1FFF80000000
07FF80000000
07FF80000000
03FF80000000
03FF80000000
03FF80000000
03FF80000000
03FF80000000
03FF80000000
03FF80000000
03FF80000000
03FF80000000
03FF80000000
03FF807FFFC0
03FF807FFFC0
03FF807FFF00
03FF801FFC00
03FF8007F000
03FF8007C000
03FF800F8000
03FF801F0000
03FF803E0000
03FF80780000
03FF80F00000
03FF81F00000
03FF83F00000
03FF87F80000
03FF8FFC0000
03FF9FFC0000
03FFFFFE0000
03FFFFFF0000
03FFEFFF0000
03FFCFFF8000
03FF87FFC000
03FF83FFE000
03FF83FFE000
03FF81FFF000
03FF80FFF800
03FF80FFF800
03FF807FFC00
03FF803FFE00
03FF803FFE00
03FFC01FFF00
0FFFF00FFFC0
7FFFFC0FFFF8
7FFFFC07FFF8
7FFFFC03FFF8
ENDCHAR
STARTCHAR l
ENCODING 108
SWIDTH 344 0
DWIDTH 23 0
BBX 22 51 0 0
BITMAP
00FF80
FFFF80
FFFF80
FFFF80
3FFF80
0FFF80
07FF80
03FF80
03FF80
03FF80
03FF80
03FF80
03FF80
03FF80
03FF80
03FF80
03FF80
03FF80
03FF80
03FF80
03FF80
03FF80
03FF80
03FF80
03FF80
03FF80
03FF80
03FF80
03FF80
03FF80
03FF80
03FF80
03FF80
03FF80
03FF80
03FF80
03FF80
03FF80
03FF80
03FF80
03FF80
03FF80
03FF80
03FF80
03FF80
03FF80
03FFC0
0FFFF0
7FFFFC
7FFFFC
7FFFFC
ENDCHAR
STARTCHAR m
ENCODING 109
SWIDTH 1015 0
DWIDTH 69 0
BBX 67 34 1 0
BITMAP
00FF00FF0001FE0000
FFFF07FFC007FFC000
FFFF0FFFF01FFFE000
FFFF1FFFF83FFFF000
3FFF7FFFFCFFFFF000
0FFFF07FFDE0FFF800
0FFFE01FFFC03FF800
07FF801FFF003FFC00
07FF800FFF001FFC00
07FF000FFE001FFC00
07FF000FFE001FFC00
07FF000FFE001FFC00
07FF000FFE001FFC00
07FF000FFE001FFC00
07FF000FFE001FFC00
07FF000FFE001FFC00
07FF000FFE001FFC00
07FF000FFE001FFC00
07FF000FFE001FFC00
07FF000FFE001FFC00
07FF000FFE001FFC00
07FF000FFE001FFC00
07FF000FFE001FFC00
07FF000FFE001FFC00
07FF000FFE001FFC00
07FF000FFE001FFC00
07FF000FFE001FFC00
07FF000FFE001FFC00
07FF000FFE001FFC00
07FF800FFF001FFE00
1FFFC01FFF803FFF80
FFFFF0FFFFE1FFFFE0
FFFFF0FFFFE1FFFFE0
FFFFF0FFFFE1FFFFE0
ENDCHAR
STARTCHAR n
ENCODING 110
SWIDTH 689 0
DWIDTH 47 0
BBX 45 34 1 0
BITMAP
00FF007F8000
FFFF03FFE000
FFFF0FFFF800
FFFF1FFFFC00
3FFF3FFFFC00
0FFF783FFE00
0FFFE01FFE00
07FF800FFF00
07FF8007FF00
07FF0007FF00
07FF0007FF00
07FF0007FF00
07FF0007FF00
07FF0007FF00
07FF0007FF00
07FF0007FF00
07FF0007FF00
07FF0007FF00
07FF0007FF00
07FF0007FF00
07FF0007FF00
07FF0007FF00
07FF0007FF00
07FF0007FF00
07FF0007FF00
07FF0007FF00
07FF0007FF00
07FF0007FF00
07FF0007FF00
07FF8007FF80
1FFFC00FFFE0
FFFFF07FFFF8
FFFFF07FFFF8
FFFFF07FFFF8
ENDCHAR
STARTCHAR o
ENCODING 111
SWIDTH 635 0
DWIDTH 43 0
BBX 39 35 2 -1
BITMAP
0003FF8000
001FFFF000
007FFFFE00
01FF83FF00
03FE00FF80
07FC007FE0
0FFC007FE0
1FF8003FF0
3FF8003FF8
3FF8003FF8
7FF0003FFC
7FF0001FFC
7FF0001FFC
FFF0001FFE
FFF0001FFE
FFF0001FFE
FFF0001FFE
FFF0001FFE
FFF0001FFE
FFF0001FFE
FFF0001FFE
FFF0001FFE
7FF0001FFC
7FF0001FFC
7FF0003FFC
3FF8003FF8
3FF8003FF8
1FF8003FF0
0FFC007FE0
07FC00FFC0
03FE00FF80
01FF83FF00
007FFFFC00
001FFFF000
0003FF0000
ENDCHAR
STARTCHAR p
ENCODING 112
SWIDTH 657 0
DWIDTH 45 0
BBX 43 49 0 -15
BITMAP
00FF80FF0000
FFFF83FFE000
FFFF8FFFF000
FFFF9FFFFC00
1FFFFFFFFE00
07FFF03FFE00
07FFC01FFF00
03FF800FFF80
03FF8007FF80
03FF8003FFC0
03FF8003FFC0
03FF8003FFC0
03FF8003FFC0
03FF8001FFE0
03FF8001FFE0
03FF8001FFE0
03FF8001FFE0
03FF8001FFE0
03FF8001FFE0
03FF8001FFE0
03FF8001FFE0
03FF8001FFE0
03FF8001FFC0
03FF8001FFC0
03FF8003FFC0
03FF8003FF80
03FF8003FF80
03FF8007FF00
03FFC007FE00
03FFC00FFE00
03FFE01FFC00
03FFF83FF000
03FFFFFFE000
03FF9FFF8000
03FF87FC0000
03FF80000000
03FF80000000
03FF80000000
03FF80000000
03FF80000000
03FF80000000
03FF80000000
03FF80000000
03FF80000000
07FFC0000000
1FFFF0000000
FFFFFE000000
FFFFFE000000
FFFFFE000000
ENDCHAR
STARTCHAR q
ENCODING 113
SWIDTH 648 0
DWIDTH 44 0
BBX 43 50 2 -15
BITMAP
000000001C00
0003FF003C00
003FFFE07C00
00FFFFFCFC00
01FF83FFFC00
03FF00FFF800
07FE007FF800
0FFC007FF800
1FFC003FF800
3FF8003FF800
3FF8003FF800
7FF8003FF800
7FF8003FF800
7FF0003FF800
FFF0003FF800
FFF0003FF800
FFF0003FF800
FFF0003FF800
FFF0003FF800
FFF0003FF800
FFF0003FF800
FFF0003FF800
FFF0003FF800
7FF0003FF800
7FF8003FF800
7FF8003FF800
7FF8003FF800
3FFC003FF800
3FFE003FF800
1FFF007FF800
0FFF81FFF800
07FFFFFFF800
03FFFFBFF800
01FFFF3FF800
007FFC3FF800
001FF03FF800
0000003FF800
0000003FF800
0000003FF800
0000003FF800
0000003FF800
0000003FF800
0000003FF800
0000003FF800
0000003FF800
0000007FFC00
000000FFFF00
00000FFFFFE0
00000FFFFFE0
00000FFFFFE0
ENDCHAR
STARTCHAR r
ENCODING 114
SWIDTH 520 0
DWIDTH 35 0
BBX 33 34 2 0
BITMAP
00FF01F800
FFFF07FE00
FFFF1FFF00
FFFF3FFF00
3FFF7FFF80
0FFFF3FF80
0FFFE3FF80
07FF83FF80
07FF83FF80
07FF03FF00
07FF01FF00
07FF01FE00
07FF007C00
07FF000000
07FF000000
07FF000000
07FF000000
07FF000000
07FF000000
07FF000000
07FF000000
07FF000000
07FF000000
07FF000000
07FF000000
07FF000000
07FF000000
07FF000000
07FF000000
07FF800000
1FFFE00000
FFFFFC0000
FFFFFC0000
FFFFFC0000
ENDCHAR
STARTCHAR s
ENCODING 115
SWIDTH 512 0
DWIDTH 35 0
BBX 31 35 2 -1
BITMAP
001FF030
01FFFF70
03FFFFF0
0FFC0FF0
1FF003F0
3FE001F8
3FE000F8
7FE00078
7FE00038
7FF00038
7FF80018
7FFE0000
7FFFE000
7FFFFC00
3FFFFF80
3FFFFFC0
1FFFFFF0
0FFFFFF8
07FFFFFC
01FFFFFC
007FFFFE
000FFFFE
C001FFFE
E0003FFE
E0000FFE
F00007FE
F80007FE
F80007FC
FC0007FC
FF0007F8
FF800FF0
FFF03FE0
EFFFFFC0
C1FFFF00
003FF000
ENDCHAR
STARTCHAR t
ENCODING 116
SWIDTH 397 0
DWIDTH 27 0
BBX 27 44 0 -1
BITMAP
03FF8000
03FF8000
03FF8000
03FF8000
03FF8000
03FF8000
03FF8000
03FF8000
03FF8000
03FF8000
FFFFFFE0
FFFFFFE0
FFFFFFE0
FFFFFFE0
03FF8000
03FF8000
03FF8000
03FF8000
03FF8000
03FF8000
03FF8000
03FF8000
03FF8000
03FF8000
03FF8000
03FF8000
03FF8000
03FF8000
03FF8000
03FF8000
03FF8000
03FF8000
03FF8000
03FF8000
03FF8000
03FF8000
03FFC000
03FFC000
01FFE000
01FFFFE0
00FFFFE0
007FFFE0
003FFF80
000FF800
ENDCHAR
STARTCHAR u
ENCODING 117
SWIDTH 676 0
DWIDTH 46 0
BBX 44 35 1 -1
BITMAP
00FF0001FE00
FFFF01FFFE00
FFFF01FFFE00
FFFF01FFFE00
3FFF003FFE00
0FFF001FFE00
07FF000FFE00
07FF000FFE00
07FF000FFE00
07FF000FFE00
07FF000FFE00
07FF000FFE00
07FF000FFE00
07FF000FFE00
07FF000FFE00
07FF000FFE00
07FF000FFE00
07FF000FFE00
07FF000FFE00
07FF000FFE00
07FF000FFE00
07FF000FFE00
07FF000FFE00
07FF000FFE00
07FF000FFE00
07FF000FFE00
07FF000FFE00
07FF801FFE00
03FF803FFF00
03FFE0FFFF80
01FFFFEFFFF0
01FFFF8FFFF0
00FFFF0FFFF0
007FFC0FF000
000FF0000000
ENDCHAR
STARTCHAR v
ENCODING 118
SWIDTH 566 0
DWIDTH 39 0
BBX 41 33 -1 0
BITMAP
FFFFF01FFF80
FFFFF01FFF80
FFFFF01FFF80
3FFFC003FE00
0FFF8000FC00
07FF80007800
07FF8000F000
03FFC000E000
03FFC000E000
01FFE001C000
01FFE001C000
00FFF0038000
00FFF0038000
00FFF8070000
007FF8070000
007FF8070000
003FFC0E0000
003FFC0E0000
001FFE1C0000
001FFE1C0000
000FFF380000
000FFF380000
0007FFF00000
0007FFF00000
0003FFE00000
0003FFE00000
0001FFC00000
0001FFC00000
0000FF800000
0000FF800000
0000FF800000
00007F000000
00007F000000
ENDCHAR
STARTCHAR w
ENCODING 119
SWIDTH 863 0
DWIDTH 59 0
BBX 59 33 0 0
BITMAP
FFFFF003F807FFE0
FFFFF003F807FFE0
FFFFF007FC07FFE0
3FFFC007FC00FF80
0FFF0007FE003F00
0FFF000FFE001E00
07FF800FFE001C00
07FF800FFF001C00
03FF801FFF003800
03FFC01FFF803800
01FFC01FFF803800
01FFE03BFF807000
01FFE03BFFC07000
00FFE03BFFC0E000
00FFF071FFE0E000
007FF071FFE0C000
007FF8F0FFE1C000
007FF8E0FFF1C000
003FF8E0FFF18000
003FFDE07FFB8000
003FFDC07FFB0000
001FFFC03FFF0000
001FFFC03FFF0000
000FFF803FFE0000
000FFF801FFE0000
000FFF801FFE0000
0007FF000FFC0000
0007FF000FFC0000
0003FE000FF80000
0003FE0007F80000
0003FE0007F80000
0001FC0003F00000
0001FC0003F00000
ENDCHAR
STARTCHAR x
ENCODING 120
SWIDTH 587 0
DWIDTH 40 0
BBX 40 33 0 0
BITMAP
FFFFF03FFE
FFFFF03FFE
FFFFF03FFE
1FFFE007F8
07FFE003E0
03FFF007C0
01FFF00780
00FFF80F00
00FFF81E00
007FFC3C00
003FFE7800
003FFEF000
001FFFE000
000FFFC000
000FFFC000
0007FFC000
0003FFE000
0001FFF000
0001FFF000
0003FFF800
00077FFC00
000E7FFC00
001C3FFE00
00781FFF00
00F01FFF80
01F00FFF80
03E007FFC0
07C007FFE0
0F8003FFF0
3FC003FFFC
FFF81FFFFF
FFF81FFFFF
FFF81FFFFF
ENDCHAR
STARTCHAR y
ENCODING 121
SWIDTH 562 0
DWIDTH 38 0
BBX 40 48 -1 -15
BITMAP
FFFFF03FFF
FFFFF03FFF
FFFFF03FFF
3FFFC007FC
0FFF8001F8
0FFF8000F0
07FF8000E0
03FFC001C0
03FFC001C0
01FFE003C0
01FFE00380
00FFF00380
00FFF00700
007FF80700
007FF80E00
003FFC0E00
003FFC1C00
001FFE1C00
001FFE1800
000FFF3800
000FFF3800
0007FFF000
0007FFF000
0003FFE000
0003FFE000
0001FFC000
0001FFC000
0000FF8000
0000FF8000
00007F0000
00007F0000
00003E0000
00003E0000
00001E0000
00001C0000
00001C0000
0000380000
0780380000
1FE0700000
1FF0700000
3FF0E00000
3FF9C00000
3FFDC00000
3FFF800000
1FFF000000
1FFE000000
0FFC000000
03F0000000
ENDCHAR
STARTCHAR z
ENCODING 122
SWIDTH 525 0
DWIDTH 36 0
BBX 33 33 1 0
BITMAP
7FFFFFFF80
7FFFFFFF80
7FFFFFFF80
7F001FFF00
7C003FFE00
78007FFE00
78007FFC00
7000FFF800
7001FFF800
6001FFF000
6003FFE000
0007FFC000
0007FFC000
000FFF8000
001FFF0000
003FFF0000
003FFE0000
007FFC0000
00FFFC0000
00FFF80000
01FFF00000
03FFF00180
03FFE00180
07FFC00380
0FFFC00380
0FFF800780
1FFF000780
3FFE000780
7FFE000F80
7FFC003F80
FFFFFFFF80
FFFFFFFF80
FFFFFFFF80
ENDCHAR
STARTCHAR braceleft
ENCODING 123
SWIDTH 500 0
DWIDTH 34 0
BBX 30 62 2 -11
BITMAP
000007FC
00007FFC
0001FFFC
0003FFC0
0007FF00
000FFE00
001FFC00
001FF800
003FF800
003FF800
003FF800
003FF800
003FF800
003FF800
003FF800
003FF800
003FF800
003FF800
003FF800
003FF800
003FF800
003FF800
003FF000
003FF000
003FE000
007FE000
00FFC000
01FF0000
0FFE0000
FFF00000
FF800000
FF800000
FF800000
FFF00000
0FFE0000
01FF8000
00FFC000
007FE000
003FE000
003FF000
003FF000
003FF800
003FF800
003FF800
003FF800
003FF800
003FF800
003FF800
003FF800
003FF800
003FF800
003FF800
003FF800
003FF800
001FF800
001FFC00
000FFE00
000FFF00
0007FFC0
0001FFFC
00007FFC
000007FC
ENDCHAR
STARTCHAR bar
ENCODING 124
SWIDTH 387 0
DWIDTH 26 0
BBX 5 65 10 -14
BITMAP
F8
F8
F8
F8
F8
F8
F8
F8
F8
F8
F8
F8
F8
F8
F8
F8
F8
F8
F8
F8
F8
F8
F8
F8
F8
F8
F8
F8
F8
F8
F8
F8
F8
F8
F8
F8
F8
F8
F8
F8
F8
F8
F8
F8
F8
F8
F8
F8
F8
F8
F8
F8
F8
F8
F8
F8
F8
F8
F8
F8
F8
F8
F8
F8
F8
ENDCHAR
STARTCHAR braceright
ENCODING 125
SWIDTH 500 0
DWIDTH 34 0
BBX 30 62 2 -11
BITMAP
FF800000
FFF80000
FFFE0000
0FFF0000
03FF8000
01FFC000
00FFE000
007FE000
007FE000
007FF000
007FF000
007FF000
007FF000
007FF000
007FF000
007FF000
007FF000
007FF000
007FF000
007FF000
007FF000
007FF000
003FF000
003FF000
001FF000
001FF800
000FFC00
0003FE00
0001FFC0
00003FFC
000007FC
000007FC
000007FC
00003FFC
0001FFC0
0007FE00
000FFC00
001FF800
001FF000
003FF000
003FF000
007FF000
007FF000
007FF000
007FF000
007FF000
007FF000
007FF000
007FF000
007FF000
007FF000
007FF000
007FF000
007FF000
007FE000
00FFE000
01FFC000
03FFC000
0FFF8000
FFFE0000
FFF80000
FF800000
ENDCHAR
STARTCHAR asciitilde
ENCODING 126
SWIDTH 703 0
DWIDTH 48 0
BBX 38 14 5 12
BITMAP
0000000030
007F00003C
01FFC0007C
03FFF00078
07FFF800F8
0FFFFE01F0
1FFFFF83F0
3F07FFFFE0
3E01FFFFC0
7C00FFFF80
78003FFF00
F8000FFE00
F00003F800
3000000000
ENDCHAR
STARTCHAR cent
ENCODING 162
SWIDTH 605 0
DWIDTH 41 0
BBX 35 52 4 -10
BITMAP
0000180000
0000180000
0000180000
0000180000
0000180000
0000180000
0000180000
0000180000
0001FF0000
000FFFF000
007FFFFC00
00FF9FFE00
03FF1FFF00
07FE1FFF80
0FFC1FFF80
1FFC1FFF80
1FF81FFF80
3FF81BFF00
3FF81BFF00
7FF818FC00
7FF0180000
FFF0180000
FFF0180000
FFF0180000
FFF0180000
FFF0180000
FFF0180000
FFF0180000
FFF0180000
FFF8180000
7FF8180000
7FF8180000
7FFC180080
3FFC1801E0
3FFE1803E0
1FFF1807C0
1FFF980F80
0FFFF87F00
07FFFFFE00
03FFFFFC00
00FFFFF000
003FFFC000
0003FE0000
0000180000
0000180000
0000180000
0000180000
0000180000
0000180000
0000180000
0000180000
0000180000
ENDCHAR
STARTCHAR sterling
ENCODING 163
SWIDTH 689 0
DWIDTH 47 0
BBX 39 48 4 0
BITMAP
00000FF800
00007FFF00
0001FFFFC0
0007FE03F0
000FF807F8
001FF007FC
003FE007FC
007FE00FFE
007FC00FFE
00FFC00FFE
00FFC00FFE
00FFC00FFE
01FFC007FC
01FFC007FC
01FFC001F0
01FFC00000
01FFC00000
01FFC00000
01FFC00000
01FFC00000
01FFC00000
01FFC00000
01FFC00000
01FFC00000
7FFFFFFF00
7FFFFFFF00
7FFFFFFF00
7FFFFFFF00
01FFC00000
01FFC00000
01FF800000
01FF800000
01FF800000
01FF000000
01FF000000
01FE000000
03FC000000
03F0000000
07C0000000
0FFFFFFFFE
1FFFFFFFFE
7FFFFFFFFE
FFFFFFFFFE
FFFFFFFFFE
FFFFFFFFFE
FFFFFFFFFE
FFFFFFFFFE
FFFFFFFFFE
ENDCHAR
STARTCHAR brokenbar
ENCODING 166
SWIDTH 387 0
DWIDTH 26 0
BBX 5 65 10 -14
BITMAP
F8
F8
F8
F8
F8
F8
F8
F8
F8
F8
F8
F8
F8
F8
F8
F8
F8
F8
F8
F8
F8
F8
F8
F8
F8
F8
F8
00
00
00
00
00
00
00
00
00
00
00
F8
F8
F8
F8
F8
F8
F8
F8
F8
F8
F8
F8
F8
F8
F8
F8
F8
F8
F8
F8
F8
F8
F8
F8
F8
F8
F8
ENDCHAR
STARTCHAR guillemotleft
ENCODING 171
SWIDTH 610 0
DWIDTH 42 0
BBX 33 30 5 3
BITMAP
0000800100
0003C00780
0007800F00
001F003E00
003F007E00
007E00FC00
01FC03F800
03F807F000
07F80FF000
1FF03FE000
3FE07FC000
7FC0FF8000
FFC1FF8000
FF81FF0000
FF01FE0000
FF01FE0000
FF81FF0000
FFC1FF8000
7FC0FF8000
3FE07FC000
1FF03FE000
0FF81FF000
03F807F000
01FC03F800
007E00FC00
003F007E00
001F003E00
0007800F00
0003C00780
0000800100
ENDCHAR
STARTCHAR hyphen.dup1
ENCODING 173
SWIDTH 378 0
DWIDTH 26 0
BBX 20 7 3 15
BITMAP
FFFFF0
FFFFF0
FFFFF0
FFFFF0
FFFFF0
FFFFF0
FFFFF0
ENDCHAR
STARTCHAR degree
ENCODING 176
SWIDTH 419 0
DWIDTH 29 0
BBX 23 22 3 26
BITMAP
00FE00
07FFC0
0FFFE0
1F83F0
3F01F8
7E00FC
7E00FC
FC007C
FC007E
FC007E
FC007E
FC007E
FC007E
FC007E
FC007C
7E00FC
7E00FC
3F01F8
1F83F0
0FFFE0
07FFC0
00FE00
ENDCHAR
STARTCHAR plusminus
ENCODING 177
SWIDTH 703 0
DWIDTH 48 0
BBX 37 40 5 0
BITMAP
0000F80000
0000F80000
0000F80000
0000F80000
0000F80000
0000F80000
0000F80000
0000F80000
0000F80000
0000F80000
0000F80000
0000F80000
0000F80000
0000F80000
0000F80000
0000F80000
FFFFFFFFF8
FFFFFFFFF8
FFFFFFFFF8
FFFFFFFFF8
FFFFFFFFF8
0000F80000
0000F80000
0000F80000
0000F80000
0000F80000
0000F80000
0000F80000
0000F80000
0000F80000
0000F80000
0000F80000
0000F80000
0000F80000
0000F80000
FFFFFFFFF8
FFFFFFFFF8
FFFFFFFFF8
FFFFFFFFF8
FFFFFFFFF8
ENDCHAR
STARTCHAR uni00B2
ENCODING 178
SWIDTH 551 0
DWIDTH 38 0
BBX 27 32 6 16
BITMAP
00FFC000
07FFF800
1F03FE00
3F01FF00
7F80FF80
FF80FF80
FF807FC0
FF807FC0
FF807FC0
FF807FC0
7F007FC0
3E007FC0
0000FF80
0000FF80
0001FF00
0001FF00
0003FE00
0007FC00
001FF000
003FC000
007F0000
01FC0000
03E00000
07800000
1E000000
3FFFFFE0
7FFFFFE0
FFFFFFE0
FFFFFFE0
FFFFFFE0
FFFFFFE0
FFFFFFE0
ENDCHAR
STARTCHAR uni00B3
ENCODING 179
SWIDTH 551 0
DWIDTH 38 0
BBX 28 33 5 15
BITMAP
003FE000
01FFFC00
07C1FE00
0FC0FF80
1FC07F80
3FE07FC0
3FE07FC0
3FE07FC0
3FE07FC0
3FE07FC0
1FC07F80
0F80FF80
0000FF00
0003FC00
003FF000
003FF800
003FFF00
0000FF80
00003FC0
00003FE0
00001FF0
3E001FF0
7F001FF0
FF801FF0
FF801FF0
FF801FF0
FF801FE0
FF803FE0
7F003FC0
3F007F80
1F01FE00
07FFF800
00FFC000
ENDCHAR
STARTCHAR acute
ENCODING 180
SWIDTH 500 0
DWIDTH 34 0
BBX 17 15 9 37
BITMAP
003E00
007F00
00FF80
01FF80
03FF80
03FF00
07FE00
0FFC00
0FF000
1FE000
3F8000
3E0000
780000
F00000
400000
ENDCHAR
STARTCHAR periodcentered
ENCODING 183
SWIDTH 337 0
DWIDTH 23 0
BBX 13 13 5 12
BITMAP
0F80
3FE0
7FF0
7FF0
FFF8
FFF8
FFF8
FFF8
FFF8
7FF0
7FF0
3FE0
0F80
ENDCHAR
STARTCHAR uni00B9
ENCODING 185
SWIDTH 551 0
DWIDTH 38 0
BBX 21 32 10 16
BITMAP
003E00
007E00
00FE00
07FE00
FFFE00
FFFE00
FFFE00
03FE00
03FE00
03FE00
03FE00
03FE00
03FE00
03FE00
03FE00
03FE00
03FE00
03FE00
03FE00
03FE00
03FE00
03FE00
03FE00
03FE00
03FE00
03FE00
03FE00
03FE00
03FF00
0FFFC0
FFFFF8
FFFFF8
ENDCHAR
STARTCHAR ordmasculine
ENCODING 186
SWIDTH 551 0
DWIDTH 38 0
BBX 32 28 3 20
BITMAP
001FF800
00FFFF00
03F81FC0
07F00FE0
0FE007F0
1FC003F8
3FC003FC
7FC003FE
7F8001FE
7F8001FE
FF8001FF
FF8001FF
FF8001FF
FF8001FF
FF8001FF
FF8001FF
FF8001FF
FF8001FF
7F8001FE
7F8001FE
7FC003FC
3FC003FC
1FC003F8
0FE007F0
07F00FE0
03F81FC0
00FFFF00
001FF800
ENDCHAR
STARTCHAR guillemotright
ENCODING 187
SWIDTH 610 0
DWIDTH 42 0
BBX 33 30 4 3
BITMAP
4000800000
F001E00000
7800F00000
3E007C0000
3F007E0000
1F803F0000
0FE01FC000
07F00FE000
07F80FF000
03FE07FC00
01FF03FE00
00FF81FF00
00FFC1FF80
007FC0FF80
003FC07F80
003FC07F80
007FC0FF80
00FFC1FF80
00FF81FF00
01FF03FE00
03FE07FC00
07FC0FF800
07F00FE000
0FE01FC000
1F803F0000
3F007E0000
3E007C0000
7800F00000
F001E00000
4000800000
ENDCHAR
STARTCHAR onequarter
ENCODING 188
SWIDTH 1071 0
DWIDTH 73 0
BBX 64 49 5 -1
BITMAP
003E000000000000
007E0000003E0000
00FE0000007C0000
03FE0000007C0000
FFFE000000F80000
FFFE000001F80000
FFFE000001F00000
03FE000003F00000
03FE000003E00000
03FE000007C00000
03FE000007C00000
03FE00000F800000
03FE00001F800000
03FE00001F000000
03FE00003E000000
03FE00003E000000
03FE00007C001FE0
03FE00007C003FE0
03FE0000F8007FE0
03FE0001F8007FE0
03FE0001F000FFE0
03FE0003E001FFE0
03FE0003E003DFE0
03FE0007C0079FE0
03FE0007C00F1FE0
03FE000F800F1FE0
03FE001F801E1FE0
03FE001F003C1FE0
07FF003E00781FE0
FFFFF83E00F01FE0
FFFFF87C01E01FE0
FFFFF87C01E01FE0
000000F803C01FE0
000001F807801FE0
000001F00F001FE0
000003E01E001FE0
000003E01FFFFFFF
000007C01FFFFFFF
000007C01FFFFFFF
00000F801FFFFFFF
00001F801FFFFFFF
00001F0000001FE0
00003E0000001FE0
00003E0000001FE0
00007C0000001FE0
00007C0000001FE0
0000F80000001FE0
0001F80000001FE0
0000000000001FE0
ENDCHAR
STARTCHAR onehalf
ENCODING 189
SWIDTH 1071 0
DWIDTH 73 0
BBX 65 48 5 0
BITMAP
003E00000000000000
007E000000FC000000
00FE000000F8000000
03FE000001F0000000
FFFE000001F0000000
FFFE000003E0000000
FFFE000007E0000000
03FE000007C0000000
03FE00000FC0000000
03FE00000F80000000
03FE00001F00000000
03FE00001F00000000
03FE00003E00000000
03FE00007E00000000
03FE00007C00000000
03FE0000FC00000000
03FE0000F803FF0000
03FE0001F01FFFE000
03FE0001F07FFFF000
03FE0003E0FC0FFC00
03FE0007E1FC07FC00
03FE0007C3FE03FE00
03FE000FC3FE03FE00
03FE000F83FE03FF00
03FE001F03FE03FF00
03FE001F01FC03FF00
03FE003E01FC03FF00
03FE007E003003FF00
07FF007C000003FE00
FFFFF8FC000007FE00
FFFFF8F8000007FC00
FFFFF9F000000FFC00
000001F000001FF800
000003E000003FF000
000007E000007FC000
000007C00000FF0000
00000FC00001FC0000
00000F800007F00000
00001F00000FC00000
00001F00001E000000
00003E000078000000
00007E0000FFFFFF80
00007C0001FFFFFF80
0000FC0003FFFFFF80
0000F80003FFFFFF80
0001F00003FFFFFF80
0001F00003FFFFFF80
0003E00003FFFFFF80
ENDCHAR
STARTCHAR threequarters
ENCODING 190
SWIDTH 1071 0
DWIDTH 73 0
BBX 66 49 4 -1
BITMAP
00FFF0000000000000
03FFFC000003E00000
0FC3FF000007E00000
1F80FF800007C00000
3FC0FF80000F800000
3FC07FC0000F800000
3FC07FC0001F000000
3FC07FC0003F000000
3FC07FC0003E000000
3FC07FC0007E000000
1F807F80007C000000
0000FF0000F8000000
0000FE0000F8000000
0003FC0001F0000000
007FE00003F0000000
007FF00003E0000000
007FFE0007E003F800
0001FF8007C007F800
00007FC00F800FF800
00007FE00F801FF800
00003FE01F003FF800
1C003FE03F007FF800
7E003FE03E007FF800
FF003FE07E00F7F800
FF003FE07C01E7F800
FF003FE0F803C7F800
FF003FE0F80787F800
FF007FC1F00F07F800
7F00FF83F00F07F800
3F01FF03E01E07F800
1FFFFE07E03C07F800
07FFF807C07807F800
00FFC00F80F007F800
0000000F81E007F800
0000001F01C007F800
0000003F03C007F800
0000003E07FFFFFFC0
0000007E07FFFFFFC0
0000007C07FFFFFFC0
000000F807FFFFFFC0
000000F807FFFFFFC0
000001F0000007F800
000003F0000007F800
000003E0000007F800
000007E0000007F800
000007C0000007F800
00000F80000007F800
00000F80000007F800
00000000000007F800
ENDCHAR
ENDFONT
